<?xml version="1.0" encoding="UTF-8"?>
<svg width="24px" height="19px" viewBox="0 0 24 19" version="1.1" xmlns="http://www.w3.org/2000/svg" xmlns:xlink="http://www.w3.org/1999/xlink">
    <!-- Generator: Sketch 52.5 (67469) - http://www.bohemiancoding.com/sketch -->
    <title>arrow-right-dark</title>
    <desc>Created with Sketch.</desc>
    <g id="Page-1" stroke="none" stroke-width="1" fill="none" fill-rule="evenodd">
        <g id="arrow-right-dark" fill="#06A0E3">
            <path d="M23.962,9.30825 C23.937,9.24625 23.9,9.19125 23.853,9.14525 L14.854,0.14625 C14.659,-0.04875 14.342,-0.04875 14.147,0.14625 C13.952,0.34125 13.952,0.65825 14.147,0.85325 L22.293,8.99925 L0.5,8.99925 C0.224,8.99925 7.10542736e-15,9.22325 7.10542736e-15,9.49925 C7.10542736e-15,9.77525 0.224,9.99925 0.5,9.99925 L22.293,9.99925 L14.147,18.14525 C13.952,18.34025 13.952,18.65725 14.147,18.85225 C14.245,18.95025 14.373,18.99825 14.501,18.99825 C14.629,18.99825 14.757,18.94925 14.855,18.85225 L23.854,9.85325 C23.9,9.80725 23.937,9.75125 23.963,9.69025 C24.012,9.56825 24.012,9.43025 23.962,9.30825 Z" id="Shape"></path>
        </g>
    </g>
</svg>