<?xml version="1.0" encoding="UTF-8"?>
<svg width="30px" height="30px" viewBox="0 0 30 30" version="1.1" xmlns="http://www.w3.org/2000/svg" xmlns:xlink="http://www.w3.org/1999/xlink">
    <!-- Generator: Sketch 52.4 (67378) - http://www.bohemiancoding.com/sketch -->
    <title>assets/jobs/filter-down-arrow</title>
    <desc>Created with Sketch.</desc>
    <g id="Page-1" stroke="none" stroke-width="1" fill="none" fill-rule="evenodd">
        <g id="Wunder-Careers-02-Jobs" transform="translate(-486.000000, -490.000000)" fill="#000000">
            <g id="Jobs-Section" transform="translate(208.000000, 470.000000)">
                <g id="Filter">
                    <g id="-City-Dropdown-">
                        <g id="Group" transform="translate(278.000000, 20.000000)">
                            <path d="M10.0002343,14.7166489 C9.99509325,14.5003407 10.0745567,14.2829833 10.238197,14.119343 L18.1155359,6.2420041 C18.4352745,5.92226552 18.9466039,5.91519621 19.2770321,6.24562443 L19.7255478,6.69414011 C20.0472858,7.01587815 20.0474437,7.53736071 19.7291681,7.85563628 L12.8681555,14.7166489 L19.7291681,21.5776615 C20.0474437,21.8959371 20.0472858,22.4174197 19.7255478,22.7391577 L19.2770321,23.1876734 C18.9466039,23.5181016 18.4352745,23.5110323 18.1155359,23.1912937 L10.238197,15.3139548 C10.0745567,15.1503145 9.99509325,14.9329571 10.0002343,14.7166489 Z" id="Combined-Shape" transform="translate(14.983683, 14.716649) scale(-1, 1) rotate(-90.000000) translate(-14.983683, -14.716649) "></path>
                        </g>
                    </g>
                </g>
            </g>
        </g>
    </g>
</svg>