<?xml version="1.0" encoding="UTF-8"?>
<svg width="16px" height="14px" viewBox="0 0 16 14" version="1.1" xmlns="http://www.w3.org/2000/svg" xmlns:xlink="http://www.w3.org/1999/xlink">
    <!-- Generator: Sketch 52.5 (67469) - http://www.bohemiancoding.com/sketch -->
    <title>icon-twitter</title>
    <desc>Created with Sketch.</desc>
    <g id="Page-1" stroke="none" stroke-width="1" fill="none" fill-rule="evenodd">
        <g id="logo-for-web-copy" transform="translate(-106.000000, -23.000000)" fill="#334146">
            <g id="icon-twitter" transform="translate(106.000000, 23.000000)">
                <path d="M14.1151611,2.2133468 C14.7932148,1.776542 15.3134942,1.0839232 15.5576686,0.2588473 C14.922815,0.6643074 14.2212831,0.9575329 13.4727945,1.1162791 C12.8755063,0.4287159 12.0218348,0 11.0770676,0 C9.2645419,0 7.7957387,1.5824065 7.7957387,3.5338726 C7.7957387,3.8109201 7.8229735,4.0808898 7.8793215,4.338726 C5.1520808,4.1911021 2.7338146,2.7856421 1.1138111,0.6461072 C0.8311322,1.1698686 0.6696015,1.776542 0.6696015,2.4236603 C0.6696015,3.6491405 1.2490462,4.7310415 2.1299525,5.3660263 C1.5918295,5.3478261 1.0856371,5.1870576 0.6423666,4.9241658 L0.6423666,4.9676441 C0.6423666,6.6804853 1.7730821,8.1092012 3.2766332,8.4327604 C3.0005283,8.5156724 2.7112755,8.5571284 2.4107531,8.5571284 C2.1994483,8.5571284 1.9928391,8.5358948 1.793743,8.4944388 C2.2107178,9.8978766 3.4231379,10.9211325 4.8600106,10.9484328 C3.735869,11.8968655 2.3205963,12.4610718 0.7832365,12.4610718 C0.5184011,12.4610718 0.2563832,12.445905 0,12.4125379 C1.4528379,13.4145602 3.1780243,14 5.0318718,14 C11.0704936,14 14.3706052,8.6147624 14.3706052,3.9443883 C14.3706052,3.7906977 14.3687269,3.6380182 14.362153,3.487361 C15.0035804,2.9888777 15.5614251,2.3660263 16,1.6572295 C15.4111639,1.9383215 14.7781886,2.1284125 14.1151611,2.2133468 Z" id="Shape"></path>
            </g>
        </g>
    </g>
</svg>