<?xml version="1.0" encoding="UTF-8"?>
<svg width="15px" height="15px" viewBox="0 0 15 15" version="1.1" xmlns="http://www.w3.org/2000/svg" xmlns:xlink="http://www.w3.org/1999/xlink">
    <!-- Generator: Sketch 52.5 (67469) - http://www.bohemiancoding.com/sketch -->
    <title>icon-linkedin-footer</title>
    <desc>Created with Sketch.</desc>
    <g id="Page-1" stroke="none" stroke-width="1" fill="none" fill-rule="evenodd">
        <g id="logo-for-web-copy" transform="translate(-53.000000, -23.000000)" fill="#334146" fill-rule="nonzero">
            <g id="icon-linkedin-footer" transform="translate(53.000000, 23.000000)">
                <path d="M0.3783514,4.8098348 L3.3019755,4.8098348 L3.3019755,14.9990396 L0.3783514,14.9990396 L0.3783514,4.8098348 Z M1.7656397,3.5353438 L1.7444732,3.5353438 C0.6861477,3.5353438 0,2.7564349 0,1.770073 C0,0.7635421 0.7064323,0 1.7859243,0 C2.8645343,0 3.5277516,0.7616212 3.5489182,1.7671917 C3.5489182,2.7535536 2.8645343,3.5353438 1.7656397,3.5353438 Z M15,15 L11.6847954,15 L11.6847954,9.7262774 C11.6847954,8.3461391 11.1662159,7.4049174 10.0258702,7.4049174 C9.1536336,7.4049174 8.6685677,8.0397618 8.4427916,8.6534768 C8.3581256,8.8724549 8.3713547,9.1788321 8.3713547,9.4861698 L8.3713547,15 L5.0870179,15 C5.0870179,15 5.1293509,5.6588552 5.0870179,4.8098348 L8.3713547,4.8098348 L8.3713547,6.4089512 C8.565381,5.709758 9.6148871,4.7118709 11.2896872,4.7118709 C13.3675329,4.7118709 15,6.1784479 15,9.3334614 L15,15 Z" id="Shape"></path>
            </g>
        </g>
    </g>
</svg>