<?xml version="1.0" encoding="UTF-8"?>
<svg width="40px" height="40px" viewBox="0 0 40 40" version="1.1" xmlns="http://www.w3.org/2000/svg" xmlns:xlink="http://www.w3.org/1999/xlink">
    <!-- Generator: Sketch 52.4 (67378) - http://www.bohemiancoding.com/sketch -->
    <title>assets/homepage/teams_03</title>
    <desc>Created with Sketch.</desc>
    <g id="Page-1" stroke="none" stroke-width="1" fill="none" fill-rule="evenodd">
        <g id="Wunder-Careers-03-Teams" transform="translate(-40.000000, -2007.000000)" fill="#04DE47" fill-rule="nonzero">
            <g id="Enginiering-Copy-2" transform="translate(10.000000, 1761.000000)">
                <g id="Group-15" transform="translate(30.000000, 246.000000)">
                    <g id="donut-chart" transform="translate(1.823734, 2.092308)">
                        <path d="M29.0429424,16.3404431 C28.5019796,12.1947096 25.5697658,8.7558829 21.5601388,7.56479897 L22.4697294,1.93189744 C29.2366822,3.60095739 34.1830518,9.40029646 34.7609982,16.3427159 L29.0429424,16.3404431 Z" id="Path" opacity="0.200000003"></path>
                        <path d="M18.4760583,34.0923077 C9.7224684,34.0972272 2.5190895,27.2081785 2.13814694,18.4673255 C1.75720438,9.72647248 8.3339612,2.23747033 17.054823,1.48159487 L17.054823,7.19688615 C12.8399704,7.76040171 9.36345925,10.7739061 8.20908522,14.8645358 C7.0547112,18.9551656 8.44335252,23.3402186 11.7423853,26.0219944 C15.0414181,28.7037702 19.6196045,29.1691371 23.3912583,27.2060877 L26.6787176,31.8754554 C24.1904682,33.3305209 21.3588941,34.0957827 18.4760583,34.0923077 Z" id="Path" opacity="0.200000003"></path>
                        <path d="M25.0083398,24.2853713 L31.0380724,30.312181 C33.7162022,27.6307185 35.4628583,24.1611398 36.0212075,20.4136215 L27.5995359,19.1381431 C27.3092645,21.086861 26.4010061,22.8910523 25.0083398,24.2853713 Z M34.3458554,21.5966246 C33.7651158,24.0488007 32.6175921,26.3308595 30.9952933,28.2598241 L26.9521632,24.2188913 C27.7468025,23.1787545 28.3402374,21.9995214 28.7019881,20.74176 L34.3458554,21.5966246 Z" id="Shape"></path>
                        <path d="M21.3017582,0.245606667 L19.9454734,8.65092308 C24.4199467,9.36904413 27.7114096,13.2269232 27.7140874,17.7564103 L27.7140874,17.7602456 L36.241499,17.764081 L36.241499,17.7588251 C36.237358,9.04733977 29.9073972,1.62699772 21.3017582,0.245606667 Z M29.0429424,16.3400169 C28.5018225,12.1944454 25.5696381,8.7558201 21.5601388,7.56479897 L22.4697294,1.93189744 C29.2366822,3.60095739 34.1830518,9.40029646 34.7609982,16.3427159 L29.0429424,16.3400169 Z" id="Shape"></path>
                        <path d="M18.4760583,26.9897436 C13.3740357,26.9897436 9.23802915,22.8558394 9.23802915,17.7564103 C9.23802915,12.6569811 13.3740357,8.52307692 18.4760583,8.52307692 L18.4760583,-1.43901628e-13 C10.8079944,-0.00887886623 3.99957244,4.90070555 1.58996513,12.1766395 C-0.819642187,19.4525734 1.71341393,27.4526774 7.87239322,32.0183152 C14.0313725,36.5839531 22.4261924,36.6846595 28.6930343,32.2680851 L23.7887778,25.3024585 C22.2354591,26.4012826 20.3790666,26.9908608 18.4760583,26.9897436 Z M18.4760583,34.0923077 C9.7224684,34.0972272 2.5190895,27.2081785 2.13814694,18.4673255 C1.75720438,9.72647248 8.3339612,2.23747033 17.054823,1.48159487 L17.054823,7.19688615 C12.8399704,7.76040171 9.36345925,10.7739061 8.20908522,14.8645358 C7.0547112,18.9551656 8.44335252,23.3402186 11.7423853,26.0219944 C15.0414181,28.7037702 19.6196045,29.1691371 23.3912583,27.2060877 L26.6787176,31.8754554 C24.1904682,33.3305209 21.3588941,34.0957827 18.4760583,34.0923077 Z" id="Shape"></path>
                    </g>
                </g>
            </g>
        </g>
    </g>
</svg>