<?xml version="1.0" encoding="UTF-8"?>
<svg width="281px" height="20px" viewBox="0 0 281 20" version="1.1" xmlns="http://www.w3.org/2000/svg" xmlns:xlink="http://www.w3.org/1999/xlink">
    <!-- Generator: Sketch 52.5 (67469) - http://www.bohemiancoding.com/sketch -->
    <title>wunder-mobility-careers-logo-dark</title>
    <desc>Created with Sketch.</desc>
    <g id="Page-1" stroke="none" stroke-width="1" fill="none" fill-rule="evenodd">
        <g id="Artboard" transform="translate(-61.000000, -105.000000)" fill="#334146">
            <g id="wunder-mobility-careers-logo-dark" transform="translate(61.000000, 105.000000)">
                <path d="M14.655,14.356 C16.2637945,12.7335336 16.2637945,10.1174664 14.655,8.495 L7.4,1.234 C5.7833272,-0.380324247 3.1646728,-0.380324247 1.548,1.234 C-0.0642686693,2.85386406 -0.0642686693,5.47213594 1.548,7.092 L8.802,14.356 C10.4206044,15.9665946 13.0363956,15.9665946 14.655,14.356 Z M36.492,1.234 C34.873512,-0.375931385 32.258488,-0.375931385 30.64,1.234 L26.227,5.64 L21.814,1.233 C20.1945846,-0.382243746 17.5734154,-0.382243746 15.954,1.233 C14.3420473,2.85377469 14.3420473,5.47222531 15.954,7.093 L23.216,14.355 C24.9029811,15.9588127 27.5510189,15.9588127 29.238,14.355 L36.492,7.094 C38.1007945,5.47153359 38.1007945,2.85546641 36.492,1.233 L36.492,1.234 Z M42.915,0.576 L47.209,0.576 L49.389,9.006 L49.453,9.006 L51.463,0.576 L55.696,0.576 L57.665,8.986 L57.726,8.986 L59.906,0.576 L64.203,0.576 L59.525,15.614 L55.865,15.614 L53.643,6.46 L53.603,6.46 L51.253,15.613 L47.594,15.613 L42.915,0.576 Z M64.047,11.316 L64.047,5.236 L67.815,5.236 L67.815,10.402 C67.815,11.887 68.215,12.501 69.173,12.501 C69.973,12.501 70.588,11.863 70.588,10.446 L70.588,5.236 L74.377,5.236 L74.377,15.613 L70.585,15.613 L70.585,14.514 L70.545,14.491 C69.858671,15.3544252 68.8087514,15.8481352 67.706,15.826 C65.591,15.826 64.046,14.684 64.046,11.314 L64.047,11.316 Z M75.989,5.237 L79.774,5.237 L79.774,6.336 L79.818,6.336 C80.5451737,5.48269379 81.6171135,5.00105507 82.738,5.024 C84.832,5.024 86.421,5.976 86.421,9.346 L86.421,15.614 L82.633,15.614 L82.633,10.258 C82.633,8.773 82.208,8.369 81.275,8.369 C80.341,8.369 79.771,8.986 79.771,10.403 L79.771,15.613 L75.989,15.613 L75.989,5.238 L75.989,5.237 Z M95.203,0.024 L95.203,6.25 L95.163,6.274 C94.4670131,5.46973107 93.4525461,5.01223353 92.389,5.023 C89.785,5.023 87.796,7.226 87.796,10.426 C87.796,13.626 89.765,15.826 92.623,15.826 C93.808,15.826 94.717,15.443 95.339,14.66 L95.389,14.66 L95.389,15.613 L98.988,15.613 L98.988,0.024 L95.203,0.024 Z M93.448,12.522 C92.388,12.522 91.605,11.695 91.605,10.427 C91.605,9.159 92.389,8.349 93.448,8.349 C94.507,8.349 95.352,9.197 95.352,10.427 C95.352,11.657 94.548,12.522 93.448,12.522 Z M110.985,10.342 C110.985,7.227 108.761,5.024 105.777,5.024 C102.647,5.024 100.404,7.292 100.404,10.427 C100.404,13.624 102.729,15.827 105.835,15.827 C108.211,15.827 109.769,15.064 110.638,14.007 L108.602,11.759 C108.015688,12.4338623 107.169876,12.8273138 106.276,12.841 C105.132,12.841 104.266,12.353 104.096,11.356 L110.886,11.356 C110.939,11.02 110.972,10.682 110.985,10.342 Z M104.107,9.302 C104.213851,8.48018496 104.928817,7.87484736 105.757,7.905 C106.582,7.905 107.152,8.414 107.322,9.302 L104.107,9.302 Z M112.424,5.234 L116.212,5.234 L116.212,6.63 L116.253,6.63 C116.883881,5.64653933 117.963799,5.04262593 119.132,5.02 L119.152,5.02 L119.152,9.07 C118.836,9.046 118.517,9.046 118.348,9.046 C116.888,9.046 116.212,9.874 116.212,11.08 L116.212,15.613 L112.424,15.613 L112.424,5.234 Z M124.244,0.573 L128.318,0.573 L132.082,8.051 L132.127,8.051 L135.86,0.573 L139.933,0.573 L139.933,15.61 L135.955,15.61 L135.955,8.22 L135.894,8.22 L133.374,12.902 L130.815,12.902 L128.296,8.176 L128.232,8.176 L128.232,15.61 L124.243,15.61 L124.243,0.573 L124.244,0.573 Z M141.557,10.42 C141.557,7.224 143.886,5.02 147.25,5.02 C150.614,5.02 152.922,7.224 152.922,10.42 C152.922,13.617 150.573,15.824 147.25,15.824 C143.926,15.824 141.557,13.62 141.557,10.42 Z M149.113,10.42 C149.113,9.214 148.35,8.366 147.25,8.366 C146.15,8.366 145.366,9.214 145.366,10.42 C145.366,11.627 146.17,12.498 147.25,12.498 C148.33,12.498 149.096,11.631 149.096,10.42 L149.113,10.42 Z M157.956,14.637 L157.912,14.657 L157.912,15.61 L154.321,15.61 L154.321,0.02 L158.109,0.02 L158.109,6.271 L158.149,6.271 C158.84265,5.46372024 159.858753,5.00585094 160.923,5.021 C163.523,5.021 165.513,7.224 165.513,10.421 C165.513,13.617 163.523,15.824 160.689,15.824 C159.504,15.824 158.574,15.441 157.939,14.637 L157.956,14.637 Z M161.721,10.42 C161.721,9.193 160.941,8.346 159.881,8.346 C158.761,8.346 157.956,9.193 157.956,10.42 C157.956,11.647 158.761,12.519 159.881,12.519 C160.923,12.519 161.704,11.692 161.704,10.42 L161.721,10.42 Z M166.779,2.014 C166.779,0.888 167.689,1.77635684e-15 168.959,1.77635684e-15 C170.229,1.77635684e-15 171.09,0.868 171.09,2.014 C171.09704,2.57762756 170.869645,3.11885536 170.462164,3.50832287 C170.054683,3.89779038 169.503734,4.10049947 168.941,4.068 C168.375839,4.09896314 167.822723,3.89670121 167.410856,3.50846061 C166.998988,3.12022 166.76444,2.58000337 166.762,2.014 L166.779,2.014 Z M167.03,5.231 L170.819,5.231 L170.819,15.611 L167.017,15.611 L167.03,5.231 Z M172.832,0.021 L176.62,0.021 L176.62,15.614 L172.832,15.614 L172.832,0.02 L172.832,0.021 Z M178.399,2.014 C178.399,0.888 179.309,2.66453526e-15 180.595,2.66453526e-15 C181.882,2.66453526e-15 182.755,0.868 182.755,2.014 C182.755,3.159 181.848,4.068 180.595,4.068 C180.026987,4.1038165 179.469358,3.90372629 179.0537,3.51494635 C178.638043,3.12616641 178.401178,2.58313649 178.399,2.014 Z M178.65,5.231 L182.439,5.231 L182.439,15.611 L178.65,15.611 L178.65,5.23 L178.65,5.231 Z M184.788,12.349 L184.788,8.241 L183.668,8.241 L183.668,5.23 L184.788,5.23 L184.788,1.969 L188.576,1.589 L188.576,5.231 L190.816,5.231 L190.816,8.241 L188.576,8.241 L188.576,11.546 C188.576,12.031 188.637,12.583 189.256,12.583 C189.516,12.573 189.774,12.523 190.019,12.433 L190.949,15.061 C190.029,15.611 188.965,15.876 187.894,15.824 C186.142,15.824 184.788,14.722 184.788,12.349 Z M195.494,14.847 L191.536,5.231 L195.579,5.231 L197.277,10.125 L197.341,10.125 L198.991,5.231 L202.725,5.231 L197.412,19.807 L193.736,19.807 L195.494,14.847 Z" id="Shape"></path>
                <path d="M218.52,16.107 C217.774107,16.1101004 217.03127,16.0115266 216.312,15.814 C215.620848,15.624266 214.964776,15.3244244 214.369,14.926 C213.780283,14.5324685 213.259201,14.0461704 212.826,13.486 C212.39,12.922 212.05,12.253 211.806,11.479 C211.555418,10.6627329 211.431642,9.81283217 211.439,8.959 C211.439,8.152 211.537,7.382 211.732,6.649 C211.918914,5.93684184 212.219438,5.25948172 212.622,4.643 C213.012242,4.04460853 213.496854,3.51339328 214.057,3.07 C214.650669,2.60958152 215.321906,2.25906202 216.039,2.035 C216.841034,1.78188053 217.67801,1.65700912 218.519,1.665 C219.19,1.665 219.843,1.755 220.478,1.937 C221.112,2.12 221.742,2.417 222.368,2.831 C222.992,3.244 223.555,3.761 224.057,4.379 L222.757,5.463 C222.239399,4.80335909 221.585065,4.26365313 220.839,3.881 C220.121068,3.51320329 219.325659,3.32223657 218.519,3.324 C217.459,3.324 216.527,3.565 215.727,4.047 C214.934036,4.52022319 214.296059,5.21414537 213.891,6.044 C213.467,6.894 213.256,7.865 213.256,8.959 C213.256,9.623 213.342,10.245 213.515,10.824 C213.67164,11.3710679 213.919084,11.8879293 214.247,12.353 C214.563,12.792 214.937,13.17 215.37,13.485 C215.803,13.801 216.286,14.04 216.82,14.203 C217.354,14.366 217.92,14.447 218.52,14.447 C220.2,14.447 221.612,13.741 222.758,12.328 L224.057,13.422 C223.409818,14.234927 222.599823,14.9035649 221.679,15.385 C220.757,15.867 219.704,16.107 218.519,16.107 L218.52,16.107 Z M233.822,6.264 L235.443,6.264 L235.443,16 L233.891,16 L233.891,14.457 L233.861,14.457 C233.473556,14.9759608 232.970163,15.397167 232.391,15.687 C231.7888,15.9846203 231.124679,16.1354011 230.453,16.127 C229.789,16.127 229.164,16.008 228.578,15.771 C228.010741,15.5451971 227.494554,15.2078732 227.06,14.779 C226.618935,14.3335868 226.27473,13.801788 226.049,13.217 C225.796852,12.5730161 225.670899,11.8865514 225.678,11.195 C225.678,10.245 225.881,9.385 226.288,8.617 C226.677605,7.86737545 227.267461,7.24047976 227.992,6.806 C228.722,6.366 229.538,6.146 230.443,6.146 C231.113,6.146 231.737,6.28 232.313,6.546 C232.887997,6.81209253 233.391758,7.2106467 233.783,7.709 L233.823,7.709 L233.823,6.264 L233.822,6.264 Z M230.609,14.643 C231.046,14.643 231.462,14.56 231.859,14.393 C232.248943,14.2318879 232.603856,13.9965242 232.904,13.7 C233.204,13.404 233.441,13.04 233.617,12.606 C233.793,12.174 233.881,11.706 233.881,11.206 C233.881,10.71 233.798,10.243 233.631,9.804 C233.47795,9.38570222 233.247995,8.99972947 232.953,8.666 C232.359724,8.00764199 231.515234,7.63154611 230.629,7.631 C229.685,7.631 228.899,7.96 228.271,8.617 C227.642,9.275 227.328,10.137 227.328,11.205 C227.328,12.201 227.631,13.023 228.236,13.671 C228.842,14.319 229.633,14.643 230.609,14.643 Z M243.246,6.146 C243.435,6.146 243.568,6.153 243.646,6.166 L243.646,7.953 C243.431838,7.93414035 243.216988,7.92413183 243.002,7.923 C242.396,7.923 241.869,8.07 241.42,8.363 C240.97,8.656 240.629,9.057 240.395,9.564 C240.16,10.072 240.043,10.652 240.043,11.303 L240.043,16 L238.422,16 L238.422,6.264 L240.043,6.264 L240.043,7.963 L240.082,7.963 C240.419052,7.41045888 240.886779,6.94925687 241.444,6.62 C241.991222,6.30309387 242.613673,6.13936377 243.246,6.146 Z M253.832,10.98 C253.832,11.228 253.816,11.45 253.783,11.645 L246.303,11.645 C246.407,12.549 246.755,13.274 247.348,13.817 C247.94,14.361 248.673,14.633 249.545,14.633 C250.125,14.633 250.645,14.514 251.107,14.276 C251.562629,14.0438739 251.965118,13.7197033 252.289,13.324 L253.422,14.291 C252.981805,14.8608152 252.415245,15.3205681 251.767,15.634 C251.099,15.963 250.339,16.127 249.487,16.127 C248.829178,16.1322369 248.176764,16.0078706 247.567,15.761 C246.991842,15.5303211 246.468843,15.1865295 246.029,14.75 C245.585297,14.2982198 245.239738,13.7596249 245.014,13.168 C244.762532,12.5206878 244.636623,11.8314123 244.643,11.137 C244.643,10.414 244.763,9.742 245.003,9.12 C245.245,8.498 245.572,7.971 245.985,7.538 C246.854135,6.64163931 248.051478,6.13886387 249.3,6.146 C250.193,6.146 250.984,6.355 251.674,6.771 C252.364,7.188 252.896,7.763 253.271,8.495 C253.645,9.228 253.832,10.056 253.832,10.98 Z M249.389,7.64 C248.62,7.64 247.958,7.88 247.401,8.358 C246.845,8.837 246.491,9.483 246.341,10.297 L252.221,10.297 C252.091,9.49 251.776,8.845 251.278,8.363 C250.78,7.882 250.15,7.641 249.388,7.641 L249.389,7.64 Z M264.867,10.98 C264.867,11.228 264.851,11.45 264.818,11.645 L257.338,11.645 C257.442,12.549 257.79,13.274 258.383,13.817 C258.975,14.361 259.708,14.633 260.58,14.633 C261.16,14.633 261.68,14.514 262.143,14.276 C262.598269,14.0437582 263.000409,13.7195949 263.324,13.324 L264.457,14.291 C264.016805,14.8608152 263.450245,15.3205681 262.802,15.634 C262.134,15.963 261.374,16.127 260.522,16.127 C259.864178,16.1322369 259.211764,16.0078706 258.602,15.761 C258.026842,15.5303211 257.503843,15.1865295 257.064,14.75 C256.620297,14.2982198 256.274738,13.7596249 256.049,13.168 C255.797532,12.5206878 255.671623,11.8314123 255.678,11.137 C255.678,10.414 255.798,9.742 256.039,9.12 C256.279,8.498 256.607,7.971 257.021,7.538 C257.890135,6.64163931 259.087478,6.13886387 260.336,6.146 C261.228,6.146 262.019,6.355 262.709,6.771 C263.399,7.188 263.931,7.763 264.306,8.495 C264.68,9.228 264.867,10.056 264.867,10.98 Z M260.424,7.64 C259.656,7.64 258.994,7.88 258.437,8.358 C257.88,8.837 257.527,9.483 257.377,10.297 L263.256,10.297 C263.126,9.49 262.812,8.845 262.313,8.363 C261.815,7.882 261.186,7.641 260.423,7.641 L260.424,7.64 Z M272.143,6.146 C272.331,6.146 272.465,6.153 272.543,6.166 L272.543,7.953 C272.328505,7.93411284 272.113322,7.92410429 271.898,7.923 C271.293,7.923 270.766,8.07 270.316,8.363 C269.867,8.656 269.526,9.057 269.291,9.564 C269.057,10.072 268.939,10.652 268.939,11.303 L268.939,16 L267.319,16 L267.319,6.264 L268.939,6.264 L268.939,7.963 L268.979,7.963 C269.316052,7.41045888 269.783779,6.94925687 270.341,6.62 C270.888222,6.30309387 271.510673,6.13936377 272.143,6.146 Z M277.436,16.127 C275.945,16.127 274.672,15.658 273.617,14.721 L274.457,13.491 C274.867,13.874 275.305,14.164 275.771,14.359 C276.236,14.555 276.791,14.652 277.436,14.652 C278.002,14.652 278.451,14.529 278.783,14.282 C279.115,14.034 279.281,13.725 279.281,13.354 C279.281,13.256 279.271,13.164 279.252,13.08 C279.231265,12.9923191 279.191301,12.9103427 279.135,12.84 C279.082602,12.7728783 279.027213,12.7081463 278.969,12.646 C278.89463,12.5741659 278.810461,12.5132274 278.719,12.465 C278.510044,12.3377316 278.288958,12.2315431 278.059,12.148 C277.898,12.086 277.766,12.037 277.665,12.001 C277.50988,11.9455791 277.355208,11.8889106 277.201,11.831 C277.122337,11.8066734 277.044311,11.7803314 276.967,11.752 C276.602,11.628 276.295,11.512 276.044,11.4 C275.772,11.2780452 275.509297,11.1363328 275.258,10.976 C275.012597,10.8271632 274.791939,10.6409199 274.604,10.424 C274.428987,10.2075356 274.29173,9.9631088 274.198,9.701 C274.088057,9.39754859 274.033853,9.07672751 274.038,8.754 C274.038,8.012 274.343,7.392 274.955,6.894 C275.567,6.396 276.335,6.146 277.26,6.146 C278.516,6.146 279.633,6.546 280.61,7.348 L279.77,8.627 C278.988,7.95 278.126,7.611 277.182,7.611 C276.791,7.611 276.444,7.717 276.142,7.929 C275.839,8.14 275.688,8.415 275.688,8.754 C275.688,8.936 275.731,9.102 275.819,9.252 C275.907,9.402 276.044,9.538 276.229,9.662 C276.415,9.786 276.602,9.892 276.791,9.979 C276.98,10.067 277.227,10.169 277.533,10.287 C278.575,10.691 279.203,10.945 279.418,11.049 C280.088,11.381 280.528,11.788 280.736,12.269 C280.866,12.569 280.932,12.924 280.932,13.334 C280.94197,14.0840416 280.626898,14.8017053 280.068,15.302 C279.784,15.559 279.416,15.761 278.964,15.907 C278.469307,16.0597937 277.953705,16.1340296 277.436,16.127 Z" id="Shape"></path>
            </g>
        </g>
    </g>
</svg>