<?xml version="1.0" encoding="UTF-8"?>
<svg width="281px" height="20px" viewBox="0 0 281 20" version="1.1" xmlns="http://www.w3.org/2000/svg" xmlns:xlink="http://www.w3.org/1999/xlink">
    <!-- Generator: Sketch 52.4 (67378) - http://www.bohemiancoding.com/sketch -->
    <title>assets/homepage/wunder-mobility-careers-logo-desktop</title>
    <desc>Created with Sketch.</desc>
    <g id="Page-1" stroke="none" stroke-width="1" fill="none" fill-rule="evenodd">
        <g id="Wunder-Careers-01-Landing-Page" transform="translate(-242.000000, -63.000000)" fill="#FFFFFF">
            <g id="Header" transform="translate(20.000000, 20.000000)">
                <g id="Navigation">
                    <g transform="translate(222.000000, 40.000000)">
                        <g id="Logo" transform="translate(0.000000, 3.000000)">
                            <g id="Wunder-Mobility-White" fill-rule="nonzero">
                                <path d="M14.654699,14.3559322 C16.2635592,12.7325466 16.2635592,10.1183008 14.654699,8.49491525 L7.40033445,1.23389831 C6.62428432,0.458883462 5.57169467,0.023479088 4.47414716,0.023479088 C3.37659964,0.023479088 2.32400999,0.458883462 1.54795987,1.23389831 C-0.0641992705,2.85460611 -0.0641992705,5.47081761 1.54795987,7.09152542 L8.80232441,14.3559322 C10.4199199,15.9660901 13.0371035,15.9660901 14.654699,14.3559322 Z M36.4924749,1.23389831 C34.8748794,-0.37625959 32.2576958,-0.37625959 30.6401003,1.23389831 L26.2270569,5.64067797 L21.8140134,1.23389831 C20.1956359,-0.380770193 17.5732269,-0.380770193 15.9548495,1.23389831 C14.3422956,2.85576556 14.3422956,5.473048 15.9548495,7.09491525 L23.2160033,14.3559322 C24.9020898,15.9598063 27.5520239,15.9598063 29.2381104,14.3559322 L36.4924749,7.09491525 C38.1013351,5.47152968 38.1013351,2.85728388 36.4924749,1.23389831 Z" id="Shape"></path>
                                <path d="M42.9151505,0.576271186 L47.2093813,0.576271186 L49.3887458,9.00677966 L49.4532441,9.00677966 L51.4628763,0.576271186 L55.6960033,0.576271186 L57.6648997,8.98644068 L57.7260033,8.98644068 L59.9053679,0.576271186 L64.2029933,0.576271186 L59.5251672,15.6135593 L55.8657358,15.6135593 L53.6422408,6.46101695 L53.601505,6.46101695 L51.252408,15.6135593 L47.5929766,15.6135593 L42.9151505,0.576271186 Z M64.0468395,11.3152542 L64.0468395,5.23728814 L67.8148997,5.23728814 L67.8148997,10.4033898 C67.8148997,11.8881356 68.2154682,12.5016949 69.1727592,12.5016949 C69.9738963,12.5016949 70.5883278,11.8644068 70.5883278,10.4474576 L70.5883278,5.23728814 L74.3767559,5.23728814 L74.3767559,15.6135593 L70.5849331,15.6135593 L70.5849331,14.5152542 L70.5441973,14.4915254 C69.8588192,15.354624 68.809148,15.8486234 67.7062709,15.8271186 C65.5914047,15.8271186 64.0468395,14.6847458 64.0468395,11.3152542 Z M75.989214,5.23728814 L79.7742475,5.23728814 L79.7742475,6.33559322 L79.8183779,6.33559322 C80.5449199,5.48280044 81.61676,5.00115703 82.7377759,5.02372881 C84.8322742,5.02372881 86.4209699,5.97627119 86.4209699,9.34576271 L86.4209699,15.6135593 L82.6325418,15.6135593 L82.6325418,10.2576271 C82.6325418,8.77288136 82.2082107,8.36949153 81.2746823,8.36949153 C80.3411538,8.36949153 79.7708528,8.98644068 79.7708528,10.4033898 L79.7708528,15.6135593 L75.989214,15.6135593 L75.989214,5.23728814 Z M95.2029264,0.0237288136 L95.2029264,6.25084746 L95.1621906,6.27457627 C94.4667473,5.47085294 93.4524085,5.01337469 92.3887625,5.02372881 C89.7850669,5.02372881 87.7958027,7.22711864 87.7958027,10.4271186 C87.7958027,13.6271186 89.764699,15.8271186 92.6229933,15.8271186 C93.8077258,15.8271186 94.7174916,15.4440678 95.3387124,14.6610169 L95.3896321,14.6610169 L95.3896321,15.6135593 L98.9879599,15.6135593 L98.9879599,0.0237288136 L95.2029264,0.0237288136 Z M93.447893,12.5220339 C92.3887625,12.5220339 91.6045987,11.6949153 91.6045987,10.4271186 C91.6045987,9.15932203 92.3887625,8.34915254 93.447893,8.34915254 C94.5070234,8.34915254 95.352291,9.19661017 95.352291,10.4271186 C95.352291,11.6576271 94.5477592,12.5220339 93.447893,12.5220339 Z M110.984649,10.3423729 C110.984649,7.22711864 108.761154,5.02372881 105.777258,5.02372881 C102.647391,5.02372881 100.403528,7.29152542 100.403528,10.4271186 C100.403528,13.6237288 102.728863,15.8271186 105.834967,15.8271186 C108.211221,15.8271186 109.769365,15.0644068 110.638395,14.0067797 L108.601605,11.759322 C108.015731,12.433548 107.170099,12.8267945 106.276271,12.840678 C105.132274,12.840678 104.266639,12.3525424 104.096906,11.3559322 L110.886204,11.3559322 C110.939102,11.0203254 110.971975,10.6818754 110.984649,10.3423729 Z M104.10709,9.30169492 C104.21348,8.48065079 104.928354,7.87548611 105.75689,7.90508475 C106.581789,7.90508475 107.15209,8.41355932 107.321823,9.30169492 L104.10709,9.30169492 Z M112.42398,5.23389831 L116.212408,5.23389831 L116.212408,6.63050847 L116.253144,6.63050847 C116.883247,5.64745535 117.9632,5.04338777 119.131806,5.02033898 L119.152174,5.02033898 L119.152174,9.07118644 C118.836472,9.04745763 118.517375,9.04745763 118.347642,9.04745763 C116.887943,9.04745763 116.212408,9.87457627 116.212408,11.0813559 L116.212408,15.6135593 L112.42398,15.6135593 L112.42398,5.23389831 Z M124.244147,0.572881356 L128.317726,0.572881356 L132.082391,8.05084746 L132.126522,8.05084746 L135.860635,0.572881356 L139.934214,0.572881356 L139.934214,15.6101695 L135.955686,15.6101695 L135.955686,8.22033898 L135.894582,8.22033898 L133.375753,12.9016949 L130.816187,12.9016949 L128.297358,8.17627119 L128.23286,8.17627119 L128.23286,15.6101695 L124.244147,15.6101695 L124.244147,0.572881356 Z M141.556856,10.420339 C141.556856,7.22372881 143.885585,5.02033898 147.249682,5.02033898 C150.613779,5.02033898 152.92214,7.22372881 152.92214,10.420339 C152.92214,13.6169492 150.573043,15.8237288 147.249682,15.8237288 C143.926321,15.8237288 141.556856,13.620339 141.556856,10.420339 Z M149.113344,10.420339 C149.113344,9.21355932 148.349548,8.36610169 147.249682,8.36610169 C146.149816,8.36610169 145.365652,9.21355932 145.365652,10.420339 C145.365652,11.6271186 146.170184,12.4983051 147.249682,12.4983051 C148.329181,12.4983051 149.096371,11.6305085 149.096371,10.420339 L149.113344,10.420339 Z M157.956405,14.6372881 L157.912274,14.6576271 L157.912274,15.6101695 L154.320736,15.6101695 L154.320736,0.0203389831 L158.109164,0.0203389831 L158.109164,6.27118644 L158.1499,6.27118644 C158.842765,5.46402069 159.8588,5.00577713 160.923328,5.02033898 C163.523629,5.02033898 165.512893,7.22372881 165.512893,10.420339 C165.512893,13.6169492 163.523629,15.8237288 160.689097,15.8237288 C159.504365,15.8237288 158.574231,15.440678 157.939431,14.6372881 L157.956405,14.6372881 Z M161.72107,10.420339 C161.72107,9.19322034 160.940301,8.34576271 159.881171,8.34576271 C158.760936,8.34576271 157.956405,9.19322034 157.956405,10.420339 C157.956405,11.6474576 158.760936,12.5186441 159.881171,12.5186441 C160.923328,12.5186441 161.704097,11.6915254 161.704097,10.420339 L161.72107,10.420339 Z M166.779097,2.01355932 C166.779097,0.888135593 167.688863,8.8817842e-16 168.958462,8.8817842e-16 C170.22806,8.8817842e-16 171.090301,0.86779661 171.090301,2.01355932 C171.096794,2.57645851 170.869367,3.11686992 170.462155,3.50615938 C170.054943,3.89544884 169.50437,4.09879546 168.941488,4.06779661 C168.375564,4.09944912 167.821511,3.89730003 167.409325,3.50877975 C166.997139,3.12025947 166.763101,2.57956479 166.762124,2.01355932 L166.779097,2.01355932 Z M167.030301,5.23050847 L170.818729,5.23050847 L170.818729,15.6101695 L167.016722,15.6101695 L167.030301,5.23050847 Z M172.831756,0.0203389831 L176.620184,0.0203389831 L176.620184,15.6135593 L172.831756,15.6135593 L172.831756,0.0203389831 Z M178.39898,2.01355932 C178.39898,0.888135593 179.308746,0 180.595318,0 C181.88189,0 182.754314,0.86779661 182.754314,2.01355932 C182.754314,3.15932203 181.847943,4.06779661 180.595318,4.06779661 C180.026549,4.10430398 179.467979,3.90432693 179.052004,3.51526512 C178.636029,3.12620331 178.399681,2.58269275 178.39898,2.01355932 Z M178.650184,5.23050847 L182.438612,5.23050847 L182.438612,15.6101695 L178.650184,15.6101695 L178.650184,5.23050847 Z M184.787709,12.3491525 L184.787709,8.24067797 L183.667475,8.24067797 L183.667475,5.23050847 L184.787709,5.23050847 L184.787709,1.96949153 L188.576137,1.58983051 L188.576137,5.23050847 L190.816605,5.23050847 L190.816605,8.24067797 L188.576137,8.24067797 L188.576137,11.5457627 C188.576137,12.0305085 188.637241,12.5830508 189.255067,12.5830508 C189.515873,12.5732025 189.773555,12.5228828 190.018863,12.4338983 L190.948997,15.0610169 C190.028379,15.6109643 188.965289,15.8763593 187.893813,15.8237288 C186.142174,15.8237288 184.787709,14.7220339 184.787709,12.3491525 Z M195.494431,14.8474576 L191.536271,5.23050847 L195.579298,5.23050847 L197.276622,10.1254237 L197.34112,10.1254237 L198.99092,5.23050847 L202.725033,5.23050847 L197.412408,19.8067797 L193.736003,19.8067797 L195.494431,14.8474576 Z" id="Shape"></path>
                            </g>
                            <path d="M218.519531,16.1074219 C217.751302,16.1074219 217.015625,16.0097656 216.3125,15.8144531 C215.609375,15.6191406 214.961589,15.3229167 214.369141,14.9257812 C213.776693,14.5286458 213.26237,14.0485027 212.826172,13.4853516 C212.389974,12.9222005 212.049805,12.2532552 211.805664,11.4785156 C211.561523,10.7037761 211.439453,9.86393234 211.439453,8.95898438 C211.439453,8.15169266 211.537109,7.38183594 211.732422,6.64941406 C211.927734,5.91699219 212.223958,5.24804688 212.621094,4.64257812 C213.018229,4.03710938 213.496745,3.51302078 214.056641,3.0703125 C214.616536,2.62760422 215.277344,2.28255203 216.039062,2.03515625 C216.800781,1.78776047 217.627604,1.6640625 218.519531,1.6640625 C219.190104,1.6640625 219.842773,1.75520828 220.477539,1.9375 C221.112305,2.11979172 221.742188,2.41764328 222.367188,2.83105469 C222.992188,3.2444661 223.555339,3.76041672 224.056641,4.37890625 L222.757812,5.46289062 C222.210938,4.77929688 221.571289,4.25195312 220.838867,3.88085938 C220.106445,3.50976562 219.333333,3.32421875 218.519531,3.32421875 C217.458333,3.32421875 216.527344,3.56510422 215.726562,4.046875 C214.925781,4.52864578 214.313802,5.19433594 213.890625,6.04394531 C213.467448,6.89355469 213.255859,7.86523438 213.255859,8.95898438 C213.255859,9.62304688 213.342122,10.2447917 213.514648,10.8242188 C213.687175,11.4036458 213.931315,11.9130859 214.24707,12.3525391 C214.562825,12.7919922 214.937175,13.1695964 215.370117,13.4853516 C215.80306,13.8011067 216.286458,14.0403645 216.820312,14.203125 C217.354167,14.3658855 217.920573,14.4472656 218.519531,14.4472656 C220.199219,14.4472656 221.611979,13.7408855 222.757812,12.328125 L224.056641,13.421875 C223.392578,14.248698 222.599935,14.9029948 221.678711,15.3847656 C220.757487,15.8665364 219.704427,16.1074219 218.519531,16.1074219 Z M233.822266,6.26367188 L235.443359,6.26367188 L235.443359,16 L233.890625,16 L233.890625,14.4570312 L233.861328,14.4570312 C233.464193,14.984375 232.974284,15.3945312 232.391602,15.6875 C231.808919,15.9804688 231.16276,16.1269531 230.453125,16.1269531 C229.789062,16.1269531 229.164062,16.008138 228.578125,15.7705078 C227.992188,15.5328777 227.486003,15.2024739 227.05957,14.7792969 C226.633138,14.3561198 226.296224,13.8352864 226.048828,13.2167969 C225.801432,12.5983073 225.677734,11.9244792 225.677734,11.1953125 C225.677734,10.2447917 225.881185,9.38541672 226.288086,8.6171875 C226.694987,7.84895828 227.263021,7.24511719 227.992188,6.80566406 C228.721354,6.36621094 229.538411,6.14648438 230.443359,6.14648438 C231.113932,6.14648438 231.737305,6.27994797 232.313477,6.546875 C232.889648,6.81380203 233.379557,7.20117188 233.783203,7.70898438 L233.822266,7.70898438 L233.822266,6.26367188 Z M230.609375,14.6425781 C231.045573,14.6425781 231.46224,14.5595703 231.859375,14.3935547 C232.25651,14.2275391 232.604818,13.9964192 232.904297,13.7001953 C233.203776,13.4039714 233.441406,13.039388 233.617188,12.6064453 C233.792969,12.1735027 233.880859,11.7063802 233.880859,11.2050781 C233.880859,10.7102864 233.797852,10.2431641 233.631836,9.80371094 C233.46582,9.36425781 233.239583,8.98502609 232.953125,8.66601562 C232.666667,8.34700516 232.321615,8.09472656 231.917969,7.90917969 C231.514323,7.72363281 231.084635,7.63085938 230.628906,7.63085938 C229.684896,7.63085938 228.898763,7.95963547 228.270508,8.6171875 C227.642253,9.27473953 227.328125,10.1373698 227.328125,11.2050781 C227.328125,12.2011719 227.630859,13.023112 228.236328,13.6708984 C228.841797,14.3186848 229.632812,14.6425781 230.609375,14.6425781 Z M243.246094,6.14648438 C243.434896,6.14648438 243.568359,6.15299484 243.646484,6.16601562 L243.646484,7.953125 C243.412109,7.93359375 243.197266,7.92382812 243.001953,7.92382812 C242.396484,7.92382812 241.869141,8.0703125 241.419922,8.36328125 C240.970703,8.65625 240.628906,9.05664062 240.394531,9.56445312 C240.160156,10.0722656 240.042969,10.6516927 240.042969,11.3027344 L240.042969,16 L238.421875,16 L238.421875,6.26367188 L240.042969,6.26367188 L240.042969,7.96289062 L240.082031,7.96289062 C240.446615,7.38346359 240.900716,6.93587235 241.444336,6.62011719 C241.987956,6.30436203 242.588542,6.14648438 243.246094,6.14648438 Z M253.832031,10.9804688 C253.832031,11.2278645 253.815755,11.4492188 253.783203,11.6445312 L246.302734,11.6445312 C246.406901,12.5494792 246.755208,13.273763 247.347656,13.8173828 C247.940104,14.3610027 248.672526,14.6328125 249.544922,14.6328125 C250.124349,14.6328125 250.645182,14.5139973 251.107422,14.2763672 C251.569661,14.038737 251.963542,13.7213542 252.289062,13.3242188 L253.421875,14.2910156 C252.985677,14.8574219 252.433919,15.305013 251.766602,15.6337891 C251.099284,15.9625652 250.339193,16.1269531 249.486328,16.1269531 C248.802734,16.1269531 248.163086,16.0048828 247.567383,15.7607422 C246.97168,15.5166016 246.458984,15.1796875 246.029297,14.75 C245.599609,14.3203125 245.261068,13.7929688 245.013672,13.1679688 C244.766276,12.5429688 244.642578,11.8658855 244.642578,11.1367188 C244.642578,10.4140625 244.763021,9.74186203 245.003906,9.12011719 C245.244792,8.49837235 245.57194,7.9710286 245.985352,7.53808594 C246.398763,7.10514328 246.891927,6.76497391 247.464844,6.51757812 C248.03776,6.27018234 248.64974,6.14648438 249.300781,6.14648438 C250.192708,6.14648438 250.983724,6.35481766 251.673828,6.77148438 C252.363932,7.18815109 252.896159,7.76269531 253.270508,8.49511719 C253.644857,9.22753906 253.832031,10.0559895 253.832031,10.9804688 Z M249.388672,7.640625 C248.620443,7.640625 247.958008,7.87988281 247.401367,8.35839844 C246.844727,8.83691406 246.491536,9.48307297 246.341797,10.296875 L252.220703,10.296875 C252.090495,9.48958328 251.776367,8.84505203 251.27832,8.36328125 C250.780273,7.88151047 250.150391,7.640625 249.388672,7.640625 Z M264.867188,10.9804688 C264.867188,11.2278645 264.850911,11.4492188 264.818359,11.6445312 L257.337891,11.6445312 C257.442057,12.5494792 257.790365,13.273763 258.382812,13.8173828 C258.97526,14.3610027 259.707682,14.6328125 260.580078,14.6328125 C261.159505,14.6328125 261.680339,14.5139973 262.142578,14.2763672 C262.604818,14.038737 262.998698,13.7213542 263.324219,13.3242188 L264.457031,14.2910156 C264.020833,14.8574219 263.469075,15.305013 262.801758,15.6337891 C262.13444,15.9625652 261.374349,16.1269531 260.521484,16.1269531 C259.837891,16.1269531 259.198242,16.0048828 258.602539,15.7607422 C258.006836,15.5166016 257.494141,15.1796875 257.064453,14.75 C256.634766,14.3203125 256.296224,13.7929688 256.048828,13.1679688 C255.801432,12.5429688 255.677734,11.8658855 255.677734,11.1367188 C255.677734,10.4140625 255.798177,9.74186203 256.039062,9.12011719 C256.279948,8.49837235 256.607096,7.9710286 257.020508,7.53808594 C257.433919,7.10514328 257.927083,6.76497391 258.5,6.51757812 C259.072917,6.27018234 259.684896,6.14648438 260.335938,6.14648438 C261.227865,6.14648438 262.01888,6.35481766 262.708984,6.77148438 C263.399089,7.18815109 263.931315,7.76269531 264.305664,8.49511719 C264.680013,9.22753906 264.867188,10.0559895 264.867188,10.9804688 Z M260.423828,7.640625 C259.655599,7.640625 258.993164,7.87988281 258.436523,8.35839844 C257.879883,8.83691406 257.526693,9.48307297 257.376953,10.296875 L263.255859,10.296875 C263.125651,9.48958328 262.811523,8.84505203 262.313477,8.36328125 C261.81543,7.88151047 261.185547,7.640625 260.423828,7.640625 Z M272.142578,6.14648438 C272.33138,6.14648438 272.464844,6.15299484 272.542969,6.16601562 L272.542969,7.953125 C272.308594,7.93359375 272.09375,7.92382812 271.898438,7.92382812 C271.292969,7.92382812 270.765625,8.0703125 270.316406,8.36328125 C269.867188,8.65625 269.525391,9.05664062 269.291016,9.56445312 C269.056641,10.0722656 268.939453,10.6516927 268.939453,11.3027344 L268.939453,16 L267.318359,16 L267.318359,6.26367188 L268.939453,6.26367188 L268.939453,7.96289062 L268.978516,7.96289062 C269.343099,7.38346359 269.7972,6.93587235 270.34082,6.62011719 C270.88444,6.30436203 271.485026,6.14648438 272.142578,6.14648438 Z M277.435547,16.1269531 C275.944661,16.1269531 274.671875,15.6582031 273.617188,14.7207031 L274.457031,13.4902344 C274.867188,13.8743489 275.305013,14.1640625 275.770508,14.359375 C276.236003,14.5546875 276.791016,14.6523438 277.435547,14.6523438 C278.001953,14.6523438 278.451172,14.5286458 278.783203,14.28125 C279.115234,14.0338542 279.28125,13.7246094 279.28125,13.3535156 C279.28125,13.2558594 279.271484,13.1647136 279.251953,13.0800781 C279.232422,12.9954427 279.193359,12.9156902 279.134766,12.8408203 C279.076172,12.7659505 279.020833,12.7008464 278.96875,12.6455078 C278.916667,12.5901692 278.833659,12.529948 278.719727,12.4648438 C278.605794,12.3997395 278.508138,12.3460286 278.426758,12.3037109 C278.345378,12.2613933 278.223307,12.2093098 278.060547,12.1474609 C277.897786,12.085612 277.76595,12.0367839 277.665039,12.0009766 C277.564128,11.9651692 277.409505,11.9082031 277.201172,11.8300781 C277.097005,11.7975261 277.01888,11.7714844 276.966797,11.7519531 C276.602214,11.6282552 276.294596,11.5110677 276.043945,11.4003906 C275.793294,11.2897136 275.53125,11.148112 275.257812,10.9755859 C274.984375,10.8030598 274.766276,10.6191406 274.603516,10.4238281 C274.440755,10.2285156 274.305664,9.98763016 274.198242,9.70117188 C274.09082,9.41471359 274.037109,9.09895828 274.037109,8.75390625 C274.037109,8.01171875 274.343099,7.39160156 274.955078,6.89355469 C275.567057,6.39550781 276.335286,6.14648438 277.259766,6.14648438 C278.516276,6.14648438 279.632812,6.546875 280.609375,7.34765625 L279.769531,8.62695312 C278.988281,7.94986984 278.125651,7.61132812 277.181641,7.61132812 C276.791016,7.61132812 276.444336,7.71712235 276.141602,7.92871094 C275.838867,8.14029953 275.6875,8.41536453 275.6875,8.75390625 C275.6875,8.93619797 275.731445,9.10221359 275.819336,9.25195312 C275.907227,9.40169266 276.043945,9.53841141 276.229492,9.66210938 C276.415039,9.78580734 276.602214,9.89160156 276.791016,9.97949219 C276.979818,10.0673828 277.227214,10.1699219 277.533203,10.2871094 C278.57487,10.6907552 279.203125,10.9446614 279.417969,11.0488281 C280.088542,11.3808594 280.527995,11.7877605 280.736328,12.2695312 C280.866536,12.5690105 280.931641,12.9238281 280.931641,13.3339844 C280.931641,13.7180989 280.858398,14.0777995 280.711914,14.4130859 C280.56543,14.7483723 280.350586,15.0445964 280.067383,15.3017578 C279.78418,15.5589192 279.416341,15.7607422 278.963867,15.9072266 C278.511393,16.0537109 278.001953,16.1269531 277.435547,16.1269531 Z" id="Careers"></path>
                        </g>
                    </g>
                </g>
            </g>
        </g>
    </g>
</svg>