<?xml version="1.0" encoding="UTF-8"?>
<svg width="203px" height="20px" viewBox="0 0 203 20" version="1.1" xmlns="http://www.w3.org/2000/svg" xmlns:xlink="http://www.w3.org/1999/xlink">
    <!-- Generator: Sketch 52.5 (67469) - http://www.bohemiancoding.com/sketch -->
    <title>Shape</title>
    <desc>Created with Sketch.</desc>
    <g id="Page-1" stroke="none" stroke-width="1" fill="none" fill-rule="evenodd">
        <g id="Artboard" transform="translate(-61.000000, -135.000000)" fill="#FFFFFF">
            <g id="wunder-mobility-careers-logo" transform="translate(61.000000, 135.000000)">
                <path d="M14.655,14.356 C16.2637945,12.7335336 16.2637945,10.1174664 14.655,8.495 L7.4,1.234 C5.7833272,-0.380324247 3.1646728,-0.380324247 1.548,1.234 C-0.0642686693,2.85386406 -0.0642686693,5.47213594 1.548,7.092 L8.802,14.356 C10.4206044,15.9665946 13.0363956,15.9665946 14.655,14.356 Z M36.492,1.234 C34.873512,-0.375931385 32.258488,-0.375931385 30.64,1.234 L26.227,5.64 L21.814,1.233 C20.1945846,-0.382243746 17.5734154,-0.382243746 15.954,1.233 C14.3420473,2.85377469 14.3420473,5.47222531 15.954,7.093 L23.216,14.355 C24.9029811,15.9588127 27.5510189,15.9588127 29.238,14.355 L36.492,7.094 C38.1007945,5.47153359 38.1007945,2.85546641 36.492,1.233 L36.492,1.234 Z M42.915,0.576 L47.209,0.576 L49.389,9.006 L49.453,9.006 L51.463,0.576 L55.696,0.576 L57.665,8.986 L57.726,8.986 L59.906,0.576 L64.203,0.576 L59.525,15.614 L55.865,15.614 L53.643,6.46 L53.603,6.46 L51.253,15.613 L47.594,15.613 L42.915,0.576 Z M64.047,11.316 L64.047,5.236 L67.815,5.236 L67.815,10.402 C67.815,11.887 68.215,12.501 69.173,12.501 C69.973,12.501 70.588,11.863 70.588,10.446 L70.588,5.236 L74.377,5.236 L74.377,15.613 L70.585,15.613 L70.585,14.514 L70.545,14.491 C69.858671,15.3544252 68.8087514,15.8481352 67.706,15.826 C65.591,15.826 64.046,14.684 64.046,11.314 L64.047,11.316 Z M75.989,5.237 L79.774,5.237 L79.774,6.336 L79.818,6.336 C80.5451737,5.48269379 81.6171135,5.00105507 82.738,5.024 C84.832,5.024 86.421,5.976 86.421,9.346 L86.421,15.614 L82.633,15.614 L82.633,10.258 C82.633,8.773 82.208,8.369 81.275,8.369 C80.341,8.369 79.771,8.986 79.771,10.403 L79.771,15.613 L75.989,15.613 L75.989,5.238 L75.989,5.237 Z M95.203,0.024 L95.203,6.25 L95.163,6.274 C94.4670131,5.46973107 93.4525461,5.01223353 92.389,5.023 C89.785,5.023 87.796,7.226 87.796,10.426 C87.796,13.626 89.765,15.826 92.623,15.826 C93.808,15.826 94.717,15.443 95.339,14.66 L95.389,14.66 L95.389,15.613 L98.988,15.613 L98.988,0.024 L95.203,0.024 Z M93.448,12.522 C92.388,12.522 91.605,11.695 91.605,10.427 C91.605,9.159 92.389,8.349 93.448,8.349 C94.507,8.349 95.352,9.197 95.352,10.427 C95.352,11.657 94.548,12.522 93.448,12.522 Z M110.985,10.342 C110.985,7.227 108.761,5.024 105.777,5.024 C102.647,5.024 100.404,7.292 100.404,10.427 C100.404,13.624 102.729,15.827 105.835,15.827 C108.211,15.827 109.769,15.064 110.638,14.007 L108.602,11.759 C108.015688,12.4338623 107.169876,12.8273138 106.276,12.841 C105.132,12.841 104.266,12.353 104.096,11.356 L110.886,11.356 C110.939,11.02 110.972,10.682 110.985,10.342 Z M104.107,9.302 C104.213851,8.48018496 104.928817,7.87484736 105.757,7.905 C106.582,7.905 107.152,8.414 107.322,9.302 L104.107,9.302 Z M112.424,5.234 L116.212,5.234 L116.212,6.63 L116.253,6.63 C116.883881,5.64653933 117.963799,5.04262593 119.132,5.02 L119.152,5.02 L119.152,9.07 C118.836,9.046 118.517,9.046 118.348,9.046 C116.888,9.046 116.212,9.874 116.212,11.08 L116.212,15.613 L112.424,15.613 L112.424,5.234 Z M124.244,0.573 L128.318,0.573 L132.082,8.051 L132.127,8.051 L135.86,0.573 L139.933,0.573 L139.933,15.61 L135.955,15.61 L135.955,8.22 L135.894,8.22 L133.374,12.902 L130.815,12.902 L128.296,8.176 L128.232,8.176 L128.232,15.61 L124.243,15.61 L124.243,0.573 L124.244,0.573 Z M141.557,10.42 C141.557,7.224 143.886,5.02 147.25,5.02 C150.614,5.02 152.922,7.224 152.922,10.42 C152.922,13.617 150.573,15.824 147.25,15.824 C143.926,15.824 141.557,13.62 141.557,10.42 Z M149.113,10.42 C149.113,9.214 148.35,8.366 147.25,8.366 C146.15,8.366 145.366,9.214 145.366,10.42 C145.366,11.627 146.17,12.498 147.25,12.498 C148.33,12.498 149.096,11.631 149.096,10.42 L149.113,10.42 Z M157.956,14.637 L157.912,14.657 L157.912,15.61 L154.321,15.61 L154.321,0.02 L158.109,0.02 L158.109,6.271 L158.149,6.271 C158.84265,5.46372024 159.858753,5.00585094 160.923,5.021 C163.523,5.021 165.513,7.224 165.513,10.421 C165.513,13.617 163.523,15.824 160.689,15.824 C159.504,15.824 158.574,15.441 157.939,14.637 L157.956,14.637 Z M161.721,10.42 C161.721,9.193 160.941,8.346 159.881,8.346 C158.761,8.346 157.956,9.193 157.956,10.42 C157.956,11.647 158.761,12.519 159.881,12.519 C160.923,12.519 161.704,11.692 161.704,10.42 L161.721,10.42 Z M166.779,2.014 C166.779,0.888 167.689,1.77635684e-15 168.959,1.77635684e-15 C170.229,1.77635684e-15 171.09,0.868 171.09,2.014 C171.09704,2.57762756 170.869645,3.11885536 170.462164,3.50832287 C170.054683,3.89779038 169.503734,4.10049947 168.941,4.068 C168.375839,4.09896314 167.822723,3.89670121 167.410856,3.50846061 C166.998988,3.12022 166.76444,2.58000337 166.762,2.014 L166.779,2.014 Z M167.03,5.231 L170.819,5.231 L170.819,15.611 L167.017,15.611 L167.03,5.231 Z M172.832,0.021 L176.62,0.021 L176.62,15.614 L172.832,15.614 L172.832,0.02 L172.832,0.021 Z M178.399,2.014 C178.399,0.888 179.309,2.66453526e-15 180.595,2.66453526e-15 C181.882,2.66453526e-15 182.755,0.868 182.755,2.014 C182.755,3.159 181.848,4.068 180.595,4.068 C180.026987,4.1038165 179.469358,3.90372629 179.0537,3.51494635 C178.638043,3.12616641 178.401178,2.58313649 178.399,2.014 Z M178.65,5.231 L182.439,5.231 L182.439,15.611 L178.65,15.611 L178.65,5.23 L178.65,5.231 Z M184.788,12.349 L184.788,8.241 L183.668,8.241 L183.668,5.23 L184.788,5.23 L184.788,1.969 L188.576,1.589 L188.576,5.231 L190.816,5.231 L190.816,8.241 L188.576,8.241 L188.576,11.546 C188.576,12.031 188.637,12.583 189.256,12.583 C189.516,12.573 189.774,12.523 190.019,12.433 L190.949,15.061 C190.029,15.611 188.965,15.876 187.894,15.824 C186.142,15.824 184.788,14.722 184.788,12.349 Z M195.494,14.847 L191.536,5.231 L195.579,5.231 L197.277,10.125 L197.341,10.125 L198.991,5.231 L202.725,5.231 L197.412,19.807 L193.736,19.807 L195.494,14.847 Z" id="Shape"></path>
            </g>
        </g>
    </g>
</svg>