<?xml version="1.0" encoding="UTF-8"?>
<svg width="171px" height="50px" viewBox="0 0 171 50" version="1.1" xmlns="http://www.w3.org/2000/svg" xmlns:xlink="http://www.w3.org/1999/xlink">
    <!-- Generator: Sketch 51.2 (57519) - http://www.bohemiancoding.com/sketch -->
    <title>Button - Play Store BR</title>
    <desc>Created with Sketch.</desc>
    <defs>
        <linearGradient x1="19.2147947%" y1="-35.1571758%" x2="69.3023416%" y2="93.5367562%" id="linearGradient-1">
            <stop stop-color="#19A3B4" offset="0%"></stop>
            <stop stop-color="#5BC3AF" offset="34.816763%"></stop>
            <stop stop-color="#C8F7A6" offset="92.2336229%"></stop>
            <stop stop-color="#D7FEA5" offset="100%"></stop>
        </linearGradient>
        <path d="M15.6267634,7.80481466 L2.01178024,0.233376502 C1.62573417,0.0197602366 1.26967847,-0.0299329733 0.981260583,0.0610636837 L12.1332061,11.3388409 L15.6267634,7.80481466" id="path-2"></path>
        <linearGradient x1="-14.698314%" y1="-114.321644%" x2="74.8444046%" y2="114.156353%" id="linearGradient-4">
            <stop stop-color="#FC227C" offset="0%"></stop>
            <stop stop-color="#FEEB7B" offset="100%"></stop>
        </linearGradient>
        <linearGradient x1="28.1511582%" y1="-14.8137139%" x2="48.1878808%" y2="82.8944571%" id="linearGradient-5">
            <stop stop-color="#0E4DA0" offset="0%"></stop>
            <stop stop-color="#6BFED4" offset="100%"></stop>
        </linearGradient>
        <path d="M0.980622491,0.0610636837 C0.566500352,0.192073055 0.298501433,0.616078755 0.298501433,1.25757292 L0.301053803,21.4472142 C0.301053803,22.0816093 0.560757518,22.4991613 0.962755896,22.6385605 L12.1332061,11.340777 L0.980622491,0.0610636837" id="path-6"></path>
        <linearGradient x1="132.244588%" y1="16.465744%" x2="5.95853392%" y2="126.310354%" id="linearGradient-8">
            <stop stop-color="#FC472E" offset="0%"></stop>
            <stop stop-color="#FC472F" offset="0.331892433%"></stop>
            <stop stop-color="#893CD8" offset="100%"></stop>
        </linearGradient>
        <path d="M0.962755896,22.6385605 C1.25308806,22.7379469 1.61616278,22.6914805 2.01178024,22.472056 L15.6427157,14.8902919 L12.1332061,11.340777 L0.962755896,22.6385605" id="path-9"></path>
    </defs>
    <g id="Welcome" stroke="none" stroke-width="1" fill="none" fill-rule="evenodd">
        <g id="Button---Play-Store-BR">
            <rect id="Button" fill="#2B2D32" x="0" y="0" width="171" height="50" rx="5"></rect>
            <g id="Icon---Google-Play" transform="translate(15.000000, 14.000000)">
                <mask id="mask-3" fill="white">
                    <use xlink:href="#path-2"></use>
                </mask>
                <use id="Fill-1" fill="url(#linearGradient-1)" xlink:href="#path-2"></use>
                <path d="M15.64463,14.8902919 L20.292497,12.3055997 C21.2349598,11.7796261 21.2349598,10.9238703 20.292497,10.3991874 L15.6274015,7.80481466 L12.1332061,11.3388409 L15.64463,14.8902919" id="Fill-2" fill="url(#linearGradient-4)"></path>
                <mask id="mask-7" fill="white">
                    <use xlink:href="#path-6"></use>
                </mask>
                <use id="Fill-3" fill="url(#linearGradient-5)" xlink:href="#path-6"></use>
                <mask id="mask-10" fill="white">
                    <use xlink:href="#path-9"></use>
                </mask>
                <use id="Fill-4" fill="url(#linearGradient-8)" xlink:href="#path-9"></use>
            </g>
            <path d="M52.6845737,35 C53.9265648,35 54.9098078,34.4318841 55.6136028,33.5507246 L55.6136028,30.5826087 L52.3223263,30.5826087 L52.3223263,32.0202899 L54.1439133,32.0202899 L54.1439133,32.9478261 C53.8644653,33.2376812 53.2952193,33.5391304 52.6845737,33.5391304 C51.4218827,33.5391304 50.5110892,32.4608696 50.5110892,31 C50.5110892,29.5391304 51.4218827,28.4608696 52.6845737,28.4608696 C53.4090685,28.4608696 53.9990143,28.9246377 54.319862,29.4695652 L55.5308034,28.7275362 C55.013307,27.8115942 54.1128635,27 52.6845737,27 C50.6559882,27 49,28.5536232 49,31 C49,33.4347826 50.6559882,35 52.6845737,35 L52.6845737,35 Z M60.064071,35 C62.1444061,35 63.6658452,33.3304348 63.6658452,31 C63.6658452,28.6695652 62.1444061,27 60.064071,27 C57.9733859,27 56.4519468,28.6695652 56.4519468,31 C56.4519468,33.3304348 57.9733859,35 60.064071,35 L60.064071,35 Z M60.064071,33.5391304 C58.7806801,33.5391304 57.963036,32.4376812 57.963036,31 C57.963036,29.5507246 58.7806801,28.4608696 60.064071,28.4608696 C61.3371119,28.4608696 62.154756,29.5507246 62.154756,31 C62.154756,32.4376812 61.3371119,33.5391304 60.064071,33.5391304 L60.064071,33.5391304 Z M67.9817644,35 C70.0620996,35 71.5835387,33.3304348 71.5835387,31 C71.5835387,28.6695652 70.0620996,27 67.9817644,27 C65.8910793,27 64.3696402,28.6695652 64.3696402,31 C64.3696402,33.3304348 65.8910793,35 67.9817644,35 L67.9817644,35 Z M67.9817644,33.5391304 C66.6983736,33.5391304 65.8807294,32.4376812 65.8807294,31 C65.8807294,29.5507246 66.6983736,28.4608696 67.9817644,28.4608696 C69.2548053,28.4608696 70.0724495,29.5507246 70.0724495,31 C70.0724495,32.4376812 69.2548053,33.5391304 67.9817644,33.5391304 L67.9817644,33.5391304 Z M75.9719073,35 C77.2138985,35 78.1971414,34.4318841 78.9009364,33.5507246 L78.9009364,30.5826087 L75.6096599,30.5826087 L75.6096599,32.0202899 L77.4312469,32.0202899 L77.4312469,32.9478261 C77.1517989,33.2376812 76.582553,33.5391304 75.9719073,33.5391304 C74.7092164,33.5391304 73.7984229,32.4608696 73.7984229,31 C73.7984229,29.5391304 74.7092164,28.4608696 75.9719073,28.4608696 C76.6964022,28.4608696 77.286348,28.9246377 77.6071957,29.4695652 L78.818137,28.7275362 C78.3006407,27.8115942 77.4001971,27 75.9719073,27 C73.9433218,27 72.2873337,28.5536232 72.2873337,31 C72.2873337,33.4347826 73.9433218,35 75.9719073,35 L75.9719073,35 Z M84.4070971,34.8608696 L84.4070971,33.4115942 L81.4884179,33.4115942 L81.4884179,27.1275362 L80.0083785,27.1275362 L80.0083785,34.8608696 L84.4070971,34.8608696 Z M90.2858551,34.8608696 L90.2858551,33.4115942 L86.8703795,33.4115942 L86.8703795,31.6492754 L90.2134056,31.6492754 L90.2134056,30.2 L86.8703795,30.2 L86.8703795,28.5768116 L90.2858551,28.5768116 L90.2858551,27.1275362 L85.40069,27.1275362 L85.40069,34.8608696 L90.2858551,34.8608696 Z M95.5643174,34.8608696 L95.5643174,32.1014493 L97.3238048,32.1014493 C98.8141942,32.1014493 99.6421883,30.9652174 99.6421883,29.6202899 C99.6421883,28.2637681 98.8245441,27.1275362 97.3238048,27.1275362 L94.0946279,27.1275362 L94.0946279,34.8608696 L95.5643174,34.8608696 Z M97.1168063,30.6521739 L95.5643174,30.6521739 L95.5643174,28.5768116 L97.1168063,28.5768116 C97.6964022,28.5768116 98.141449,28.9710145 98.141449,29.6202899 C98.141449,30.257971 97.6964022,30.6521739 97.1168063,30.6521739 L97.1168063,30.6521739 Z M104.899951,34.8608696 L104.899951,33.4115942 L101.981272,33.4115942 L101.981272,27.1275362 L100.501232,27.1275362 L100.501232,34.8608696 L104.899951,34.8608696 Z M112.331198,34.8608696 L109.671267,27.1275362 L107.82898,27.1275362 L105.169049,34.8608696 L106.835387,34.8608696 L107.270084,33.5507246 L110.230163,33.5507246 L110.66486,34.8608696 L112.331198,34.8608696 Z M109.826516,32.1014493 L107.673731,32.1014493 L108.750123,28.773913 L109.826516,32.1014493 Z M116.367669,34.8608696 L116.367669,31.6956522 L119.0069,27.1275362 L117.340562,27.1275362 L115.632824,30.2231884 L113.925086,27.1275362 L112.248398,27.1275362 L114.897979,31.6956522 L114.897979,34.8608696 L116.367669,34.8608696 Z M124.771809,35 C126.624446,35 127.535239,33.9333333 127.535239,32.5188406 C127.535239,29.6318841 123.571217,30.4550725 123.571217,29.2376812 C123.571217,28.773913 123.923115,28.4724638 124.54411,28.4724638 C125.247905,28.4724638 125.9931,28.7391304 126.551996,29.3188406 L127.36964,28.0898551 C126.686545,27.3826087 125.775752,27.0115942 124.678659,27.0115942 C123.053721,27.0115942 122.060128,28.0782609 122.060128,29.3652174 C122.060128,32.2753623 126.0345,31.3362319 126.0345,32.6811594 C126.0345,33.1333333 125.651552,33.5391304 124.833908,33.5391304 C123.881715,33.5391304 123.126171,33.0521739 122.639724,32.484058 L121.83243,33.7710145 C122.484475,34.5014493 123.436668,35 124.771809,35 L124.771809,35 Z M131.59241,34.8608696 L131.59241,28.5768116 L133.600296,28.5768116 L133.600296,27.1275362 L128.094135,27.1275362 L128.094135,28.5768116 L130.112371,28.5768116 L130.112371,34.8608696 L131.59241,34.8608696 Z M137.823066,35 C139.903401,35 141.42484,33.3304348 141.42484,31 C141.42484,28.6695652 139.903401,27 137.823066,27 C135.73238,27 134.210941,28.6695652 134.210941,31 C134.210941,33.3304348 135.73238,35 137.823066,35 L137.823066,35 Z M137.823066,33.5391304 C136.539675,33.5391304 135.722031,32.4376812 135.722031,31 C135.722031,29.5507246 136.539675,28.4608696 137.823066,28.4608696 C139.096106,28.4608696 139.913751,29.5507246 139.913751,31 C139.913751,32.4376812 139.096106,33.5391304 137.823066,33.5391304 L137.823066,33.5391304 Z M148.059142,34.8608696 L146.496304,31.915942 C147.241498,31.7188406 148.017743,30.9768116 148.017743,29.6202899 C148.017743,28.1826087 147.127649,27.1275362 145.689009,27.1275362 L142.459832,27.1275362 L142.459832,34.8608696 L143.929522,34.8608696 L143.929522,32.1130435 L145.005914,32.1130435 L146.361755,34.8608696 L148.059142,34.8608696 Z M145.482011,30.6637681 L143.929522,30.6637681 L143.929522,28.5768116 L145.482011,28.5768116 C146.061607,28.5768116 146.506654,28.9710145 146.506654,29.6086957 C146.506654,30.2695652 146.061607,30.6637681 145.482011,30.6637681 L145.482011,30.6637681 Z M154,34.8608696 L154,33.4115942 L150.584524,33.4115942 L150.584524,31.6492754 L153.927551,31.6492754 L153.927551,30.2 L150.584524,30.2 L150.584524,28.5768116 L154,28.5768116 L154,27.1275362 L149.114835,27.1275362 L149.114835,34.8608696 L154,34.8608696 Z" id="DOWNLOAD-FROM" fill="#FFFFFF"></path>
            <text id="BAIXAR-NA" font-family="AvertaPE-Light, Averta PE" font-size="10" font-weight="300" fill="#FFFFFF">
                <tspan x="49" y="23">BAIXAR NA</tspan>
            </text>
        </g>
    </g>
</svg>