<?xml version="1.0" encoding="UTF-8"?>
<svg width="171px" height="50px" viewBox="0 0 171 50" version="1.1" xmlns="http://www.w3.org/2000/svg" xmlns:xlink="http://www.w3.org/1999/xlink">
    <!-- Generator: Sketch 51.2 (57519) - http://www.bohemiancoding.com/sketch -->
    <title>Button - App Store BR</title>
    <desc>Created with Sketch.</desc>
    <defs></defs>
    <g id="Welcome" stroke="none" stroke-width="1" fill="none" fill-rule="evenodd">
        <g id="Button---App-Store-BR">
            <rect id="Button" fill="#2B2D32" x="0" y="0" width="171" height="50" rx="5"></rect>
            <path d="M56.0544755,34.5696539 L53.3814777,27.664892 L51.5301407,27.664892 L48.8571429,34.5696539 L50.5316668,34.5696539 L50.9684991,33.3998817 L53.9431192,33.3998817 L54.3799516,34.5696539 L56.0544755,34.5696539 Z M53.5374892,32.1058858 L51.3741291,32.1058858 L52.4558092,29.1348713 L53.5374892,32.1058858 Z M58.1762325,34.5696539 L58.1762325,32.1058858 L59.9443633,32.1058858 C61.4420742,32.1058858 62.2741358,31.0913931 62.2741358,29.8905649 C62.2741358,28.6793848 61.452475,27.664892 59.9443633,27.664892 L56.6993232,27.664892 L56.6993232,34.5696539 L58.1762325,34.5696539 Z M59.736348,30.81189 L58.1762325,30.81189 L58.1762325,28.9588879 L59.736348,28.9588879 C60.3187911,28.9588879 60.7660242,29.3108548 60.7660242,29.8905649 C60.7660242,30.4599231 60.3187911,30.81189 59.736348,30.81189 L59.736348,30.81189 Z M64.6767136,34.5696539 L64.6767136,32.1058858 L66.4448444,32.1058858 C67.9425552,32.1058858 68.7746168,31.0913931 68.7746168,29.8905649 C68.7746168,28.6793848 67.952956,27.664892 66.4448444,27.664892 L63.1998043,27.664892 L63.1998043,34.5696539 L64.6767136,34.5696539 Z M66.236829,30.81189 L64.6767136,30.81189 L64.6767136,28.9588879 L66.236829,28.9588879 C66.8192721,28.9588879 67.2665052,29.3108548 67.2665052,29.8905649 C67.2665052,30.4599231 66.8192721,30.81189 66.236829,30.81189 L66.236829,30.81189 Z M74.0582078,34.5696539 L74.0582078,33.2756581 L71.1251908,33.2756581 L71.1251908,27.664892 L69.6378807,27.664892 L69.6378807,34.5696539 L74.0582078,34.5696539 Z M79.965845,34.5696539 L79.965845,33.2756581 L76.533591,33.2756581 L76.533591,31.7021591 L79.8930396,31.7021591 L79.8930396,30.4081633 L76.533591,30.4081633 L76.533591,28.9588879 L79.965845,28.9588879 L79.965845,27.664892 L75.0566817,27.664892 L75.0566817,34.5696539 L79.965845,34.5696539 Z M90.262607,34.5696539 L87.5896092,27.664892 L85.7382722,27.664892 L83.0652744,34.5696539 L84.7397983,34.5696539 L85.1766306,33.3998817 L88.1512507,33.3998817 L88.5880831,34.5696539 L90.262607,34.5696539 Z M87.7456207,32.1058858 L85.5822606,32.1058858 L86.6639407,29.1348713 L87.7456207,32.1058858 Z M92.384364,34.5696539 L92.384364,32.1058858 L94.1524949,32.1058858 C95.6502057,32.1058858 96.4822673,31.0913931 96.4822673,29.8905649 C96.4822673,28.6793848 95.6606065,27.664892 94.1524949,27.664892 L90.9074547,27.664892 L90.9074547,34.5696539 L92.384364,34.5696539 Z M93.9444795,30.81189 L92.384364,30.81189 L92.384364,28.9588879 L93.9444795,28.9588879 C94.5269226,28.9588879 94.9741557,29.3108548 94.9741557,29.8905649 C94.9741557,30.4599231 94.5269226,30.81189 93.9444795,30.81189 L93.9444795,30.81189 Z M98.8848451,34.5696539 L98.8848451,32.1058858 L100.652976,32.1058858 C102.150687,32.1058858 102.982748,31.0913931 102.982748,29.8905649 C102.982748,28.6793848 102.161088,27.664892 100.652976,27.664892 L97.4079358,27.664892 L97.4079358,34.5696539 L98.8848451,34.5696539 Z M100.444961,30.81189 L98.8848451,30.81189 L98.8848451,28.9588879 L100.444961,28.9588879 C101.027404,28.9588879 101.474637,29.3108548 101.474637,29.8905649 C101.474637,30.4599231 101.027404,30.81189 100.444961,30.81189 L100.444961,30.81189 Z M109.056798,34.6938776 C110.918536,34.6938776 111.833803,33.7414966 111.833803,32.4785566 C111.833803,29.9009169 107.850309,30.6359065 107.850309,29.54895 C107.850309,29.1348713 108.203935,28.8657202 108.827981,28.8657202 C109.535233,28.8657202 110.284089,29.1038154 110.84573,29.6214138 L111.667391,28.5241053 C110.98094,27.8926353 110.065672,27.5613724 108.963191,27.5613724 C107.33027,27.5613724 106.331796,28.5137533 106.331796,29.6628217 C106.331796,32.2611653 110.325692,31.422656 110.325692,32.6234842 C110.325692,33.0272109 109.940863,33.3895297 109.119202,33.3895297 C108.162332,33.3895297 107.403075,32.9547471 106.914239,32.4475007 L106.102979,33.5965691 C106.758228,34.248743 107.715099,34.6938776 109.056798,34.6938776 L109.056798,34.6938776 Z M115.910905,34.5696539 L115.910905,28.9588879 L117.928654,28.9588879 L117.928654,27.664892 L112.395445,27.664892 L112.395445,28.9588879 L114.423595,28.9588879 L114.423595,34.5696539 L115.910905,34.5696539 Z M122.172168,34.6938776 C124.262723,34.6938776 125.791636,33.2031943 125.791636,31.122449 C125.791636,29.0417036 124.262723,27.5510204 122.172168,27.5510204 C120.071213,27.5510204 118.5423,29.0417036 118.5423,31.122449 C118.5423,33.2031943 120.071213,34.6938776 122.172168,34.6938776 L122.172168,34.6938776 Z M122.172168,33.3895297 C120.882473,33.3895297 120.060812,32.4060929 120.060812,31.122449 C120.060812,29.8284531 120.882473,28.8553682 122.172168,28.8553682 C123.451463,28.8553682 124.273124,29.8284531 124.273124,31.122449 C124.273124,32.4060929 123.451463,33.3895297 122.172168,33.3895297 L122.172168,33.3895297 Z M132.45853,34.5696539 L130.888013,31.9402544 C131.636869,31.7642709 132.416927,31.101745 132.416927,29.8905649 C132.416927,28.606921 131.52246,27.664892 130.076753,27.664892 L126.831713,27.664892 L126.831713,34.5696539 L128.308623,34.5696539 L128.308623,32.1162378 L129.390303,32.1162378 L130.752803,34.5696539 L132.45853,34.5696539 Z M129.868738,30.8222419 L128.308623,30.8222419 L128.308623,28.9588879 L129.868738,28.9588879 C130.451181,28.9588879 130.898414,29.3108548 130.898414,29.880213 C130.898414,30.4702751 130.451181,30.8222419 129.868738,30.8222419 L129.868738,30.8222419 Z M138.428571,34.5696539 L138.428571,33.2756581 L134.996317,33.2756581 L134.996317,31.7021591 L138.355766,31.7021591 L138.355766,30.4081633 L134.996317,30.4081633 L134.996317,28.9588879 L138.428571,28.9588879 L138.428571,27.664892 L133.519408,27.664892 L133.519408,34.5696539 L138.428571,34.5696539 Z" id="DOWNLOAD-FROM" fill="#FFFFFF"></path>
            <path d="M28.4287343,17.764553 C27.6797896,18.7312843 26.3891699,19.4803462 25.1420845,19.441615 C24.914396,18.1952442 25.4992201,16.9128533 26.2073273,16.0483724 C26.9874781,15.0959715 28.3239437,14.3651133 29.4666237,14.2857143 C29.6592535,15.5882454 29.1279805,16.8621154 28.4287343,17.764553 Z M34.6071429,30.0067187 C34.1063053,31.1225653 33.8666739,31.6202615 33.2217493,32.6059712 C32.3225533,33.982479 31.0546639,35.6959484 29.4839604,35.7110536 C28.0873943,35.7238349 27.7291028,34.797384 25.834396,34.8078414 C23.9400744,34.8186861 23.5444128,35.7269334 22.1482319,35.7141521 C20.5771432,35.6998215 19.3755184,34.1521218 18.4759372,32.7760013 C15.9601919,28.9272794 15.6974448,24.4104439 17.2488853,22.009108 C18.3514984,20.3026102 20.0905603,19.3041192 21.7259874,19.3041192 C23.3914647,19.3041192 24.4382151,20.2216619 25.8147478,20.2216619 C27.1504429,20.2216619 27.9641112,19.3025699 29.8892535,19.3025699 C31.3443791,19.3025699 32.8861881,20.0992712 33.9849486,21.475779 C30.3850827,23.4588177 30.9699068,28.6251759 34.6071429,30.0067187 Z" id="Icon---Apple" fill="#FFFFFF"></path>
            <text id="BAIXAR-NA" font-family="AvertaPE-Light, Averta PE" font-size="10" font-weight="300" fill="#FFFFFF">
                <tspan x="48.8571429" y="23.3673469">BAIXAR NA</tspan>
            </text>
        </g>
    </g>
</svg>