<?xml version="1.0" encoding="UTF-8"?>
<svg width="390px" height="595px" viewBox="0 0 390 595" version="1.1" xmlns="http://www.w3.org/2000/svg" xmlns:xlink="http://www.w3.org/1999/xlink">
    <!-- Generator: Sketch 50.2 (55047) - http://www.bohemiancoding.com/sketch -->
    <title>Group</title>
    <desc>Created with Sketch.</desc>
    <defs></defs>
    <g id="Page-1" stroke="none" stroke-width="1" fill="none" fill-rule="evenodd">
        <g id="wunder_solutions_fleet" transform="translate(-857.000000, -2227.000000)">
            <g id="Group-29" transform="translate(232.000000, 2186.000000)">
                <g id="Group" transform="translate(627.000000, 41.000000)">
                    <g id="Car" opacity="0.300000012" transform="translate(54.456140, 0.000000)" fill="#000000">
                        <path d="M77.0087727,558.895732 C61.1302286,548.412243 63.0062023,538.827129 61.7049027,511.026459 C60.3094793,481.229713 51.4319458,272.027322 50.8896131,267.713655 C50.7387162,266.50053 50.0141119,262.020152 49.0982719,256.348976 C46.6420876,241.130576 42.5290248,215.660892 42.6664755,211.408255 C42.7561173,208.684304 42.2929682,199.60298 41.8029265,189.988773 C41.2620879,179.353458 40.7018269,168.35346 40.7989388,164.34047 C40.9722462,157.301365 55.0982939,48.0411718 85.6213138,13.7119505 C85.8947212,13.4038315 86.3653404,13.3740615 86.6760986,13.6479451 C56.4757889,48.7333232 42.4647815,157.372813 42.2929682,164.374706 C42.1958562,168.33411 42.7546232,179.305826 43.2954619,189.914349 C43.7869975,199.559813 44.2516407,208.669419 44.1605049,211.454398 C44.0275362,215.565629 48.1256588,240.947491 50.5728789,256.110816 C51.5275637,262.020152 52.2163112,266.289163 52.3716903,267.53057 C52.9140229,271.85019 61.8020146,481.150822 63.195944,510.956499 C64.4733391,538.196006 62.0953716,547.263123 77.834971,557.654325 C92.9590303,567.640655 135.702672,567.664201 136.022395,567.647828 C136.785844,567.658247 179.529485,567.639167 194.650557,557.654325 C210.390156,547.263123 208.010695,538.196006 209.28809,510.956499 C210.683513,481.150822 219.571505,271.85019 220.112343,267.53057 C220.267722,266.289163 220.95647,262.020152 221.911155,256.110816 C224.359869,240.947491 228.456497,215.565629 228.323529,211.454398 C228.232393,208.669419 228.697036,199.559813 229.188572,189.914349 C229.72941,179.305826 230.288177,168.33411 230.191066,164.374706 C230.020746,157.372813 216.008245,48.7333232 185.745186,14.6988244 C186.115705,13.3740615 186.586324,13.4038315 186.86272,13.7119505 C217.387234,48.0411718 231.513281,157.301365 231.685095,164.34047 C231.782207,168.35346 231.221946,179.353458 230.681107,189.988773 C230.191066,199.60298 229.727916,208.684304 229.817558,211.408255 C229.955009,215.660892 225.84344,241.130576 223.385762,256.348976 C222.469922,262.020152 221.745317,266.50053 221.594421,267.713655 C221.053582,272.027322 212.174554,481.229713 210.779131,511.026459 C209.477831,538.827129 211.353805,548.412243 195.475261,558.895732 C179.95379,569.14255 137.733058,569.179492 136.409348,569.136325 C135.825183,569.143768 134.707649,569.179492 132.932742,569.179492 C124.434703,569.179492 89.8499552,567.372726 77.0087727,558.895732 Z" id="Fill-2"></path>
                        <path d="M52.9991826,290.060471 C52.7197991,290.060471 52.4508738,289.901201 52.3238813,289.633272 C52.1475859,289.261147 52.307447,288.817575 52.6809543,288.643421 C53.0813542,288.45587 93.1019189,269.916632 136.09859,269.916632 C179.081815,269.916632 219.465429,286.922718 219.868817,287.093895 C220.2483,287.256141 220.424596,287.692271 220.261746,288.070349 C220.098897,288.449916 219.658158,288.622582 219.281663,288.463313 C218.881263,288.290647 178.768069,271.40513 136.09859,271.40513 C93.4335934,271.40513 53.7148227,289.80296 53.3174108,289.989023 C53.2158169,290.036655 53.1067527,290.060471 52.9991826,290.060471" id="Fill-3"></path>
                        <path d="M69.6591041,460.984656 C69.246752,460.984656 68.9150774,459.905495 68.9120894,459.496158 L203.858798,459.496158 C203.85581,459.904007 203.521147,460.984656 203.111783,460.984656 L69.6591041,460.984656 Z M202.370745,459.496158 L70.4016367,459.496158 L202.370745,459.496158 Z" id="Fill-5"></path>
                        <path d="M52.9991826,269.940448 C52.7197991,269.940448 52.4508738,269.782667 52.3238813,269.513249 C52.1475859,269.141125 52.307447,268.697552 52.6809543,268.523398 C53.0813542,268.335847 93.1019189,249.798098 136.09859,249.798098 C179.081815,249.798098 219.465429,266.804183 219.868817,266.97536 C220.2483,267.137607 220.424596,267.573737 220.261746,267.951815 C220.098897,268.331382 219.658158,268.505536 219.281663,268.344778 C218.881263,268.173601 178.768069,251.286595 136.09859,251.286595 C93.4335934,251.286595 53.7148227,269.684426 53.3174108,269.870488 C53.2158169,269.91812 53.1067527,269.940448 52.9991826,269.940448" id="Fill-6"></path>
                        <path d="M41.5474475,165.102581 C41.3338013,165.102581 41.1201551,165.010294 40.9722462,164.833163 C40.709297,164.517602 40.7526239,164.048725 41.0708521,163.785261 C41.3935625,163.517331 74.0620086,137.07417 136.150881,137.07417 C198.238259,137.07417 231.090471,163.517331 231.413182,163.783772 C231.73141,164.045748 231.776231,164.514625 231.514776,164.831675 C231.251826,165.148725 230.778219,165.19338 230.462979,164.931404 C230.141763,164.66794 197.663058,138.562668 136.150881,138.562668 C74.5953771,138.562668 42.3437651,164.666451 42.0240429,164.931404 C41.8865922,165.046018 41.7162728,165.102581 41.5474475,165.102581" id="Fill-7"></path>
                        <path d="M0.425783202,236.937478 C-0.185274809,235.465354 -0.240553896,225.949388 1.47608585,224.239104 C1.64192311,224.073881 18.2973625,207.539649 21.528948,205.528689 C23.8148129,204.104197 31.1310748,195.914483 34.6793945,191.782413 C34.8781004,191.551696 35.2023048,191.466852 35.4891584,191.563604 C35.7775061,191.661845 35.977706,191.926797 35.9911523,192.230451 C36.028503,192.971723 36.8651595,210.391611 36.8651595,213.230176 C36.8651595,215.555209 36.8651595,218.191338 33.6261038,218.191338 C32.314346,218.191338 31.5225104,217.883219 30.8247987,217.610824 C30.2361512,217.381596 29.771508,217.199999 29.0215053,217.199999 C28.6465039,217.546819 28.2744906,220.440458 28.0742907,221.992961 C27.6649266,225.156019 27.3960013,227.247358 26.0334466,227.247358 C24.5125247,227.393231 3.2748972,236.269142 1.88096781,237.349792 C1.73903502,237.495664 1.51642464,237.58944 1.28783815,237.58944 C1.11154268,237.58944 0.670804018,237.525434 0.425783202,236.937478 Z M22.3192895,206.790935 C19.6180844,208.472937 5.80578295,222.027197 2.53236461,225.291472 C1.56871567,226.253042 1.31323665,233.458859 1.66134549,235.77645 C5.75498595,233.618128 23.362122,226.299185 25.8257765,225.787142 C26.1440047,225.276587 26.411436,223.198645 26.5907195,221.802434 C27.0314582,218.399728 27.378073,215.711501 29.0215053,215.711501 C30.0523855,215.711501 30.7217107,215.9705 31.3686254,216.223545 C32.0005998,216.470635 32.5967176,216.702841 33.6261038,216.702841 C35.0200332,216.702841 35.3696361,216.293504 35.3696361,213.230176 C35.3696361,210.969148 34.8093751,198.858731 34.5882587,194.164009 C31.7376507,197.426796 24.7739798,205.262248 22.3192895,206.790935 Z" id="Fill-8"></path>
                        <path d="M52.4209932,572.175431 L50.9269639,572.175431 L50.9269639,483.764624 C50.9194937,482.545544 50.1889134,361.167492 49.4508628,334.934209 C48.6993661,308.218653 42.8517351,232.585111 35.4219271,213.498105 L36.8128684,212.960758 C44.423454,232.503243 50.1679969,307.286854 50.9448922,334.89402 C51.6844368,361.142187 52.4135231,482.536613 52.4209932,483.760159 L52.4209932,572.175431" id="Fill-10"></path>
                        <path d="M221.395715,572.175431 L219.901685,572.175431 L219.901685,483.764624 C219.909155,482.536613 220.638242,361.142187 221.376292,334.89402 C222.154682,307.286854 227.899224,232.503243 235.50981,212.960758 L236.900751,213.498105 C229.470943,232.585111 223.621818,308.218653 222.871816,334.934209 C222.132271,361.167492 221.403185,482.545544 221.395715,483.76909 L221.395715,572.175431" id="Fill-11"></path>
                        <path d="M221.306073,485.605896 L219.991327,484.898859 C220.191527,484.529712 239.939607,446.562602 239.939607,324.495375 L239.939607,217.118132 L241.433636,217.118132 L241.433636,324.495375 C241.433636,388.50524 235.977441,428.861388 231.399735,451.443386 C226.424617,475.985735 221.512249,485.22484 221.306073,485.605896" id="Fill-12"></path>
                        <path d="M50.8970833,485.605896 C50.6953893,485.23526 30.7695196,447.05976 30.7695196,324.495375 L30.7695196,217.118132 L32.262055,217.118132 L32.262055,324.495375 C32.262055,446.687636 52.0116292,484.5312 52.2118291,484.898859 L50.8970833,485.605896" id="Fill-13"></path>
                        <path d="M245.821601,456.870448 C242.350971,456.870448 233.972454,447.896296 231.404217,445.050289 L232.517269,444.055972 C237.709021,449.810504 244.312631,455.791288 245.860446,455.380462 C248.270315,454.780598 254.02681,440.574376 252.979495,434.289939 L254.452608,434.045825 C255.538768,440.556514 250.000401,455.885063 246.222001,456.825794 C246.097996,456.857052 245.965028,456.870448 245.821601,456.870448" id="Fill-14"></path>
                        <path d="M26.0513749,456.870448 C25.9079481,456.870448 25.7764735,456.857052 25.650975,456.825794 C21.8710807,455.883575 16.3327139,440.556514 17.4203673,434.045825 L18.8934802,434.289939 C17.8461656,440.574376 23.6011667,454.780598 26.0125301,455.380462 C27.5588505,455.788311 34.1639544,449.810504 39.3542124,444.055972 L40.4672643,445.050289 C37.8990278,447.896296 29.5220051,456.870448 26.0513749,456.870448" id="Fill-15"></path>
                        <path d="M240.974969,324.315267 L240.399768,322.939895 C243.553664,321.628529 247.202084,319.81405 247.592026,319.168042 C247.592026,319.169531 247.554675,319.232048 247.554675,319.345173 L249.048704,319.351127 C249.04721,319.791723 249.042728,320.961682 240.974969,324.315267" id="Fill-16"></path>
                        <path d="M31.2281867,324.315267 C23.1604281,320.961682 23.155946,319.791723 23.154452,319.351127 L24.6484813,319.345173 C24.6484813,319.233536 24.6096366,319.171019 24.6096366,319.168042 C24.98912,319.793211 28.6360457,321.624063 31.803388,322.939895 L31.2281867,324.315267" id="Fill-17"></path>
                        <path d="M237.077047,193.011912 C236.742384,193.011912 236.437602,192.784172 236.352443,192.446283 C236.086505,191.377542 229.859391,166.232351 230.206006,162.430728 C230.328516,161.080661 230.918658,159.970241 231.664178,158.562122 C233.096953,155.866453 235.258813,151.789458 235.457519,142.386619 C236.328538,101.134395 229.935586,63.1568655 226.02123,47.2195211 C225.92113,46.8206038 226.169138,46.4187094 226.568044,46.3204685 C226.977408,46.2237162 227.373326,46.4678298 227.471932,46.8667472 C231.404217,62.8740509 237.825556,101.012338 236.951548,142.419365 C236.746866,152.173491 234.483412,156.436548 232.986394,159.258739 C232.291671,160.567129 231.788183,161.512325 231.694059,162.564693 C231.425134,165.514895 236.011804,184.877272 237.803145,192.089044 C237.901751,192.487961 237.65673,192.891344 237.25633,192.989585 C237.196569,193.00447 237.135314,193.011912 237.077047,193.011912" id="Fill-18"></path>
                        <path d="M35.5354733,193.011912 C35.4772062,193.011912 35.415951,193.00447 35.3561898,192.989585 C34.9557899,192.891344 34.7107691,192.487961 34.8093751,192.089044 C36.6007163,184.877272 41.1858924,165.514895 40.9169671,162.564693 C40.8228433,161.512325 40.3208494,160.56564 39.6246317,159.257251 C38.1276143,156.436548 35.8656538,152.172002 35.6594778,142.419365 C34.7869646,101.010849 41.2083028,62.8725624 45.1405881,46.8667472 C45.2391941,46.4678298 45.6395939,46.2237162 46.0444759,46.3204685 C46.4448758,46.4187094 46.6913906,46.8206038 46.5912906,47.2195211 C42.6769337,63.1568655 36.283982,101.132906 37.1535071,142.386619 C37.350719,151.78797 39.5140735,155.864965 40.9468477,158.560634 C41.6938624,159.968753 42.2825099,161.080661 42.4065144,162.430728 C42.7516352,166.232351 36.5260148,191.377542 36.2600776,192.446283 C36.1749179,192.784172 35.8701359,193.011912 35.5354733,193.011912" id="Fill-19"></path>
                        <path d="M36.1181448,189.662792 C35.9313911,189.662792 35.7446374,189.594322 35.6012106,189.455891 C35.5429435,189.400817 29.7132409,183.958869 23.1992728,184.202983 C22.7779566,184.201495 22.4403059,183.896353 22.4268597,183.484039 C22.4119194,183.074702 22.7346297,182.727882 23.1469818,182.714485 C30.2705138,182.455487 36.3795999,188.138571 36.6335849,188.379707 C36.9323908,188.665499 36.941355,189.135864 36.6574894,189.432075 C36.5095805,189.585391 36.3138626,189.662792 36.1181448,189.662792" id="Fill-20"></path>
                        <path d="M236.376347,189.662792 C236.185111,189.662792 235.99537,189.589856 235.848955,189.443983 C235.556125,189.155215 235.556125,188.683361 235.845967,188.393104 C236.089493,188.150479 241.887821,182.467395 248.752886,182.714485 C249.165238,182.72937 249.486455,183.07619 249.471514,183.485527 C249.45508,183.896353 249.100995,184.194052 248.697607,184.202983 C242.404756,183.926122 236.959019,189.388909 236.905233,189.443983 C236.758819,189.589856 236.566089,189.662792 236.376347,189.662792" id="Fill-21"></path>
                        <path d="M220.6487,467.267605 C220.490333,467.267605 220.328978,467.216996 220.193021,467.112801 C218.341919,465.692774 213.262219,461.888174 212.002752,461.344872 C210.936015,460.880461 205.999742,460.880461 203.138676,460.984656 C202.73977,460.965306 202.382697,460.678025 202.364769,460.268689 C202.349828,459.856375 202.671045,459.512532 203.083397,459.496158 C204.377226,459.448526 210.912111,459.249068 212.597376,459.978432 C214.254254,460.695887 220.408161,465.39954 221.104379,465.932422 C221.431571,466.183978 221.492827,466.651367 221.24183,466.975859 C221.093921,467.166387 220.872804,467.267605 220.6487,467.267605" id="Fill-22"></path>
                        <path d="M51.7770666,467.267605 C51.5544562,467.267605 51.3318458,467.166387 51.1854309,466.975859 C50.93294,466.651367 50.9941952,466.183978 51.3213876,465.932422 C52.0176053,465.39954 58.1730063,460.695887 59.8283908,459.978432 C61.5554888,459.234183 68.5490402,459.467877 69.3423698,459.496158 C69.7547219,459.512532 70.0759383,459.856375 70.060998,460.268689 C70.0445636,460.678025 69.759204,460.96084 69.2870908,460.984656 C66.4245305,460.880461 61.4897515,460.884927 60.4230145,461.344872 C59.1650418,461.888174 54.0838479,465.692774 52.2327455,467.112801 C52.0967889,467.216996 51.9354337,467.267605 51.7770666,467.267605" id="Fill-23"></path>
                        <path d="M21.6185898,157.474031 C21.6185898,158.730323 21.7067375,178.311509 21.83373,206.223817 C21.8591285,206.207444 21.8994673,206.174697 21.9233718,206.159812 C22.5867208,205.747498 23.6190951,204.820164 24.8098365,203.650205 C24.6888201,177.104338 24.6066485,158.688645 24.6066485,157.474031 C24.6066485,155.442231 24.0583397,152.453328 23.4248713,148.992571 C22.5777566,144.384182 21.6185898,139.162533 21.6185898,134.588379 L21.6185898,83.4212725 C21.6185898,63.4113986 30.9697196,49.6978697 37.7989278,39.684746 L37.9826934,39.4153279 C44.2650869,30.197062 89.3907499,7.65227653 101.614898,5.24537583 C108.980463,3.79557912 120.091559,3.49192559 128.115991,3.49192559 C132.751964,3.49192559 136.017912,3.59760893 136.149387,3.59909743 C136.180762,3.59760893 139.445216,3.49192559 144.082683,3.49192559 C152.107115,3.49192559 163.218211,3.79557912 170.582282,5.24537583 C182.807924,7.65227653 227.932093,30.197062 234.215981,39.4153279 L234.399746,39.684746 C241.228954,49.6978697 250.57859,63.4113986 250.57859,83.4212725 L250.57859,134.588379 C250.57859,139.162533 249.620917,144.384182 248.773803,148.992571 C248.13884,152.453328 247.590532,155.442231 247.590532,157.474031 C247.590532,158.685668 247.509854,177.049263 247.388838,203.529637 C248.615436,204.741274 249.679185,205.699866 250.364944,206.135996 C250.491937,178.269831 250.57859,158.728834 250.57859,157.474031 C250.57859,155.711649 251.105983,152.844803 251.714053,149.526942 C252.582084,144.795008 253.566649,139.431951 253.566649,134.588379 L253.566649,83.4212725 C253.566649,62.4959725 243.520796,47.7613343 236.872365,38.0116746 L236.687105,37.7422566 C232.230416,31.2062634 213.701463,21.1097838 205.939981,17.0729782 C191.558454,9.58881198 177.256111,3.52467254 171.161965,2.32494344 C163.560344,0.829003295 152.240083,0.51493029 144.082683,0.51493029 C139.413841,0.51493029 136.11353,0.620613623 136.149387,0.623590619 C136.085144,0.620613623 132.783339,0.51493029 128.115991,0.51493029 C119.958591,0.51493029 108.639824,0.829003295 101.036709,2.32494344 C94.941069,3.52467254 80.6402199,9.58881198 66.2571992,17.0729782 C58.4972107,21.1097838 39.9682585,31.2062634 35.5100748,37.7422566 L35.3263092,38.0116746 C28.6778785,47.7613343 18.630531,62.4959725 18.630531,83.4212725 L18.630531,134.588379 C18.630531,139.431951 19.6165904,144.795008 20.4846215,149.526942 C21.0926914,152.844803 21.6185898,155.711649 21.6185898,157.474031" id="Fill-25"></path>
                        <path d="M250.043728,276.446671 C250.121417,259.605809 250.196119,243.02841 250.266338,227.841269 C249.027788,227.364949 247.993919,226.985383 247.282761,226.756154 C247.212542,242.235041 247.134853,259.193495 247.055669,276.433275 C246.768815,339.158566 246.470009,404.022828 246.470009,406.611325 C246.470009,408.787509 247.432164,412.508753 248.649798,417.219848 C250.424705,424.09373 252.632881,432.648126 252.632881,439.544336 L252.632881,488.664758 C252.632881,495.888437 240.686622,541.445397 238.323067,548.870023 C235.928138,556.397355 232.842968,564.139032 223.922118,568.844173 C217.639725,572.157569 192.67057,591.921434 136.09859,591.921434 C79.5266097,591.921434 54.5574552,572.157569 48.2765558,568.844173 C39.3542124,564.139032 36.2705358,556.397355 33.8741127,548.870023 C31.5105582,541.445397 19.5642994,495.888437 19.5642994,488.664758 L19.5642994,439.544336 C19.5642994,432.648126 21.7739688,424.09373 23.5488757,417.219848 C24.7665096,412.508753 25.7271705,408.787509 25.7271705,406.611325 C25.7271705,404.022828 25.4298587,339.158566 25.143005,276.433275 C25.0638215,259.20838 24.986132,242.264811 24.9144186,226.797832 C24.1853322,227.03748 23.158934,227.415558 21.9323359,227.888901 C22.0010613,243.064134 22.0772568,259.623671 22.1549463,276.446671 C22.4418,339.168985 22.7391118,404.027293 22.7391118,406.611325 C22.7391118,408.410919 21.7739688,412.148537 20.6564349,416.477088 C18.8382011,423.513216 16.5762407,432.271536 16.5762407,439.544336 L16.5762407,488.664758 C16.5762407,496.318613 28.5822607,542.088428 31.0264927,549.769075 C33.6096695,557.884365 36.9592833,566.243767 46.8796383,571.475837 C53.323387,574.875565 78.4813417,594.898429 136.09859,594.898429 C193.715838,594.898429 218.875287,574.875565 225.319036,571.475837 C235.239391,566.243767 238.589005,557.884365 241.170687,549.769075 C243.616413,542.088428 255.620939,496.318613 255.620939,488.664758 L255.620939,439.544336 C255.620939,432.271536 253.360473,423.513216 251.542239,416.477088 C250.424705,412.148537 249.458068,408.410919 249.458068,406.611325 C249.458068,404.027293 249.756874,339.168985 250.043728,276.446671 Z" id="Fill-26"></path>
                        <path d="M271.03484,237.58944 L271.033346,237.58944 C270.83464,237.587951 270.553763,237.462918 270.413324,237.322999 C269.047781,236.269142 247.810154,227.393231 246.268316,227.24587 L246.266821,227.24587 C244.926677,227.247358 244.657752,225.156019 244.248388,221.992961 C244.048188,220.440458 243.674681,217.546819 243.183145,217.167252 C242.55117,217.199999 242.086527,217.381596 241.49788,217.610824 C240.800168,217.883219 240.008332,218.191338 238.695081,218.191338 C235.457519,218.191338 235.457519,215.555209 235.457519,213.230176 C235.457519,210.391611 236.29567,192.971723 236.331526,192.230451 C236.346466,191.926797 236.546666,191.661845 236.835014,191.563604 C237.117386,191.463875 237.444578,191.550207 237.644778,191.782413 C241.193098,195.914483 248.507866,204.104197 250.79373,205.528689 C254.043244,207.551557 270.680755,224.073881 270.848087,224.239104 C272.564726,225.952365 272.507953,235.468331 271.896895,236.937478 C271.651874,237.525434 271.21263,237.58944 271.03484,237.58944 L271.03484,237.58944 Z M246.496902,225.787142 C248.959062,226.299185 266.569187,233.619617 270.661333,235.77645 C271.009442,233.461836 270.755457,226.25453 269.791808,225.291472 C266.510919,222.022731 252.674713,208.455075 250.003389,206.790935 C247.548699,205.262248 240.585028,197.426796 237.735914,194.164009 C237.513303,198.858731 236.951548,210.969148 236.951548,213.230176 C236.951548,216.293504 237.302645,216.702841 238.695081,216.702841 C239.725961,216.702841 240.322079,216.470635 240.954053,216.223545 C241.600968,215.9705 242.270293,215.711501 243.301173,215.711501 C244.944606,215.711501 245.29122,218.399728 245.730465,221.802434 C245.909748,223.198645 246.178674,225.276587 246.496902,225.787142 L246.496902,225.787142 Z" id="Fill-27"></path>
                    </g>
                    <ellipse id="Oval-2007" stroke="#04DE47" stroke-width="2.788" fill="#04DE47" cx="190.931579" cy="79.901204" rx="20.9315789" ry="20.901204"></ellipse>
                    <path d="M199,79 L199.5,79 C199.776,79 200,79.22 200,79.5 C200,79.78 199.776,80 199.5,80 L199,80 L199,81.5 C199,81.78 198.776,82 198.5,82 C198.224,82 198,81.78 198,81.5 L198,77.5 C198,77.22 198.224,77 198.5,77 L200,77 C200.276,77 200.5,77.22 200.5,77.5 C200.5,77.78 200.276,78 200,78 L199,78 L199,79 Z M196,79 L196.5,79 C196.776,79 197,79.22 197,79.5 C197,79.78 196.776,80 196.5,80 L196,80 L196,81.5 C196,81.78 195.776,82 195.5,82 C195.224,82 195,81.78 195,81.5 L195,77.5 C195,77.22 195.224,77 195.5,77 L197,77 C197.276,77 197.5,77.22 197.5,77.5 C197.5,77.78 197.276,78 197,78 L196,78 L196,79 Z M196.5,73 C200.084,73 203,75.92 203,79.5 C203,83.08 200.084,86 196.5,86 L185.5,86 C181.916,86 179,83.08 179,79.5 C179,75.92 181.916,73 185.5,73 L196.5,73 Z M196.5,85 C199.532,85 202,82.53 202,79.5 C202,76.47 199.532,74 196.5,74 L185.5,74 C182.468,74 180,76.47 180,79.5 C180,82.53 182.468,85 185.5,85 L196.5,85 Z M185.5,75 C187.981,75 190,77.02 190,79.5 C190,81.98 187.981,84 185.5,84 C183.019,84 181,81.98 181,79.5 C181,77.02 183.019,75 185.5,75 Z M192.5,82 C191.673,82 191,81.33 191,80.5 L191,78.5 C191,77.67 191.673,77 192.5,77 C193.327,77 194,77.67 194,78.5 L194,80.5 C194,81.33 193.327,82 192.5,82 Z M192.5,78 C192.225,78 192,78.22 192,78.5 L192,80.5 C192,80.78 192.225,81 192.5,81 C192.775,81 193,80.78 193,80.5 L193,78.5 C193,78.22 192.775,78 192.5,78 Z" id="Combined-Shape" fill="#FFFFFF"></path>
                    <g id="Door-Right-Locked" transform="translate(298.508772, 270.254958)">
                        <g id="Line-+-Oval-2005-+-Oval-2007" transform="translate(44.323509, 21.000000) scale(-1, 1) translate(-44.323509, -21.000000) translate(0.823509, 0.000000)">
                            <g id="Group-13">
                                <ellipse id="Oval-2007" stroke="#04DE47" stroke-width="2.788" fill="#04DE47" cx="20.9315789" cy="20.901204" rx="20.9315789" ry="20.901204"></ellipse>
                                <path d="M42.7565789,21.1901033 L82.74852,21.1901034" id="Line" stroke="#04DE47" stroke-width="1.394" stroke-linecap="square"></path>
                                <ellipse id="Oval-2005" fill="#04DE47" cx="82.5265789" cy="20.9684844" rx="3.48859649" ry="3.48353399"></ellipse>
                                <path d="M22.974,28.34 C23.025,28.49 23,28.66 22.906,28.79 C22.812,28.92 22.661,29 22.5,29 L19.5,29 C19.339,29 19.188,28.92 19.094,28.79 C19,28.66 18.975,28.49 19.026,28.34 L19.65,26.47 C19.237,26.1 19,25.57 19,25 C19,23.9 19.897,23 21,23 C22.103,23 23,23.9 23,25 C23,25.57 22.763,26.1 22.35,26.47 L22.974,28.34 L22.974,28.34 Z M17,16 C17,13.795 18.794,12 21,12 C23.206,12 25,13.795 25,16 L25,20 L17,20 L17,16 L17,16 Z M28,20.09 L28,16 C28,12.14 24.86,9 21,9 C17.14,9 14,12.14 14,16 L14,20.09 C13.419,20.3 13,20.85 13,21.5 L13,30.5 C13,31.88 14.122,33 15.5,33 L26.5,33 C27.878,33 29,31.88 29,30.5 L29,21.5 C29,20.85 28.581,20.3 28,20.09 L28,20.09 Z" id="Fill-2058" fill="#FFFFFF"></path>
                            </g>
                        </g>
                    </g>
                    <g id="Door-Right-Locked" transform="translate(13.614035, 489.518414)">
                        <g id="Line-+-Oval-2005-+-Oval-2007" transform="translate(46.798246, 47.592068) scale(-1, 1) rotate(-135.000000) translate(-46.798246, -47.592068) translate(3.403509, 25.495751)" stroke="#04DE47">
                            <path d="M42.9458617,21.6360119 L82.7219816,21.6360119" id="Line" stroke-width="1.394" stroke-linecap="square"></path>
                            <ellipse id="Oval-2005" stroke-width="2.788" fill="#04DE47" cx="82.7219816" cy="21.6360119" rx="3.48859649" ry="3.48353399"></ellipse>
                            <ellipse id="Oval-2007" stroke-width="2.788" fill="#04DE47" cx="21.6292982" cy="21.5979108" rx="20.9315789" ry="20.901204"></ellipse>
                        </g>
                        <g id="Group-51" transform="translate(20.421053, 54.390935)" fill="#FFFFFF">
                            <path d="M11.5946199,13.2200189 C10.5434802,13.2200189 9.68865497,14.0698772 9.68865497,15.108593 C9.68865497,16.1473088 10.5434802,16.9971671 11.5946199,16.9971671 C12.6448065,16.9971671 13.5005848,16.1473088 13.5005848,15.108593 C13.5005848,14.0698772 12.6448065,13.2200189 11.5946199,13.2200189" id="Fill-4894"></path>
                            <path d="M12.0387097,13.9282342 C11.8281006,13.9282342 11.6346451,13.7865911 11.5784192,13.5694051 L9.19596304,4.598678 C9.12925427,4.35316336 9.28077848,4.08876298 9.53617778,4.02266289 C9.78585918,3.9565628 10.0517413,4.10764873 10.1174971,4.36260623 L12.4999532,13.3333333 C12.566662,13.5882908 12.4151378,13.8432483 12.1597385,13.9093484 C12.1197132,13.9187913 12.078735,13.9282342 12.0387097,13.9282342" id="Fill-4895"></path>
                            <path d="M12.5476023,1.79414542 C12.5476023,2.0585458 12.3341343,2.26628895 12.0711111,2.26628895 C11.807135,2.26628895 11.5946199,2.0585458 11.5946199,1.79414542 L11.5946199,0.944287063 C11.5946199,0.679886686 11.807135,0.472143532 12.0711111,0.472143532 C12.3341343,0.472143532 12.5476023,0.679886686 12.5476023,0.944287063 L12.5476023,1.79414542 L12.5476023,1.79414542 Z M12.5476023,4.34372049 C12.5476023,4.60812087 12.3341343,4.81586402 12.0711111,4.81586402 C11.807135,4.81586402 11.5946199,4.60812087 11.5946199,4.34372049 L11.5946199,3.49386213 C11.5946199,3.22946176 11.807135,3.0217186 12.0711111,3.0217186 C12.3341343,3.0217186 12.5476023,3.22946176 12.5476023,3.49386213 L12.5476023,4.34372049 L12.5476023,4.34372049 Z M12.5476023,6.89329556 C12.5476023,7.15769594 12.3341343,7.36543909 12.0711111,7.36543909 C11.807135,7.36543909 11.5946199,7.15769594 11.5946199,6.89329556 L11.5946199,6.0434372 C11.5946199,5.77903683 11.807135,5.57129367 12.0711111,5.57129367 C12.3341343,5.57129367 12.5476023,5.77903683 12.5476023,6.0434372 L12.5476023,6.89329556 L12.5476023,6.89329556 Z M12.5476023,9.44287063 C12.5476023,9.70727101 12.3341343,9.91501416 12.0711111,9.91501416 C11.807135,9.91501416 11.5946199,9.70727101 11.5946199,9.44287063 L11.5946199,8.59301228 C11.5946199,8.3286119 11.807135,8.12086874 12.0711111,8.12086874 C12.3341343,8.12086874 12.5476023,8.3286119 12.5476023,8.59301228 L12.5476023,9.44287063 L12.5476023,9.44287063 Z M22.8655434,3.8904627 C22.6797118,3.7299339 18.2473904,0 11.5946199,0 C4.94089637,0 0.508574971,3.7299339 0.323696374,3.8904627 C0.187419883,4.01322002 0.128334971,4.19263456 0.172172164,4.36260623 L2.07813708,11.9169027 C2.11053848,12.0491029 2.19725988,12.1529745 2.31638269,12.2190746 C2.38690339,12.2568461 2.46409497,12.2757318 2.54128655,12.2757318 C2.59465357,12.2757318 2.64992655,12.266289 2.70234058,12.2474032 C2.74617778,12.2285175 6.44660865,10.9254013 9.78109427,10.509915 L9.19882199,8.31916903 L9.21025778,8.46081209 C9.23027041,8.72521246 9.03395602,8.95184136 8.77188585,8.9707271 L8.73471953,8.9707271 C8.48789708,8.9707271 8.27919392,8.78186969 8.26108725,8.53635505 L7.78459602,2.39848914 C7.76363041,2.13408876 7.9599448,1.90745987 8.22296795,1.88857413 C8.45644865,1.86968839 8.71375392,2.06798867 8.73376655,2.32294618 L8.88529076,4.28706327 C9.03109708,4.33427762 9.15403181,4.4381492 9.19596304,4.598678 L10.7417006,10.4249292 C11.0323602,10.3966006 11.319208,10.3871577 11.5946199,10.3871577 C15.2188122,10.3871577 20.4344851,12.2285175 20.4868992,12.2474032 C20.6136458,12.2946176 20.7537343,12.2851747 20.8719041,12.2190746 C20.9910269,12.1529745 21.0777483,12.0491029 21.1101497,11.9169027 L23.0161146,4.36260623 C23.0599518,4.19263456 23.0008669,4.01322002 22.8655434,3.8904627 L22.8655434,3.8904627 Z" id="Fill-4896"></path>
                        </g>
                    </g>
                    <g id="Door-Right-Locked-Copy" transform="translate(320.780702, 537.960340) scale(-1, 1) translate(-320.780702, -537.960340) translate(273.982456, 491.218130)">
                        <g id="Line-+-Oval-2005-+-Oval-2007" transform="translate(47.399907, 46.493292) scale(-1, 1) rotate(-135.000000) translate(-47.399907, -46.493292) translate(4.005170, 25.246833)" stroke="#04DE47">
                            <path d="M42.9458617,21.6360119 L82.7219816,21.6360119" id="Line" stroke-width="1.394" stroke-linecap="square"></path>
                            <ellipse id="Oval-2005" stroke-width="2.788" fill="#04DE47" cx="82.7219816" cy="21.6360119" rx="3.48859649" ry="3.48353399"></ellipse>
                            <ellipse id="Oval-2007" stroke-width="2.788" fill="#04DE47" cx="20.9315789" cy="20.901204" rx="20.9315789" ry="20.901204"></ellipse>
                        </g>
                        <path d="M34.7097723,63.6744785 L28.1965698,59.3355653 L32.0631944,59.3355653 C32.2508175,59.3355653 32.4235499,59.4460469 32.5069379,59.6167911 C33.3348622,61.2941025 34.2154003,62.8408447 34.6660929,63.6142158 C34.6789982,63.6343034 34.696867,63.6543909 34.7097723,63.6744785 Z M42.9463279,69.1583827 L38.6161055,66.2758177 L41.2001424,62.6801442 L42.9463279,69.1583827 Z M37.7861958,65.7234097 L35.6875965,64.3172805 C35.7739627,64.337368 35.8603289,64.3574556 35.9496732,64.3574556 C36.4748194,64.3574556 36.9662133,64.0762297 37.2332536,63.6142158 C37.6839462,62.8408447 38.5644843,61.2941025 39.3924085,59.6167911 C39.4757966,59.4460469 39.648529,59.3355653 39.8361521,59.3355653 C40.0605057,59.3355653 40.3404513,59.486222 40.3990215,59.7071852 L40.8655975,61.4347154 L37.7861958,65.7234097 Z M27.4619608,68.1037857 L25.0298092,71.388102 L20.0662347,71.388102 C19.9113711,71.388102 19.7654421,71.3177955 19.6721269,71.1872264 C19.5778189,71.066701 19.5470448,70.9060005 19.5877461,70.7553438 L21.4024289,64.015967 L27.4619608,68.1037857 Z M39.7706329,71.388102 L26.2707029,71.388102 L30.7706795,65.3216585 L39.7706329,71.388102 Z M43.3414285,70.6147309 L43.3771662,70.7553438 C43.4178675,70.9060005 43.3870933,71.066701 43.2927854,71.1872264 C43.1994702,71.3177955 43.0535411,71.388102 42.8986776,71.388102 L41.5595052,71.388102 L23.6906368,59.3355653 L26.3898287,59.3355653 L43.3414285,70.6147309 Z M21.677411,63.0015452 L22.548022,59.7674478 L29.943748,64.7592068 L28.0585824,67.3002833 L21.677411,63.0015452 Z M30.5731293,66.5871749 L29.5804144,68.093742 C29.504968,68.2142673 29.4791575,68.3548802 29.5089389,68.4854494 C29.5387203,68.6160185 29.6211157,68.7365439 29.738256,68.8068504 L32.2200433,70.3134175 C32.2994605,70.3636364 32.3878121,70.3837239 32.4751711,70.3837239 C32.6359909,70.3837239 32.7928398,70.3033737 32.8881405,70.1627608 L33.8808554,68.6561937 C33.9563017,68.5356683 33.9821123,68.3950554 33.9523308,68.2644862 C33.9225494,68.1339171 33.8401541,68.0133917 33.7230137,67.9430852 L31.2412264,66.4365182 C31.0119093,66.2959052 30.7190584,66.3662117 30.5731293,66.5871749 Z M32.7660365,68.5356683 L32.3252711,69.2086016 L30.6952332,68.2142673 L31.1359986,67.541334 L32.7660365,68.5356683 Z M35.9496732,49.2917847 C38.4125989,49.2917847 40.4168903,51.3206284 40.4168903,53.811486 C40.4168903,56.1014679 36.7905028,62.3989184 36.3775334,63.101983 C36.288189,63.2626835 36.1253838,63.3530775 35.9496732,63.3530775 C35.7739627,63.3530775 35.6111575,63.2626835 35.5218131,63.101983 C35.1088437,62.3989184 31.4824561,56.1014679 31.4824561,53.811486 C31.4824561,51.3206284 33.4867475,49.2917847 35.9496732,49.2917847 Z M35.9496732,55.3180531 C36.7706485,55.3180531 37.4387456,54.6451198 37.4387456,53.811486 C37.4387456,52.9778522 36.7706485,52.3049189 35.9496732,52.3049189 C35.128698,52.3049189 34.4606009,52.9778522 34.4606009,53.811486 C34.4606009,54.6451198 35.128698,55.3180531 35.9496732,55.3180531 Z" id="Combined-Shape" fill="#FFFFFF" transform="translate(31.482456, 60.339943) scale(-1, 1) translate(-31.482456, -60.339943) "></path>
                    </g>
                    <g id="Door-Left-Unlocked" transform="translate(0.000000, 271.018945)">
                        <g id="Line-+-Oval-2005-+-Oval-2007" transform="translate(0.136140, 0.000000)">
                            <path d="M41.8631579,20.4261161 L81.8550989,20.4261161" id="Line" stroke="#04DE47" stroke-width="1.394" stroke-linecap="square"></path>
                            <ellipse id="Oval-2005" fill="#04DE47" cx="81.6331579" cy="20.2044972" rx="3.48859649" ry="3.48353399"></ellipse>
                            <ellipse id="Oval-2007" stroke="#04DE47" stroke-width="2.788" fill="#04DE47" cx="20.9315789" cy="20.901204" rx="20.9315789" ry="20.901204"></ellipse>
                            <path d="M12.146,16.15 L16.146,12.15 C16.241,12.05 16.366,12 16.5,12 C16.634,12 16.759,12.05 16.854,12.15 C16.948,12.24 17,12.37 17,12.5 C17,12.63 16.948,12.76 16.854,12.85 L12.854,16.85 C12.664,17.04 12.336,17.04 12.146,16.85 C12.052,16.76 12,16.63 12,16.5 C12,16.37 12.052,16.24 12.146,16.15 L12.146,16.15 Z M23.9550725,17.7510725 L24.854,18.65 C25.049,18.84 25.049,19.16 24.854,19.35 L24.207,20 L31.854,27.65 C31.947,27.74 32,27.87 32,28 L32,31.5 C32,31.78 31.776,32 31.5,32 L28,32 C27.867,32 27.74,31.95 27.646,31.85 L26.793,31 L25.5,31 C25.224,31 25,30.78 25,30.5 L25,29.21 L22.793,27 L21.5,27 C21.224,27 21,26.78 21,26.5 L21,25.21 L20,24.21 L19.354,24.85 C19.158,25.05 18.842,25.05 18.646,24.85 L17.7534269,23.9574269 L17.561,24.15 C17.01,24.7 16.277,25 15.5,25 C14.723,25 13.99,24.7 13.439,24.15 L9.207,19.91 C8.429,19.14 8,18.1 8,17 C8,15.9 8.429,14.86 9.207,14.09 L14.086,9.21 C14.853,8.44 15.915,8 17,8 C18.085,8 19.147,8.44 19.914,9.21 L24.146,13.44 C24.697,13.99 25,14.72 25,15.5 C25,16.28 24.697,17.01 24.146,17.56 L23.9550725,17.7510725 Z M29.354,29.35 C29.549,29.16 29.549,28.84 29.354,28.65 L22.354,21.65 C22.158,21.45 21.842,21.45 21.646,21.65 C21.451,21.84 21.451,22.16 21.646,22.35 L28.646,29.35 C28.744,29.45 28.872,29.5 29,29.5 C29.128,29.5 29.256,29.45 29.354,29.35 Z" id="Combined-Shape" fill="#FFFFFF"></path>
                        </g>
                    </g>
                </g>
            </g>
        </g>
    </g>
</svg>