<?xml version="1.0" encoding="UTF-8"?>
<svg width="60px" height="48px" viewBox="0 0 60 48" version="1.1" xmlns="http://www.w3.org/2000/svg" xmlns:xlink="http://www.w3.org/1999/xlink">
    <!-- Generator: Sketch 50.2 (55047) - http://www.bohemiancoding.com/sketch -->
    <title>Fill 16</title>
    <desc>Created with Sketch.</desc>
    <defs></defs>
    <g id="Page-1" stroke="none" stroke-width="1" fill="none" fill-rule="evenodd">
        <g id="wunder_landingpage_desktop_05" transform="translate(-1253.000000, -9207.000000)" fill="#04DE47">
            <g id="48-Reasons" transform="translate(10.000000, 7318.000000)">
                <g id="Employees" transform="translate(0.000000, 94.000000)">
                    <g id="Competitive-Compensation--&amp;-Equity-Copy-3" transform="translate(1144.000000, 1716.000000)">
                        <path d="M136.500153,119.420953 L154.000034,119.420953 L154.000034,114.368255 L136.500153,114.368255 L136.500153,119.420953 Z M132.750179,104.262859 L127.750213,104.262859 C127.057717,104.262859 126.500221,103.696957 126.500221,102.999684 L126.500221,97.9469861 C126.500221,97.2497138 127.057717,96.6838116 127.750213,96.6838116 L132.750179,96.6838116 C133.440174,96.6838116 134.00017,97.2497138 134.00017,97.9469861 L134.00017,102.999684 C134.00017,103.696957 133.440174,104.262859 132.750179,104.262859 L132.750179,104.262859 Z M114.000306,102.999684 C114.000306,103.696957 113.44031,104.262859 112.750315,104.262859 L107.750349,104.262859 C107.057854,104.262859 106.500357,103.696957 106.500357,102.999684 L106.500357,97.9469861 C106.500357,97.2497138 107.057854,96.6838116 107.750349,96.6838116 L112.750315,96.6838116 C113.44031,96.6838116 114.000306,97.2497138 114.000306,97.9469861 L114.000306,102.999684 Z M152.750043,106.789208 C153.440038,106.789208 154.000034,107.35511 154.000034,108.052382 L154.000034,111.841906 L136.500153,111.841906 L136.500153,108.052382 C136.500153,107.35511 137.057649,106.789208 137.750145,106.789208 L152.750043,106.789208 Z M158.190006,104.343702 L139.000136,97.070343 L139.000136,94.1574626 L140.250128,94.1574626 C140.807624,94.1574626 141.297621,93.7835629 141.450119,93.2429242 C141.605118,92.6997592 141.38512,92.1212253 140.912623,91.8231161 L120.912759,79.1913709 C120.507762,78.9362097 119.992766,78.9362097 119.587768,79.1913709 L99.5879045,91.8231161 C99.1154077,92.1212253 98.8954092,92.6997592 99.0479081,93.2429242 C99.2029071,93.7835629 99.6929037,94.1574626 100.2504,94.1574626 L101.500391,94.1574626 L101.500391,125.736825 C101.500391,126.434098 102.057888,127 102.750383,127 L114.000306,127 L114.000306,113.10508 C114.000306,112.407808 114.557803,111.841906 115.250298,111.841906 L125.25023,111.841906 C125.940225,111.841906 126.500221,112.407808 126.500221,113.10508 L126.500221,127 L136.500153,127 L136.500153,121.947302 L154.000034,121.947302 L154.000034,127 L157.750009,127 C158.440004,127 159,126.434098 159,125.736825 L159,105.526033 C159,105.000553 158.675002,104.528125 158.190006,104.343702 L158.190006,104.343702 Z" id="Fill-16"></path>
                    </g>
                </g>
            </g>
        </g>
    </g>
</svg>