<?xml version="1.0" encoding="UTF-8"?>
<svg width="75px" height="70px" viewBox="0 0 75 70" version="1.1" xmlns="http://www.w3.org/2000/svg" xmlns:xlink="http://www.w3.org/1999/xlink">
    <!-- Generator: Sketch 50.2 (55047) - http://www.bohemiancoding.com/sketch -->
    <title>Group 6</title>
    <desc>Created with Sketch.</desc>
    <defs></defs>
    <g id="Page-1" stroke="none" stroke-width="1" fill="none" fill-rule="evenodd">
        <g id="wunder_landingpage_desktop_05" transform="translate(-399.000000, -8332.000000)" fill="#04DE47">
            <g id="48-Reasons" transform="translate(10.000000, 7318.000000)">
                <g id="Employees" transform="translate(0.000000, 94.000000)">
                    <g id="Competitive-Compensation--&amp;-Equity-Copy" transform="translate(289.000000, 858.000000)">
                        <g id="Group-6" transform="translate(100.000000, 62.000000)">
                            <path d="M45.75,36.2533043 C45.5742754,36.4322609 45.3405797,36.5217391 45.1086957,36.5217391 C44.8768116,36.5217391 44.6467391,36.434087 44.4692029,36.2551304 L44.2644928,36.0506087 C41.8931159,33.6785217 36.9565217,28.7444348 36.9565217,19.173913 C36.9565217,18.669913 37.3623188,18.2608696 37.8623188,18.2608696 C38.3623188,18.2608696 38.7681159,18.669913 38.7681159,19.173913 C38.7681159,27.9847826 43.3423913,32.5573043 45.5398551,34.754087 L45.7481884,34.9622609 C46.1032609,35.3165217 46.1032609,35.8953913 45.75,36.2533043 L45.75,36.2533043 Z M53.3253968,10.1705667 C53.8702491,3.1967525 57.7710586,0 61.4130435,0 C61.9130435,0 62.3188406,0.409043478 62.3188406,0.913043478 C62.3188406,1.41704348 61.9130435,1.82608696 61.4130435,1.82608696 C58.5240257,1.82608696 55.6107159,4.42929009 55.1388012,10.191902 C56.7956998,9.33167231 59.7821992,8.2173913 64.1304348,8.2173913 C68.5144928,8.2173913 75,11.6997391 75,19.173913 C75,30.9667826 69.9818841,35.7438261 67.2862319,38.3113043 C67.0289855,38.5578261 66.7916667,38.7842609 66.5833333,38.9942609 C63.8152174,41.7826957 60.5398551,42 59.6014493,42 C58.8677536,42 58.1938406,41.6274783 57.4800725,41.2366957 C56.5778986,40.7381739 55.5561594,40.173913 54.1666667,40.173913 C52.7771739,40.173913 51.7554348,40.7381739 50.8532609,41.2366957 C50.1394928,41.6274783 49.4655797,42 48.7318841,42 C47.7934783,42 44.5181159,41.7826957 41.75,38.9942609 L41.5525362,38.7952174 C39.0942029,36.3245217 33.3333333,30.5413043 33.3333333,19.173913 C33.3333333,11.6997391 39.8188406,8.2173913 44.2028986,8.2173913 C48.8845081,8.2173913 51.7662947,9.30040115 53.3253968,10.1705667 Z" id="Combined-Shape"></path>
                            <path d="M28.587963,56.7 C28.587963,59.2247833 29.4390046,64.8573333 32.6650463,68.1069667 C32.9795139,68.4261667 33.0740741,68.9005333 32.9025463,69.31505 C32.7332176,69.7295667 32.330787,70 31.8865741,70 C5.72858796,70 -1.42108547e-14,48.3985833 -1.42108547e-14,40.075 C-1.42108547e-14,34.25625 18.2017361,32.3166667 23.0902778,32.3166667 C23.6972222,32.3166667 24.1898148,32.8132 24.1898148,33.425 C24.1898148,36.91625 27.4334491,43.5950667 32.3197917,45.70755 C32.6936343,45.86715 32.9487269,46.2240333 32.983912,46.6341167 C33.0168981,47.0442 32.8211806,47.4387667 32.478125,47.6582167 C29.6435185,49.48475 28.587963,54.173 28.587963,56.7 Z M47.1767361,49.0791 C50.8931713,49.0791 52.7777778,50.8967667 52.7777778,54.4833333 C52.7777778,56.9371833 51.3021991,59.3843833 48.3884259,61.754 C48.1883102,61.9180333 47.9420139,62.00005 47.6979167,62.00005 C47.4824074,62.00005 47.2646991,61.9357667 47.0777778,61.8072 L46.9436343,61.7141 C41.8351852,58.1940333 41.7846065,52.53045 41.769213,50.66845 C41.7648148,50.1209333 42.1584491,49.651 42.6950231,49.56455 C44.115625,49.3362333 45.7253472,49.0791 47.1767361,49.0791 Z M4.34537037,33.2565333 C4.07488426,33.2565333 3.81099537,33.1567833 3.60648148,32.9683667 C3.29861111,32.6890667 3.17546296,32.26125 3.28321759,31.8578167 C4.36956019,27.83235 5.59224537,25.1125 6.92048611,23.7736333 C7.14918981,23.5408833 7.46805556,23.4256167 7.79791667,23.4544333 C8.12337963,23.4854667 8.42025463,23.6605833 8.60497685,23.9332333 C10.3950231,26.5710667 12.8074074,27.8545167 15.9806713,27.8545167 C17.7443287,27.8545167 19.4244213,27.4710333 20.7768519,27.1629167 C22.2722222,26.8237667 23.3871528,26.4513667 23.9633102,27.2094667 C24.1722222,27.4821167 24.2403935,27.839 24.1524306,28.1715 L23.8709491,29.2665333 C23.7521991,29.7497667 23.3277778,30.09335 22.8351852,30.10665 C21.7246528,30.1376833 11.7958333,30.4857 4.73460648,33.1856 C4.60706019,33.2343667 4.47511574,33.2565333 4.34537037,33.2565333 Z M39.5767361,49.5069167 C39.5327546,52.4129667 39.4293981,59.2225667 45.7011574,63.54285 C45.9716435,63.72905 46.1453704,64.0283 46.1761574,64.3563667 C46.2069444,64.6844333 46.0903935,65.0102833 45.8594907,65.2430333 C44.4520833,66.6594833 41.3645833,67.7212667 36.6849537,68.39735 C36.6321759,68.4062167 36.5793981,68.4084333 36.5288194,68.4084333 C36.2407407,68.4084333 35.9592593,68.2931667 35.7503472,68.0848 L34.2175926,66.5397833 C31.5039352,63.8044167 30.787037,58.9078 30.787037,56.7 C30.787037,54.4700333 31.7876157,50.73495 33.6634259,49.5268667 L36.071412,47.9752 C36.2605324,47.8532833 36.4980324,47.7867833 36.7069444,47.8023 C37.3710648,47.8311167 37.9142361,47.8333333 38.2155093,47.8333333 L38.4662037,47.8333333 C38.7652778,47.8532833 39.0467593,47.9441667 39.2556713,48.1525333 C39.4645833,48.3609 39.5833333,48.6446333 39.5833333,48.9416667 L39.5767361,49.5069167 Z M10.419213,22.6830333 L10.2960648,22.5012667 C9.99039352,22.0557167 10.0519676,21.4505667 10.4412037,21.07595 C12.4511574,19.1252833 15.5144676,16.8 18.6921296,16.8 C21.1990741,16.8 22.9407407,17.4561333 23.8665509,18.7506667 C24.7439815,19.9787 24.8341435,21.6766667 24.137037,23.8002333 C23.9875,24.2524333 23.5652778,24.5583333 23.0924769,24.5583333 C22.234838,24.5583333 21.3354167,24.7644833 20.2930556,25.0016667 C18.375463,25.43835 17.071412,25.62455 15.9344907,25.62455 C13.5023148,25.62455 11.8002315,24.7179333 10.419213,22.6830333 Z" id="Combined-Shape"></path>
                        </g>
                    </g>
                </g>
            </g>
        </g>
    </g>
</svg>