<?xml version="1.0" encoding="utf-8"?>
<!-- Generator: Adobe Illustrator 22.1.0, SVG Export Plug-In . SVG Version: 6.00 Build 0)  -->
<svg version="1.1" id="Ebene_1" xmlns="http://www.w3.org/2000/svg" xmlns:xlink="http://www.w3.org/1999/xlink" x="0px" y="0px"
	 width="164.2px" height="141px" viewBox="0 0 164.2 141" style="enable-background:new 0 0 164.2 141;" xml:space="preserve">
<style type="text/css">
	.st0{clip-path:url(#SVGID_2_);}
	.st1{clip-path:url(#SVGID_4_);fill:#FFFFFF;}
	.st2{clip-path:url(#SVGID_6_);}
	.st3{clip-path:url(#SVGID_8_);fill:#FFFFFF;}
	.st4{clip-path:url(#SVGID_10_);}
	.st5{clip-path:url(#SVGID_12_);fill:#A8A8A8;}
	.st6{clip-path:url(#SVGID_14_);}
	.st7{clip-path:url(#SVGID_16_);fill:#4D4D4D;}
	.st8{clip-path:url(#SVGID_18_);}
	.st9{clip-path:url(#SVGID_20_);fill:#FFFFFF;}
	.st10{clip-path:url(#SVGID_22_);}
	.st11{clip-path:url(#SVGID_24_);fill:#4D4D4D;}
	.st12{clip-path:url(#SVGID_26_);}
	.st13{clip-path:url(#SVGID_28_);fill:#F2F2F2;}
	.st14{clip-path:url(#SVGID_30_);}
	.st15{clip-path:url(#SVGID_32_);fill:#4D4D4D;}
	.st16{clip-path:url(#SVGID_34_);}
	.st17{clip-path:url(#SVGID_36_);fill:#6B6B6B;}
	.st18{clip-path:url(#SVGID_38_);}
	.st19{clip-path:url(#SVGID_40_);fill:#4D4D4D;}
	.st20{clip-path:url(#SVGID_42_);}
	.st21{clip-path:url(#SVGID_44_);fill:#6B6B6B;}
	.st22{clip-path:url(#SVGID_46_);}
	.st23{clip-path:url(#SVGID_48_);fill:#4D4D4D;}
	.st24{clip-path:url(#SVGID_50_);}
	.st25{clip-path:url(#SVGID_52_);fill:#4D4D4D;}
	.st26{clip-path:url(#SVGID_54_);}
	.st27{clip-path:url(#SVGID_56_);fill:#4D4D4D;}
	.st28{clip-path:url(#SVGID_58_);}
	.st29{clip-path:url(#SVGID_60_);fill:#F2F2F2;}
	.st30{clip-path:url(#SVGID_62_);}
	.st31{clip-path:url(#SVGID_64_);fill:#4D4D4D;}
	.st32{clip-path:url(#SVGID_66_);}
	.st33{clip-path:url(#SVGID_68_);fill:#4D4D4D;}
	.st34{clip-path:url(#SVGID_70_);}
	.st35{clip-path:url(#SVGID_72_);fill:#FFFFFF;}
	.st36{clip-path:url(#SVGID_74_);}
	.st37{clip-path:url(#SVGID_76_);fill:#4D4D4D;}
	.st38{clip-path:url(#SVGID_78_);}
	.st39{clip-path:url(#SVGID_80_);fill:#F2F2F2;}
	.st40{clip-path:url(#SVGID_82_);}
	.st41{clip-path:url(#SVGID_84_);fill:#4D4D4D;}
	.st42{clip-path:url(#SVGID_86_);}
	.st43{clip-path:url(#SVGID_88_);fill:#4D4D4D;}
	.st44{clip-path:url(#SVGID_90_);}
	.st45{clip-path:url(#SVGID_92_);fill:#4D4D4D;}
	.st46{clip-path:url(#SVGID_94_);}
	.st47{opacity:0.3;clip-path:url(#SVGID_96_);fill:#4D4D4D;}
	.st48{clip-path:url(#SVGID_98_);}
	.st49{opacity:0.3;clip-path:url(#SVGID_100_);fill:#4D4D4D;}
	.st50{clip-path:url(#SVGID_102_);}
	.st51{opacity:0.3;clip-path:url(#SVGID_104_);fill:#4D4D4D;}
	.st52{clip-path:url(#SVGID_106_);}
	.st53{clip-path:url(#SVGID_108_);fill:#04DE47;}
	.st54{clip-path:url(#SVGID_110_);}
	.st55{clip-path:url(#SVGID_112_);fill:#4D4D4D;}
	.st56{clip-path:url(#SVGID_114_);}
	.st57{opacity:0.1;clip-path:url(#SVGID_116_);}
	.st58{clip-path:url(#SVGID_118_);}
	.st59{opacity:0.2;clip-path:url(#SVGID_120_);fill:#334146;}
</style>
<title>Group 5</title>
<desc>Created with Sketch.</desc>
<g>
	<defs>
		<polygon id="SVGID_1_" points="154.4,116.6 154.4,113.1 155.7,112.3 161.8,112.3 161.6,116.9 		"/>
	</defs>
	<clipPath id="SVGID_2_">
		<use xlink:href="#SVGID_1_"  style="overflow:visible;"/>
	</clipPath>
	<g class="st0">
		<defs>
			<rect id="SVGID_3_" x="-296.3" y="-702.1" width="1440" height="3440"/>
		</defs>
		<clipPath id="SVGID_4_">
			<use xlink:href="#SVGID_3_"  style="overflow:visible;"/>
		</clipPath>
		<rect x="149.4" y="107.3" class="st1" width="17.4" height="14.6"/>
	</g>
</g>
<g>
	<defs>
		<polygon id="SVGID_5_" points="161,105.6 157.1,105.8 153.6,105.6 151.9,104.9 150.7,102.9 148.7,101.2 148.8,100.2 154.4,99.7 
			158.6,100.2 160.8,103.3 		"/>
	</defs>
	<clipPath id="SVGID_6_">
		<use xlink:href="#SVGID_5_"  style="overflow:visible;"/>
	</clipPath>
	<g class="st2">
		<defs>
			<rect id="SVGID_7_" x="-296.3" y="-702.1" width="1440" height="3440"/>
		</defs>
		<clipPath id="SVGID_8_">
			<use xlink:href="#SVGID_7_"  style="overflow:visible;"/>
		</clipPath>
		<rect x="143.7" y="94.7" class="st3" width="22.4" height="16.1"/>
	</g>
</g>
<g>
	<defs>
		<path id="SVGID_9_" d="M154.1,116.6v-2.5c0-1,0.8-1.8,1.8-1.8h5.4c0.7,0,1.3-0.6,1.3-1.3v-2.4c0-1.7-1.4-3-3-2.9l-5.4,0.1
			c-0.9,0-1.8-0.4-2.5-1.1l-3-3.3c-0.5-0.6-0.1-1.5,0.7-1.5h8c0.5,0,0.7-0.6,0.3-0.9l-3.4-2.5c-1.6-1.1-3.3-1.9-5.2-2.2l-20.9-3.7
			c-2.1-0.4-4-1.2-5.8-2.3c-5.7-3.8-20.6-12.5-37.4-12.5c-21.6,0-30.6-1.1-44.4,4c-1.6,0.5-9.3,4.8-11.7,6.2
			c-1.4,0.8-6.1,4-10.9,4.3c-3,0.2-5.6,0.3-7.1,0.4c-0.8,0.1-1.4,0.7-1.4,1.5v10.4c0,0.3-0.2,0.6-0.6,0.6c-0.7,0-1.3,0.6-1.3,1.3
			l0.2,12.6"/>
	</defs>
	<clipPath id="SVGID_10_">
		<use xlink:href="#SVGID_9_"  style="overflow:visible;"/>
	</clipPath>
	<g class="st4">
		<defs>
			<rect id="SVGID_11_" x="-296.3" y="-702.1" width="1440" height="3440"/>
		</defs>
		<clipPath id="SVGID_12_">
			<use xlink:href="#SVGID_11_"  style="overflow:visible;"/>
		</clipPath>
		<rect x="2.5" y="70.7" class="st5" width="165.1" height="51.4"/>
	</g>
</g>
<g>
	<defs>
		<path id="SVGID_13_" d="M7.8,117.9c-0.4,0-0.8-0.4-0.8-0.8l-0.2-12.6c0-0.6,0.2-1.1,0.6-1.5c0.3-0.3,0.8-0.6,1.2-0.6V92.2
			c0-1.2,0.9-2.2,2.1-2.3c1.6-0.1,4.2-0.3,7.1-0.4c4-0.2,7.9-2.6,9.9-3.8c0.3-0.2,0.5-0.3,0.7-0.4c3-1.7,10.2-5.7,11.8-6.2
			c11.7-4.3,20.1-4.3,35.2-4.1c2.8,0,6,0.1,9.4,0.1c17.1,0,32.2,8.8,37.9,12.6c1.7,1.1,3.5,1.9,5.5,2.2l20.9,3.7
			c2,0.4,3.9,1.2,5.6,2.4l3.4,2.5c0.4,0.3,0.6,0.9,0.5,1.4c-0.2,0.5-0.7,0.9-1.2,0.9h-8c0,0-0.1,0-0.1,0.1c0,0.1,0,0.1,0,0.1l3,3.3
			c0.5,0.5,1.1,0.8,1.8,0.8l5.4-0.1c1,0,2,0.3,2.7,1.1c0.7,0.7,1.1,1.7,1.1,2.7v2.4c0,1.2-0.9,2.1-2.1,2.1h-5.4c-0.5,0-1,0.4-1,1
			v2.5c0,0.4-0.4,0.8-0.8,0.8c-0.4,0-0.8-0.4-0.8-0.8v-2.5c0-1.4,1.2-2.6,2.6-2.6h5.4c0.3,0,0.5-0.2,0.5-0.5v-2.4
			c0-0.6-0.2-1.1-0.6-1.5s-1-0.6-1.5-0.6l-5.4,0.1c-1.2,0-2.3-0.4-3.1-1.3l-3-3.3c-0.5-0.5-0.6-1.2-0.3-1.8c0.3-0.6,0.9-1,1.5-1h7
			l-2.6-1.9c-1.4-1.1-3.1-1.8-4.9-2.1L128,91.4c-2.2-0.4-4.2-1.2-6.1-2.4c-5.6-3.7-20.4-12.4-37-12.4c-3.5,0-6.6,0-9.5-0.1
			c-15-0.1-23.2-0.2-34.7,4C39.5,81,34,84,29.2,86.7c-0.2,0.1-0.4,0.2-0.7,0.4c-2,1.2-6.2,3.8-10.6,4c-3,0.2-5.5,0.3-7.1,0.4
			c-0.4,0-0.6,0.3-0.6,0.7v10.4c0,0.8-0.6,1.4-1.3,1.4c-0.1,0-0.3,0.1-0.3,0.1c-0.1,0.1-0.1,0.2-0.1,0.4l0.2,12.6
			C8.6,117.6,8.2,117.9,7.8,117.9C7.8,117.9,7.8,117.9,7.8,117.9"/>
	</defs>
	<clipPath id="SVGID_14_">
		<use xlink:href="#SVGID_13_"  style="overflow:visible;"/>
	</clipPath>
	<g class="st6">
		<defs>
			<rect id="SVGID_15_" x="-296.3" y="-702.1" width="1440" height="3440"/>
		</defs>
		<clipPath id="SVGID_16_">
			<use xlink:href="#SVGID_15_"  style="overflow:visible;"/>
		</clipPath>
		<rect x="1.7" y="69.9" class="st7" width="166.7" height="53"/>
	</g>
</g>
<g>
	<defs>
		<polygon id="SVGID_17_" points="10.4,95.1 13,95.8 14.5,98 14.8,100.8 13.6,102 10.9,102.2 9.6,101.8 9.4,99.2 9.4,96.7 9.6,94.6 
					"/>
	</defs>
	<clipPath id="SVGID_18_">
		<use xlink:href="#SVGID_17_"  style="overflow:visible;"/>
	</clipPath>
	<g class="st8">
		<defs>
			<rect id="SVGID_19_" x="-296.3" y="-702.1" width="1440" height="3440"/>
		</defs>
		<clipPath id="SVGID_20_">
			<use xlink:href="#SVGID_19_"  style="overflow:visible;"/>
		</clipPath>
		<rect x="4.4" y="89.6" class="st9" width="15.4" height="17.6"/>
	</g>
</g>
<g>
	<defs>
		<path id="SVGID_21_" d="M7.8,117.9c-0.4,0-0.8-0.4-0.8-0.8l-0.2-12.6c0-0.6,0.2-1.1,0.6-1.5c0.3-0.3,0.8-0.6,1.2-0.6V92.2
			c0-1.2,0.9-2.2,2.1-2.3c1.6-0.1,4.2-0.3,7.1-0.4c4-0.2,7.9-2.6,9.9-3.8c0.3-0.2,0.5-0.3,0.7-0.4c3-1.7,10.2-5.7,11.8-6.2
			c11.7-4.3,20.1-4.3,35.2-4.1c2.8,0,6,0.1,9.4,0.1c17.1,0,32.2,8.8,37.9,12.6c1.7,1.1,3.5,1.9,5.5,2.2l20.9,3.7
			c2,0.4,3.9,1.2,5.6,2.4l3.4,2.5c0.4,0.3,0.6,0.9,0.5,1.4c-0.2,0.5-0.7,0.9-1.2,0.9h-8c0,0-0.1,0-0.1,0.1c0,0.1,0,0.1,0,0.1l3,3.3
			c0.5,0.5,1.1,0.8,1.8,0.8l5.4-0.1c1,0,2,0.3,2.7,1.1c0.7,0.7,1.1,1.7,1.1,2.7v2.4c0,1.2-0.9,2.1-2.1,2.1h-5.4c-0.5,0-1,0.4-1,1
			v2.5c0,0.4-0.4,0.8-0.8,0.8c-0.4,0-0.8-0.4-0.8-0.8v-2.5c0-1.4,1.2-2.6,2.6-2.6h5.4c0.3,0,0.5-0.2,0.5-0.5v-2.4
			c0-0.6-0.2-1.1-0.6-1.5s-1-0.6-1.5-0.6l-5.4,0.1c-1.2,0-2.3-0.4-3.1-1.3l-3-3.3c-0.5-0.5-0.6-1.2-0.3-1.8c0.3-0.6,0.9-1,1.5-1h7
			l-2.6-1.9c-1.4-1.1-3.1-1.8-4.9-2.1L128,91.4c-2.2-0.4-4.2-1.2-6.1-2.4c-5.6-3.7-20.4-12.4-37-12.4c-3.5,0-6.6,0-9.5-0.1
			c-15-0.1-23.2-0.2-34.7,4C39.5,81,34,84,29.2,86.7c-0.2,0.1-0.4,0.2-0.7,0.4c-2,1.2-6.2,3.8-10.6,4c-3,0.2-5.5,0.3-7.1,0.4
			c-0.4,0-0.6,0.3-0.6,0.7v10.4c0,0.8-0.6,1.4-1.3,1.4c-0.1,0-0.3,0.1-0.3,0.1c-0.1,0.1-0.1,0.2-0.1,0.4l0.2,12.6
			C8.6,117.6,8.2,117.9,7.8,117.9C7.8,117.9,7.8,117.9,7.8,117.9"/>
	</defs>
	<clipPath id="SVGID_22_">
		<use xlink:href="#SVGID_21_"  style="overflow:visible;"/>
	</clipPath>
	<g class="st10">
		<defs>
			<rect id="SVGID_23_" x="-296.3" y="-702.1" width="1440" height="3440"/>
		</defs>
		<clipPath id="SVGID_24_">
			<use xlink:href="#SVGID_23_"  style="overflow:visible;"/>
		</clipPath>
		<rect x="1.7" y="69.9" class="st11" width="166.7" height="53"/>
	</g>
</g>
<g>
	<defs>
		<path id="SVGID_25_" d="M7.8,117.1h154c0.5,0,1,0.5,0.9,1c0,0.5-0.2,1.2-0.7,2c-0.6,1-1.7,1.6-2.9,1.6
			c-15.1,0.4-134.9-0.1-134.9-0.1S10.7,120.9,7.8,117.1"/>
	</defs>
	<clipPath id="SVGID_26_">
		<use xlink:href="#SVGID_25_"  style="overflow:visible;"/>
	</clipPath>
	<g class="st12">
		<defs>
			<rect id="SVGID_27_" x="-296.3" y="-702.1" width="1440" height="3440"/>
		</defs>
		<clipPath id="SVGID_28_">
			<use xlink:href="#SVGID_27_"  style="overflow:visible;"/>
		</clipPath>
		<rect x="2.8" y="112.1" class="st13" width="165" height="14.8"/>
	</g>
</g>
<g>
	<defs>
		<path id="SVGID_29_" d="M125.1,122.7c-40.2,0-100-0.2-100.8-0.2c0,0,0,0,0,0c-1.4-0.1-14-0.9-17.1-4.9c-0.2-0.2-0.2-0.6-0.1-0.8
			c0.1-0.3,0.4-0.5,0.7-0.5h154c0.5,0,0.9,0.2,1.3,0.6c0.3,0.3,0.5,0.8,0.5,1.3c0,0.8-0.3,1.6-0.8,2.4c-0.7,1.2-2.1,2-3.5,2
			C154.9,122.7,141.6,122.7,125.1,122.7 M24.3,120.9c2.2,0,120,0.5,134.9,0.1c0.9,0,1.7-0.5,2.2-1.2c0.3-0.6,0.5-1.1,0.6-1.7
			c0,0,0-0.1,0-0.1c0,0-0.1,0-0.1,0H10.1C13.8,119.9,21.2,120.7,24.3,120.9"/>
	</defs>
	<clipPath id="SVGID_30_">
		<use xlink:href="#SVGID_29_"  style="overflow:visible;"/>
	</clipPath>
	<g class="st14">
		<defs>
			<rect id="SVGID_31_" x="-296.3" y="-702.1" width="1440" height="3440"/>
		</defs>
		<clipPath id="SVGID_32_">
			<use xlink:href="#SVGID_31_"  style="overflow:visible;"/>
		</clipPath>
		<rect x="2" y="111.3" class="st15" width="166.6" height="16.4"/>
	</g>
</g>
<g>
	<defs>
		<path id="SVGID_33_" d="M144.5,118.4c0,7-5.7,12.8-12.6,12.8c-7,0-12.6-5.7-12.6-12.8s5.7-12.8,12.6-12.8
			C138.9,105.6,144.5,111.3,144.5,118.4"/>
	</defs>
	<clipPath id="SVGID_34_">
		<use xlink:href="#SVGID_33_"  style="overflow:visible;"/>
	</clipPath>
	<g class="st16">
		<defs>
			<rect id="SVGID_35_" x="-296.3" y="-702.1" width="1440" height="3440"/>
		</defs>
		<clipPath id="SVGID_36_">
			<use xlink:href="#SVGID_35_"  style="overflow:visible;"/>
		</clipPath>
		<rect x="114.3" y="100.6" class="st17" width="35.3" height="35.5"/>
	</g>
</g>
<g>
	<defs>
		<path id="SVGID_37_" d="M131.9,131.9c-7.4,0-13.4-6.1-13.4-13.6s6-13.6,13.4-13.6c7.4,0,13.4,6.1,13.4,13.6
			S139.3,131.9,131.9,131.9 M131.9,106.4c-6.5,0-11.8,5.4-11.8,11.9s5.3,11.9,11.8,11.9c6.5,0,11.8-5.4,11.8-11.9
			S138.4,106.4,131.9,106.4"/>
	</defs>
	<clipPath id="SVGID_38_">
		<use xlink:href="#SVGID_37_"  style="overflow:visible;"/>
	</clipPath>
	<g class="st18">
		<defs>
			<rect id="SVGID_39_" x="-296.3" y="-702.1" width="1440" height="3440"/>
		</defs>
		<clipPath id="SVGID_40_">
			<use xlink:href="#SVGID_39_"  style="overflow:visible;"/>
		</clipPath>
		<rect x="113.5" y="99.8" class="st19" width="36.9" height="37.1"/>
	</g>
</g>
<g>
	<defs>
		<path id="SVGID_41_" d="M51.9,118.4c0,7-5.7,12.8-12.6,12.8c-7,0-12.6-5.7-12.6-12.8s5.7-12.8,12.6-12.8
			C46.3,105.6,51.9,111.3,51.9,118.4"/>
	</defs>
	<clipPath id="SVGID_42_">
		<use xlink:href="#SVGID_41_"  style="overflow:visible;"/>
	</clipPath>
	<g class="st20">
		<defs>
			<rect id="SVGID_43_" x="-296.3" y="-702.1" width="1440" height="3440"/>
		</defs>
		<clipPath id="SVGID_44_">
			<use xlink:href="#SVGID_43_"  style="overflow:visible;"/>
		</clipPath>
		<rect x="21.7" y="100.6" class="st21" width="35.3" height="35.5"/>
	</g>
</g>
<g>
	<defs>
		<path id="SVGID_45_" d="M39.3,131.9c-7.4,0-13.4-6.1-13.4-13.6s6-13.6,13.4-13.6s13.4,6.1,13.4,13.6S46.7,131.9,39.3,131.9
			 M39.3,106.4c-6.5,0-11.8,5.4-11.8,11.9s5.3,11.9,11.8,11.9s11.8-5.4,11.8-11.9S45.8,106.4,39.3,106.4"/>
	</defs>
	<clipPath id="SVGID_46_">
		<use xlink:href="#SVGID_45_"  style="overflow:visible;"/>
	</clipPath>
	<g class="st22">
		<defs>
			<rect id="SVGID_47_" x="-296.3" y="-702.1" width="1440" height="3440"/>
		</defs>
		<clipPath id="SVGID_48_">
			<use xlink:href="#SVGID_47_"  style="overflow:visible;"/>
		</clipPath>
		<rect x="20.9" y="99.8" class="st23" width="36.9" height="37.1"/>
	</g>
</g>
<g>
	<defs>
		<path id="SVGID_49_" d="M161.8,117.9c-0.4,0-0.8-0.4-0.8-0.8v-4.9c0-0.4,0.4-0.8,0.8-0.8c0.4,0,0.8,0.4,0.8,0.8v4.9
			C162.6,117.6,162.3,117.9,161.8,117.9"/>
	</defs>
	<clipPath id="SVGID_50_">
		<use xlink:href="#SVGID_49_"  style="overflow:visible;"/>
	</clipPath>
	<g class="st24">
		<defs>
			<rect id="SVGID_51_" x="-296.3" y="-702.1" width="1440" height="3440"/>
		</defs>
		<clipPath id="SVGID_52_">
			<use xlink:href="#SVGID_51_"  style="overflow:visible;"/>
		</clipPath>
		<rect x="156" y="106.4" class="st25" width="11.6" height="16.5"/>
	</g>
</g>
<g>
	<defs>
		<path id="SVGID_53_" d="M161.8,107.4c-0.4,0-0.7-0.3-0.8-0.7c-1-5.1-3.5-6.3-3.5-6.3c-0.4-0.2-0.6-0.6-0.4-1
			c0.2-0.4,0.6-0.6,1-0.4c0.1,0.1,3.3,1.4,4.5,7.5c0.1,0.4-0.2,0.9-0.6,0.9C161.9,107.4,161.9,107.4,161.8,107.4"/>
	</defs>
	<clipPath id="SVGID_54_">
		<use xlink:href="#SVGID_53_"  style="overflow:visible;"/>
	</clipPath>
	<g class="st26">
		<defs>
			<rect id="SVGID_55_" x="-296.3" y="-702.1" width="1440" height="3440"/>
		</defs>
		<clipPath id="SVGID_56_">
			<use xlink:href="#SVGID_55_"  style="overflow:visible;"/>
		</clipPath>
		<rect x="152.1" y="93.9" class="st27" width="15.6" height="18.5"/>
	</g>
</g>
<g>
	<defs>
		<path id="SVGID_57_" d="M138.8,118.4c0,3.9-3.1,7-6.9,7c-3.8,0-6.9-3.1-6.9-7s3.1-7,6.9-7C135.7,111.4,138.8,114.5,138.8,118.4"/>
	</defs>
	<clipPath id="SVGID_58_">
		<use xlink:href="#SVGID_57_"  style="overflow:visible;"/>
	</clipPath>
	<g class="st28">
		<defs>
			<rect id="SVGID_59_" x="-296.3" y="-702.1" width="1440" height="3440"/>
		</defs>
		<clipPath id="SVGID_60_">
			<use xlink:href="#SVGID_59_"  style="overflow:visible;"/>
		</clipPath>
		<rect x="120" y="106.4" class="st29" width="23.8" height="24"/>
	</g>
</g>
<g>
	<defs>
		<path id="SVGID_61_" d="M131.9,126.1c-4.3,0-7.7-3.5-7.7-7.8s3.5-7.8,7.7-7.8c4.3,0,7.7,3.5,7.7,7.8S136.1,126.1,131.9,126.1
			 M131.9,112.2c-3.4,0-6.1,2.8-6.1,6.2s2.7,6.2,6.1,6.2c3.4,0,6.1-2.8,6.1-6.2S135.3,112.2,131.9,112.2"/>
	</defs>
	<clipPath id="SVGID_62_">
		<use xlink:href="#SVGID_61_"  style="overflow:visible;"/>
	</clipPath>
	<g class="st30">
		<defs>
			<rect id="SVGID_63_" x="-296.3" y="-702.1" width="1440" height="3440"/>
		</defs>
		<clipPath id="SVGID_64_">
			<use xlink:href="#SVGID_63_"  style="overflow:visible;"/>
		</clipPath>
		<rect x="119.2" y="105.6" class="st31" width="25.4" height="25.6"/>
	</g>
</g>
<g>
	<defs>
		<path id="SVGID_65_" d="M9.4,103c-0.4,0-0.8-0.4-0.8-0.8c0-0.4,0.3-0.8,0.8-0.8l3.4,0c0.5,0,0.9-0.2,1.2-0.6
			c0.3-0.4,0.3-0.9,0.2-1.3l-0.6-1.6c-0.4-1.1-1.5-1.8-2.6-1.8H9.4c-0.4,0-0.8-0.4-0.8-0.8s0.4-0.8,0.8-0.8h1.5
			c1.8,0,3.5,1.1,4.1,2.8l0.6,1.6c0.4,0.9,0.2,2-0.3,2.8c-0.6,0.8-1.5,1.3-2.5,1.3L9.4,103L9.4,103z"/>
	</defs>
	<clipPath id="SVGID_66_">
		<use xlink:href="#SVGID_65_"  style="overflow:visible;"/>
	</clipPath>
	<g class="st32">
		<defs>
			<rect id="SVGID_67_" x="-296.3" y="-702.1" width="1440" height="3440"/>
		</defs>
		<clipPath id="SVGID_68_">
			<use xlink:href="#SVGID_67_"  style="overflow:visible;"/>
		</clipPath>
		<rect x="3.6" y="89.3" class="st33" width="17.2" height="18.7"/>
	</g>
</g>
<g>
	<defs>
		<path id="SVGID_69_" d="M32.6,89.8c9,0.5,58.3,3,86.5,3.4c0.6,0,0.8-0.7,0.3-1.1c-4.8-3.2-17.5-11.4-31.6-12.1
			c-16.2-0.8-25.5-0.5-34.9,1.1c-8.6,1.5-16.1,3.9-20.7,7.6C31.9,89.1,32.1,89.8,32.6,89.8"/>
	</defs>
	<clipPath id="SVGID_70_">
		<use xlink:href="#SVGID_69_"  style="overflow:visible;"/>
	</clipPath>
	<g class="st34">
		<defs>
			<rect id="SVGID_71_" x="-296.3" y="-702.1" width="1440" height="3440"/>
		</defs>
		<clipPath id="SVGID_72_">
			<use xlink:href="#SVGID_71_"  style="overflow:visible;"/>
		</clipPath>
		<rect x="27.1" y="74.7" class="st35" width="97.6" height="23.6"/>
	</g>
</g>
<g>
	<defs>
		<path id="SVGID_73_" d="M119.2,94L119.2,94c-28.1-0.3-77-2.9-86.6-3.4c-0.6,0-1.1-0.4-1.2-1c-0.2-0.6,0-1.1,0.5-1.5
			c4.4-3.5,11.5-6.1,21.1-7.8c9.4-1.6,18.5-1.9,35-1.1c14.6,0.7,27.7,9.4,32,12.2c0.5,0.3,0.7,1,0.6,1.6
			C120.3,93.6,119.8,94,119.2,94z M33.3,89.1c10.7,0.6,57.5,3,85.1,3.3c-4.8-3.1-17-10.8-30.6-11.5c-16.4-0.8-25.4-0.5-34.7,1.1
			C44.1,83.5,37.4,85.9,33.3,89.1z M32.7,89L32.7,89L32.7,89z"/>
	</defs>
	<clipPath id="SVGID_74_">
		<use xlink:href="#SVGID_73_"  style="overflow:visible;"/>
	</clipPath>
	<g class="st36">
		<defs>
			<rect id="SVGID_75_" x="-296.3" y="-702.1" width="1440" height="3440"/>
		</defs>
		<clipPath id="SVGID_76_">
			<use xlink:href="#SVGID_75_"  style="overflow:visible;"/>
		</clipPath>
		<rect x="26.3" y="73.9" class="st37" width="99.2" height="25.2"/>
	</g>
</g>
<g>
	<defs>
		<path id="SVGID_77_" d="M46.2,118.4c0,3.9-3.1,7-6.9,7c-3.8,0-6.9-3.1-6.9-7s3.1-7,6.9-7C43.1,111.4,46.2,114.5,46.2,118.4"/>
	</defs>
	<clipPath id="SVGID_78_">
		<use xlink:href="#SVGID_77_"  style="overflow:visible;"/>
	</clipPath>
	<g class="st38">
		<defs>
			<rect id="SVGID_79_" x="-296.3" y="-702.1" width="1440" height="3440"/>
		</defs>
		<clipPath id="SVGID_80_">
			<use xlink:href="#SVGID_79_"  style="overflow:visible;"/>
		</clipPath>
		<rect x="27.4" y="106.4" class="st39" width="23.8" height="24"/>
	</g>
</g>
<g>
	<defs>
		<path id="SVGID_81_" d="M39.3,126.1c-4.3,0-7.7-3.5-7.7-7.8s3.5-7.8,7.7-7.8s7.7,3.5,7.7,7.8S43.6,126.1,39.3,126.1 M39.3,112.2
			c-3.4,0-6.1,2.8-6.1,6.2s2.7,6.2,6.1,6.2s6.1-2.8,6.1-6.2S42.7,112.2,39.3,112.2"/>
	</defs>
	<clipPath id="SVGID_82_">
		<use xlink:href="#SVGID_81_"  style="overflow:visible;"/>
	</clipPath>
	<g class="st40">
		<defs>
			<rect id="SVGID_83_" x="-296.3" y="-702.1" width="1440" height="3440"/>
		</defs>
		<clipPath id="SVGID_84_">
			<use xlink:href="#SVGID_83_"  style="overflow:visible;"/>
		</clipPath>
		<rect x="26.6" y="105.6" class="st41" width="25.4" height="25.6"/>
	</g>
</g>
<g>
	<defs>
		<path id="SVGID_85_" d="M83.6,92.7c-0.4,0-0.8-0.4-0.8-0.8v-12c0-0.4,0.4-0.8,0.8-0.8s0.8,0.4,0.8,0.8v12
			C84.4,92.4,84,92.7,83.6,92.7"/>
	</defs>
	<clipPath id="SVGID_86_">
		<use xlink:href="#SVGID_85_"  style="overflow:visible;"/>
	</clipPath>
	<g class="st42">
		<defs>
			<rect id="SVGID_87_" x="-296.3" y="-702.1" width="1440" height="3440"/>
		</defs>
		<clipPath id="SVGID_88_">
			<use xlink:href="#SVGID_87_"  style="overflow:visible;"/>
		</clipPath>
		<rect x="77.8" y="74.1" class="st43" width="11.6" height="23.6"/>
	</g>
</g>
<g>
	<defs>
		<path id="SVGID_89_" d="M46.9,91.1c-0.4,0-0.8-0.4-0.8-0.8v-7.5c0-0.4,0.4-0.8,0.8-0.8c0.4,0,0.8,0.4,0.8,0.8v7.5
			C47.7,90.7,47.3,91.1,46.9,91.1"/>
	</defs>
	<clipPath id="SVGID_90_">
		<use xlink:href="#SVGID_89_"  style="overflow:visible;"/>
	</clipPath>
	<g class="st44">
		<defs>
			<rect id="SVGID_91_" x="-296.3" y="-702.1" width="1440" height="3440"/>
		</defs>
		<clipPath id="SVGID_92_">
			<use xlink:href="#SVGID_91_"  style="overflow:visible;"/>
		</clipPath>
		<rect x="41.1" y="77" class="st45" width="11.6" height="19.1"/>
	</g>
</g>
<g>
	<defs>
		<path id="SVGID_93_" d="M55.9,114.2c-0.4,0-0.7-0.3-0.8-0.7c-1-8.5-8.4-10.6-8.5-10.6c-0.3-0.1-0.6-0.4-0.6-0.8v-8.9
			c0-0.4,0.4-0.8,0.8-0.8c0.4,0,0.8,0.4,0.8,0.8v8.3c2,0.7,8.1,3.7,9,11.8C56.8,113.7,56.5,114.1,55.9,114.2
			C56,114.2,56,114.2,55.9,114.2"/>
	</defs>
	<clipPath id="SVGID_94_">
		<use xlink:href="#SVGID_93_"  style="overflow:visible;"/>
	</clipPath>
	<g class="st46">
		<defs>
			<rect id="SVGID_95_" x="-296.3" y="-702.1" width="1440" height="3440"/>
		</defs>
		<clipPath id="SVGID_96_">
			<use xlink:href="#SVGID_95_"  style="overflow:visible;"/>
		</clipPath>
		<rect x="41.1" y="87.4" class="st47" width="20.6" height="31.7"/>
	</g>
</g>
<g>
	<defs>
		<path id="SVGID_97_" d="M83.6,113.7c-0.4,0-0.8-0.4-0.8-0.8V95.4c0-0.4,0.4-0.8,0.8-0.8s0.8,0.4,0.8,0.8v17.4
			C84.4,113.3,84,113.7,83.6,113.7"/>
	</defs>
	<clipPath id="SVGID_98_">
		<use xlink:href="#SVGID_97_"  style="overflow:visible;"/>
	</clipPath>
	<g class="st48">
		<defs>
			<rect id="SVGID_99_" x="-296.3" y="-702.1" width="1440" height="3440"/>
		</defs>
		<clipPath id="SVGID_100_">
			<use xlink:href="#SVGID_99_"  style="overflow:visible;"/>
		</clipPath>
		<rect x="77.8" y="89.6" class="st49" width="11.6" height="29.1"/>
	</g>
</g>
<g>
	<defs>
		<path id="SVGID_101_" d="M128.8,103.5c-0.3,0-0.7-0.2-0.8-0.6c0,0-0.8-2.6-4.5-5.8c-0.3-0.3-0.4-0.8-0.1-1.1
			c0.3-0.3,0.8-0.4,1.1-0.1c4.1,3.6,5,6.4,5,6.6c0.1,0.4-0.1,0.9-0.5,1C129,103.4,128.9,103.5,128.8,103.5"/>
	</defs>
	<clipPath id="SVGID_102_">
		<use xlink:href="#SVGID_101_"  style="overflow:visible;"/>
	</clipPath>
	<g class="st50">
		<defs>
			<rect id="SVGID_103_" x="-296.3" y="-702.1" width="1440" height="3440"/>
		</defs>
		<clipPath id="SVGID_104_">
			<use xlink:href="#SVGID_103_"  style="overflow:visible;"/>
		</clipPath>
		<rect x="118.2" y="90.7" class="st51" width="16.4" height="17.8"/>
	</g>
</g>
<g>
	<defs>
		<path id="SVGID_105_" d="M54,66.1c0,14.4-11.8,26.1-26.3,26.1S1.4,80.5,1.4,66.1S13.2,40,27.7,40S54,51.6,54,66.1"/>
	</defs>
	<clipPath id="SVGID_106_">
		<use xlink:href="#SVGID_105_"  style="overflow:visible;"/>
	</clipPath>
	<g class="st52">
		<defs>
			<rect id="SVGID_107_" x="-296.3" y="-702.1" width="1440" height="3440"/>
		</defs>
		<clipPath id="SVGID_108_">
			<use xlink:href="#SVGID_107_"  style="overflow:visible;"/>
		</clipPath>
		<rect x="-3.6" y="35" class="st53" width="62.5" height="62.2"/>
	</g>
</g>
<g>
	<defs>
		<path id="SVGID_109_" d="M27.7,93.3c-14.9,0-27-12.1-27-27c0-14.9,12.1-27,27-27c14.9,0,27,12.1,27,27
			C54.7,81.1,42.6,93.3,27.7,93.3 M27.7,41.7c-13.5,0-24.5,10.9-24.5,24.4c0,13.4,11,24.4,24.5,24.4c13.5,0,24.5-10.9,24.5-24.4
			C52.2,52.6,41.2,41.7,27.7,41.7"/>
	</defs>
	<clipPath id="SVGID_110_">
		<use xlink:href="#SVGID_109_"  style="overflow:visible;"/>
	</clipPath>
	<g class="st54">
		<defs>
			<rect id="SVGID_111_" x="-296.3" y="-702.1" width="1440" height="3440"/>
		</defs>
		<clipPath id="SVGID_112_">
			<use xlink:href="#SVGID_111_"  style="overflow:visible;"/>
		</clipPath>
		<rect x="-4.3" y="34.3" class="st55" width="64" height="64"/>
	</g>
</g>
<g>
	<defs>
		<path id="SVGID_113_" d="M27.7,88.7c-12.6,0-22.8-10.2-22.8-22.7c0-12.5,10.2-22.7,22.8-22.7c12.6,0,22.8,10.2,22.8,22.7
			C50.5,78.6,40.3,88.7,27.7,88.7 M27.7,45.1c-11.6,0-21.1,9.4-21.1,21c0,11.6,9.5,21,21.1,21c11.6,0,21.1-9.4,21.1-21
			C48.8,54.5,39.3,45.1,27.7,45.1"/>
	</defs>
	<clipPath id="SVGID_114_">
		<use xlink:href="#SVGID_113_"  style="overflow:visible;"/>
	</clipPath>
	<g class="st56">
		<defs>
			<rect id="SVGID_115_" x="-296.3" y="-702.1" width="1440" height="3440"/>
		</defs>
		<clipPath id="SVGID_116_">
			<use xlink:href="#SVGID_115_"  style="overflow:visible;"/>
		</clipPath>
		<rect x="-0.1" y="38.4" class="st57" width="55.6" height="55.4"/>
	</g>
</g>
<g>
	<defs>
		<path id="SVGID_117_" d="M29.1,80h-2.9v-3.3c-1.8-0.1-3.7-0.7-4.8-1.5l-0.3-0.2l1.1-3l0.5,0.3c0.6,0.4,2.3,1.3,4.5,1.3
			c2,0,3.5-1.1,3.5-2.8c0-1.5-1-2.5-3.4-3.5c-3-1.1-5.7-2.7-5.7-6.1c0-2.8,1.9-5,4.9-5.6v-3.3h2.9v3.2c1.5,0.1,2.8,0.5,4.1,1.2
			l0.3,0.2l-1.1,3l-0.4-0.2c-0.6-0.4-1.9-1.1-3.9-1.1c-2.2,0-3,1.2-3,2.4c0,1.3,0.9,2.1,3.8,3.3c3.7,1.5,5.4,3.4,5.4,6.3
			c0,2.9-2.1,5.3-5.2,5.9V80z"/>
	</defs>
	<clipPath id="SVGID_118_">
		<use xlink:href="#SVGID_117_"  style="overflow:visible;"/>
	</clipPath>
	<g class="st58">
		<defs>
			<rect id="SVGID_119_" x="-296.3" y="-702.1" width="1440" height="3440"/>
		</defs>
		<clipPath id="SVGID_120_">
			<use xlink:href="#SVGID_119_"  style="overflow:visible;"/>
		</clipPath>
		<rect x="16.1" y="47.4" class="st59" width="23.2" height="37.6"/>
	</g>
</g>
</svg>
