<?xml version="1.0" encoding="UTF-8"?>
<svg width="15px" height="15px" viewBox="0 0 15 15" version="1.1" xmlns="http://www.w3.org/2000/svg" xmlns:xlink="http://www.w3.org/1999/xlink">
    <!-- Generator: Sketch 50.2 (55047) - http://www.bohemiancoding.com/sketch -->
    <title>Shape</title>
    <desc>Created with Sketch.</desc>
    <defs></defs>
    <g id="Page-1" stroke="none" stroke-width="1" fill="none" fill-rule="evenodd">
        <g id="wunder_the_app" transform="translate(-1023.000000, -3175.000000)" fill="#FFFFFF">
            <g id="Footer" transform="translate(0.000000, 3100.000000)">
                <g id="Social-Media" transform="translate(954.000000, 52.000000)">
                    <path d="M69.3783514,27.8098348 L72.3019755,27.8098348 L72.3019755,37.9990396 L69.3783514,37.9990396 L69.3783514,27.8098348 Z M70.7656397,26.5353438 L70.7444732,26.5353438 C69.6861477,26.5353438 69,25.7564349 69,24.770073 C69,23.7635421 69.7064323,23 70.7859243,23 C71.8645343,23 72.5277516,23.7616212 72.5489182,24.7671917 C72.5489182,25.7535536 71.8645343,26.5353438 70.7656397,26.5353438 L70.7656397,26.5353438 Z M84,38 L80.6847954,38 L80.6847954,32.7262774 C80.6847954,31.3461391 80.1662159,30.4049174 79.0258702,30.4049174 C78.1536336,30.4049174 77.6685677,31.0397618 77.4427916,31.6534768 C77.3581256,31.8724549 77.3713547,32.1788321 77.3713547,32.4861698 L77.3713547,38 L74.0870179,38 C74.0870179,38 74.1293509,28.6588552 74.0870179,27.8098348 L77.3713547,27.8098348 L77.3713547,29.4089512 C77.565381,28.709758 78.6148871,27.7118709 80.2896872,27.7118709 C82.3675329,27.7118709 84,29.1784479 84,32.3334614 L84,38 L84,38 Z" id="Shape"></path>
                </g>
            </g>
        </g>
    </g>
</svg>