<?xml version="1.0" encoding="UTF-8"?>
<svg width="44px" height="44px" viewBox="0 0 44 44" version="1.1" xmlns="http://www.w3.org/2000/svg" xmlns:xlink="http://www.w3.org/1999/xlink">
    <!-- Generator: Sketch 50.2 (55047) - http://www.bohemiancoding.com/sketch -->
    <title>Group 14</title>
    <desc>Created with Sketch.</desc>
    <defs></defs>
    <g id="Page-3" stroke="none" stroke-width="1" fill="none" fill-rule="evenodd">
        <g id="wunder_landingpage_desktop_03" transform="translate(-566.000000, -2338.000000)">
            <g id="Upcoming-Speakers" transform="translate(188.000000, 1941.000000)">
                <g id="Group" transform="translate(0.000000, 169.000000)">
                    <g id="Image">
                        <g id="Group-14" transform="translate(383.000000, 233.000000)">
                            <circle id="Oval-2" stroke="#FAFAFA" stroke-width="5" fill="#334146" cx="17" cy="17" r="19.5"></circle>
                            <path d="M10.9175532,12.4971291 C12.1134014,12.4971291 12.8581841,11.719924 12.8581841,10.7487115 C12.8357057,9.75545278 12.1134014,9 10.9400315,9 C9.76696132,9 9,9.75545278 9,10.7487115 C9,11.719924 9.74418326,12.4971291 10.8950748,12.4971291 L10.9175532,12.4971291 Z" id="Fill-4" fill="#FFFFFF"></path>
                            <polygon id="Fill-4" fill="#FFFFFF" points="9.20260487 24 12.6325014 24 12.6325014 13.8789904 9.20260487 13.8789904"></polygon>
                            <path d="M14.5301837,23.9997942 L17.9600803,23.9997942 L17.9600803,18.347714 C17.9600803,18.045239 17.9825587,17.7430579 18.0727718,17.5267103 C18.3209328,16.922642 18.8852892,16.2965275 19.8326768,16.2965275 C21.0740812,16.2965275 21.5704031,17.2245292 21.5704031,18.585226 L21.5704031,23.9997942 L25,23.9997942 L25,18.1966235 C25,15.087803 23.3078298,13.6412726 21.0513031,13.6412726 C19.2008853,13.6412726 18.3886675,14.6556958 17.9373023,15.3467734 L17.9600803,15.3467734 L17.9600803,13.8787846 L14.5304835,13.8787846 C14.5751404,14.8285387 14.5304835,23.9997942 14.5304835,23.9997942 L14.5301837,23.9997942 Z" id="Fill-6" fill="#FFFFFF"></path>
                        </g>
                    </g>
                </g>
            </g>
        </g>
    </g>
</svg>