<svg xmlns="http://www.w3.org/2000/svg" viewBox="0 0 430.42 466.69"><defs><style>.cls-1{fill:#fafafa;}.cls-1,.cls-2,.cls-4,.cls-7{stroke:#4d4d4d;stroke-width:7px;}.cls-1,.cls-2,.cls-3,.cls-4,.cls-7{stroke-linecap:round;stroke-linejoin:round;}.cls-2,.cls-3{fill:#ededed;}.cls-3{stroke:#fff;stroke-width:5px;}.cls-4,.cls-9{fill:none;}.cls-5{fill:#727272;}.cls-6,.cls-7{fill:#06a0e3;}.cls-8{fill:#cecece;}</style></defs><title>Date&amp;amp;Place_Padding</title><g id="Layer_2" data-name="Layer 2"><g id="Layer_1-2" data-name="Layer 1"><polyline class="cls-1" points="310.55 170.09 310.55 462.34 3.5 462.34 3.5 170.09"/><rect class="cls-2" x="14.6" y="158.99" width="307.05" height="292.25"/><rect class="cls-3" x="17.06" y="256.41" width="43.42" height="43.42"/><rect class="cls-3" x="60.49" y="256.41" width="43.42" height="43.42"/><rect class="cls-3" x="103.91" y="256.41" width="43.42" height="43.42"/><rect class="cls-3" x="147.33" y="256.41" width="43.42" height="43.42"/><rect class="cls-3" x="190.76" y="256.41" width="43.42" height="43.42"/><rect class="cls-3" x="234.18" y="256.41" width="43.42" height="43.42"/><rect class="cls-3" x="277.6" y="256.41" width="43.42" height="43.42"/><rect class="cls-3" x="17.06" y="299.57" width="43.42" height="43.42"/><rect class="cls-3" x="60.49" y="299.57" width="43.42" height="43.42"/><rect class="cls-3" x="103.91" y="299.57" width="43.42" height="43.42"/><rect class="cls-3" x="147.33" y="299.57" width="43.42" height="43.42"/><rect class="cls-3" x="190.76" y="299.57" width="43.42" height="43.42"/><rect class="cls-3" x="234.18" y="299.57" width="43.42" height="43.42"/><rect class="cls-3" x="277.6" y="299.57" width="43.42" height="43.42"/><rect class="cls-3" x="17.06" y="342.73" width="43.42" height="43.42"/><rect class="cls-3" x="60.49" y="342.73" width="43.42" height="43.42"/><rect class="cls-3" x="103.91" y="342.73" width="43.42" height="43.42"/><rect class="cls-3" x="147.33" y="342.73" width="43.42" height="43.42"/><rect class="cls-3" x="190.76" y="342.73" width="43.42" height="43.42"/><rect class="cls-3" x="234.18" y="342.73" width="43.42" height="43.42"/><rect class="cls-3" x="277.6" y="342.73" width="43.42" height="43.42"/><rect class="cls-3" x="17.06" y="385.89" width="43.42" height="43.42"/><rect class="cls-3" x="60.49" y="385.89" width="43.42" height="43.42"/><rect class="cls-3" x="103.91" y="385.89" width="43.42" height="43.42"/><rect class="cls-3" x="147.33" y="385.89" width="43.42" height="43.42"/><rect class="cls-3" x="190.76" y="385.89" width="43.42" height="43.42"/><rect class="cls-3" x="234.18" y="385.89" width="43.42" height="43.42"/><rect class="cls-3" x="277.6" y="385.89" width="43.42" height="43.42"/><rect class="cls-4" x="14.6" y="158.99" width="307.05" height="292.25"/><rect class="cls-1" x="14.6" y="158.99" width="307.05" height="97.42"/><circle class="cls-5" cx="87.04" cy="208.32" r="19.73"/><circle class="cls-5" cx="249.66" cy="208.32" r="19.73"/><rect class="cls-1" x="76.56" y="122" width="20.96" height="95.57" rx="10.48" ry="10.48"/><rect class="cls-1" x="239.18" y="122" width="20.96" height="95.57" rx="10.48" ry="10.48"/><line class="cls-1" x1="14.6" y1="158.99" x2="3.5" y2="170.09"/><line class="cls-1" x1="14.6" y1="256.41" x2="3.81" y2="267.2"/><polygon class="cls-6" points="153.5 338.02 137.69 322.33 153.38 306.53 141.22 294.46 125.53 310.27 109.73 294.58 97.66 306.74 113.47 322.43 97.78 338.23 109.94 350.3 125.63 334.49 141.43 350.18 153.5 338.02"/><circle class="cls-1" cx="348.33" cy="312.74" r="47.39"/><path class="cls-7" d="M347.81,235.74a79.11,79.11,0,0,0-79.12,79.11c0,43.69,79.12,148.34,79.12,148.34s79.11-104.65,79.11-148.34A79.11,79.11,0,0,0,347.81,235.74Zm0,118.75a41.82,41.82,0,1,1,41.81-41.81A41.81,41.81,0,0,1,347.81,354.49Z"/><rect class="cls-8" x="128.66" y="190.44" width="80.15" height="13.56"/><rect class="cls-8" x="128.66" y="211.4" width="55.57" height="13.56"/><rect class="cls-9" x="3.01" width="424" height="122"/></g></g></svg>