<?xml version="1.0" encoding="UTF-8"?>
<svg width="165px" height="38px" viewBox="0 0 165 38" version="1.1" xmlns="http://www.w3.org/2000/svg" xmlns:xlink="http://www.w3.org/1999/xlink">
    <!-- Generator: Sketch 50.2 (55047) - http://www.bohemiancoding.com/sketch -->
    <title>Button - App Store</title>
    <desc>Created with Sketch.</desc>
    <defs></defs>
    <g id="Page-1" stroke="none" stroke-width="1" fill="none" fill-rule="evenodd">
        <g id="wunder_the_app" transform="translate(-954.000000, -3256.000000)">
            <g id="Footer" transform="translate(0.000000, 3100.000000)">
                <g id="Button---App-Store" transform="translate(954.000000, 156.000000)">
                    <rect id="Button" fill="#000000" opacity="0.300000012" x="0" y="0" width="165" height="38" rx="2"></rect>
                    <path d="M50.5,16.4117404 C52.5700001,16.4117404 53.8700001,14.9355845 53.8700001,13.0903897 C53.8700001,11.2651429 52.5700001,9.75906494 50.5,9.75906494 L48.37,9.75906494 L48.37,16.4117404 L50.5,16.4117404 Z M50.5,15.893091 L48.94,15.893091 L48.94,10.2777143 L50.5,10.2777143 C52.2700001,10.2777143 53.2700001,11.5344416 53.2700001,13.0903897 C53.2700001,14.6463377 52.2600001,15.893091 50.5,15.893091 L50.5,15.893091 Z M58.2800002,16.5314287 C60.2300002,16.5314287 61.5200002,15.0353248 61.5200002,13.0903897 C61.5200002,11.1454546 60.2300002,9.64935065 58.2800002,9.64935065 C56.3200001,9.64935065 55.0400001,11.1454546 55.0400001,13.0903897 C55.0400001,15.0353248 56.3200001,16.5314287 58.2800002,16.5314287 L58.2800002,16.5314287 Z M58.2800002,16.0127793 C56.6700001,16.0127793 55.6400001,14.7660261 55.6400001,13.0903897 C55.6400001,11.4047792 56.6700001,10.168 58.2800002,10.168 C59.8800002,10.168 60.9200002,11.4047792 60.9200002,13.0903897 C60.9200002,14.7660261 59.8800002,16.0127793 58.2800002,16.0127793 L58.2800002,16.0127793 Z M68.6800003,16.4117404 L70.5800003,9.75906494 L69.9400003,9.75906494 L68.3300003,15.6138183 L66.7000003,9.75906494 L66.1800003,9.75906494 L64.5400003,15.6138183 L62.9300002,9.75906494 L62.2900002,9.75906494 L64.2000002,16.4117404 L64.8400003,16.4117404 L66.4400003,10.6966234 L68.0400003,16.4117404 L68.6800003,16.4117404 Z M76.9300004,16.4117404 L76.9300004,9.75906494 L76.3600004,9.75906494 L76.3600004,15.3943897 L72.1800004,9.75906494 L71.6000004,9.75906494 L71.6000004,16.4117404 L72.1700004,16.4117404 L72.1700004,10.6966234 L76.3700004,16.4117404 L76.9300004,16.4117404 Z M82.2600005,16.4117404 L82.2600005,15.893091 L79.0300005,15.893091 L79.0300005,9.75906494 L78.4500005,9.75906494 L78.4500005,16.4117404 L82.2600005,16.4117404 Z M86.4200006,16.5314287 C88.3700006,16.5314287 89.6600006,15.0353248 89.6600006,13.0903897 C89.6600006,11.1454546 88.3700006,9.64935065 86.4200006,9.64935065 C84.4600006,9.64935065 83.1800005,11.1454546 83.1800005,13.0903897 C83.1800005,15.0353248 84.4600006,16.5314287 86.4200006,16.5314287 L86.4200006,16.5314287 Z M86.4200006,16.0127793 C84.8100006,16.0127793 83.7800005,14.7660261 83.7800005,13.0903897 C83.7800005,11.4047792 84.8100006,10.168 86.4200006,10.168 C88.0200006,10.168 89.0600006,11.4047792 89.0600006,13.0903897 C89.0600006,14.7660261 88.0200006,16.0127793 86.4200006,16.0127793 L86.4200006,16.0127793 Z M96.5600007,16.4117404 L93.8300007,9.75906494 L93.1200007,9.75906494 L90.3900006,16.4117404 L91.0500006,16.4117404 L91.7100007,14.7760001 L95.2400007,14.7760001 L95.9000007,16.4117404 L96.5600007,16.4117404 Z M95.0500007,14.2573507 L91.9000007,14.2573507 L93.4800007,10.3674805 L95.0500007,14.2573507 Z M99.6700008,16.4117404 C101.740001,16.4117404 103.040001,14.9355845 103.040001,13.0903897 C103.040001,11.2651429 101.740001,9.75906494 99.6700008,9.75906494 L97.5400007,9.75906494 L97.5400007,16.4117404 L99.6700008,16.4117404 Z M99.6700008,15.893091 L98.1100008,15.893091 L98.1100008,10.2777143 L99.6700008,10.2777143 C101.440001,10.2777143 102.440001,11.5344416 102.440001,13.0903897 C102.440001,14.6463377 101.430001,15.893091 99.6700008,15.893091 L99.6700008,15.893091 Z M107.620001,16.4117404 L107.620001,13.2599481 L111.210001,13.2599481 L111.210001,12.7412987 L107.620001,12.7412987 L107.620001,10.2777143 L111.280001,10.2777143 L111.280001,9.75906494 L107.050001,9.75906494 L107.050001,16.4117404 L107.620001,16.4117404 Z M117.070001,16.4117404 L115.140001,13.619013 C116.140001,13.5791169 116.990001,12.9108572 116.990001,11.704 C116.990001,10.4871688 116.110001,9.75906494 114.960001,9.75906494 L112.470001,9.75906494 L112.470001,16.4117404 L113.040001,16.4117404 L113.040001,13.6589092 L114.510001,13.6589092 L116.380001,16.4117404 L117.070001,16.4117404 Z M114.910001,13.1402598 L113.040001,13.1402598 L113.040001,10.2777143 L114.910001,10.2777143 C115.800001,10.2777143 116.390001,10.8661818 116.390001,11.704 C116.390001,12.5418182 115.800001,13.1402598 114.910001,13.1402598 L114.910001,13.1402598 Z M121.400001,16.5314287 C123.350001,16.5314287 124.640001,15.0353248 124.640001,13.0903897 C124.640001,11.1454546 123.350001,9.64935065 121.400001,9.64935065 C119.440001,9.64935065 118.160001,11.1454546 118.160001,13.0903897 C118.160001,15.0353248 119.440001,16.5314287 121.400001,16.5314287 L121.400001,16.5314287 Z M121.400001,16.0127793 C119.790001,16.0127793 118.760001,14.7660261 118.760001,13.0903897 C118.760001,11.4047792 119.790001,10.168 121.400001,10.168 C123.000001,10.168 124.040001,11.4047792 124.040001,13.0903897 C124.040001,14.7660261 123.000001,16.0127793 121.400001,16.0127793 L121.400001,16.0127793 Z M132.290001,16.4117404 L132.290001,9.75906494 L131.430001,9.75906494 L129.170001,15.2946494 L126.900001,9.75906494 L126.050001,9.75906494 L126.050001,16.4117404 L126.620001,16.4117404 L126.620001,10.4771948 L129.060001,16.4117404 L129.280001,16.4117404 L131.710001,10.4771948 L131.710001,16.4117404 L132.290001,16.4117404 Z M54.4200001,28.2558962 L51.8500001,21.6032208 L50.07,21.6032208 L47.5,28.2558962 L49.11,28.2558962 L49.53,27.1288313 L52.3900001,27.1288313 L52.8100001,28.2558962 L54.4200001,28.2558962 Z M52.0000001,25.882078 L49.92,25.882078 L50.9600001,23.0195325 L52.0000001,25.882078 Z M56.4600001,28.2558962 L56.4600001,25.882078 L58.1600002,25.882078 C59.6000002,25.882078 60.4000002,24.9046234 60.4000002,23.7476364 C60.4000002,22.5806753 59.6100002,21.6032208 58.1600002,21.6032208 L55.0400001,21.6032208 L55.0400001,28.2558962 L56.4600001,28.2558962 Z M57.9600002,24.6353247 L56.4600001,24.6353247 L56.4600001,22.849974 L57.9600002,22.849974 C58.5200002,22.849974 58.9500002,23.1890909 58.9500002,23.7476364 C58.9500002,24.2962078 58.5200002,24.6353247 57.9600002,24.6353247 L57.9600002,24.6353247 Z M62.7100002,28.2558962 L62.7100002,25.882078 L64.4100003,25.882078 C65.8500003,25.882078 66.6500003,24.9046234 66.6500003,23.7476364 C66.6500003,22.5806753 65.8600003,21.6032208 64.4100003,21.6032208 L61.2900002,21.6032208 L61.2900002,28.2558962 L62.7100002,28.2558962 Z M64.2100002,24.6353247 L62.7100002,24.6353247 L62.7100002,22.849974 L64.2100002,22.849974 C64.7700003,22.849974 65.2000003,23.1890909 65.2000003,23.7476364 C65.2000003,24.2962078 64.7700003,24.6353247 64.2100002,24.6353247 L64.2100002,24.6353247 Z M71.7300004,28.2558962 L71.7300004,27.0091429 L68.9100003,27.0091429 L68.9100003,21.6032208 L67.4800003,21.6032208 L67.4800003,28.2558962 L71.7300004,28.2558962 Z M77.4100004,28.2558962 L77.4100004,27.0091429 L74.1100004,27.0091429 L74.1100004,25.493091 L77.3400004,25.493091 L77.3400004,24.2463377 L74.1100004,24.2463377 L74.1100004,22.849974 L77.4100004,22.849974 L77.4100004,21.6032208 L72.6900004,21.6032208 L72.6900004,28.2558962 L77.4100004,28.2558962 Z M87.3100006,28.2558962 L84.7400006,21.6032208 L82.9600005,21.6032208 L80.3900005,28.2558962 L82.0000005,28.2558962 L82.4200005,27.1288313 L85.2800006,27.1288313 L85.7000006,28.2558962 L87.3100006,28.2558962 Z M84.8900006,25.882078 L82.8100005,25.882078 L83.8500005,23.0195325 L84.8900006,25.882078 Z M89.3500006,28.2558962 L89.3500006,25.882078 L91.0500006,25.882078 C92.4900007,25.882078 93.2900007,24.9046234 93.2900007,23.7476364 C93.2900007,22.5806753 92.5000007,21.6032208 91.0500006,21.6032208 L87.9300006,21.6032208 L87.9300006,28.2558962 L89.3500006,28.2558962 Z M90.8500006,24.6353247 L89.3500006,24.6353247 L89.3500006,22.849974 L90.8500006,22.849974 C91.4100007,22.849974 91.8400007,23.1890909 91.8400007,23.7476364 C91.8400007,24.2962078 91.4100007,24.6353247 90.8500006,24.6353247 L90.8500006,24.6353247 Z M95.6000007,28.2558962 L95.6000007,25.882078 L97.3000007,25.882078 C98.7400008,25.882078 99.5400008,24.9046234 99.5400008,23.7476364 C99.5400008,22.5806753 98.7500008,21.6032208 97.3000007,21.6032208 L94.1800007,21.6032208 L94.1800007,28.2558962 L95.6000007,28.2558962 Z M97.1000007,24.6353247 L95.6000007,24.6353247 L95.6000007,22.849974 L97.1000007,22.849974 C97.6600007,22.849974 98.0900008,23.1890909 98.0900008,23.7476364 C98.0900008,24.2962078 97.6600007,24.6353247 97.1000007,24.6353247 L97.1000007,24.6353247 Z M105.380001,28.3755845 C107.170001,28.3755845 108.050001,27.4579741 108.050001,26.2411429 C108.050001,23.7576104 104.220001,24.4657663 104.220001,23.4184935 C104.220001,23.0195325 104.560001,22.7602078 105.160001,22.7602078 C105.840001,22.7602078 106.560001,22.9896104 107.100001,23.4883117 L107.890001,22.4310649 C107.230001,21.8226494 106.350001,21.5034805 105.290001,21.5034805 C103.720001,21.5034805 102.760001,22.4210909 102.760001,23.5282078 C102.760001,26.0316884 106.600001,25.2237923 106.600001,26.3807793 C106.600001,26.7697663 106.230001,27.1188572 105.440001,27.1188572 C104.520001,27.1188572 103.790001,26.6999481 103.320001,26.2112208 L102.540001,27.3183377 C103.170001,27.9467014 104.090001,28.3755845 105.380001,28.3755845 L105.380001,28.3755845 Z M111.970001,28.2558962 L111.970001,22.849974 L113.910001,22.849974 L113.910001,21.6032208 L108.590001,21.6032208 L108.590001,22.849974 L110.540001,22.849974 L110.540001,28.2558962 L111.970001,28.2558962 Z M117.990001,28.3755845 C120.000001,28.3755845 121.470001,26.9393248 121.470001,24.9345455 C121.470001,22.9297663 120.000001,21.4935065 117.990001,21.4935065 C115.970001,21.4935065 114.500001,22.9297663 114.500001,24.9345455 C114.500001,26.9393248 115.970001,28.3755845 117.990001,28.3755845 L117.990001,28.3755845 Z M117.990001,27.1188572 C116.750001,27.1188572 115.960001,26.1713247 115.960001,24.9345455 C115.960001,23.6877922 116.750001,22.7502338 117.990001,22.7502338 C119.220001,22.7502338 120.010001,23.6877922 120.010001,24.9345455 C120.010001,26.1713247 119.220001,27.1188572 117.990001,27.1188572 L117.990001,27.1188572 Z M127.880001,28.2558962 L126.370001,25.7224936 C127.090001,25.5529351 127.840001,24.9145975 127.840001,23.7476364 C127.840001,22.5108572 126.980001,21.6032208 125.590001,21.6032208 L122.470001,21.6032208 L122.470001,28.2558962 L123.890001,28.2558962 L123.890001,25.892052 L124.930001,25.892052 L126.240001,28.2558962 L127.880001,28.2558962 Z M125.390001,24.6452987 L123.890001,24.6452987 L123.890001,22.849974 L125.390001,22.849974 C125.950001,22.849974 126.380001,23.1890909 126.380001,23.7376624 C126.380001,24.3061819 125.950001,24.6452987 125.390001,24.6452987 L125.390001,24.6452987 Z M133.620001,28.2558962 L133.620001,27.0091429 L130.320001,27.0091429 L130.320001,25.493091 L133.550001,25.493091 L133.550001,24.2463377 L130.320001,24.2463377 L130.320001,22.849974 L133.620001,22.849974 L133.620001,21.6032208 L128.900001,21.6032208 L128.900001,28.2558962 L133.620001,28.2558962 Z" id="DOWNLOAD-FROM" fill="#FFFFFF"></path>
                    <path d="M27.2235961,12.3150579 C26.5082298,13.2290584 25.2754741,13.9372624 24.084301,13.9006438 C23.8668208,12.7222568 24.4254247,11.5098146 25.1017844,10.6924871 C25.8469576,9.79203541 27.1235037,9.10104218 28.2149525,9.02597403 C28.3989459,10.257458 27.8914921,11.4618442 27.2235961,12.3150579 Z M33.125,23.8894691 C32.6466172,24.9444513 32.4177294,25.4150005 31.8017196,26.3469442 C30.9428384,27.6483697 29.731794,29.2683772 28.2315119,29.2826584 C26.8975598,29.2947426 26.5553321,28.4188254 24.7455732,28.4287124 C22.9361822,28.4389656 22.5582598,29.2976721 21.2246757,29.2855879 C19.7240257,29.272039 18.5762749,27.8087593 17.7170258,26.5076999 C15.3140722,22.8689084 15.0631052,18.5984457 16.5449879,16.3280917 C17.5981661,14.7146756 19.2592584,13.7706477 20.8213622,13.7706477 C22.4121691,13.7706477 23.4119891,14.6381427 24.7268059,14.6381427 C26.002616,14.6381427 26.7798041,13.769183 28.618634,13.769183 C30.00852,13.769183 31.4812031,14.5224279 32.5307014,15.8238534 C29.092233,17.6987264 29.6508369,22.5832832 33.125,23.8894691 Z" id="Icon---Apple" fill="#FFFFFF"></path>
                </g>
            </g>
        </g>
    </g>
</svg>