<svg xmlns="http://www.w3.org/2000/svg" viewBox="0 0 530.7 469.82"><defs><style>.cls-1{fill:#4d4e4e;}.cls-2{fill:#ededed;}.cls-3{fill:#c1c1c1;}.cls-4{fill:#b7b7b7;}.cls-5{fill:#f5f5f4;}.cls-6{fill:#a0a0a0;}.cls-7{fill:#c4c4c4;}.cls-8{fill:#afafaf;}.cls-9{fill:#a5a5a5;}.cls-10{fill:#7c7c7c;}.cls-11{fill:#3a3a3a;}.cls-12{fill:#434343;}.cls-13{fill:#6d6d6d;}.cls-14{fill:#848484;}.cls-15{fill:#eaeaea;}.cls-16{fill:#ccc;}.cls-17{fill:#8e5b38;}.cls-18{fill:#9e6740;}.cls-19{fill:#06a0e3;}.cls-20{fill:#30302f;}.cls-21{fill:#ccc8c4;}.cls-22{fill:#bfbfbf;}.cls-23{fill:#4c4c4c;}.cls-24{fill:#424242;}</style></defs><title>Networking</title><g id="Layer_2" data-name="Layer 2"><g id="Layer_1-2" data-name="Layer 1"><path class="cls-1" d="M432.29,367.64a97.89,97.89,0,0,1-45.06-.28v-1.85a95.42,95.42,0,0,0,45.06.28Z"/><path class="cls-2" d="M432.29,373.69v6.13c0,7.43-3.88,22.16-22,22.41h-.57c-18.4-.05-22.44-17.1-22.44-22.53h-.1V367.36a97.89,97.89,0,0,0,45.06.28Z"/><path class="cls-3" d="M410.35,370.13a97.31,97.31,0,0,1-23.12-2.77v5.06c9.86,3,23.85,5.09,45.06.46v-5.24A96.83,96.83,0,0,1,410.35,370.13Z"/><path class="cls-2" d="M527.74,231.41v21.34a11.89,11.89,0,0,1-11.86,11.85H505.21a11.89,11.89,0,0,1-11.86-11.85V231.41a11.9,11.9,0,0,1,11.86-11.87h10.67A11.9,11.9,0,0,1,527.74,231.41Z"/><path class="cls-1" d="M515.88,267.57H505.21a14.84,14.84,0,0,1-14.82-14.82V231.41a14.84,14.84,0,0,1,14.82-14.83h10.67a14.83,14.83,0,0,1,14.82,14.83v21.34A14.83,14.83,0,0,1,515.88,267.57Zm-10.67-45.06a8.9,8.9,0,0,0-8.89,8.9v21.34a8.9,8.9,0,0,0,8.89,8.89h10.67a8.9,8.9,0,0,0,8.9-8.89V231.41a8.91,8.91,0,0,0-8.9-8.9Z"/><path class="cls-2" d="M475.33,143.3a91.9,91.9,0,0,0-156.87,65v64a91.9,91.9,0,0,0,183.79,0v-64A91.32,91.32,0,0,0,475.33,143.3Z"/><path class="cls-1" d="M434.36,217.77a3,3,0,0,1-1.1-5.72c5.28-2.11,23.37-6.62,36.82.1a3,3,0,0,1-2.66,5.3c-10.64-5.32-26.13-2.23-31.95.1A2.93,2.93,0,0,1,434.36,217.77Z"/><path class="cls-1" d="M491.46,403.87c6.29,12.61,6.06,24.47,5.66,44.09-.11,5.51-.23,11.74-.23,18.81a3.09,3.09,0,0,1-3.22,3h-168a3.08,3.08,0,0,1-3.21-3c0-7.07-.12-13.3-.24-18.81-.39-19.62-.63-31.48,5.67-44.09C335,389.6,379,372.81,384,370.94a3.52,3.52,0,0,1,1.63-.18,3,3,0,0,1,3.25,2c.18.53,4.27,12.17,20.89,12.17,16.84,0,20.85-12,20.89-12.16a3,3,0,0,1,3.18-2,3.42,3.42,0,0,1,1.48.19C440.3,372.81,484.34,389.6,491.46,403.87Zm-.75,44c.4-19.42.62-30.12-5.06-41.5-4.86-9.76-36.27-23.55-50.54-29.09-2.49,4.65-9.34,13.61-25.35,13.61s-22.93-9.06-25.39-13.67c-14.18,5.48-45.82,19.35-50.71,29.15-5.68,11.38-5.45,22.08-5.06,41.5.09,4.74.2,10,.22,15.95H490.48C490.51,457.9,490.61,452.6,490.71,447.86Z"/><path class="cls-4" d="M485.65,406.36c5.68,11.38,5.46,22.08,5.06,41.5-.1,4.74-.2,10-.23,15.95H328.82c0-5.91-.13-11.21-.22-15.95-.39-19.42-.62-30.12,5.06-41.5,4.89-9.8,36.53-23.67,50.71-29.15,2.46,4.61,9.31,13.67,25.39,13.67s22.86-9,25.35-13.61C449.38,382.81,480.79,396.6,485.65,406.36Z"/><path class="cls-1" d="M438.22,452.54a10.38,10.38,0,0,1-7.9-3.49c-6-6.66-4.7-20.73-4.54-22.31a3,3,0,0,1,3-2.66h20.16a3,3,0,0,1,3,3c0,.76,0,1.55,0,2.36.07,7,.15,15-4.48,19.69A12.39,12.39,0,0,1,438.22,452.54ZM431.51,430c-.13,4.55.31,11.84,3.22,15.08a4.4,4.4,0,0,0,3.49,1.52,6.65,6.65,0,0,0,5-1.68C446,442.11,446,435.5,446,430Z"/><path class="cls-1" d="M462.28,469.82a2.36,2.36,0,0,1-2.36-2.36v-8.7a2.36,2.36,0,0,1,4.72,0v8.7A2.36,2.36,0,0,1,462.28,469.82Z"/><path class="cls-1" d="M482.09,246v13.4a14.66,14.66,0,0,1-14.64,14.65H436.26a14.66,14.66,0,0,1-14.64-14.65V246a14.65,14.65,0,0,1,14.64-14.63h31.19A14.65,14.65,0,0,1,482.09,246Zm-5.93,13.4V246a8.71,8.71,0,0,0-8.71-8.7H436.26a8.72,8.72,0,0,0-8.72,8.7v13.4a8.73,8.73,0,0,0,8.72,8.72h31.19A8.73,8.73,0,0,0,476.16,259.44Z"/><path class="cls-5" d="M476.16,246v13.4a8.73,8.73,0,0,1-8.71,8.72H436.26a8.73,8.73,0,0,1-8.72-8.72V246a8.72,8.72,0,0,1,8.72-8.7h31.19A8.71,8.71,0,0,1,476.16,246Z"/><path class="cls-1" d="M479.12,251.56a3,3,0,0,1-2.3-4.83l26.08-32.31a3,3,0,0,1,4.62,3.73l-26.09,32.31A3,3,0,0,1,479.12,251.56Z"/><path class="cls-1" d="M432.29,378.54a3,3,0,0,1-3-3V365.39a3,3,0,0,1,5.93,0v10.19A3,3,0,0,1,432.29,378.54Z"/><path class="cls-1" d="M387.23,378.54a3,3,0,0,1-3-3V365.39a3,3,0,0,1,5.93,0v10.19A3,3,0,0,1,387.23,378.54Z"/><path class="cls-6" d="M371.59,410.4c0-8.49-2.4-17.24-5.44-25.44-14,6.47-29.22,14.84-32.49,21.4-5.68,11.38-5.45,22.08-5.06,41.5.09,4.74.2,10,.22,15.95H372.2C373.1,449.61,371.59,424.71,371.59,410.4Z"/><path class="cls-7" d="M406.08,238c8.27-1.38,13.79-11,15.17-15.18s1.38-30.35,0-35.86-5.52-8.28-11-8.28c4.14-6.9,12.41-41.36,15.34-61a91.87,91.87,0,0,0-107.09,90.62v64a91.94,91.94,0,0,0,44.69,78.81c19.77-21.33,31.14-68.9,36-78.67C404.7,261.41,406.08,242.1,406.08,238Z"/><rect class="cls-1" x="443.67" y="245.63" width="16.4" height="16.4" rx="8.2" ry="8.2"/><path class="cls-1" d="M411.54,294.25c-5.42,0-9.61-1.68-12.44-5-4.75-5.54-3.59-13.52-3.53-13.85a2.94,2.94,0,0,1,3.38-2.48,3,3,0,0,1,2.48,3.38s-.79,5.67,2.19,9.11c1.66,1.92,4.32,2.89,7.92,2.89,3.93,0,6.73-.85,8.31-2.52,2.16-2.28,2-6,1.82-8.46,0-.57-.05-1.07-.05-1.47a3,3,0,1,1,5.93,0c0,.31,0,.7,0,1.14.17,3.06.48,8.74-3.43,12.87C421.41,292.78,417.17,294.25,411.54,294.25Z"/><path class="cls-1" d="M440,304.92a3,3,0,0,1,3,3c0,.3-.35,30.22-31.42,30.22-9.44,0-16.9-2.8-22.2-8.32-8.51-8.88-8-21.5-8-22a3,3,0,0,1,3-2.83Zm-3.2,5.92H387.37c.37,3.66,1.68,10.1,6.29,14.88,4.13,4.3,10.14,6.47,17.88,6.47C431.64,332.19,435.9,317.35,436.8,310.84Z"/><path class="cls-5" d="M387.37,310.84H436.8c-.9,6.51-5.16,21.35-25.26,21.35-7.74,0-13.75-2.17-17.88-6.47C389.05,320.94,387.74,314.5,387.37,310.84Z"/><path class="cls-1" d="M424.58,251.56H398.36a3,3,0,0,1,0-5.93h26.22a3,3,0,1,1,0,5.93Z"/><path class="cls-1" d="M401.45,246v13.4a14.65,14.65,0,0,1-14.63,14.65H355.63A14.66,14.66,0,0,1,341,259.44V246a14.65,14.65,0,0,1,14.64-14.63h31.19A14.64,14.64,0,0,1,401.45,246Zm-5.91,13.4V246a8.72,8.72,0,0,0-8.72-8.7H355.63a8.71,8.71,0,0,0-8.71,8.7v13.4a8.73,8.73,0,0,0,8.71,8.72h31.19A8.73,8.73,0,0,0,395.54,259.44Z"/><path class="cls-5" d="M395.54,246v13.4a8.73,8.73,0,0,1-8.72,8.72H355.63a8.73,8.73,0,0,1-8.71-8.72V246a8.71,8.71,0,0,1,8.71-8.7h31.19A8.72,8.72,0,0,1,395.54,246Z"/><rect class="cls-1" x="363.04" y="245.63" width="16.4" height="16.4" rx="8.2" ry="8.2"/><path class="cls-1" d="M353.14,217.77a3,3,0,0,1-1.1-5.72c5.28-2.11,23.37-6.62,36.81.1a3,3,0,1,1-2.65,5.3c-10.64-5.32-26.13-2.23-32,.1A2.84,2.84,0,0,1,353.14,217.77Z"/><path class="cls-1" d="M318.46,272.31a91.9,91.9,0,0,0,183.79,0V253.47a52.57,52.57,0,0,0,3-5.46v24.3a94.86,94.86,0,0,1-189.72.05V247.27c.86,1.66,1.85,3.38,3,5.14Z"/><path class="cls-1" d="M432.29,365.79a95.42,95.42,0,0,1-45.06-.28,94.9,94.9,0,0,1-71.74-92v-1.14a94.86,94.86,0,0,0,189.72-.05v1.19A94.87,94.87,0,0,1,432.29,365.79Z"/><path class="cls-1" d="M508.18,272.31a98,98,0,0,1-75.89,95.33v-1.85a94.87,94.87,0,0,0,72.92-92.29V208.28a94.86,94.86,0,1,0-189.72,0V273.5a94.9,94.9,0,0,0,71.74,92v1.85a98,98,0,0,1-74.7-95.05v-64a97.83,97.83,0,0,1,195.65,0Z"/><path class="cls-1" d="M475.33,143.3a91.9,91.9,0,0,0-156.87,65v44.13c-1.12-1.76-2.11-3.48-3-5.14v-39a94.86,94.86,0,1,1,189.72,0V248a52.57,52.57,0,0,1-3,5.46V208.28A91.32,91.32,0,0,0,475.33,143.3Z"/><path class="cls-8" d="M486.84,194c-7.81-.19-19.77-.89-26.69-3.48-9.48-3.56-26.08-9.49-35.57-13.05,14.23,5.93,23.72,22.53,19,22.53a238.08,238.08,0,0,1-45.05-5.93c-13-3.05-36-13.22-54.89-23.56h0c-13.37.17-21,23.57-28.11,50.83-13-13-19-48.81-15.41-67.58C306,122.91,345.14,93.27,398.5,85s100.78,24.9,116.2,54.54-3.56,70.55-9.49,80C505.21,211.84,486.84,194,486.84,194Z"/><path class="cls-9" d="M514.7,139.51c-13.76-26.45-53-55.7-99.19-55.81,23.19,11.93,44.94,22.47,57.09,37.43,15.42,19,36.76,47.43,36.76,62.84,0,12.54-3.14,20.37-6.86,28.6,1.63,2.65,2.71,5.11,2.71,7C511.14,210.06,530.11,169.15,514.7,139.51Z"/><path class="cls-9" d="M492.76,188.72c-1.18-1.19-4.74-7.12-7.11-9.49s-14.23-8.3-14.23-8.3c1.18,1.19,5.93,9.49,5.93,9.49a53.55,53.55,0,0,1,5.16,13.41c1.54.07,3,.12,4.33.15,0,0,1.33,1.29,3.26,3.32l2.66-2.65S494,189.9,492.76,188.72Z"/><path class="cls-9" d="M424,179.23c2.37,2.37,7.11,9.49,8.3,11.86a59.52,59.52,0,0,1,3.41,8.45c.15,1,6.47.54,6.47.54l2-1.88L443,192.27,437,185.16l-8.3-5.93Z"/><path class="cls-10" d="M411.59,177.26c4.14-6.9,12.42-38.63,15.34-58.24,1.61-10.76-4.12-25.1-8.61-35.3A108.64,108.64,0,0,0,398.5,85c-53.36,8.3-92.49,37.94-98.42,68.77-3.62,18.77,2.37,54.54,15.41,67.58,7.12-27.26,14.74-50.66,28.11-50.83h0c18.88,10.34,41.91,20.51,54.89,23.56a231.57,231.57,0,0,0,23.69,4.2c.44-4.44.92-9.43.44-11.33C421.25,181.4,417.11,177.26,411.59,177.26Z"/><path class="cls-1" d="M443.55,203a243.24,243.24,0,0,1-45.73-6c-12.47-2.93-35.35-12.74-55.64-23.85a3,3,0,0,1,2.85-5.2c19.87,10.88,42.13,20.46,54.14,23.28a243.47,243.47,0,0,0,42.2,5.79c-1.78-4.08-8.69-12.92-17.93-16.77a3,3,0,0,1,2.18-5.51c4.73,1.77,11.35,4.18,17.76,6.51s13.06,4.75,17.81,6.53c5,1.87,13.88,3,25.73,3.3l3.73.06c-2.39-4.26-9.82-13.2-18.87-18.14a3,3,0,1,1,2.84-5.2c10.64,5.8,24.14,20.41,22.63,26.35a3.87,3.87,0,0,1-3.9,2.93c-1.27,0-3.65,0-6.58-.08-12.68-.3-22-1.54-27.66-3.67-4.6-1.72-11-4.05-17.22-6.32,4,4.78,6.36,9.65,5.76,12.66A4,4,0,0,1,443.55,203Z"/><path class="cls-1" d="M315.49,224.29a3,3,0,0,1-2.09-.87C300,210,293.24,173.56,297.17,153.18c3.07-16,14.65-31.84,32.61-44.69C348.28,95.25,371.88,86.1,398,82c31.57-4.91,57.77,4.55,74.19,13.36,19.86,10.65,36.72,26.63,45.1,42.74,15.66,30.13-2.14,71-9.61,83a3,3,0,0,1-5.47-1.57c0-4.45-10.22-16.39-17.47-23.44a3,3,0,1,1,4.13-4.25c2.44,2.37,12.25,12.16,16.86,20.47,7.17-14.59,18.85-47.31,6.3-71.45-7.85-15.1-23.8-30.15-42.65-40.26C453.8,92.24,428.9,83.24,399,87.89c-49.69,7.73-90.05,35.66-96,66.41-3.22,16.72,1.43,46.12,11.13,60.63,6.88-25.49,14.69-47.22,29.44-47.4l.05,5.93c-11.62.14-19.13,25.17-25.25,48.61a2.94,2.94,0,0,1-2.09,2.11A3,3,0,0,1,315.49,224.29Z"/><path class="cls-11" d="M255.88,186.62c4.39,38.16-12.09,97.51-13.19,116.59s25.27,54.06,12.09,67.84-56,17-67,17c0,0-31.87-1.06-106.59,3.18s-64.83-18-61.54-32.86,12.09-37.1,6.6-54.06S-3.45,221.6,4.24,189.8s45.05-71,100-97.52,111,28.62,114.29,38.16C232.8,130.44,251.48,148.46,255.88,186.62Z"/><path class="cls-12" d="M36.36,320.73c2.76-16.55-4.14-31.73-11-98-5.23-50.27,36.44-91,73.11-127.62-51.76,26.41-86.77,64-94.19,94.64-7.69,31.8,16.48,97.51,22,114.47s-3.3,39.22-6.6,54.06C17.13,369.54,10.9,385,40.14,390,21.24,372.24,34.06,334.52,36.36,320.73Z"/><path class="cls-1" d="M63.78,394.47c-24.31,0-38.88-3.71-45.32-11.43-5.9-7.07-3.81-15.74-2.13-22.71.21-.88.42-1.75.61-2.59.72-3.23,1.68-6.76,2.69-10.5,3.59-13.16,8-29.55,4-42.12-.54-1.67-1.26-3.82-2.12-6.36-8.09-24-27-80.19-19.91-109.61C10,154.49,49.78,115.49,103,89.8c20.4-9.83,43.72-9.81,67.46.07,25.78,10.72,45.15,30,49.76,37.89,16.14,1.36,34.07,21.4,38.35,58.54,3.05,26.49-3.74,62.7-8.7,89.14-2.22,11.84-4.14,22.07-4.48,27.93-.41,7.12,3.63,17.41,7.54,27.35,6.32,16.11,12.86,32.76,3.79,42.23-14.15,14.79-58,17.81-69,17.81h-.09c-.32,0-32.66-1-106.35,3.17Q71.82,394.47,63.78,394.47ZM135.44,87.85a68.35,68.35,0,0,0-30,6.9c-51,24.62-90.63,63.07-98.52,95.69C.17,218.32,18.75,273.46,26.69,297c.86,2.57,1.59,4.74,2.14,6.43,4.58,14.12-.12,31.38-3.89,45.25-1,3.68-2,7.15-2.64,10.25-.19.87-.41,1.77-.63,2.69-1.53,6.37-3.12,12.95,1,17.9,6.47,7.75,26.1,10.76,58.32,8.93,72.63-4.12,105.31-3.23,106.79-3.19,13.29,0,53.25-3.83,65-16.11,6.64-6.93.75-21.92-4.94-36.42-4.31-11-8.38-21.35-7.9-29.67.36-6.22,2.21-16.11,4.56-28.64,4.89-26.09,11.59-61.82,8.64-87.49-3-26.05-16.16-53.74-34.63-53.74h-2l-.64-1.86c-1.67-4.83-21.19-25.43-47.53-36.39C157,90.21,146,87.85,135.44,87.85Z"/><path class="cls-13" d="M255.88,186.62c4.39,38.16-12.09,97.51-13.19,116.59s25.27,54.06,12.09,67.84-56,17-67,17c0,0-31.87-1.06-106.59,3.18s-64.83-18-61.54-32.86,12.09-37.1,6.6-54.06S-3.45,221.6,4.24,189.8s45.05-71,100-97.52,111,28.62,114.29,38.16C232.8,130.44,251.48,148.46,255.88,186.62Z"/><path class="cls-14" d="M36.36,320.73c2.76-16.55-4.14-31.73-11-98-5.23-50.27,36.44-91,73.11-127.62-51.76,26.41-86.77,64-94.19,94.64-7.69,31.8,16.48,97.51,22,114.47s-3.3,39.22-6.6,54.06C17.13,369.54,10.9,385,40.14,390,21.24,372.24,34.06,334.52,36.36,320.73Z"/><path class="cls-1" d="M63.78,394.47c-24.31,0-38.88-3.71-45.32-11.43-5.9-7.07-3.81-15.74-2.13-22.71.21-.88.42-1.75.61-2.59.72-3.23,1.68-6.76,2.69-10.5,3.59-13.16,8-29.55,4-42.12-.54-1.67-1.26-3.82-2.12-6.36-8.09-24-27-80.19-19.91-109.61C10,154.49,49.78,115.49,103,89.8c20.4-9.83,43.72-9.81,67.46.07,25.78,10.72,45.15,30,49.76,37.89,16.14,1.36,34.07,21.4,38.35,58.54,3.05,26.49-3.74,62.7-8.7,89.14-2.22,11.84-4.14,22.07-4.48,27.93-.41,7.12,3.63,17.41,7.54,27.35,6.32,16.11,12.86,32.76,3.79,42.23-14.15,14.79-58,17.81-69,17.81h-.09c-.32,0-32.66-1-106.35,3.17Q71.82,394.47,63.78,394.47ZM135.44,87.85a68.35,68.35,0,0,0-30,6.9c-51,24.62-90.63,63.07-98.52,95.69C.17,218.32,18.75,273.46,26.69,297c.86,2.57,1.59,4.74,2.14,6.43,4.58,14.12-.12,31.38-3.89,45.25-1,3.68-2,7.15-2.64,10.25-.19.87-.41,1.77-.63,2.69-1.53,6.37-3.12,12.95,1,17.9,6.47,7.75,26.1,10.76,58.32,8.93,72.63-4.12,105.31-3.23,106.79-3.19,13.29,0,53.25-3.83,65-16.11,6.64-6.93.75-21.92-4.94-36.42-4.31-11-8.38-21.35-7.9-29.67.36-6.22,2.21-16.11,4.56-28.64,4.89-26.09,11.59-61.82,8.64-87.49-3-26.05-16.16-53.74-34.63-53.74h-2l-.64-1.86c-1.67-4.83-21.19-25.43-47.53-36.39C157,90.21,146,87.85,135.44,87.85Z"/><path class="cls-2" d="M63.79,247.77v19.78a11,11,0,0,1-11,11H42.91a11,11,0,0,1-11-11V247.77a11,11,0,0,1,11-11H52.8A11,11,0,0,1,63.79,247.77Z"/><path class="cls-1" d="M52.8,281.28H42.91a13.75,13.75,0,0,1-13.73-13.73V247.77A13.76,13.76,0,0,1,42.91,234H52.8a13.76,13.76,0,0,1,13.74,13.74v19.78A13.75,13.75,0,0,1,52.8,281.28Zm-9.89-41.75a8.25,8.25,0,0,0-8.24,8.24v19.78a8.25,8.25,0,0,0,8.24,8.24H52.8A8.25,8.25,0,0,0,61,267.55V247.77a8.25,8.25,0,0,0-8.24-8.24Z"/><path class="cls-2" d="M221.26,226.34v59.34c0,48.55-38,87.91-84.95,87.91s-84.94-39.36-84.94-87.91V226.34c0-48.54,38-87.9,84.94-87.9a83.3,83.3,0,0,1,60.07,25.74A89.21,89.21,0,0,1,221.26,226.34Z"/><path class="cls-1" d="M135.3,331.86c-8.66,0-17.86-2.89-26.4-10a2.75,2.75,0,0,1,3.52-4.22c18.68,15.56,38.17,6.83,45.87.05a2.75,2.75,0,1,1,3.63,4.12A40.77,40.77,0,0,1,135.3,331.86Z"/><path class="cls-1" d="M136.31,303.81c-5.55,0-9.17-1.06-11.37-3.35a9.42,9.42,0,0,1-2.36-7.19,2.75,2.75,0,1,1,5.49.21c-.08,2,.44,2.76.83,3.17,1.06,1.11,3.56,1.67,7.41,1.67,2.94,0,5.08-.66,6.19-1.9a4.06,4.06,0,0,0,1-2.73,2.74,2.74,0,0,1,5.45-.63,9.46,9.46,0,0,1-2.32,7C144.39,302.55,140.93,303.81,136.31,303.81Z"/><rect class="cls-1" x="90.99" y="257.11" width="16.48" height="16.48" rx="8.24" ry="8.24"/><rect class="cls-1" x="166.26" y="257.11" width="16.48" height="16.48" rx="2.76" ry="2.76"/><path class="cls-1" d="M161.8,246.12a2.75,2.75,0,0,1-1.23-5.2c4-2,17.8-6.32,28.09.13a2.75,2.75,0,1,1-2.92,4.65c-7.54-4.73-18.55-1.95-22.71.13A2.68,2.68,0,0,1,161.8,246.12Z"/><path class="cls-1" d="M84,248.49a2.74,2.74,0,0,1-2.21-4.86c3.55-2.76,16.25-9.64,27.58-5.3a2.75,2.75,0,1,1-2,5.13c-8.3-3.18-18.57,1.66-22.25,4.51A2.72,2.72,0,0,1,84,248.49Z"/><path class="cls-1" d="M223.46,226.34v59.34c0,42.79-28.65,78.75-67,88.21v-2.62l-.71-2.84c35.8-9.09,62.45-42.75,62.45-82.75V226.34a86.32,86.32,0,0,0-24-60.21,79.77,79.77,0,0,0-57.89-24.95c-45.13,0-81.85,38.21-81.85,85.16v59.34c0,39.62,26.14,73,61.42,82.48l-.11,3.11v2.52c-38.16-9.63-66.6-45.48-66.6-88.11V226.34c0-50,39.1-90.65,87.14-90.65a85,85,0,0,1,61.62,26.55A92,92,0,0,1,223.46,226.34Z"/><path class="cls-1" d="M203.11,410.53c5.13,11.34,4.93,22,4.61,39.64-.08,5-.19,10.56-.19,16.9a2.65,2.65,0,0,1-2.62,2.67H184.79v-5.33h17.52c0-5.31.11-10.06.18-14.34.32-17.46.5-27.08-4.13-37.31-4.09-9-31.12-21.9-42.23-26.57a8.65,8.65,0,0,0,.3-2.16v-3.29a2.55,2.55,0,0,1,.85.19C161.35,382.6,197.3,397.7,203.11,410.53Z"/><path class="cls-15" d="M89.19,464.41H70.37c0-5.31-.11-10.06-.19-14.34-.32-17.46-.49-27.08,4.13-37.31,4.08-9,31.05-21.86,42.19-26.54,1.51,3.35,6.13,9.35,19.6,9.35,15.08,0,19.06-5.73,20-9.38,11.11,4.67,38.14,17.55,42.23,26.57,4.63,10.23,4.45,19.85,4.13,37.31-.07,4.28-.16,9-.18,14.34H89.19Z"/><polygon class="cls-1" points="184.79 467.07 184.79 469.74 89.19 469.74 89.19 467.07 89.19 464.41 184.79 464.41 184.79 467.07"/><path class="cls-1" d="M153.87,382.4a2.65,2.65,0,0,1,2.56-1.66V384a8.65,8.65,0,0,1-.3,2.16l-.81-.33A2.67,2.67,0,0,1,153.87,382.4Z"/><path class="cls-2" d="M156.43,373.89v6.85a2.66,2.66,0,0,0-1.11,5.12l.81.33c-1,3.65-4.95,9.38-20,9.38-13.47,0-18.09-6-19.6-9.35l.85-.36c1.35-.54.89-2.09.36-3.46s-.88-1.88-1.94-1.6v-7a83.92,83.92,0,0,0,40.66.1Z"/><path class="cls-1" d="M117.71,382.4c.53,1.37,1,2.92-.36,3.46l-.85.36a8.88,8.88,0,0,1-.73-2.19V380.8C116.83,380.52,117.22,381.17,117.71,382.4Z"/><path class="cls-16" d="M136.23,374.53A71.22,71.22,0,0,1,115,371.3v5.89c9.06,3.45,21.91,5.93,41.39.54v-6.09A71.39,71.39,0,0,1,136.23,374.53Z"/><path class="cls-1" d="M115.77,384a8.88,8.88,0,0,0,.73,2.19c-11.14,4.68-38.11,17.53-42.19,26.54-4.62,10.23-4.45,19.85-4.13,37.31.08,4.28.17,9,.19,14.34H89.19v5.33H67.76a2.64,2.64,0,0,1-2.61-2.67c0-6.34-.1-11.94-.2-16.9-.32-17.65-.52-28.3,4.62-39.64,5.81-12.83,41.75-27.93,45.83-29.6a3.3,3.3,0,0,1,.37-.13Z"/><path class="cls-1" d="M89.19,469.82a2.75,2.75,0,0,1-2.75-2.75V457a2.75,2.75,0,0,1,5.5,0v10.12A2.75,2.75,0,0,1,89.19,469.82Z"/><path class="cls-1" d="M184.79,469.82a2.75,2.75,0,0,1-2.75-2.75V457a2.75,2.75,0,0,1,5.5,0v10.12A2.75,2.75,0,0,1,184.79,469.82Z"/><path class="cls-1" d="M136.1,398.31c-14.92,0-20.25-6.87-22.1-11a11.12,11.12,0,0,1-.94-2.92l0-.4V371.27a2.75,2.75,0,1,1,5.49,0v12.48a7,7,0,0,0,.48,1.32c1.31,2.9,5.27,7.75,17.1,7.75,13.41,0,16.64-4.6,17.38-7.34a5.63,5.63,0,0,0,.2-1.45V371.27a2.75,2.75,0,0,1,5.5,0V384a11.38,11.38,0,0,1-.39,2.86C157.64,391.17,153.18,398.31,136.1,398.31Z"/><path class="cls-13" d="M135.19,132.39c-50,0-90.56,41.79-90.84,93.45,45.93-5.4,128.56-25.32,161.53-62.23C191.14,153,154.54,132.39,135.19,132.39Z"/><path class="cls-1" d="M43.45,229.11l-1.91,0a2.75,2.75,0,0,1,.06-5.49h.06c50.56,1.12,147.67-41.4,167.08-63.88a2.75,2.75,0,1,1,4.16,3.59c-10.42,12.07-39.15,28.41-75,42.65C101.28,220.53,66.19,229.11,43.45,229.11Z"/><path class="cls-1" d="M156.43,371.27v2.62a83.92,83.92,0,0,1-40.66-.1v-2.52l.11-3.11a79.29,79.29,0,0,0,39.84.27Z"/><path class="cls-1" d="M135.59,345.41a35,35,0,0,1-9.43-1.11,2.89,2.89,0,0,1,1.77-5.5c2.83.92,10.54,1.32,14.95,0a2.88,2.88,0,1,1,1.67,5.52A32.17,32.17,0,0,1,135.59,345.41Z"/><path class="cls-17" d="M326.17,231.41v21.34a11.89,11.89,0,0,1-11.86,11.85H303.64a11.89,11.89,0,0,1-11.86-11.85V231.41a11.9,11.9,0,0,1,11.86-11.87h10.67A11.9,11.9,0,0,1,326.17,231.41Z"/><path class="cls-1" d="M314.31,267.57H303.64a14.83,14.83,0,0,1-14.82-14.82V231.41a14.83,14.83,0,0,1,14.82-14.83h10.67a14.84,14.84,0,0,1,14.82,14.83v21.34A14.84,14.84,0,0,1,314.31,267.57Zm-10.67-45.06a8.91,8.91,0,0,0-8.9,8.9v21.34a8.9,8.9,0,0,0,8.9,8.89h10.67a8.9,8.9,0,0,0,8.89-8.89V231.41a8.9,8.9,0,0,0-8.89-8.9Z"/><path class="cls-1" d="M343.59,173.46a3,3,0,0,1-1.42-.37c-7.93-4.34-18.82-10.73-25.63-16.5a3,3,0,0,1,3.83-4.52c5,4.25,13.78,9.87,24.65,15.82a3,3,0,0,1-1.43,5.57Z"/><path class="cls-1" d="M354.06,469.82a2.75,2.75,0,0,1-2.75-2.75V457a2.75,2.75,0,0,1,5.5,0v10.12A2.75,2.75,0,0,1,354.06,469.82Z"/><path class="cls-1" d="M342.77,251.56a3,3,0,0,1-2.31-1.1l-26.09-32.31a3,3,0,0,1,4.62-3.73l26.08,32.31a3,3,0,0,1-2.3,4.83Z"/><path class="cls-18" d="M239.61,247.77v19.78a11,11,0,0,1-11,11h-9.89a11,11,0,0,1-11-11V247.77a11,11,0,0,1,11-11h9.89A11,11,0,0,1,239.61,247.77Z"/><path class="cls-1" d="M228.62,281.28h-9.89A13.75,13.75,0,0,1,205,267.55V247.77A13.76,13.76,0,0,1,218.73,234h9.89a13.76,13.76,0,0,1,13.73,13.74v19.78A13.75,13.75,0,0,1,228.62,281.28Zm-9.89-41.75a8.25,8.25,0,0,0-8.24,8.24v19.78a8.25,8.25,0,0,0,8.24,8.24h9.89a8.25,8.25,0,0,0,8.24-8.24V247.77a8.25,8.25,0,0,0-8.24-8.24Z"/><path class="cls-2" d="M166.73,192.44v24.83a13.84,13.84,0,0,1-13.8,13.79H140.52a13.84,13.84,0,0,1-13.8-13.79V192.44a13.83,13.83,0,0,1,13.8-13.8h12.41A13.83,13.83,0,0,1,166.73,192.44Z"/><path class="cls-1" d="M152.93,234.51H140.52a17.27,17.27,0,0,1-17.25-17.24V192.44a17.27,17.27,0,0,1,17.25-17.25h12.41a17.27,17.27,0,0,1,17.25,17.25v24.83A17.27,17.27,0,0,1,152.93,234.51Zm-12.41-52.42a10.36,10.36,0,0,0-10.35,10.35v24.83a10.36,10.36,0,0,0,10.35,10.34h12.41a10.36,10.36,0,0,0,10.35-10.34V192.44a10.36,10.36,0,0,0-10.35-10.35Z"/><path class="cls-2" d="M401.25,192.44v24.83a13.84,13.84,0,0,1-13.8,13.79H375a13.84,13.84,0,0,1-13.8-13.79V192.44a13.83,13.83,0,0,1,13.8-13.8h12.41A13.83,13.83,0,0,1,401.25,192.44Z"/><path class="cls-1" d="M387.45,234.51H375a17.27,17.27,0,0,1-17.25-17.24V192.44A17.27,17.27,0,0,1,375,175.19h12.41a17.27,17.27,0,0,1,17.25,17.25v24.83A17.27,17.27,0,0,1,387.45,234.51ZM375,182.09a10.36,10.36,0,0,0-10.35,10.35v24.83A10.36,10.36,0,0,0,375,227.61h12.41a10.36,10.36,0,0,0,10.35-10.34V192.44a10.36,10.36,0,0,0-10.35-10.35Z"/><path class="cls-5" d="M290.2,416.61v49.66h-7.36l-14.19-43.5c6.44-2.35,11.45-9.89,12.72-14.76Z"/><path class="cls-5" d="M290.2,365.11v51.5l-8.83-8.6-16.7-16.23v-.6C285.68,390.89,290.2,373.76,290.2,365.11Z"/><path class="cls-2" d="M290.2,358v7.13c0,8.65-4.52,25.78-25.54,26.07a5.33,5.33,0,0,1-.57,0H264c-21.41-.06-26.12-19.9-26.12-26.21h-.11V350.61a113.72,113.72,0,0,0,52.43.33Z"/><path class="cls-19" d="M268.65,422.77l14.19,43.5H245.19l14.2-43.5.11-.28a14.51,14.51,0,0,0,5.17,1A11.46,11.46,0,0,0,268.65,422.77Z"/><path class="cls-19" d="M264.67,391.78,281.37,408c-1.27,4.87-6.28,12.41-12.72,14.76a11.46,11.46,0,0,1-4,.74,14.51,14.51,0,0,1-5.17-1c-6.23-2.43-11.38-8.72-11.38-14.16l-.57-.58,16.43-16,0-.58h.09a5.33,5.33,0,0,0,.57,0Z"/><path class="cls-5" d="M264,391.2l0,.58-16.43,16-9.09,8.86h-.69V365h.11C237.88,371.3,242.59,391.14,264,391.2Z"/><path class="cls-5" d="M259.5,422.49l-.11.28-14.2,43.5h-7.42V416.61h.69l9.09-8.86.57.58C248.12,413.77,253.27,420.06,259.5,422.49Z"/><path class="cls-19" d="M237.77,416.61v49.66H173.38c0-37.25-2.76-53.8,5.51-71.73C186.21,378.7,237.52,358,237.52,358h.25v58.63Z"/><path class="cls-1" d="M340.27,89.93a106.91,106.91,0,0,0-182.51,75.6v51.35c-1.3-2.06-2.46-4.06-3.45-6V165.53a110.37,110.37,0,0,1,220.73,0v46.23a64.47,64.47,0,0,1-3.45,6.35V165.53A106.23,106.23,0,0,0,340.27,89.93Z"/><path class="cls-20" d="M169.49,71.72C159.83,48.27,187.42,35.86,260.54,11s86.37,19.36,86.91,22.07c1.38,6.9,8.27,12.41,23.45,11,20.65-1.87,30.35,22.08,31.73,42.77S380.55,157.08,375,171.05c0,0-15.87-47.07-46.56-65.61l-.21-.73c-50.64,14.06-124.83-11.31-133.95-5.39-27.59,17.93-40,70.35-40,70.35-7.13-9.85-17.93-51-16.55-67.6S159.83,71.72,169.49,71.72Z"/><path class="cls-21" d="M264.67,353.84a113.09,113.09,0,0,1-26.9-3.23v5.89c11.47,3.45,27.75,5.93,52.43.53v-6.09A112.51,112.51,0,0,1,264.67,353.84Z"/><path class="cls-1" d="M199.55,469.82a2.75,2.75,0,0,1-2.74-2.75V457a2.75,2.75,0,1,1,5.49,0v10.12A2.75,2.75,0,0,1,199.55,469.82Z"/><path class="cls-19" d="M348.83,394.54c8.27,17.93,5.51,34.48,5.51,71.73H290.2V358S341.51,378.7,348.83,394.54Z"/><path class="cls-1" d="M290.2,469.72a3.44,3.44,0,0,1-3.45-3.45V347.87a3.45,3.45,0,1,1,6.89,0v118.4A3.44,3.44,0,0,1,290.2,469.72Z"/><path class="cls-1" d="M237.77,469.72a3.45,3.45,0,0,1-3.45-3.45V347.87a3.45,3.45,0,0,1,6.9,0v118.4A3.44,3.44,0,0,1,237.77,469.72Z"/><path class="cls-1" d="M310.2,440.75a3.39,3.39,0,0,1-1.28-.25A3.44,3.44,0,0,1,307,436l10.46-26.15-6.21-12.41a3.45,3.45,0,0,1,6.17-3.09l6.9,13.8a3.47,3.47,0,0,1,.12,2.82l-11,27.59A3.44,3.44,0,0,1,310.2,440.75Z"/><path class="cls-1" d="M215,440.75a3.44,3.44,0,0,1-3.2-2.17l-11-27.59a3.47,3.47,0,0,1,.12-2.82l6.9-13.8a3.45,3.45,0,0,1,6.17,3.09l-6.21,12.41L218.21,436a3.44,3.44,0,0,1-1.92,4.48A3.39,3.39,0,0,1,215,440.75Z"/><path class="cls-1" d="M264.09,394.65c-22.43-.06-29.66-20-29.66-29.66a3.45,3.45,0,0,1,6.9,0c0,.22,1,22.7,22.68,22.76h.6c2.27,0,22.14-.93,22.14-22.62a3.45,3.45,0,1,1,6.89,0c0,10.8-6.07,29.16-28.84,29.52Z"/><path class="cls-1" d="M290.2,420.06a3.46,3.46,0,0,1-2.41-1l-25.52-24.83a3.45,3.45,0,1,1,4.81-4.95l25.52,24.84a3.45,3.45,0,0,1-2.4,5.92Z"/><path class="cls-1" d="M238.46,420.06a3.45,3.45,0,0,1-2.4-5.92l25.52-24.84a3.45,3.45,0,0,1,4.81,4.95l-25.52,24.83A3.46,3.46,0,0,1,238.46,420.06Z"/><path class="cls-1" d="M264.67,427a17.81,17.81,0,0,1-6.42-1.25c-7.62-3-13.58-10.6-13.58-17.37a3.45,3.45,0,1,1,6.9,0c0,3.92,4.29,9,9.18,10.94a9.06,9.06,0,0,0,6.7.27c5.23-1.92,9.57-8.55,10.58-12.4a3.45,3.45,0,0,1,6.67,1.74c-1.39,5.37-6.93,14.23-14.87,17.13A14.66,14.66,0,0,1,264.67,427Z"/><path class="cls-1" d="M282.84,469.72a3.45,3.45,0,0,1-3.28-2.38l-14.19-43.49a3.45,3.45,0,1,1,6.56-2.14l14.19,43.49a3.45,3.45,0,0,1-2.21,4.35A3.28,3.28,0,0,1,282.84,469.72Z"/><path class="cls-1" d="M245.19,469.72a3.37,3.37,0,0,1-1.07-.17,3.45,3.45,0,0,1-2.2-4.35l14.19-43.49a3.45,3.45,0,1,1,6.56,2.14l-14.2,43.49A3.44,3.44,0,0,1,245.19,469.72Z"/><path class="cls-16" d="M371.59,218.11V240a106.92,106.92,0,0,1-213.83,0V216.88C173,241,208.9,272.45,262.6,272.45,317.39,272.45,356.05,243.48,371.59,218.11Z"/><path class="cls-2" d="M371.59,165.53v52.58c-15.54,25.37-54.2,54.34-109,54.34-53.7,0-89.58-31.48-104.84-55.57V165.53a106.92,106.92,0,0,1,213.83,0Z"/><path class="cls-1" d="M345.16,85.05a113.82,113.82,0,0,0-194.3,80.48V240A113.83,113.83,0,0,0,264.67,353.84a112.51,112.51,0,0,0,25.53-2.9A114,114,0,0,0,378.49,240v-74.5A113.14,113.14,0,0,0,345.16,85.05ZM375,211.76a64.47,64.47,0,0,1-3.45,6.35V240a106.92,106.92,0,0,1-213.83,0V216.88c-1.3-2.06-2.46-4.06-3.45-6V165.53a110.37,110.37,0,0,1,220.73,0Z"/><path class="cls-1" d="M262,296.81c-14.43,0-28.45-4.15-41.94-12.46a3.45,3.45,0,1,1,3.62-5.87c24.67,15.18,51.36,15.15,79.31-.09a3.45,3.45,0,1,1,3.3,6.05C291.22,292.68,276.42,296.81,262,296.81Z"/><path class="cls-1" d="M264.67,262.79c-17.44,0-22.76-3.71-22.76-15.86a3.45,3.45,0,1,1,6.9,0c0,6.34,0,9,15.86,9,5.87,0,10-1.24,11.93-3.58a6.08,6.08,0,0,0,1.25-4.68,3.47,3.47,0,0,1,2.69-4,3.41,3.41,0,0,1,4,2.6A12.86,12.86,0,0,1,282,256.56C278.71,260.69,272.87,262.79,264.67,262.79Z"/><path class="cls-1" d="M198.11,190.37a3.45,3.45,0,0,1-1.28-6.66c6.14-2.45,27.19-7.7,42.83.12a3.45,3.45,0,0,1-3.08,6.17c-12.39-6.19-30.4-2.59-37.19.12A3.39,3.39,0,0,1,198.11,190.37Z"/><path class="cls-1" d="M292.61,190.37a3.45,3.45,0,0,1-1.28-6.66c6.14-2.45,27.18-7.7,42.83.12a3.45,3.45,0,1,1-3.09,6.17c-12.38-6.19-30.4-2.59-37.18.12A3.39,3.39,0,0,1,292.61,190.37Z"/><path class="cls-22" d="M339.86,117.94s-69,15.17-128.3-16.56,113.12-11,113.12-11l22.08,12.41Z"/><path class="cls-1" d="M299.16,226.23a3.45,3.45,0,0,1-3.45-3.45c0-9.19,7.23-15.86,17.19-15.86,10.25,0,16.61,5.88,16.61,15.35a3.45,3.45,0,1,1-6.9,0c0-5.61-3.26-8.45-9.71-8.45-6.06,0-10.29,3.68-10.29,9A3.44,3.44,0,0,1,299.16,226.23Z"/><path class="cls-1" d="M204,226.23a3.44,3.44,0,0,1-3.44-3.45c0-9.19,7.22-15.86,17.18-15.86,10.25,0,16.61,5.88,16.61,15.35a3.45,3.45,0,1,1-6.89,0c0-5.61-3.27-8.45-9.72-8.45-6.06,0-10.29,3.68-10.29,9A3.44,3.44,0,0,1,204,226.23Z"/><path class="cls-1" d="M263.67,313a84.2,84.2,0,0,1-15.61-1.23,3.45,3.45,0,0,1,1.49-6.74c5.36,1.18,19.28,1.7,27.53,0a3.45,3.45,0,1,1,1.4,6.75A77.14,77.14,0,0,1,263.67,313Z"/><path class="cls-23" d="M222.79,24.35c-44.72,16.79-61.07,28.51-53.3,47.37-9.66,0-30.35,13.8-31.73,30.35s9.42,57.75,16.55,67.6c0,0,12.42-52.42,40-70.35a3.59,3.59,0,0,1,.88-.41c-10.91-13.48-5.71-28.8-8.47-36.15S200.15,40.7,222.79,24.35Z"/><path class="cls-24" d="M338.48,46.2c4.24-14.53,1-24.54-5.29-33.07C321,4,299.1-2.07,260.54,11c-14.32,4.86-26.86,9.24-37.75,13.32C200.15,40.7,184,55.55,186.73,62.76s-2.44,22.67,8.47,36.15c11.8-4,79.07,17.93,128.06,7C348.06,82.64,338.48,46.2,338.48,46.2Z"/><path class="cls-11" d="M328.48,105.44C359.17,124,375,171.05,375,171.05c5.51-14,29-63.46,27.59-84.15S391.55,42.26,370.9,44.13c-15.18,1.38-22.07-4.13-23.45-11-.26-1.28-3.36-11.82-14.26-20,6.32,8.53,9.53,18.54,5.29,33.07,0,0,9.58,36.44-15.22,59.75,1.69-.37,3.37-.78,5-1.24Z"/><path class="cls-1" d="M374.78,181.08l-3-8.93c-.16-.45-15.72-45.74-44.73-63.55-32.58,8.26-74,1.32-101.61-3.3-12.5-2.09-26.67-4.46-29.26-3.08-26.07,17-38.38,67.74-38.5,68.25l-1.74,7.32-4.41-6.1c-7.48-10.32-18.66-52.44-17.2-69.9,1.39-16.64,19-29.81,30.6-32.85A20.59,20.59,0,0,1,166,54.88c7.08-15.57,34.54-27.12,93.44-47.12,30.06-10.21,54-10.35,71.25-.4C347.34,17,350.8,32.27,350.83,32.43c1.26,6.28,8.46,9.3,19.76,8.27a25.18,25.18,0,0,1,19.27,6.14c9,7.68,15.06,22.57,16.21,39.83,1.19,17.84-14.24,53.81-23.46,75.29-1.83,4.25-3.4,7.92-4.37,10.36ZM335.53,106c11.21,8.28,21.53,20.86,30.75,37.51a189.75,189.75,0,0,1,8.88,18.29l1.11-2.58c8.38-19.54,24-55.92,22.92-72.11-.8-11.92-4.84-27.39-13.81-35a18.52,18.52,0,0,0-14.17-4.51c-22.24,2-26.4-10-27.15-13.8,0-.12-3.22-12.68-17-20.56-15.42-8.78-37.42-8.42-65.39,1.08-48.21,16.37-82.84,29.08-89.36,43.44-1.73,3.8-1.6,7.83.39,12.68l2,4.76h-5.15c-8.35,0-27.1,12.87-28.3,27.19-1.07,12.88,6,42.71,12.16,57.89,4.87-16,17.32-49.68,39.09-63.83,4.27-2.77,13.55-1.36,34.13,2.08,27.62,4.62,69.35,11.61,100.78,2.89A67.8,67.8,0,0,0,349.54,91a3.45,3.45,0,1,1,4.09,5.55A70.58,70.58,0,0,1,335.53,106Z"/><path class="cls-1" d="M330.05,469.82a2.75,2.75,0,0,1-2.75-2.75V457a2.75,2.75,0,1,1,5.49,0v10.12A2.75,2.75,0,0,1,330.05,469.82Z"/><path class="cls-1" d="M354.34,469.72h-181a3.44,3.44,0,0,1-3.45-3.45c0-8.21-.14-15.47-.26-21.87-.43-22.84-.68-36.63,6.09-51.31,7.67-16.6,55.09-36.14,60.47-38.31a3.45,3.45,0,0,1,2.59,6.4C224.89,366.8,187.55,384,182,396c-6.12,13.25-5.88,25.69-5.46,48.29.1,5.52.22,11.68.25,18.55H350.9c0-6.87.15-13,.25-18.55.42-22.6.66-35-5.46-48.29-5.52-12-42.86-29.18-56.79-34.8a3.45,3.45,0,0,1,2.59-6.4c5.38,2.17,52.8,21.71,60.47,38.31,6.77,14.68,6.52,28.47,6.09,51.31-.12,6.4-.26,13.66-.26,21.87A3.44,3.44,0,0,1,354.34,469.72Z"/></g></g></svg>