<?xml version="1.0" encoding="UTF-8"?>
<svg width="24px" height="24px" viewBox="0 0 24 24" version="1.1" xmlns="http://www.w3.org/2000/svg" xmlns:xlink="http://www.w3.org/1999/xlink">
    <!-- Generator: Sketch 51.2 (57519) - http://www.bohemiancoding.com/sketch -->
    <title>Group</title>
    <desc>Created with Sketch.</desc>
    <defs></defs>
    <g id="Page-1" stroke="none" stroke-width="1" fill="none" fill-rule="evenodd">
        <g id="Artboard-5" transform="translate(-32.000000, -123.000000)" fill="#B2B2B2">
            <g id="Group" transform="translate(32.000000, 123.000000)">
                <path d="M19.995,23.34 C19.914,22.04 18.826,21 17.5,21 L7.5,21 C6.121,21 5,22.12 5,23.5 C5,23.78 5.224,24 5.5,24 L19.5,24 L19.52,24 C19.796,24 20.02,23.78 20.02,23.5 C20.02,23.45 20.012,23.39 19.995,23.34" id="Fill-1583"></path>
                <path d="M13.5,18 C13.224,18 13,18.22 13,18.5 L12,18.5 C12,18.22 11.776,18 11.5,18 C11.224,18 11,18.22 11,18.5 L11,21.5 C11,21.78 11.224,22 11.5,22 L13.5,22 C13.776,22 14,21.78 14,21.5 L14,18.5 C14,18.22 13.776,18 13.5,18" id="Fill-1584"></path>
                <path d="M10.5,5 C9.674,5 9,4.33 9,3.5 C9,2.67 9.674,2 10.5,2 C11.326,2 12,2.67 12,3.5 C12,4.33 11.326,5 10.5,5 L10.5,5 Z M10.5,0 C8.57,0 7,1.57 7,3.5 C7,5.26 9.772,9.33 10.089,9.78 C10.182,9.92 10.336,10 10.5,10 C10.664,10 10.818,9.92 10.911,9.78 C11.228,9.33 14,5.26 14,3.5 C14,1.57 12.43,0 10.5,0 L10.5,0 Z" id="Fill-1585"></path>
                <path d="M14.3717795,3 L23.3727795,3 C23.1407795,1.86 22.1317795,1 20.9237795,1 L14.4997795,1 C14.3307795,1 14.1737795,1.09 14.0807795,1.23 C13.9887795,1.37 13.9747795,1.55 14.0417795,1.7 C14.2267795,2.12 14.3207795,2.56 14.3717795,3" id="Fill-1586"></path>
                <path d="M6.001,3 C6.052,2.56 6.146,2.12 6.331,1.7 C6.398,1.55 6.384,1.37 6.292,1.23 C6.199,1.09 6.042,1 5.873,1 L2.449,1 C1.241,1 0.232,1.86 0,3 L6.001,3" id="Fill-1587"></path>
                <path d="M19.5,18 C19.224,18 18.995,17.78 18.995,17.5 C18.995,17.22 19.214,17 19.489,17 L19.5,17 C19.775,17 20,17.22 20,17.5 C20,17.78 19.775,18 19.5,18 L19.5,18 Z M12.47,18.5 C11.918,18.5 11.47,18.05 11.47,17.5 C11.47,16.95 11.918,16.5 12.47,16.5 C13.021,16.5 13.47,16.95 13.47,17.5 C13.47,18.05 13.021,18.5 12.47,18.5 L12.47,18.5 Z M0,15 L0,16.5 C0,17.88 1.121,19 2.5,19 L21.5,19 C22.879,19 24,17.88 24,16.5 L24,15 L0,15 L0,15 Z" id="Fill-1588"></path>
                <path d="M5.718,5.3 C5.533,4.81 5.409,4.38 5.344,4 L3,4 L5.718,5.3" id="Fill-1589"></path>
                <path d="M1.386,4 L0,4 L0,6.49 C0.001,6.43 0.015,6.36 0.043,6.3 C0.155,6.04 0.451,5.93 0.703,6.04 L8.787,9.64 C8.086,8.58 7.507,7.59 7.061,6.71 L1.386,4" id="Fill-1590"></path>
                <polyline id="Fill-1591" points="15.761 14.13 6.476 10 4 14.13 15.761 14.13"></polyline>
                <path d="M22.065,13.78 L12.2,9 C11.964,9.37 11.713,9.75 11.446,10.13 C11.329,10.3 11.172,10.43 11,10.53 L18.318,13.78 L22.065,13.78" id="Fill-1592"></path>
                <polyline id="Fill-1593" points="1 6.77 1 4 0 4 0 13.5 3.217 13.5 5.938 8.96 1 6.77"></polyline>
                <path d="M14.932,4 C14.758,5.05 14.085,6.57 13,8.37 L16.261,9.95 L20.509,4 L14.932,4" id="Fill-1594"></path>
                <polyline id="Fill-1595" points="22.806 4 21.564 4 17 10.39 22.806 13.2 22.806 14 23.806 14 23.806 4 22.806 4"></polyline>
            </g>
        </g>
    </g>
</svg>