<?xml version="1.0" encoding="UTF-8"?>
<svg width="104px" height="141px" viewBox="0 0 104 119" version="1.1" xmlns="http://www.w3.org/2000/svg" xmlns:xlink="http://www.w3.org/1999/xlink">
    <!-- Generator: Sketch 49.3 (51167) - http://www.bohemiancoding.com/sketch -->
    <title>Page 1</title>
    <desc>Created with Sketch.</desc>
    <defs></defs>
    <g id="Page-1" stroke="none" stroke-width="1" fill="none" fill-rule="evenodd">
        <g id="wunder_landingpage_mobile_01" transform="translate(-134.000000, -1064.000000)">
            <g id="Benefits" transform="translate(42.000000, 445.000000)">
                <g id="Help-Nature" transform="translate(0.000000, 620.000000)">
                    <g id="Page-1" transform="translate(93.000000, 0.000000)">
                        <path d="M68.101015,17.3881741 C69.6801084,16.2615074 71.4241178,13.8459148 68.9923234,12.4924704 C66.6239215,11.1741741 63.1411458,13.3186926 61.0382299,14.3827667 C60.5091645,14.6499889 60.9734075,15.4439519 61.501043,15.1825074 C64.030071,13.9306556 66.6506131,12.9831 69.3879308,12.3176926 C69.9646598,12.1775815 69.7191925,11.3022481 69.1438935,11.424063 C67.4794822,11.7774704 66.1491925,12.7293593 64.9638,13.933063 C64.2826879,14.6244704 63.6630617,15.374137 63.0381925,16.1165815 C62.5648935,16.6789519 61.8732953,17.2653963 61.6097159,17.9702852 C61.5410804,18.1542111 61.654043,18.403137 61.8203888,18.4936556 C61.842314,18.5056926 61.8642393,18.5172481 61.8866411,18.5292852 C62.0625196,18.6246185 62.2994075,18.6092111 62.4423981,18.457063 L62.4843421,18.4118037 C62.8899589,17.9789519 62.2426879,17.3226926 61.8356411,17.7565074 C61.8218187,17.7714333 61.8079963,17.7868407 61.7936972,17.8017667 C61.9786318,17.7776926 62.164043,17.7536185 62.3494542,17.729063 C62.327529,17.7175074 62.3056037,17.7054704 62.2832019,17.6934333 C62.3532673,17.8677296 62.4238093,18.0420259 62.4938748,18.2168037 C62.7422019,17.5533222 63.5915664,16.8826185 64.0467533,16.3448037 C64.5033701,15.805063 64.9604636,15.2633963 65.4499682,14.7535074 C66.5624355,13.5960259 67.7983514,12.6552111 69.3879308,12.3176926 C69.3064262,12.0196556 69.2253981,11.7221 69.1438935,11.424063 C66.3317439,12.1082481 63.6349402,13.0967296 61.0382299,14.3827667 C61.1926598,14.6495074 61.3466131,14.9157667 61.501043,15.1825074 C62.8179869,14.5166185 64.1649589,13.8738407 65.5686505,13.413063 C66.3102953,13.1699148 67.237828,12.8612852 68.0180804,13.099137 C70.8178374,13.9528037 68.5700243,15.9230259 67.6377252,16.5879519 C67.1596598,16.9293222 67.6172299,17.7333963 68.101015,17.3881741" id="Fill-1" fill="#5DDB56"></path>
                        <path d="M48.2366579,26.955837 C55.5410972,28.1046519 62.8584056,24.8392444 69.0622935,21.1852815 C71.8977981,19.5150222 74.475443,17.363763 76.2013402,14.5080963 C78.0249477,11.4911333 78.8085364,7.98354074 79.5134804,4.56454074 C79.8804897,2.78305926 78.7317981,1.08631852 76.8600505,1.04587407 C69.5112841,0.886985185 60.6058075,0.912503704 54.2022093,5.09946667 C51.249929,7.02876296 49.9840037,9.71494815 48.2943308,12.811837 C46.4997981,16.1013185 43.7815271,20.7755037 43.701929,24.5893185 C43.6533121,26.9249852 45.8720692,26.5836519 48.2366579,26.955837 Z" id="Fill-3" fill="#04DE47"></path>
                        <path d="M32.4713664,21.0082778 C30.4013383,19.9740556 28.310815,19.4930556 26.0162916,19.2927593 C23.7131888,19.0915 21.4191421,20.1699815 19.1956374,19.4434259 C16.4149458,18.5348704 14.8163103,22.1353889 16.5183757,24.0897222 C17.8639178,25.6352778 18.3429364,27.8207222 19.4639832,29.5280556 C20.8128617,31.5796481 22.7241701,33.5123148 24.7007776,34.9476111 C26.8384879,36.4994259 29.4571234,36.8817222 32.0090299,37.1503889 C34.634815,37.4267593 37.2653664,37.6636481 39.8935346,37.9202778 C42.4997776,38.1745 41.9101981,36.4863889 42.8939738,35.4926111 C44.0250299,34.3500556 42.8481981,29.7187963 41.8939738,28.5613148 C39.2095626,25.3060185 36.2977963,22.9197593 32.4713664,21.0082778 Z" id="Fill-7" fill="#04DE47"></path>
                        <path d="M77.1650019,7.49291111 C75.9724598,10.2989852 74.7966,13.1450222 73.0554505,15.6612444 C71.3376561,18.1432815 68.9306467,19.7345778 66.2195439,20.9300963 C64.7319645,21.5863556 63.2377121,22.2782444 61.6586187,22.6773926 C60.1109832,23.0683556 58.4603944,23.1434667 56.8751047,23.2975407 C53.6358897,23.6124296 50.383329,23.8343926 47.1269551,23.7766148 C45.3557776,23.7453185 45.3557776,26.5253926 47.1269551,26.5566889 C50.647385,26.6192815 54.1649551,26.3568741 57.6653664,25.9986519 C59.3254879,25.8286889 61.0380393,25.7304667 62.6547869,25.2903926 C64.362572,24.8252815 65.9917121,24.043837 67.6084598,23.330763 C70.3791421,22.1082815 72.8790953,20.4293556 74.7513196,17.9998 C76.8590019,15.2630593 78.1973944,12.0573556 79.5410299,8.89594815 C80.232628,7.26998519 77.8623196,5.85202222 77.1650019,7.49291111" id="Fill-9" fill="#10C748"></path>
                        <path d="M39.7351486,35.2858519 C38.7628121,35.7971852 36.7437841,35.4490741 35.6723075,35.4086296 C34.4077935,35.3604815 33.145186,35.2521481 31.900214,35.021037 C29.4245692,34.5607407 26.8216626,33.7109259 24.9227467,31.9775926 C21.7045037,29.0405556 20.0801299,24.5964815 17.8766439,20.9194074 C16.9605505,19.3911852 14.5802327,20.7865185 15.5001393,22.3224444 C18.0668215,26.6052222 19.9728869,31.9005556 24.1529804,34.905 C26.5414009,36.621963 29.5017841,37.4895926 32.3739897,37.8935556 C33.9016065,38.1087778 35.4368495,38.207963 36.9792421,38.2137407 C38.3591019,38.219037 39.8695598,38.3461481 41.1240645,37.686037 C42.6950551,36.8593333 41.305186,34.4596296 39.7351486,35.2858519" id="Fill-11" fill="#10C748"></path>
                        <path d="M66.6434159,67.099163 C65.3650794,65.4654963 64.0190607,64.7374963 61.9428364,64.7100519 C58.1607336,64.6599778 52.667986,67.7573481 53.3881822,67.851237 C51.6003224,65.1169037 49.8677523,61.2092 46.6533224,59.947237 C43.9474626,58.8850889 40.1110234,59.4007556 37.5124065,60.5948296 C36.2183411,61.1894593 35.3308458,62.1745704 34.8866215,63.5395704 C34.4309579,64.939237 34.6883411,67.1030148 32.7603505,67.1087926 C31.1822103,67.1131259 29.5230421,66.4178667 27.9501449,66.2194963 C26.1098551,65.9879037 24.3057897,66.0861259 22.5632103,66.7616444 C21.0975561,67.3293111 19.7953879,68.1844222 18.5589953,69.1493111 C17.4369953,70.024163 15.7730607,71.1132741 15.1200701,72.4238667 C14.5004439,73.6675333 14.8917617,74.7219778 15.7368364,75.7268296 C16.9084065,77.120237 18.2958925,78.4106074 19.7491542,79.4997185 C21.1485561,80.5493481 22.4459579,80.658163 24.1399206,80.5194963 C26.2113785,80.3500148 28.2828364,80.1709037 30.354771,79.9966074 C34.374715,79.6581259 38.3946589,79.3196444 42.4146028,78.9816444 C44.6423972,78.7938667 46.8949766,78.6831259 49.1065654,78.3412741 C51.0397991,78.0427556 52.6269953,77.1173481 54.4753879,76.6267185 C56.6412196,76.0513481 59.2498458,76.3965704 61.4790701,76.3749037 C63.8469953,76.3517926 66.2153972,76.3286815 68.5837991,76.3055704 C69.6295374,76.2954593 72.4030794,74.6386815 71.3206402,73.222163 C69.7620421,71.1816444 68.2258458,69.1209037 66.6434159,67.099163 Z" id="Fill-13" fill="#D5D2D2"></path>
                        <path d="M66.8936019,69.9988852 C67.4793869,70.8260704 68.0408636,71.6070333 68.1833776,72.6335519 C68.325415,73.6538111 68.3416206,74.4742556 68.8401813,75.4044778 C69.6838262,76.9779593 73.0612841,76.5758852 72.2162093,75.0009593 C71.6480598,73.940737 70.9197421,71.5391444 70.384957,70.3989963 C69.8911626,69.3459963 69.1552374,68.3748481 68.4369477,67.4682185 C66.897415,65.5235148 64.7611346,64.4247741 62.342686,64.0525889 C60.6101159,63.7858481 59.863228,66.4638481 61.6110505,66.7329963 C63.9313121,67.0902556 65.524228,68.0633296 66.8936019,69.9988852 Z" id="Fill-19" fill="#C1BFBE"></path>
                        <path d="M44.0085673,60.6876593 C44.9337168,61.2822889 46.0042402,61.5278444 46.8307262,62.2832889 C47.5881,62.9751778 48.2401374,63.8668815 48.7815953,64.7330667 C49.7501187,66.2829556 49.8707075,68.7919556 52.3115579,68.5637333 C54.0603336,68.4005111 54.0774925,65.6194741 52.3115579,65.7841407 C52.1666607,65.7976222 51.2172028,63.4157333 51.035128,63.1379185 C50.5928103,62.461437 50.0780439,61.8061407 49.5647075,61.1840667 C48.3607262,59.7237333 46.9231935,59.2677704 45.3974832,58.2874741 C43.8989411,57.3245111 42.5166981,59.7290296 44.0085673,60.6876593" id="Fill-21" fill="#C1BFBE"></path>
                        <path d="M34.0034159,66.3453074 C30.2399019,65.4492704 26.2223411,64.0972704 22.384472,65.3197519 C20.701472,65.8556407 21.4202383,68.5399 23.1156308,68.0001593 C26.4396869,66.941863 30.0144533,68.2505296 33.272257,69.0257148 C34.9943411,69.435937 35.7293131,66.7560111 34.0034159,66.3453074" id="Fill-23" fill="#C1BFBE"></path>
                        <path d="M85.1040813,87.8676259 C81.2252215,84.2849222 77.4002215,80.714737 72.4055579,78.8099963 C67.0300626,76.7603296 61.0344645,76.0698852 55.3801374,77.1618852 C52.6085019,77.6977741 49.9789037,78.7281444 47.2377729,79.3540704 C44.4265766,79.9954037 41.3808757,79.8398852 38.5143897,79.9482185 C35.1398103,80.0758111 31.7647542,80.1971444 28.3906514,80.3309963 C25.6032869,80.441737 23.0837916,80.9809963 21.9227075,83.8097 C21.7059972,84.3377247 22.0550533,84.1335889 22.9698757,83.1972926 C19.3431561,81.0811815 10.827586,73.4227 9.66507196,71.8992926 C8.41867009,70.264663 6.74472617,68.8409222 4.56364206,69.1529222 C2.64423084,69.4278481 1.15855794,71.0234778 0.763903738,72.9128111 C0.283931776,75.2167 1.35731495,77.5268481 2.66138972,79.3540704 C5.23236168,82.9565148 8.92962336,85.8468481 12.1950533,88.7785889 C15.6916514,91.9173667 19.2406794,95.0046259 22.8788383,97.9758481 C26.1947916,100.685144 29.6361,103.217737 33.6455579,104.776293 C37.8647355,106.4167 42.4890533,106.604478 46.9594178,106.511552 C51.7095673,106.412848 56.4592402,106.122996 61.1903243,105.690144 C63.7651093,105.454219 66.3360813,105.171589 68.9013336,104.841774 C70.2330533,104.670367 71.6510439,104.343922 72.9994458,104.460922 C74.2672963,104.571181 75.2811,105.210589 76.327315,105.892367 C78.467885,107.287219 80.5769972,108.734552 82.700885,110.155404 C84.4939879,111.355737 87.2570439,112.547404 88.2875299,114.547959 C89.0420439,116.013589 91.5205486,116.106033 92.2478944,114.547959 L99.3264084,99.3909222 C100.007997,97.9310704 101.032287,95.1789222 98.0866794,95.053737 C92.9261467,94.834663 88.7355673,91.2225889 85.1040813,87.8676259 Z" id="Fill-25" fill="#EBEAEA"></path>
                        <path d="M55.008457,89.8554704 C49.5538402,89.7187296 44.1044664,89.2873222 38.704186,88.4885444 C33.6718682,87.7446556 28.2186813,87.0604704 23.5957935,84.8018407 C22.0081206,84.0261741 20.6111019,86.4225074 22.2068776,87.2020259 C27.0852421,89.5858407 32.6575879,90.3846185 37.9725505,91.1694333 C43.6187748,92.0028778 49.3036065,92.492063 55.008457,92.635063 C56.7801112,92.6798407 56.7791579,89.8997667 55.008457,89.8554704" id="Fill-27" fill="#C1BFBE"></path>
                        <path d="M84.7236308,107.963507 C82.3719112,106.93073 80.3995935,105.238804 78.1093598,104.090952 C76.9773505,103.523285 75.3901542,104.754915 76.2271262,105.992804 C77.8967804,108.462322 80.3004533,109.997767 82.9934439,111.139359 C84.3132477,111.698841 85.8670794,112.027211 87.0662944,112.824063 C88.3341449,113.666656 89.1673037,114.771656 90.6453505,115.301285 C91.5052009,115.609433 92.3807804,114.809211 92.3869766,113.960841 C92.3888832,113.682063 92.3912664,113.402804 92.3931729,113.123544 C92.3997772,112.238142 94.8146791,109.311236 95.0171103,108.605047 C95.223744,107.884197 93.2089936,109.393324 92.3126215,109.411322 C89.699229,109.463804 87.1296869,109.020359 84.7236308,107.963507 Z" id="Fill-29" fill="#C1BFBE"></path>
                        <path d="M76.8489449,103.614044 C76.5915617,103.641007 76.3351318,103.653526 76.0763187,103.643415 C75.9571598,103.6386 75.8389542,103.626563 75.720272,103.616452 C75.6177953,103.605378 75.6411505,103.607785 75.790814,103.625119 C75.7126458,103.611637 75.6349542,103.59623 75.5572626,103.578896 C74.8542252,103.432044 74.037272,103.785452 73.8647299,104.550044 C73.7079168,105.244822 74.0720664,106.101859 74.8261037,106.259785 C75.4933935,106.399415 76.1692626,106.464896 76.8489449,106.393637 C77.5624682,106.319489 78.2602626,105.808156 78.2249916,105.004081 C78.1940103,104.315081 77.6153748,103.534119 76.8489449,103.614044" id="Fill-31" fill="#C1BFBE"></path>
                        <path d="M76.3779336,103.437726 C68.2822794,103.614911 60.1847187,103.755022 52.0876346,103.854207 C45.3475318,103.936541 37.2614103,105.000615 31.4698121,100.756356 C30.0351393,99.7048 28.6600458,102.115096 30.0813729,103.157022 C36.0069056,107.499022 43.9738682,106.729615 50.887943,106.648244 C59.3854009,106.548096 67.8823822,106.403652 76.3779336,106.217319 C78.1462514,106.1788 78.1524477,103.398726 76.3779336,103.437726" id="Fill-33" fill="#C1BFBE"></path>
                        <path d="M30.9327393,100.717404 C29.1901598,100.087626 27.8093467,98.7823296 26.4099449,97.6051074 C24.8890009,96.3258111 23.368057,95.0465148 21.8471131,93.766737 C18.8052252,91.2081444 15.7628607,88.6490704 12.7209729,86.0904778 C11.3692346,84.9532185 9.41216916,86.9094778 10.7748701,88.0558852 C14.121328,90.8706259 17.4673093,93.6853667 20.8137673,96.5001074 C23.7017019,98.929663 26.5996458,102.096367 30.2015804,103.397811 C31.8721879,104.001589 32.5909542,101.316848 30.9327393,100.717404" id="Fill-35" fill="#C1BFBE"></path>
                        <path d="M11.923657,86.0059778 C11.7387224,85.9096815 11.5547411,85.8129037 11.3702832,85.7166074 C11.0728626,86.2327556 10.7754421,86.7489037 10.4780215,87.2650519 C10.6267318,87.3069407 10.7763953,87.3488296 10.9251056,87.390237 C11.6262364,87.5857185 12.4717879,86.6997926 11.9613112,86.0290889 C10.0862271,83.5648667 8.14775047,81.1531259 6.14874112,78.7900148 C4.26793738,76.5674963 2.14071308,74.1990889 1.93051682,71.1407185 C1.84948879,69.957237 0.0144420561,69.9480889 0.0964233645,71.1407185 C0.294703738,74.0291259 1.77513364,76.3537185 3.54821776,78.5434963 C5.82415234,81.3543852 8.1844514,84.0834222 10.3774514,86.9641259 C10.7225355,86.5105704 11.0676196,86.0570148 11.4131804,85.6034593 C11.2639935,85.5615704 11.1148065,85.5196815 10.9656196,85.4782741 C10.0495262,85.2226074 9.47613364,86.3569778 10.0728813,87.0272 C10.4670589,87.4692 10.8564701,87.6979037 11.4360589,87.793237 C12.5904701,87.9819778 13.0876009,86.1966444 11.923657,86.0059778" id="Fill-37" fill="#C1BFBE"></path>
                        <path d="M12.6767888,86.2021815 C11.326957,84.3590704 9.81983551,82.6681074 8.1192,81.1480704 C7.23790093,80.3603667 5.93525607,81.6661444 6.82227477,82.458663 C8.40089159,83.8698852 9.8384243,85.4245889 11.092929,87.1377 C11.7873869,88.085737 13.3807794,87.162737 12.6767888,86.2021815" id="Fill-39" fill="#C1BFBE"></path>
                        <path d="M22.6861346,96.881537 C23.8491252,97.8546111 25.1508168,98.6360556 26.2985551,99.6168333 C27.5020598,100.644796 29.0258636,101.103648 30.2708355,102.146537 C31.1731065,102.902944 32.4776579,101.598611 31.5682374,100.836426 C31.0305925,100.385759 30.4915178,99.9288333 29.9062093,99.5422037 C29.1831533,99.0640926 28.2756393,98.8257593 27.595957,98.3062407 C26.4038916,97.3943148 25.1389009,96.5382407 23.9835364,95.5709444 C23.0803121,94.8159815 21.7757607,96.1198333 22.6861346,96.881537" id="Fill-41" fill="#C1BFBE"></path>
                        <path d="M76.1451925,103.360593 C71.3964729,103.142481 66.6515664,103.260444 61.9190523,103.714963 C60.7541551,103.826667 60.7431925,105.680852 61.9190523,105.568185 C66.6515664,105.114148 71.3964729,104.995704 76.1451925,105.213815 C77.3253421,105.267741 77.3229589,103.414519 76.1451925,103.360593" id="Fill-43" fill="#C1BFBE"></path>
                        <path d="M76.2066308,103.247974 C73.9221168,103.047678 71.6743037,103.143974 69.4079019,103.487752 C68.2444346,103.663974 68.7387056,105.449789 69.8959766,105.27453 C71.9922196,104.957233 74.0960888,104.916307 76.2066308,105.101196 C77.3829673,105.204233 77.3758178,103.35053 76.2066308,103.247974" id="Fill-45" fill="#C1BFBE"></path>
                        <path d="M55.4208421,92.0744741 C55.4208421,92.0744741 21.0644776,90.2852889 21.4186178,85.9919185 C21.7727579,81.6985481 22.1268981,79.5516222 31.6901131,79.5516222 C41.2528514,79.5516222 48.337085,78.8361407 50.816543,77.7629185 L53.2955243,76.6896963 C53.2955243,76.6896963 65.2352439,73.6732148 72.4252907,77.3729185 C72.6664682,77.4947333 72.9000196,77.6232889 73.1297579,77.7629185 C80.2139916,82.0562889 89.7767299,92.0744741 94.0268888,93.505437 C98.2775243,94.9368815 101.819403,96.0101037 101.819403,96.0101037 L90.6623187,116.941067 C90.6623187,116.941067 77.9118421,105.133696 74.0158234,105.133696 C70.119328,105.133696 41.2528514,109.248437 34.5237112,106.38603 C27.7940944,103.523622 6.86169252,85.276437 1.9385243,76.6896963 C-1.95797103,69.8916593 4.41750561,65.9560296 7.60572056,68.8179556 C9.35830935,70.3924 11.6575991,72.3818815 13.8887299,74.2957704 C17.9367953,77.7662889 21.7727579,80.9830667 21.7727579,80.9830667" id="Stroke-47" stroke="#4D4D4D" stroke-width="2" stroke-linecap="round" stroke-linejoin="round"></path>
                        <path d="M13.9805299,74.1850296 C13.9805299,74.1850296 19.6477262,60.9466963 33.8152402,67.3869926 C34.4739505,63.7161778 38.525829,59.1112889 43.3784551,58.8002519 C43.7287822,58.7752148 44.0829224,58.7752148 44.4408757,58.8002519 C49.7539318,59.1579926 52.5870533,64.8823259 52.5870533,67.3869926 C54.3582308,65.5982889 62.5044084,63.8091037 66.0462869,65.5982889 C69.5810159,67.3836222 73.1124084,72.7290296 72.4251,77.3729185 C72.4251,77.3835111 72.4212869,77.3945852 72.4212869,77.4051778" id="Stroke-49" stroke="#4D4D4D" stroke-width="2" stroke-linecap="round" stroke-linejoin="round"></path>
                        <path d="M43.3783598,58.8000593 L43.3783598,27.3145407 L43.3783598,26.2413185 C43.3783598,26.2413185 46.3253972,8.92435556 54.3581355,4.41624444 C63.9213505,-0.95082963 75.6094065,0.122874074 79.151285,0.838355556 C79.8595654,4.41624444 78.442528,18.3700593 68.5256495,22.6634296 C57.5849579,27.4007259 52.2328178,27.3145407 44.0866402,27.3145407" id="Stroke-51" stroke="#4D4D4D" stroke-width="2" stroke-linecap="round" stroke-linejoin="round"></path>
                        <path d="M65.6922421,11.2142815 C64.5125692,11.8223926 47.2779056,21.5040222 45.2483916,26.1912444" id="Stroke-53" stroke="#4D4D4D" stroke-width="2" stroke-linecap="round" stroke-linejoin="round"></path>
                        <path d="M42.2202785,38.4060926 C42.2202785,38.4060926 29.2109888,39.8370556 23.1896523,35.1859444 C17.1683159,30.5348333 16.1058953,21.9480926 15.7517551,19.0856852 C19.293157,19.0856852 29.0022224,19.1251667 32.7528673,20.8743889 C37.3571664,23.0213148 41.6073252,27.3146852 43.0243626,30.1770926" id="Stroke-55" stroke="#4D4D4D" stroke-width="2" stroke-linecap="round" stroke-linejoin="round"></path>
                        <path d="M42.2202785,36.8747889 C42.2202785,36.8747889 35.2318486,29.4614185 28.8568486,28.745937" id="Stroke-57" stroke="#4D4D4D" stroke-width="2" stroke-linecap="round" stroke-linejoin="round"></path>
                    </g>
                </g>
            </g>
        </g>
    </g>
</svg>