<?xml version="1.0" encoding="UTF-8"?>
<svg width="33px" height="62px" viewBox="0 0 33 60" version="1.1" xmlns="http://www.w3.org/2000/svg" xmlns:xlink="http://www.w3.org/1999/xlink">
    <!-- Generator: Sketch 50.2 (55047) - http://www.bohemiancoding.com/sketch -->
    <title>Combined Shape</title>
    <desc>Created with Sketch.</desc>
    <defs></defs>
    <g id="Page-1" stroke="none" stroke-width="1" fill="none" fill-rule="evenodd">
        <g id="wunder_landingpage_desktop_03" transform="translate(-704.000000, -1004.000000)" fill="#06A0E3">
            <g id="Benifits" transform="translate(234.000000, 1001.000000)">
                <g id="Make-Friends" transform="translate(341.000000, 3.000000)">
                    <path d="M155.653846,24.999537 L160.730769,24.999537 C161.431385,24.999537 162,25.5595267 162,26.2495139 L162,28.7494676 C162,37.2887702 155.276383,44.3111856 146.769231,44.951571 L146.769231,52.4990278 L150.576923,52.4990278 C153.942923,52.4990278 156.704769,55.0939797 156.910385,58.3589193 C156.953538,58.481417 156.973846,58.6114146 156.973846,58.7489121 C156.973846,59.4388993 156.405231,59.9988889 155.704615,59.9988889 C155.691923,60.0013889 155.671615,59.9988889 155.653846,59.9988889 L135.346154,59.9988889 C134.645538,59.9988889 134.076923,59.4388993 134.076923,58.7489121 C134.076923,55.3039759 136.922538,52.4990278 140.423077,52.4990278 L144.230769,52.4990278 L144.230769,44.951571 C135.723617,44.3111856 129,37.2887702 129,28.7494676 L129,26.2495139 C129,25.5595267 129.568615,24.999537 130.269231,24.999537 L135.346154,24.999537 L155.653846,24.999537 Z M156.923077,27.4994908 L156.923077,28.7494676 C156.923077,34.9518527 151.797923,39.9992593 145.5,39.9992593 C139.202077,39.9992593 134.076923,34.9518527 134.076923,28.7494676 L134.076923,27.4994908 L131.538462,27.4994908 L131.538462,28.7494676 C131.538462,36.3318272 137.803385,42.499213 145.5,42.499213 C153.196615,42.499213 159.461538,36.3318272 159.461538,28.7494676 L159.461538,27.4994908 L156.923077,27.4994908 Z M140.423077,9.99981482 L134.206385,9.99981482 C134.846077,4.38991871 139.636154,0 145.5,0 C151.363846,0 156.153923,4.38991871 156.793615,9.99981482 L150.576923,9.99981482 C149.876308,9.99981482 149.307692,10.5598044 149.307692,11.2497917 C149.307692,11.9397789 149.876308,12.4997685 150.576923,12.4997685 L156.923077,12.4997685 L156.923077,14.9997222 L150.576923,14.9997222 C149.876308,14.9997222 149.307692,15.5597119 149.307692,16.2496991 C149.307692,16.9396863 149.876308,17.4996759 150.576923,17.4996759 L156.923077,17.4996759 L156.923077,22.4995833 L134.076923,22.4995833 L134.076923,17.4996759 L140.423077,17.4996759 C141.123692,17.4996759 141.692308,16.9396863 141.692308,16.2496991 C141.692308,15.5597119 141.123692,14.9997222 140.423077,14.9997222 L134.076923,14.9997222 L134.076923,12.4997685 L140.423077,12.4997685 C141.123692,12.4997685 141.692308,11.9397789 141.692308,11.2497917 C141.692308,10.5598044 141.123692,9.99981482 140.423077,9.99981482 Z" id="Combined-Shape"></path>
                </g>
            </g>
        </g>
    </g>
</svg>