<?xml version="1.0" encoding="UTF-8"?>
<svg width="165px" height="38px" viewBox="0 0 165 38" version="1.1" xmlns="http://www.w3.org/2000/svg" xmlns:xlink="http://www.w3.org/1999/xlink">
    <!-- Generator: Sketch 50.2 (55047) - http://www.bohemiancoding.com/sketch -->
    <title>Button - Play Store</title>
    <desc>Created with Sketch.</desc>
    <defs>
        <linearGradient x1="19.2147947%" y1="-35.1571758%" x2="69.3023416%" y2="93.5367562%" id="linearGradient-1">
            <stop stop-color="#19A3B4" offset="0%"></stop>
            <stop stop-color="#5BC3AF" offset="34.816763%"></stop>
            <stop stop-color="#C8F7A6" offset="92.2336229%"></stop>
            <stop stop-color="#D7FEA5" offset="100%"></stop>
        </linearGradient>
        <path d="M15.3477141,7.50954499 L1.97585559,0.224547465 C1.59670321,0.0190126726 1.24700564,-0.028800557 0.963738073,0.0587535387 L11.9165417,10.9098728 L15.3477141,7.50954499" id="path-2"></path>
        <linearGradient x1="-14.698314%" y1="-114.321644%" x2="74.8444046%" y2="114.156353%" id="linearGradient-4">
            <stop stop-color="#FC227C" offset="0%"></stop>
            <stop stop-color="#FEEB7B" offset="100%"></stop>
        </linearGradient>
        <linearGradient x1="28.1511582%" y1="-14.8137139%" x2="48.1878808%" y2="82.8944571%" id="linearGradient-5">
            <stop stop-color="#0E4DA0" offset="0%"></stop>
            <stop stop-color="#6BFED4" offset="100%"></stop>
        </linearGradient>
        <path d="M0.963111375,0.0587535387 C0.556384274,0.184806599 0.29317105,0.592771427 0.29317105,1.20999675 L0.295677843,20.6358289 C0.295677843,21.2462237 0.550743991,21.6479791 0.945563827,21.7821045 L11.9165417,10.9117357 L0.963111375,0.0587535387" id="path-6"></path>
        <linearGradient x1="132.244588%" y1="16.465744%" x2="5.95853392%" y2="126.310354%" id="linearGradient-8">
            <stop stop-color="#FC472E" offset="0%"></stop>
            <stop stop-color="#FC472F" offset="0.331892433%"></stop>
            <stop stop-color="#893CD8" offset="100%"></stop>
        </linearGradient>
        <path d="M0.945563827,21.7821045 C1.23071149,21.877731 1.58730273,21.8330225 1.97585559,21.6218991 L15.3633815,14.3269664 L11.9165417,10.9117357 L0.945563827,21.7821045" id="path-9"></path>
    </defs>
    <g id="Page-1" stroke="none" stroke-width="1" fill="none" fill-rule="evenodd">
        <g id="wunder_the_app" transform="translate(-954.000000, -3304.000000)">
            <g id="Footer" transform="translate(0.000000, 3100.000000)">
                <g id="Button---Play-Store" transform="translate(954.000000, 204.000000)">
                    <rect id="Button" fill="#000000" opacity="0.300000012" x="0" y="0" width="165" height="38" rx="2"></rect>
                    <g id="Icon---Google-Play" transform="translate(14.687500, 8.090909)">
                        <mask id="mask-3" fill="white">
                            <use xlink:href="#path-2"></use>
                        </mask>
                        <use id="Fill-1" fill="url(#linearGradient-1)" xlink:href="#path-2"></use>
                        <path d="M15.3652616,14.3269664 L19.930131,11.8400575 C20.8557641,11.3339824 20.8557641,10.5106013 19.930131,10.0057681 L15.3483408,7.50954499 L11.9165417,10.9098728 L15.3652616,14.3269664" id="Fill-2" fill="url(#linearGradient-4)"></path>
                        <mask id="mask-7" fill="white">
                            <use xlink:href="#path-6"></use>
                        </mask>
                        <use id="Fill-3" fill="url(#linearGradient-5)" xlink:href="#path-6"></use>
                        <mask id="mask-10" fill="white">
                            <use xlink:href="#path-9"></use>
                        </mask>
                        <use id="Fill-4" fill="url(#linearGradient-8)" xlink:href="#path-9"></use>
                    </g>
                    <path d="M50.4325,16.4117404 C52.5025001,16.4117404 53.8025001,14.9355845 53.8025001,13.0903897 C53.8025001,11.2651429 52.5025001,9.75906494 50.4325,9.75906494 L48.3025,9.75906494 L48.3025,16.4117404 L50.4325,16.4117404 Z M50.4325,15.893091 L48.8725,15.893091 L48.8725,10.2777143 L50.4325,10.2777143 C52.2025001,10.2777143 53.2025001,11.5344416 53.2025001,13.0903897 C53.2025001,14.6463377 52.1925001,15.893091 50.4325,15.893091 L50.4325,15.893091 Z M58.2125002,16.5314287 C60.1625002,16.5314287 61.4525002,15.0353248 61.4525002,13.0903897 C61.4525002,11.1454546 60.1625002,9.64935065 58.2125002,9.64935065 C56.2525001,9.64935065 54.9725001,11.1454546 54.9725001,13.0903897 C54.9725001,15.0353248 56.2525001,16.5314287 58.2125002,16.5314287 L58.2125002,16.5314287 Z M58.2125002,16.0127793 C56.6025001,16.0127793 55.5725001,14.7660261 55.5725001,13.0903897 C55.5725001,11.4047792 56.6025001,10.168 58.2125002,10.168 C59.8125002,10.168 60.8525002,11.4047792 60.8525002,13.0903897 C60.8525002,14.7660261 59.8125002,16.0127793 58.2125002,16.0127793 L58.2125002,16.0127793 Z M68.6125003,16.4117404 L70.5125003,9.75906494 L69.8725003,9.75906494 L68.2625003,15.6138183 L66.6325003,9.75906494 L66.1125003,9.75906494 L64.4725002,15.6138183 L62.8625002,9.75906494 L62.2225002,9.75906494 L64.1325002,16.4117404 L64.7725003,16.4117404 L66.3725003,10.6966234 L67.9725003,16.4117404 L68.6125003,16.4117404 Z M76.8625004,16.4117404 L76.8625004,9.75906494 L76.2925004,9.75906494 L76.2925004,15.3943897 L72.1125004,9.75906494 L71.5325004,9.75906494 L71.5325004,16.4117404 L72.1025004,16.4117404 L72.1025004,10.6966234 L76.3025004,16.4117404 L76.8625004,16.4117404 Z M82.1925005,16.4117404 L82.1925005,15.893091 L78.9625005,15.893091 L78.9625005,9.75906494 L78.3825005,9.75906494 L78.3825005,16.4117404 L82.1925005,16.4117404 Z M86.3525006,16.5314287 C88.3025006,16.5314287 89.5925006,15.0353248 89.5925006,13.0903897 C89.5925006,11.1454546 88.3025006,9.64935065 86.3525006,9.64935065 C84.3925005,9.64935065 83.1125005,11.1454546 83.1125005,13.0903897 C83.1125005,15.0353248 84.3925005,16.5314287 86.3525006,16.5314287 L86.3525006,16.5314287 Z M86.3525006,16.0127793 C84.7425006,16.0127793 83.7125005,14.7660261 83.7125005,13.0903897 C83.7125005,11.4047792 84.7425006,10.168 86.3525006,10.168 C87.9525006,10.168 88.9925006,11.4047792 88.9925006,13.0903897 C88.9925006,14.7660261 87.9525006,16.0127793 86.3525006,16.0127793 L86.3525006,16.0127793 Z M96.4925007,16.4117404 L93.7625007,9.75906494 L93.0525007,9.75906494 L90.3225006,16.4117404 L90.9825006,16.4117404 L91.6425007,14.7760001 L95.1725007,14.7760001 L95.8325007,16.4117404 L96.4925007,16.4117404 Z M94.9825007,14.2573507 L91.8325007,14.2573507 L93.4125007,10.3674805 L94.9825007,14.2573507 Z M99.6025008,16.4117404 C101.672501,16.4117404 102.972501,14.9355845 102.972501,13.0903897 C102.972501,11.2651429 101.672501,9.75906494 99.6025008,9.75906494 L97.4725007,9.75906494 L97.4725007,16.4117404 L99.6025008,16.4117404 Z M99.6025008,15.893091 L98.0425007,15.893091 L98.0425007,10.2777143 L99.6025008,10.2777143 C101.372501,10.2777143 102.372501,11.5344416 102.372501,13.0903897 C102.372501,14.6463377 101.362501,15.893091 99.6025008,15.893091 L99.6025008,15.893091 Z M107.552501,16.4117404 L107.552501,13.2599481 L111.142501,13.2599481 L111.142501,12.7412987 L107.552501,12.7412987 L107.552501,10.2777143 L111.212501,10.2777143 L111.212501,9.75906494 L106.982501,9.75906494 L106.982501,16.4117404 L107.552501,16.4117404 Z M117.002501,16.4117404 L115.072501,13.619013 C116.072501,13.5791169 116.922501,12.9108572 116.922501,11.704 C116.922501,10.4871688 116.042501,9.75906494 114.892501,9.75906494 L112.402501,9.75906494 L112.402501,16.4117404 L112.972501,16.4117404 L112.972501,13.6589092 L114.442501,13.6589092 L116.312501,16.4117404 L117.002501,16.4117404 Z M114.842501,13.1402598 L112.972501,13.1402598 L112.972501,10.2777143 L114.842501,10.2777143 C115.732501,10.2777143 116.322501,10.8661818 116.322501,11.704 C116.322501,12.5418182 115.732501,13.1402598 114.842501,13.1402598 L114.842501,13.1402598 Z M121.332501,16.5314287 C123.282501,16.5314287 124.572501,15.0353248 124.572501,13.0903897 C124.572501,11.1454546 123.282501,9.64935065 121.332501,9.64935065 C119.372501,9.64935065 118.092501,11.1454546 118.092501,13.0903897 C118.092501,15.0353248 119.372501,16.5314287 121.332501,16.5314287 L121.332501,16.5314287 Z M121.332501,16.0127793 C119.722501,16.0127793 118.692501,14.7660261 118.692501,13.0903897 C118.692501,11.4047792 119.722501,10.168 121.332501,10.168 C122.932501,10.168 123.972501,11.4047792 123.972501,13.0903897 C123.972501,14.7660261 122.932501,16.0127793 121.332501,16.0127793 L121.332501,16.0127793 Z M132.222501,16.4117404 L132.222501,9.75906494 L131.362501,9.75906494 L129.102501,15.2946494 L126.832501,9.75906494 L125.982501,9.75906494 L125.982501,16.4117404 L126.552501,16.4117404 L126.552501,10.4771948 L128.992501,16.4117404 L129.212501,16.4117404 L131.642501,10.4771948 L131.642501,16.4117404 L132.222501,16.4117404 Z M51.3725001,28.3755845 C52.5725001,28.3755845 53.5225001,27.8868572 54.2025001,27.1288313 L54.2025001,24.5754806 L51.0225,24.5754806 L51.0225,25.8122598 L52.7825001,25.8122598 L52.7825001,26.6101819 C52.5125001,26.8595325 51.9625001,27.1188572 51.3725001,27.1188572 C50.1525,27.1188572 49.2725,26.1912728 49.2725,24.9345455 C49.2725,23.6778182 50.1525,22.7502338 51.3725001,22.7502338 C52.0725001,22.7502338 52.6425001,23.1491948 52.9525001,23.6179741 L54.1225001,22.9796364 C53.6225001,22.1916883 52.7525001,21.4935065 51.3725001,21.4935065 C49.4125,21.4935065 47.8125,22.830026 47.8125,24.9345455 C47.8125,27.029091 49.4125,28.3755845 51.3725001,28.3755845 L51.3725001,28.3755845 Z M58.5025002,28.3755845 C60.5125002,28.3755845 61.9825002,26.9393248 61.9825002,24.9345455 C61.9825002,22.9297663 60.5125002,21.4935065 58.5025002,21.4935065 C56.4825001,21.4935065 55.0125001,22.9297663 55.0125001,24.9345455 C55.0125001,26.9393248 56.4825001,28.3755845 58.5025002,28.3755845 L58.5025002,28.3755845 Z M58.5025002,27.1188572 C57.2625001,27.1188572 56.4725001,26.1713247 56.4725001,24.9345455 C56.4725001,23.6877922 57.2625001,22.7502338 58.5025002,22.7502338 C59.7325002,22.7502338 60.5225002,23.6877922 60.5225002,24.9345455 C60.5225002,26.1713247 59.7325002,27.1188572 58.5025002,27.1188572 L58.5025002,27.1188572 Z M66.1525003,28.3755845 C68.1625003,28.3755845 69.6325003,26.9393248 69.6325003,24.9345455 C69.6325003,22.9297663 68.1625003,21.4935065 66.1525003,21.4935065 C64.1325002,21.4935065 62.6625002,22.9297663 62.6625002,24.9345455 C62.6625002,26.9393248 64.1325002,28.3755845 66.1525003,28.3755845 L66.1525003,28.3755845 Z M66.1525003,27.1188572 C64.9125003,27.1188572 64.1225002,26.1713247 64.1225002,24.9345455 C64.1225002,23.6877922 64.9125003,22.7502338 66.1525003,22.7502338 C67.3825003,22.7502338 68.1725003,23.6877922 68.1725003,24.9345455 C68.1725003,26.1713247 67.3825003,27.1188572 66.1525003,27.1188572 L66.1525003,27.1188572 Z M73.8725004,28.3755845 C75.0725004,28.3755845 76.0225004,27.8868572 76.7025004,27.1288313 L76.7025004,24.5754806 L73.5225004,24.5754806 L73.5225004,25.8122598 L75.2825004,25.8122598 L75.2825004,26.6101819 C75.0125004,26.8595325 74.4625004,27.1188572 73.8725004,27.1188572 C72.6525004,27.1188572 71.7725004,26.1912728 71.7725004,24.9345455 C71.7725004,23.6778182 72.6525004,22.7502338 73.8725004,22.7502338 C74.5725004,22.7502338 75.1425004,23.1491948 75.4525004,23.6179741 L76.6225004,22.9796364 C76.1225004,22.1916883 75.2525004,21.4935065 73.8725004,21.4935065 C71.9125004,21.4935065 70.3125003,22.830026 70.3125003,24.9345455 C70.3125003,27.029091 71.9125004,28.3755845 73.8725004,28.3755845 L73.8725004,28.3755845 Z M82.0225005,28.2558962 L82.0225005,27.0091429 L79.2025005,27.0091429 L79.2025005,21.6032208 L77.7725004,21.6032208 L77.7725004,28.2558962 L82.0225005,28.2558962 Z M87.7025006,28.2558962 L87.7025006,27.0091429 L84.4025005,27.0091429 L84.4025005,25.493091 L87.6325006,25.493091 L87.6325006,24.2463377 L84.4025005,24.2463377 L84.4025005,22.849974 L87.7025006,22.849974 L87.7025006,21.6032208 L82.9825005,21.6032208 L82.9825005,28.2558962 L87.7025006,28.2558962 Z M92.8025007,28.2558962 L92.8025007,25.882078 L94.5025007,25.882078 C95.9425007,25.882078 96.7425007,24.9046234 96.7425007,23.7476364 C96.7425007,22.5806753 95.9525007,21.6032208 94.5025007,21.6032208 L91.3825006,21.6032208 L91.3825006,28.2558962 L92.8025007,28.2558962 Z M94.3025007,24.6353247 L92.8025007,24.6353247 L92.8025007,22.849974 L94.3025007,22.849974 C94.8625007,22.849974 95.2925007,23.1890909 95.2925007,23.7476364 C95.2925007,24.2962078 94.8625007,24.6353247 94.3025007,24.6353247 L94.3025007,24.6353247 Z M101.822501,28.2558962 L101.822501,27.0091429 L99.0025008,27.0091429 L99.0025008,21.6032208 L97.5725007,21.6032208 L97.5725007,28.2558962 L101.822501,28.2558962 Z M109.002501,28.2558962 L106.432501,21.6032208 L104.652501,21.6032208 L102.082501,28.2558962 L103.692501,28.2558962 L104.112501,27.1288313 L106.972501,27.1288313 L107.392501,28.2558962 L109.002501,28.2558962 Z M106.582501,25.882078 L104.502501,25.882078 L105.542501,23.0195325 L106.582501,25.882078 Z M112.902501,28.2558962 L112.902501,25.5329871 L115.452501,21.6032208 L113.842501,21.6032208 L112.192501,24.2662858 L110.542501,21.6032208 L108.922501,21.6032208 L111.482501,25.5329871 L111.482501,28.2558962 L112.902501,28.2558962 Z M121.022501,28.3755845 C122.812501,28.3755845 123.692501,27.4579741 123.692501,26.2411429 C123.692501,23.7576104 119.862501,24.4657663 119.862501,23.4184935 C119.862501,23.0195325 120.202501,22.7602078 120.802501,22.7602078 C121.482501,22.7602078 122.202501,22.9896104 122.742501,23.4883117 L123.532501,22.4310649 C122.872501,21.8226494 121.992501,21.5034805 120.932501,21.5034805 C119.362501,21.5034805 118.402501,22.4210909 118.402501,23.5282078 C118.402501,26.0316884 122.242501,25.2237923 122.242501,26.3807793 C122.242501,26.7697663 121.872501,27.1188572 121.082501,27.1188572 C120.162501,27.1188572 119.432501,26.6999481 118.962501,26.2112208 L118.182501,27.3183377 C118.812501,27.9467014 119.732501,28.3755845 121.022501,28.3755845 L121.022501,28.3755845 Z M127.612501,28.2558962 L127.612501,22.849974 L129.552501,22.849974 L129.552501,21.6032208 L124.232501,21.6032208 L124.232501,22.849974 L126.182501,22.849974 L126.182501,28.2558962 L127.612501,28.2558962 Z M133.632501,28.3755845 C135.642501,28.3755845 137.112501,26.9393248 137.112501,24.9345455 C137.112501,22.9297663 135.642501,21.4935065 133.632501,21.4935065 C131.612501,21.4935065 130.142501,22.9297663 130.142501,24.9345455 C130.142501,26.9393248 131.612501,28.3755845 133.632501,28.3755845 L133.632501,28.3755845 Z M133.632501,27.1188572 C132.392501,27.1188572 131.602501,26.1713247 131.602501,24.9345455 C131.602501,23.6877922 132.392501,22.7502338 133.632501,22.7502338 C134.862501,22.7502338 135.652501,23.6877922 135.652501,24.9345455 C135.652501,26.1713247 134.862501,27.1188572 133.632501,27.1188572 L133.632501,27.1188572 Z M143.522501,28.2558962 L142.012501,25.7224936 C142.732501,25.5529351 143.482501,24.9145975 143.482501,23.7476364 C143.482501,22.5108572 142.622501,21.6032208 141.232501,21.6032208 L138.112501,21.6032208 L138.112501,28.2558962 L139.532501,28.2558962 L139.532501,25.892052 L140.572501,25.892052 L141.882501,28.2558962 L143.522501,28.2558962 Z M141.032501,24.6452987 L139.532501,24.6452987 L139.532501,22.849974 L141.032501,22.849974 C141.592501,22.849974 142.022501,23.1890909 142.022501,23.7376624 C142.022501,24.3061819 141.592501,24.6452987 141.032501,24.6452987 L141.032501,24.6452987 Z M149.262502,28.2558962 L149.262502,27.0091429 L145.962501,27.0091429 L145.962501,25.493091 L149.192502,25.493091 L149.192502,24.2463377 L145.962501,24.2463377 L145.962501,22.849974 L149.262502,22.849974 L149.262502,21.6032208 L144.542501,21.6032208 L144.542501,28.2558962 L149.262502,28.2558962 Z" id="DOWNLOAD-FROM" fill="#FFFFFF"></path>
                </g>
            </g>
        </g>
    </g>
</svg>