<?xml version="1.0" encoding="UTF-8"?>
<svg width="16px" height="14px" viewBox="0 0 16 14" version="1.1" xmlns="http://www.w3.org/2000/svg" xmlns:xlink="http://www.w3.org/1999/xlink">
    <!-- Generator: Sketch 50.2 (55047) - http://www.bohemiancoding.com/sketch -->
    <title>Shape</title>
    <desc>Created with Sketch.</desc>
    <defs></defs>
    <g id="Page-1" stroke="none" stroke-width="1" fill="none" fill-rule="evenodd">
        <g id="wunder_the_app" transform="translate(-987.000000, -3176.000000)" fill="#FFFFFF">
            <g id="Footer" transform="translate(0.000000, 3100.000000)">
                <g id="Social-Media" transform="translate(954.000000, 52.000000)">
                    <path d="M47.1151611,26.2133468 C47.7932148,25.776542 48.3134942,25.0839232 48.5576686,24.2588473 C47.922815,24.6643074 47.2212831,24.9575329 46.4727945,25.1162791 C45.8755063,24.4287159 45.0218348,24 44.0770676,24 C42.2645419,24 40.7957387,25.5824065 40.7957387,27.5338726 C40.7957387,27.8109201 40.8229735,28.0808898 40.8793215,28.338726 C38.1520808,28.1911021 35.7338146,26.7856421 34.1138111,24.6461072 C33.8311322,25.1698686 33.6696015,25.776542 33.6696015,26.4236603 C33.6696015,27.6491405 34.2490462,28.7310415 35.1299525,29.3660263 C34.5918295,29.3478261 34.0856371,29.1870576 33.6423666,28.9241658 L33.6423666,28.9676441 C33.6423666,30.6804853 34.7730821,32.1092012 36.2766332,32.4327604 C36.0005283,32.5156724 35.7112755,32.5571284 35.4107531,32.5571284 C35.1994483,32.5571284 34.9928391,32.5358948 34.793743,32.4944388 C35.2107178,33.8978766 36.4231379,34.9211325 37.8600106,34.9484328 C36.735869,35.8968655 35.3205963,36.4610718 33.7832365,36.4610718 C33.5184011,36.4610718 33.2563832,36.445905 33,36.4125379 C34.4528379,37.4145602 36.1780243,38 38.0318718,38 C44.0704936,38 47.3706052,32.6147624 47.3706052,27.9443883 C47.3706052,27.7906977 47.3687269,27.6380182 47.362153,27.487361 C48.0035804,26.9888777 48.5614251,26.3660263 49,25.6572295 C48.4111639,25.9383215 47.7781886,26.1284125 47.1151611,26.2133468 Z" id="Shape"></path>
                </g>
            </g>
        </g>
    </g>
</svg>