<?xml version="1.0" encoding="UTF-8"?>
<svg width="22px" height="22px" viewBox="0 0 22 22" version="1.1" xmlns="http://www.w3.org/2000/svg" xmlns:xlink="http://www.w3.org/1999/xlink">
    <!-- Generator: Sketch 51.2 (57519) - http://www.bohemiancoding.com/sketch -->
    <title>Combined Shape</title>
    <desc>Created with Sketch.</desc>
    <defs></defs>
    <g id="Page-1" stroke="none" stroke-width="1" fill="none" fill-rule="evenodd">
        <g id="Artboard-5" transform="translate(-31.000000, -157.000000)" fill="#B2B2B2">
            <path d="M36.5,162 C36.224,162 36,161.78 36,161.5 L36,157.5 C36,157.22 36.224,157 36.5,157 C36.776,157 37,157.22 37,157.5 L37,161.5 C37,161.78 36.776,162 36.5,162 Z M48.5,162 C48.224,162 48,161.78 48,161.5 L48,157.5 C48,157.22 48.224,157 48.5,157 C48.776,157 49,157.22 49,157.5 L49,161.5 C49,161.78 48.776,162 48.5,162 Z M53,164 L31,164 L31,161.916667 C31,160.308333 32.4391667,159 34.2083333,159 L34.6666667,159 L34.6666667,161.083333 C34.6666667,161.775 35.2835833,162.333333 36.0416667,162.333333 C36.79975,162.333333 37.4166667,161.775 37.4166667,161.083333 L37.4166667,159 L46.5833333,159 L46.5833333,161.083333 C46.5833333,161.775 47.20025,162.333333 47.9583333,162.333333 C48.7164167,162.333333 49.3333333,161.775 49.3333333,161.083333 L49.3333333,159 L49.7916667,159 C51.5608333,159 53,160.308333 53,161.916667 L53,164 Z M31,165 L53,165 L53,175.733333 C53,177.534667 51.5608333,179 49.7916667,179 L34.2083333,179 C32.4391667,179 31,177.534667 31,175.733333 L31,165 Z M35,167 C34.4477153,167 34,167.447715 34,168 L34,170 C34,170.552285 34.4477153,171 35,171 L38,171 C38.5522847,171 39,170.552285 39,170 L39,168 C39,167.447715 38.5522847,167 38,167 L35,167 Z" id="Combined-Shape"></path>
        </g>
    </g>
</svg>