<?xml version="1.0" encoding="UTF-8"?>
<svg width="24px" height="23px" viewBox="0 0 24 23" version="1.1" xmlns="http://www.w3.org/2000/svg" xmlns:xlink="http://www.w3.org/1999/xlink">
    <!-- Generator: Sketch 51.2 (57519) - http://www.bohemiancoding.com/sketch -->
    <title>Combined Shape</title>
    <desc>Created with Sketch.</desc>
    <defs></defs>
    <g id="Page-1" stroke="none" stroke-width="1" fill="none" fill-rule="evenodd">
        <g id="Artboard-5" transform="translate(-78.000000, -123.000000)" fill="#B2B2B2">
            <path d="M95,137.394138 C95,136.016138 96.121,134.894138 97.5,134.894138 L102,134.894138 L102,139.894138 L97.5,139.894138 C96.121,139.894138 95,138.772138 95,137.394138 Z M99,137.394138 C99,136.567138 98.327,135.894138 97.5,135.894138 C96.673,135.894138 96,136.567138 96,137.394138 C96,138.221138 96.673,138.894138 97.5,138.894138 C98.327,138.894138 99,138.221138 99,137.394138 Z M97,137.394138 C97,137.118138 97.225,136.894138 97.5,136.894138 C97.775,136.894138 98,137.118138 98,137.394138 C98,137.670138 97.775,137.894138 97.5,137.894138 C97.225,137.894138 97,137.670138 97,137.394138 Z M97.5,140.894138 L102,140.894138 L102,142.394138 C102,144.324138 100.43,145.894138 98.5,145.894138 L81.5,145.894138 C79.57,145.894138 78,144.324138 78,142.394138 L78,132.394138 C78,130.464138 79.57,128.894138 81.5,128.894138 L98.5,128.894138 C100.43,128.894138 102,130.464138 102,132.394138 L102,133.894138 L97.5,133.894138 C95.57,133.894138 94,135.464138 94,137.394138 C94,139.324138 95.57,140.894138 97.5,140.894138 Z M101.443,129.018138 C100.76,128.421138 99.901,128.036138 98.95,127.939138 L98.039,126.117138 C99.543,126.557138 100.771,127.628138 101.443,129.018138 Z M81.034,127.941138 C80.083,128.040138 79.223,128.430138 78.542,129.030138 C79.428,127.179138 81.315,125.894138 83.5,125.894138 L84.836,125.894138 L81.034,127.941138 Z M90.201,127.894138 L83.231,127.894138 L91.54,123.420138 C92.382,122.968138 93.346,122.877138 94.256,123.165138 C95.02,123.406138 95.649,123.899138 96.088,124.552138 L90.201,127.894138 Z M97.809,127.894138 L92.228,127.894138 L96.575,125.426138 L97.809,127.894138 Z" id="Combined-Shape"></path>
        </g>
    </g>
</svg>