<?xml version="1.0" encoding="UTF-8"?>
<svg width="29px" height="26px" viewBox="0 0 29 26" version="1.1" xmlns="http://www.w3.org/2000/svg" xmlns:xlink="http://www.w3.org/1999/xlink">
    <!-- Generator: Sketch 51.2 (57519) - http://www.bohemiancoding.com/sketch -->
    <title>Group 3</title>
    <desc>Created with Sketch.</desc>
    <defs></defs>
    <g id="Page-1" stroke="none" stroke-width="1" fill="none" fill-rule="evenodd">
        <g id="Artboard-5" transform="translate(-76.000000, -87.000000)" fill="#B2B2B2">
            <g id="Group-3" transform="translate(76.000000, 87.000000)">
                <path d="M4,9.4 C3.68457143,9.4 3.42857143,9.158 3.42857143,8.85 C3.42857143,8.542 3.68457143,8.3 4,8.3 C4.31542857,8.3 4.57142857,8.542 4.57142857,8.85 C4.57142857,9.158 4.31542857,9.4 4,9.4 L4,9.4 Z M4,5 C1.79428571,5 0,6.727 0,8.85 C0,10.786 3.168,15.263 3.52914286,15.758 C3.63657143,15.912 3.81257143,16 4,16 C4.18742857,16 4.36342857,15.912 4.47085714,15.758 C4.832,15.263 8,10.786 8,8.85 C8,6.727 6.20571429,5 4,5 L4,5 Z" id="Fill-1650"></path>
                <path d="M15,4.4 C14.6845714,4.4 14.4285714,4.158 14.4285714,3.85 C14.4285714,3.542 14.6845714,3.3 15,3.3 C15.3154286,3.3 15.5714286,3.542 15.5714286,3.85 C15.5714286,4.158 15.3154286,4.4 15,4.4 L15,4.4 Z M15,0 C12.7942857,0 11,1.727 11,3.85 C11,5.786 14.168,10.263 14.5291429,10.758 C14.6365714,10.912 14.8125714,11 15,11 C15.1874286,11 15.3634286,10.912 15.4708571,10.758 C15.832,10.263 19,5.786 19,3.85 C19,1.727 17.2057143,0 15,0 L15,0 Z" id="Fill-1651"></path>
                <path d="M23.5,17.4285714 C22.4892222,17.4285714 21.6666667,16.7107143 21.6666667,15.8214286 C21.6666667,14.9321429 22.4892222,14.2142857 23.5,14.2142857 C24.5107778,14.2142857 25.3333333,14.9321429 25.3333333,15.8214286 C25.3333333,16.7107143 24.5107778,17.4285714 23.5,17.4285714 L23.5,17.4285714 Z M23.5,11 C20.4676667,11 18,13.1642857 18,15.8214286 C18,18.2642857 22.4647778,24.9821429 22.9732222,25.7321429 C23.0832222,25.9035714 23.2836667,26 23.5,26 C23.7163333,26 23.9167778,25.9035714 24.0267778,25.7321429 C24.5352222,24.9821429 29,18.2642857 29,15.8214286 C29,13.1642857 26.5323333,11 23.5,11 L23.5,11 Z" id="Fill-1652"></path>
                <path d="M23.5615284,26 C23.4660701,26 23.3694034,25.9783347 23.2799867,25.9350042 L3.9466534,16.7272682 C3.7545284,16.6406071 3.63248673,16.4564524 3.62523673,16.2722977 C3.61919507,16.0773103 3.7291534,15.8931556 3.9140284,15.7848293 L14.7890284,9.82688248 C15.0741951,9.67522565 15.4451534,9.75105406 15.6203617,10.0110372 C15.7943617,10.2710203 15.7049451,10.5959993 15.4197784,10.7584887 L5.44861173,16.2181345 L23.8454867,24.9817327 C24.1403201,25.1225569 24.2526951,25.4475358 24.0956117,25.707519 C23.9880701,25.8916737 23.7790284,26 23.5615284,26" id="Fill-1653"></path>
            </g>
        </g>
    </g>
</svg>