<?xml version="1.0" encoding="UTF-8"?>
<svg width="15px" height="15px" viewBox="0 0 15 15" version="1.1" xmlns="http://www.w3.org/2000/svg" xmlns:xlink="http://www.w3.org/1999/xlink">
    <!-- Generator: Sketch 50.2 (55047) - http://www.bohemiancoding.com/sketch -->
    <title>Shape</title>
    <desc>Created with Sketch.</desc>
    <defs></defs>
    <g id="Page-1" stroke="none" stroke-width="1" fill="none" fill-rule="evenodd">
        <g id="wunder_the_app" transform="translate(-1058.000000, -3175.000000)" fill="#FFFFFF">
            <g id="Footer" transform="translate(0.000000, 3100.000000)">
                <g id="Social-Media" transform="translate(954.000000, 52.000000)">
                    <path d="M116.10107,23 L106.89893,23 C105.300858,23 104,24.2999765 104,25.8989299 L104,35.1010701 C104,36.7000235 105.300858,38 106.89893,38 L116.10107,38 C117.699142,38 119,36.7000235 119,35.1010701 L119,25.8989299 C119,24.2999765 117.699142,23 116.10107,23 L116.10107,23 Z M116.932738,24.7294802 L117.264346,24.7277164 L117.264346,27.2703434 L114.729657,27.2782808 L114.720837,24.7356538 L116.932738,24.7294802 L116.932738,24.7294802 Z M109.359537,28.9601364 C109.839311,28.2951552 110.618944,27.8594779 111.5,27.8594779 C112.381056,27.8594779 113.160689,28.2951552 113.640463,28.9601364 C113.953551,29.3940499 114.140522,29.9249765 114.140522,30.5 C114.140522,31.9551976 112.956079,33.1396402 111.5,33.1396402 C110.044802,33.1396402 108.86036,31.9551976 108.86036,30.5 C108.86036,29.9249765 109.047331,29.3940499 109.359537,28.9601364 L109.359537,28.9601364 Z M117.538629,35.1010701 C117.538629,35.8939323 116.893932,36.5386289 116.10107,36.5386289 L106.89893,36.5386289 C106.106068,36.5386289 105.461371,35.8939323 105.461371,35.1010701 L105.461371,28.9601364 L107.701493,28.9601364 C107.507467,29.4363829 107.398989,29.9558443 107.398989,30.5 C107.398989,32.7612888 109.238711,34.6018932 111.5,34.6018932 C113.762171,34.6018932 115.601893,32.7612888 115.601893,30.5 C115.601893,29.9558443 115.491651,29.4363829 115.299389,28.9601364 L117.538629,28.9601364 L117.538629,35.1010701 L117.538629,35.1010701 Z" id="Shape"></path>
                </g>
            </g>
        </g>
    </g>
</svg>