<?xml version="1.0" encoding="UTF-8"?>
<svg width="54px" height="54px" viewBox="0 0 54 54" version="1.1" xmlns="http://www.w3.org/2000/svg" xmlns:xlink="http://www.w3.org/1999/xlink">
    <!-- Generator: Sketch 50.2 (55047) - http://www.bohemiancoding.com/sketch -->
    <title>Combined Shape</title>
    <desc>Created with Sketch.</desc>
    <defs></defs>
    <g id="Page-1" stroke="none" stroke-width="1" fill="none" fill-rule="evenodd">
        <g id="wunder_landingpage_desktop_05" transform="translate(-124.000000, -8928.000000)" fill="#04DE47">
            <g id="48-Reasons" transform="translate(10.000000, 7318.000000)">
                <g id="Employees" transform="translate(0.000000, 94.000000)">
                    <g id="Competitive-Compensation--&amp;-Equity-Copy-2" transform="translate(0.000000, 1430.000000)">
                        <path d="M124.088809,120.548255 C123.554057,119.804993 123.218849,119.29261 123.1845,119.2325 C122.92575,118.85 122.9415,118.3325 123.2205,117.95 C145.04325,88.3625 155.4855,86 166.875,86 C167.496,86 168,86.495 168,87.125 C168,98.51 165.6465,108.95 136.04325,130.775 C135.84525,130.9325 135.609,131 135.375,131 C135.159,131 134.94525,130.9325 134.7585,130.82 C134.705187,130.785605 134.195094,130.44888 133.451264,129.911552 L129.3,133.025 C129.102,133.1825 128.8635,133.25 128.625,133.25 C128.49225,133.25 128.364,133.2275 128.23575,133.1825 C128.194202,133.170959 127.660111,132.969978 126.913757,132.540082 C123.641489,139.409873 119.468711,140 115.125,140 C114.504,140 114,139.505 114,138.875 C114,134.529733 114.592586,130.347376 121.459852,127.083475 C121.034303,126.339177 120.834725,125.803578 120.81975,125.7575 C120.68925,125.3975 120.7455,125.015 120.975,124.7 L124.088809,120.548255 Z M147.10875,125.87 C147.50025,126.05 147.75,126.455 147.75,126.8825 L147.75,129.875 C147.75,130.235 147.5835,130.5725 147.3,130.775 L138.3,137.525 C138.102,137.6825 137.8635,137.75 137.625,137.75 C137.454,137.75 137.28075,137.705 137.121,137.6375 C136.74075,137.435 136.5,137.0525 136.5,136.625 L136.5,133.7225 C136.5,133.3175 136.70925,132.9575 137.049,132.755 C137.0895,132.7325 137.30775,132.62 137.3505,132.5975 C140.3925,130.37 143.26575,128.1425 145.9185,126.005 C146.25375,125.735 146.71725,125.6675 147.10875,125.87 Z M127.11975,106.25 C127.55175,106.25 127.94775,106.4975 128.1345,106.88 C128.32125,107.285 128.26725,107.735 127.995,108.0725 C125.83725,110.75 123.61875,113.6075 121.407,116.6225 C121.389,116.6675 121.26975,116.915 121.25175,116.9375 C121.047,117.2975 120.68025,117.5 120.282,117.5 L117.375,117.5 C116.94975,117.5 116.5605,117.2525 116.36925,116.87 C116.178,116.4875 116.2185,116.0375 116.475,115.7 L123.225,106.7 C123.4365,106.4075 123.77175,106.25 124.125,106.25 L127.11975,106.25 Z M151.125,108.5 C154.22775,108.5 156.75,105.98 156.75,102.875 C156.75,99.77 154.22775,97.25 151.125,97.25 C148.02225,97.25 145.5,99.77 145.5,102.875 C145.5,105.98 148.02225,108.5 151.125,108.5 Z M151.125,99.5 C152.98575,99.5 154.5,101.0075 154.5,102.875 C154.5,104.7425 152.98575,106.25 151.125,106.25 C149.26425,106.25 147.75,104.7425 147.75,102.875 C147.75,101.0075 149.26425,99.5 151.125,99.5 Z" id="Combined-Shape"></path>
                    </g>
                </g>
            </g>
        </g>
    </g>
</svg>