<?xml version="1.0" encoding="UTF-8"?>
<svg width="29px" height="29px" viewBox="0 0 19 29" version="1.1" xmlns="http://www.w3.org/2000/svg" xmlns:xlink="http://www.w3.org/1999/xlink">
    <!-- Generator: Sketch 50.2 (55047) - http://www.bohemiancoding.com/sketch -->
    <title>Fill 2058</title>
    <desc>Created with Sketch.</desc>
    <defs></defs>
    <g id="Page-1" stroke="none" stroke-width="1" fill="none" fill-rule="evenodd" opacity="0.300000012">
        <g id="wunder_solutions_fleet" transform="translate(-237.000000, -2186.000000)" fill="#000000">
            <g id="Group-29" transform="translate(232.000000, 2186.000000)">
                <g id="Group-11">
                    <g id="Lock-&amp;-Unlock" transform="translate(5.000000, 0.000000)">
                        <path d="M11.844125,23.3691667 C11.9046875,23.5504167 11.875,23.7558333 11.763375,23.9129167 C11.65175,24.07 11.4724375,24.1666667 11.28125,24.1666667 L7.71875,24.1666667 C7.5275625,24.1666667 7.34825,24.07 7.236625,23.9129167 C7.125,23.7558333 7.0953125,23.5504167 7.155875,23.3691667 L7.896875,21.1095833 C7.4064375,20.6625 7.125,20.0220833 7.125,19.3333333 C7.125,18.0041667 8.1901875,16.9166667 9.5,16.9166667 C10.8098125,16.9166667 11.875,18.0041667 11.875,19.3333333 C11.875,20.0220833 11.5935625,20.6625 11.103125,21.1095833 L11.844125,23.3691667 L11.844125,23.3691667 Z M4.75,8.45833333 C4.75,5.79395833 6.880375,3.625 9.5,3.625 C12.119625,3.625 14.25,5.79395833 14.25,8.45833333 L14.25,13.2916667 L4.75,13.2916667 L4.75,8.45833333 L4.75,8.45833333 Z M17.8125,13.4004167 L17.8125,8.45833333 C17.8125,3.79416667 14.08375,0 9.5,0 C4.91625,0 1.1875,3.79416667 1.1875,8.45833333 L1.1875,13.4004167 C0.4975625,13.6541667 0,14.31875 0,15.1041667 L0,25.9791667 C0,27.6466667 1.332375,29 2.96875,29 L16.03125,29 C17.667625,29 19,27.6466667 19,25.9791667 L19,15.1041667 C19,14.31875 18.5024375,13.6541667 17.8125,13.4004167 L17.8125,13.4004167 Z" id="Fill-2058"></path>
                    </g>
                </g>
            </g>
        </g>
    </g>
</svg>