<svg xmlns="http://www.w3.org/2000/svg" viewBox="0 0 325.42 469.77"><defs><style>.cls-1{fill:#4d4e4e;}.cls-2{fill:#ededed;}.cls-3{fill:#f5f5f4;}.cls-4{fill:#04de47;}.cls-5{fill:#30302f;}.cls-6{fill:#ccc8c4;}.cls-7{fill:#ccc;}.cls-8{fill:#bfbfbf;}.cls-9{fill:#4c4c4c;}.cls-10{fill:#424242;}.cls-11{fill:#3a3a3a;}.cls-12{fill:none;stroke-width:7px;}.cls-12,.cls-13,.cls-14,.cls-15{stroke:#4d4e4e;stroke-linecap:round;stroke-linejoin:round;}.cls-13{fill:#757575;}.cls-13,.cls-14,.cls-15{stroke-width:6px;}.cls-14{fill:#c6c6c6;}.cls-15{fill:#fafafa;}</style></defs><title>Speeches</title><g id="Layer_2" data-name="Layer 2"><g id="Layer_1-2" data-name="Layer 1"><path class="cls-1" d="M272.43,217.77a3,3,0,0,1-1.11-5.72c5.28-2.11,23.37-6.62,36.82.1a3,3,0,0,1-2.65,5.3c-10.65-5.32-26.13-2.23-32,.1A2.88,2.88,0,0,1,272.43,217.77Z"/><path class="cls-2" d="M86,192.44v24.83a13.84,13.84,0,0,1-13.79,13.79H59.8A13.84,13.84,0,0,1,46,217.27V192.44a13.83,13.83,0,0,1,13.8-13.8H72.22A13.83,13.83,0,0,1,86,192.44Z"/><path class="cls-1" d="M72.22,234.51H59.8a17.26,17.26,0,0,1-17.24-17.24V192.44A17.26,17.26,0,0,1,59.8,175.19H72.22a17.27,17.27,0,0,1,17.24,17.25v24.83A17.27,17.27,0,0,1,72.22,234.51ZM59.8,182.09a10.36,10.36,0,0,0-10.35,10.35v24.83A10.36,10.36,0,0,0,59.8,227.61H72.22a10.35,10.35,0,0,0,10.34-10.34V192.44a10.36,10.36,0,0,0-10.34-10.35Z"/><path class="cls-2" d="M320.53,192.44v24.83a13.84,13.84,0,0,1-13.79,13.79H294.32a13.84,13.84,0,0,1-13.8-13.79V192.44a13.83,13.83,0,0,1,13.8-13.8h12.42A13.83,13.83,0,0,1,320.53,192.44Z"/><path class="cls-1" d="M306.74,234.51H294.32a17.26,17.26,0,0,1-17.24-17.24V192.44a17.26,17.26,0,0,1,17.24-17.25h12.42A17.27,17.27,0,0,1,324,192.44v24.83A17.27,17.27,0,0,1,306.74,234.51Zm-12.42-52.42A10.36,10.36,0,0,0,284,192.44v24.83a10.36,10.36,0,0,0,10.35,10.34h12.42a10.35,10.35,0,0,0,10.34-10.34V192.44a10.36,10.36,0,0,0-10.34-10.35Z"/><path class="cls-3" d="M209.48,416.61v49.66h-7.35l-14.2-43.5c6.44-2.35,11.45-9.89,12.72-14.76Z"/><path class="cls-3" d="M209.48,365.11v51.5l-8.83-8.6L184,391.78l0-.6C205,390.89,209.48,373.76,209.48,365.11Z"/><path class="cls-2" d="M209.48,358v7.13c0,8.65-4.51,25.78-25.54,26.07a5.24,5.24,0,0,1-.56,0h-.1c-21.41-.06-26.11-19.9-26.11-26.21h-.11V350.61a113.68,113.68,0,0,0,52.42.33Z"/><path class="cls-4" d="M187.93,422.77l14.2,43.5H164.48l14.19-43.5.11-.28a14.56,14.56,0,0,0,5.18,1A11.45,11.45,0,0,0,187.93,422.77Z"/><path class="cls-4" d="M184,391.78,200.65,408c-1.27,4.87-6.28,12.41-12.72,14.76a11.45,11.45,0,0,1-4,.74,14.56,14.56,0,0,1-5.18-1c-6.23-2.43-11.38-8.72-11.38-14.16l-.56-.58,16.43-16v-.58h.1a5.24,5.24,0,0,0,.56,0Z"/><path class="cls-3" d="M183.28,391.2v.58l-16.43,16-9.09,8.86h-.69V365h.11C157.17,371.3,161.87,391.14,183.28,391.2Z"/><path class="cls-3" d="M178.78,422.49l-.11.28-14.19,43.5h-7.42V416.61h.69l9.09-8.86.56.58C167.4,413.77,172.55,420.06,178.78,422.49Z"/><path class="cls-4" d="M157.06,416.61v49.66H92.66c0-37.25-2.76-53.8,5.52-71.73C105.49,378.7,156.81,358,156.81,358h.25v58.63Z"/><path class="cls-1" d="M259.56,89.93A106.92,106.92,0,0,0,77,165.53v51.35c-1.29-2.06-2.45-4.06-3.45-6V165.53a110.37,110.37,0,1,1,220.73,0v46.23a62.44,62.44,0,0,1-3.45,6.35V165.53A106.27,106.27,0,0,0,259.56,89.93Z"/><path class="cls-5" d="M88.77,71.72C79.11,48.27,106.7,35.86,179.82,11s86.37,19.36,86.91,22.07c1.38,6.9,8.28,12.41,23.45,11,20.65-1.87,30.35,22.08,31.73,42.77s-22.07,70.18-27.59,84.15c0,0-15.86-47.07-46.56-65.61l-.21-.73c-50.64,14.06-124.83-11.31-134-5.39-27.59,17.93-40,70.35-40,70.35-7.13-9.85-17.93-51-16.55-67.6S79.11,71.72,88.77,71.72Z"/><path class="cls-6" d="M184,353.84a113,113,0,0,1-26.9-3.23v5.89c11.47,3.45,27.74,5.93,52.42.53v-6.09A112.49,112.49,0,0,1,184,353.84Z"/><path class="cls-1" d="M118.84,468.82a2.75,2.75,0,0,1-2.75-2.75V456a2.75,2.75,0,1,1,5.49,0v10.12A2.75,2.75,0,0,1,118.84,468.82Z"/><path class="cls-4" d="M268.11,394.54c8.28,17.93,5.52,34.48,5.52,71.73H209.48V358S260.8,378.7,268.11,394.54Z"/><path class="cls-1" d="M209.48,469.72a3.44,3.44,0,0,1-3.45-3.45V347.87a3.45,3.45,0,0,1,6.9,0v118.4A3.45,3.45,0,0,1,209.48,469.72Z"/><path class="cls-1" d="M157.06,469.72a3.44,3.44,0,0,1-3.45-3.45V347.87a3.45,3.45,0,1,1,6.9,0v118.4A3.45,3.45,0,0,1,157.06,469.72Z"/><path class="cls-1" d="M229.48,440.75a3.45,3.45,0,0,1-3.2-4.73l10.46-26.15-6.2-12.41a3.45,3.45,0,0,1,6.17-3.09l6.89,13.8a3.43,3.43,0,0,1,.12,2.82l-11,27.59A3.43,3.43,0,0,1,229.48,440.75Z"/><path class="cls-1" d="M134.3,440.75a3.46,3.46,0,0,1-3.21-2.17l-11-27.59a3.43,3.43,0,0,1,.11-2.82l6.9-13.8a3.45,3.45,0,0,1,6.17,3.09L127,409.87,137.5,436a3.45,3.45,0,0,1-3.2,4.73Z"/><path class="cls-1" d="M183.38,394.65c-22.44-.06-29.66-20-29.66-29.66a3.45,3.45,0,0,1,6.9,0c0,.22,1,22.7,22.67,22.76h.61c2.26,0,22.13-.93,22.13-22.62a3.45,3.45,0,0,1,6.9,0c0,10.8-6.08,29.16-28.85,29.52Z"/><path class="cls-1" d="M209.48,420.06a3.46,3.46,0,0,1-2.41-1l-25.52-24.83a3.45,3.45,0,0,1,4.81-4.95l25.53,24.84a3.45,3.45,0,0,1-2.41,5.92Z"/><path class="cls-1" d="M157.75,420.06a3.45,3.45,0,0,1-2.41-5.92l25.52-24.84a3.45,3.45,0,1,1,4.81,4.95l-25.52,24.83A3.45,3.45,0,0,1,157.75,420.06Z"/><path class="cls-1" d="M184,427a17.73,17.73,0,0,1-6.42-1.25c-7.62-3-13.59-10.6-13.59-17.37a3.45,3.45,0,1,1,6.9,0c0,3.92,4.29,9,9.19,10.94a9.06,9.06,0,0,0,6.7.27c5.23-1.92,9.57-8.55,10.57-12.4a3.45,3.45,0,0,1,6.68,1.74c-1.4,5.37-6.94,14.23-14.87,17.13A14.74,14.74,0,0,1,184,427Z"/><path class="cls-1" d="M202.13,469.72a3.44,3.44,0,0,1-3.28-2.38l-14.2-43.49a3.45,3.45,0,1,1,6.56-2.14L205.4,465.2a3.44,3.44,0,0,1-2.2,4.35A3.37,3.37,0,0,1,202.13,469.72Z"/><path class="cls-1" d="M164.48,469.72a3.28,3.28,0,0,1-1.07-.17,3.45,3.45,0,0,1-2.21-4.35l14.19-43.49a3.45,3.45,0,1,1,6.56,2.14l-14.19,43.49A3.45,3.45,0,0,1,164.48,469.72Z"/><path class="cls-7" d="M290.87,218.11V240A106.92,106.92,0,0,1,77,240V216.88C92.3,241,128.18,272.45,181.89,272.45,236.67,272.45,275.34,243.48,290.87,218.11Z"/><path class="cls-2" d="M290.87,165.53v52.58c-15.53,25.37-54.2,54.34-109,54.34C128.18,272.45,92.3,241,77,216.88V165.53a106.92,106.92,0,1,1,213.83,0Z"/><path class="cls-1" d="M264.44,85.05A113.82,113.82,0,0,0,70.15,165.53V240A113.83,113.83,0,0,0,184,353.84a112.49,112.49,0,0,0,25.52-2.9A114,114,0,0,0,297.77,240v-74.5A113.14,113.14,0,0,0,264.44,85.05Zm29.88,126.71a62.44,62.44,0,0,1-3.45,6.35V240A106.92,106.92,0,0,1,77,240V216.88c-1.29-2.06-2.45-4.06-3.45-6V165.53a110.37,110.37,0,1,1,220.73,0Z"/><path class="cls-1" d="M181.33,296.81q-21.66,0-42-12.46a3.45,3.45,0,0,1,3.62-5.87c24.67,15.18,51.36,15.15,79.31-.09a3.45,3.45,0,1,1,3.31,6.05Q202.94,296.8,181.33,296.81Z"/><path class="cls-1" d="M184,262.79c-17.45,0-22.76-3.71-22.76-15.86a3.45,3.45,0,1,1,6.89,0c0,6.34,0,9,15.87,9,5.86,0,10-1.24,11.92-3.58a6.11,6.11,0,0,0,1.26-4.68,3.46,3.46,0,0,1,2.68-4,3.42,3.42,0,0,1,4.06,2.6,12.9,12.9,0,0,1-2.56,10.38C198,260.69,192.16,262.79,184,262.79Z"/><path class="cls-1" d="M117.4,190.37a3.45,3.45,0,0,1-1.29-6.66c6.14-2.45,27.19-7.7,42.83.12a3.45,3.45,0,1,1-3.08,6.17c-12.39-6.19-30.4-2.59-37.18.12A3.43,3.43,0,0,1,117.4,190.37Z"/><path class="cls-1" d="M211.89,190.37a3.45,3.45,0,0,1-1.28-6.66c6.14-2.45,27.19-7.7,42.83.12a3.45,3.45,0,0,1-3.08,6.17c-12.39-6.19-30.4-2.59-37.19.12A3.39,3.39,0,0,1,211.89,190.37Z"/><path class="cls-8" d="M259.14,117.94s-69,15.17-128.29-16.56S244,90.35,244,90.35L266,102.76Z"/><path class="cls-1" d="M218.45,226.23a3.44,3.44,0,0,1-3.45-3.45c0-9.19,7.22-15.86,17.18-15.86,10.25,0,16.62,5.88,16.62,15.35a3.45,3.45,0,0,1-6.9,0c0-5.61-3.27-8.45-9.72-8.45-6.06,0-10.29,3.68-10.29,9A3.44,3.44,0,0,1,218.45,226.23Z"/><path class="cls-1" d="M123.26,226.23a3.44,3.44,0,0,1-3.45-3.45c0-9.19,7.23-15.86,17.18-15.86,10.25,0,16.62,5.88,16.62,15.35a3.45,3.45,0,1,1-6.9,0c0-5.61-3.27-8.45-9.72-8.45-6.05,0-10.28,3.68-10.28,9A3.45,3.45,0,0,1,123.26,226.23Z"/><path class="cls-1" d="M183,313a84.12,84.12,0,0,1-15.61-1.23,3.45,3.45,0,1,1,1.49-6.74c5.35,1.18,19.27,1.7,27.52,0a3.45,3.45,0,1,1,1.4,6.75A77,77,0,0,1,183,313Z"/><path class="cls-9" d="M142.07,24.35C97.35,41.14,81,52.86,88.77,71.72c-9.66,0-30.35,13.8-31.73,30.35s9.42,57.75,16.55,67.6c0,0,12.42-52.42,40-70.35a4,4,0,0,1,.88-.41c-10.91-13.48-5.71-28.8-8.47-36.15S119.43,40.7,142.07,24.35Z"/><path class="cls-10" d="M257.76,46.2c4.24-14.53,1-24.54-5.29-33.07C240.3,4,218.39-2.07,179.82,11,165.5,15.89,153,20.27,142.07,24.35,119.43,40.7,103.31,55.55,106,62.76s-2.44,22.67,8.47,36.15c11.81-4,79.08,17.93,128.07,7C267.34,82.64,257.76,46.2,257.76,46.2Z"/><path class="cls-11" d="M247.76,105.44c30.7,18.54,46.56,65.61,46.56,65.61,5.52-14,29-63.46,27.59-84.15s-11.08-44.64-31.73-42.77C275,45.51,268.11,40,266.73,33.1c-.25-1.28-3.35-11.82-14.26-20,6.33,8.53,9.53,18.54,5.29,33.07,0,0,9.58,36.44-15.21,59.75q2.53-.56,5-1.24Z"/><path class="cls-1" d="M294.07,181.08l-3-8.93c-.15-.45-15.71-45.74-44.73-63.55-32.58,8.26-74,1.32-101.61-3.3-12.5-2.09-26.67-4.46-29.25-3.08C89.38,119.17,77.07,170,77,170.47l-1.74,7.32-4.41-6.1c-7.47-10.32-18.65-52.44-17.2-69.9C55,85.15,72.59,72,84.21,68.94a20.53,20.53,0,0,1,1.07-14.06c7.07-15.57,34.54-27.12,93.43-47.12,30.06-10.21,54-10.35,71.25-.4,16.67,9.62,20.12,24.91,20.15,25.07,1.26,6.28,8.47,9.3,19.76,8.27a25.17,25.17,0,0,1,19.27,6.14c9,7.68,15.06,22.57,16.21,39.83,1.19,17.84-14.24,53.81-23.46,75.29-1.83,4.25-3.4,7.92-4.36,10.36ZM254.82,106c11.2,8.28,21.53,20.86,30.75,37.51a189.33,189.33,0,0,1,8.87,18.29l1.11-2.58c8.39-19.54,24-55.92,22.92-72.11-.79-11.92-4.84-27.39-13.81-35a18.52,18.52,0,0,0-14.17-4.51c-22.23,2-26.39-10-27.14-13.8,0-.12-3.22-12.68-17-20.56-15.41-8.78-37.41-8.42-65.38,1.08C132.72,30.66,98.09,43.37,91.56,57.73c-1.73,3.8-1.6,7.83.4,12.68l2,4.76H88.77c-8.35,0-27.1,12.87-28.29,27.19-1.08,12.88,6,42.71,12.15,57.89,4.87-16,17.32-49.68,39.09-63.83,4.28-2.77,13.55-1.36,34.13,2.08,27.62,4.62,69.36,11.61,100.78,2.89A67.8,67.8,0,0,0,268.82,91a3.45,3.45,0,1,1,4.09,5.55A70.68,70.68,0,0,1,254.82,106Z"/><path class="cls-1" d="M249.33,468.82a2.75,2.75,0,0,1-2.75-2.75V456a2.75,2.75,0,0,1,5.5,0v10.12A2.75,2.75,0,0,1,249.33,468.82Z"/><path class="cls-1" d="M273.63,469.72h-181a3.45,3.45,0,0,1-3.45-3.45c0-8.21-.13-15.47-.25-21.87-.43-22.84-.69-36.63,6.09-51.31,7.66-16.6,55.08-36.14,60.47-38.31a3.45,3.45,0,1,1,2.58,6.4C144.18,366.8,106.83,384,101.31,396c-6.11,13.25-5.88,25.69-5.46,48.29.11,5.52.22,11.68.25,18.55H270.19c0-6.87.14-13,.25-18.55.42-22.6.65-35-5.46-48.29-5.53-12-42.87-29.18-56.79-34.8a3.45,3.45,0,0,1,2.58-6.4c5.38,2.17,52.81,21.71,60.47,38.31,6.78,14.68,6.52,28.47,6.09,51.31-.12,6.4-.25,13.66-.25,21.87A3.45,3.45,0,0,1,273.63,469.72Z"/><line class="cls-12" x1="53.67" y1="466.27" x2="53.67" y2="367.85"/><circle class="cls-13" cx="103.5" cy="321.35" r="27.5"/><circle class="cls-13" cx="22" cy="370.85" r="7"/><polygon class="cls-14" points="27 377.85 94 346.85 76 320.85 18 362.85 27 377.85"/><line class="cls-15" x1="16.02" y1="374.49" x2="3" y2="381.85"/></g></g></svg>