<?xml version="1.0" encoding="UTF-8"?>
<svg width="97px" height="60px" viewBox="0 0 97 60" version="1.1" xmlns="http://www.w3.org/2000/svg" xmlns:xlink="http://www.w3.org/1999/xlink">
    <!-- Generator: Sketch 50.2 (55047) - http://www.bohemiancoding.com/sketch -->
    <title>Group 5</title>
    <desc>Created with Sketch.</desc>
    <defs></defs>
    <g id="Page-1" stroke="none" stroke-width="1" fill="none" fill-rule="evenodd">
        <g id="wunder_landingpage_desktop_05" transform="translate(-954.000000, -8627.000000)">
            <g id="48-Reasons" transform="translate(10.000000, 7318.000000)">
                <g id="Employees" transform="translate(0.000000, 94.000000)">
                    <g id="Competitive-Compensation--&amp;-Equity-Copy" transform="translate(858.000000, 1144.000000)">
                        <g id="Group-5" transform="translate(86.000000, 71.000000)">
                            <path d="M42.8019126,27.0278638 L42.8019126,13.2352941 C42.8019126,11.161525 44.492991,9.47368421 46.5785519,9.47368421 L49.0963115,9.47368421 C51.1800277,9.47368421 52.8729508,11.1621992 52.8729508,13.2352941 L52.8729508,17.2113704 C53.266713,17.0725069 53.6904368,16.996904 54.1318306,16.996904 L56.6495902,16.996904 C58.7333064,16.996904 60.4262295,18.685419 60.4262295,20.7585139 L60.4262295,40.8204334 C60.4262295,42.8935284 58.7333064,44.5820433 56.6495902,44.5820433 L54.1318306,44.5820433 C53.6904368,44.5820433 53.266713,44.5064405 52.8729508,44.367577 L52.8729508,48.3436533 C52.8729508,50.4167482 51.1800277,52.1052632 49.0963115,52.1052632 L46.5785519,52.1052632 C44.492991,52.1052632 42.8019126,50.4174224 42.8019126,48.3436533 L42.8019126,34.5510836 L17.6243169,34.5510836 L17.6243169,48.3436533 C17.6243169,50.4167482 15.9313939,52.1052632 13.8476776,52.1052632 L11.329918,52.1052632 C9.24435714,52.1052632 7.55327869,50.4174224 7.55327869,48.3436533 L7.55327869,44.3672486 C7.15942306,44.506317 6.7356741,44.5820433 6.29439891,44.5820433 L3.77663934,44.5820433 C1.69107845,44.5820433 0,42.8942026 0,40.8204334 L0,20.7585139 C0,18.6847448 1.69107845,16.996904 3.77663934,16.996904 L6.29439891,16.996904 C6.7356741,16.996904 7.15942306,17.0726303 7.55327869,17.2116987 L7.55327869,13.2352941 C7.55327869,11.161525 9.24435714,9.47368421 11.329918,9.47368421 L13.8476776,9.47368421 C15.9313939,9.47368421 17.6243169,11.1621992 17.6243169,13.2352941 L17.6243169,27.0278638 L42.8019126,27.0278638 Z" id="Combined-Shape" fill="#04DE47" fill-rule="nonzero"></path>
                            <path d="M54.6462287,52.4270219 L52.3861967,55 L85.9572102,55 L83.6975387,52.4274324 C83.5619895,52.474478 83.4158536,52.5 83.2635359,52.5 L55.0824329,52.5 C54.9291193,52.5 54.7822626,52.4743295 54.6462287,52.4270219 Z M50.1902666,57.5 L48.3676446,59.575 C48.1140147,59.85 47.7553461,60 47.3966775,60 C47.099495,60 46.8048744,59.9 46.5614921,59.7 C46.0260512,59.25 45.9620032,58.45 46.4231485,57.925 L53.2890475,50.1083816 C50.4868947,49.0739272 48.6776368,47.7540928 48.6776368,46.25 L50.9218773,13.325 C51.1447642,10.075 53.9526269,7.5 57.3138639,7.5 L66.9056866,7.5 L64.2310437,3.15 C64.1667757,3.04400336 64.120018,2.93254511 64.0899229,2.81893334 C59.8926142,3.40740593 58.5820969,4.60614824 58.566642,4.625 C58.0747536,5.1 57.2677493,5.1 56.7681752,4.625 C56.2711631,4.175 56.2301724,3.4 56.6938796,2.9 C56.9705668,2.6 59.6708288,0 69.1729844,0 C78.672578,0 81.3728401,2.6 81.6495273,2.9 C82.1260441,3.425 82.0850534,4.225 81.562422,4.675 C81.3164779,4.9 81.0090477,5 80.7016174,5 C80.3506346,5 80.0047756,4.85 79.7511457,4.6 C79.7492146,4.6 78.4415547,3.40679651 74.2536031,2.81922781 C74.2233879,2.93273771 74.1765756,3.04409494 74.1123632,3.15 L71.4377203,7.5 L81.0321049,7.5 C84.3933419,7.5 87.1986426,10.075 87.4215296,13.325 L89.6657701,46.175 C89.66682,47.7118306 87.8529338,49.0513157 85.0444426,50.0970918 L91.9202584,57.925 C92.3814037,58.45 92.3199176,59.25 91.7819148,59.7 C91.5410944,59.9 91.2439119,60 90.9492913,60 C90.5880608,60 90.2293922,59.85 89.9757623,59.575 L88.1531403,57.5 L50.1902666,57.5 Z M71.4821315,2.5589171 C70.7698247,2.52104337 70.0013382,2.5 69.1729844,2.5 C68.3438289,2.5 67.5746252,2.521019 66.8616562,2.55887634 L69.1729844,6.325 L71.4821315,2.5589171 Z M76.8587398,41.25 C76.8587398,43.325 78.5829109,45 80.7016174,45 C82.820324,45 84.5444951,43.325 84.5444951,41.25 C84.5444951,39.175 82.820324,37.5 80.7016174,37.5 C78.5829109,37.5 76.8587398,39.175 76.8587398,41.25 Z M79.4206582,41.25 C79.4206582,40.55 79.994528,40 80.7016174,40 C81.4087069,40 81.9825767,40.55 81.9825767,41.25 C81.9825767,41.95 81.4087069,42.5 80.7016174,42.5 C79.994528,42.5 79.4206582,41.95 79.4206582,41.25 Z M65.3301067,42.5 L73.0158621,42.5 C73.7229516,42.5 74.2968213,41.95 74.2968213,41.25 C74.2968213,40.55 73.7229516,40 73.0158621,40 L65.3301067,40 C64.6204553,40 64.0491475,40.55 64.0491475,41.25 C64.0491475,41.95 64.6204553,42.5 65.3301067,42.5 Z" id="Combined-Shape-Copy" fill="#FFFFFF"></path>
                            <path d="M59.4167205,52.4270219 L57.1566885,55 L90.727702,55 L88.4680305,52.4274324 C88.3324813,52.474478 88.1863454,52.5 88.0340277,52.5 L59.8529247,52.5 C59.6996111,52.5 59.5527544,52.4743295 59.4167205,52.4270219 Z M54.9607584,57.5 L53.1381364,59.575 C52.8845065,59.85 52.5258379,60 52.1671693,60 C51.8699868,60 51.5753662,59.9 51.3319839,59.7 C50.796543,59.25 50.732495,58.45 51.1936403,57.925 L58.0595393,50.1083816 C55.2573865,49.0739272 53.4481286,47.7540928 53.4481286,46.25 L55.6923691,13.325 C55.915256,10.075 58.7231187,7.5 62.0843557,7.5 L71.6761784,7.5 L69.0015355,3.15 C68.9372675,3.04400336 68.8905098,2.93254511 68.8604147,2.81893334 C64.663106,3.40740593 63.3525887,4.60614824 63.3371338,4.625 C62.8452455,5.1 62.0382411,5.1 61.538667,4.625 C61.0416549,4.175 61.0006642,3.4 61.4643714,2.9 C61.7410586,2.6 64.4413207,0 73.9434762,0 C83.4430698,0 86.1433319,2.6 86.4200191,2.9 C86.8965359,3.425 86.8555452,4.225 86.3329138,4.675 C86.0869697,4.9 85.7795395,5 85.4721092,5 C85.1211264,5 84.7752674,4.85 84.5216375,4.6 C84.5197064,4.6 83.2120465,3.40679651 79.0240949,2.81922781 C78.9938797,2.93273771 78.9470674,3.04409494 78.882855,3.15 L76.2082121,7.5 L85.8025967,7.5 C89.1638337,7.5 91.9691345,10.075 92.1920214,13.325 L94.4362619,46.175 C94.4373119,47.7118306 92.6234256,49.0513157 89.8149344,50.0970918 L96.6907502,57.925 C97.1518955,58.45 97.0904094,59.25 96.5524066,59.7 C96.3115862,59.9 96.0144037,60 95.7197831,60 C95.3585526,60 94.999884,59.85 94.7462541,59.575 L92.9236321,57.5 L54.9607584,57.5 Z M76.2526233,2.5589171 C75.5403165,2.52104337 74.77183,2.5 73.9434762,2.5 C73.1143207,2.5 72.345117,2.521019 71.632148,2.55887634 L73.9434762,6.325 L76.2526233,2.5589171 Z M85.4721092,45 C87.5908158,45 89.3149869,43.325 89.3149869,41.25 C89.3149869,39.175 87.5908158,37.5 85.4721092,37.5 C83.3534027,37.5 81.6292316,39.175 81.6292316,41.25 C81.6292316,43.325 83.3534027,45 85.4721092,45 Z M85.4721092,40 C86.1791987,40 86.7530685,40.55 86.7530685,41.25 C86.7530685,41.95 86.1791987,42.5 85.4721092,42.5 C84.7650198,42.5 84.19115,41.95 84.19115,41.25 C84.19115,40.55 84.7650198,40 85.4721092,40 Z M77.7863539,42.5 C78.4934434,42.5 79.0673131,41.95 79.0673131,41.25 C79.0673131,40.55 78.4934434,40 77.7863539,40 L70.1005985,40 C69.3909471,40 68.8196393,40.55 68.8196393,41.25 C68.8196393,41.95 69.3909471,42.5 70.1005985,42.5 L77.7863539,42.5 Z M62.4148432,45 C64.5335497,45 66.2577208,43.325 66.2577208,41.25 C66.2577208,39.175 64.5335497,37.5 62.4148432,37.5 C60.2961366,37.5 58.5719655,39.175 58.5719655,41.25 C58.5719655,43.325 60.2961366,45 62.4148432,45 Z M60.6573671,16.025 L59.8529247,28.75 C59.8529247,32.225 70.6386014,32.5 73.9434762,32.5 C77.248351,32.5 88.0340277,32.225 88.0314658,28.675 L87.2295853,16.025 C87.1040513,14.05 85.418309,12.5 83.3943934,12.5 L64.492559,12.5 C62.4660815,12.5 60.7803392,14.05 60.6573671,16.025 Z M62.4148432,40 C63.1219326,40 63.6958024,40.55 63.6958024,41.25 C63.6958024,41.95 63.1219326,42.5 62.4148432,42.5 C61.7077537,42.5 61.1338839,41.95 61.1338839,41.25 C61.1338839,40.55 61.7077537,40 62.4148432,40 Z" id="Combined-Shape" fill="#04DE47"></path>
                        </g>
                    </g>
                </g>
            </g>
        </g>
    </g>
</svg>