<?xml version="1.0" encoding="UTF-8"?>
<svg width="209px" height="146px" viewBox="0 0 209 146" version="1.1" xmlns="http://www.w3.org/2000/svg" xmlns:xlink="http://www.w3.org/1999/xlink">
    <!-- Generator: Sketch 50.2 (55047) - http://www.bohemiancoding.com/sketch -->
    <title>Group 14</title>
    <desc>Created with Sketch.</desc>
    <defs></defs>
    <g id="Page-1" stroke="none" stroke-width="1" fill="none" fill-rule="evenodd">
        <g id="Artboard-4" transform="translate(-80.000000, -4477.000000)">
            <g id="Sharing" transform="translate(25.000000, 4265.000000)">
                <g id="Group-8" transform="translate(32.000000, 212.000000)">
                    <g id="Carpooling">
                        <g id="Group-14" transform="translate(24.000000, 0.000000)">
                            <g id="Group-4" opacity="0.5">
                                <g id="Group-17" transform="translate(60.000000, 35.000000)">
                                    <polygon id="Fill-50" fill="#D8D8D8" points="0.3285 109.798584 47.9885 109.798584 47.9885 6.41716895 0.3285 6.41716895"></polygon>
                                    <polygon id="Fill-51" fill="#969696" points="1.5935 7.68794521 45.4575 7.68794521 45.4575 0.485205479 1.5935 0.485205479"></polygon>
                                    <polygon id="Fill-57" fill="#FFFFFF" points="10.8725 39.0414612 17.199 39.0414612 17.199 14.4672603 10.8725 14.4672603"></polygon>
                                    <polygon id="Fill-58" fill="#FFFFFF" points="19.308 39.0414612 25.6345 39.0414612 25.6345 14.4672603 19.308 14.4672603"></polygon>
                                </g>
                                <g id="Group-18" transform="translate(111.000000, 0.000000)">
                                    <polygon id="Fill-52" fill="#B2B2B2" points="0.189 143.7995 53.7535 143.7995 53.7535 10.175 0.189 10.175"></polygon>
                                    <polygon id="Fill-53" fill="#FFFFFF" points="8.308 38.8555 15.9 38.8555 15.9 26.4705 8.308 26.4705"></polygon>
                                    <polygon id="Fill-54" fill="#FFFFFF" points="23.07 38.8555 30.662 38.8555 30.662 26.4705 23.07 26.4705"></polygon>
                                    <polygon id="Fill-55" fill="#FFFFFF" points="37.832 38.8555 45.424 38.8555 45.424 26.4705 37.832 26.4705"></polygon>
                                    <polygon id="Fill-56" fill="#969696" points="12.2095 10.1755 41.733 10.1755 41.733 0.398 12.2095 0.398"></polygon>
                                </g>
                                <g id="Group-16" transform="translate(29.000000, 12.000000)">
                                    <polygon id="Fill-59" fill="#EBEBEB" points="0.430649573 131.8775 58.7070171 131.8775 58.7070171 12.095 0.430649573 12.095"></polygon>
                                    <polygon id="Fill-60" fill="#D8D8D8" points="6.28022222 28.966 20.7427863 28.966 20.7427863 22.2175 6.28022222 22.2175"></polygon>
                                    <polygon id="Fill-61" fill="#D8D8D8" points="6.28022222 41.619 20.7427863 41.619 20.7427863 34.8705 6.28022222 34.8705"></polygon>
                                    <polygon id="Fill-62" fill="#D8D8D8" points="6.28022222 54.272 20.7427863 54.272 20.7427863 47.5235 6.28022222 47.5235"></polygon>
                                    <polygon id="Fill-63" fill="#D8D8D8" points="11.7036838 12.095 47.4349915 12.095 47.4349915 4.0815 11.7036838 4.0815"></polygon>
                                    <polygon id="Fill-64" fill="#EBEBEB" points="54.3472197 0.2856 29.5692368 2.8166 5.00355299 0.2856 5.00355299 4.9251 29.6756385 7.4556 54.3472197 4.9251"></polygon>
                                </g>
                                <g id="Group-15" transform="translate(75.000000, 86.000000)">
                                    <polygon id="Fill-89" fill="#EBEBEB" points="0.4705 57.7995 108.865 57.7995 108.865 8.4525 0.4705 8.4525"></polygon>
                                    <polygon id="Fill-90" fill="#969696" points="0.5 8.4355 108.8945 8.4355 108.8945 0 0.5 0"></polygon>
                                    <polygon id="Fill-91" fill="#D8D8D8" points="68.7265 57.7995 74.2095 57.7995 74.2095 8.4525 68.7265 8.4525"></polygon>
                                    <polygon id="Fill-92" fill="#D8D8D8" points="34.985 57.7995 40.468 57.7995 40.468 8.4525 34.985 8.4525"></polygon>
                                    <polygon id="Fill-94" fill="#D8D8D8" points="44.967 27.854 64.3685 27.854 64.3685 14.3575 44.967 14.3575"></polygon>
                                    <polygon id="Fill-95" fill="#D8D8D8" points="78.7085 27.854 86.441 27.854 86.441 14.3575 78.7085 14.3575"></polygon>
                                    <polygon id="Fill-96" fill="#D8D8D8" points="91.3615 27.854 99.094 27.854 99.094 14.3575 91.3615 14.3575"></polygon>
                                    <polygon id="Fill-97" fill="#D8D8D8" points="10.3815 27.854 18.114 27.854 18.114 14.3575 10.3815 14.3575"></polygon>
                                    <polygon id="Fill-98" fill="#D8D8D8" points="23.035 27.854 30.7675 27.854 30.7675 14.3575 23.035 14.3575"></polygon>
                                </g>
                                <path d="M187.506539,144 L0.499331575,144" id="Stroke-107" stroke="#969696" stroke-width="3" stroke-linecap="round"></path>
                                <path d="M206.506539,144 L196.496539,144" id="Stroke-107-Copy" stroke="#969696" stroke-width="3" stroke-linecap="round"></path>
                            </g>
                            <g id="Group-28" transform="translate(40.000000, 105.000000)">
                                <g id="Group-26" transform="translate(0.000000, 4.000000)">
                                    <path d="M27.5,3.77777778 L34.495,3.77777778 C35.9075,3.77777778 37.295,4.2562963 38.4,5.16296296 L48.25,13.0962963 C48.855,13.5748148 49.6125,13.8518519 50.3875,13.8518519 L52.5,13.8518519 C57.37,13.8518519 60,18.3851852 60,22.6666667 C60,25.8713671 57.8720521,28.3581739 54.8931737,28.8672269 C54.3500352,31.7875594 51.8010088,34 48.75,34 C45.7302309,34 43.2053403,31.8357765 42.6252989,28.962963 L17.3745999,28.962963 C16.7941163,31.8357765 14.2675793,34 11.25,34 C8.19329957,34 5.6436563,31.7825166 5.10489282,28.8572455 C2.20278155,28.3146231 0,25.7479891 0,22.6666667 L0,17.6296296 C0,14.1540741 2.8025,11.3333333 6.25,11.3333333 C7.395,11.3333333 8.46,10.7540741 9.095,9.79703704 L11.225,6.57333333 C12.3875,4.83555556 14.33,3.77777778 16.425,3.77777778 L23.75,3.77777778 L23.75,1.25 C23.75,0.559644063 24.3096441,1.26816328e-16 25,0 L26.25,0 C26.9403559,-1.26816328e-16 27.5,0.559644063 27.5,1.25 L27.5,3.77777778 Z" id="Combined-Shape-Copy-5" fill="#FFFFFF"></path>
                                    <path d="M27.5,3.77777778 L34.495,3.77777778 C35.9075,3.77777778 37.295,4.2562963 38.4,5.16296296 L48.25,13.0962963 C48.855,13.5748148 49.6125,13.8518519 50.3875,13.8518519 L52.5,13.8518519 C57.37,13.8518519 60,18.3851852 60,22.6666667 C60,25.8713671 57.8720521,28.3581739 54.8931737,28.8672269 C54.3500352,31.7875594 51.8010088,34 48.75,34 C45.7302309,34 43.2053403,31.8357765 42.6252989,28.962963 L17.3745999,28.962963 C16.7941163,31.8357765 14.2675793,34 11.25,34 C8.19329957,34 5.6436563,31.7825166 5.10489282,28.8572455 C2.20278155,28.3146231 0,25.7479891 0,22.6666667 L0,17.6296296 C0,14.1540741 2.8025,11.3333333 6.25,11.3333333 C7.395,11.3333333 8.46,10.7540741 9.095,9.79703704 L11.225,6.57333333 C12.3875,4.83555556 14.33,3.77777778 16.425,3.77777778 L23.75,3.77777778 L23.75,1.25 C23.75,0.559644063 24.3096441,1.26816328e-16 25,0 L26.25,0 C26.9403559,-1.26816328e-16 27.5,0.559644063 27.5,1.25 L27.5,3.77777778 Z M11.25,23.9259259 C9.1825,23.9259259 7.5,25.6133333 7.5,27.7037037 C7.5,29.7940741 9.1825,31.4814815 11.25,31.4814815 C13.3175,31.4814815 15,29.7940741 15,27.7037037 C15,25.6133333 13.3175,23.9259259 11.25,23.9259259 Z M41.25,16.3703704 C41.94,16.3703704 42.5,15.8162963 42.5,15.1111111 C42.5,14.4059259 41.94,13.8518519 41.25,13.8518519 L30,13.8518519 L30,10.0740741 C30,9.36888889 29.44,8.81481481 28.75,8.81481481 C28.0575,8.81481481 27.5,9.36888889 27.5,10.0740741 L27.5,15.1111111 C27.5,15.8162963 28.0575,16.3703704 28.75,16.3703704 L41.25,16.3703704 Z M33.75,21.4074074 C34.44,21.4074074 35,20.8533333 35,20.1481481 C35,19.442963 34.44,18.8888889 33.75,18.8888889 L31.25,18.8888889 C30.5575,18.8888889 30,19.442963 30,20.1481481 C30,20.8533333 30.5575,21.4074074 31.25,21.4074074 L33.75,21.4074074 Z M23.75,16.3703704 C24.44,16.3703704 25,15.8162963 25,15.1111111 C25,14.4059259 24.44,13.8518519 23.75,13.8518519 L15.7725,13.8518519 L17.3675,10.6281481 C17.675,10.0237037 17.425,9.26814815 16.8075,8.94074074 C16.19,8.63851852 15.44,8.89037037 15.13,9.52 L12.63,14.557037 C12.4375,14.9348148 12.4575,15.4133333 12.685,15.7659259 C12.915,16.1437037 13.315,16.3703704 13.75,16.3703704 L23.75,16.3703704 Z M48.75,23.9259259 C46.6825,23.9259259 45,25.6133333 45,27.7037037 C45,29.7940741 46.6825,31.4814815 48.75,31.4814815 C50.8175,31.4814815 52.5,29.7940741 52.5,27.7037037 C52.5,25.6133333 50.8175,23.9259259 48.75,23.9259259 Z" id="Combined-Shape" fill="#04DE47"></path>
                                </g>
                                <g id="Group-27" transform="translate(74.000000, 0.000000)">
                                    <path d="M5.10489282,32.826994 C2.20278155,32.2811797 0,29.6994478 0,26.6 L0,6.33333333 C0,2.83733333 2.8025,0 6.25,0 L36.68,0 C38.35,0 39.915,0.658666667 41.0975,1.84933333 L52.37,13.2746667 C53.6875,14.6173333 55.3425,15.5546667 57.1575,16.036 C58.83,16.4413333 60,17.9613333 60,19.7093333 L60,26.6 C60,29.6994478 57.7972185,32.2811797 54.8951072,32.826994 C54.3563437,35.7694726 51.8067004,38 48.75,38 C45.7302309,38 43.2053403,35.8230458 42.6252989,32.9333333 L17.3747011,32.9333333 C16.7946597,35.8230458 14.2697691,38 11.25,38 C8.19329957,38 5.6436563,35.7694726 5.10489282,32.826994 Z" id="Combined-Shape" fill="#FFFFFF"></path>
                                    <path d="M11.25,27.8666667 C9.1825,27.8666667 7.5,29.564 7.5,31.6666667 C7.5,33.7693333 9.1825,35.4666667 11.25,35.4666667 C13.3175,35.4666667 15,33.7693333 15,31.6666667 C15,29.564 13.3175,27.8666667 11.25,27.8666667 L11.25,27.8666667 Z M5.10489282,32.826994 C2.20278155,32.2811797 0,29.6994478 0,26.6 L0,6.33333333 C0,2.83733333 2.8025,0 6.25,0 L36.68,0 C38.35,0 39.915,0.658666667 41.0975,1.84933333 L52.37,13.2746667 C53.6875,14.6173333 55.3425,15.5546667 57.1575,16.036 C58.83,16.4413333 60,17.9613333 60,19.7093333 L60,26.6 C60,29.6994478 57.7972185,32.2811797 54.8951072,32.826994 C54.3563437,35.7694726 51.8067004,38 48.75,38 C45.7302309,38 43.2053403,35.8230458 42.6252989,32.9333333 L17.3747011,32.9333333 C16.7946597,35.8230458 14.2697691,38 11.25,38 C8.19329957,38 5.6436563,35.7694726 5.10489282,32.826994 Z M48.75,27.8666667 C46.6825,27.8666667 45,29.564 45,31.6666667 C45,33.7693333 46.6825,35.4666667 48.75,35.4666667 C50.8175,35.4666667 52.5,33.7693333 52.5,31.6666667 C52.5,29.564 50.8175,27.8666667 48.75,27.8666667 Z M46.25,17.7333333 C46.94,17.7333333 47.5,17.176 47.5,16.4666667 C47.5,15.7573333 46.94,15.2 46.25,15.2 L32.5,15.2 L32.5,6.33333333 C32.5,5.624 31.94,5.06666667 31.25,5.06666667 C30.5575,5.06666667 30,5.624 30,6.33333333 L30,16.4666667 C30,17.176 30.5575,17.7333333 31.25,17.7333333 L46.25,17.7333333 Z M38.75,22.8 C39.44,22.8 40,22.2426667 40,21.5333333 C40,20.824 39.44,20.2666667 38.75,20.2666667 L36.25,20.2666667 C35.5575,20.2666667 35,20.824 35,21.5333333 C35,22.2426667 35.5575,22.8 36.25,22.8 L38.75,22.8 Z M26.25,17.7333333 C26.94,17.7333333 27.5,17.176 27.5,16.4666667 C27.5,15.7573333 26.94,15.2 26.25,15.2 L20,15.2 L20,6.33333333 C20,5.624 19.44,5.06666667 18.75,5.06666667 C18.0575,5.06666667 17.5,5.624 17.5,6.33333333 L17.5,16.4666667 C17.5,17.176 18.0575,17.7333333 18.75,17.7333333 L26.25,17.7333333 Z M13.75,17.7333333 C14.44,17.7333333 15,17.176 15,16.4666667 C15,15.7573333 14.44,15.2 13.75,15.2 L7.5,15.2 L7.5,6.33333333 C7.5,5.624 6.94,5.06666667 6.25,5.06666667 C5.5575,5.06666667 5,5.624 5,6.33333333 L5,16.4666667 C5,17.176 5.5575,17.7333333 6.25,17.7333333 L13.75,17.7333333 Z" id="Combined-Shape-Copy-6" fill="#04DE47"></path>
                                </g>
                            </g>
                        </g>
                    </g>
                </g>
            </g>
        </g>
    </g>
</svg>