<?xml version="1.0" encoding="UTF-8"?>
<svg width="29px" height="29px" viewBox="0 0 29 16" version="1.1" xmlns="http://www.w3.org/2000/svg" xmlns:xlink="http://www.w3.org/1999/xlink">
    <!-- Generator: Sketch 50.2 (55047) - http://www.bohemiancoding.com/sketch -->
    <title>Group 5</title>
    <desc>Created with Sketch.</desc>
    <defs></defs>
    <g id="Page-1" stroke="none" stroke-width="1" fill="none" fill-rule="evenodd" opacity="0.300000012">
        <g id="wunder_solutions_fleet" transform="translate(-232.000000, -2337.000000)" fill="#000000">
            <g id="Group-29" transform="translate(232.000000, 2186.000000)">
                <g id="Group-11">
                    <g id="Mobilize" transform="translate(0.000000, 145.000000)">
                        <g id="Group-5" transform="translate(0.000000, 6.000000)">
                            <path d="M24.1666667,7.38461538 L24.7708333,7.38461538 C25.1043333,7.38461538 25.375,7.65538462 25.375,8 C25.375,8.34461538 25.1043333,8.61538462 24.7708333,8.61538462 L24.1666667,8.61538462 L24.1666667,10.4615385 C24.1666667,10.8061538 23.896,11.0769231 23.5625,11.0769231 C23.229,11.0769231 22.9583333,10.8061538 22.9583333,10.4615385 L22.9583333,5.53846154 C22.9583333,5.19384615 23.229,4.92307692 23.5625,4.92307692 L25.375,4.92307692 C25.7085,4.92307692 25.9791667,5.19384615 25.9791667,5.53846154 C25.9791667,5.88307692 25.7085,6.15384615 25.375,6.15384615 L24.1666667,6.15384615 L24.1666667,7.38461538 Z M20.5416667,7.38461538 L21.1458333,7.38461538 C21.4793333,7.38461538 21.75,7.65538462 21.75,8 C21.75,8.34461538 21.4793333,8.61538462 21.1458333,8.61538462 L20.5416667,8.61538462 L20.5416667,10.4615385 C20.5416667,10.8061538 20.271,11.0769231 19.9375,11.0769231 C19.604,11.0769231 19.3333333,10.8061538 19.3333333,10.4615385 L19.3333333,5.53846154 C19.3333333,5.19384615 19.604,4.92307692 19.9375,4.92307692 L21.75,4.92307692 C22.0835,4.92307692 22.3541667,5.19384615 22.3541667,5.53846154 C22.3541667,5.88307692 22.0835,6.15384615 21.75,6.15384615 L20.5416667,6.15384615 L20.5416667,7.38461538 Z M21.1458333,-1.04360964e-13 C25.4765,-1.04360964e-13 29,3.59384615 29,8 C29,12.4061538 25.4765,16 21.1458333,16 L7.85416667,16 C3.5235,16 6.06625861e-13,12.4061538 6.06625861e-13,8 C6.06625861e-13,3.59384615 3.5235,-1.04360964e-13 7.85416667,-1.04360964e-13 L21.1458333,-1.04360964e-13 Z M21.1458333,14.7692308 C24.8095,14.7692308 27.7916667,11.7292308 27.7916667,8 C27.7916667,4.27076923 24.8095,1.23076923 21.1458333,1.23076923 L7.85416667,1.23076923 C4.1905,1.23076923 1.20833333,4.27076923 1.20833333,8 C1.20833333,11.7292308 4.1905,14.7692308 7.85416667,14.7692308 L21.1458333,14.7692308 Z M7.85416667,2.46153846 C10.8520417,2.46153846 13.2916667,4.94769231 13.2916667,8 C13.2916667,11.0523077 10.8520417,13.5384615 7.85416667,13.5384615 C4.85629167,13.5384615 2.41666667,11.0523077 2.41666667,8 C2.41666667,4.94769231 4.85629167,2.46153846 7.85416667,2.46153846 Z M16.3125,11.0769231 C15.3132083,11.0769231 14.5,10.2523077 14.5,9.23076923 L14.5,6.76923077 C14.5,5.74769231 15.3132083,4.92307692 16.3125,4.92307692 C17.3117917,4.92307692 18.125,5.74769231 18.125,6.76923077 L18.125,9.23076923 C18.125,10.2523077 17.3117917,11.0769231 16.3125,11.0769231 Z M16.3125,6.15384615 C15.9802083,6.15384615 15.7083333,6.42461538 15.7083333,6.76923077 L15.7083333,9.23076923 C15.7083333,9.57538462 15.9802083,9.84615385 16.3125,9.84615385 C16.6447917,9.84615385 16.9166667,9.57538462 16.9166667,9.23076923 L16.9166667,6.76923077 C16.9166667,6.42461538 16.6447917,6.15384615 16.3125,6.15384615 Z" id="Combined-Shape"></path>
                        </g>
                    </g>
                </g>
            </g>
        </g>
    </g>
</svg>