<?xml version="1.0" encoding="UTF-8"?>
<svg width="29px" height="29px" viewBox="0 0 29 29" version="1.1" xmlns="http://www.w3.org/2000/svg" xmlns:xlink="http://www.w3.org/1999/xlink">
    <!-- Generator: Sketch 50.2 (55047) - http://www.bohemiancoding.com/sketch -->
    <title>Combined Shape</title>
    <desc>Created with Sketch.</desc>
    <defs></defs>
    <g id="Page-1" stroke="none" stroke-width="1" fill="none" fill-rule="evenodd" opacity="0.300000012">
        <g id="wunder_solutions_fleet" transform="translate(-232.000000, -2761.000000)" fill="#000000">
            <g id="Group-29" transform="translate(232.000000, 2186.000000)">
                <g id="Group-11">
                    <g id="Check-Key,-Doors-&amp;Windows" transform="translate(0.000000, 574.000000)">
                        <path d="M5.00975,10.8479167 L9.84308333,6.01458333 C9.957875,5.89375 10.1089167,5.83333333 10.2708333,5.83333333 C10.43275,5.83333333 10.5837917,5.89375 10.6985833,6.01458333 C10.8121667,6.12333333 10.875,6.28041667 10.875,6.4375 C10.875,6.59458333 10.8121667,6.75166667 10.6985833,6.86041667 L5.86525,11.69375 C5.63566667,11.9233333 5.23933333,11.9233333 5.00975,11.69375 C4.89616667,11.585 4.83333333,11.4279167 4.83333333,11.2708333 C4.83333333,11.11375 4.89616667,10.9566667 5.00975,10.8479167 L5.00975,10.8479167 Z M19.2790459,12.7825459 L20.36525,13.86875 C20.600875,14.0983333 20.600875,14.485 20.36525,14.7145833 L19.5834583,15.5 L28.8235833,24.74375 C28.9359583,24.8525 29,25.0095833 29,25.1666667 L29,29.3958333 C29,29.7341667 28.7293333,30 28.3958333,30 L24.1666667,30 C24.0059583,30 23.8525,29.9395833 23.7389167,29.81875 L22.7082083,28.7916667 L21.1458333,28.7916667 C20.8123333,28.7916667 20.5416667,28.5258333 20.5416667,28.1875 L20.5416667,26.62875 L17.874875,23.9583333 L16.3125,23.9583333 C15.979,23.9583333 15.7083333,23.6925 15.7083333,23.3541667 L15.7083333,21.7954167 L14.5,20.5870833 L13.7194167,21.3604167 C13.4825833,21.6020833 13.10075,21.6020833 12.8639167,21.3604167 L11.7853909,20.2818909 L11.552875,20.5145833 C10.8870833,21.1791667 10.001375,21.5416667 9.0625,21.5416667 C8.123625,21.5416667 7.23791667,21.1791667 6.572125,20.5145833 L1.45845833,15.39125 C0.518375,14.4608333 0,13.2041667 0,11.875 C0,10.5458333 0.518375,9.28916667 1.45845833,8.35875 L7.35391667,2.46208333 C8.28070833,1.53166667 9.56395833,1 10.875,1 C12.1860417,1 13.4692917,1.53166667 14.3960833,2.46208333 L19.50975,7.57333333 C20.1755417,8.23791667 20.5416667,9.12 20.5416667,10.0625 C20.5416667,11.005 20.1755417,11.8870833 19.50975,12.5516667 L19.2790459,12.7825459 Z M25.80275,26.7979167 C26.038375,26.5683333 26.038375,26.1816667 25.80275,25.9520833 L17.3444167,17.49375 C17.1075833,17.2520833 16.72575,17.2520833 16.4889167,17.49375 C16.2532917,17.7233333 16.2532917,18.11 16.4889167,18.3395833 L24.94725,26.7979167 C25.0656667,26.91875 25.2203333,26.9791667 25.375,26.9791667 C25.5296667,26.9791667 25.6843333,26.91875 25.80275,26.7979167 Z" id="Combined-Shape"></path>
                    </g>
                </g>
            </g>
        </g>
    </g>
</svg>