<?xml version="1.0" encoding="UTF-8"?>
<svg width="56px" height="70px" viewBox="0 0 56 70" version="1.1" xmlns="http://www.w3.org/2000/svg" xmlns:xlink="http://www.w3.org/1999/xlink">
    <!-- Generator: Sketch 50.2 (55047) - http://www.bohemiancoding.com/sketch -->
    <title>Combined Shape</title>
    <desc>Created with Sketch.</desc>
    <defs></defs>
    <g id="Page-1" stroke="none" stroke-width="1" fill="none" fill-rule="evenodd">
        <g id="wunder_landingpage_desktop_05" transform="translate(-976.000000, -7770.000000)" fill="#04DE47">
            <g id="48-Reasons" transform="translate(10.000000, 7318.000000)">
                <g id="Employees" transform="translate(0.000000, 94.000000)">
                    <g id="Competitive-Compensation--&amp;-Equity" transform="translate(858.000000, 287.000000)">
                        <path d="M137.473684,129.21375 L137.473684,130.791667 C137.473684,131.596667 136.813474,132.25 136,132.25 C135.186526,132.25 134.526316,131.596667 134.526316,130.791667 L134.526316,129.219583 C131.301895,128.717917 128.864421,126.600417 128.637474,123.9025 C128.569684,123.0975 129.170947,122.394583 129.981474,122.3275 C130.803789,122.24875 131.505263,122.855417 131.573053,123.6575 C131.673263,124.83875 132.902316,125.842083 134.526316,126.235833 L134.526316,120.28875 C130.562105,119.323333 128.631579,117.482917 128.631579,114.75 C128.631579,111.9325 131.166316,109.57875 134.526316,109.03625 L134.526316,107.458333 C134.526316,106.653333 135.186526,106 136,106 C136.813474,106 137.473684,106.653333 137.473684,107.458333 L137.473684,109.030417 C140.698105,109.529167 143.132632,111.649583 143.362526,114.3475 C143.430316,115.149583 142.829053,115.855417 142.018526,115.9225 C141.231579,116.024583 140.494737,115.394583 140.426947,114.5925 C140.326737,113.408333 139.097684,112.405 137.473684,112.014167 L137.473684,117.96125 C141.437895,118.926667 143.368421,120.767083 143.368421,123.5 C143.368421,126.3175 140.833684,128.67125 137.473684,129.21375 L137.473684,129.21375 Z M126.691662,91.4166667 L145.308338,91.4166667 C150.952809,97.4584674 164,112.17781 164,119.125 C164,131.188333 151.438316,141 136,141 C120.561684,141 108,131.188333 108,119.125 C108,112.17781 121.047191,97.4584674 126.691662,91.4166667 Z M141.894737,88.5 L130.105263,88.5 L126.096842,88.5 C122.365474,85.21 116.674105,79.6070833 116.335158,75.76875 C116.237895,74.675 116.541474,73.7008333 117.210526,72.95125 C117.626105,72.4845833 118.407158,71.9275 119.765895,71.9275 C122.728,71.9275 127.437895,74.7625 129.713263,76.25875 C131.393263,73.8933333 133.883789,71 136,71 C138.116211,71 140.606737,73.8933333 142.286737,76.2558333 C144.562105,74.7625 149.272,71.9275 152.234105,71.9275 C153.592842,71.9275 154.373895,72.4845833 154.789474,72.95125 C155.458526,73.7008333 155.762105,74.675 155.664842,75.76875 C155.325895,79.6070833 149.634526,85.21 145.903158,88.5 L141.894737,88.5 Z M137.473684,120.97125 L137.473684,126.23 C139.168421,125.81875 140.421053,124.7425 140.421053,123.5 C140.421053,122.342083 139.439579,121.534167 137.473684,120.97125 Z M131.578947,114.75 C131.578947,115.907917 132.563368,116.715833 134.526316,117.27875 L134.526316,112.02 C132.831579,112.43125 131.578947,113.510417 131.578947,114.75 Z" id="Combined-Shape"></path>
                    </g>
                </g>
            </g>
        </g>
    </g>
</svg>