<?xml version="1.0" encoding="UTF-8"?>
<svg width="68px" height="62px" viewBox="0 0 68 40" version="1.1" xmlns="http://www.w3.org/2000/svg" xmlns:xlink="http://www.w3.org/1999/xlink">
    <!-- Generator: Sketch 50.2 (55047) - http://www.bohemiancoding.com/sketch -->
    <title>Combined Shape</title>
    <desc>Created with Sketch.</desc>
    <defs></defs>
    <g id="Page-1" stroke="none" stroke-width="1" fill="none" fill-rule="evenodd">
        <g id="wunder_landingpage_desktop_03" transform="translate(-1028.000000, -1024.000000)" fill="#06A0E3">
            <g id="Benifits" transform="translate(234.000000, 1001.000000)">
                <g id="Help-Nature" transform="translate(682.000000, 23.000000)">
                    <path d="M128.558,3.24728647 C128.8725,3.54729696 129.031167,3.97588337 128.994333,4.40732703 C128.351167,11.8361582 123.469333,26.9481151 123.2625,27.5852802 C123.072667,28.1738722 122.528667,28.571029 121.916667,28.571029 L113.416667,28.571029 C112.634667,28.571029 112,27.9310066 112,27.1424076 L112,1.42722283 C112,1.03292333 112.1615,0.655767291 112.444833,0.387186472 C112.728167,0.118605654 113.099333,-0.0156847559 113.501667,0.00145870063 C116.42,0.175750509 126.129833,0.927205353 128.558,3.24728647 Z M158.24,9.80465859 C159.631167,12.4761806 163.138833,22.2279501 164.994667,27.9224349 L164.8445,28.0110094 C162.8895,25.3794888 158.874667,22.1022314 154.973167,18.919263 C152.397667,16.8191895 149.966667,14.8362631 148.419667,13.2733513 C148.147667,13.0019132 147.785,12.8561938 147.416667,12.8561938 C147.255167,12.8561938 147.093667,12.8847663 146.937833,12.9419111 C145.980167,13.2876375 145.390833,13.5562183 144.926167,13.764797 C144.220667,14.0876655 143.982667,14.1962407 143.025,14.2905297 C142.605667,14.3362456 142.223167,14.564825 141.988,14.9191231 C139.984833,17.9392287 137.913667,17.6792196 136.528167,17.213489 C136.083333,17.0677697 136.006833,16.8763344 135.964333,16.6906136 C135.666833,15.4362841 137.16,12.516182 139.095167,10.5646852 C143.699333,5.92166568 146.073667,4.75876788 151.088667,7.0188469 C153.409167,8.06459775 156.015833,9.0303458 158.24,9.80465859 Z M178.583333,2.85584421 C179.365333,2.85584421 180,3.49586659 180,4.28446559 L180,29.9996504 C180,30.7882494 179.365333,31.4282717 178.583333,31.4282717 L170.083333,31.4282717 C169.445833,31.4282717 168.887667,30.9996853 168.717667,30.3796637 C167.663667,26.5281004 162.181167,10.738977 160.430167,7.89602043 C160.217667,7.55029405 160.161,7.12742213 160.274333,6.73597987 C160.3905,6.34739486 160.6625,6.02166918 161.030833,5.85023462 C161.288667,5.72737318 167.459667,2.85584421 178.583333,2.85584421 Z M163.138833,30.619672 C163.663,31.7197105 163.102,32.4368784 162.716667,32.7654613 C162.1755,33.2311919 161.447333,33.3826258 161.022333,33.1283312 L152.669667,24.7023223 C152.114333,24.14516 151.219,24.14516 150.663667,24.7023223 C150.111167,25.2623419 150.111167,26.1652306 150.663667,26.7252502 L158.7075,34.8341051 C158.568667,35.4912709 157.973667,35.8969994 157.673333,36.0484333 C156.766667,36.5084494 155.823167,36.4284466 155.469,36.0998636 L148.419667,28.9881864 C147.864333,28.4310241 146.969,28.4310241 146.413667,28.9881864 C145.861167,29.548206 145.861167,30.4510947 146.413667,31.0111143 L152.9445,37.5942016 C152.6895,38.3027978 152.125667,38.9228195 151.417333,39.199972 C150.983833,39.3656921 150.354833,39.4628384 149.793833,38.9485347 L144.169667,33.2740506 C143.614333,32.7168882 142.719,32.7168882 142.163667,33.2740506 C141.611167,33.8340701 141.611167,34.7369588 142.163667,35.2969784 L146.776333,39.9457124 C146.578,39.9799993 146.325833,40 146,40 C145.0565,40 143.359333,39.3571204 142.526333,38.8056725 C141.534667,38.1485067 135.2985,33.4540569 129.912333,28.9053264 C129.1785,28.2853047 127.929,26.9738303 126.801333,25.7852173 C128.0225,21.8079354 130.184333,14.4133911 131.2525,8.57032972 L137.0665,8.57032972 C135.134167,10.5332555 132.524667,14.4676788 133.204667,17.3534939 C133.4965,18.5878228 134.360667,19.5021405 135.641333,19.9278697 C138.8515,20.9964784 141.781167,19.9735855 143.96,17.0534835 C144.861,16.9134786 145.351167,16.7077571 146.087833,16.3706024 C146.354167,16.2505982 146.665833,16.1105933 147.0795,15.942016 C148.700167,17.4763554 150.8875,19.2621321 153.191,21.1393406 C157.356,24.5394595 162.079167,28.3910227 163.138833,30.619672 Z" id="Combined-Shape"></path>
                </g>
            </g>
        </g>
    </g>
</svg>