<?xml version="1.0" encoding="UTF-8"?>
<svg width="24px" height="24px" viewBox="0 0 24 24" version="1.1" xmlns="http://www.w3.org/2000/svg" xmlns:xlink="http://www.w3.org/1999/xlink">
    <!-- Generator: Sketch 51.2 (57519) - http://www.bohemiancoding.com/sketch -->
    <title>Group 13</title>
    <desc>Created with Sketch.</desc>
    <defs></defs>
    <g id="Page-1" stroke="none" stroke-width="1" fill="none" fill-rule="evenodd">
        <g id="Artboard-5" transform="translate(-79.000000, -155.000000)" fill="#B2B2B2">
            <g id="Group-13" transform="translate(79.000000, 155.000000)">
                <g id="Group-4">
                    <path d="M10.0127,20.3877 C9.9737,20.5557 10.0247,20.7317 10.1467,20.8537 C10.8027,21.5097 11.7347,21.8567 12.8417,21.8567 C14.0247,21.8567 15.2627,21.4447 15.8537,20.8537 C16.8127,19.8937 17.4847,17.7777 16.3537,16.6467 C15.2887,15.5817 13.7137,15.5777 12.6467,16.6467 C12.0727,17.2207 11.8827,17.8437 11.7297,18.3437 C11.6087,18.7397 11.5127,19.0527 11.2707,19.2957 C10.6837,19.8817 10.3357,20.0277 10.3367,20.0277 L10.3367,20.0277 C10.1737,20.0837 10.0517,20.2197 10.0127,20.3877" id="Fill-5"></path>
                    <path d="M22.2979,0 C21.6109,0 20.9959,0.409 20.7299,1.043 L16.3609,11.484 L18.9549,12.758 L23.8399,2.453 C23.9449,2.229 23.9999,1.981 23.9999,1.7 C23.9999,0.763 23.2359,0 22.2979,0" id="Fill-7"></path>
                    <path d="M17.2637,15.8647 C17.4167,15.8327 17.5457,15.7307 17.6127,15.5897 L18.5267,13.6617 L15.9747,12.4077 L15.1717,14.3247 C15.1177,14.4547 15.1207,14.6027 15.1807,14.7297 C15.2407,14.8577 15.3517,14.9547 15.4867,14.9957 C15.9737,15.1457 16.4277,15.4007 16.8337,15.7527 C16.9257,15.8327 17.0417,15.8757 17.1607,15.8757 C17.1957,15.8757 17.2297,15.8717 17.2637,15.8647" id="Fill-9"></path>
                    <path d="M19.6099,14.6226 C19.3809,14.5706 19.1479,14.6856 19.0479,14.8956 L17.9319,17.2516 C17.8869,17.3466 17.8729,17.4516 17.8909,17.5536 C18.1559,19.0456 17.4219,20.6986 16.5609,21.5606 C15.7739,22.3476 14.3139,22.8566 12.8419,22.8566 C11.4839,22.8566 10.2759,22.3956 9.4399,21.5606 C9.3239,21.4446 9.0469,21.1346 8.9239,20.7496 C8.8369,20.8966 8.6839,20.9996 8.4999,20.9996 L3.4999,20.9996 C3.2239,20.9996 2.9999,20.7766 2.9999,20.4996 L2.9999,13.4996 C2.9999,13.2236 3.2239,12.9996 3.4999,12.9996 L8.4999,12.9996 C8.7769,12.9996 8.9999,13.2236 8.9999,13.4996 L8.9999,19.8696 C9.1849,19.4496 9.4599,19.2006 9.8639,19.1156 C9.9319,19.1016 9.9959,19.0726 10.0519,19.0326 C10.1489,18.9636 10.3239,18.8276 10.5629,18.5886 C10.6509,18.5006 10.6989,18.3886 10.7079,18.2736 C10.7219,18.2156 10.7509,18.1256 10.7739,18.0516 C10.8329,17.8576 10.9089,17.6336 10.9999,17.4006 L10.9999,17.2786 C10.9909,17.1526 10.9839,17.0396 10.9999,16.9356 L10.9999,13.4996 C10.9999,13.2236 11.2239,12.9996 11.4999,12.9996 L14.6429,12.9996 L15.0609,11.9996 L3.4999,11.9996 C3.2239,11.9996 2.9999,11.7766 2.9999,11.4996 L2.9999,7.4996 C2.9999,7.2236 3.2239,6.9996 3.4999,6.9996 L16.9019,6.9996 C16.9829,6.9996 17.0599,7.0216 17.1289,7.0576 L18.1099,4.7146 C18.1709,4.5666 18.1579,4.3976 18.0739,4.2606 C17.9909,4.1236 17.8459,4.0346 17.6859,4.0216 C17.6519,4.0156 17.5339,3.9996 17.4999,3.9996 L2.4999,3.9996 C1.1219,3.9996 -0.0001,5.1216 -0.0001,6.4996 L-0.0001,21.4996 C-0.0001,22.8786 1.1219,23.9996 2.4999,23.9996 L17.4999,23.9996 C18.8789,23.9996 19.9999,22.8786 19.9999,21.4996 L19.9999,15.1106 C19.9999,14.8766 19.8379,14.6736 19.6099,14.6226" id="Fill-11"></path>
                </g>
            </g>
        </g>
    </g>
</svg>