<?xml version="1.0" encoding="UTF-8"?>
<svg width="250px" height="134px" viewBox="0 0 250 134" version="1.1" xmlns="http://www.w3.org/2000/svg" xmlns:xlink="http://www.w3.org/1999/xlink">
    <!-- Generator: Sketch 50.2 (55047) - http://www.bohemiancoding.com/sketch -->
    <title>Group 24</title>
    <desc>Created with Sketch.</desc>
    <defs></defs>
    <g id="Page-1" stroke="none" stroke-width="1" fill="none" fill-rule="evenodd">
        <g id="Artboard-4" transform="translate(-63.000000, -4800.000000)">
            <g id="Sharing" transform="translate(25.000000, 4265.000000)">
                <g id="Carsharing" transform="translate(32.000000, 535.000000)">
                    <g id="Group-24" transform="translate(7.000000, 0.000000)">
                        <g id="Group-2" opacity="0.5">
                            <g id="Group-22" transform="translate(130.748148, 16.562264)">
                                <polygon id="Fill-1" fill="#D8D8D8" points="0.230066667 62.0462566 83.1011827 62.0462566 83.1011827 7.00935094 0.230066667 7.00935094"></polygon>
                                <polygon id="Fill-2" fill="#EBEBEB" points="4.03594074 18.4403245 75.0678963 18.4403245 75.0678963 14.2064075 4.03594074 14.2064075"></polygon>
                                <polygon id="Fill-3" fill="#EBEBEB" points="4.03594074 23.9435132 75.0678963 23.9435132 75.0678963 19.7100981 4.03594074 19.7100981"></polygon>
                                <polygon id="Fill-4" fill="#EBEBEB" points="4.03594074 45.1120943 75.0678963 45.1120943 75.0678963 40.8781774 4.03594074 40.8781774"></polygon>
                                <polygon id="Fill-5" fill="#EBEBEB" points="4.03594074 50.615283 75.0678963 50.615283 75.0678963 46.381366 4.03594074 46.381366"></polygon>
                                <polygon id="Fill-6" fill="#FFFFFF" points="57.310158 37.0678528 63.652279 37.0678528 63.652279 27.3307472 57.310158 27.3307472"></polygon>
                                <polygon id="Fill-7" fill="#FFFFFF" points="65.7659852 37.0678528 72.1081062 37.0678528 72.1081062 27.3307472 65.7659852 27.3307472"></polygon>
                                <polygon id="Fill-85" fill="#B2B2B2" points="23.0623037 7.00935094 37.4377111 7.00935094 37.4377111 2.3523434 23.0623037 2.3523434"></polygon>
                                <polygon id="Fill-86" fill="#B2B2B2" points="48.4312889 7.00935094 62.8066963 7.00935094 62.8066963 2.3523434 48.4312889 2.3523434"></polygon>
                                <polygon id="Fill-87" fill="#969696" points="47.162163 2.3523434 64.0748198 2.3523434 64.0748198 0.235886792 47.162163 0.235886792"></polygon>
                                <polygon id="Fill-88" fill="#969696" points="21.793679 2.3523434 38.7063358 2.3523434 38.7063358 0.235886792 21.793679 0.235886792"></polygon>
                                <polygon id="Fill-99" fill="#FFFFFF" points="15.0290173 37.0678528 21.3711383 37.0678528 21.3711383 27.3307472 15.0290173 27.3307472"></polygon>
                                <polygon id="Fill-100" fill="#FFFFFF" points="23.4853457 37.0678528 29.8274667 37.0678528 29.8274667 27.3307472 23.4853457 27.3307472"></polygon>
                                <polygon id="Fill-101" fill="#FFFFFF" points="36.1695877 37.0678528 42.5117086 37.0678528 42.5117086 27.3307472 36.1695877 27.3307472"></polygon>
                                <polygon id="Fill-102" fill="#FFFFFF" points="44.625916 37.0678528 50.968037 37.0678528 50.968037 27.3307472 44.625916 27.3307472"></polygon>
                            </g>
                            <g id="Group-21" transform="translate(41.076543, 0.000000)">
                                <polygon id="Fill-8" fill="#EBEBEB" points="0.428054321 132.375151 58.3532272 132.375151 58.3532272 12.1406415 0.428054321 12.1406415"></polygon>
                                <polygon id="Fill-9" fill="#B2B2B2" points="6.24237531 29.0753057 20.6177827 29.0753057 20.6177827 22.3013396 6.24237531 22.3013396"></polygon>
                                <polygon id="Fill-10" fill="#B2B2B2" points="6.24237531 41.7760528 20.6177827 41.7760528 20.6177827 35.0020868 6.24237531 35.0020868"></polygon>
                                <polygon id="Fill-11" fill="#B2B2B2" points="6.24237531 54.4768 20.6177827 54.4768 20.6177827 47.702834 6.24237531 47.702834"></polygon>
                                <polygon id="Fill-12" fill="#B2B2B2" points="11.6331531 12.1406415 47.1491309 12.1406415 47.1491309 4.09690189 11.6331531 4.09690189"></polygon>
                                <polygon id="Fill-13" fill="#EBEBEB" points="54.0197536 0.286677736 29.3910919 2.82722868 4.97344988 0.286677736 4.97344988 4.94368528 29.4968523 7.48373434 54.0197536 4.94368528"></polygon>
                            </g>
                            <g id="Group-23" transform="translate(81.000000, 39.649057)">
                                <polygon id="Fill-21" fill="#B2B2B2" points="0.428555556 93.1496868 54.1253136 93.1496868 54.1253136 6.36091321 0.428555556 6.36091321"></polygon>
                                <polygon id="Fill-22" fill="#FFFFFF" points="8.56760247 24.9884415 16.1783481 24.9884415 16.1783481 16.9447019 8.56760247 16.9447019"></polygon>
                                <polygon id="Fill-23" fill="#FFFFFF" points="23.3655506 24.9884415 30.9762963 24.9884415 30.9762963 16.9447019 23.3655506 16.9447019"></polygon>
                                <polygon id="Fill-24" fill="#FFFFFF" points="38.164 24.9884415 45.7747457 24.9884415 45.7747457 16.9447019 38.164 16.9447019"></polygon>
                                <polygon id="Fill-25" fill="#969696" points="12.4782346 6.36041132 42.0751333 6.36041132 42.0751333 0.0100377358 12.4782346 0.0100377358"></polygon>
                            </g>
                            <g id="Group-20" transform="translate(123.730864, 74.781132)">
                                <polygon id="Fill-32" fill="#EBEBEB" points="0.471661728 58.0176113 109.133802 58.0176113 109.133802 8.48439623 0.471661728 8.48439623"></polygon>
                                <polygon id="Fill-33" fill="#969696" points="0.471661728 8.48439623 109.133802 8.48439623 109.133802 0.0170641509 0.471661728 0.0170641509"></polygon>
                                <polygon id="Fill-34" fill="#D8D8D8" points="68.8961951 58.0176113 74.3927333 58.0176113 74.3927333 8.48439623 68.8961951 8.48439623"></polygon>
                                <polygon id="Fill-35" fill="#D8D8D8" points="35.0713827 58.0176113 40.567921 58.0176113 40.567921 8.48439623 35.0713827 8.48439623"></polygon>
                                <polygon id="Fill-37" fill="#D8D8D8" points="45.0780296 27.9591094 64.5274346 27.9591094 64.5274346 14.4116792 45.0780296 14.4116792"></polygon>
                                <polygon id="Fill-38" fill="#D8D8D8" points="78.902842 27.9591094 86.6544346 27.9591094 86.6544346 14.4116792 78.902842 14.4116792"></polygon>
                                <polygon id="Fill-39" fill="#D8D8D8" points="91.587084 27.9591094 99.3386765 27.9591094 99.3386765 14.4116792 91.587084 14.4116792"></polygon>
                                <polygon id="Fill-40" fill="#D8D8D8" points="10.4071333 27.9591094 18.1587259 27.9591094 18.1587259 14.4116792 10.4071333 14.4116792"></polygon>
                                <polygon id="Fill-41" fill="#D8D8D8" points="23.0918765 27.9591094 30.8434691 27.9591094 30.8434691 14.4116792 23.0918765 14.4116792"></polygon>
                            </g>
                            <path d="M247.506539,132 L22.4993316,132" id="Stroke-107" stroke="#969696" stroke-width="3" stroke-linecap="round"></path>
                            <path d="M10.5065394,132 L0.496539421,132" id="Stroke-107-Copy" stroke="#969696" stroke-width="3" stroke-linecap="round"></path>
                        </g>
                        <g id="Group-9" transform="translate(64.000000, 100.000000)">
                            <path d="M5.83333333,9.89447379 L17.5,9.89447379 C18.8783333,9.89447379 20,11.0170323 20,12.4076646 C20,13.7982968 18.8783333,14.9208553 17.5,14.9208553 L5.83333333,14.9208553 C4.455,14.9208553 3.33333333,13.7982968 3.33333333,12.4076646 C3.33333333,11.0170323 4.455,9.89447379 5.83333333,9.89447379 Z M13.86,21.6226974 C14.2133333,21.6226974 14.5283333,21.8405073 14.645,22.1755994 C14.8833333,22.8625382 15,23.4992132 15,24.1358882 C15,27.369527 12.3816667,30 9.16666667,30 C5.95,30 3.33333333,27.369527 3.33333333,24.1358882 C3.33333333,23.4992132 3.44833333,22.8625382 3.68666667,22.1755994 C3.80333333,21.8405073 4.11833333,21.6226974 4.47166667,21.6226974 C4.47166667,21.6226974 10.545,21.6226974 9.16666667,21.6226974 L13.86,21.6226974 Z M22.4619819,22.713667 C22.3558915,23.0556388 22.03979,23.2981579 21.6666667,23.2981579 L15.8333333,23.2981579 L2.5,23.2981579 C1.12166667,23.2981579 0,22.1755994 0,20.7849672 C0,19.0759974 0.561666667,17.4340461 1.58166667,16.1774507 C1.72,16.0099047 1.87,15.825604 2.02666667,15.658058 C2.33166667,15.3397205 2.83166667,15.3062113 3.17,15.5910396 C3.945,16.2444692 4.865,16.5963159 5.83333333,16.5963159 L16.4666667,16.5963159 C16.7133333,16.5963159 16.9466667,16.7135981 17.105,16.8978988 C17.2633333,17.0821994 17.33,17.3335185 17.2883333,17.5848376 C17.0326704,19.0412385 16.8491797,20.6482212 16.7496112,21.6226974 L21.1119444,21.6226974 L24.9442201,12.3767072 L23.6883333,8.58761459 L26.2866667,7.02943631 C26.68,6.77811723 26.8083333,6.27547908 26.5716667,5.87336855 C26.335,5.47125803 25.825,5.35397579 25.4283333,5.58854026 L21.2616667,8.10173104 C21.1266667,8.18550407 20.98,8.21901328 20.8333333,8.21901328 C20.55,8.21901328 20.275,8.06822183 20.1183333,7.81690275 C19.8816667,7.41479223 20.01,6.89539947 20.4033333,6.66083499 L22.6084017,5.33081321 L22.3166667,4.44922711 C22.0866667,3.7622883 22.1566667,2.99157646 22.505,2.35490147 C22.855,1.71822647 23.4566667,1.24909752 24.16,1.08155147 C25.3776724,0.77309195 26.6094284,1.36129661 27.1456481,2.48033774 C27.4163789,2.27163259 27.7343503,2.12576543 28.0766667,2.05331857 L30.67,1.53392581 C30.9466667,1.483662 31.2383333,1.56743502 31.435,1.76849028 C31.6333333,1.98630015 31.7116667,2.28788304 31.6416667,2.55595673 L30.8083333,5.90687776 C30.715,6.27547908 30.3816667,6.54355276 30,6.54355276 L28.8819913,6.54355276 L31.5983333,12.9103027 C31.645,13.0443396 32.365,14.9208553 34.1666667,14.9208553 C36.7133333,14.9208553 40,16.546052 40,18.2717764 C40,18.5733593 39.8716667,18.8749422 39.6366667,19.1095066 C39.3236462,19.4144214 38.733302,19.6150131 38.0279732,19.7444055 C39.2365578,20.8195727 40,22.3897962 40,24.1358882 C40,27.369527 37.3816667,30 34.1666667,30 C30.95,30 28.3333333,27.369527 28.3333333,24.1358882 C28.3333333,23.8515206 28.3535694,23.5718176 28.39267,23.2981579 L27.8833333,23.2981579 C27.0333333,23.2981579 26.25,22.8625382 25.785,22.1588448 C25.3216667,21.4383968 25.2483333,20.5504027 25.59,19.7629362 C25.87,19.1262612 26.2516667,18.4895862 26.7216667,17.8864205 C27.4166667,16.9816718 27.3983333,15.7250764 26.6766667,14.8035731 L26.0609065,14.0306743 L22.4619819,22.713667 Z" id="Combined-Shape" fill="#FFFFFF"></path>
                            <path d="M31.6666667,24.1358882 C31.6666667,22.745256 32.7883333,21.6226974 34.1666667,21.6226974 C35.545,21.6226974 36.6666667,22.745256 36.6666667,24.1358882 C36.6666667,25.5265204 35.545,26.649079 34.1666667,26.649079 C32.7883333,26.649079 31.6666667,25.5265204 31.6666667,24.1358882 Z M22.4619819,22.713667 C22.3558915,23.0556388 22.03979,23.2981579 21.6666667,23.2981579 L15.8333333,23.2981579 L14.9329259,23.2981579 C14.9777805,23.5801865 15,23.8580373 15,24.1358882 C15,27.369527 12.3816667,30 9.16666667,30 C5.95,30 3.33333333,27.369527 3.33333333,24.1358882 C3.33333333,23.8580373 3.35523543,23.5801865 3.39973226,23.2981579 L2.5,23.2981579 C1.12166667,23.2981579 0,22.1755994 0,20.7849672 C0,19.0759974 0.561666667,17.4340461 1.58166667,16.1774507 C1.72,16.0099047 1.87,15.825604 2.02666667,15.658058 C2.33166667,15.3397205 2.83166667,15.3062113 3.17,15.5910396 C3.945,16.2444692 4.865,16.5963159 5.83333333,16.5963159 L16.4666667,16.5963159 C16.7133333,16.5963159 16.9466667,16.7135981 17.105,16.8978988 C17.2633333,17.0821994 17.33,17.3335185 17.2883333,17.5848376 C17.0326704,19.0412385 16.8491797,20.6482212 16.7496112,21.6226974 L21.1119444,21.6226974 L24.9442201,12.3767072 L23.6883333,8.58761459 L26.2866667,7.02943631 C26.68,6.77811723 26.8083333,6.27547908 26.5716667,5.87336855 C26.335,5.47125803 25.825,5.35397579 25.4283333,5.58854026 L21.2616667,8.10173104 C21.1266667,8.18550407 20.98,8.21901328 20.8333333,8.21901328 C20.55,8.21901328 20.275,8.06822183 20.1183333,7.81690275 C19.8816667,7.41479223 20.01,6.89539947 20.4033333,6.66083499 L22.6084017,5.33081321 L22.3166667,4.44922711 C22.0866667,3.7622883 22.1566667,2.99157646 22.505,2.35490147 C22.855,1.71822647 23.4566667,1.24909752 24.16,1.08155147 C25.3776724,0.77309195 26.6094284,1.36129661 27.1456481,2.48033774 C27.4163789,2.27163259 27.7343503,2.12576543 28.0766667,2.05331857 L30.67,1.53392581 C30.9466667,1.483662 31.2383333,1.56743502 31.435,1.76849028 C31.6333333,1.98630015 31.7116667,2.28788304 31.6416667,2.55595673 L30.8083333,5.90687776 C30.715,6.27547908 30.3816667,6.54355276 30,6.54355276 L28.8819913,6.54355276 L31.5983333,12.9103027 C31.645,13.0443396 32.365,14.9208553 34.1666667,14.9208553 C36.7133333,14.9208553 40,16.546052 40,18.2717764 C40,18.5733593 39.8716667,18.8749422 39.6366667,19.1095066 C39.3236462,19.4144214 38.733302,19.6150131 38.0279732,19.7444055 C39.2365578,20.8195727 40,22.3897962 40,24.1358882 C40,27.369527 37.3816667,30 34.1666667,30 C30.95,30 28.3333333,27.369527 28.3333333,24.1358882 C28.3333333,23.8515206 28.3535694,23.5718176 28.39267,23.2981579 L27.8833333,23.2981579 C27.0333333,23.2981579 26.25,22.8625382 25.785,22.1588448 C25.3216667,21.4383968 25.2483333,20.5504027 25.59,19.7629362 C25.87,19.1262612 26.2516667,18.4895862 26.7216667,17.8864205 C27.4166667,16.9816718 27.3983333,15.7250764 26.6766667,14.8035731 L26.0609065,14.0306743 L22.4619819,22.713667 Z M6.80880766,23.2981579 C6.71676898,23.5600493 6.66666667,23.8419816 6.66666667,24.1358882 C6.66666667,25.5265204 7.78833333,26.649079 9.16666667,26.649079 C10.545,26.649079 11.6666667,25.5265204 11.6666667,24.1358882 C11.6666667,23.8419816 11.6165644,23.5600493 11.5245257,23.2981579 L6.80880766,23.2981579 Z M5.83333333,9.89447379 L17.5,9.89447379 C18.8783333,9.89447379 20,11.0170323 20,12.4076646 C20,13.7982968 18.8783333,14.9208553 17.5,14.9208553 L5.83333333,14.9208553 C4.455,14.9208553 3.33333333,13.7982968 3.33333333,12.4076646 C3.33333333,11.0170323 4.455,9.89447379 5.83333333,9.89447379 Z" id="Combined-Shape-Copy-3" fill="#06A0E3"></path>
                            <path d="M61.8799048,24.8553071 C59.3181913,23.9426323 59,18.8965189 59,15 C59,11.35 60.3725,8.3 63.085,5.85 L61.865,4.625 C61.5075,4.275 61.4,3.75 61.595,3.275 C61.7875,2.8 62.2425,2.5 62.75,2.5 L68.6175,2.5 C74.1725,0.25 80.335,0 82.75,0 C95.5175,0 103.875,6.05 105.705,7.5 C114.905,7.7 119,13.875 119,16.25 L119,21.25 C119,23.425 116.76,25 115.25,25 L113.570079,25 C112.536953,27.9055805 109.757395,30 106.5,30 C103.240635,30 100.462211,27.9055805 99.4296545,25 L76.0700793,25 C75.0369526,27.9055805 72.2573953,30 69,30 C65.686778,30 62.8705221,27.8357928 61.8799048,24.8553071 Z" id="Combined-Shape-Copy-4" fill="#FFFFFF"></path>
                            <path d="M106.5,17.5 C103.7425,17.5 101.5,19.75 101.5,22.5 C101.5,25.25 103.7425,27.5 106.5,27.5 C109.2575,27.5 111.5,25.25 111.5,22.5 C111.5,19.75 109.2575,17.5 106.5,17.5 L106.5,17.5 Z M61.8799048,24.8553071 C59.3181913,23.9426323 59,18.8965189 59,15 C59,11.35 60.3725,8.3 63.085,5.85 L61.865,4.625 C61.5075,4.275 61.4,3.75 61.595,3.275 C61.7875,2.8 62.2425,2.5 62.75,2.5 L68.6175,2.5 C74.1725,0.25 80.335,0 82.75,0 C95.5175,0 103.875,6.05 105.705,7.5 C114.905,7.7 119,13.875 119,16.25 L119,21.25 C119,23.425 116.76,25 115.25,25 L113.570079,25 C112.536953,27.9055805 109.757395,30 106.5,30 C103.240635,30 100.462211,27.9055805 99.4296545,25 L76.0700793,25 C75.0369526,27.9055805 72.2573953,30 69,30 C65.686778,30 62.8705221,27.8357928 61.8799048,24.8553071 Z M69,17.5 C66.2425,17.5 64,19.75 64,22.5 C64,25.25 66.2425,27.5 69,27.5 C71.7575,27.5 74,25.25 74,22.5 C74,19.75 71.7575,17.5 69,17.5 Z M97.75,12.5 C98.44,12.5 99,11.95 99,11.25 C99,10.55 98.44,10 97.75,10 L86.5,10 L86.5,6.25 C86.5,5.55 85.94,5 85.25,5 C84.5575,5 84,5.55 84,6.25 L84,11.25 C84,11.95 84.5575,12.5 85.25,12.5 L97.75,12.5 Z" id="Combined-Shape" fill="#06A0E3"></path>
                        </g>
                    </g>
                </g>
            </g>
        </g>
    </g>
</svg>