<?xml version="1.0" encoding="UTF-8"?>
<svg width="29px" height="29px" viewBox="0 0 29 26" version="1.1" xmlns="http://www.w3.org/2000/svg" xmlns:xlink="http://www.w3.org/1999/xlink">
    <!-- Generator: Sketch 50.2 (55047) - http://www.bohemiancoding.com/sketch -->
    <title>Combined Shape</title>
    <desc>Created with Sketch.</desc>
    <defs></defs>
    <g id="Page-1" stroke="none" stroke-width="1" fill="none" fill-rule="evenodd" opacity="0.300000012">
        <g id="wunder_solutions_fleet" transform="translate(-232.000000, -2615.000000)" fill="#000000">
            <g id="Group-29" transform="translate(232.000000, 2186.000000)">
                <g id="Group-11">
                    <g id="Track-Position" transform="translate(0.000000, 429.000000)">
                        <path d="M18.42839,16.9236364 L10.5003165,11.8181818 L15.2068927,11.8181818 C15.4352734,11.8181818 15.6455287,11.9481818 15.7470312,12.1490909 C16.7548064,14.1227273 17.8266249,15.9427273 18.375222,16.8527273 C18.3909307,16.8763636 18.4126813,16.9 18.42839,16.9236364 Z M28.4541827,23.3763636 L23.1833007,19.9845455 L26.3286711,15.7536364 L28.4541827,23.3763636 Z M22.1731088,19.3345455 L19.6186281,17.68 C19.7237558,17.7036364 19.8288834,17.7272727 19.9376361,17.7272727 C20.5768605,17.7272727 21.1750004,17.3963636 21.5000502,16.8527273 C22.0486473,15.9427273 23.1204658,14.1227273 24.128241,12.1490909 C24.2297436,11.9481818 24.4399988,11.8181818 24.6683796,11.8181818 C24.9414697,11.8181818 25.2822283,11.9954545 25.3535217,12.2554545 L25.9214526,14.2881818 L22.1731088,19.3345455 Z M9.60612749,22.1354545 L6.64563671,26 L0.603818792,26 C0.415314073,26 0.237684626,25.9172727 0.124098449,25.7636364 C0.0093039088,25.6218182 -0.0281553623,25.4327273 0.0213875446,25.2554545 L2.23027617,17.3254545 L9.60612749,22.1354545 Z M24.5886276,26 L8.15609119,26 L13.6336033,18.8618182 L24.5886276,26 Z M28.9351114,25.09 L28.9786125,25.2554545 C29.0281554,25.4327273 28.9906961,25.6218182 28.8759016,25.7636364 C28.7623154,25.9172727 28.5846859,26 28.3961812,26 L26.7660987,26 L5.01555423,11.8181818 L8.30109482,11.8181818 L28.9351114,25.09 Z M2.56499289,16.1318182 L3.62472775,12.3263636 L12.6270364,18.2 L10.332354,21.19 L2.56499289,16.1318182 Z M13.393139,20.3509091 L12.1847754,22.1236364 C12.0929397,22.2654545 12.0615223,22.4309091 12.0977732,22.5845455 C12.1340241,22.7381818 12.2343183,22.88 12.3769052,22.9627273 L15.3978141,24.7354545 C15.4944832,24.7945455 15.6020276,24.8181818 15.7083636,24.8181818 C15.9041185,24.8181818 16.0950399,24.7236364 16.2110428,24.5581818 L17.4194064,22.7854545 C17.511242,22.6436364 17.5426595,22.4781818 17.5064086,22.3245455 C17.4701577,22.1709091 17.3698635,22.0290909 17.2272766,21.9463636 L14.2063676,20.1736364 C13.9272357,20.0081818 13.5707684,20.0909091 13.393139,20.3509091 Z M16.0624141,22.6436364 L15.5259007,23.4354545 L13.5417677,22.2654545 L14.0782811,21.4736364 L16.0624141,22.6436364 Z M19.9376361,0 C22.9355862,0 25.3752722,2.38727273 25.3752722,5.31818182 C25.3752722,8.01272727 20.9611201,15.4227273 20.4584408,16.25 C20.3496881,16.4390909 20.1515165,16.5454545 19.9376361,16.5454545 C19.7237558,16.5454545 19.5255841,16.4390909 19.4168314,16.25 C18.9141522,15.4227273 14.5,8.01272727 14.5,5.31818182 C14.5,2.38727273 16.9396861,0 19.9376361,0 Z M19.9376361,7.09090909 C20.9369528,7.09090909 21.7501815,6.29909091 21.7501815,5.31818182 C21.7501815,4.33727273 20.9369528,3.54545455 19.9376361,3.54545455 C18.9383194,3.54545455 18.1250907,4.33727273 18.1250907,5.31818182 C18.1250907,6.29909091 18.9383194,7.09090909 19.9376361,7.09090909 Z" id="Combined-Shape"></path>
                    </g>
                </g>
            </g>
        </g>
    </g>
</svg>