<?xml version="1.0" encoding="UTF-8"?>
<svg width="68px" height="62px" viewBox="0 0 68 62" version="1.1" xmlns="http://www.w3.org/2000/svg" xmlns:xlink="http://www.w3.org/1999/xlink">
    <!-- Generator: Sketch 50.2 (55047) - http://www.bohemiancoding.com/sketch -->
    <title>Combined Shape</title>
    <desc>Created with Sketch.</desc>
    <defs></defs>
    <g id="Page-1" stroke="none" stroke-width="1" fill="none" fill-rule="evenodd">
        <g id="wunder_landingpage_desktop_03" transform="translate(-344.000000, -1001.000000)" fill="#06A0E3">
            <g id="Benifits" transform="translate(234.000000, 1001.000000)">
                <g id="Save-Money">
                    <path d="M153.211397,40.3563636 L134.621432,28.1818182 L145.657541,28.1818182 C146.193055,28.1818182 146.686067,28.4918182 146.924073,28.9709091 C149.287132,33.6772727 151.800362,38.0172727 153.086727,40.1872727 C153.123562,40.2436364 153.174563,40.3 153.211397,40.3563636 Z M176.720152,55.7436364 L164.360843,47.6554545 L171.736194,37.5663636 L176.720152,55.7436364 Z M161.992117,46.1054545 L156.0023,42.16 C156.248807,42.2163636 156.495313,42.2727273 156.750319,42.2727273 C158.24919,42.2727273 159.651725,41.4836364 160.413911,40.1872727 C161.700276,38.0172727 164.213506,33.6772727 166.576565,28.9709091 C166.814571,28.4918182 167.307583,28.1818182 167.843097,28.1818182 C168.483446,28.1818182 169.282466,28.6045455 169.449637,29.2245455 L170.781337,34.0718182 L161.992117,46.1054545 Z M132.524713,52.7845455 L125.582872,62 L111.415851,62 C110.97384,62 110.557329,61.8027273 110.290989,61.4363636 C110.021816,61.0981818 109.933981,60.6472727 110.05015,60.2245455 L115.229613,41.3145455 L132.524713,52.7845455 Z M167.656092,62 L129.124628,62 L141.968449,44.9781818 L167.656092,62 Z M177.847847,59.83 L177.94985,60.2245455 C178.066019,60.6472727 177.978184,61.0981818 177.709011,61.4363636 C177.442671,61.8027273 177.02616,62 176.584149,62 L172.761887,62 L121.76061,28.1818182 L129.464636,28.1818182 L177.847847,59.83 Z M116.014466,38.4681818 L118.499362,29.3936364 L139.608223,43.4 L134.227589,50.53 L116.014466,38.4681818 Z M141.404602,48.5290909 L138.571197,52.7563636 C138.355859,53.0945455 138.28219,53.4890909 138.367192,53.8554545 C138.452194,54.2218182 138.687367,54.56 139.021709,54.7572727 L146.105219,58.9845455 C146.331892,59.1254545 146.584065,59.1818182 146.833404,59.1818182 C147.292416,59.1818182 147.740094,58.9563636 148.0121,58.5618182 L150.845505,54.3345455 C151.060843,53.9963636 151.134512,53.6018182 151.04951,53.2354545 C150.964508,52.8690909 150.729335,52.5309091 150.394993,52.3336364 L143.311483,48.1063636 C142.656966,47.7118182 141.821112,47.9090909 141.404602,48.5290909 Z M147.663592,53.9963636 L146.40556,55.8845455 L141.75311,53.0945455 L143.011142,51.2063636 L147.663592,53.9963636 Z M156.750319,0 C163.779995,0 169.500638,5.69272727 169.500638,12.6818182 C169.500638,19.1072727 159.150213,36.7772727 157.971516,38.75 C157.71651,39.2009091 157.251832,39.4545455 156.750319,39.4545455 C156.248807,39.4545455 155.784128,39.2009091 155.529122,38.75 C154.350426,36.7772727 144,19.1072727 144,12.6818182 C144,5.69272727 149.720643,0 156.750319,0 Z M156.750319,16.9090909 C159.093545,16.9090909 161.000426,15.0209091 161.000426,12.6818182 C161.000426,10.3427273 159.093545,8.45454545 156.750319,8.45454545 C154.407094,8.45454545 152.500213,10.3427273 152.500213,12.6818182 C152.500213,15.0209091 154.407094,16.9090909 156.750319,16.9090909 Z" id="Combined-Shape"></path>
                </g>
            </g>
        </g>
    </g>
</svg>