<?xml version="1.0" encoding="UTF-8"?>
<svg width="29px" height="29px" viewBox="0 0 29 22" version="1.1" xmlns="http://www.w3.org/2000/svg" xmlns:xlink="http://www.w3.org/1999/xlink">
    <!-- Generator: Sketch 50.2 (55047) - http://www.bohemiancoding.com/sketch -->
    <title>Group 51</title>
    <desc>Created with Sketch.</desc>
    <defs></defs>
    <g id="Page-1" stroke="none" stroke-width="1" fill="none" fill-rule="evenodd" opacity="0.300000012">
        <g id="wunder_solutions_fleet" transform="translate(-232.000000, -2479.000000)" fill="#000000">
            <g id="Group-29" transform="translate(232.000000, 2186.000000)">
                <g id="Group-11">
                    <g id="Check-Battery" transform="translate(0.000000, 288.000000)">
                        <g id="Group-51" transform="translate(0.000000, 5.000000)">
                            <path d="M14.6,17.1111111 C13.2764,17.1111111 12.2,18.2111111 12.2,19.5555556 C12.2,20.9 13.2764,22 14.6,22 C15.9224,22 17,20.9 17,19.5555556 C17,18.2111111 15.9224,17.1111111 14.6,17.1111111" id="Fill-4894"></path>
                            <path d="M15.1592,18.0277778 C14.894,18.0277778 14.6504,17.8444444 14.5796,17.5633333 L11.5796,5.95222222 C11.4956,5.63444444 11.6864,5.29222222 12.008,5.20666667 C12.3224,5.12111111 12.6572,5.31666667 12.74,5.64666667 L15.74,17.2577778 C15.824,17.5877778 15.6332,17.9177778 15.3116,18.0033333 C15.2612,18.0155556 15.2096,18.0277778 15.1592,18.0277778" id="Fill-4895"></path>
                            <path d="M15.8,2.32222222 C15.8,2.66444444 15.5312,2.93333333 15.2,2.93333333 C14.8676,2.93333333 14.6,2.66444444 14.6,2.32222222 L14.6,1.22222222 C14.6,0.88 14.8676,0.611111111 15.2,0.611111111 C15.5312,0.611111111 15.8,0.88 15.8,1.22222222 L15.8,2.32222222 L15.8,2.32222222 Z M15.8,5.62222222 C15.8,5.96444444 15.5312,6.23333333 15.2,6.23333333 C14.8676,6.23333333 14.6,5.96444444 14.6,5.62222222 L14.6,4.52222222 C14.6,4.18 14.8676,3.91111111 15.2,3.91111111 C15.5312,3.91111111 15.8,4.18 15.8,4.52222222 L15.8,5.62222222 L15.8,5.62222222 Z M15.8,8.92222222 C15.8,9.26444444 15.5312,9.53333333 15.2,9.53333333 C14.8676,9.53333333 14.6,9.26444444 14.6,8.92222222 L14.6,7.82222222 C14.6,7.48 14.8676,7.21111111 15.2,7.21111111 C15.5312,7.21111111 15.8,7.48 15.8,7.82222222 L15.8,8.92222222 L15.8,8.92222222 Z M15.8,12.2222222 C15.8,12.5644444 15.5312,12.8333333 15.2,12.8333333 C14.8676,12.8333333 14.6,12.5644444 14.6,12.2222222 L14.6,11.1222222 C14.6,10.78 14.8676,10.5111111 15.2,10.5111111 C15.5312,10.5111111 15.8,10.78 15.8,11.1222222 L15.8,12.2222222 L15.8,12.2222222 Z M28.7924,5.03555556 C28.5584,4.82777778 22.9772,0 14.6,0 C6.2216,0 0.6404,4.82777778 0.4076,5.03555556 C0.236,5.19444444 0.1616,5.42666667 0.2168,5.64666667 L2.6168,15.4244444 C2.6576,15.5955556 2.7668,15.73 2.9168,15.8155556 C3.0056,15.8644444 3.1028,15.8888889 3.2,15.8888889 C3.2672,15.8888889 3.3368,15.8766667 3.4028,15.8522222 C3.458,15.8277778 8.1176,14.1411111 12.3164,13.6033333 L11.5832,10.7677778 L11.5976,10.9511111 C11.6228,11.2933333 11.3756,11.5866667 11.0456,11.6111111 L10.9988,11.6111111 C10.688,11.6111111 10.4252,11.3666667 10.4024,11.0488889 L9.8024,3.10444444 C9.776,2.76222222 10.0232,2.46888889 10.3544,2.44444444 C10.6484,2.42 10.9724,2.67666667 10.9976,3.00666667 L11.1884,5.54888889 C11.372,5.61 11.5268,5.74444444 11.5796,5.95222222 L13.526,13.4933333 C13.892,13.4566667 14.2532,13.4444444 14.6,13.4444444 C19.1636,13.4444444 25.7312,15.8277778 25.7972,15.8522222 C25.9568,15.9133333 26.1332,15.9011111 26.282,15.8155556 C26.432,15.73 26.5412,15.5955556 26.582,15.4244444 L28.982,5.64666667 C29.0372,5.42666667 28.9628,5.19444444 28.7924,5.03555556 L28.7924,5.03555556 Z" id="Fill-4896"></path>
                        </g>
                    </g>
                </g>
            </g>
        </g>
    </g>
</svg>