<?xml version="1.0" encoding="UTF-8"?>
<svg width="28px" height="21px" viewBox="0 0 28 21" version="1.1" xmlns="http://www.w3.org/2000/svg" xmlns:xlink="http://www.w3.org/1999/xlink">
    <!-- Generator: Sketch 51.2 (57519) - http://www.bohemiancoding.com/sketch -->
    <title>Group 399</title>
    <desc>Created with Sketch.</desc>
    <defs></defs>
    <g id="Page-1" stroke="none" stroke-width="1" fill="none" fill-rule="evenodd">
        <g id="Artboard-5" transform="translate(-28.000000, -54.000000)" fill="#B2B2B2">
            <g id="Group-399" transform="translate(28.000000, 54.000000)">
                <g id="Group-517">
                    <path d="M0.000116666667,4.66666667 L28.0001167,4.66666667 L28.0001167,18.0833333 C28.0001167,19.691 26.6911167,21 25.08345,21 L2.91678333,21 C1.30911667,21 0.000116666667,19.691 0.000116666667,18.0833333 L0.000116666667,4.66666667 Z M25.08345,9.33333333 C25.40545,9.33333333 25.6667833,9.072 25.6667833,8.75 C25.6667833,8.428 25.40545,8.16666667 25.08345,8.16666667 L22.7501167,8.16666667 C22.4281167,8.16666667 22.1667833,8.428 22.1667833,8.75 C22.1667833,9.072 22.4281167,9.33333333 22.7501167,9.33333333 L25.08345,9.33333333 Z M25.08345,12.8333333 C25.40545,12.8333333 25.6667833,12.572 25.6667833,12.25 C25.6667833,11.928 25.40545,11.6666667 25.08345,11.6666667 L16.9167833,11.6666667 C16.5947833,11.6666667 16.33345,11.928 16.33345,12.25 C16.33345,12.572 16.5947833,12.8333333 16.9167833,12.8333333 L25.08345,12.8333333 Z M25.08345,16.3333333 C25.40545,16.3333333 25.6667833,16.072 25.6667833,15.75 C25.6667833,15.428 25.40545,15.1666667 25.08345,15.1666667 L20.4167833,15.1666667 C20.0947833,15.1666667 19.83345,15.428 19.83345,15.75 C19.83345,16.072 20.0947833,16.3333333 20.4167833,16.3333333 L25.08345,16.3333333 Z M18.08345,16.3333333 C18.40545,16.3333333 18.6667833,16.072 18.6667833,15.75 C18.6667833,15.428 18.40545,15.1666667 18.08345,15.1666667 L16.9167833,15.1666667 C16.5947833,15.1666667 16.33345,15.428 16.33345,15.75 C16.33345,16.072 16.5947833,16.3333333 16.9167833,16.3333333 L18.08345,16.3333333 Z M14.58345,18.6666667 C14.90545,18.6666667 15.1667833,18.4041667 15.1667833,18.0821667 C15.1667833,16.6203333 14.1762833,15.351 12.7576167,14.9963333 L11.00645,14.5588333 L10.93295,14.266 C11.38795,13.7631667 11.70995,13.1238333 11.8441167,12.4588333 C12.15445,12.299 12.38195,11.9921667 12.42745,11.6246667 L12.5546167,10.6096667 C12.5931167,10.3028333 12.4986167,9.99133333 12.2956167,9.75916667 C12.23145,9.68683333 12.1602833,9.62383333 12.08095,9.57133333 L12.1112833,8.953 L12.2186167,8.84566667 C12.51845,8.526 12.9267833,7.8435 12.2816167,6.85766667 C11.97595,6.391 11.34595,5.83333333 10.0847833,5.83333333 C9.71378333,5.83333333 8.87495,5.83333333 8.06061667,6.34433333 C5.65961667,6.42833333 5.37728333,7.72216667 5.37728333,8.69983333 C5.37728333,8.89116667 5.41111667,9.25283333 5.44495,9.55266667 C5.35861667,9.6075 5.27928333,9.674 5.21045,9.75216667 C5.00395,9.98666667 4.90711667,10.2993333 4.94561667,10.6096667 L5.07278333,11.6246667 C5.12061667,12.005 5.36095,12.32 5.71678333,12.4751667 C5.84978333,13.111 6.15311667,13.727 6.57895,14.2158333 L6.49378333,14.5588333 L4.74261667,14.9963333 C3.32395,15.351 2.33345,16.6203333 2.33345,18.0833333 C2.33345,18.4053333 2.59478333,18.6666667 2.91678333,18.6666667 L14.58345,18.6666667 Z M16.9167833,8.16666667 C16.5947833,8.16666667 16.33345,8.428 16.33345,8.75 C16.33345,9.072 16.5947833,9.33333333 16.9167833,9.33333333 L20.4167833,9.33333333 C20.7387833,9.33333333 21.0001167,9.072 21.0001167,8.75 C21.0001167,8.428 20.7387833,8.16666667 20.4167833,8.16666667 L16.9167833,8.16666667 Z M28.0001167,3.5 L0.000116666667,3.5 L0.000116666667,2.91666667 C0.000116666667,1.309 1.30911667,0 2.91678333,0 L25.08345,0 C26.6911167,0 28.0001167,1.309 28.0001167,2.91666667 L28.0001167,3.5 Z" id="Combined-Shape"></path>
                </g>
            </g>
        </g>
    </g>
</svg>