<?xml version="1.0" encoding="UTF-8"?>
<svg width="64px" height="64px" viewBox="0 0 64 64" version="1.1" xmlns="http://www.w3.org/2000/svg" xmlns:xlink="http://www.w3.org/1999/xlink">
    <!-- Generator: Sketch 50.2 (55047) - http://www.bohemiancoding.com/sketch -->
    <title>Combined Shape</title>
    <desc>Created with Sketch.</desc>
    <defs></defs>
    <g id="Page-1" stroke="none" stroke-width="1" fill="none" fill-rule="evenodd">
        <g id="wunder_landingpage_desktop_05" transform="translate(-116.000000, -7482.000000)" fill="#04DE47">
            <g id="48-Reasons" transform="translate(10.000000, 7318.000000)">
                <g id="Employees" transform="translate(0.000000, 94.000000)">
                    <g id="Competitive-Compensation--&amp;-Equity">
                        <path d="M147.930667,91.1922345 L145.917333,92.200229 C145.970667,92.3442282 146,92.5015607 146,92.6668931 C146,93.4028891 145.405333,94.0002191 144.666667,94.0002191 L142,94.0002191 C141.384,94.0002191 140.845333,93.5735548 140.704,92.9735581 C140.56,92.3708947 140.850667,91.7495648 141.405333,91.4748996 L146.738667,88.8082476 C147.4,88.4802494 148.197333,88.7442479 148.528,89.402911 C148.856,90.061574 148.589333,90.8642363 147.930667,91.1922345 L147.930667,91.1922345 Z M135.298667,92.9735581 C135.157333,93.5735548 134.618667,94.0002191 134,94.0002191 L131.333333,94.0002191 C130.597333,94.0002191 130,93.4028891 130,92.6668931 L130,92.1575625 L128.072,91.1922345 C127.413333,90.8642363 127.146667,90.061574 127.474667,89.402911 C127.805333,88.7442479 128.605333,88.4802494 129.264,88.8082476 L131.904,90.1282403 C131.922667,90.1362403 131.938667,90.1442402 131.954667,90.1522402 L134.597333,91.4748996 C135.152,91.7495648 135.442667,92.3708947 135.298667,92.9735581 L135.298667,92.9735581 Z M169.354667,120.856072 C169.754667,121.098737 170,121.530735 170,122.000066 L170,132.666674 C170,133.40267 169.405333,134 168.666667,134 L107.333333,134 C106.597333,134 106,133.40267 106,132.666674 L106,122.000066 C106,121.530735 106.248,121.098737 106.648,120.856072 L119.381333,113.216114 L122.002667,71.2510104 C122.037333,70.7256799 122.373333,70.2723491 122.864,70.0856835 C123.352,69.9016845 123.904,70.0190172 124.277333,70.3896818 L128.866667,74.97899 C130.405333,74.120328 133.656,72.6670026 138,72.6670026 C142.346667,72.6670026 145.597333,74.120328 147.136,74.97899 L151.725333,70.3896818 C152.096,70.0190172 152.648,69.9016845 153.138667,70.0856835 C153.629333,70.2723491 153.965333,70.7256799 153.997333,71.2510104 L156.621333,113.216114 L169.354667,120.856072 Z M138.368,101.949509 C138.128,102.016175 137.874667,102.016175 137.634667,101.949509 L129.626667,99.6588548 L127.522667,108.077475 L134.405333,112.666784 L141.597333,112.666784 L148.48,108.077475 L146.376,99.6588548 L138.368,101.949509 Z M140.666667,107.333479 L135.333333,107.333479 C134.597333,107.333479 134,106.736149 134,106.000153 C134,105.264157 134.597333,104.666827 135.333333,104.666827 L140.666667,104.666827 C141.405333,104.666827 142,105.264157 142,106.000153 C142,106.736149 141.405333,107.333479 140.666667,107.333479 Z" id="Combined-Shape"></path>
                    </g>
                </g>
            </g>
        </g>
    </g>
</svg>