<?xml version="1.0" encoding="utf-8"?>
<!-- Generator: Adobe Illustrator 22.1.0, SVG Export Plug-In . SVG Version: 6.00 Build 0)  -->
<svg version="1.1" xmlns="http://www.w3.org/2000/svg" xmlns:xlink="http://www.w3.org/1999/xlink" x="0px" y="0px" width="160px"
	 height="141px" viewBox="0 0 160 141" style="enable-background:new 0 0 160 141;" xml:space="preserve">
<style type="text/css">
	.st0{fill:#4D4E4E;}
	.st1{fill:#EDEDED;}
	.st2{fill:#C1C1C1;}
	.st3{fill:#B7B7B7;}
	.st4{fill:#F5F5F4;}
	.st5{fill:#A0A0A0;}
	.st6{fill:#C4C4C4;}
	.st7{fill:#AFAFAF;}
	.st8{fill:#A5A5A5;}
	.st9{fill:#7C7C7C;}
	.st10{fill:#3A3A3A;}
	.st11{fill:#434343;}
	.st12{fill:#6D6D6D;}
	.st13{fill:#848484;}
	.st14{fill:#EAEAEA;}
	.st15{fill:#CCCCCC;}
	.st16{fill:#8E5B38;}
	.st17{fill:#9E6740;}
	.st18{fill:#06A0E3;}
	.st19{fill:#30302F;}
	.st20{fill:#CCC8C4;}
	.st21{fill:#BFBFBF;}
	.st22{fill:#4C4C4C;}
	.st23{fill:#424242;}
	.st24{fill:none;}
</style>
<g id="Ebene_2">
	<g>
		<g>
			<g>
				<g>
					<g>
						<g>
							<path class="st0" d="M128.9,109.7c-2.1,0.5-4.3,0.7-6.5,0.7c-2.4,0-4.6-0.3-6.8-0.8v-0.5c2.2,0.6,4.5,0.8,6.8,0.8
								c2.2,0,4.4-0.3,6.5-0.8V109.7z"/>
						</g>
					</g>
				</g>
			</g>
			<g>
				<g>
					<g>
						<g>
							<path class="st1" d="M128.9,111.5v1.8c0,2.2-1.1,6.6-6.5,6.6c0,0-0.1,0-0.1,0c0,0,0,0,0,0c-5.4,0-6.6-5.1-6.6-6.7h0v-1.8
								v-1.9c2.2,0.5,4.5,0.8,6.8,0.8c2.2,0,4.4-0.3,6.5-0.7V111.5z"/>
						</g>
					</g>
				</g>
			</g>
			<g>
				<g>
					<g>
						<g>
							<g>
								<path class="st2" d="M122.4,110.4c-2.4,0-4.6-0.3-6.8-0.8v1.5c2.9,0.9,7,1.5,13.3,0.1v-1.5
									C126.8,110.2,124.7,110.4,122.4,110.4z"/>
							</g>
						</g>
					</g>
				</g>
			</g>
			<g>
				<g>
					<g>
						<g>
							<g>
								<path class="st1" d="M157.1,69.4v6.3c0,1.9-1.6,3.5-3.5,3.5h-3.2c-1.9,0-3.5-1.6-3.5-3.5v-6.3c0-1.9,1.6-3.5,3.5-3.5h3.2
									C155.6,65.9,157.1,67.5,157.1,69.4z"/>
							</g>
						</g>
					</g>
				</g>
			</g>
			<g>
				<g>
					<g>
						<g>
							<g>
								<path class="st0" d="M153.6,80.1h-3.2c-2.4,0-4.4-2-4.4-4.4v-6.3c0-2.4,2-4.4,4.4-4.4h3.2c2.4,0,4.4,2,4.4,4.4v6.3
									C158,78.1,156.1,80.1,153.6,80.1z M150.5,66.8c-1.4,0-2.6,1.2-2.6,2.6v6.3c0,1.4,1.2,2.6,2.6,2.6h3.2c1.4,0,2.6-1.2,2.6-2.6
									v-6.3c0-1.5-1.2-2.6-2.6-2.6H150.5z"/>
							</g>
						</g>
					</g>
				</g>
			</g>
			<g>
				<g>
					<g>
						<g>
							<path class="st1" d="M141.7,43.4c-5.1-5.1-12-8-19.2-8c-15,0-27.2,12.2-27.2,27.2v13v5.9c0,15,12.2,27.2,27.2,27.2
								s27.2-12.2,27.2-27.2v-5.6V62.6C149.6,55.3,146.8,48.5,141.7,43.4z"/>
						</g>
					</g>
				</g>
			</g>
			<g>
				<g>
					<g>
						<g>
							<path class="st0" d="M129.5,65.4c-0.3,0-0.7-0.2-0.8-0.6c-0.2-0.4,0-1,0.5-1.1c1.6-0.6,6.9-2,10.9,0c0.4,0.2,0.6,0.7,0.4,1.2
								c-0.2,0.4-0.7,0.6-1.2,0.4c-3.1-1.6-7.7-0.7-9.4,0C129.8,65.4,129.7,65.4,129.5,65.4z"/>
						</g>
					</g>
				</g>
			</g>
			<g>
				<g>
					<g>
						<g>
							<g>
								<path class="st0" d="M146.4,120.4c1.9,3.7,1.8,7.2,1.7,13c0,1.6-0.1,3.5-0.1,5.6c0,0.5-0.4,0.9-0.9,0.9H97.4
									c-0.5,0-0.9-0.4-0.9-0.9c0-2.1,0-3.9-0.1-5.6c-0.1-5.8-0.2-9.3,1.7-13c2.1-4.2,15.1-9.2,16.6-9.7c0.2-0.1,0.3-0.1,0.5-0.1
									c0.4-0.1,0.8,0.2,1,0.6c0.1,0.2,1.3,3.6,6.2,3.6c5,0,6.2-3.6,6.2-3.6c0.1-0.4,0.5-0.7,0.9-0.6c0.1,0,0.3,0,0.4,0.1
									C131.3,111.2,144.3,116.2,146.4,120.4z M146.2,133.4c0.1-5.7,0.2-8.9-1.5-12.3c-1.4-2.9-10.7-7-14.9-8.6
									c-0.7,1.4-2.8,4-7.5,4c-4.8,0-6.8-2.7-7.5-4c-4.2,1.6-13.5,5.7-15,8.6c-1.7,3.4-1.6,6.5-1.5,12.3c0,1.4,0.1,3,0.1,4.7h47.8
									C146.1,136.4,146.2,134.8,146.2,133.4z"/>
							</g>
						</g>
					</g>
				</g>
			</g>
			<g>
				<g>
					<g>
						<g>
							<g>
								<path class="st3" d="M144.7,121.1c1.7,3.4,1.6,6.5,1.5,12.3c0,1.4-0.1,3-0.1,4.7H98.3c0-1.7,0-3.3-0.1-4.7
									c-0.1-5.7-0.2-8.9,1.5-12.3c1.4-2.9,10.8-7,15-8.6c0.7,1.4,2.8,4,7.5,4c4.7,0,6.8-2.7,7.5-4
									C134,114.2,143.3,118.2,144.7,121.1z"/>
							</g>
						</g>
					</g>
				</g>
			</g>
			<g>
				<g>
					<g>
						<g>
							<path class="st0" d="M130.7,134.8c-0.9,0-1.7-0.4-2.3-1c-1.8-2-1.4-6.1-1.3-6.6c0-0.4,0.4-0.8,0.9-0.8h6
								c0.5,0,0.9,0.4,0.9,0.9c0,0.2,0,0.5,0,0.7c0,2.1,0,4.4-1.3,5.8C132.7,134.4,131.8,134.8,130.7,134.8z M128.7,128.1
								c0,1.3,0.1,3.5,1,4.5c0.3,0.3,0.6,0.4,1,0.4c0.7,0,1.1-0.2,1.5-0.5c0.8-0.8,0.8-2.8,0.8-4.4H128.7z"/>
						</g>
					</g>
				</g>
			</g>
			<g>
				<g>
					<g>
						<g>
							<path class="st0" d="M137.8,139.9c-0.4,0-0.7-0.3-0.7-0.7v-2.6c0-0.4,0.3-0.7,0.7-0.7s0.7,0.3,0.7,0.7v2.6
								C138.5,139.6,138.2,139.9,137.8,139.9z"/>
						</g>
					</g>
				</g>
			</g>
			<g>
				<g>
					<g>
						<g>
							<g>
								<path class="st0" d="M143.7,73.7v4c0,2.4-1.9,4.3-4.3,4.3h-9.2c-2.4,0-4.3-1.9-4.3-4.3v-4c0-2.4,1.9-4.3,4.3-4.3h9.2
									C141.7,69.4,143.7,71.4,143.7,73.7z M141.9,77.7v-4c0-1.4-1.2-2.6-2.6-2.6h-9.2c-1.4,0-2.6,1.2-2.6,2.6v4
									c0,1.4,1.2,2.6,2.6,2.6h9.2C140.7,80.3,141.9,79.1,141.9,77.7z"/>
							</g>
						</g>
					</g>
				</g>
				<g>
					<g>
						<g>
							<g>
								<path class="st4" d="M141.9,73.7v4c0,1.4-1.2,2.6-2.6,2.6h-9.2c-1.4,0-2.6-1.2-2.6-2.6v-4c0-1.4,1.2-2.6,2.6-2.6h9.2
									C140.7,71.2,141.9,72.3,141.9,73.7z"/>
							</g>
						</g>
					</g>
				</g>
			</g>
			<g>
				<g>
					<g>
						<g>
							<path class="st0" d="M142.8,75.4c-0.2,0-0.4-0.1-0.5-0.2c-0.4-0.3-0.4-0.9-0.1-1.2l7.7-9.6c0.3-0.4,0.9-0.4,1.2-0.1
								c0.4,0.3,0.4,0.9,0.1,1.2l-7.7,9.6C143.3,75.3,143,75.4,142.8,75.4z"/>
						</g>
					</g>
				</g>
			</g>
			<g>
				<g>
					<g>
						<g>
							<path class="st0" d="M128.9,112.9c-0.5,0-0.9-0.4-0.9-0.9v-3c0-0.5,0.4-0.9,0.9-0.9s0.9,0.4,0.9,0.9v3
								C129.8,112.5,129.4,112.9,128.9,112.9z"/>
						</g>
					</g>
				</g>
			</g>
			<g>
				<g>
					<g>
						<g>
							<path class="st0" d="M115.6,112.9c-0.5,0-0.9-0.4-0.9-0.9v-3c0-0.5,0.4-0.9,0.9-0.9s0.9,0.4,0.9,0.9v3
								C116.5,112.5,116.1,112.9,115.6,112.9z"/>
						</g>
					</g>
				</g>
			</g>
			<g>
				<g>
					<g>
						<g>
							<g>
								<path class="st5" d="M111,122.3c0-2.5-0.7-5.1-1.6-7.5c-4.1,1.9-8.6,4.4-9.6,6.3c-1.7,3.4-1.6,6.5-1.5,12.3
									c0,1.4,0.1,3,0.1,4.7h12.8C111.4,133.9,111,126.6,111,122.3z"/>
							</g>
						</g>
					</g>
				</g>
			</g>
			<g>
				<g>
					<g>
						<g>
							<g>
								<path class="st6" d="M121.2,71.3c2.4-0.4,4.1-3.3,4.5-4.5c0.4-1.2,0.4-9,0-10.6c-0.4-1.6-1.6-2.4-3.3-2.4
									c1.2-2,3.7-12.2,4.5-18c-1.5-0.2-3-0.4-4.5-0.4c-15,0-27.2,12.2-27.2,27.2v13v5.9c0,9.9,5.3,18.5,13.2,23.3
									c5.8-6.3,9.2-20.4,10.7-23.3C120.8,78.3,121.2,72.6,121.2,71.3z"/>
							</g>
						</g>
					</g>
				</g>
			</g>
			<g>
				<g>
					<g>
						<g>
							<g>
								<g>
									<path class="st0" d="M135.1,78.5h-0.8c-1.1,0-2-0.9-2-2v-0.8c0-1.1,0.9-2,2-2h0.8c1.1,0,2,0.9,2,2v0.8
										C137.1,77.6,136.2,78.5,135.1,78.5z"/>
								</g>
							</g>
						</g>
					</g>
				</g>
			</g>
			<g>
				<g>
					<g>
						<g>
							<path class="st0" d="M122.8,88c-1.6,0-2.8-0.5-3.7-1.5c-1.4-1.6-1.1-4-1-4.1c0.1-0.5,0.5-0.8,1-0.7c0.5,0.1,0.8,0.5,0.7,1
								c0,0-0.2,1.7,0.6,2.7c0.5,0.6,1.3,0.9,2.3,0.9c1.2,0,2-0.3,2.5-0.7c0.6-0.7,0.6-1.8,0.5-2.5c0-0.2,0-0.3,0-0.4
								c0-0.5,0.4-0.9,0.9-0.9c0.5,0,0.9,0.4,0.9,0.9c0,0.1,0,0.2,0,0.3c0,0.9,0.1,2.6-1,3.8C125.7,87.6,124.5,88,122.8,88z"/>
						</g>
					</g>
				</g>
			</g>
			<g>
				<g>
					<g>
						<g>
							<g>
								<path class="st0" d="M131.2,91.1c0.5,0,0.9,0.4,0.9,0.9c0,0.1-0.1,8.9-9.3,8.9c-2.8,0-5-0.8-6.6-2.5
									c-2.5-2.6-2.4-6.4-2.4-6.5c0-0.5,0.4-0.8,0.9-0.8H131.2z M130.3,92.9h-14.6c0.1,1.1,0.5,3,1.9,4.4c1.2,1.3,3,1.9,5.3,1.9
									C128.7,99.2,130,94.8,130.3,92.9z"/>
							</g>
						</g>
					</g>
				</g>
				<g>
					<g>
						<g>
							<g>
								<path class="st4" d="M115.6,92.9h14.6c-0.3,1.9-1.5,6.3-7.5,6.3c-2.3,0-4.1-0.6-5.3-1.9C116.1,95.9,115.8,94,115.6,92.9z"/>
							</g>
						</g>
					</g>
				</g>
			</g>
			<g>
				<g>
					<g>
						<g>
							<path class="st0" d="M126.7,75.4h-7.8c-0.5,0-0.9-0.4-0.9-0.9c0-0.5,0.4-0.9,0.9-0.9h7.8c0.5,0,0.9,0.4,0.9,0.9
								C127.5,75,127.1,75.4,126.7,75.4z"/>
						</g>
					</g>
				</g>
			</g>
			<g>
				<g>
					<g>
						<g>
							<g>
								<path class="st0" d="M119.8,73.7v4c0,2.4-1.9,4.3-4.3,4.3h-9.2c-2.4,0-4.3-1.9-4.3-4.3v-4c0-2.4,1.9-4.3,4.3-4.3h9.2
									C117.9,69.4,119.8,71.4,119.8,73.7z M118.1,77.7v-4c0-1.4-1.2-2.6-2.6-2.6h-9.2c-1.4,0-2.6,1.2-2.6,2.6v4
									c0,1.4,1.2,2.6,2.6,2.6h9.2C116.9,80.3,118.1,79.1,118.1,77.7z"/>
							</g>
						</g>
					</g>
				</g>
				<g>
					<g>
						<g>
							<g>
								<path class="st4" d="M118.1,73.7v4c0,1.4-1.2,2.6-2.6,2.6h-9.2c-1.4,0-2.6-1.2-2.6-2.6v-4c0-1.4,1.2-2.6,2.6-2.6h9.2
									C116.9,71.2,118.1,72.3,118.1,73.7z"/>
							</g>
						</g>
					</g>
				</g>
			</g>
			<g>
				<g>
					<g>
						<g>
							<g>
								<g>
									<path class="st0" d="M111.3,78.5h-0.8c-1.1,0-2-0.9-2-2v-0.8c0-1.1,0.9-2,2-2h0.8c1.1,0,2,0.9,2,2v0.8
										C113.3,77.6,112.4,78.5,111.3,78.5z"/>
								</g>
							</g>
						</g>
					</g>
				</g>
			</g>
			<g>
				<g>
					<g>
						<g>
							<path class="st0" d="M105.5,65.4c-0.3,0-0.7-0.2-0.8-0.6c-0.2-0.4,0-1,0.5-1.1c1.6-0.6,6.9-2,10.9,0c0.4,0.2,0.6,0.7,0.4,1.2
								c-0.2,0.4-0.7,0.6-1.2,0.4c-3.1-1.6-7.7-0.7-9.4,0C105.7,65.4,105.6,65.4,105.5,65.4z"/>
						</g>
					</g>
				</g>
			</g>
			<g>
				<g>
					<g>
						<g>
							<path class="st0" d="M95.3,81.5c0,15,12.2,27.2,27.2,27.2s27.2-12.2,27.2-27.2v-5.6c0.3-0.5,0.6-1.1,0.9-1.6v7.2
								c0,15.5-12.6,28-28,28c-15.5,0-28-12.5-28-28v-7.4c0.3,0.5,0.5,1,0.9,1.5V81.5z"/>
						</g>
					</g>
				</g>
			</g>
			<g>
				<g>
					<g>
						<g>
							<path class="st0" d="M128.9,109.1c-2.1,0.5-4.3,0.8-6.5,0.8c-2.4,0-4.6-0.3-6.8-0.8c-12.2-3-21.2-14.1-21.2-27.2v-0.3
								c0,15.5,12.6,28,28,28c15.5,0,28-12.6,28-28v0.4C150.5,95.1,141.3,106.2,128.9,109.1z"/>
						</g>
					</g>
				</g>
			</g>
			<g>
				<g>
					<g>
						<g>
							<path class="st0" d="M151.4,81.5c0,13.7-9.6,25.2-22.4,28.2v-0.5c12.4-2.9,21.6-14,21.6-27.3v-0.4v-7.2V62.6
								c0-7.7-3.1-14.8-8.2-19.8c-5.1-5.1-12.1-8.2-19.8-8.2c-15.5,0-28,12.6-28,28v11.5v7.4v0.3c0,13.1,9,24.2,21.2,27.2v0.5
								c-12.7-3.1-22.1-14.5-22.1-28.1V62.6c0-15.9,13-28.9,28.9-28.9c7.7,0,15,3,20.5,8.5c5.5,5.5,8.5,12.7,8.5,20.5V81.5z"/>
						</g>
					</g>
				</g>
			</g>
			<g>
				<g>
					<g>
						<g>
							<path class="st0" d="M141.7,43.4c-5.1-5.1-12-8-19.2-8c-15,0-27.2,12.2-27.2,27.2v13c-0.3-0.5-0.6-1-0.9-1.5V62.6
								c0-15.5,12.6-28,28-28c7.7,0,14.8,3.1,19.8,8.2c5.1,5.1,8.2,12.1,8.2,19.8v11.7c-0.2,0.5-0.5,1.1-0.9,1.6V62.6
								C149.6,55.3,146.8,48.5,141.7,43.4z"/>
						</g>
					</g>
				</g>
			</g>
			<g>
				<g>
					<g>
						<g>
							<path class="st7" d="M145.1,58.3c-2.3-0.1-5.8-0.3-7.9-1c-2.8-1.1-7.7-2.8-10.5-3.9c4.2,1.8,7,6.7,5.6,6.7s-7.4-0.4-13.3-1.8
								c-3.8-0.9-10.6-3.9-16.2-7h0c-4,0-6.2,7-8.3,15c-3.9-3.9-5.6-14.4-4.6-20c1.8-9.1,13.3-17.9,29.1-20.3s29.8,7.4,34.4,16.1
								s-1.1,20.9-2.8,23.7C150.5,63.6,145.1,58.3,145.1,58.3z"/>
						</g>
					</g>
				</g>
			</g>
			<g>
				<g>
					<g>
						<g>
							<g>
								<path class="st8" d="M153.3,42.2c-4.1-7.8-15.7-16.5-29.3-16.5c6.9,3.5,13.3,6.6,16.9,11.1c4.6,5.6,10.9,14,10.9,18.6
									c0,3.7-0.9,6-2,8.5c0.5,0.8,0.8,1.5,0.8,2.1C152.2,63.1,157.8,51,153.3,42.2z"/>
							</g>
						</g>
					</g>
				</g>
			</g>
			<g>
				<g>
					<g>
						<g>
							<g>
								<path class="st8" d="M146.8,56.8c-0.4-0.4-1.4-2.1-2.1-2.8c-0.7-0.7-4.2-2.5-4.2-2.5c0.4,0.4,1.8,2.8,1.8,2.8
									c0.6,1.1,1.1,2.5,1.5,4c0.5,0,0.9,0,1.3,0c0,0,0.4,0.4,1,1l0.8-0.8C146.8,58.5,147.2,57.1,146.8,56.8z"/>
							</g>
						</g>
					</g>
				</g>
			</g>
			<g>
				<g>
					<g>
						<g>
							<path class="st8" d="M126.5,54c0.7,0.7,2.1,2.8,2.5,3.5c0.4,0.7,1,2.2,1,2.5c0,0.3,1.9,0.2,1.9,0.2l0.6-0.6l-0.4-1.8
								l-1.8-2.1l-2.5-1.8H126.5z"/>
						</g>
					</g>
				</g>
			</g>
			<g>
				<g>
					<g>
						<g>
							<g>
								<path class="st9" d="M122.8,53.4c1.2-2,3.7-11.4,4.5-17.2c0.5-3.2-1.2-7.4-2.5-10.4c-1.9-0.1-3.9,0.1-5.9,0.4
									c-15.8,2.5-27.3,11.2-29.1,20.3c-1.1,5.5,0.7,16.1,4.6,20c2.1-8.1,4.4-15,8.3-15h0c5.6,3.1,12.4,6.1,16.2,7
									c2.4,0.6,4.9,1,7,1.2c0.1-1.3,0.3-2.8,0.1-3.4C125.7,54.6,124.4,53.4,122.8,53.4z"/>
							</g>
						</g>
					</g>
				</g>
			</g>
			<g>
				<g>
					<g>
						<g>
							<path class="st0" d="M132.3,61c-1.2,0-7.3-0.3-13.5-1.8c-3.7-0.9-10.5-3.8-16.4-7c-0.4-0.2-0.6-0.8-0.3-1.2
								c0.2-0.4,0.8-0.6,1.2-0.3c5.9,3.2,12.5,6,16,6.9c5.3,1.2,10.5,1.6,12.5,1.7c-0.5-1.2-2.6-3.8-5.3-5c-0.4-0.2-0.7-0.7-0.5-1.1
								c0.2-0.4,0.7-0.7,1.1-0.5c1.4,0.5,3.4,1.2,5.2,1.9c1.9,0.7,3.9,1.4,5.3,1.9c1.5,0.6,4.1,0.9,7.6,1c0.4,0,0.8,0,1.1,0
								c-0.7-1.3-2.9-3.9-5.6-5.4c-0.4-0.2-0.6-0.8-0.3-1.2c0.2-0.4,0.8-0.6,1.2-0.3c3.1,1.7,7.1,6,6.7,7.8
								c-0.1,0.5-0.6,0.9-1.2,0.9c-0.4,0-1.1,0-1.9,0c-3.7-0.1-6.5-0.5-8.2-1.1c-1.4-0.5-3.2-1.2-5.1-1.9c1.2,1.4,1.9,2.9,1.7,3.7
								C133.4,60.6,132.9,61,132.3,61z"/>
						</g>
					</g>
				</g>
			</g>
			<g>
				<g>
					<g>
						<g>
							<path class="st0" d="M94.4,67.3c-0.2,0-0.5-0.1-0.6-0.3c-4-4-6-14.7-4.8-20.8c0.9-4.7,4.3-9.4,9.6-13.2
								c5.5-3.9,12.4-6.6,20.2-7.8c9.3-1.5,17.1,1.3,21.9,3.9c5.9,3.1,10.9,7.9,13.3,12.6c4.6,8.9-0.6,21-2.8,24.5
								c-0.2,0.3-0.6,0.5-1,0.4c-0.4-0.1-0.6-0.5-0.6-0.8c0-1.3-3-4.8-5.2-6.9c-0.3-0.3-0.4-0.9,0-1.2c0.3-0.3,0.9-0.4,1.2,0
								c0.7,0.7,3.6,3.6,5,6.1c2.1-4.3,5.6-14,1.9-21.1c-2.3-4.5-7-8.9-12.6-11.9c-4.6-2.5-12-5.1-20.8-3.8
								c-14.7,2.3-26.6,10.5-28.4,19.6c-1,4.9,0.4,13.6,3.3,17.9c2-7.5,4.3-14,8.7-14l0,1.8c-3.4,0-5.7,7.4-7.5,14.4
								c-0.1,0.3-0.3,0.5-0.6,0.6C94.6,67.3,94.5,67.3,94.4,67.3z"/>
						</g>
					</g>
				</g>
			</g>
			<g>
				<g>
					<g>
						<g>
							<g>
								<path class="st10" d="M76.8,56.2c1.3,11.3-3.6,28.8-3.9,34.5c-0.3,5.6,7.5,16,3.6,20.1c-3.9,4.1-16.6,5-19.8,5
									c0,0-9.4-0.3-31.5,0.9C3,117.9,6,111.3,6.9,106.9c1-4.4,3.6-11,1.9-16c-1.6-5-8.8-24.4-6.5-33.8s13.3-21,29.6-28.8
									s32.8,8.5,33.8,11.3C70,39.6,75.5,44.9,76.8,56.2z"/>
							</g>
						</g>
					</g>
				</g>
			</g>
			<g>
				<g>
					<g>
						<g>
							<path class="st11" d="M11.9,95.8c0.8-4.9-1.2-9.4-3.3-29C7.1,52,19.4,40,30.2,29.1C14.9,36.9,4.6,48,2.4,57.1
								C0.1,66.5,7.3,85.9,8.9,91c1.6,5-1,11.6-1.9,16c-0.7,3.3-2.6,7.9,6.1,9.4C7.4,111,11.2,99.9,11.9,95.8z"/>
						</g>
					</g>
				</g>
			</g>
			<g>
				<g>
					<g>
						<g>
							<g>
								<path class="st0" d="M20,117.6c-7.2,0-11.5-1.1-13.4-3.4c-1.7-2.1-1.1-4.7-0.6-6.7c0.1-0.3,0.1-0.5,0.2-0.8
									c0.2-1,0.5-2,0.8-3.1c1.1-3.9,2.4-8.7,1.2-12.5c-0.2-0.5-0.4-1.1-0.6-1.9c-2.4-7.1-8-23.7-5.9-32.4
									c2.5-10.2,14.3-21.8,30-29.4c6-2.9,12.9-2.9,19.9,0c7.6,3.2,13.3,8.9,14.7,11.2c4.8,0.4,10.1,6.3,11.3,17.3
									c0.9,7.8-1.1,18.5-2.6,26.4c-0.7,3.5-1.2,6.5-1.3,8.3c-0.1,2.1,1.1,5.1,2.2,8.1c1.9,4.8,3.8,9.7,1.1,12.5
									c-4.2,4.4-17.2,5.3-20.4,5.3l0,0c-0.1,0-9.7-0.3-31.4,0.9C23.3,117.6,21.6,117.6,20,117.6z M41.2,27c-3.1,0-6.1,0.7-8.9,2
									C17.2,36.3,5.5,47.7,3.2,57.3c-2,8.2,3.5,24.5,5.8,31.5c0.3,0.8,0.5,1.4,0.6,1.9c1.4,4.2,0,9.3-1.2,13.4
									c-0.3,1.1-0.6,2.1-0.8,3c-0.1,0.3-0.1,0.5-0.2,0.8c-0.5,1.9-0.9,3.8,0.3,5.3c1.9,2.3,7.7,3.2,17.2,2.6
									c21.5-1.2,31.1-1,31.6-0.9c3.9,0,15.7-1.1,19.2-4.8c2-2.1,0.2-6.5-1.5-10.8c-1.3-3.2-2.5-6.3-2.3-8.8
									c0.1-1.8,0.7-4.8,1.3-8.5c1.4-7.7,3.4-18.3,2.6-25.9c-0.9-7.7-4.8-15.9-10.2-15.9h-0.6L65,39.8c-0.5-1.4-6.3-7.5-14.1-10.8
									C47.6,27.7,44.3,27,41.2,27z"/>
							</g>
						</g>
					</g>
				</g>
			</g>
			<g>
				<g>
					<g>
						<g>
							<g>
								<path class="st12" d="M76.8,56.2c1.3,11.3-3.6,28.8-3.9,34.5c-0.3,5.6,7.5,16,3.6,20.1c-3.9,4.1-16.6,5-19.8,5
									c0,0-9.4-0.3-31.5,0.9C3,117.9,6,111.3,6.9,106.9c1-4.4,3.6-11,1.9-16c-1.6-5-8.8-24.4-6.5-33.8s13.3-21,29.6-28.8
									s32.8,8.5,33.8,11.3C70,39.6,75.5,44.9,76.8,56.2z"/>
							</g>
						</g>
					</g>
				</g>
			</g>
			<g>
				<g>
					<g>
						<g>
							<path class="st13" d="M11.9,95.8c0.8-4.9-1.2-9.4-3.3-29C7.1,52,19.4,40,30.2,29.1C14.9,36.9,4.6,48,2.4,57.1
								C0.1,66.5,7.3,85.9,8.9,91c1.6,5-1,11.6-1.9,16c-0.7,3.3-2.6,7.9,6.1,9.4C7.4,111,11.2,99.9,11.9,95.8z"/>
						</g>
					</g>
				</g>
			</g>
			<g>
				<g>
					<g>
						<g>
							<g>
								<path class="st0" d="M20,117.6c-7.2,0-11.5-1.1-13.4-3.4c-1.7-2.1-1.1-4.7-0.6-6.7c0.1-0.3,0.1-0.5,0.2-0.8
									c0.2-1,0.5-2,0.8-3.1c1.1-3.9,2.4-8.7,1.2-12.5c-0.2-0.5-0.4-1.1-0.6-1.9c-2.4-7.1-8-23.7-5.9-32.4
									c2.5-10.2,14.3-21.8,30-29.4c6-2.9,12.9-2.9,19.9,0c7.6,3.2,13.3,8.9,14.7,11.2c4.8,0.4,10.1,6.3,11.3,17.3
									c0.9,7.8-1.1,18.5-2.6,26.4c-0.7,3.5-1.2,6.5-1.3,8.3c-0.1,2.1,1.1,5.1,2.2,8.1c1.9,4.8,3.8,9.7,1.1,12.5
									c-4.2,4.4-17.2,5.3-20.4,5.3l0,0c-0.1,0-9.7-0.3-31.4,0.9C23.3,117.6,21.6,117.6,20,117.6z M41.2,27c-3.1,0-6.1,0.7-8.9,2
									C17.2,36.3,5.5,47.7,3.2,57.3c-2,8.2,3.5,24.5,5.8,31.5c0.3,0.8,0.5,1.4,0.6,1.9c1.4,4.2,0,9.3-1.2,13.4
									c-0.3,1.1-0.6,2.1-0.8,3c-0.1,0.3-0.1,0.5-0.2,0.8c-0.5,1.9-0.9,3.8,0.3,5.3c1.9,2.3,7.7,3.2,17.2,2.6
									c21.5-1.2,31.1-1,31.6-0.9c3.9,0,15.7-1.1,19.2-4.8c2-2.1,0.2-6.5-1.5-10.8c-1.3-3.2-2.5-6.3-2.3-8.8
									c0.1-1.8,0.7-4.8,1.3-8.5c1.4-7.7,3.4-18.3,2.6-25.9c-0.9-7.7-4.8-15.9-10.2-15.9h-0.6L65,39.8c-0.5-1.4-6.3-7.5-14.1-10.8
									C47.6,27.7,44.3,27,41.2,27z"/>
							</g>
						</g>
					</g>
				</g>
			</g>
			<g>
				<g>
					<g>
						<g>
							<g>
								<g>
									<path class="st1" d="M20,74.2v5.8c0,1.8-1.5,3.2-3.2,3.2h-2.9c-1.8,0-3.2-1.5-3.2-3.2v-5.8c0-1.8,1.5-3.2,3.2-3.2h2.9
										C18.5,71,20,72.5,20,74.2z"/>
								</g>
							</g>
						</g>
					</g>
				</g>
			</g>
			<g>
				<g>
					<g>
						<g>
							<g>
								<g>
									<path class="st0" d="M16.7,84.2h-2.9c-2.2,0-4.1-1.8-4.1-4.1v-5.8c0-2.2,1.8-4.1,4.1-4.1h2.9c2.2,0,4.1,1.8,4.1,4.1v5.8
										C20.8,82.3,19,84.2,16.7,84.2z M13.8,71.8c-1.3,0-2.4,1.1-2.4,2.4v5.8c0,1.3,1.1,2.4,2.4,2.4h2.9c1.3,0,2.4-1.1,2.4-2.4
										v-5.8c0-1.3-1.1-2.4-2.4-2.4H13.8z"/>
								</g>
							</g>
						</g>
					</g>
				</g>
			</g>
			<g>
				<g>
					<g>
						<g>
							<g>
								<g>
									<g>
										<path class="st1" d="M66.5,67.9v17.5c0,14.4-11.2,26-25.1,26s-25.1-11.6-25.1-26V67.9c0-14.4,11.2-26,25.1-26
											c6.9,0,13.2,2.9,17.8,7.6C63.7,54.2,66.5,60.7,66.5,67.9z"/>
									</g>
								</g>
							</g>
						</g>
					</g>
				</g>
			</g>
			<g>
				<g>
					<g>
						<g>
							<g>
								<path class="st0" d="M41.1,99.1c-2.6,0-5.3-0.9-7.8-3c-0.3-0.3-0.4-0.8-0.1-1.1c0.3-0.3,0.8-0.4,1.1-0.1
									c5.5,4.6,11.3,2,13.6,0c0.3-0.3,0.8-0.3,1.1,0.1s0.3,0.8-0.1,1.1C47,97.9,44.2,99.1,41.1,99.1z"/>
							</g>
						</g>
					</g>
				</g>
			</g>
			<g>
				<g>
					<g>
						<g>
							<g>
								<path class="st0" d="M41.4,90.8c-1.6,0-2.7-0.3-3.4-1c-0.5-0.5-0.7-1.2-0.7-2.1c0-0.4,0.4-0.8,0.8-0.8
									c0.4,0,0.8,0.4,0.8,0.8c0,0.6,0.1,0.8,0.2,0.9c0.3,0.3,1.1,0.5,2.2,0.5c0.9,0,1.5-0.2,1.8-0.6c0.3-0.4,0.3-0.8,0.3-0.8
									c-0.1-0.4,0.3-0.8,0.7-0.9c0.4-0.1,0.8,0.3,0.9,0.7c0,0.1,0.1,1.2-0.7,2.1C43.8,90.4,42.8,90.8,41.4,90.8z"/>
							</g>
						</g>
					</g>
				</g>
			</g>
			<g>
				<g>
					<g>
						<g>
							<g>
								<path class="st0" d="M30.9,81.9H30c-1.1,0-2-0.9-2-2V79c0-1.1,0.9-2,2-2h0.8c1.1,0,2,0.9,2,2v0.8C32.9,81,32,81.9,30.9,81.9
									z"/>
							</g>
						</g>
					</g>
				</g>
			</g>
			<g>
				<g>
					<g>
						<g>
							<g>
								<path class="st0" d="M53.1,81.9h-0.8c-1.1,0-2-0.9-2-2V79c0-1.1,0.9-2,2-2h0.8c1.1,0,2,0.9,2,2v0.8
									C55.2,81,54.2,81.9,53.1,81.9z"/>
							</g>
						</g>
					</g>
				</g>
			</g>
			<g>
				<g>
					<g>
						<g>
							<g>
								<path class="st0" d="M49,73.8c-0.3,0-0.6-0.2-0.7-0.4c-0.2-0.4,0-0.9,0.4-1.1c1.2-0.6,5.3-1.9,8.3,0
									c0.4,0.2,0.5,0.7,0.3,1.1c-0.2,0.4-0.7,0.5-1.1,0.3c-2.2-1.4-5.5-0.6-6.7,0C49.2,73.7,49.1,73.8,49,73.8z"/>
							</g>
						</g>
					</g>
				</g>
			</g>
			<g>
				<g>
					<g>
						<g>
							<g>
								<path class="st0" d="M26,74.5c-0.3,0.1-0.6,0-0.8-0.3c-0.3-0.4-0.2-0.9,0.1-1.1c1.1-0.8,4.8-2.9,8.2-1.6
									c0.4,0.2,0.6,0.6,0.5,1c-0.2,0.4-0.6,0.6-1,0.5c-2.5-0.9-5.5,0.5-6.6,1.3C26.2,74.4,26.1,74.4,26,74.5z"/>
							</g>
						</g>
					</g>
				</g>
			</g>
			<g>
				<g>
					<g>
						<path class="st0" d="M67.2,67.9v17.5c0,12.6-8.5,23.3-19.8,26.1v-0.8l-0.2-0.8c10.6-2.7,18.5-12.6,18.5-24.5V67.9
							c0-6.7-2.5-13-7.1-17.8s-10.6-7.4-17.1-7.4c-13.3,0-24.2,11.3-24.2,25.2v17.5c0,11.7,7.7,21.6,18.2,24.4l0,0.9v0.7
							c-11.3-2.8-19.7-13.4-19.7-26V67.9c0-14.8,11.6-26.8,25.8-26.8c6.9,0,13.3,2.8,18.2,7.8C64.5,54,67.2,60.8,67.2,67.9z"/>
					</g>
				</g>
			</g>
			<g>
				<g>
					<g>
						<path class="st0" d="M61.2,122.4c1.5,3.4,1.5,6.5,1.4,11.7c0,1.5-0.1,3.1-0.1,5c0,0.4-0.3,0.8-0.8,0.8h-5.9v-0.8v-0.8h5.2
							c0-1.6,0-3,0.1-4.2c0.1-5.2,0.1-8-1.2-11c-1.2-2.7-9.2-6.5-12.5-7.9c0.1-0.3,0.1-0.5,0.1-0.6v-1c0.1,0,0.2,0,0.3,0.1
							C48.8,114.1,59.5,118.6,61.2,122.4z"/>
					</g>
				</g>
			</g>
			<g>
				<g>
					<g>
						<path class="st14" d="M27.5,138.3h-5.6c0-1.6,0-3-0.1-4.2c-0.1-5.2-0.1-8,1.2-11c1.2-2.7,9.2-6.5,12.5-7.8
							c0.4,1,1.8,2.8,5.8,2.8c4.5,0,5.6-1.7,5.9-2.8c3.3,1.4,11.3,5.2,12.5,7.9c1.4,3,1.3,5.9,1.2,11c0,1.3,0,2.7-0.1,4.2h-5.2H27.5
							z"/>
					</g>
				</g>
			</g>
			<g>
				<g>
					<g>
						<polygon class="st0" points="55.8,139.1 55.8,139.9 27.5,139.9 27.5,139.1 27.5,138.3 55.8,138.3 						"/>
					</g>
				</g>
			</g>
			<g>
				<g>
					<g>
						<path class="st0" d="M46.6,114c0.1-0.3,0.4-0.5,0.8-0.5v1c0,0.2,0,0.4-0.1,0.6c-0.1,0-0.2-0.1-0.2-0.1
							C46.7,114.9,46.5,114.5,46.6,114z"/>
					</g>
				</g>
			</g>
			<g>
				<g>
					<g>
						<path class="st1" d="M47.4,111.5v2c-0.3,0-0.6,0.2-0.8,0.5c-0.2,0.4,0,0.9,0.4,1c0.1,0,0.2,0.1,0.2,0.1
							c-0.3,1.1-1.5,2.8-5.9,2.8c-4,0-5.3-1.8-5.8-2.8c0.1,0,0.2-0.1,0.3-0.1c0.4-0.2,0.3-0.6,0.1-1c-0.1-0.4-0.3-0.6-0.6-0.5v-2.1
							c1.9,0.5,4,0.8,6.1,0.8C43.5,112.3,45.5,112,47.4,111.5z"/>
					</g>
				</g>
			</g>
			<g>
				<g>
					<g>
						<path class="st0" d="M35.9,114c0.2,0.4,0.3,0.9-0.1,1c-0.1,0-0.2,0.1-0.3,0.1c-0.2-0.4-0.2-0.6-0.2-0.6v-1
							C35.7,113.5,35.8,113.7,35.9,114z"/>
					</g>
				</g>
			</g>
			<g>
				<g>
					<g>
						<g>
							<path class="st15" d="M41.4,111.7c-2.2,0-4.3-0.3-6.3-1v1.7c2.7,1,6.5,1.8,12.2,0.2v-1.8C45.4,111.4,43.5,111.7,41.4,111.7z"
								/>
						</g>
					</g>
				</g>
			</g>
			<g>
				<g>
					<g>
						<path class="st0" d="M35.4,114.5c0,0,0,0.3,0.2,0.6c-3.3,1.4-11.3,5.2-12.5,7.8c-1.4,3-1.3,5.9-1.2,11c0,1.3,0,2.7,0.1,4.2
							h5.6v0.8v0.8h-6.3c-0.4,0-0.8-0.4-0.8-0.8c0-1.9,0-3.5-0.1-5c-0.1-5.2-0.2-8.4,1.4-11.7c1.7-3.8,12.3-8.3,13.5-8.8
							c0,0,0.1,0,0.1,0V114.5z"/>
					</g>
				</g>
			</g>
			<g>
				<g>
					<g>
						<path class="st0" d="M27.5,139.9c-0.4,0-0.8-0.4-0.8-0.8v-3c0-0.4,0.4-0.8,0.8-0.8c0.4,0,0.8,0.4,0.8,0.8v3
							C28.3,139.5,27.9,139.9,27.5,139.9z"/>
					</g>
				</g>
			</g>
			<g>
				<g>
					<g>
						<path class="st0" d="M55.8,139.9c-0.4,0-0.8-0.4-0.8-0.8v-3c0-0.4,0.4-0.8,0.8-0.8c0.4,0,0.8,0.4,0.8,0.8v3
							C56.6,139.5,56.2,139.9,55.8,139.9z"/>
					</g>
				</g>
			</g>
			<g>
				<g>
					<g>
						<path class="st0" d="M41.4,118.8c-4.4,0-6-2-6.5-3.2c-0.2-0.5-0.3-0.8-0.3-0.9l0-0.1v-3.8c0-0.4,0.4-0.8,0.8-0.8
							s0.8,0.4,0.8,0.8v3.7c0,0.1,0.1,0.2,0.1,0.4c0.4,0.9,1.6,2.3,5.1,2.3c4,0,4.9-1.4,5.1-2.2c0.1-0.2,0.1-0.4,0.1-0.4v-3.8
							c0-0.4,0.4-0.8,0.8-0.8s0.8,0.4,0.8,0.8v3.8c0,0.2,0,0.5-0.1,0.8C47.7,116.6,46.4,118.8,41.4,118.8z"/>
					</g>
				</g>
			</g>
			<g>
				<g>
					<g>
						<g>
							<g>
								<g>
									<path class="st12" d="M41.1,40.1c-14.8,0-26.8,12.4-26.9,27.6c13.6-1.6,38-7.5,47.8-18.4C57.6,46.2,46.8,40.1,41.1,40.1z"
										/>
								</g>
							</g>
						</g>
					</g>
				</g>
			</g>
			<g>
				<g>
					<g>
						<g>
							<g>
								<path class="st0" d="M14,68.7c-0.2,0-0.4,0-0.6,0c-0.4,0-0.8-0.4-0.8-0.8c0-0.4,0.4-0.8,0.8-0.8c0,0,0,0,0,0
									c14.9,0.3,43.7-12.2,49.4-18.9c0.3-0.3,0.8-0.4,1.1-0.1c0.3,0.3,0.4,0.8,0.1,1.1c-3.1,3.6-11.6,8.4-22.2,12.6
									C31.1,66.2,20.7,68.7,14,68.7z"/>
							</g>
						</g>
					</g>
				</g>
			</g>
			<g>
				<g>
					<g>
						<path class="st0" d="M47.4,110.8v0.8c-1.9,0.5-3.9,0.7-5.9,0.7c-2.1,0-4.1-0.3-6.1-0.8v-0.7l0-0.9c1.9,0.5,4,0.8,6,0.8
							c2,0,3.9-0.2,5.7-0.7L47.4,110.8z"/>
					</g>
				</g>
			</g>
			<g>
				<g>
					<g>
						<g>
							<path class="st0" d="M41.2,103.1c-1.1,0-2.2-0.1-2.8-0.3c-0.4-0.1-0.7-0.6-0.6-1.1c0.1-0.4,0.6-0.7,1.1-0.6
								c0.8,0.3,3.1,0.4,4.4,0c0.5-0.1,0.9,0.1,1.1,0.6c0.1,0.5-0.1,0.9-0.6,1.1C43.1,103,42.1,103.1,41.2,103.1z"/>
						</g>
					</g>
				</g>
			</g>
			<g>
				<g>
					<g>
						<g>
							<g>
								<g>
									<path class="st16" d="M97.6,69.4v6.3c0,1.9-1.6,3.5-3.5,3.5h-3.2c-1.9,0-3.5-1.6-3.5-3.5v-6.3c0-1.9,1.6-3.5,3.5-3.5h3.2
										C96,65.9,97.6,67.5,97.6,69.4z"/>
								</g>
							</g>
						</g>
					</g>
				</g>
				<g>
					<g>
						<g>
							<g>
								<g>
									<path class="st0" d="M94.1,80.1h-3.2c-2.4,0-4.4-2-4.4-4.4v-6.3c0-2.4,2-4.4,4.4-4.4h3.2c2.4,0,4.4,2,4.4,4.4v6.3
										C98.4,78.1,96.5,80.1,94.1,80.1z M90.9,66.8c-1.4,0-2.6,1.2-2.6,2.6v6.3c0,1.4,1.2,2.6,2.6,2.6h3.2c1.4,0,2.6-1.2,2.6-2.6
										v-6.3c0-1.5-1.2-2.6-2.6-2.6H90.9z"/>
								</g>
							</g>
						</g>
					</g>
				</g>
				<g>
					<g>
						<g>
							<g>
								<path class="st0" d="M102.7,52.3c-0.1,0-0.3,0-0.4-0.1c-2.3-1.3-5.6-3.2-7.6-4.9c-0.4-0.3-0.4-0.9-0.1-1.2
									c0.3-0.4,0.9-0.4,1.2-0.1c1.5,1.3,4.1,2.9,7.3,4.7c0.4,0.2,0.6,0.8,0.3,1.2C103.3,52.1,103,52.3,102.7,52.3z"/>
							</g>
						</g>
					</g>
				</g>
				<g>
					<g>
						<g>
							<g>
								<path class="st0" d="M105.8,139.9c-0.4,0-0.8-0.4-0.8-0.8v-3c0-0.4,0.4-0.8,0.8-0.8c0.4,0,0.8,0.4,0.8,0.8v3
									C106.6,139.5,106.3,139.9,105.8,139.9z"/>
							</g>
						</g>
					</g>
				</g>
				<g>
					<g>
						<g>
							<g>
								<path class="st0" d="M102.5,75.4c-0.3,0-0.5-0.1-0.7-0.3l-7.7-9.6c-0.3-0.4-0.2-0.9,0.1-1.2c0.4-0.3,0.9-0.2,1.2,0.1
									l7.7,9.6c0.3,0.4,0.2,0.9-0.1,1.2C102.9,75.3,102.7,75.4,102.5,75.4z"/>
							</g>
						</g>
					</g>
				</g>
				<g>
					<g>
						<g>
							<g>
								<g>
									<g>
										<path class="st17" d="M72,74.2v5.8c0,1.8-1.5,3.2-3.2,3.2h-2.9c-1.8,0-3.2-1.5-3.2-3.2v-5.8c0-1.8,1.5-3.2,3.2-3.2h2.9
											C70.5,71,72,72.5,72,74.2z"/>
									</g>
								</g>
							</g>
						</g>
					</g>
				</g>
				<g>
					<g>
						<g>
							<g>
								<g>
									<g>
										<path class="st0" d="M68.7,84.2h-2.9c-2.2,0-4.1-1.8-4.1-4.1v-5.8c0-2.2,1.8-4.1,4.1-4.1h2.9c2.2,0,4.1,1.8,4.1,4.1v5.8
											C72.8,82.3,71,84.2,68.7,84.2z M65.8,71.8c-1.3,0-2.4,1.1-2.4,2.4v5.8c0,1.3,1.1,2.4,2.4,2.4h2.9c1.3,0,2.4-1.1,2.4-2.4
											v-5.8c0-1.3-1.1-2.4-2.4-2.4H65.8z"/>
									</g>
								</g>
							</g>
						</g>
					</g>
				</g>
				<g>
					<g>
						<g>
							<g>
								<path class="st1" d="M50.4,57.9v7.3c0,2.2-1.8,4.1-4.1,4.1h-3.7c-2.2,0-4.1-1.8-4.1-4.1v-7.3c0-2.2,1.8-4.1,4.1-4.1h3.7
									C48.6,53.8,50.4,55.6,50.4,57.9z"/>
							</g>
						</g>
					</g>
				</g>
				<g>
					<g>
						<g>
							<g>
								<path class="st0" d="M46.3,70.3h-3.7c-2.8,0-5.1-2.3-5.1-5.1v-7.3c0-2.8,2.3-5.1,5.1-5.1h3.7c2.8,0,5.1,2.3,5.1,5.1v7.3
									C51.4,68,49.2,70.3,46.3,70.3z M42.7,54.8c-1.7,0-3.1,1.4-3.1,3.1v7.3c0,1.7,1.4,3.1,3.1,3.1h3.7c1.7,0,3.1-1.4,3.1-3.1
									v-7.3c0-1.7-1.4-3.1-3.1-3.1H42.7z"/>
							</g>
						</g>
					</g>
				</g>
				<g>
					<g>
						<g>
							<g>
								<path class="st1" d="M119.8,57.9v7.3c0,2.2-1.8,4.1-4.1,4.1H112c-2.2,0-4.1-1.8-4.1-4.1v-7.3c0-2.2,1.8-4.1,4.1-4.1h3.7
									C117.9,53.8,119.8,55.6,119.8,57.9z"/>
							</g>
						</g>
					</g>
				</g>
				<g>
					<g>
						<g>
							<g>
								<path class="st0" d="M115.7,70.3H112c-2.8,0-5.1-2.3-5.1-5.1v-7.3c0-2.8,2.3-5.1,5.1-5.1h3.7c2.8,0,5.1,2.3,5.1,5.1v7.3
									C120.8,68,118.5,70.3,115.7,70.3z M112,54.8c-1.7,0-3.1,1.4-3.1,3.1v7.3c0,1.7,1.4,3.1,3.1,3.1h3.7c1.7,0,3.1-1.4,3.1-3.1
									v-7.3c0-1.7-1.4-3.1-3.1-3.1H112z"/>
							</g>
						</g>
					</g>
				</g>
				<g>
					<g>
						<g>
							<path class="st4" d="M86.9,124.2v14.7h-2.2L80.6,126c1.9-0.7,3.4-2.9,3.8-4.4L86.9,124.2z"/>
						</g>
					</g>
				</g>
				<g>
					<g>
						<g>
							<path class="st4" d="M86.9,108.9v15.2l-2.6-2.5l-4.9-4.8l0-0.2C85.6,116.6,86.9,111.5,86.9,108.9z"/>
						</g>
					</g>
				</g>
				<g>
					<g>
						<g>
							<path class="st1" d="M86.9,106.8v2.1c0,2.6-1.3,7.6-7.5,7.7c-0.1,0-0.1,0-0.2,0c0,0,0,0,0,0c-6.3,0-7.7-5.9-7.7-7.7h0v-2.1
								v-2.2c2.5,0.6,5.2,1,8,1c2.6,0,5.1-0.3,7.5-0.9V106.8z"/>
						</g>
					</g>
				</g>
				<g>
					<g>
						<g>
							<path class="st18" d="M80.6,126l4.2,12.9H73.6l4.2-12.9l0-0.1c0.5,0.2,1,0.3,1.5,0.3C79.8,126.2,80.2,126.1,80.6,126z"/>
						</g>
					</g>
				</g>
				<g>
					<g>
						<g>
							<path class="st18" d="M79.4,116.8l4.9,4.8c-0.4,1.4-1.9,3.7-3.8,4.4c-0.4,0.1-0.8,0.2-1.2,0.2c-0.5,0-1-0.1-1.5-0.3
								c-1.8-0.7-3.4-2.6-3.4-4.2l-0.2-0.2l4.9-4.7l0-0.2c0,0,0,0,0,0c0.1,0,0.1,0,0.2,0L79.4,116.8z"/>
						</g>
					</g>
				</g>
				<g>
					<g>
						<g>
							<path class="st4" d="M79.2,116.6l0,0.2l-4.9,4.7l-2.7,2.6h-0.2v-15.3h0C71.5,110.8,72.8,116.6,79.2,116.6z"/>
						</g>
					</g>
				</g>
				<g>
					<g>
						<g>
							<path class="st4" d="M77.8,125.9L77.8,125.9l-4.2,12.9h-2.2v-14.7h0.2l2.7-2.6l0.2,0.2C74.5,123.3,76,125.2,77.8,125.9z"/>
						</g>
					</g>
				</g>
				<g>
					<g>
						<g>
							<path class="st18" d="M71.4,124.2v14.7h-19c0-11-0.8-15.9,1.6-21.2c2.2-4.7,17.3-10.8,17.3-10.8h0.1v2.1V124.2z"/>
						</g>
					</g>
				</g>
				<g>
					<g>
						<g>
							<path class="st0" d="M101.7,27.6c-6-6-13.9-9.3-22.3-9.3c-17.4,0-31.6,14.2-31.6,31.6v15.2c-0.4-0.6-0.7-1.2-1-1.8V49.9
								c0-18,14.6-32.6,32.6-32.6c9,0,17.2,3.7,23.1,9.6c5.9,5.9,9.6,14.1,9.6,23.1v13.7c-0.3,0.6-0.6,1.2-1,1.9V49.9
								C111,41.5,107.7,33.6,101.7,27.6z"/>
						</g>
					</g>
				</g>
				<g>
					<g>
						<g>
							<g>
								<g>
									<path class="st19" d="M51.2,22.2c-2.9-6.9,5.3-10.6,26.9-17.9s25.5,5.7,25.7,6.5c0.4,2,2.4,3.7,6.9,3.3
										c6.1-0.6,9,6.5,9.4,12.6c0.4,6.1-6.5,20.7-8.2,24.9c0,0-4.7-13.9-13.8-19.4L98.2,32c-15,4.2-36.9-3.3-39.6-1.6
										c-8.2,5.3-11.8,20.8-11.8,20.8c-2.1-2.9-5.3-15.1-4.9-20C42.3,26.3,48.4,22.2,51.2,22.2z"/>
								</g>
							</g>
						</g>
					</g>
				</g>
				<g>
					<g>
						<g>
							<g>
								<path class="st20" d="M79.4,105.6c-2.7,0-5.4-0.3-8-1v1.7c3.4,1,8.2,1.8,15.5,0.2v-1.8C84.5,105.3,82,105.6,79.4,105.6z"/>
							</g>
						</g>
					</g>
				</g>
				<g>
					<g>
						<g>
							<path class="st0" d="M60.1,139.9c-0.4,0-0.8-0.4-0.8-0.8v-3c0-0.4,0.4-0.8,0.8-0.8s0.8,0.4,0.8,0.8v3
								C60.9,139.5,60.6,139.9,60.1,139.9z"/>
						</g>
					</g>
				</g>
				<g>
					<g>
						<g>
							<path class="st18" d="M104.3,117.6c2.4,5.3,1.6,10.2,1.6,21.2h-19v-14.7v-15.2v-2.1C86.9,106.8,102.1,113,104.3,117.6z"/>
						</g>
					</g>
				</g>
				<g>
					<g>
						<g>
							<g>
								<g>
									<path class="st0" d="M86.9,139.9c-0.6,0-1-0.5-1-1v-35c0-0.6,0.5-1,1-1c0.6,0,1,0.5,1,1v35
										C87.9,139.4,87.5,139.9,86.9,139.9z"/>
								</g>
							</g>
						</g>
					</g>
				</g>
				<g>
					<g>
						<g>
							<g>
								<g>
									<path class="st0" d="M71.4,139.9c-0.6,0-1-0.5-1-1v-35c0-0.6,0.5-1,1-1s1,0.5,1,1v35C72.4,139.4,72,139.9,71.4,139.9z"/>
								</g>
							</g>
						</g>
					</g>
				</g>
				<g>
					<g>
						<g>
							<g>
								<g>
									<path class="st0" d="M92.8,131.3c-0.1,0-0.3,0-0.4-0.1c-0.5-0.2-0.8-0.8-0.6-1.3l3.1-7.7l-1.8-3.7c-0.3-0.5,0-1.1,0.5-1.4
										c0.5-0.3,1.1,0,1.4,0.5l2,4.1c0.1,0.3,0.1,0.6,0,0.8l-3.3,8.2C93.6,131.1,93.2,131.3,92.8,131.3z"/>
								</g>
							</g>
						</g>
					</g>
				</g>
				<g>
					<g>
						<g>
							<g>
								<g>
									<path class="st0" d="M64.7,131.3c-0.4,0-0.8-0.2-0.9-0.6l-3.3-8.2c-0.1-0.3-0.1-0.6,0-0.8l2-4.1c0.3-0.5,0.9-0.7,1.4-0.5
										c0.5,0.3,0.7,0.9,0.5,1.4l-1.8,3.7l3.1,7.7c0.2,0.5,0,1.1-0.6,1.3C64.9,131.3,64.8,131.3,64.7,131.3z"/>
								</g>
							</g>
						</g>
					</g>
				</g>
				<g>
					<g>
						<g>
							<g>
								<g>
									<path class="st0" d="M79.2,117.7c-6.6,0-8.8-5.9-8.8-8.8c0-0.6,0.5-1,1-1c0.6,0,1,0.5,1,1c0,0.1,0.3,6.7,6.7,6.7
										c0,0,0,0,0.1,0c0,0,0,0,0.1,0c0,0,0,0,0.1,0c0.7,0,6.5-0.3,6.5-6.7c0-0.6,0.5-1,1-1c0.6,0,1,0.5,1,1c0,3.2-1.8,8.6-8.5,8.7
										C79.3,117.7,79.3,117.7,79.2,117.7z"/>
								</g>
							</g>
						</g>
					</g>
				</g>
				<g>
					<g>
						<g>
							<g>
								<g>
									<path class="st0" d="M86.9,125.2c-0.3,0-0.5-0.1-0.7-0.3l-7.5-7.3c-0.4-0.4-0.4-1,0-1.4c0.4-0.4,1-0.4,1.4,0l7.5,7.3
										c0.4,0.4,0.4,1,0,1.4C87.5,125.1,87.2,125.2,86.9,125.2z"/>
								</g>
							</g>
						</g>
					</g>
				</g>
				<g>
					<g>
						<g>
							<g>
								<g>
									<path class="st0" d="M71.6,125.2c-0.3,0-0.5-0.1-0.7-0.3c-0.4-0.4-0.4-1,0-1.4l7.5-7.3c0.4-0.4,1-0.4,1.4,0
										c0.4,0.4,0.4,1,0,1.4l-7.5,7.3C72.1,125.1,71.9,125.2,71.6,125.2z"/>
								</g>
							</g>
						</g>
					</g>
				</g>
				<g>
					<g>
						<g>
							<g>
								<g>
									<path class="st0" d="M79.4,127.2c-0.6,0-1.3-0.1-1.9-0.4c-2.3-0.9-4-3.1-4-5.1c0-0.6,0.5-1,1-1c0.6,0,1,0.5,1,1
										c0,1.2,1.3,2.7,2.7,3.2c0.7,0.3,1.3,0.3,2,0.1c1.5-0.6,2.8-2.5,3.1-3.7c0.1-0.5,0.7-0.9,1.2-0.7c0.5,0.1,0.9,0.7,0.7,1.2
										c-0.4,1.6-2.1,4.2-4.4,5.1C80.4,127.1,79.9,127.2,79.4,127.2z"/>
								</g>
							</g>
						</g>
					</g>
				</g>
				<g>
					<g>
						<g>
							<g>
								<g>
									<path class="st0" d="M84.7,139.9c-0.4,0-0.8-0.3-1-0.7l-4.2-12.9c-0.2-0.5,0.1-1.1,0.7-1.3c0.5-0.2,1.1,0.1,1.3,0.7
										l4.2,12.9c0.2,0.5-0.1,1.1-0.7,1.3C85,139.8,84.9,139.9,84.7,139.9z"/>
								</g>
							</g>
						</g>
					</g>
				</g>
				<g>
					<g>
						<g>
							<g>
								<g>
									<path class="st0" d="M73.6,139.9c-0.1,0-0.2,0-0.3-0.1c-0.5-0.2-0.8-0.8-0.7-1.3l4.2-12.9c0.2-0.5,0.7-0.8,1.3-0.7
										c0.5,0.2,0.8,0.8,0.7,1.3l-4.2,12.9C74.4,139.6,74,139.9,73.6,139.9z"/>
								</g>
							</g>
						</g>
					</g>
				</g>
				<g>
					<g>
						<g>
							<path class="st15" d="M111,65.5V72c0,17.4-14.2,31.6-31.6,31.6S47.8,89.4,47.8,72v-6.8c4.5,7.1,15.1,16.4,31,16.4
								C95,81.5,106.4,73,111,65.5z"/>
						</g>
					</g>
				</g>
				<g>
					<g>
						<g>
							<path class="st1" d="M111,49.9v15.5c-4.6,7.5-16,16.1-32.2,16.1c-15.9,0-26.5-9.3-31-16.4V49.9c0-17.4,14.2-31.6,31.6-31.6
								c8.4,0,16.4,3.3,22.3,9.3S111,41.5,111,49.9z"/>
						</g>
					</g>
				</g>
				<g>
					<g>
						<g>
							<path class="st0" d="M103.2,26.1c-6.4-6.4-14.8-9.9-23.8-9.9c-18.6,0-33.6,15.1-33.6,33.6v22c0,15.8,11,29.1,25.7,32.7
								c2.5,0.6,5.2,1,8,1c2.6,0,5.1-0.3,7.5-0.9C101.9,101.3,113,87.9,113,72v-22C113,41,109.5,32.5,103.2,26.1z M112,63.6
								c-0.3,0.6-0.6,1.2-1,1.9V72c0,17.4-14.2,31.6-31.6,31.6S47.8,89.4,47.8,72v-6.8c-0.4-0.6-0.7-1.2-1-1.8V49.9
								c0-18,14.6-32.6,32.6-32.6c9,0,17.2,3.7,23.1,9.6c5.9,5.9,9.6,14.1,9.6,23.1V63.6z"/>
						</g>
					</g>
				</g>
				<g>
					<g>
						<g>
							<path class="st0" d="M78.6,88.7c-4.3,0-8.4-1.2-12.4-3.7c-0.5-0.3-0.6-0.9-0.3-1.4c0.3-0.5,0.9-0.6,1.4-0.3
								c7.3,4.5,15.2,4.5,23.4,0c0.5-0.3,1.1-0.1,1.4,0.4c0.3,0.5,0.1,1.1-0.4,1.4C87.2,87.5,82.9,88.7,78.6,88.7z"/>
						</g>
					</g>
				</g>
				<g>
					<g>
						<g>
							<path class="st0" d="M79.4,78.7c-5.2,0-6.7-1.1-6.7-4.7c0-0.6,0.5-1,1-1s1,0.5,1,1c0,1.9,0,2.7,4.7,2.7c1.7,0,3-0.4,3.5-1.1
								c0.5-0.6,0.4-1.4,0.4-1.4c-0.1-0.5,0.2-1.1,0.8-1.2c0.5-0.1,1.1,0.2,1.2,0.8c0,0.2,0.3,1.7-0.8,3.1
								C83.5,78.1,81.8,78.7,79.4,78.7z"/>
						</g>
					</g>
				</g>
				<g>
					<g>
						<g>
							<path class="st0" d="M59.7,57.3c-0.4,0-0.8-0.2-0.9-0.6c-0.2-0.5,0-1.1,0.6-1.3c1.8-0.7,8-2.3,12.7,0
								c0.5,0.3,0.7,0.9,0.5,1.4c-0.3,0.5-0.9,0.7-1.4,0.5c-3.7-1.8-9-0.8-11,0C60,57.3,59.8,57.3,59.7,57.3z"/>
						</g>
					</g>
				</g>
				<g>
					<g>
						<g>
							<path class="st0" d="M87.6,57.3c-0.4,0-0.8-0.2-0.9-0.6c-0.2-0.5,0-1.1,0.6-1.3c1.8-0.7,8-2.3,12.7,0
								c0.5,0.3,0.7,0.9,0.5,1.4c-0.3,0.5-0.9,0.7-1.4,0.5c-3.7-1.8-9-0.8-11,0C87.9,57.3,87.8,57.3,87.6,57.3z"/>
						</g>
					</g>
				</g>
				<g>
					<g>
						<g>
							<path class="st21" d="M101.6,35.9c0,0-20.4,4.5-37.9-4.9s33.4-3.3,33.4-3.3l6.5,3.7L101.6,35.9z"/>
						</g>
					</g>
				</g>
				<g>
					<g>
						<g>
							<path class="st0" d="M89.6,67.9c-0.6,0-1-0.5-1-1c0-2.7,2.1-4.7,5.1-4.7c3,0,4.9,1.7,4.9,4.5c0,0.6-0.5,1-1,1
								c-0.6,0-1-0.5-1-1c0-1.7-1-2.5-2.9-2.5c-1.8,0-3,1.1-3,2.7C90.6,67.4,90.1,67.9,89.6,67.9z"/>
						</g>
					</g>
				</g>
				<g>
					<g>
						<g>
							<path class="st0" d="M61.4,67.9c-0.6,0-1-0.5-1-1c0-2.7,2.1-4.7,5.1-4.7c3,0,4.9,1.7,4.9,4.5c0,0.6-0.5,1-1,1
								c-0.6,0-1-0.5-1-1c0-1.7-1-2.5-2.9-2.5c-1.8,0-3,1.1-3,2.7C62.5,67.4,62,67.9,61.4,67.9z"/>
						</g>
					</g>
				</g>
				<g>
					<g>
						<g>
							<path class="st0" d="M79.1,93.5c-1.9,0-3.7-0.2-4.6-0.4c-0.6-0.1-0.9-0.7-0.8-1.2c0.1-0.5,0.7-0.9,1.2-0.8
								c1.6,0.4,5.7,0.5,8.1,0c0.6-0.1,1.1,0.2,1.2,0.8c0.1,0.6-0.2,1.1-0.8,1.2C82.2,93.4,80.6,93.5,79.1,93.5z"/>
						</g>
					</g>
				</g>
				<g>
					<g>
						<g>
							<g>
								<path class="st22" d="M67,8.2c-13.2,5-18.1,8.4-15.8,14c-2.9,0-9,4.1-9.4,9c-0.4,4.9,2.8,17.1,4.9,20
									c0,0,3.7-15.5,11.8-20.8c0.1,0,0.2-0.1,0.3-0.1c-3.2-4-1.7-8.5-2.5-10.7C55.5,17.4,60.3,13,67,8.2z"/>
							</g>
						</g>
					</g>
				</g>
				<g>
					<g>
						<g>
							<g>
								<path class="st23" d="M101.2,14.7c1.3-4.3,0.3-7.3-1.6-9.8C96,2.2,89.6,0.4,78.2,4.3C73.9,5.7,70.2,7,67,8.2
									c-6.7,4.8-11.5,9.2-10.7,11.4c0.8,2.2-0.7,6.7,2.5,10.7c3.5-1.2,23.4,5.3,37.9,2.1C104,25.4,101.2,14.7,101.2,14.7z"/>
							</g>
						</g>
					</g>
				</g>
				<g>
					<g>
						<g>
							<g>
								<path class="st10" d="M98.2,32.2c9.1,5.5,13.8,19.4,13.8,19.4c1.6-4.1,8.6-18.8,8.2-24.9c-0.4-6.1-3.3-13.2-9.4-12.6
									c-4.5,0.4-6.5-1.2-6.9-3.3c-0.1-0.4-1-3.5-4.2-5.9c1.9,2.5,2.8,5.5,1.6,9.8c0,0,2.8,10.8-4.5,17.7c0.5-0.1,1-0.2,1.5-0.4
									L98.2,32.2z"/>
							</g>
						</g>
					</g>
				</g>
				<g>
					<g>
						<g>
							<g>
								<g>
									<path class="st0" d="M111.9,54.5l-0.9-2.6c0-0.1-4.6-13.5-13.2-18.8c-9.6,2.4-21.9,0.4-30-1c-3.7-0.6-7.9-1.3-8.6-0.9
										c-7.7,5-11.3,20-11.4,20.2l-0.5,2.2l-1.3-1.8c-2.2-3.1-5.5-15.5-5.1-20.7c0.4-4.9,5.6-8.8,9-9.7c-0.4-1.5-0.3-2.9,0.3-4.2
										c2.1-4.6,10.2-8,27.6-13.9c8.9-3,16-3.1,21.1-0.1c4.9,2.8,5.9,7.4,6,7.4c0.4,1.9,2.5,2.7,5.8,2.4c2.1-0.2,4.1,0.4,5.7,1.8
										c2.7,2.3,4.5,6.7,4.8,11.8c0.4,5.3-4.2,15.9-6.9,22.3c-0.5,1.3-1,2.3-1.3,3.1L111.9,54.5z M100.3,32.3
										c3.3,2.4,6.4,6.2,9.1,11.1c1.2,2.1,2,4,2.6,5.4c0.1-0.2,0.2-0.5,0.3-0.8c2.5-5.8,7.1-16.5,6.8-21.3
										c-0.2-3.5-1.4-8.1-4.1-10.4c-1.2-1-2.6-1.5-4.2-1.3c-6.6,0.6-7.8-3-8-4.1c0,0-1-3.8-5-6.1c-4.6-2.6-11.1-2.5-19.3,0.3
										C64.2,10.1,54,13.8,52.1,18.1c-0.5,1.1-0.5,2.3,0.1,3.7l0.6,1.4h-1.5c-2.5,0-8,3.8-8.4,8c-0.3,3.8,1.8,12.6,3.6,17.1
										c1.4-4.7,5.1-14.7,11.6-18.9c1.3-0.8,4-0.4,10.1,0.6c8.2,1.4,20.5,3.4,29.8,0.9c2.6-0.7,4.8-1.7,6.6-3.1
										c0.5-0.3,1.1-0.2,1.4,0.2c0.3,0.5,0.2,1.1-0.2,1.4C104.1,30.7,102.3,31.6,100.3,32.3z"/>
								</g>
							</g>
						</g>
					</g>
				</g>
				<g>
					<g>
						<g>
							<path class="st0" d="M98.7,139.9c-0.4,0-0.8-0.4-0.8-0.8v-3c0-0.4,0.4-0.8,0.8-0.8s0.8,0.4,0.8,0.8v3
								C99.5,139.5,99.2,139.9,98.7,139.9z"/>
						</g>
					</g>
				</g>
			</g>
			<g>
				<g>
					<g>
						<g>
							<g>
								<path class="st0" d="M105.9,139.9H52.4c-0.6,0-1-0.5-1-1c0-2.4,0-4.6-0.1-6.5c-0.1-6.8-0.2-10.8,1.8-15.2
									c2.3-4.9,16.3-10.7,17.9-11.3c0.5-0.2,1.1,0,1.3,0.6c0.2,0.5,0,1.1-0.6,1.3c-4.1,1.7-15.2,6.8-16.8,10.3
									c-1.8,3.9-1.7,7.6-1.6,14.3c0,1.6,0.1,3.5,0.1,5.5h51.5c0-2,0-3.9,0.1-5.5c0.1-6.7,0.2-10.4-1.6-14.3
									c-1.6-3.5-12.7-8.6-16.8-10.3c-0.5-0.2-0.8-0.8-0.6-1.3c0.2-0.5,0.8-0.8,1.3-0.6c1.6,0.6,15.6,6.4,17.9,11.3
									c2,4.3,1.9,8.4,1.8,15.2c0,1.9-0.1,4-0.1,6.5C106.9,139.4,106.4,139.9,105.9,139.9z"/>
							</g>
						</g>
					</g>
				</g>
			</g>
		</g>
	</g>
</g>
<g id="Ebene_1">
	<title>Page 1</title>
	<desc>Created with Sketch.</desc>
	<rect x="-640.8" y="-701.3" class="st24" width="1440" height="3440"/>
</g>
</svg>
