<?xml version="1.0" encoding="UTF-8"?>
<svg width="204px" height="45px" viewBox="0 0 204 45" version="1.1" xmlns="http://www.w3.org/2000/svg" xmlns:xlink="http://www.w3.org/1999/xlink">
    <!-- Generator: Sketch 50.2 (55047) - http://www.bohemiancoding.com/sketch -->
    <title>Automobilwoche_BW</title>
    <desc>Created with Sketch.</desc>
    <defs></defs>
    <g id="Page-1" stroke="none" stroke-width="1" fill="none" fill-rule="evenodd" opacity="0.200000003">
        <g id="Quotes-Copy-2" transform="translate(-299.000000, -150.000000)" fill="#000000">
            <g id="TopGearLogo" transform="translate(299.000000, 150.000000)">
                <g id="Automobilwoche_BW">
                    <g id="Group-13" fill-rule="nonzero">
                        <path d="M17.0751381,23.4227941 C15.581768,23.4791667 14.0883978,23.5073529 12.5950276,23.5919118 L12.3977901,23.4509804 C12.0314917,21.252451 11.4116022,18.6311275 10.8480663,16.4607843 C9.89005525,16.4607843 8.87569061,16.432598 7.91767956,16.432598 C6.93149171,16.432598 5.94530387,16.4607843 4.95911602,16.4607843 C4.22651934,18.7156863 3.69116022,21.0269608 3.1558011,23.3382353 L2.98674033,23.5073529 C2.31049724,23.5073529 1.63425414,23.5073529 0.95801105,23.5073529 L0.845303867,23.2536765 C1.54972376,21.2806373 2.16961326,19.2512255 2.81767956,17.25 C4.39558011,12.4019608 5.86077348,7.49754902 7.35414365,2.56495098 L7.55138122,2.42401961 L11.5524862,2.42401961 L11.7497238,2.56495098 C13.5248619,9.47058824 15.3,16.3762255 17.2723757,23.1973039 L17.0751381,23.4227941 Z M8.17127072,5.55269608 L5.43812155,14.7414216 C6.31160221,14.7414216 7.24143646,14.7696078 8.11491713,14.7696078 L8.81933702,14.7696078 C9.35469613,14.7696078 9.86187845,14.7696078 10.3972376,14.7414216 L8.17127072,5.55269608 Z" id="Shape"></path>
                        <path d="M31.1071823,23.5073529 L26.9651934,23.5073529 L26.7961326,23.3382353 C26.7961326,22.8590686 26.7679558,22.4080882 26.7679558,21.9289216 C25.4718232,23.1127451 24.1475138,23.8737745 22.4287293,23.8737745 C18.4839779,23.8737745 18.0331492,20.7732843 18.0331492,17.2218137 C18.0331492,15.2205882 18.061326,13.247549 18.061326,11.2463235 C18.061326,10.2034314 18.0331492,9.16053922 17.9767956,8.11764706 L18.1458564,7.94852941 L22.4287293,7.94852941 L22.6259669,8.11764706 C22.5132597,10.6262255 22.4850829,13.1629902 22.4850829,15.6715686 C22.4850829,16.629902 22.4850829,19.5330882 22.7950276,20.2659314 C23.1331492,21.0833333 23.7530387,21.4779412 24.5701657,21.4779412 C25.4154696,21.4779412 26.1480663,20.9705882 26.7116022,20.3504902 L26.7116022,15.192402 C26.7116022,12.8247549 26.6552486,10.4289216 26.5425414,8.08946078 L26.739779,7.92034314 L31.0508287,7.92034314 L31.2198895,8.11764706 C31.1635359,9.18872549 31.1353591,10.2598039 31.1353591,11.3308824 L31.1353591,17.870098 C31.1353591,19.7022059 31.1917127,21.4779412 31.3044199,23.310049 L31.1071823,23.5073529 Z" id="Shape"></path>
                        <path d="M41.6171271,23.0845588 L41.4480663,23.2536765 C40.4900552,23.5919118 39.5883978,23.7328431 38.5740331,23.7328431 C34.9110497,23.7328431 34.2066298,22.1262255 34.2066298,18.2647059 C34.2066298,15.2487745 34.2911602,12.2046569 34.2911602,9.18872549 C33.6430939,9.21691176 32.9950276,9.21691176 32.3469613,9.21691176 L32.1779006,9.04779412 C32.1779006,8.65318627 32.2060773,8.25857843 32.2342541,7.89215686 L32.4033149,7.69485294 C33.0232044,7.69485294 33.6712707,7.75122549 34.2911602,7.75122549 L34.2911602,6.90563725 C34.2911602,5.9754902 34.2348066,5.01715686 34.2066298,4.0870098 L34.3756906,3.91789216 C35.7845304,3.49509804 37.1651934,3.04411765 38.5740331,2.62132353 L38.7994475,2.79044118 C38.6022099,4.17156863 38.6585635,5.69362745 38.6585635,7.0747549 L38.6585635,7.69485294 C39.6165746,7.69485294 40.6027624,7.66666667 41.5607735,7.66666667 L41.7298343,7.86397059 C41.6734807,8.28676471 41.6734807,8.70955882 41.6453039,9.13235294 L41.4480663,9.30147059 C40.518232,9.24509804 39.5883978,9.18872549 38.6585635,9.18872549 C38.6303867,9.80882353 38.6303867,10.4571078 38.6303867,11.0772059 C38.6303867,12.1482843 38.461326,20.3223039 38.9121547,21.252451 C39.1939227,21.7879902 39.5038674,22.0980392 40.0674033,22.0980392 C40.6027624,22.0980392 41.1099448,21.7879902 41.5325967,21.4497549 L41.8143646,21.5906863 C41.7298343,22.0980392 41.6734807,22.5772059 41.6171271,23.0845588 Z" id="Shape"></path>
                        <path d="M187.939227,23.5073529 L183.712707,23.5073529 L183.571823,23.310049 C183.571823,22.4926471 183.6,21.7316176 183.6,20.9142157 C183.6,18.8848039 183.6,16.8553922 183.571823,14.7977941 C183.571823,13.6985294 183.628177,12.4301471 183.430939,11.3308824 C183.374586,10.9362745 183.233702,10.5134804 182.98011,10.2316176 C182.698343,9.89338235 182.19116,9.75245098 181.796685,9.75245098 C180.951381,9.75245098 180.134254,10.2879902 179.514365,10.8517157 L179.514365,13.9240196 C179.514365,17.0526961 179.683425,20.2095588 179.683425,23.3382353 L179.514365,23.5073529 L175.287845,23.5073529 L175.118785,23.310049 C175.231492,20.2659314 175.203315,17.1654412 175.203315,14.1213235 L175.203315,11.7254902 C175.203315,8.23039216 175.090608,4.73529412 174.921547,1.24019608 L175.090608,1.04289216 C176.527624,0.817401961 177.936464,0.535539216 179.373481,0.253676471 L179.570718,0.394607843 C179.514365,1.91666667 179.486188,3.43872549 179.486188,4.98897059 L179.486188,9.27328431 C180.754144,8.20220588 182.303867,7.49754902 183.909945,7.49754902 C186.924862,7.49754902 187.967403,9.63970588 187.967403,12.7401961 C187.967403,13.3602941 187.939227,14.0367647 187.939227,14.685049 L187.939227,17.3909314 C187.939227,19.3639706 187.99558,21.3370098 188.08011,23.310049 L187.939227,23.5073529 Z" id="Shape"></path>
                        <path d="M202.844751,15.4742647 C202.337569,15.502451 201.80221,15.4742647 201.295028,15.4742647 L194.50442,15.4742647 L194.50442,15.8970588 C194.50442,18.7438725 195.462431,22.2953431 198.590055,22.2953431 C200.055249,22.2953431 201.323204,21.7034314 202.365746,20.5196078 L202.647514,20.6323529 C202.534807,21.252451 202.450276,21.9007353 202.393923,22.5490196 L202.253039,22.7745098 C200.844199,23.5919118 199.040884,23.9019608 197.49116,23.9019608 C192.785635,23.9019608 189.996133,20.8578431 189.996133,15.6997549 C189.996133,10.879902 192.532044,7.46936275 197.012155,7.46936275 C201.576796,7.46936275 203.041989,10.682598 203.041989,15.2769608 L202.844751,15.4742647 Z M197.068508,8.76593137 C194.927072,8.76593137 194.560773,12.4019608 194.476243,14.1213235 C195.265193,14.1213235 195.99779,14.1495098 196.78674,14.1495098 C197.603867,14.1495098 198.364641,14.1213235 199.181768,14.1213235 C199.181768,12.5710784 199.097238,8.76593137 197.068508,8.76593137 Z" id="Shape"></path>
                        <path d="M48.8867403,23.9301471 C44.2375691,23.9301471 41.5889503,20.7169118 41.5889503,15.6715686 C41.5889503,10.2879902 44.6883978,7.49754902 49.3657459,7.49754902 C54.1558011,7.49754902 56.2690608,10.7671569 56.2690608,15.8125 C56.2972376,20.942402 53.5922652,23.9301471 48.8867403,23.9301471 Z M48.9430939,8.82230392 C46.3226519,8.82230392 46.181768,12.9656863 46.181768,15.0232843 C46.181768,17.3345588 46.1535912,22.6053922 49.1121547,22.6053922 C51.9016575,22.6053922 51.7325967,17.560049 51.7325967,15.502451 C51.7607735,13.3321078 51.7044199,8.82230392 48.9430939,8.82230392 Z" id="Shape"></path>
                        <path d="M79.0359116,23.5073529 L74.7530387,23.5073529 L74.5558011,23.3382353 C74.6121547,22.379902 74.6121547,21.4497549 74.6121547,20.4914216 C74.6121547,18.7156863 74.8657459,11.9227941 74.020442,10.5980392 C73.6823204,10.0625 73.1751381,9.78063725 72.5834254,9.78063725 C71.7944751,9.78063725 71.0900552,10.2316176 70.4983425,10.7671569 C70.7519337,12.5992647 70.6955801,14.4877451 70.6955801,16.3198529 C70.6955801,18.6593137 70.7237569,20.942402 70.8082873,23.2818627 L70.6392265,23.4791667 L66.3563536,23.4791667 L66.1872928,23.310049 C66.1872928,21.5343137 66.2436464,19.814951 66.2436464,18.0392157 C66.2436464,16.4044118 66.3563536,13.6421569 66.1309392,12.0919118 C65.9618785,10.9926471 65.5955801,9.92156863 64.4121547,9.92156863 C63.5668508,9.92156863 62.9469613,10.4289216 62.298895,10.9362745 C62.298895,12.9375 62.3270718,14.9105392 62.3270718,16.9117647 C62.3270718,19.0257353 62.298895,21.1960784 62.439779,23.310049 L62.2425414,23.4791667 L57.9878453,23.4791667 L57.8187845,23.310049 C57.8751381,21.7034314 57.9033149,20.0404412 57.9033149,18.4338235 L57.9033149,16.5171569 C57.9033149,13.8958333 57.8751381,11.1335784 57.621547,8.54044118 L57.7906077,8.34313725 C59.2558011,8.14583333 60.7209945,7.86397059 62.158011,7.55392157 L62.3270718,7.72303922 C62.3270718,8.28676471 62.3270718,8.82230392 62.298895,9.38602941 C63.820442,8.23039216 65.0038674,7.44117647 66.9480663,7.44117647 C68.3569061,7.44117647 69.4276243,8.03308824 70.160221,9.38602941 C71.4563536,8.20220588 73.0060773,7.44117647 74.6966851,7.44117647 C75.4292818,7.44117647 76.3027624,7.58210784 76.9508287,7.97671569 C78.838674,9.07598039 78.9513812,10.9080882 78.979558,12.9938725 C79.0359116,16.3480392 79.1767956,19.9276961 79.1767956,23.2536765 L79.0359116,23.5073529 Z" id="Shape"></path>
                        <path d="M87.9116022,23.9301471 C83.2624309,23.9301471 80.6138122,20.7169118 80.6138122,15.6715686 C80.6138122,10.2879902 83.7132597,7.49754902 88.3906077,7.49754902 C93.180663,7.49754902 95.2939227,10.7671569 95.2939227,15.8125 C95.2939227,20.942402 92.6171271,23.9301471 87.9116022,23.9301471 Z M87.9679558,8.82230392 C85.3475138,8.82230392 85.2066298,12.9656863 85.2066298,15.0232843 C85.2066298,17.3345588 85.178453,22.6053922 88.1370166,22.6053922 C90.9265193,22.6053922 90.7574586,17.560049 90.7574586,15.502451 C90.7574586,13.3321078 90.701105,8.82230392 87.9679558,8.82230392 Z" id="Shape"></path>
                        <path d="M108.818785,20.5477941 C106.620994,23.5355392 103.437017,23.5073529 100.253039,23.5073529 L96.9,23.5073529 L96.7309392,23.3382353 C96.8718232,19.6176471 96.8154696,15.8406863 96.8154696,12.0637255 C96.8154696,8.48406863 96.8154696,4.87622549 96.5618785,1.26838235 L96.7309392,1.07107843 C98.1961326,0.789215686 99.6049724,0.535539216 101.070166,0.225490196 L101.29558,0.394607843 C101.29558,3.29779412 101.239227,6.20098039 101.154696,9.07598039 C102.479006,8.14583333 103.944199,7.46936275 105.550276,7.46936275 C109.072376,7.46936275 110.622099,10.9644608 110.622099,14.4313725 C110.593923,16.6017157 110.08674,18.8848039 108.818785,20.5477941 Z M103.155249,9.78063725 C102.422652,9.78063725 101.746409,10.2034314 101.154696,10.6262255 C101.154696,11.4436275 101.126519,12.2610294 101.126519,13.0784314 C101.126519,16.0661765 101.21105,19.0821078 101.21105,22.0698529 C101.492818,22.0980392 101.718232,22.0980392 102,22.0980392 C105.240331,22.0980392 105.972928,18.2647059 105.972928,15.3615196 C105.972928,13.2757353 105.60663,9.78063725 103.155249,9.78063725 Z" id="Shape"></path>
                        <path d="M116.59558,23.5073529 L112.143646,23.5073529 L111.974586,23.3382353 C112.11547,20.942402 112.11547,18.4620098 112.11547,16.0661765 C112.11547,13.557598 112.087293,10.9926471 111.861878,8.48406863 L112.030939,8.31495098 C113.496133,8.11764706 114.989503,7.86397059 116.454696,7.61029412 L116.651934,7.75122549 C116.651934,10.1470588 116.567403,12.5147059 116.567403,14.8823529 C116.567403,17.7009804 116.736464,20.5196078 116.736464,23.3382353 L116.59558,23.5073529 Z M114.369613,5.83455882 C112.960773,5.83455882 112.2,4.76348039 112.2,3.24142157 C112.2,1.77573529 113.017127,0.620098039 114.369613,0.620098039 C115.693923,0.620098039 116.539227,1.80392157 116.539227,3.21323529 C116.567403,4.62254902 115.693923,5.83455882 114.369613,5.83455882 Z" id="Shape"></path>
                        <path d="M123.470718,23.5073529 L119.131492,23.5073529 L118.934254,23.3382353 C118.934254,20.4632353 119.018785,17.6446078 119.018785,14.7696078 L119.018785,10.5980392 C119.018785,7.49754902 118.934254,4.34068627 118.765193,1.24019608 L118.962431,1.04289216 C120.399448,0.817401961 121.808287,0.535539216 123.245304,0.225490196 L123.442541,0.394607843 C123.386188,1.57843137 123.386188,2.79044118 123.386188,4.00245098 C123.386188,10.4007353 123.301657,16.9117647 123.667956,23.310049 L123.470718,23.5073529 Z" id="Shape"></path>
                        <path d="M142.828177,18.8002451 C142.405525,20.2941176 142.01105,21.8443627 141.588398,23.3382353 L141.39116,23.4791667 L138.207182,23.4791667 L138.038122,23.310049 C137.164641,19.504902 136.093923,15.7561275 135.220442,11.9509804 C133.952486,15.6433824 133.079006,19.5330882 132.092818,23.3382353 L131.89558,23.4791667 L128.683425,23.4791667 L128.458011,23.3382353 C127.725414,20.6887255 127.077348,18.0110294 126.344751,15.3615196 C125.668508,12.9656863 124.935912,10.5698529 124.259669,8.20220588 L124.428729,8.00490196 C125.865746,7.97671569 127.246409,7.94852941 128.683425,7.86397059 L128.880663,8.03308824 C129.810497,11.7818627 130.514917,15.5306373 131.557459,19.1948529 C132.543646,15.502451 133.473481,11.7254902 134.544199,8.06127451 L134.741436,7.92034314 L138.207182,7.92034314 L138.40442,8.08946078 C139.165193,11.8664216 140.066851,15.5588235 141.081215,19.2512255 C142.208287,15.5588235 143.138122,11.9227941 143.814365,8.08946078 L144.011602,7.92034314 C144.29337,7.92034314 144.603315,7.94852941 144.885083,7.94852941 C145.195028,7.94852941 145.561326,7.92034314 145.871271,7.92034314 L146.012155,8.14583333 C144.969613,11.6973039 143.842541,15.2205882 142.828177,18.8002451 Z" id="Shape"></path>
                        <path d="M153.169061,23.9301471 C148.51989,23.9301471 145.871271,20.7169118 145.871271,15.6715686 C145.871271,10.2879902 148.970718,7.49754902 153.648066,7.49754902 C158.438122,7.49754902 160.551381,10.7671569 160.551381,15.8125 C160.579558,20.942402 157.874586,23.9301471 153.169061,23.9301471 Z M153.225414,8.82230392 C150.604972,8.82230392 150.464088,12.9656863 150.464088,15.0232843 C150.464088,17.3345588 150.435912,22.6053922 153.394475,22.6053922 C156.183978,22.6053922 156.014917,17.560049 156.014917,15.502451 C156.014917,13.3321078 155.958564,8.82230392 153.225414,8.82230392 Z" id="Shape"></path>
                        <path d="M173.090055,10.5980392 L172.864641,10.6544118 C172.075691,9.69607843 171.314917,8.99142157 170.075138,8.99142157 C166.80663,8.99142157 166.271271,13.247549 166.271271,16.0379902 C166.271271,18.6029412 166.975691,22.2953431 169.906077,22.2953431 C171.20221,22.2953431 172.188398,21.6752451 173.033702,20.6323529 L173.259116,20.7169118 C173.146409,21.3933824 173.061878,22.0980392 172.977348,22.7745098 L172.836464,22.9718137 C171.512155,23.7328431 170.272376,23.9301471 168.835359,23.9301471 C164.327072,23.9301471 161.819337,20.9705882 161.819337,16.0098039 C161.819337,10.9080882 164.749724,7.52573529 169.370718,7.52573529 C170.58232,7.52573529 172.160221,7.75122549 173.202762,8.45588235 L173.343646,8.7377451 C173.230939,9.32965686 173.174586,9.97794118 173.090055,10.5980392 Z" id="Shape"></path>
                    </g>
                    <polygon id="Shape" points="0 30 203.661878 30 203.661878 34.2279412 0 34.2279412"></polygon>
                    <g id="Group" transform="translate(26.486188, 40.024510)" fill-rule="nonzero">
                        <g id="Group-12">
                            <path d="M3.86022099,3.80514706 C3.43756906,4.36887255 2.78950276,4.73529412 1.66243094,4.73529412 C1.23977901,4.73529412 0.732596685,4.73529412 0.197237569,4.73529412 L0.197237569,0.140931373 C0.676243094,0.140931373 0.986187845,0.140931373 1.40883978,0.140931373 C2.39502762,0.140931373 3.26850829,0.31004902 3.8320442,0.958333333 C4.17016575,1.35294118 4.31104972,1.80392157 4.31104972,2.33946078 C4.33922652,2.79044118 4.19834254,3.32598039 3.86022099,3.80514706 Z M3.43756906,1.2120098 C3.01491713,0.704656863 2.39502762,0.535539216 1.38066298,0.535539216 C1.12707182,0.535539216 0.929834254,0.535539216 0.676243094,0.535539216 L0.676243094,4.28431373 C1.04254144,4.28431373 1.32430939,4.28431373 1.69060773,4.28431373 C2.62044199,4.28431373 3.12762431,4.00245098 3.49392265,3.52328431 C3.74751381,3.18504902 3.8320442,2.7622549 3.8320442,2.36764706 C3.8320442,1.97303922 3.74751381,1.5502451 3.43756906,1.2120098 Z" id="Shape"></path>
                            <polygon id="Shape" points="5.63535912 4.70710784 5.63535912 0.112745098 6.11399632 0.112745098 6.11399632 4.70710784"></polygon>
                            <polygon id="Shape" points="10.1436464 4.70710784 7.6359116 4.70710784 7.6359116 0.112745098 10.059116 0.112745098 10.059116 0.535539216 8.14309392 0.535539216 8.14309392 2.17034314 9.91823204 2.17034314 9.91823204 2.56495098 8.14309392 2.56495098 8.14309392 4.28431373 10.2 4.28431373"></polygon>
                            <path d="M15.9762431,4.45343137 C15.7226519,4.59436275 15.3281768,4.67892157 14.7082873,4.67892157 L13.7502762,4.67892157 L13.7502762,0.0845588235 L14.4546961,0.0845588235 C14.9337017,0.0845588235 15.2718232,0.140931373 15.5254144,0.253676471 C15.9762431,0.422794118 16.2861878,0.789215686 16.2861878,1.29656863 C16.2861878,1.77573529 15.9762431,2.17034314 15.4972376,2.28308824 C16.2298343,2.39583333 16.6243094,2.90318627 16.6243094,3.43872549 C16.5961326,3.88970588 16.3425414,4.25612745 15.9762431,4.45343137 Z M15.4972376,0.732843137 C15.2436464,0.507352941 14.8773481,0.479166667 14.5392265,0.479166667 L14.2292818,0.479166667 L14.2292818,2.14215686 L14.6237569,2.14215686 C14.9337017,2.14215686 15.159116,2.14215686 15.3563536,2.02941176 C15.6099448,1.88848039 15.7790055,1.63480392 15.7790055,1.3247549 C15.7790055,1.04289216 15.6381215,0.845588235 15.4972376,0.732843137 Z M14.6801105,2.50857843 L14.2292818,2.50857843 L14.2292818,4.3125 L14.7364641,4.3125 C15.018232,4.3125 15.3,4.3125 15.5535912,4.1997549 C15.8353591,4.0870098 16.0889503,3.86151961 16.0889503,3.46691176 C16.0889503,2.90318627 15.581768,2.50857843 14.6801105,2.50857843 Z" id="Shape"></path>
                            <path d="M21.639779,4.70710784 C20.9917127,4.67892157 20.681768,4.5379902 20.0337017,3.69240196 L19.4138122,2.84681373 L18.4558011,2.84681373 L18.4558011,4.67892157 L17.9767956,4.67892157 L17.9767956,0.0845588235 L18.8502762,0.0845588235 C19.5546961,0.0845588235 19.9773481,0.225490196 20.3154696,0.507352941 C20.5690608,0.761029412 20.7099448,1.07107843 20.7099448,1.4375 C20.7099448,1.91666667 20.5127072,2.39583333 19.9209945,2.67769608 L20.4845304,3.43872549 C20.9917127,4.0870098 21.3298343,4.25612745 21.6961326,4.34068627 L21.639779,4.70710784 Z M19.9209945,0.817401961 C19.6674033,0.591911765 19.3292818,0.507352941 18.8502762,0.507352941 L18.4839779,0.507352941 L18.4839779,2.45220588 C18.4839779,2.45220588 18.878453,2.45220588 19.2447514,2.45220588 C19.4983425,2.45220588 19.7519337,2.39583333 19.9773481,2.14215686 C20.1464088,1.97303922 20.2309392,1.77573529 20.2309392,1.46568627 C20.2027624,1.26838235 20.118232,0.986519608 19.9209945,0.817401961 Z" id="Shape"></path>
                            <path d="M25.8381215,4.70710784 L25.3027624,3.29779412 L23.3585635,3.29779412 L22.879558,4.70710784 L22.4005525,4.70710784 L24.0629834,0.112745098 L24.5983425,0.112745098 L26.3734807,4.70710784 L25.8381215,4.70710784 Z M24.4856354,1.15563725 C24.3447514,0.789215686 24.2883978,0.620098039 24.2883978,0.591911765 C24.2883978,0.591911765 24.2320442,0.761029412 24.0911602,1.15563725 L23.4712707,2.875 L25.1337017,2.875 L24.4856354,1.15563725 Z" id="Shape"></path>
                            <path d="M31.3607735,4.70710784 L30.8535912,4.70710784 L27.9513812,0.789215686 C27.9513812,0.958333333 27.9513812,1.24019608 27.9513812,1.5502451 L27.9513812,4.70710784 L27.5005525,4.70710784 L27.5005525,0.112745098 L28.0077348,0.112745098 L30.881768,3.97426471 C30.881768,3.83333333 30.881768,3.60784314 30.881768,3.29779412 L30.881768,0.112745098 L31.3325967,0.112745098 L31.3325967,4.70710784 L31.3607735,4.70710784 Z" id="Shape"></path>
                            <path d="M36.7143646,4.39705882 C36.1790055,4.65073529 35.6436464,4.76348039 35.1364641,4.76348039 C34.5165746,4.76348039 33.9812155,4.65073529 33.5303867,4.3125 C32.9668508,3.91789216 32.6287293,3.21323529 32.6287293,2.42401961 C32.6287293,1.46568627 33.0232044,0.845588235 33.5303867,0.479166667 C33.9530387,0.169117647 34.4883978,0.0281862745 35.1364641,0.0281862745 C35.6154696,0.0281862745 36.0662983,0.112745098 36.6016575,0.31004902 L36.5734807,0.732843137 C36.0099448,0.535539216 35.5872928,0.450980392 35.1364641,0.450980392 C34.601105,0.450980392 34.1502762,0.56372549 33.8403315,0.845588235 C33.3895028,1.18382353 33.1640884,1.69117647 33.1640884,2.39583333 C33.1640884,3.43872549 33.8685083,4.34068627 35.1928177,4.34068627 C35.5872928,4.34068627 36.1508287,4.25612745 36.7707182,3.94607843 L36.7143646,4.39705882 Z" id="Shape"></path>
                            <polygon id="Shape" points="41.2226519 4.70710784 41.2226519 2.59313725 38.6303867 2.59313725 38.6303867 4.70710784 38.1513812 4.70710784 38.1513812 0.112745098 38.6303867 0.112745098 38.6303867 2.19852941 41.2226519 2.19852941 41.2226519 0.112745098 41.7016575 0.112745098 41.7016575 4.70710784"></polygon>
                            <polygon id="Shape" points="45.7309392 4.70710784 43.2232044 4.70710784 43.2232044 0.112745098 45.6464088 0.112745098 45.6464088 0.535539216 43.7303867 0.535539216 43.7303867 2.17034314 45.5055249 2.17034314 45.5055249 2.56495098 43.7303867 2.56495098 43.7303867 4.28431373 45.7872928 4.28431373"></polygon>
                            <path d="M51.0281768,4.70710784 L50.5209945,4.70710784 L47.6187845,0.789215686 C47.6187845,0.958333333 47.6187845,1.24019608 47.6187845,1.5502451 L47.6187845,4.70710784 L47.1679558,4.70710784 L47.1679558,0.112745098 L47.6751381,0.112745098 L50.5491713,3.97426471 C50.5491713,3.83333333 50.5491713,3.60784314 50.5491713,3.29779412 L50.5491713,0.112745098 L51,0.112745098 L51,4.70710784 L51.0281768,4.70710784 Z" id="Shape"></path>
                            <polygon id="Shape" points="51.9861878 3.1004902 51.9861878 2.73406863 53.6767956 2.73406863 53.6767956 3.1004902"></polygon>
                            <path d="M60.3546961,2.50857843 C60.3546961,3.32598039 60.2701657,3.77696078 59.960221,4.17156863 C59.7066298,4.50980392 59.2276243,4.79166667 58.5232044,4.79166667 C57.8187845,4.79166667 57.3679558,4.56617647 57.058011,4.17156863 C56.7762431,3.80514706 56.7198895,3.32598039 56.7198895,2.50857843 L56.7198895,0.140931373 L57.198895,0.140931373 L57.198895,2.50857843 C57.198895,3.15686275 57.2552486,3.60784314 57.480663,3.91789216 C57.7060773,4.1997549 58.0160221,4.36887255 58.5513812,4.36887255 C59.0022099,4.36887255 59.3685083,4.1997549 59.5657459,3.94607843 C59.7911602,3.63602941 59.8756906,3.26960784 59.8756906,2.62132353 L59.8756906,0.140931373 L60.3265193,0.140931373 L60.3265193,2.50857843 L60.3546961,2.50857843 Z" id="Shape"></path>
                            <path d="M65.6519337,4.70710784 L65.1447514,4.70710784 L62.2425414,0.789215686 C62.2425414,0.958333333 62.2425414,1.24019608 62.2425414,1.5502451 L62.2425414,4.70710784 L61.7917127,4.70710784 L61.7917127,0.112745098 L62.298895,0.112745098 L65.1729282,3.97426471 C65.1729282,3.83333333 65.1729282,3.60784314 65.1729282,3.29779412 L65.1729282,0.112745098 L65.6237569,0.112745098 L65.6237569,4.70710784 L65.6519337,4.70710784 Z" id="Shape"></path>
                            <path d="M70.8082873,3.80514706 C70.3856354,4.36887255 69.7375691,4.73529412 68.6104972,4.73529412 C68.1878453,4.73529412 67.680663,4.73529412 67.1453039,4.73529412 L67.1453039,0.140931373 C67.6243094,0.140931373 67.9342541,0.140931373 68.3569061,0.140931373 C69.3430939,0.140931373 70.2165746,0.31004902 70.7801105,0.958333333 C71.118232,1.35294118 71.259116,1.80392157 71.259116,2.33946078 C71.2872928,2.79044118 71.1464088,3.32598039 70.8082873,3.80514706 Z M70.3856354,1.2120098 C69.9629834,0.704656863 69.3430939,0.535539216 68.3287293,0.535539216 C68.0751381,0.535539216 67.8779006,0.535539216 67.6243094,0.535539216 L67.6243094,4.28431373 C67.9906077,4.28431373 68.2723757,4.28431373 68.638674,4.28431373 C69.5685083,4.28431373 70.0756906,4.00245098 70.441989,3.52328431 C70.6955801,3.18504902 70.7801105,2.7622549 70.7801105,2.36764706 C70.7801105,1.97303922 70.6955801,1.5502451 70.3856354,1.2120098 Z" id="Shape"></path>
                            <polygon id="Shape" points="78.8950276 4.67892157 78.3314917 4.67892157 77.3171271 1.88848039 76.359116 4.67892157 75.8237569 4.67892157 74.1895028 0.0845588235 74.6966851 0.0845588235 76.1337017 4.17156863 77.0917127 1.26838235 76.6690608 0.0845588235 77.1762431 0.0845588235 78.6132597 4.17156863 79.9939227 0.0845588235 80.4729282 0.0845588235"></polygon>
                            <polygon id="Shape" points="81.5154696 4.70710784 81.5154696 0.112745098 81.9941068 0.112745098 81.9941068 4.70710784"></polygon>
                            <path d="M87.1790055,4.70710784 C86.5309392,4.67892157 86.2209945,4.5379902 85.5729282,3.69240196 L84.9530387,2.84681373 L83.9950276,2.84681373 L83.9950276,4.67892157 L83.5160221,4.67892157 L83.5160221,0.0845588235 L84.3895028,0.0845588235 C85.0939227,0.0845588235 85.5165746,0.225490196 85.8546961,0.507352941 C86.1082873,0.761029412 86.2491713,1.07107843 86.2491713,1.4375 C86.2491713,1.91666667 86.0519337,2.39583333 85.460221,2.67769608 L86.0237569,3.43872549 C86.5309392,4.0870098 86.8690608,4.25612745 87.2353591,4.34068627 L87.1790055,4.70710784 Z M85.460221,0.817401961 C85.2066298,0.591911765 84.8685083,0.507352941 84.3895028,0.507352941 L84.0232044,0.507352941 L84.0232044,2.45220588 C84.0232044,2.45220588 84.4176796,2.45220588 84.7839779,2.45220588 C85.0375691,2.45220588 85.2911602,2.39583333 85.5165746,2.14215686 C85.6856354,1.97303922 85.7701657,1.77573529 85.7701657,1.46568627 C85.741989,1.26838235 85.6292818,0.986519608 85.460221,0.817401961 Z" id="Shape"></path>
                            <polygon id="Shape" points="90.841989 0.507352941 89.320442 0.507352941 89.320442 4.70710784 88.8414365 4.70710784 88.8414365 0.507352941 87.3198895 0.507352941 87.3198895 0.0845588235 90.8701657 0.0845588235"></polygon>
                            <path d="M92.7861878,4.76348039 C92.3917127,4.76348039 91.9972376,4.70710784 91.6027624,4.5379902 L91.6027624,4.05882353 C92.1381215,4.25612745 92.4480663,4.3125 92.8143646,4.3125 C93.6033149,4.3125 93.8569061,3.88970588 93.8569061,3.49509804 C93.8569061,3.18504902 93.7441989,2.90318627 93.0961326,2.59313725 L92.7016575,2.42401961 C91.9690608,2.08578431 91.7154696,1.69117647 91.7154696,1.2120098 C91.7154696,0.591911765 92.2226519,0.0281862745 93.2370166,0.0281862745 C93.5187845,0.0281862745 93.8569061,0.056372549 94.2232044,0.197303922 L94.1950276,0.620098039 C93.8005525,0.479166667 93.4906077,0.450980392 93.2370166,0.450980392 C92.5325967,0.450980392 92.2226519,0.789215686 92.2226519,1.18382353 C92.2226519,1.49387255 92.3635359,1.74754902 93.0116022,2.02941176 L93.4060773,2.19852941 C94.1668508,2.53676471 94.3922652,2.95955882 94.3922652,3.46691176 C94.3640884,4.05882353 93.8850829,4.76348039 92.7861878,4.76348039 Z" id="Shape"></path>
                            <path d="M99.5486188,4.39705882 C99.0132597,4.65073529 98.4779006,4.76348039 97.9707182,4.76348039 C97.3508287,4.76348039 96.8154696,4.65073529 96.3646409,4.3125 C95.801105,3.91789216 95.4629834,3.21323529 95.4629834,2.42401961 C95.4629834,1.46568627 95.8574586,0.845588235 96.3646409,0.479166667 C96.7872928,0.169117647 97.3226519,0.0281862745 97.9707182,0.0281862745 C98.4497238,0.0281862745 98.9005525,0.112745098 99.4359116,0.31004902 L99.4077348,0.732843137 C98.8441989,0.535539216 98.421547,0.450980392 97.9707182,0.450980392 C97.4353591,0.450980392 96.9845304,0.56372549 96.6745856,0.845588235 C96.2237569,1.18382353 95.9983425,1.69117647 95.9983425,2.39583333 C95.9983425,3.43872549 96.7027624,4.34068627 98.0270718,4.34068627 C98.421547,4.34068627 98.9850829,4.25612745 99.6049724,3.94607843 L99.5486188,4.39705882 Z" id="Shape"></path>
                            <polygon id="Shape" points="104.085083 4.70710784 104.085083 2.59313725 101.492818 2.59313725 101.492818 4.70710784 101.013812 4.70710784 101.013812 0.112745098 101.492818 0.112745098 101.492818 2.19852941 104.085083 2.19852941 104.085083 0.112745098 104.564088 0.112745098 104.564088 4.70710784"></polygon>
                            <path d="M109.185083,4.70710784 L108.649724,3.29779412 L106.705525,3.29779412 L106.226519,4.70710784 L105.747514,4.70710784 L107.409945,0.112745098 L107.945304,0.112745098 L109.720442,4.70710784 L109.185083,4.70710784 Z M107.832597,1.15563725 C107.691713,0.789215686 107.635359,0.620098039 107.635359,0.591911765 C107.635359,0.591911765 107.579006,0.761029412 107.438122,1.15563725 L106.818232,2.875 L108.480663,2.875 L107.832597,1.15563725 Z" id="Shape"></path>
                            <polygon id="Shape" points="111.354696 0.507352941 111.354696 2.31127451 113.214365 2.31127451 113.214365 2.73406863 111.354696 2.73406863 111.354696 4.70710784 110.875691 4.70710784 110.875691 0.112745098 113.298895 0.112745098 113.298895 0.535539216 111.354696 0.535539216"></polygon>
                            <polygon id="Shape" points="117.807182 0.507352941 116.285635 0.507352941 116.285635 4.70710784 115.80663 4.70710784 115.80663 0.507352941 114.285083 0.507352941 114.285083 0.0845588235 117.835359 0.0845588235"></polygon>
                            <path d="M119.751381,4.76348039 C119.356906,4.76348039 118.962431,4.70710784 118.567956,4.5379902 L118.567956,4.05882353 C119.103315,4.25612745 119.41326,4.3125 119.779558,4.3125 C120.568508,4.3125 120.822099,3.88970588 120.822099,3.49509804 C120.822099,3.18504902 120.709392,2.90318627 120.061326,2.59313725 L119.666851,2.42401961 C118.934254,2.08578431 118.680663,1.69117647 118.680663,1.2120098 C118.680663,0.591911765 119.187845,0.0281862745 120.20221,0.0281862745 C120.483978,0.0281862745 120.822099,0.056372549 121.188398,0.197303922 L121.160221,0.620098039 C120.765746,0.479166667 120.455801,0.450980392 120.20221,0.450980392 C119.49779,0.450980392 119.187845,0.789215686 119.187845,1.18382353 C119.187845,1.49387255 119.328729,1.74754902 119.976796,2.02941176 L120.371271,2.19852941 C121.132044,2.53676471 121.357459,2.95955882 121.357459,3.46691176 C121.357459,4.05882353 120.878453,4.76348039 119.751381,4.76348039 Z" id="Shape"></path>
                            <polygon id="Shape" points="125.753039 4.70710784 122.371823 4.70710784 122.371823 4.3125 124.935912 0.535539216 122.4 0.535539216 122.4 0.112745098 125.555801 0.112745098 125.555801 0.450980392 122.963536 4.25612745 125.781215 4.25612745"></polygon>
                            <polygon id="Shape" points="129.528729 4.70710784 127.020994 4.70710784 127.020994 0.112745098 129.444199 0.112745098 129.444199 0.535539216 127.528177 0.535539216 127.528177 2.17034314 129.303315 2.17034314 129.303315 2.56495098 127.528177 2.56495098 127.528177 4.28431373 129.585083 4.28431373"></polygon>
                            <polygon id="Shape" points="130.993923 4.70710784 130.993923 0.112745098 131.47256 0.112745098 131.47256 4.70710784"></polygon>
                            <polygon id="Shape" points="136.093923 0.507352941 134.572376 0.507352941 134.572376 4.70710784 134.09337 4.70710784 134.09337 0.507352941 132.571823 0.507352941 132.571823 0.0845588235 136.122099 0.0845588235"></polygon>
                            <path d="M140.771271,2.50857843 C140.771271,3.32598039 140.68674,3.77696078 140.376796,4.17156863 C140.123204,4.50980392 139.644199,4.79166667 138.939779,4.79166667 C138.235359,4.79166667 137.78453,4.56617647 137.474586,4.17156863 C137.192818,3.80514706 137.136464,3.32598039 137.136464,2.50857843 L137.136464,0.140931373 L137.61547,0.140931373 L137.61547,2.50857843 C137.61547,3.15686275 137.671823,3.60784314 137.897238,3.91789216 C138.122652,4.1997549 138.432597,4.36887255 138.967956,4.36887255 C139.418785,4.36887255 139.785083,4.1997549 139.98232,3.94607843 C140.207735,3.63602941 140.292265,3.26960784 140.292265,2.62132353 L140.292265,0.140931373 L140.743094,0.140931373 L140.743094,2.50857843 L140.771271,2.50857843 Z" id="Shape"></path>
                            <path d="M146.068508,4.70710784 L145.561326,4.70710784 L142.659116,0.789215686 C142.659116,0.958333333 142.659116,1.24019608 142.659116,1.5502451 L142.659116,4.70710784 L142.208287,4.70710784 L142.208287,0.112745098 L142.71547,0.112745098 L145.589503,3.97426471 C145.589503,3.83333333 145.589503,3.60784314 145.589503,3.29779412 L145.589503,0.112745098 L146.040331,0.112745098 L146.040331,4.70710784 L146.068508,4.70710784 Z" id="Shape"></path>
                            <path d="M149.844199,4.76348039 C149.224309,4.76348039 148.68895,4.65073529 148.238122,4.3125 C147.674586,3.91789216 147.336464,3.18504902 147.336464,2.36764706 C147.336464,1.4375 147.702762,0.845588235 148.181768,0.479166667 C148.60442,0.169117647 149.139779,0 149.872376,0 C150.351381,0 150.88674,0.0845588235 151.309392,0.253676471 L151.281215,0.704656863 C150.80221,0.507352941 150.266851,0.450980392 149.844199,0.450980392 C149.252486,0.450980392 148.773481,0.591911765 148.463536,0.845588235 C148.069061,1.18382353 147.843646,1.6629902 147.843646,2.31127451 C147.843646,3.41053922 148.51989,4.28431373 149.900552,4.28431373 C150.18232,4.28431373 150.548619,4.22794118 150.943094,4.14338235 L150.943094,2.56495098 L151.422099,2.56495098 L151.422099,3.91789216 C151.422099,4.17156863 151.422099,4.45343137 151.422099,4.45343137 C150.88674,4.67892157 150.351381,4.76348039 149.844199,4.76348039 Z" id="Shape"></path>
                        </g>
                    </g>
                </g>
            </g>
        </g>
    </g>
</svg>