<?xml version="1.0" encoding="UTF-8"?>
<svg width="454px" height="76px" viewBox="0 0 454 76" version="1.1" xmlns="http://www.w3.org/2000/svg" xmlns:xlink="http://www.w3.org/1999/xlink">
    <!-- Generator: Sketch 49.3 (51167) - http://www.bohemiancoding.com/sketch -->
    <title>logo for web</title>
    <desc>Created with Sketch.</desc>
    <defs></defs>
    <g id="logo-for-web" stroke="none" stroke-width="1" fill="none" fill-rule="evenodd">
        <g id="logo" fill="#334146" fill-rule="nonzero">
            <path d="M70,70 C77.7743743,62.1957624 77.7743743,49.5742376 70,41.77 L35,6.77 C27.1957624,-1.00437429 14.5742376,-1.00437429 6.77,6.77 C-1.00437429,14.5742376 -1.00437429,27.1957624 6.77,35 L41.77,70 C49.5742376,77.7743743 62.1957624,77.7743743 70,70 Z M175.36,6.83 C167.555762,-0.944374294 154.934238,-0.944374294 147.13,6.83 L125.84,28.12 L104.56,6.83 C96.7557624,-0.944374294 84.1342376,-0.944374294 76.33,6.83 C68.5622645,14.6330775 68.5622645,27.2469225 76.33,35.05 L111.33,70.05 C119.463746,77.7973016 132.246254,77.7973016 140.38,70.05 L175.38,35.05 C183.142208,27.2414185 183.133268,14.6275712 175.36,6.83 Z M200.89,14.14 L215.1,14.14 L222.31,42 L222.52,42 L229.17,14.14 L243.17,14.14 L249.68,41.93 L249.89,41.93 L257.1,14.14 L271.31,14.14 L255.84,63.84 L243.73,63.84 L236.38,33.6 L236.24,33.6 L228.47,63.84 L216.36,63.84 L200.89,14.14 Z M270.8,49.63 L270.8,29.54 L283.26,29.54 L283.26,46.62 C283.26,51.52 284.59,53.55 287.74,53.55 C290.4,53.55 292.43,51.45 292.43,46.76 L292.43,29.54 L305,29.54 L305,63.84 L292.43,63.84 L292.43,60.2 L292.29,60.13 C290.020536,62.9803089 286.552764,64.6106792 282.91,64.54 C275.91,64.54 270.8,60.76 270.8,49.63 Z M310.31,29.54 L322.84,29.54 L322.84,33.18 L323,33.18 C325.408383,30.3607665 328.952811,28.7683426 332.66,28.84 C339.59,28.84 344.84,31.99 344.84,43.12 L344.84,63.84 L332.29,63.84 L332.29,46.13 C332.29,41.23 330.89,39.9 327.81,39.9 C324.73,39.9 322.81,41.9 322.81,46.62 L322.81,63.84 L310.31,63.84 L310.31,29.54 Z M373.88,12.32 L373.88,32.9 L373.74,32.97 C371.435495,30.3170667 368.083936,28.8075861 364.57,28.84 C355.96,28.84 349.37,36.12 349.37,46.69 C349.37,57.26 355.89,64.54 365.37,64.54 C369.29,64.54 372.3,63.28 374.37,60.69 L374.51,60.69 L374.51,63.84 L386.41,63.84 L386.41,12.32 L373.88,12.32 Z M368.07,53.62 C364.57,53.62 361.98,50.89 361.98,46.69 C361.98,42.49 364.57,39.83 368.07,39.83 C371.57,39.83 374.37,42.63 374.37,46.69 C374.37,50.75 371.71,53.62 368.07,53.62 Z M426.07,46.41 C426.07,36.12 418.72,28.84 408.85,28.84 C398.49,28.84 391.07,36.33 391.07,46.69 C391.07,57.26 398.77,64.54 409.07,64.54 C416.98,64.54 422.07,62.02 424.96,58.54 L418.24,51.12 C416.295448,53.3477159 413.496688,54.645323 410.54,54.69 C406.76,54.69 403.89,53.08 403.33,49.79 L425.8,49.79 C425.963579,48.6702578 426.057094,47.5413956 426.08,46.41 L426.07,46.41 Z M403.33,43 C403.684414,40.2813935 406.05023,38.279549 408.79,38.38 C411.52,38.38 413.41,40.06 413.97,43 L403.33,43 Z M430.85,29.56 L443.38,29.56 L443.38,34.18 L443.52,34.18 C445.593687,30.9325043 449.147958,28.9304152 453,28.84 L453.07,28.84 L453.07,42.21 C452.02,42.14 450.97,42.14 450.41,42.14 C445.58,42.14 443.34,44.87 443.34,48.86 L443.34,63.86 L430.85,63.86 L430.85,29.56 Z" id="Layer_1-2"></path>
        </g>
    </g>
</svg>