<?xml version="1.0" encoding="UTF-8"?>
<svg width="208px" height="40px" viewBox="0 0 208 40" version="1.1" xmlns="http://www.w3.org/2000/svg" xmlns:xlink="http://www.w3.org/1999/xlink">
    <!-- Generator: Sketch 50.2 (55047) - http://www.bohemiancoding.com/sketch -->
    <title>worldpay_bw</title>
    <desc>Created with Sketch.</desc>
    <defs></defs>
    <g id="Page-3" stroke="none" stroke-width="1" fill="none" fill-rule="evenodd">
        <g id="wunder_landingpage_desktop_03" transform="translate(-616.000000, -3860.000000)" fill="#B2B2B2">
            <g id="Group-5" transform="translate(327.000000, 3830.000000)">
                <g id="Logo-2" transform="translate(243.000000, 0.000000)">
                    <g id="worldpay_bw" transform="translate(46.000000, 30.000000)">
                        <path d="M62.6692857,31.3209302 L68.2360714,13.3906977 C68.3985714,12.8511628 68.5657143,12.6883721 69.2667857,12.5627907 L70.7525,12.3209302 L70.7525,10.1488372 L62.9571429,10.1488372 L62.5067857,12.3209302 L65.1857143,12.6465116 L60.6078571,27.4930233 L56.6103571,10.7395349 L52.2785714,10.7395349 L47.5382143,27.5348837 L42.9232143,12.6465116 L45.5603571,12.3209302 L45.5603571,10.1488372 L37.2728571,10.1488372 L36.7760714,12.3209302 L38.5496429,12.6883721 C39.0464286,12.8093023 39.2507143,12.8930233 39.4178571,13.3906977 L45.2307143,31.3162791 L49.7667857,31.3162791 L54.2982143,14.9255814 L58.2585714,31.3162791 L62.6692857,31.3209302" id="Fill-1"></path>
                        <path d="M80.9389286,31.7627907 C87.945,31.7627907 91.0742857,27.2790698 91.0742857,20.344186 C91.0742857,14.1581395 88.3535714,9.68372093 81.3475,9.68372093 C74.3414286,9.68372093 71.045,14.1162791 71.045,20.5953488 C71.045,27.1534884 73.8075,31.7627907 80.9389286,31.7627907 Z M81.0596429,28.7627907 C77.0064286,28.7627907 74.9171429,26.1255814 74.9171429,20.6372093 C74.9171429,15.1860465 77.2525,12.7953488 81.2639286,12.7953488 C85.2335714,12.7953488 87.2021429,15.1860465 87.2021429,20.5953488 C87.2021429,26.2465116 85.0292857,28.7627907 81.0596429,28.7627907 Z" id="Fill-2"></path>
                        <path d="M103.712143,31.2930233 L103.712143,29.1255814 L99.8307143,28.7953488 C99.1992857,28.7534884 99.1575,28.6325581 99.1575,27.9674419 L99.1575,15.5023256 C100.127857,14.5906977 102.2775,12.8930233 104.176429,12.8930233 C104.5525,12.8930233 104.636071,12.972093 104.6825,13.3069767 L105.188571,16.1906977 L108.071786,16.3162791 L108.071786,10.0697674 C107.338214,9.8372093 106.08,9.66976744 105.142143,9.66976744 C102.2775,9.66976744 100.211429,11.4465116 98.8325,12.972093 L98.7117857,12.9348837 L98.3125,10.1116279 L92.9778571,10.1116279 L92.6064286,12.3116279 L94.9557143,13.0930233 C95.3689286,13.2186047 95.4942857,13.5069767 95.4942857,13.9627907 L95.4942857,28.0139535 C95.4942857,28.6325581 95.4107143,28.7581395 94.835,28.8372093 L92.7735714,29.0837209 L92.7735714,31.2930233 L103.712143,31.2930233" id="Fill-3"></path>
                        <path d="M118.383571,31.2930233 L118.383571,29.1255814 L115.913571,28.8372093 C115.296071,28.7534884 115.254286,28.6744186 115.254286,28.0093023 L115.254286,0.088372093 L108.949286,0.088372093 L108.577857,2.28372093 L111.0525,3.06976744 C111.465714,3.19534884 111.591071,3.48372093 111.591071,3.93953488 L111.591071,28.0093023 C111.591071,28.6325581 111.5075,28.7953488 110.931786,28.8372093 L108.373571,29.0837209 L108.373571,31.2930233 L118.383571,31.2930233" id="Fill-4"></path>
                        <path d="M140.910714,31.3116279 L140.910714,29.1069767 L138.8075,28.8186047 C138.19,28.7348837 138.148214,28.6511628 138.148214,27.9906977 L138.148214,0.088372093 L131.926786,0.088372093 L131.555357,2.28372093 L134.03,3.0744186 C134.401429,3.19534884 134.563929,3.48837209 134.563929,3.90232558 L134.563929,11.6511628 C132.9575,10.4976744 130.733571,9.66976744 128.258929,9.66976744 C123.314286,9.66976744 119.665,13.0139535 119.665,21.1627907 C119.665,28.7302326 122.738571,31.7581395 127.437143,31.7581395 C130.65,31.7581395 132.795,30.3255814 134.684643,28.5209302 L134.847143,28.5627907 L135.1675,31.3116279 L140.910714,31.3116279 Z M134.485,25.2232558 C132.669643,27.0372093 130.691786,28.6465116 128.258929,28.6465116 C125.375714,28.6465116 123.439643,26.7906977 123.439643,21.055814 C123.439643,16.1488372 124.9625,12.7674419 128.839286,12.7674419 C131.021429,12.7674419 133.245357,13.9627907 134.485,14.9953488 L134.485,25.2232558 Z" id="Fill-5"></path>
                        <path d="M153.093571,40 L153.093571,37.8325581 L149.221429,37.5023256 C148.603929,37.4604651 148.562143,37.3395349 148.562143,36.6744186 L148.562143,29.5023256 C150.498214,31.1953488 152.476071,31.772093 154.825357,31.772093 C161.288214,31.772093 163.382143,26.0744186 163.382143,19.8790698 C163.382143,12.6139535 160.262143,9.70232558 155.651786,9.70232558 C152.8475,9.70232558 150.54,10.8372093 148.274286,12.4930233 L148.153571,12.4511628 L147.786786,10.1116279 L142.3825,10.1116279 L142.011071,12.3116279 L144.360357,13.0930233 C144.773571,13.2139535 144.898929,13.5023256 144.898929,13.9534884 L144.898929,36.7162791 C144.898929,37.3395349 144.773571,37.4604651 144.197857,37.544186 L142.507857,37.7906977 L142.507857,40 L153.093571,40 Z M148.562143,15.3767442 C149.755357,14.427907 152.23,12.8139535 154.867143,12.8139535 C157.420714,12.8139535 159.6075,14.5906977 159.6075,20.2093023 C159.6075,25.4139535 158.121786,28.6744186 154.207857,28.6744186 C152.021071,28.6744186 149.964286,27.3534884 148.562143,25.9906977 L148.562143,15.3767442 Z" id="Fill-6"></path>
                        <path d="M185.027143,31.3116279 L185.027143,29.1069767 L182.923929,28.8186047 C182.306429,28.7348837 182.264643,28.6511628 182.264643,27.9953488 L182.264643,17.0511628 C182.264643,11.3209302 180.31,9.66046512 174.4925,9.66046512 C171.261071,9.66046512 166.567143,10.2418605 166.567143,15.3488372 L170.114286,15.7255814 C170.156071,12.6093023 171.9575,12.5302326 174.46,12.5302326 C178.025714,12.5302326 178.601429,14.0232558 178.601429,17.0511628 L178.601429,19.2511628 L173.067143,19.7069767 C168.1225,20.1162791 165.568929,22.0511628 165.568929,26.1534884 C165.568929,28.2465116 166.228214,31.7488372 171.3725,31.7488372 C174.534286,31.7488372 176.8325,30.4093023 178.805714,28.5767442 L178.926429,28.6139535 L179.293214,31.3116279 L185.027143,31.3116279 Z M178.601429,25.7023256 C177.329286,26.8930233 174.738571,28.8604651 172.319643,28.8604651 C170.388214,28.8604651 169.445714,27.9581395 169.445714,25.744186 C169.445714,23.6139535 170.43,22.5860465 173.958571,22.2604651 L178.601429,21.8465116 L178.601429,25.7023256 Z" id="Fill-7"></path>
                        <g id="Group-11" transform="translate(0.000000, 5.116279)">
                            <path d="M199.401429,34.8837209 L199.401429,32.7488372 L195.413214,32.344186 L205.404643,8.10697674 C205.608929,7.65116279 205.938571,7.48837209 206.435357,7.40465116 L207.832857,7.20465116 L207.832857,5.03255814 L199.689286,5.03255814 L199.238929,7.20465116 L202.033929,7.53023256 L196.318571,21.4511628 L190.849286,7.53023256 L193.560714,7.20465116 L193.560714,5.03255814 L185.050357,5.03255814 L184.558214,7.20465116 L186.243571,7.61395349 C186.735714,7.73488372 186.902857,7.81860465 187.107143,8.31627907 L194.507857,25.9674419 L192.121429,31.4744186 C191.875357,32.055814 191.712857,32.3069767 191.220714,32.344186 L188.258571,32.7116279 L188.258571,34.8837209 L199.401429,34.8837209" id="Fill-8"></path>
                            <path d="M19.5696429,0.688372093 C21.8214286,1.17209302 24.3842857,2.13488372 26.5896429,4.33488372 C27.3,5.0372093 27.9175,6.00465116 28.1821429,6.74883721 C28.3121429,7.05581395 28.3121429,7.53953488 28.535,7.84651163 C28.8878571,8.37674419 29.5053571,8.81395349 29.9464286,9.38604651 C30.5221429,10 30.875,10.6604651 31.1860714,11.3627907 C31.3160714,11.5813953 31.3625,11.8883721 31.4925,12.1534884 C31.6689286,12.5023256 31.98,14.172093 31.98,14.7906977 C31.98,16.0651163 31.5389286,17.6465116 30.9632143,18.8744186 C30.9632143,18.9209302 31.0096429,18.9209302 31.0096429,19.0511628 L31.0096429,20.1488372 C30.5221429,26.9162791 22.3507143,31.7906977 17.225,31.7906977 C16.6075,31.7906977 14.8432143,31.7023256 14.8432143,30.4744186 C14.8432143,30.3395349 14.9314286,29.944186 15.0196429,29.6372093 C14.0446429,29.772093 12.1457143,30.1209302 11.0407143,30.1209302 C10.205,30.1209302 6.36071429,30.0790698 6.36071429,28.0139535 C6.36071429,26.0790698 9.80571429,25.9488372 10.4696429,25.9488372 C12.3221429,25.9488372 14.2675,26.4744186 16.1664286,27.3534884 C15.8553571,27.4418605 15.2842857,27.6186047 15.1960714,27.6186047 C15.0614286,27.6186047 14.885,27.4837209 14.7085714,27.4418605 C13.4735714,27 12.0575,26.7395349 10.7760714,26.7395349 C10.0285714,26.7395349 9.89392857,26.6930233 9.01178571,26.9162791 C8.92357143,26.9162791 7.3775,27.3116279 7.3775,27.9255814 C7.3775,28.3627907 8.6125,28.627907 8.87714286,28.6697674 C9.40642857,28.7581395 10.5114286,28.8465116 10.5996429,28.8465116 C18.4646429,28.8465116 30.6567857,22.344186 30.6567857,14.5674419 C30.6567857,13.1209302 29.9928571,11.055814 28.665,9.73488372 C28.5767857,10.3069767 28.4467857,10.9209302 28.2239286,11.5395349 C28.0939286,11.9348837 27.7410714,12.6372093 27.7410714,12.7255814 C27.7410714,12.7255814 29.9464286,15.1395349 29.9464286,15.6697674 C29.9464286,15.9767442 29.4635714,17.3348837 29.4635714,17.3813953 C29.0225,16.1953488 28.4003571,15.0093023 27.1653571,13.8232558 C26.9889286,14 26.8125,14.2604651 26.6360714,14.4837209 C26.4132143,14.7906977 26.1485714,15.0976744 25.8839286,15.4046512 C25.3082143,16.0651163 23.985,17.2046512 23.985,17.3348837 C23.985,17.3348837 25.5728571,18.9209302 26.1067857,20.7627907 C26.195,21.027907 26.325,21.5534884 26.325,21.6418605 C26.325,21.9069767 25.4428571,22.4790698 25.4428571,22.5209302 C25.3964286,21.027907 24.7789286,19.4465116 23.1446429,17.9534884 C21.2457143,19.3581395 19.2585714,20.5023256 17.3596429,21.4232558 C18.5064286,22.3906977 19.1703571,23.7953488 19.1703571,24.8046512 C19.1703571,25.2883721 18.9057143,26.344186 18.6828571,26.4744186 C18.4182143,26.6511628 18.1117857,26.7395349 17.8007143,26.827907 C18.1535714,26.3860465 18.4646429,25.3767442 18.4646429,24.9395349 C18.4646429,24.1488372 17.9353571,22.9162791 17.0485714,22.255814 C16.8303571,22.1255814 16.5192857,21.8186047 16.4310714,21.8186047 C16.3010714,21.8186047 15.1960714,22.3023256 14.5785714,22.5209302 C13.8682143,22.7860465 13.1207143,23.0046512 12.3685714,23.2232558 C10.1167857,23.8837209 7.995,24.2790698 5.83142857,24.2790698 C4.99107143,24.2790698 1.32321429,24.1906977 1.32321429,22.2139535 C1.32321429,19.2697674 8.12964286,19.0046512 9.05357143,19.0046512 C11.0871429,19.0046512 13.0325,19.227907 15.1078571,20.1488372 C14.7085714,20.2790698 13.9564286,20.5860465 13.8682143,20.5860465 C13.7382143,20.5860465 11.44,19.9302326 9.36464286,19.9302326 C8.43607143,19.9302326 7.28928571,20.0186047 6.40714286,20.1906977 C5.69678571,20.3255814 4.99107143,20.5023256 4.37357143,20.7627907 C4.15071429,20.8093023 2.51642857,21.5116279 2.51642857,22.1255814 C2.51642857,22.2139535 2.78107143,22.3906977 2.9575,22.4790698 C3.84428571,22.9162791 4.63821429,22.8744186 5.52035714,22.8744186 C13.8682143,22.8744186 26.6778571,16.3255814 27.43,9.51627907 L27.43,8.41860465 C27.0307143,3.98139535 20.1407143,1.1255814 16.7839286,1.1255814 C16.6957143,1.1255814 16.1246429,1.17209302 15.7671429,1.25581395 C15.99,1.34418605 16.2546429,1.34418605 16.4775,1.43255814 C16.6539286,1.47906977 16.8721429,1.56744186 17.095,1.65116279 C17.4478571,1.78604651 18.0653571,2.09302326 18.4646429,2.44186047 C18.7710714,2.70697674 18.9475,3.10232558 19.2585714,3.32093023 C19.4814286,3.54418605 19.9225,3.49767442 20.2753571,3.63255814 C21.4221429,3.98139535 22.8382143,4.50697674 24.0314286,5.0372093 C24.5142857,5.29767442 25.1317857,5.5627907 25.6657143,5.86976744 C25.8421429,6.00465116 25.9721429,6.26511628 26.1067857,6.48372093 C26.325,6.8372093 26.5896429,7.40930233 26.6778571,7.89302326 C24.3842857,6.17674419 22.0860714,5.29767442 19.7878571,4.55348837 L19.6578571,4.55348837 C19.7460714,5.73953488 19.2585714,6.9255814 18.4182143,8.11162791 C20.9392857,8.77209302 23.5857143,9.73488372 26.195,11.5395349 C26.0603571,11.8465116 25.8839286,12.1953488 25.6657143,12.5023256 C24.5607143,11.7116279 23.3675,11.0976744 22.2625,10.572093 C21.9978571,10.4418605 18.2882143,9.07906977 17.7125,9.07906977 C17.5778571,9.07906977 16.6957143,9.95813953 16.2128571,10.3534884 C15.0196429,11.3162791 13.8264286,12.0651163 12.6332143,12.7674419 C15.8553571,13.2093023 19.0821429,13.9116279 22.3042857,16.0186047 C22.0860714,16.2372093 21.5985714,16.6790698 21.4685714,16.6790698 C21.3803571,16.6790698 20.54,16.0651163 20.0525,15.8418605 C17.8007143,14.744186 13.5153571,13.6930233 10.9107143,13.6930233 C10.6878571,13.6930233 8.12964286,14.7906977 7.5075,14.9627907 C5.69678571,15.4930233 3.70964286,16.1488372 1.85714286,16.1488372 C1.235,16.1488372 0,16.1069767 0,15.0976744 C0,13.1209302 7.02464286,12.6372093 7.5075,12.6372093 L9.05357143,12.6372093 C7.94857143,13.0744186 6.62535714,13.5581395 5.56678571,13.8232558 C4.55,14.0883721 3.49142857,14.2604651 2.51642857,14.5674419 C2.34,14.6139535 2.16357143,14.744186 1.98714286,14.8325581 C1.98714286,14.8325581 1.94535714,14.8790698 2.07535714,14.8790698 C2.16357143,14.8790698 3.62142857,14.655814 4.41535714,14.4837209 C8.43607143,13.5162791 12.7632143,11.9348837 16.7421429,8.28837209 C17.7125,7.3627907 18.4182143,6.22325581 18.6410714,5.21395349 L18.6410714,4.33488372 C18.5064286,3.36744186 17.095,2.35813953 16.2128571,2.09302326 C15.6371429,1.91627907 14.5321429,1.69767442 14.4021429,1.69767442 C14.1792857,1.69767442 13.8682143,1.82790698 13.65,2.18139535 C15.0614286,2.48837209 16.6957143,2.18139535 17.9353571,3.93953488 C17.9353571,3.93953488 17.9771429,3.98139535 17.9353571,4.06976744 C17.5778571,3.93953488 13.2507143,2.9255814 12.545,2.9255814 C12.2803571,2.9255814 10.205,4.37674419 9.7175,4.68372093 C8.39428571,5.4744186 7.02464286,6.22325581 5.69678571,6.87906977 L10.2467857,6.9255814 C12.2339286,7.05581395 14.4903571,7.32093023 16.5192857,7.71627907 C16.4310714,7.75813953 15.6371429,8.59534884 15.4607143,8.59534884 C15.3725,8.59534884 13.9564286,8.33023256 13.2507143,8.24186047 C11.9692857,8.06511628 10.6460714,8.02325581 9.31821429,7.93488372 L3.57964286,8.06511628 C3.26857143,8.02325581 2.65107143,7.98139535 2.65107143,7.45116279 C2.65107143,7.05581395 3.13392857,6.79534884 3.49142857,6.66046512 C3.75607143,6.57209302 4.0625,6.4 4.32714286,6.31162791 C7.15464286,5.1255814 10.0703571,3.54418605 12.9442857,1.73953488 C12.8560714,1.69767442 12.675,1.69767442 12.5867857,1.69767442 C12.4567857,1.69767442 12.1039286,1.73953488 11.8392857,1.82790698 C11.8810714,1.8744186 11.9275,1.8744186 11.9692857,1.8744186 C11.5746429,2.09302326 10.9107143,2.53023256 10.7760714,2.53023256 C10.4696429,2.53023256 10.0285714,2.13488372 10.0285714,1.8744186 C10.0285714,1.08372093 11.8392857,1.0372093 11.9692857,1.0372093 C13.78,0.995348837 13.9146429,1.08372093 14.0446429,1.08372093 C14.1328571,1.08372093 14.885,0.688372093 15.3725,0.6 C16.0782143,0.423255814 16.4310714,0.423255814 17.095,0.423255814 C17.8471429,0.423255814 18.7292857,0.511627907 19.5696429,0.688372093 Z M16.8721429,30.7813953 C16.7421429,30.7813953 15.6371429,30.7813953 15.6371429,30.3860465 C15.6371429,30.1674419 15.99,29.4604651 16.3010714,29.3767442 C16.9603571,29.1116279 18.3764286,28.7581395 18.4646429,28.7581395 C18.5946429,28.7581395 19.7460714,28.8930233 19.8760714,28.8930233 C19.9642857,28.8930233 20.8046429,28.8465116 21.2921429,28.7162791 C21.8632143,28.5813953 22.5735714,28.3209302 23.2328571,27.9255814 C23.8967857,27.5302326 24.8671429,26.6930233 25.3082143,25.9906977 C25.5728571,25.5953488 25.7075,25.0697674 26.0185714,24.7162791 C26.4132143,24.1906977 27.1653571,23.7488372 27.7828571,23.1813953 C28.4003571,22.5627907 29.0225,21.9069767 29.5935714,21.2046512 C28.4003571,26.7395349 21.1575,30.7813953 16.8721429,30.7813953 Z M20.0107143,28.144186 C21.2921429,27.572093 22.7035714,26.8697674 24.0732143,26.0372093 C22.75,27.5302326 21.3339286,27.9255814 20.0107143,28.144186 Z" id="Fill-10"></path>
                        </g>
                    </g>
                </g>
            </g>
        </g>
    </g>
</svg>