<?xml version="1.0" encoding="UTF-8"?>
<svg width="226px" height="50px" viewBox="0 0 226 50" version="1.1" xmlns="http://www.w3.org/2000/svg" xmlns:xlink="http://www.w3.org/1999/xlink">
    <!-- Generator: Sketch 50.2 (55047) - http://www.bohemiancoding.com/sketch -->
    <title>Automobilwoche_BW</title>
    <desc>Created with Sketch.</desc>
    <defs></defs>
    <g id="Page-3" stroke="none" stroke-width="1" fill="none" fill-rule="evenodd">
        <g id="wunder_landingpage_desktop_03" transform="translate(-927.000000, -3855.000000)" fill="#B2B2B2">
            <g id="Group-5" transform="translate(327.000000, 3830.000000)">
                <g id="Logo-3" transform="translate(563.000000, 0.000000)">
                    <g id="Automobilwoche_BW" transform="translate(37.000000, 25.000000)">
                        <g id="Group-13" fill-rule="nonzero">
                            <path d="M18.9165746,25.96875 C17.2621547,26.03125 15.6077348,26.0625 13.9533149,26.15625 L13.7348066,26 C13.3290055,23.5625 12.6422652,20.65625 12.0179558,18.25 C10.9566298,18.25 9.83287293,18.21875 8.77154696,18.21875 C7.67900552,18.21875 6.58646409,18.25 5.49392265,18.25 C4.68232044,20.75 4.08922652,23.3125 3.4961326,25.875 L3.30883978,26.0625 C2.55966851,26.0625 1.81049724,26.0625 1.06132597,26.0625 L0.936464088,25.78125 C1.71685083,23.59375 2.40359116,21.34375 3.12154696,19.125 C4.86961326,13.75 6.49281768,8.3125 8.14723757,2.84375 L8.36574586,2.6875 L12.7983425,2.6875 L13.0168508,2.84375 C14.9834254,10.5 16.95,18.15625 19.1350829,25.71875 L18.9165746,25.96875 Z M9.05248619,6.15625 L6.02458564,16.34375 C6.99226519,16.34375 8.02237569,16.375 8.99005525,16.375 L9.77044199,16.375 C10.3635359,16.375 10.9254144,16.375 11.5185083,16.34375 L9.05248619,6.15625 Z" id="Shape"></path>
                            <path d="M34.4618785,26.0625 L29.8732044,26.0625 L29.6859116,25.875 C29.6859116,25.34375 29.6546961,24.84375 29.6546961,24.3125 C28.2187845,25.625 26.7516575,26.46875 24.8475138,26.46875 C20.4773481,26.46875 19.9779006,23.03125 19.9779006,19.09375 C19.9779006,16.875 20.009116,14.6875 20.009116,12.46875 C20.009116,11.3125 19.9779006,10.15625 19.9154696,9 L20.1027624,8.8125 L24.8475138,8.8125 L25.0660221,9 C24.9411602,11.78125 24.9099448,14.59375 24.9099448,17.375 C24.9099448,18.4375 24.9099448,21.65625 25.2533149,22.46875 C25.6279006,23.375 26.3146409,23.8125 27.2198895,23.8125 C28.1563536,23.8125 28.9679558,23.25 29.5922652,22.5625 L29.5922652,16.84375 C29.5922652,14.21875 29.5298343,11.5625 29.4049724,8.96875 L29.6234807,8.78125 L34.3994475,8.78125 L34.5867403,9 C34.5243094,10.1875 34.4930939,11.375 34.4930939,12.5625 L34.4930939,19.8125 C34.4930939,21.84375 34.5555249,23.8125 34.6803867,25.84375 L34.4618785,26.0625 Z" id="Shape"></path>
                            <path d="M46.1052486,25.59375 L45.9179558,25.78125 C44.8566298,26.15625 43.8577348,26.3125 42.7339779,26.3125 C38.6759669,26.3125 37.8955801,24.53125 37.8955801,20.25 C37.8955801,16.90625 37.9892265,13.53125 37.9892265,10.1875 C37.2712707,10.21875 36.5533149,10.21875 35.8353591,10.21875 L35.6480663,10.03125 C35.6480663,9.59375 35.6792818,9.15625 35.7104972,8.75 L35.8977901,8.53125 C36.5845304,8.53125 37.3024862,8.59375 37.9892265,8.59375 L37.9892265,7.65625 C37.9892265,6.625 37.9267956,5.5625 37.8955801,4.53125 L38.0828729,4.34375 C39.6436464,3.875 41.1732044,3.375 42.7339779,2.90625 L42.9837017,3.09375 C42.7651934,4.625 42.8276243,6.3125 42.8276243,7.84375 L42.8276243,8.53125 C43.8889503,8.53125 44.9814917,8.5 46.0428177,8.5 L46.2301105,8.71875 C46.1676796,9.1875 46.1676796,9.65625 46.1364641,10.125 L45.9179558,10.3125 C44.8878453,10.25 43.8577348,10.1875 42.8276243,10.1875 C42.7964088,10.875 42.7964088,11.59375 42.7964088,12.28125 C42.7964088,13.46875 42.609116,22.53125 43.1085635,23.5625 C43.4207182,24.15625 43.7640884,24.5 44.3883978,24.5 C44.9814917,24.5 45.5433702,24.15625 46.0116022,23.78125 L46.3237569,23.9375 C46.2301105,24.5 46.1676796,25.03125 46.1052486,25.59375 Z" id="Shape"></path>
                            <path d="M208.207182,26.0625 L203.524862,26.0625 L203.368785,25.84375 C203.368785,24.9375 203.4,24.09375 203.4,23.1875 C203.4,20.9375 203.4,18.6875 203.368785,16.40625 C203.368785,15.1875 203.431215,13.78125 203.212707,12.5625 C203.150276,12.125 202.994199,11.65625 202.71326,11.34375 C202.401105,10.96875 201.839227,10.8125 201.40221,10.8125 C200.465746,10.8125 199.560497,11.40625 198.873757,12.03125 L198.873757,15.4375 C198.873757,18.90625 199.06105,22.40625 199.06105,25.875 L198.873757,26.0625 L194.191436,26.0625 L194.004144,25.84375 C194.129006,22.46875 194.09779,19.03125 194.09779,15.65625 L194.09779,13 C194.09779,9.125 193.972928,5.25 193.785635,1.375 L193.972928,1.15625 C195.564917,0.90625 197.125691,0.59375 198.71768,0.28125 L198.936188,0.4375 C198.873757,2.125 198.842541,3.8125 198.842541,5.53125 L198.842541,10.28125 C200.247238,9.09375 201.964088,8.3125 203.74337,8.3125 C207.083425,8.3125 208.238398,10.6875 208.238398,14.125 C208.238398,14.8125 208.207182,15.5625 208.207182,16.28125 L208.207182,19.28125 C208.207182,21.46875 208.269613,23.65625 208.36326,25.84375 L208.207182,26.0625 Z" id="Shape"></path>
                            <path d="M224.720166,17.15625 C224.158287,17.1875 223.565193,17.15625 223.003315,17.15625 L215.480387,17.15625 L215.480387,17.625 C215.480387,20.78125 216.541713,24.71875 220.00663,24.71875 C221.629834,24.71875 223.03453,24.0625 224.189503,22.75 L224.501657,22.875 C224.376796,23.5625 224.283149,24.28125 224.220718,25 L224.064641,25.25 C222.503867,26.15625 220.506077,26.5 218.789227,26.5 C213.576243,26.5 210.485912,23.125 210.485912,17.40625 C210.485912,12.0625 213.295304,8.28125 218.258564,8.28125 C223.31547,8.28125 224.938674,11.84375 224.938674,16.9375 L224.720166,17.15625 Z M218.320994,9.71875 C215.948619,9.71875 215.542818,13.75 215.449171,15.65625 C216.323204,15.65625 217.134807,15.6875 218.00884,15.6875 C218.914088,15.6875 219.756906,15.65625 220.662155,15.65625 C220.662155,13.9375 220.568508,9.71875 218.320994,9.71875 Z" id="Shape"></path>
                            <path d="M54.1588398,26.53125 C49.0082873,26.53125 46.0740331,22.96875 46.0740331,17.375 C46.0740331,11.40625 49.5077348,8.3125 54.6895028,8.3125 C59.9961326,8.3125 62.3372928,11.9375 62.3372928,17.53125 C62.3685083,23.21875 59.3718232,26.53125 54.1588398,26.53125 Z M54.2212707,9.78125 C51.318232,9.78125 51.1621547,14.375 51.1621547,16.65625 C51.1621547,19.21875 51.1309392,25.0625 54.4085635,25.0625 C57.498895,25.0625 57.3116022,19.46875 57.3116022,17.1875 C57.3428177,14.78125 57.2803867,9.78125 54.2212707,9.78125 Z" id="Shape"></path>
                            <path d="M87.5593923,26.0625 L82.8146409,26.0625 L82.5961326,25.875 C82.6585635,24.8125 82.6585635,23.78125 82.6585635,22.71875 C82.6585635,20.75 82.9395028,13.21875 82.0030387,11.75 C81.628453,11.15625 81.0665746,10.84375 80.4110497,10.84375 C79.5370166,10.84375 78.7566298,11.34375 78.101105,11.9375 C78.3820442,13.96875 78.3196133,16.0625 78.3196133,18.09375 C78.3196133,20.6875 78.3508287,23.21875 78.4444751,25.8125 L78.2571823,26.03125 L73.5124309,26.03125 L73.3251381,25.84375 C73.3251381,23.875 73.3875691,21.96875 73.3875691,20 C73.3875691,18.1875 73.5124309,15.125 73.2627072,13.40625 C73.0754144,12.1875 72.6696133,11 71.3585635,11 C70.4220994,11 69.7353591,11.5625 69.0174033,12.125 C69.0174033,14.34375 69.0486188,16.53125 69.0486188,18.75 C69.0486188,21.09375 69.0174033,23.5 69.1734807,25.84375 L68.9549724,26.03125 L64.2414365,26.03125 L64.0541436,25.84375 C64.1165746,24.0625 64.1477901,22.21875 64.1477901,20.4375 L64.1477901,18.3125 C64.1477901,15.40625 64.1165746,12.34375 63.8356354,9.46875 L64.0229282,9.25 C65.6461326,9.03125 67.269337,8.71875 68.861326,8.375 L69.0486188,8.5625 C69.0486188,9.1875 69.0486188,9.78125 69.0174033,10.40625 C70.7030387,9.125 72.0140884,8.25 74.1679558,8.25 C75.7287293,8.25 76.9149171,8.90625 77.7265193,10.40625 C79.1624309,9.09375 80.8792818,8.25 82.7522099,8.25 C83.5638122,8.25 84.5314917,8.40625 85.2494475,8.84375 C87.340884,10.0625 87.4657459,12.09375 87.4969613,14.40625 C87.5593923,18.125 87.7154696,22.09375 87.7154696,25.78125 L87.5593923,26.0625 Z" id="Shape"></path>
                            <path d="M97.3922652,26.53125 C92.2417127,26.53125 89.3074586,22.96875 89.3074586,17.375 C89.3074586,11.40625 92.7411602,8.3125 97.9229282,8.3125 C103.229558,8.3125 105.570718,11.9375 105.570718,17.53125 C105.570718,23.21875 102.605249,26.53125 97.3922652,26.53125 Z M97.4546961,9.78125 C94.5516575,9.78125 94.3955801,14.375 94.3955801,16.65625 C94.3955801,19.21875 94.3643646,25.0625 97.641989,25.0625 C100.73232,25.0625 100.545028,19.46875 100.545028,17.1875 C100.545028,14.78125 100.482597,9.78125 97.4546961,9.78125 Z" id="Shape"></path>
                            <path d="M120.554144,22.78125 C118.119337,26.09375 114.591989,26.0625 111.064641,26.0625 L107.35,26.0625 L107.162707,25.875 C107.318785,21.75 107.256354,17.5625 107.256354,13.375 C107.256354,9.40625 107.256354,5.40625 106.975414,1.40625 L107.162707,1.1875 C108.785912,0.875 110.346685,0.59375 111.96989,0.25 L112.219613,0.4375 C112.219613,3.65625 112.157182,6.875 112.063536,10.0625 C113.530663,9.03125 115.153867,8.28125 116.933149,8.28125 C120.835083,8.28125 122.551934,12.15625 122.551934,16 C122.520718,18.40625 121.95884,20.9375 120.554144,22.78125 Z M114.279834,10.84375 C113.468232,10.84375 112.719061,11.3125 112.063536,11.78125 C112.063536,12.6875 112.03232,13.59375 112.03232,14.5 C112.03232,17.8125 112.125967,21.15625 112.125967,24.46875 C112.438122,24.5 112.687845,24.5 113,24.5 C116.589779,24.5 117.401381,20.25 117.401381,17.03125 C117.401381,14.71875 116.99558,10.84375 114.279834,10.84375 Z" id="Shape"></path>
                            <path d="M129.169613,26.0625 L124.237569,26.0625 L124.050276,25.875 C124.206354,23.21875 124.206354,20.46875 124.206354,17.8125 C124.206354,15.03125 124.175138,12.1875 123.925414,9.40625 L124.112707,9.21875 C125.735912,9 127.390331,8.71875 129.013536,8.4375 L129.232044,8.59375 C129.232044,11.25 129.138398,13.875 129.138398,16.5 C129.138398,19.625 129.325691,22.75 129.325691,25.875 L129.169613,26.0625 Z M126.703591,6.46875 C125.142818,6.46875 124.3,5.28125 124.3,3.59375 C124.3,1.96875 125.205249,0.6875 126.703591,0.6875 C128.170718,0.6875 129.107182,2 129.107182,3.5625 C129.138398,5.125 128.170718,6.46875 126.703591,6.46875 Z" id="Shape"></path>
                            <path d="M136.786188,26.0625 L131.979006,26.0625 L131.760497,25.875 C131.760497,22.6875 131.854144,19.5625 131.854144,16.375 L131.854144,11.75 C131.854144,8.3125 131.760497,4.8125 131.573204,1.375 L131.791713,1.15625 C133.383702,0.90625 134.944475,0.59375 136.536464,0.25 L136.754972,0.4375 C136.692541,1.75 136.692541,3.09375 136.692541,4.4375 C136.692541,11.53125 136.598895,18.75 137.004696,25.84375 L136.786188,26.0625 Z" id="Shape"></path>
                            <path d="M158.231215,20.84375 C157.762983,22.5 157.325967,24.21875 156.857735,25.875 L156.639227,26.03125 L153.111878,26.03125 L152.924586,25.84375 C151.956906,21.625 150.770718,17.46875 149.803039,13.25 C148.398343,17.34375 147.430663,21.65625 146.338122,25.875 L146.119613,26.03125 L142.56105,26.03125 L142.311326,25.875 C141.499724,22.9375 140.781768,19.96875 139.970166,17.03125 C139.220994,14.375 138.409392,11.71875 137.660221,9.09375 L137.847514,8.875 C139.439503,8.84375 140.969061,8.8125 142.56105,8.71875 L142.779558,8.90625 C143.809669,13.0625 144.590055,17.21875 145.745028,21.28125 C146.837569,17.1875 147.86768,13 149.053867,8.9375 L149.272376,8.78125 L153.111878,8.78125 L153.330387,8.96875 C154.173204,13.15625 155.172099,17.25 156.295856,21.34375 C157.544475,17.25 158.574586,13.21875 159.323757,8.96875 L159.542265,8.78125 C159.85442,8.78125 160.19779,8.8125 160.509945,8.8125 C160.853315,8.8125 161.259116,8.78125 161.602486,8.78125 L161.758564,9.03125 C160.603591,12.96875 159.354972,16.875 158.231215,20.84375 Z" id="Shape"></path>
                            <path d="M169.687293,26.53125 C164.53674,26.53125 161.602486,22.96875 161.602486,17.375 C161.602486,11.40625 165.036188,8.3125 170.217956,8.3125 C175.524586,8.3125 177.865746,11.9375 177.865746,17.53125 C177.896961,23.21875 174.900276,26.53125 169.687293,26.53125 Z M169.749724,9.78125 C166.846685,9.78125 166.690608,14.375 166.690608,16.65625 C166.690608,19.21875 166.659392,25.0625 169.937017,25.0625 C173.027348,25.0625 172.840055,19.46875 172.840055,17.1875 C172.840055,14.78125 172.777624,9.78125 169.749724,9.78125 Z" id="Shape"></path>
                            <path d="M191.75663,11.75 L191.506906,11.8125 C190.632873,10.75 189.790055,9.96875 188.416575,9.96875 C184.79558,9.96875 184.202486,14.6875 184.202486,17.78125 C184.202486,20.625 184.982873,24.71875 188.229282,24.71875 C189.665193,24.71875 190.757735,24.03125 191.694199,22.875 L191.943923,22.96875 C191.819061,23.71875 191.725414,24.5 191.631768,25.25 L191.475691,25.46875 C190.008564,26.3125 188.635083,26.53125 187.043094,26.53125 C182.048619,26.53125 179.270442,23.25 179.270442,17.75 C179.270442,12.09375 182.516851,8.34375 187.636188,8.34375 C188.978453,8.34375 190.726519,8.59375 191.881492,9.375 L192.037569,9.6875 C191.912707,10.34375 191.850276,11.0625 191.75663,11.75 Z" id="Shape"></path>
                        </g>
                        <polygon id="Shape" points="0.124861878 33.09375 225.750276 33.09375 225.750276 37.78125 0.124861878 37.78125"></polygon>
                        <g id="Group" transform="translate(29.342541, 44.375000)" fill-rule="nonzero">
                            <g id="Group-12">
                                <path d="M4.27651934,4.21875 C3.80828729,4.84375 3.09033149,5.25 1.84171271,5.25 C1.37348066,5.25 0.81160221,5.25 0.218508287,5.25 L0.218508287,0.15625 C0.749171271,0.15625 1.09254144,0.15625 1.56077348,0.15625 C2.65331492,0.15625 3.62099448,0.34375 4.24530387,1.0625 C4.6198895,1.5 4.77596685,2 4.77596685,2.59375 C4.80718232,3.09375 4.65110497,3.6875 4.27651934,4.21875 Z M3.80828729,1.34375 C3.34005525,0.78125 2.65331492,0.59375 1.52955801,0.59375 C1.24861878,0.59375 1.0301105,0.59375 0.749171271,0.59375 L0.749171271,4.75 C1.15497238,4.75 1.46712707,4.75 1.87292818,4.75 C2.90303867,4.75 3.46491713,4.4375 3.87071823,3.90625 C4.15165746,3.53125 4.24530387,3.0625 4.24530387,2.625 C4.24530387,2.1875 4.15165746,1.71875 3.80828729,1.34375 Z" id="Shape"></path>
                                <polygon id="Shape" points="6.24309392 5.21875 6.24309392 0.125 6.77375691 0.125 6.77375691 5.21875"></polygon>
                                <polygon id="Shape" points="11.2375691 5.21875 8.45939227 5.21875 8.45939227 0.125 11.1439227 0.125 11.1439227 0.59375 9.02127072 0.59375 9.02127072 2.40625 10.9878453 2.40625 10.9878453 2.84375 9.02127072 2.84375 9.02127072 4.75 11.3 4.75"></polygon>
                                <path d="M17.6991713,4.9375 C17.418232,5.09375 16.9812155,5.1875 16.2944751,5.1875 L15.2331492,5.1875 L15.2331492,0.09375 L16.0135359,0.09375 C16.5441989,0.09375 16.9187845,0.15625 17.1997238,0.28125 C17.6991713,0.46875 18.0425414,0.875 18.0425414,1.4375 C18.0425414,1.96875 17.6991713,2.40625 17.1685083,2.53125 C17.9801105,2.65625 18.4171271,3.21875 18.4171271,3.8125 C18.3859116,4.3125 18.1049724,4.71875 17.6991713,4.9375 Z M17.1685083,0.8125 C16.8875691,0.5625 16.481768,0.53125 16.1071823,0.53125 L15.7638122,0.53125 L15.7638122,2.375 L16.2008287,2.375 C16.5441989,2.375 16.7939227,2.375 17.0124309,2.25 C17.2933702,2.09375 17.480663,1.8125 17.480663,1.46875 C17.480663,1.15625 17.3245856,0.9375 17.1685083,0.8125 Z M16.2632597,2.78125 L15.7638122,2.78125 L15.7638122,4.78125 L16.3256906,4.78125 C16.6378453,4.78125 16.95,4.78125 17.2309392,4.65625 C17.5430939,4.53125 17.8240331,4.28125 17.8240331,3.84375 C17.8240331,3.21875 17.2621547,2.78125 16.2632597,2.78125 Z" id="Shape"></path>
                                <path d="M23.9734807,5.21875 C23.2555249,5.1875 22.9121547,5.03125 22.1941989,4.09375 L21.5074586,3.15625 L20.4461326,3.15625 L20.4461326,5.1875 L19.9154696,5.1875 L19.9154696,0.09375 L20.8831492,0.09375 C21.6635359,0.09375 22.131768,0.25 22.5063536,0.5625 C22.7872928,0.84375 22.9433702,1.1875 22.9433702,1.59375 C22.9433702,2.125 22.7248619,2.65625 22.069337,2.96875 L22.6936464,3.8125 C23.2555249,4.53125 23.6301105,4.71875 24.0359116,4.8125 L23.9734807,5.21875 Z M22.069337,0.90625 C21.7883978,0.65625 21.4138122,0.5625 20.8831492,0.5625 L20.4773481,0.5625 L20.4773481,2.71875 C20.4773481,2.71875 20.9143646,2.71875 21.3201657,2.71875 C21.601105,2.71875 21.8820442,2.65625 22.131768,2.375 C22.3190608,2.1875 22.4127072,1.96875 22.4127072,1.625 C22.3814917,1.40625 22.2878453,1.09375 22.069337,0.90625 Z" id="Shape"></path>
                                <path d="M28.6245856,5.21875 L28.0314917,3.65625 L25.8776243,3.65625 L25.3469613,5.21875 L24.8162983,5.21875 L26.658011,0.125 L27.251105,0.125 L29.2176796,5.21875 L28.6245856,5.21875 Z M27.1262431,1.28125 C26.9701657,0.875 26.9077348,0.6875 26.9077348,0.65625 C26.9077348,0.65625 26.8453039,0.84375 26.6892265,1.28125 L26.0024862,3.1875 L27.8441989,3.1875 L27.1262431,1.28125 Z" id="Shape"></path>
                                <path d="M34.7428177,5.21875 L34.1809392,5.21875 L30.9657459,0.875 C30.9657459,1.0625 30.9657459,1.375 30.9657459,1.71875 L30.9657459,5.21875 L30.4662983,5.21875 L30.4662983,0.125 L31.0281768,0.125 L34.2121547,4.40625 C34.2121547,4.25 34.2121547,4 34.2121547,3.65625 L34.2121547,0.125 L34.7116022,0.125 L34.7116022,5.21875 L34.7428177,5.21875 Z" id="Shape"></path>
                                <path d="M40.6737569,4.875 C40.080663,5.15625 39.4875691,5.28125 38.9256906,5.28125 C38.2389503,5.28125 37.6458564,5.15625 37.1464088,4.78125 C36.5220994,4.34375 36.1475138,3.5625 36.1475138,2.6875 C36.1475138,1.625 36.5845304,0.9375 37.1464088,0.53125 C37.6146409,0.1875 38.2077348,0.03125 38.9256906,0.03125 C39.4563536,0.03125 39.9558011,0.125 40.548895,0.34375 L40.5176796,0.8125 C39.8933702,0.59375 39.4251381,0.5 38.9256906,0.5 C38.3325967,0.5 37.8331492,0.625 37.489779,0.9375 C36.9903315,1.3125 36.7406077,1.875 36.7406077,2.65625 C36.7406077,3.8125 37.5209945,4.8125 38.9881215,4.8125 C39.4251381,4.8125 40.0494475,4.71875 40.7361878,4.375 L40.6737569,4.875 Z" id="Shape"></path>
                                <polygon id="Shape" points="45.668232 5.21875 45.668232 2.875 42.7964088 2.875 42.7964088 5.21875 42.2657459 5.21875 42.2657459 0.125 42.7964088 0.125 42.7964088 2.4375 45.668232 2.4375 45.668232 0.125 46.198895 0.125 46.198895 5.21875"></polygon>
                                <polygon id="Shape" points="50.6627072 5.21875 47.8845304 5.21875 47.8845304 0.125 50.5690608 0.125 50.5690608 0.59375 48.4464088 0.59375 48.4464088 2.40625 50.4129834 2.40625 50.4129834 2.84375 48.4464088 2.84375 48.4464088 4.75 50.7251381 4.75"></polygon>
                                <path d="M56.5312155,5.21875 L55.969337,5.21875 L52.7541436,0.875 C52.7541436,1.0625 52.7541436,1.375 52.7541436,1.71875 L52.7541436,5.21875 L52.2546961,5.21875 L52.2546961,0.125 L52.8165746,0.125 L56.0005525,4.40625 C56.0005525,4.25 56.0005525,4 56.0005525,3.65625 L56.0005525,0.125 L56.5,0.125 L56.5,5.21875 L56.5312155,5.21875 Z" id="Shape"></path>
                                <polygon id="Shape" points="57.5925414 3.4375 57.5925414 3.03125 59.4654696 3.03125 59.4654696 3.4375"></polygon>
                                <path d="M66.8635359,2.78125 C66.8635359,3.6875 66.7698895,4.1875 66.4265193,4.625 C66.1455801,5 65.6149171,5.3125 64.8345304,5.3125 C64.0541436,5.3125 63.5546961,5.0625 63.211326,4.625 C62.8991713,4.21875 62.8367403,3.6875 62.8367403,2.78125 L62.8367403,0.15625 L63.3674033,0.15625 L63.3674033,2.78125 C63.3674033,3.5 63.4298343,4 63.679558,4.34375 C63.9292818,4.65625 64.2726519,4.84375 64.8657459,4.84375 C65.3651934,4.84375 65.7709945,4.65625 65.9895028,4.375 C66.2392265,4.03125 66.3328729,3.625 66.3328729,2.90625 L66.3328729,0.15625 L66.8323204,0.15625 L66.8323204,2.78125 L66.8635359,2.78125 Z" id="Shape"></path>
                                <path d="M72.7320442,5.21875 L72.1701657,5.21875 L68.9549724,0.875 C68.9549724,1.0625 68.9549724,1.375 68.9549724,1.71875 L68.9549724,5.21875 L68.4555249,5.21875 L68.4555249,0.125 L69.0174033,0.125 L72.2013812,4.40625 C72.2013812,4.25 72.2013812,4 72.2013812,3.65625 L72.2013812,0.125 L72.7008287,0.125 L72.7008287,5.21875 L72.7320442,5.21875 Z" id="Shape"></path>
                                <path d="M78.4444751,4.21875 C77.9762431,4.84375 77.2582873,5.25 76.0096685,5.25 C75.5414365,5.25 74.979558,5.25 74.3864641,5.25 L74.3864641,0.15625 C74.9171271,0.15625 75.2604972,0.15625 75.7287293,0.15625 C76.8212707,0.15625 77.7889503,0.34375 78.4132597,1.0625 C78.7878453,1.5 78.9439227,2 78.9439227,2.59375 C78.9751381,3.09375 78.8190608,3.6875 78.4444751,4.21875 Z M77.9762431,1.34375 C77.508011,0.78125 76.8212707,0.59375 75.6975138,0.59375 C75.4165746,0.59375 75.1980663,0.59375 74.9171271,0.59375 L74.9171271,4.75 C75.3229282,4.75 75.6350829,4.75 76.040884,4.75 C77.0709945,4.75 77.6328729,4.4375 78.038674,3.90625 C78.3196133,3.53125 78.4132597,3.0625 78.4132597,2.625 C78.4132597,2.1875 78.3196133,1.71875 77.9762431,1.34375 Z" id="Shape"></path>
                                <polygon id="Shape" points="87.4033149 5.1875 86.7790055 5.1875 85.6552486 2.09375 84.5939227 5.1875 84.0008287 5.1875 82.1903315 0.09375 82.7522099 0.09375 84.3441989 4.625 85.4055249 1.40625 84.9372928 0.09375 85.4991713 0.09375 87.0911602 4.625 88.6207182 0.09375 89.1513812 0.09375"></polygon>
                                <polygon id="Shape" points="90.3063536 5.21875 90.3063536 0.125 90.8370166 0.125 90.8370166 5.21875"></polygon>
                                <path d="M96.580663,5.21875 C95.8627072,5.1875 95.519337,5.03125 94.8013812,4.09375 L94.1146409,3.15625 L93.0533149,3.15625 L93.0533149,5.1875 L92.5226519,5.1875 L92.5226519,0.09375 L93.4903315,0.09375 C94.2707182,0.09375 94.7389503,0.25 95.1135359,0.5625 C95.3944751,0.84375 95.5505525,1.1875 95.5505525,1.59375 C95.5505525,2.125 95.3320442,2.65625 94.6765193,2.96875 L95.3008287,3.8125 C95.8627072,4.53125 96.2372928,4.71875 96.6430939,4.8125 L96.580663,5.21875 Z M94.6765193,0.90625 C94.3955801,0.65625 94.0209945,0.5625 93.4903315,0.5625 L93.0845304,0.5625 L93.0845304,2.71875 C93.0845304,2.71875 93.521547,2.71875 93.9273481,2.71875 C94.2082873,2.71875 94.4892265,2.65625 94.7389503,2.375 C94.9262431,2.1875 95.0198895,1.96875 95.0198895,1.625 C94.988674,1.40625 94.8638122,1.09375 94.6765193,0.90625 Z" id="Shape"></path>
                                <polygon id="Shape" points="100.638674 0.5625 98.9530387 0.5625 98.9530387 5.21875 98.4223757 5.21875 98.4223757 0.5625 96.7367403 0.5625 96.7367403 0.09375 100.66989 0.09375"></polygon>
                                <path d="M102.792541,5.28125 C102.355525,5.28125 101.918508,5.21875 101.481492,5.03125 L101.481492,4.5 C102.074586,4.71875 102.417956,4.78125 102.823757,4.78125 C103.69779,4.78125 103.978729,4.3125 103.978729,3.875 C103.978729,3.53125 103.853867,3.21875 103.135912,2.875 L102.698895,2.6875 C101.887293,2.3125 101.606354,1.875 101.606354,1.34375 C101.606354,0.65625 102.168232,0.03125 103.291989,0.03125 C103.604144,0.03125 103.978729,0.0625 104.38453,0.21875 L104.353315,0.6875 C103.916298,0.53125 103.572928,0.5 103.291989,0.5 C102.511602,0.5 102.168232,0.875 102.168232,1.3125 C102.168232,1.65625 102.324309,1.9375 103.042265,2.25 L103.479282,2.4375 C104.322099,2.8125 104.571823,3.28125 104.571823,3.84375 C104.540608,4.5 104.009945,5.28125 102.792541,5.28125 Z" id="Shape"></path>
                                <path d="M110.284254,4.875 C109.69116,5.15625 109.098066,5.28125 108.536188,5.28125 C107.849448,5.28125 107.256354,5.15625 106.756906,4.78125 C106.132597,4.34375 105.758011,3.5625 105.758011,2.6875 C105.758011,1.625 106.195028,0.9375 106.756906,0.53125 C107.225138,0.1875 107.818232,0.03125 108.536188,0.03125 C109.066851,0.03125 109.566298,0.125 110.159392,0.34375 L110.128177,0.8125 C109.503867,0.59375 109.035635,0.5 108.536188,0.5 C107.943094,0.5 107.443646,0.625 107.100276,0.9375 C106.600829,1.3125 106.351105,1.875 106.351105,2.65625 C106.351105,3.8125 107.131492,4.8125 108.598619,4.8125 C109.035635,4.8125 109.659945,4.71875 110.346685,4.375 L110.284254,4.875 Z" id="Shape"></path>
                                <polygon id="Shape" points="115.309945 5.21875 115.309945 2.875 112.438122 2.875 112.438122 5.21875 111.907459 5.21875 111.907459 0.125 112.438122 0.125 112.438122 2.4375 115.309945 2.4375 115.309945 0.125 115.840608 0.125 115.840608 5.21875"></polygon>
                                <path d="M120.959945,5.21875 L120.366851,3.65625 L118.212983,3.65625 L117.68232,5.21875 L117.151657,5.21875 L118.99337,0.125 L119.586464,0.125 L121.553039,5.21875 L120.959945,5.21875 Z M119.461602,1.28125 C119.305525,0.875 119.243094,0.6875 119.243094,0.65625 C119.243094,0.65625 119.180663,0.84375 119.024586,1.28125 L118.337845,3.1875 L120.179558,3.1875 L119.461602,1.28125 Z" id="Shape"></path>
                                <polygon id="Shape" points="123.363536 0.5625 123.363536 2.5625 125.423757 2.5625 125.423757 3.03125 123.363536 3.03125 123.363536 5.21875 122.832873 5.21875 122.832873 0.125 125.517403 0.125 125.517403 0.59375 123.363536 0.59375"></polygon>
                                <polygon id="Shape" points="130.511878 0.5625 128.826243 0.5625 128.826243 5.21875 128.29558 5.21875 128.29558 0.5625 126.609945 0.5625 126.609945 0.09375 130.543094 0.09375"></polygon>
                                <path d="M132.665746,5.28125 C132.228729,5.28125 131.791713,5.21875 131.354696,5.03125 L131.354696,4.5 C131.94779,4.71875 132.29116,4.78125 132.696961,4.78125 C133.570994,4.78125 133.851934,4.3125 133.851934,3.875 C133.851934,3.53125 133.727072,3.21875 133.009116,2.875 L132.572099,2.6875 C131.760497,2.3125 131.479558,1.875 131.479558,1.34375 C131.479558,0.65625 132.041436,0.03125 133.165193,0.03125 C133.477348,0.03125 133.851934,0.0625 134.257735,0.21875 L134.226519,0.6875 C133.789503,0.53125 133.446133,0.5 133.165193,0.5 C132.384807,0.5 132.041436,0.875 132.041436,1.3125 C132.041436,1.65625 132.197514,1.9375 132.91547,2.25 L133.352486,2.4375 C134.195304,2.8125 134.445028,3.28125 134.445028,3.84375 C134.445028,4.5 133.914365,5.28125 132.665746,5.28125 Z" id="Shape"></path>
                                <polygon id="Shape" points="139.314641 5.21875 135.568785 5.21875 135.568785 4.78125 138.409392 0.59375 135.6 0.59375 135.6 0.125 139.096133 0.125 139.096133 0.5 136.224309 4.71875 139.345856 4.71875"></polygon>
                                <polygon id="Shape" points="143.497514 5.21875 140.719337 5.21875 140.719337 0.125 143.403867 0.125 143.403867 0.59375 141.281215 0.59375 141.281215 2.40625 143.24779 2.40625 143.24779 2.84375 141.281215 2.84375 141.281215 4.75 143.559945 4.75"></polygon>
                                <polygon id="Shape" points="145.120718 5.21875 145.120718 0.125 145.651381 0.125 145.651381 5.21875"></polygon>
                                <polygon id="Shape" points="150.770718 0.5625 149.085083 0.5625 149.085083 5.21875 148.55442 5.21875 148.55442 0.5625 146.868785 0.5625 146.868785 0.09375 150.801934 0.09375"></polygon>
                                <path d="M155.952486,2.78125 C155.952486,3.6875 155.85884,4.1875 155.51547,4.625 C155.23453,5 154.703867,5.3125 153.923481,5.3125 C153.143094,5.3125 152.643646,5.0625 152.300276,4.625 C151.988122,4.21875 151.925691,3.6875 151.925691,2.78125 L151.925691,0.15625 L152.456354,0.15625 L152.456354,2.78125 C152.456354,3.5 152.518785,4 152.768508,4.34375 C153.018232,4.65625 153.361602,4.84375 153.954696,4.84375 C154.454144,4.84375 154.859945,4.65625 155.078453,4.375 C155.328177,4.03125 155.421823,3.625 155.421823,2.90625 L155.421823,0.15625 L155.921271,0.15625 L155.921271,2.78125 L155.952486,2.78125 Z" id="Shape"></path>
                                <path d="M161.820994,5.21875 L161.259116,5.21875 L158.043923,0.875 C158.043923,1.0625 158.043923,1.375 158.043923,1.71875 L158.043923,5.21875 L157.544475,5.21875 L157.544475,0.125 L158.106354,0.125 L161.290331,4.40625 C161.290331,4.25 161.290331,4 161.290331,3.65625 L161.290331,0.125 L161.789779,0.125 L161.789779,5.21875 L161.820994,5.21875 Z" id="Shape"></path>
                                <path d="M166.003867,5.28125 C165.317127,5.28125 164.724033,5.15625 164.224586,4.78125 C163.600276,4.34375 163.225691,3.53125 163.225691,2.625 C163.225691,1.59375 163.631492,0.9375 164.162155,0.53125 C164.630387,0.1875 165.223481,0 166.035083,0 C166.565746,0 167.15884,0.09375 167.627072,0.28125 L167.595856,0.78125 C167.065193,0.5625 166.472099,0.5 166.003867,0.5 C165.348343,0.5 164.81768,0.65625 164.474309,0.9375 C164.037293,1.3125 163.787569,1.84375 163.787569,2.5625 C163.787569,3.78125 164.53674,4.75 166.066298,4.75 C166.378453,4.75 166.784254,4.6875 167.221271,4.59375 L167.221271,2.84375 L167.751934,2.84375 L167.751934,4.34375 C167.751934,4.625 167.751934,4.9375 167.751934,4.9375 C167.15884,5.1875 166.565746,5.28125 166.003867,5.28125 Z" id="Shape"></path>
                            </g>
                        </g>
                    </g>
                </g>
            </g>
        </g>
    </g>
</svg>