<?xml version="1.0" encoding="utf-8"?>
<!-- Generator: Adobe Illustrator 22.1.0, SVG Export Plug-In . SVG Version: 6.00 Build 0)  -->
<svg version="1.1" id="Ebene_1" xmlns="http://www.w3.org/2000/svg" xmlns:xlink="http://www.w3.org/1999/xlink" x="0px" y="0px"
	 width="144.2px" height="20.7px" viewBox="0 0 144.2 20.7" style="enable-background:new 0 0 144.2 20.7;" xml:space="preserve">
<style type="text/css">
	.st0{clip-path:url(#SVGID_2_);}
	.st1{clip-path:url(#SVGID_4_);fill:#334146;}
</style>
<title>Group</title>
<desc>Created with Sketch.</desc>
<g>
	<defs>
		<path id="SVGID_1_" d="M120.3,7.9h3.4v1.2h0c0.6-0.9,1.5-1.4,2.5-1.4h0v3.6c-0.3,0-0.6,0-0.7,0c-1.3,0-1.9,0.7-1.9,1.8v4h-3.3V7.9
			z M112.9,11.5c0.1-0.7,0.7-1.3,1.5-1.2c0.7,0,1.2,0.4,1.4,1.2H112.9z M119,12.4c0-2.7-2-4.7-4.6-4.7c-2.8,0-4.8,2-4.8,4.8
			c0,2.8,2.1,4.8,4.8,4.8c2.1,0,3.5-0.7,4.3-1.6l-1.8-2c-0.5,0.6-1.3,0.9-2.1,1c-1,0-1.8-0.4-1.9-1.3h6C118.9,13,119,12.7,119,12.4
			L119,12.4z M103.4,14.4c-0.9,0-1.6-0.7-1.6-1.8s0.7-1.8,1.6-1.8s1.7,0.7,1.7,1.8S104.4,14.4,103.4,14.4z M105,3.3v5.5l0,0
			c-0.6-0.7-1.5-1.1-2.5-1.1c-2.3,0-4.1,1.9-4.1,4.8s1.7,4.8,4.3,4.8c1,0,1.9-0.3,2.4-1h0v0.8h3.2V3.3H105z M88,7.9h3.4v1h0
			C92,8.1,93,7.7,94,7.7c1.9,0,3.3,0.8,3.3,3.8v5.5h-3.4v-4.7c0-1.3-0.4-1.7-1.2-1.7c-0.8,0-1.3,0.5-1.3,1.8v4.6H88V7.9z M77.4,13.3
			V7.9h3.3v4.6c0,1.3,0.4,1.8,1.2,1.8c0.7,0,1.3-0.6,1.3-1.8V7.9h3.4v9.2h-3.4v-1l0,0c-0.6,0.8-1.5,1.2-2.5,1.2
			C78.8,17.3,77.4,16.3,77.4,13.3z M58.7,3.8h3.8l1.9,7.4h0.1l1.8-7.4H70l1.7,7.4h0.1l1.9-7.4h3.8l-4.1,13.3h-3.2l-2-8.1h0l-2.1,8.1
			h-3.2L58.7,3.8z M46.9,1.9c-2.1-2.1-5.5-2.1-7.6,0l-5.7,5.7l-5.7-5.7c-2.1-2.1-5.5-2.1-7.6,0c-2.1,2.1-2.1,5.5,0,7.5l9.4,9.3
			c2.2,2.1,5.6,2.1,7.8,0l9.4-9.3C49,7.3,49,3.9,46.9,1.9z M18.7,18.7c2.1-2.1,2.1-5.5,0-7.5L9.3,1.8c-2.1-2.1-5.5-2.1-7.6,0
			c-2.1,2.1-2.1,5.5,0,7.5l9.4,9.3C13.2,20.8,16.6,20.8,18.7,18.7z"/>
	</defs>
	<clipPath id="SVGID_2_">
		<use xlink:href="#SVGID_1_"  style="overflow:visible;"/>
	</clipPath>
	<g class="st0">
		<defs>
			<rect id="SVGID_3_" x="-291.8" y="-31.7" width="1440" height="3440"/>
		</defs>
		<clipPath id="SVGID_4_">
			<use xlink:href="#SVGID_3_"  style="overflow:visible;"/>
		</clipPath>
		<rect x="-4.8" y="-4.7" class="st1" width="136" height="30"/>
	</g>
</g>
</svg>
