<?xml version="1.0" encoding="UTF-8"?>
<svg width="146px" height="70px" viewBox="0 0 146 70" version="1.1" xmlns="http://www.w3.org/2000/svg" xmlns:xlink="http://www.w3.org/1999/xlink">
    <!-- Generator: Sketch 50.2 (55047) - http://www.bohemiancoding.com/sketch -->
    <title>ey bw</title>
    <desc>Created with Sketch.</desc>
    <defs></defs>
    <g id="Page-3" stroke="none" stroke-width="1" fill="none" fill-rule="evenodd">
        <g id="wunder_landingpage_desktop_03" transform="translate(-327.000000, -3835.000000)" fill="#B2B2B2" fill-rule="nonzero">
            <g id="Group-5" transform="translate(327.000000, 3830.000000)">
                <g id="Logo-1" transform="translate(0.000000, 5.000000)">
                    <g id="ey-bw">
                        <polygon id="Shape" points="65.6380919 0.111328413 0.163282686 24.0606273 65.6380919 12.4811808"></polygon>
                        <path d="M64.0989011,53.068524 C64.0989011,51.8436531 63.2698481,51.2901107 62.7962509,51.0927675 C63.3882473,50.7763469 63.7829117,50.0649815 63.7829117,49.3538745 C63.7829117,47.8916236 62.7962509,47.0616974 61.0597279,47.0616974 L57.3501413,47.0616974 L57.3501413,55.8747232 L61.0599859,55.8747232 C62.9543746,55.9142435 64.0989011,54.8471956 64.0989011,53.068524 Z M61.0599859,54.412214 L58.968265,54.412214 L58.968265,51.9224354 L61.0599859,51.9224354 C61.9282473,51.9224354 62.4018445,52.3571587 62.4018445,53.1870849 C62.4018445,53.9379705 61.8887809,54.412214 61.0599859,54.412214 Z M61.0205194,50.4601845 L58.968265,50.4601845 L58.968265,48.5632103 L60.9415866,48.5632103 C61.7309152,48.5632103 62.0861131,48.8793727 62.0861131,49.5116974 C62.1255795,49.9464207 61.9282473,50.4601845 61.0205194,50.4601845 Z M65.2434276,53.1080443 L65.2434276,49.4721771 L66.8220848,49.4721771 L66.8220848,53.029262 C66.8220848,54.09631 67.2167491,54.6100738 68.0060777,54.6100738 C68.7956643,54.6100738 69.1900707,54.09631 69.1900707,53.029262 L69.1900707,49.4721771 L70.7687279,49.4721771 L70.7687279,55.9139852 L69.1900707,55.9139852 L69.1900707,55.4002214 C68.7956643,55.8349446 68.2823428,56.0720664 67.6508799,56.0720664 C65.559159,56.0328044 65.2434276,54.2146125 65.2434276,53.1080443 Z M89.4755583,55.9142435 L87.897159,55.9142435 L87.897159,49.4724354 L89.4755583,49.4724354 L89.4755583,50.0259779 C89.8702226,49.5909963 90.4230106,49.3538745 91.093682,49.3538745 C92.6328728,49.3538745 93.4616678,50.3816605 93.4616678,52.2783764 L93.4616678,55.9142435 L91.8830106,55.9142435 L91.8830106,52.3571587 C91.8830106,51.2901107 91.5278127,50.7763469 90.7384841,50.7763469 C89.9488975,50.7763469 89.5150247,51.3298893 89.5150247,52.3571587 L89.5150247,55.9142435 L89.4755583,55.9142435 Z M73.8076431,52.6338007 L73.8076431,55.9139852 L72.2289859,55.9139852 L72.2289859,49.4721771 L73.8076431,49.4721771 L73.8076431,52.6338007 Z M75.2284346,47.575203 L76.8070919,46.784797 L76.8070919,55.9139852 L75.2284346,55.9139852 L75.2284346,47.575203 Z M81.8587951,49.9071587 C81.4641307,49.5119557 80.9905336,49.3140959 80.4380035,49.3140959 C78.8985548,49.3140959 77.9121519,50.5787454 77.9121519,52.5942804 C77.9121519,54.7286347 78.8593463,56.0328044 80.3985371,56.0328044 C80.9510671,56.0328044 81.4246643,55.8349446 81.8587951,55.4004797 L81.8587951,55.8747232 L83.4374523,55.8747232 L83.4374523,46.7455351 L81.8587951,47.535941 L81.8587951,49.9071587 Z M80.753735,54.5702952 C80.2012049,54.5702952 79.5302756,54.2146125 79.5302756,52.5942804 C79.5302756,51.0927675 80.1617385,50.8158672 80.7142686,50.8158672 C81.306265,50.8158672 81.6614629,51.1715498 81.859053,51.4481919 L81.859053,53.9774908 C81.6219965,54.2541328 81.3457314,54.5702952 80.753735,54.5702952 Z M116.470855,49.3140959 C115.957792,49.3140959 115.444728,49.551476 115.050064,49.9071587 L115.050064,46.9428782 L113.471406,47.7335424 L113.471406,55.8747232 L115.050064,55.8747232 L115.050064,55.4004797 C115.444728,55.7956827 115.957792,56.0328044 116.510322,56.0328044 C118.088979,56.0328044 118.996707,54.768155 118.996707,52.5942804 C118.996707,50.5787454 118.049512,49.3140959 116.470855,49.3140959 Z M116.194332,50.7763469 C116.786329,50.7763469 117.378583,51.2505904 117.378583,52.5550185 C117.378583,53.8984502 116.983919,54.5307749 116.194332,54.5307749 C115.602336,54.5307749 115.207929,54.135572 115.049806,53.9379705 L115.049806,51.4086716 C115.326329,51.0134686 115.720735,50.7763469 116.194332,50.7763469 Z M98.4346961,49.9071587 C98.0400318,49.5119557 97.5664346,49.3140959 97.0139046,49.3140959 C95.4747138,49.3140959 94.488053,50.5787454 94.488053,52.5942804 C94.488053,54.7286347 95.4352473,56.0328044 96.9744382,56.0328044 C97.5272261,56.0328044 98.0400318,55.8349446 98.4346961,55.4004797 L98.4346961,55.5585609 C98.4346961,56.2699262 98.4346961,57.2184133 96.3824417,57.2579336 L96.3035088,57.2579336 L96.8560389,58.522583 L96.8955053,58.522583 C98.9869682,58.4830627 100.013353,57.4555351 100.013353,55.3214391 L100.013353,49.4721771 L98.4346961,49.4721771 L98.4346961,49.9071587 Z M98.4346961,51.4086716 L98.4346961,53.9379705 C98.1978975,54.2541328 97.8821661,54.5702952 97.2901696,54.5702952 C96.7373816,54.5702952 96.1059187,54.2146125 96.1059187,52.5942804 C96.1059187,51.0927675 96.7373816,50.8158672 97.2901696,50.8158672 C97.8821661,50.7763469 98.237364,51.1320295 98.4346961,51.4086716 Z M104.946657,51.0529889 C105.459721,50.7763469 105.933318,50.6182657 106.604247,50.6182657 C107.35411,50.6182657 107.749032,50.934428 107.749032,51.5272325 L107.749032,51.962214 C107.393834,51.7643542 106.841046,51.6457934 106.367707,51.6457934 C105.183714,51.6457934 103.802389,52.1993358 103.802389,53.740369 C103.802389,55.4002214 105.105039,56.0325461 106.170633,56.0325461 C106.604763,56.0325461 107.275693,55.8744649 107.709823,55.3604428 L107.709823,55.8742066 L109.288481,55.8742066 L109.288481,51.5269742 C109.288481,50.1440221 108.30182,49.2743173 106.683438,49.2743173 C105.815435,49.2743173 105.025848,49.4719188 104.275986,49.9066421 L104.946657,51.0529889 Z M105.420254,53.7798893 C105.420254,53.2266052 105.814919,52.8709225 106.525314,52.8709225 C106.998912,52.8709225 107.393576,52.9499631 107.78824,53.1870849 L107.78824,54.0565314 C107.590908,54.412214 107.117311,54.7286347 106.525314,54.7286347 C105.814919,54.7286347 105.420254,54.3726937 105.420254,53.7798893 Z M124.127085,54.0170111 C123.851078,54.2936531 123.456155,54.5705535 122.864159,54.5705535 C122.548428,54.5705535 121.5223,54.4519926 121.443367,53.1478229 L125.390011,53.1478229 L125.390011,52.6735793 C125.390011,50.618524 124.324417,49.3140959 122.706293,49.3140959 C121.048703,49.3140959 119.825244,50.7370849 119.825244,52.6735793 C119.825244,54.6891144 121.009237,56.0328044 122.864159,56.0328044 C123.692954,56.0328044 124.521749,55.7163838 125.113746,55.0050185 L124.127085,54.0170111 Z M121.443625,52.001476 C121.482834,51.2110701 121.956431,50.657786 122.627618,50.657786 C123.456413,50.657786 123.811611,51.3298893 123.851078,52.001476 L121.443625,52.001476 Z M139.440318,54.0170111 C139.164053,54.2936531 138.769389,54.5705535 138.177392,54.5705535 C137.861403,54.5705535 136.835534,54.4519926 136.756343,53.1478229 L140.703244,53.1478229 L140.703244,52.6735793 C140.703244,50.618524 139.637392,49.3140959 138.019527,49.3140959 C136.361936,49.3140959 135.138477,50.7370849 135.138477,52.6735793 C135.138477,54.6891144 136.32247,56.0328044 138.177392,56.0328044 C139.006187,56.0328044 139.834982,55.7163838 140.466445,55.0050185 L139.440318,54.0170111 Z M136.756601,52.001476 C136.795809,51.2110701 137.269406,50.657786 137.940594,50.657786 C138.769389,50.657786 139.124587,51.3298893 139.163795,52.001476 L136.756601,52.001476 Z M132.928099,53.6613284 C132.928099,54.2148708 133.125689,54.5307749 133.599286,54.5307749 C133.915018,54.5307749 134.270216,54.412214 134.546481,54.2541328 L134.34889,55.7559041 C133.993693,55.9535055 133.520095,56.0720664 133.00729,56.0720664 C131.744364,56.0720664 131.310233,55.0050185 131.310233,54.09631 L131.310233,50.9742066 L130.363039,50.9742066 L130.363039,49.4724354 L131.349442,49.4724354 L131.349442,47.812583 L132.928099,47.0221771 L132.928099,49.4721771 L134.388357,49.4721771 L134.388357,50.9739483 L132.928099,50.9739483 L132.928099,53.6613284 Z M129.849975,55.7559041 C129.494777,55.9535055 129.02118,56.0720664 128.508117,56.0720664 C127.245191,56.0720664 126.81106,55.0050185 126.81106,54.09631 L126.81106,50.9742066 L125.824399,50.9742066 L125.824399,49.4724354 L126.81106,49.4724354 L126.81106,47.812583 L128.389717,47.0221771 L128.389717,49.4721771 L129.731576,49.4721771 L129.731576,50.9739483 L128.389717,50.9739483 L128.389717,53.7008487 C128.389717,54.2541328 128.587049,54.5702952 129.060647,54.5702952 C129.376636,54.5702952 129.731834,54.4517343 130.008099,54.2936531 L129.849975,55.7559041 Z M145.518148,51.2505904 C145.212168,51.0167935 144.837168,50.891653 144.452297,50.8949077 C143.662968,50.8949077 143.30777,51.3691513 143.30777,52.396679 L143.30777,55.8744649 L141.729113,55.8744649 L141.729113,49.4329151 L143.30777,49.4329151 L143.30777,49.9861993 C143.702435,49.5119557 144.176032,49.2748339 144.728562,49.2748339 C145.162951,49.2748339 145.636548,49.4326568 145.912555,49.6700369 L145.518148,51.2505904 Z M73.8076431,47.7335424 L73.8076431,48.5239483 L72.2289859,48.5239483 L72.2289859,46.9431365 L73.8076431,46.9431365 L73.8076431,47.7335424 Z M84.8582438,49.4721771 L86.4369011,49.4721771 L86.4369011,55.9139852 L84.8582438,55.9139852 L84.8582438,49.4721771 Z M86.4369011,47.7335424 L86.4369011,48.5239483 L84.8582438,48.5239483 L84.8582438,46.9431365 L86.4369011,46.9431365 L86.4369011,47.7335424 Z M130.047307,61.1701845 C129.652901,60.7749815 129.179046,60.5773801 128.626516,60.5773801 C127.087325,60.5773801 126.100664,61.8420295 126.100664,63.8575646 C126.100664,65.9916605 127.047859,67.2958303 128.587049,67.2958303 C129.139837,67.2958303 129.613435,67.0982288 130.047307,66.6637638 L130.047307,67.1380074 L131.625965,67.1380074 L131.625965,58.0085609 L130.047307,58.7992251 L130.047307,61.1701845 Z M128.941989,65.8335793 C128.389459,65.8335793 127.718788,65.4778967 127.718788,63.8578229 C127.718788,62.3560517 128.349993,62.0794096 128.902781,62.0794096 C129.494777,62.0794096 129.849975,62.4350923 130.047307,62.711476 L130.047307,65.2407749 C129.810509,65.4778967 129.533986,65.8335793 128.941989,65.8335793 Z M76.1359046,62.5138745 C75.8300409,62.280044 75.455109,62.1548962 75.070311,62.1581919 C74.2809823,62.1581919 73.9257845,62.6324354 73.9257845,63.6597048 L73.9257845,67.1377491 L72.3471272,67.1377491 L72.3471272,60.695941 L73.9257845,60.695941 L73.9257845,61.2492251 C74.3201908,60.7749815 74.793788,60.5378598 75.346576,60.5378598 C75.7807067,60.5378598 76.2543039,60.695941 76.5305689,60.9330627 L76.1359046,62.5138745 Z M63.6250459,60.695941 L65.2037032,60.695941 L63.3882473,67.1377491 L62.0071802,67.1377491 L61.2967845,64.450369 C61.1783852,63.9761255 61.0205194,63.422583 60.9415866,63.0671587 C60.8623958,63.3438007 60.704788,64.1342066 60.5863887,64.5294096 L59.8759929,67.1380074 L58.5341343,67.1380074 L56.7186784,60.6961993 L58.3365442,60.6961993 L58.9287986,63.1069373 C59.0077314,63.5021402 59.1655972,64.2135055 59.24453,64.6877491 C59.3234629,64.2135055 59.5207951,63.5021402 59.6391943,63.067417 L60.3101237,60.6961993 L61.6519823,60.6961993 L62.3229117,63.067417 C62.441311,63.5023985 62.5991767,64.1739852 62.717576,64.6877491 C62.7965088,64.2925461 62.9149081,63.6599631 63.0727739,63.067417 L63.6250459,60.695941 Z M68.4402085,60.5773801 C66.7434099,60.5773801 65.5199505,62.0001107 65.5199505,63.9366052 C65.5199505,65.8730996 66.7434099,67.2958303 68.4402085,67.2958303 C70.137265,67.2958303 71.3607244,65.8730996 71.3607244,63.9366052 C71.3607244,61.9608487 70.137265,60.5773801 68.4402085,60.5773801 Z M68.4402085,65.7943173 C67.6508799,65.7943173 67.1378163,65.0434317 67.1378163,63.9368635 C67.1378163,62.7907749 67.6508799,62.0796679 68.4402085,62.0796679 C69.2297951,62.0796679 69.7428587,62.8302952 69.7428587,63.9368635 C69.7428587,65.0434317 69.2295371,65.7943173 68.4402085,65.7943173 Z M122.232954,62.5138745 C121.92709,62.280044 121.552159,62.1548962 121.16736,62.1581919 C120.378032,62.1581919 120.022834,62.6324354 120.022834,63.6597048 L120.022834,67.1377491 L118.444177,67.1377491 L118.444177,60.695941 L120.022834,60.695941 L120.022834,61.2492251 C120.41724,60.7749815 120.890837,60.5378598 121.443625,60.5378598 C121.877756,60.5378598 122.351353,60.695941 122.627618,60.9330627 L122.232954,62.5138745 Z M109.761562,60.695941 L111.340219,60.695941 L109.524763,67.1377491 L108.143438,67.1377491 L107.433042,64.450369 C107.314643,63.9761255 107.156777,63.422583 107.077845,63.0671587 C106.998912,63.3438007 106.841046,64.1342066 106.722647,64.5294096 L106.012251,67.1380074 L104.630926,67.1380074 L104.630926,67.0984871 L102.815728,60.6961993 L104.433594,60.6961993 L105.02559,63.1069373 C105.104781,63.5021402 105.262389,64.2135055 105.34158,64.6877491 C105.420512,64.2135055 105.617587,63.5021402 105.735986,63.067417 L106.407173,60.6961993 L107.749032,60.6961993 L108.419961,63.067417 C108.53836,63.5023985 108.696226,64.1739852 108.814625,64.6877491 C108.893558,64.2925461 109.011958,63.6599631 109.169823,63.067417 L109.761562,60.695941 Z M114.537,60.5773801 C112.839943,60.5773801 111.616484,62.0001107 111.616484,63.9366052 C111.616484,65.8730996 112.839943,67.2958303 114.537,67.2958303 C116.234057,67.2958303 117.457516,65.8730996 117.457516,63.9366052 C117.457516,62.0001107 116.234057,60.5773801 114.537,60.5773801 Z M114.537,65.7943173 C113.747671,65.7943173 113.234608,65.082952 113.234608,63.9368635 C113.234608,62.7907749 113.747671,62.0796679 114.537,62.0796679 C115.326587,62.0796679 115.839392,62.8302952 115.839392,63.9368635 C115.839392,65.0434317 115.326329,65.7943173 114.537,65.7943173 Z M80.8721343,62.8300369 L82.8454558,67.1380074 L81.1089329,67.1380074 L79.7670742,64.1342066 L78.9382792,65.2015129 L78.9382792,67.1380074 L77.3596219,67.1380074 L77.3596219,58.8384871 L78.9382792,58.0480812 L78.9382792,63.1857196 C79.1293033,62.9175721 79.3266917,62.6540284 79.5302756,62.3953137 L80.7932014,60.7354613 L82.6086572,60.7354613 L80.8721343,62.8300369 Z M88.4099647,67.1380074 L86.8313074,67.1380074 L86.8313074,60.695941 L88.4099647,60.695941 L88.4099647,61.2492251 C88.804629,60.8145018 89.357159,60.5773801 90.0280883,60.5773801 C91.5672792,60.5773801 92.3960742,61.6051661 92.3960742,63.5018819 L92.3960742,67.1377491 L90.817417,67.1377491 L90.817417,63.5806642 C90.817417,62.5136162 90.4622191,61.9998524 89.6728905,61.9998524 C88.8833039,61.9998524 88.4494311,62.5533948 88.4494311,63.5806642 L88.4494311,67.1377491 L88.4099647,67.1377491 L88.4099647,67.1380074 Z M97.3691025,61.1701845 C96.9744382,60.7749815 96.500841,60.5773801 95.948311,60.5773801 C94.4088622,60.5773801 93.4224594,61.8420295 93.4224594,63.8575646 C93.4224594,65.9916605 94.3696537,67.2958303 95.9088445,67.2958303 C96.4613746,67.2958303 96.9744382,67.0982288 97.3691025,66.6637638 L97.3691025,66.8215867 C97.3691025,67.532952 97.3691025,68.4814391 95.3168481,68.5209594 L95.2376572,68.5209594 L95.7904452,69.7856089 L95.8299117,69.7856089 C97.9213746,69.7460886 98.9477597,68.7183026 98.9477597,66.5842066 L98.9477597,60.735203 L97.3691025,60.735203 L97.3691025,61.1701845 Z M97.3691025,62.672214 L97.3691025,65.2015129 C97.1323039,65.5176753 96.8163145,65.8335793 96.224318,65.8335793 C95.671788,65.8335793 95.0403251,65.4778967 95.0403251,63.8578229 C95.0403251,62.3560517 95.671788,62.0794096 96.224318,62.0794096 C96.8163145,62.039631 97.1715124,62.3953137 97.3691025,62.672214 Z M83.7926502,60.695941 L85.3713074,60.695941 L85.3713074,67.1380074 L83.7926502,67.1380074 L83.7926502,60.695941 Z M85.3713074,58.9965683 L85.3713074,59.7872325 L83.7926502,59.7872325 L83.7926502,58.2064207 L85.3713074,58.2064207 L85.3713074,58.9965683 Z M123.416689,58.8384871 L124.995346,58.0480812 L124.995346,67.1380074 L123.416689,67.1380074 L123.416689,58.8384871 Z M10.6613534,54.0565314 L22.619424,54.0565314 L22.619424,47.1009594 L10.6613534,47.1009594 L10.6613534,41.6471587 L23.9218163,41.6471587 L19.5413004,33.9802214 L0.755279152,33.9802214 L0.755279152,67.1380074 L27.2372544,67.1380074 L27.2372544,59.5103321 L10.6613534,59.5103321 L10.6613534,54.0565314 Z M44.8787491,33.9802214 L39.2745159,44.8087823 L33.6700247,33.9802214 L22.6588905,33.9802214 L34.2225548,54.0565314 L34.2225548,67.1380074 L44.128629,67.1380074 L44.128629,54.0565314 L55.6920353,33.9802214 L44.8787491,33.9802214 Z" id="Shape"></path>
                    </g>
                </g>
            </g>
        </g>
    </g>
</svg>