<?xml version="1.0" encoding="UTF-8"?>
<svg width="147px" height="32px" viewBox="0 0 147 32" version="1.1" xmlns="http://www.w3.org/2000/svg" xmlns:xlink="http://www.w3.org/1999/xlink">
    <!-- Generator: Sketch 50.2 (55047) - http://www.bohemiancoding.com/sketch -->
    <title>path3630</title>
    <desc>Created with Sketch.</desc>
    <defs></defs>
    <g id="Page-1" stroke="none" stroke-width="1" fill="none" fill-rule="evenodd" opacity="0.200000003">
        <g id="Slide-Gallery-Copy" transform="translate(-346.000000, -163.000000)" fill="#000000" fill-rule="nonzero">
            <path d="M376.041616,194.958737 C376.041616,194.913475 376.461516,193.825456 377.263313,191.793148 C377.458185,191.299207 379.600981,185.818721 381.258699,181.574401 C381.774138,180.254715 382.421061,178.603346 382.696312,177.904689 C382.971563,177.206032 383.808983,175.065914 384.55724,173.148872 L385.917709,169.663341 L390.370481,169.662636 L394.823253,169.661931 L394.659862,170.099474 C394.569997,170.340122 394.391337,170.810368 394.262834,171.144463 C394.134336,171.478559 394.029198,171.765221 394.029198,171.781491 C394.029198,171.797758 394.149229,171.676844 394.295931,171.512788 C394.657176,171.108809 394.649116,171.116244 395.060724,170.807248 C396.331178,169.85351 398.346454,169.373767 400.746079,169.45383 C403.859764,169.557718 405.389581,170.435901 405.733765,172.316989 C406.018281,173.871956 405.467985,175.994162 403.583261,180.610433 C401.10556,186.679097 399.356341,188.553604 395.650902,189.110967 C394.750426,189.246413 393.005433,189.319452 392.246473,189.253464 C390.781545,189.126091 389.682844,188.690856 389.025529,187.977532 C388.679011,187.601489 388.526378,187.315892 388.424605,186.853135 C388.366588,186.589336 388.340226,186.539374 388.305447,186.627305 C388.063561,187.238865 386.493764,191.290491 386.457074,191.397938 C386.430573,191.475564 386.104478,192.313953 385.732438,193.261022 L385.055997,194.982964 L380.548806,194.997419 C377.758583,195.006389 376.041616,194.991621 376.041616,194.958717 L376.041616,194.958737 Z M391.896072,184.029334 C392.529401,183.853275 393.195223,183.201933 393.741333,182.2242 C394.127148,181.533459 394.594033,180.473189 395.201189,178.908967 C396.371715,175.893312 396.503006,174.868367 395.771999,174.452862 C395.568541,174.337219 395.462448,174.319659 394.96717,174.319659 C394.432269,174.319659 394.371917,174.331755 393.999483,174.513611 C392.955884,175.023189 392.174858,176.344402 390.841956,179.855016 C389.982984,182.117392 389.776097,183.150195 390.069259,183.712467 C390.284929,184.126118 391.062649,184.261016 391.896072,184.029334 Z M365.596294,189.249464 C364.074784,189.174087 362.729325,188.938316 361.697087,188.566185 C360.43216,188.110166 359.538581,187.396835 359.087378,186.482897 C358.7634,185.826658 358.673849,185.449039 358.639094,184.592565 C358.571201,182.919524 359.105473,181.019991 360.686896,177.311889 C362.87717,172.176156 364.721309,170.37139 368.556276,169.610529 C370.229609,169.278538 372.599975,169.120688 375.159313,169.170815 C377.581123,169.218248 379.123535,169.475298 380.344597,170.034966 C381.19112,170.422966 381.934164,171.072844 382.291465,171.737725 C382.611707,172.333646 382.724088,172.861521 382.720956,173.755088 C382.715625,175.274035 382.369884,176.473253 380.865352,180.191203 C379.605321,183.304941 378.803253,184.808077 377.725268,186.075939 C377.493827,186.348148 377.204907,186.659782 377.083222,186.768462 C375.814132,187.901924 374.246921,188.576456 372.041031,188.938641 C370.8685,189.131156 370.212917,189.189642 368.517763,189.252958 C366.945174,189.311696 366.8501,189.311582 365.596294,189.249433 L365.596294,189.249464 Z M369.160426,184.735215 C370.416414,184.500713 371.132043,183.487585 372.569509,179.908916 C373.886507,176.630161 374.382826,174.935422 374.222907,174.263202 C374.140858,173.91831 373.856231,173.689869 373.445079,173.638919 C372.716682,173.548656 371.855237,173.827424 371.394443,174.302516 C370.673741,175.045582 370.0122,176.406896 368.691074,179.865487 C367.486654,183.018557 367.277534,184.059845 367.7565,184.519119 C368.016026,184.767974 368.547123,184.84972 369.160426,184.735215 Z M409.512181,189.248246 C406.409025,189.07037 404.576371,188.089672 403.978823,186.287221 C403.402164,184.547765 403.780957,182.286792 405.34062,178.158746 C405.979261,176.46844 407.476258,172.756376 407.958952,171.666173 C409.47792,168.235429 410.632897,166.473488 412.16643,165.247563 C414.25052,163.581517 417.388233,162.974647 423.401327,163.074602 C426.523614,163.126503 428.128856,163.399425 429.586821,164.12625 C430.558999,164.610903 431.215784,165.278758 431.565624,166.138405 C432.045368,167.317269 431.8567,169.12027 431.022065,171.332783 L430.906947,171.637944 L426.52799,171.637944 C424.119561,171.637944 422.149028,171.630086 422.149028,171.620478 C422.149028,171.610873 422.267041,171.286948 422.411278,170.900649 C422.810719,169.830868 422.945947,169.339277 422.945947,168.956978 C422.945947,168.254035 422.593425,167.907142 421.763103,167.793018 C420.643888,167.639188 419.50198,168.077384 418.805416,168.928002 C418.288915,169.558732 418.071305,170.055193 416.145137,174.997146 C415.951497,175.493969 415.388408,176.929393 414.893826,178.186976 C413.650378,181.348724 413.449715,181.880547 413.32145,182.354284 C413.021116,183.463549 413.173054,184.091514 413.816518,184.400466 C414.018262,184.497328 414.214403,184.534067 414.629214,184.552701 C416.182518,184.622468 417.357301,183.909415 418.094335,182.449489 C418.27211,182.097348 419.189047,179.844268 419.189047,179.759583 C419.189047,179.733025 418.612704,179.711317 417.908285,179.711317 C417.177658,179.711317 416.627523,179.689263 416.627523,179.659987 C416.627523,179.631744 416.753269,179.295127 416.906961,178.911931 C417.060652,178.528731 417.34665,177.808713 417.542517,177.31189 C417.738377,176.815067 418.021709,176.103706 418.172142,175.731089 L418.445659,175.053603 L424.175283,175.03922 C428.764251,175.027699 429.893711,175.038937 429.84864,175.095677 C429.795556,175.162514 429.573745,175.716318 428.237414,179.118523 C427.932507,179.894806 427.562454,180.834817 427.415085,181.207433 C427.267713,181.580053 426.601382,183.26953 425.934348,184.961836 C425.26731,186.654137 424.652318,188.210241 424.56769,188.419838 L424.413829,188.800923 L421.171452,188.800923 C418.11029,188.800923 417.930706,188.7954 417.958289,188.702121 C418.076384,188.302779 418.449052,186.88039 418.449052,186.828994 C418.449052,186.793818 418.182047,186.9924 417.855714,187.270249 C416.09977,188.765293 415.036684,189.139092 412.216011,189.253272 C410.76726,189.311915 410.617996,189.311641 409.512181,189.248258 L409.512181,189.248246 Z M434.842799,189.250205 C431.817182,189.099662 429.86368,188.459362 428.778829,187.262615 C427.597734,185.959699 427.545855,183.797954 428.62063,180.670925 C428.885281,179.90094 429.756362,177.683301 430.161877,176.747153 C430.282934,176.46769 430.431223,176.124713 430.491409,175.984981 C430.752039,175.379852 431.567531,173.792659 431.891013,173.260933 C433.438815,170.716678 435.068307,169.722182 438.295731,169.352066 C440.514532,169.097617 445.199969,169.083606 446.967339,169.326134 C448.966659,169.600493 450.378013,170.200333 451.177064,171.115315 C451.496134,171.480676 451.846033,172.19837 451.954744,172.710465 C452.073859,173.271592 452.030763,174.497234 451.864852,175.266828 C451.625726,176.376037 451.136104,177.787363 450.38178,179.54178 L450.054081,180.303953 L443.891063,180.332196 L437.728049,180.360438 L437.137109,181.884782 C436.812091,182.723171 436.506382,183.574263 436.457765,183.776096 C436.291577,184.465968 436.474826,184.924267 436.985937,185.096992 C437.373901,185.228106 438.118272,185.216449 438.549055,185.07251 C439.475894,184.76283 440.031048,184.094495 440.681095,182.505806 L440.865901,182.054146 L444.969686,182.039653 C447.226777,182.031701 449.073479,182.036127 449.073479,182.049798 C449.073479,182.063351 448.916276,182.448569 448.724141,182.905845 C447.870031,184.938599 446.952079,186.313469 445.857346,187.199608 C445.240336,187.699045 444.22631,188.183694 442.925978,188.600621 C441.670165,189.003277 440.401753,189.172697 438.041155,189.253076 C436.322959,189.311582 436.071606,189.311355 434.842799,189.250334 L434.842799,189.250205 Z M443.264424,175.943807 C443.776609,174.663644 443.892935,174.051421 443.695835,173.67338 C443.576902,173.44527 443.197995,173.281929 442.694791,173.241852 C441.469151,173.144233 440.570389,173.652787 439.981281,174.777265 C439.75216,175.21461 439.168925,176.573523 439.168925,176.670022 C439.168925,176.697008 440.020629,176.719061 441.061606,176.719026 L442.954288,176.718964 L443.264424,175.943807 Z M453.086534,189.251764 C450.700712,189.055806 449.263095,188.117687 448.957153,186.557138 C448.86162,186.069821 448.914329,185.102778 449.06825,184.519049 C449.481012,182.95367 450.360292,181.421841 451.492413,180.295825 C452.770849,179.024277 454.356455,178.261394 456.758047,177.762359 C456.992856,177.713568 458.401694,177.47041 459.888798,177.222008 C463.110069,176.683936 463.479375,176.604605 464.072622,176.323291 C464.628282,176.059794 464.986463,175.71867 465.270628,175.182333 C465.546617,174.661418 465.596072,174.222575 465.412057,173.927272 C465.226758,173.629906 464.904358,173.486355 464.357233,173.457609 C463.0892,173.390985 462.091884,173.98143 461.533973,175.129072 L461.283406,175.644504 L457.341507,175.645445 C455.173464,175.645954 453.399609,175.62788 453.399609,175.605248 C453.399609,175.494825 453.727881,174.736767 454.104119,173.978378 C455.027849,172.116387 455.949154,171.068134 457.322471,170.316556 C458.343535,169.757758 459.6606,169.431368 461.568021,169.264439 C462.699507,169.165417 466.721468,169.128837 467.912783,169.206735 C471.918473,169.468658 473.833994,170.409242 474.122902,172.256121 C474.263474,173.15468 474.116148,173.669279 472.664207,177.351555 C471.987157,179.068615 471.087728,181.349977 470.665475,182.421251 C470.243223,183.492528 469.733716,184.782647 469.533239,185.288187 C469.020991,186.579912 468.91906,186.991292 468.914657,187.784681 C468.912682,188.141773 468.929625,188.516509 468.952334,188.617425 L468.993602,188.800911 L464.746006,188.800911 L460.498407,188.800911 L460.530713,188.250454 C460.55824,187.781108 460.646072,187.379925 460.841106,186.832394 C460.859155,186.781698 460.526309,187.082259 460.101427,187.500302 C459.069699,188.515412 458.604509,188.788494 457.496356,189.029573 C456.589071,189.226953 454.231021,189.345759 453.086542,189.251756 L453.086534,189.251764 Z M460.225036,184.479701 C461.040153,184.289133 461.813647,183.661873 462.236389,182.848601 C462.418572,182.498112 463.581559,179.598398 463.539932,179.598429 C463.519829,179.598445 463.366082,179.650221 463.198263,179.713483 C463.030441,179.776748 462.402865,179.955177 461.803655,180.109997 C461.204441,180.264814 460.54768,180.470012 460.344182,180.565993 C459.580336,180.926258 459.124861,181.378838 458.731412,182.168514 C458.077186,183.481572 458.156988,184.268278 458.969076,184.511602 C459.218324,184.586286 459.836278,184.57059 460.225036,184.479717 L460.225036,184.479701 Z M346.001757,188.70245 C346.017594,188.647928 346.298455,187.930069 346.62589,187.107203 C347.660823,184.506357 350.456004,177.469962 350.909522,176.323889 C351.149128,175.718386 351.598411,174.587831 351.90793,173.811545 C353.393299,170.086172 353.784827,169.090862 353.784827,169.040256 C353.784827,169.005617 352.635462,168.980039 350.664697,168.970822 L347.544567,168.95623 L347.758102,168.419887 C348.005614,167.798205 349.587162,163.737411 349.753239,163.297162 L349.865338,163 L360.790413,163 C369.492476,163 371.715507,163.01436 371.715579,163.070572 C371.71566,163.134002 371.187769,164.508007 369.888129,167.827087 L369.445995,168.95623 L366.296404,168.970814 L363.146814,168.985397 L361.571085,172.951045 C359.234276,178.832103 358.925369,179.61 358.595092,180.445263 C358.157081,181.552986 356.707039,185.202574 355.409839,188.462178 L355.286266,188.772692 L350.629613,188.787146 C346.211873,188.800856 345.974438,188.796508 346.001757,188.702462 L346.001757,188.70245 Z M469.707468,188.702117 C469.729545,188.647779 469.856697,188.323857 469.990017,187.982292 C470.416642,186.889302 471.719228,183.570483 472.327743,182.02606 C473.041507,180.214526 475.093093,174.988987 476.140215,172.31543 C476.55979,171.244156 476.963512,170.215224 477.037374,170.028915 L477.171674,169.690172 L481.569119,169.67571 C483.987717,169.667755 485.95447,169.680658 485.939687,169.704384 C485.898088,169.771138 484.877877,172.374633 484.877877,172.41403 C484.877877,172.433196 485.063591,172.268193 485.290568,172.047358 C487.200149,170.18947 489.888521,169.1945 492.357873,169.431739 C492.699313,169.464541 492.988154,169.500782 492.999738,169.512271 C493.011309,169.52376 492.638804,170.483096 492.171919,171.644127 C491.70503,172.805157 491.162312,174.15793 490.96588,174.650289 L490.608718,175.545487 L490.233665,175.512121 C489.304492,175.429454 487.389271,175.407878 486.818841,175.473651 C485.155079,175.665491 484.091575,176.277149 483.307188,177.493319 C482.940745,178.061465 482.842033,178.290972 481.576085,181.517947 C481.350731,182.092401 480.980556,183.032411 480.753472,183.606865 C480.526392,184.181314 479.974042,185.584983 479.526027,186.726122 L478.711451,188.800923 L474.18939,188.800923 C469.905322,188.800923 469.669439,188.795713 469.707468,188.702121 L469.707468,188.702117 Z" id="path3630"></path>
        </g>
    </g>
</svg>