<?xml version="1.0" encoding="UTF-8"?>
<svg width="144px" height="20px" viewBox="0 0 144 20" version="1.1" xmlns="http://www.w3.org/2000/svg" xmlns:xlink="http://www.w3.org/1999/xlink">
    <!-- Generator: Sketch 50.2 (55047) - http://www.bohemiancoding.com/sketch -->
    <title>Group</title>
    <desc>Created with Sketch.</desc>
    <defs></defs>
    <g id="Page-1" stroke="none" stroke-width="1" fill="none" fill-rule="evenodd">
        <g id="wunder_the_app" transform="translate(-280.000000, -30.000000)" fill="#2A3B35">
            <g id="Links" transform="translate(280.000000, 30.000000)">
                <g id="Group">
                    <path d="M33.1288357,7.26496233 L39.0602573,1.49261148 C41.1047546,-0.497055822 44.4211934,-0.497905164 46.4662144,1.49227174 C48.5115844,3.48278839 48.5110608,6.70909686 46.4658653,8.69944363 L37.2096844,17.7073893 C36.091171,18.7958131 34.5921328,19.2890818 33.1288357,19.1868339 C31.6655386,19.2890818 30.1665003,18.7958131 29.0479869,17.7073893 L19.7918061,8.69944363 C17.7466106,6.70909686 17.7460869,3.48278839 19.791457,1.49227174 C21.8364779,-0.497905164 25.1529168,-0.497055822 27.1974141,1.49261148 L33.1288357,7.26496233 Z M1.53413664,8.69944363 C-0.511058848,6.70909686 -0.511582496,3.48278839 1.53378754,1.49227174 C3.57880847,-0.497905164 6.89524734,-0.497055822 8.93974462,1.49261148 L18.1959255,10.5005571 C20.241121,12.4909039 20.2416446,15.7172124 18.1962746,17.707729 C16.1512537,19.6979059 12.8349893,19.6970566 10.7903175,17.7073893 L1.53413664,8.69944363 Z" id="Combined-Shape"></path>
                    <text id="Wunder" font-family="Averta-Black" font-size="22" font-weight="700">
                        <tspan x="63.0771484" y="18">Wunder</tspan>
                    </text>
                </g>
            </g>
        </g>
    </g>
</svg>