<?xml version="1.0" encoding="UTF-8"?>
<svg width="81px" height="90px" viewBox="0 0 81 90" version="1.1" xmlns="http://www.w3.org/2000/svg" xmlns:xlink="http://www.w3.org/1999/xlink">
    <!-- Generator: Sketch 50.2 (55047) - http://www.bohemiancoding.com/sketch -->
    <title>TopGearLogo</title>
    <desc>Created with Sketch.</desc>
    <defs></defs>
    <g id="Page-1" stroke="none" stroke-width="1" fill="none" fill-rule="evenodd" opacity="0.200000003">
        <g id="Slide-Gallery-Copy-3" transform="translate(-384.000000, -118.000000)" fill="#000000" fill-rule="nonzero">
            <g id="TopGearLogo" transform="translate(384.000000, 118.000000)">
                <g id="Rappler_logo">
                    <g id="Shape_1">
                        <path d="M34.694,65.842 C24.966,63.618 17.798,58.256 12.794,51.225 C9.942,47.217 7.703,42.392 6.807,36.398 C5.849,29.993 7.01,23.462 8.908,18.555 C6.244,23.578 4.474,29.101 4.969,36.086 C5.198,39.331 5.959,42.272 6.86,44.929 C7.767,47.605 8.853,50.021 10.274,52.316 C15.365,60.53 24.185,65.657 36.638,66.464 C37.501,66.521 38.62,66.705 39.264,66.568 C39.213,66.581 38.424,66.456 38.056,66.414 C36.844,66.275 35.722,66.076 34.694,65.842 Z M11.691,45.553 C14.954,52.666 21.079,57.494 27.919,60.692 C24.415,47.757 20.908,34.829 17.415,21.884 C15.776,21.409 14.28,20.793 12.636,20.323 C10.585,23.294 9.216,27.77 9.064,32.548 C8.912,37.371 10.056,41.991 11.691,45.553 Z M42.15,35.565 C44.476,34.454 47.193,32.383 47.193,29.115 C47.193,27.125 46.226,25.18 45.197,24.017 C44.051,22.724 42.189,21.883 39.945,21.988 C36.039,22.171 32.698,23.798 29.126,24.537 C30.45,28.948 31.685,33.448 32.96,37.906 C34.555,37.602 36.161,37.156 37.634,36.814 C39.225,36.444 40.725,36.247 42.15,35.565 Z M66.992,50.704 C69.888,45.558 72.017,39.348 71.667,31.664 C71.336,24.444 68.382,18.747 65.154,14.341 C61.849,9.831 57.572,6.039 52.023,3.573 C46.724,1.217 38.617,0.022 31.542,1.752 C46.759,0.601 57.057,6.614 62.949,15.329 C65.892,19.684 68.573,24.886 69.566,31.299 C70.67,38.432 69.2,45.615 66.572,50.184 C65.657,49.251 64.625,48.436 63.842,47.374 C67.583,41.907 67.858,31.105 65.524,23.964 C63.284,17.113 58.264,11.962 52.499,8.671 C49.558,6.991 45.895,5.644 41.838,5.133 C37.498,4.587 32.928,4.999 29.234,6.226 C22.757,8.375 17.721,12.744 14.109,17.722 C13.855,18.073 13.489,18.393 13.531,18.71 C19.403,17.179 25.334,15.606 31.282,14.028 C34.218,13.249 37.186,12.238 40.578,12.103 C47.854,11.812 52.675,14.978 55.388,19.594 C56.781,21.963 57.909,24.774 58.015,28.125 C58.131,31.827 57.04,34.507 55.546,36.813 C54.075,39.08 52.198,40.889 49.873,42.327 C57.351,48.267 65.196,54.076 72.72,59.91 C72.941,60.081 73.232,60.211 73.351,60.482 C60.775,56.048 48.027,51.509 35.484,47.215 C37.042,52.175 38.325,57.407 39.948,62.301 C45.529,62.451 49.394,60.456 53.025,58.504 C61.992,60.513 70.996,62.483 80.021,64.435 C75.918,60.016 71.213,55.25 66.992,50.704 Z M3.078,30.26 C3.887,21.156 7.495,14.039 11.638,8.515 C9.027,11.158 6.422,14.14 4.443,17.67 C2.493,21.15 0.925,25.348 0.662,30.259 C0.373,35.638 1.453,40.214 2.973,44.2 C4.48,48.152 6.521,51.679 8.908,54.552 C5.367,48.191 2.177,40.39 3.078,30.26 Z M70.616,49.508 C74.273,44.288 77.387,36.136 75.343,27.399 C73.604,19.96 69.177,14.333 64.419,10.18 C68.44,14.645 71.934,20.263 73.348,27.451 C74.887,35.274 73.279,43.929 70.616,49.508 Z" id="Shape"></path>
                    </g>
                    <g id="Shape_2" transform="translate(0.000000, 76.000000)">
                        <path d="M18.089,0.161 C16.436,3.962 14.794,7.775 13.211,11.646 C14.05,11.646 14.889,11.646 15.729,11.646 C16.11,10.804 16.388,9.857 16.831,9.077 C18.422,9.077 20.013,9.077 21.604,9.077 C21.906,9.964 22.324,10.734 22.601,11.646 C23.475,11.646 24.349,11.646 25.224,11.646 C23.668,7.765 21.953,4.042 20.398,0.161 C19.627,0.161 18.858,0.161 18.089,0.161 Z M17.669,6.874 C18.146,5.639 18.699,4.478 19.138,3.203 C19.749,4.322 20.12,5.682 20.711,6.82 C19.802,6.943 18.666,6.84 17.669,6.874 Z M27.11,0.266 C27.044,0.287 27.003,0.334 27.005,0.423 C27.04,4.149 26.936,8.011 27.057,11.649 C27.879,11.649 28.701,11.649 29.522,11.649 C29.558,10.53 29.453,9.27 29.574,8.24 C33.079,8.539 35.77,7.518 36.026,4.778 C36.488,-0.184 31.831,0.126 27.11,0.266 Z M29.522,5.982 C29.522,4.88 29.522,3.779 29.522,2.677 C29.518,2.603 29.513,2.53 29.574,2.521 C31.245,2.521 32.835,2.323 33.35,3.413 C34.365,5.552 31.788,6.395 29.522,5.982 Z M37.967,0.266 C37.905,0.276 37.91,0.35 37.915,0.423 C37.915,4.164 37.915,7.906 37.915,11.649 C38.737,11.649 39.558,11.649 40.38,11.649 C40.502,10.852 40.393,8.952 40.433,8.24 C42.769,8.325 44.66,8.208 45.889,6.979 C47.214,5.655 47.289,2.823 45.889,1.419 C44.365,-0.102 41.075,0.287 37.967,0.266 Z M44.104,5.301 C43.407,6.274 41.926,5.88 40.485,6.035 C40.36,5.202 40.469,3.439 40.433,2.521 C41.695,2.578 42.994,2.342 43.736,2.834 C44.486,3.333 44.643,4.552 44.104,5.301 Z M51.289,9.393 C51.289,6.35 51.289,3.309 51.289,0.266 C50.484,0.266 49.682,0.266 48.876,0.266 C48.811,0.287 48.77,0.334 48.772,0.423 C48.772,4.131 48.774,8.114 48.772,11.649 C51.501,11.614 54.368,11.717 57.006,11.595 C57.006,10.879 57.006,10.161 57.006,9.446 C55.205,9.322 53.178,9.427 51.289,9.393 Z M61.359,9.393 C61.359,8.606 61.359,7.819 61.359,7.033 C63.159,7.033 64.961,7.033 66.761,7.033 C66.738,6.276 66.81,5.299 66.707,4.778 C64.94,4.743 63.036,4.846 61.356,4.725 C61.356,3.973 61.356,3.221 61.356,2.469 C63.385,2.436 65.551,2.538 67.493,2.416 C67.504,1.707 67.477,0.812 67.493,0.266 C64.643,0.266 61.794,0.266 58.944,0.266 C58.822,3.955 58.926,7.871 58.891,11.649 C61.776,11.649 64.661,11.649 67.544,11.649 C67.544,10.915 67.544,10.18 67.544,9.446 C65.503,9.409 63.316,9.516 61.359,9.393 Z M8.176,7.871 C10.253,7.467 11.846,6.337 11.9,4.042 C12.018,-0.977 5.772,0.465 0.991,0.266 C1.211,0.66 2.024,0.912 2.354,1.369 C2.354,4.796 2.354,8.223 2.354,11.649 C3.193,11.649 4.033,11.649 4.872,11.649 C4.872,10.442 4.872,9.235 4.872,8.03 C7.447,9.895 9.99,11.794 12.529,13.694 C12.586,13.715 12.655,13.757 12.581,13.694 C11.152,11.713 9.573,9.884 8.176,7.871 Z M4.872,5.773 C4.872,4.687 4.872,3.605 4.872,2.521 C6.545,2.573 8.706,2.195 9.225,3.413 C9.366,3.743 9.445,4.366 9.225,4.882 C8.675,6.17 6.704,5.68 4.872,5.773 Z M75.939,7.871 C79.039,7.808 80.82,3.79 78.824,1.523 C77.027,-0.516 72.497,0.515 68.755,0.265 C68.983,0.65 69.795,0.902 70.118,1.367 C70.152,4.744 70.049,8.532 70.17,11.646 C70.992,11.646 71.815,11.646 72.637,11.646 C72.637,10.439 72.637,9.234 72.637,8.027 C75.251,9.853 77.86,11.965 80.399,13.693 C78.902,11.761 77.37,9.867 75.939,7.871 Z M72.637,5.773 C72.637,4.687 72.637,3.605 72.637,2.521 C74.039,2.635 75.666,2.25 76.518,2.834 C77.164,3.278 77.295,4.192 76.991,4.88 C76.384,6.238 74.287,5.648 72.637,5.773 Z" id="Shape"></path>
                    </g>
                </g>
            </g>
        </g>
    </g>
</svg>