<?xml version="1.0" encoding="UTF-8"?>
<svg width="265px" height="134px" viewBox="0 0 265 134" version="1.1" xmlns="http://www.w3.org/2000/svg" xmlns:xlink="http://www.w3.org/1999/xlink">
    <!-- Generator: Sketch 50.2 (55047) - http://www.bohemiancoding.com/sketch -->
    <title>Group 39</title>
    <desc>Created with Sketch.</desc>
    <defs></defs>
    <g id="Page-1" stroke="none" stroke-width="1" fill="none" fill-rule="evenodd">
        <g id="wunder_pricing_mobile" transform="translate(-61.000000, -876.000000)">
            <g id="Carpool" transform="translate(35.000000, 766.000000)">
                <g id="Group-39" transform="translate(27.000000, 110.000000)">
                    <g id="Group-2" opacity="0.5">
                        <g id="Group-29" transform="translate(93.000000, 22.000000)">
                            <polygon id="Fill-20" fill="#D8D8D8" points="0 109.381416 47.66 109.381416 47.66 6 0 6"></polygon>
                            <polygon id="Fill-26" fill="#EBEBEB" points="0 7.20273973 44.8600006 7.20273973 44.8600006 0 0 0"></polygon>
                            <polygon id="Fill-42" fill="#FFFFFF" points="10.8725 39.0414612 17.199 39.0414612 17.199 14.4672603 10.8725 14.4672603"></polygon>
                            <polygon id="Fill-43" fill="#FFFFFF" points="19.308 39.0414612 25.6345 39.0414612 25.6345 14.4672603 19.308 14.4672603"></polygon>
                            <polygon id="Fill-65" fill="#FFFFFF" points="27.7435 39.0414612 34.07 39.0414612 34.07 14.4672603 27.7435 14.4672603"></polygon>
                        </g>
                        <g id="Group-21" transform="translate(137.076543, 0.000000)">
                            <polygon id="Fill-8" fill="#EBEBEB" points="0.428054321 132.375151 58.3532272 132.375151 58.3532272 12.1406415 0.428054321 12.1406415"></polygon>
                            <polygon id="Fill-9" fill="#B2B2B2" points="6.24237531 29.0753057 20.6177827 29.0753057 20.6177827 22.3013396 6.24237531 22.3013396"></polygon>
                            <polygon id="Fill-10" fill="#B2B2B2" points="6.24237531 41.7760528 20.6177827 41.7760528 20.6177827 35.0020868 6.24237531 35.0020868"></polygon>
                            <polygon id="Fill-11" fill="#B2B2B2" points="6.24237531 54.4768 20.6177827 54.4768 20.6177827 47.702834 6.24237531 47.702834"></polygon>
                            <polygon id="Fill-12" fill="#B2B2B2" points="11.6331531 12.1406415 47.1491309 12.1406415 47.1491309 4.09690189 11.6331531 4.09690189"></polygon>
                            <polygon id="Fill-13" fill="#EBEBEB" points="54.0197536 0.286677736 29.3910919 2.82722868 4.97344988 0.286677736 4.97344988 4.94368528 29.4968523 7.48373434 54.0197536 4.94368528"></polygon>
                        </g>
                        <g id="Group-22" transform="translate(16.748148, 36.562264)">
                            <polygon id="Fill-1" fill="#B2B2B2" points="0.230066667 94 83.1011827 94 83.1011827 7.00935094 0.230066667 7.00935094"></polygon>
                            <polygon id="Fill-2" fill="#EBEBEB" points="4.03594074 18.4403245 75.0678963 18.4403245 75.0678963 14.2064075 4.03594074 14.2064075"></polygon>
                            <polygon id="Fill-3" fill="#EBEBEB" points="4.03594074 23.9435132 75.0678963 23.9435132 75.0678963 19.7100981 4.03594074 19.7100981"></polygon>
                            <polygon id="Fill-4" fill="#EBEBEB" points="4.03594074 45.1120943 75.0678963 45.1120943 75.0678963 40.8781774 4.03594074 40.8781774"></polygon>
                            <polygon id="Fill-5" fill="#EBEBEB" points="4.03594074 50.615283 75.0678963 50.615283 75.0678963 46.381366 4.03594074 46.381366"></polygon>
                            <polygon id="Fill-6" fill="#FFFFFF" points="57.310158 37.0678528 63.652279 37.0678528 63.652279 27.3307472 57.310158 27.3307472"></polygon>
                            <polygon id="Fill-7" fill="#FFFFFF" points="65.7659852 37.0678528 72.1081062 37.0678528 72.1081062 27.3307472 65.7659852 27.3307472"></polygon>
                            <polygon id="Fill-85" fill="#B2B2B2" points="23.0623037 7.00935094 37.4377111 7.00935094 37.4377111 2.3523434 23.0623037 2.3523434"></polygon>
                            <polygon id="Fill-86" fill="#B2B2B2" points="48.4312889 7.00935094 62.8066963 7.00935094 62.8066963 2.3523434 48.4312889 2.3523434"></polygon>
                            <polygon id="Fill-87" fill="#969696" points="47.162163 2.3523434 64.0748198 2.3523434 64.0748198 0.235886792 47.162163 0.235886792"></polygon>
                            <polygon id="Fill-88" fill="#969696" points="21.793679 2.3523434 38.7063358 2.3523434 38.7063358 0.235886792 21.793679 0.235886792"></polygon>
                            <polygon id="Fill-99" fill="#FFFFFF" points="15.0290173 37.0678528 21.3711383 37.0678528 21.3711383 27.3307472 15.0290173 27.3307472"></polygon>
                            <polygon id="Fill-100" fill="#FFFFFF" points="23.4853457 37.0678528 29.8274667 37.0678528 29.8274667 27.3307472 23.4853457 27.3307472"></polygon>
                            <polygon id="Fill-101" fill="#FFFFFF" points="36.1695877 37.0678528 42.5117086 37.0678528 42.5117086 27.3307472 36.1695877 27.3307472"></polygon>
                            <polygon id="Fill-102" fill="#FFFFFF" points="44.625916 37.0678528 50.968037 37.0678528 50.968037 27.3307472 44.625916 27.3307472"></polygon>
                            <polygon id="Fill-4-Copy" fill="#EBEBEB" points="4.03594074 73.1120943 75.0678963 73.1120943 75.0678963 68.8781774 4.03594074 68.8781774"></polygon>
                            <polygon id="Fill-5-Copy" fill="#EBEBEB" points="4.03594074 78.615283 75.0678963 78.615283 75.0678963 74.381366 4.03594074 74.381366"></polygon>
                            <polygon id="Fill-6-Copy" fill="#FFFFFF" points="57.310158 65.0678528 63.652279 65.0678528 63.652279 55.3307472 57.310158 55.3307472"></polygon>
                            <polygon id="Fill-7-Copy" fill="#FFFFFF" points="65.7659852 65.0678528 72.1081062 65.0678528 72.1081062 55.3307472 65.7659852 55.3307472"></polygon>
                            <polygon id="Fill-99-Copy" fill="#FFFFFF" points="15.0290173 65.0678528 21.3711383 65.0678528 21.3711383 55.3307472 15.0290173 55.3307472"></polygon>
                            <polygon id="Fill-100-Copy" fill="#FFFFFF" points="23.4853457 65.0678528 29.8274667 65.0678528 29.8274667 55.3307472 23.4853457 55.3307472"></polygon>
                            <polygon id="Fill-101-Copy" fill="#FFFFFF" points="36.1695877 65.0678528 42.5117086 65.0678528 42.5117086 55.3307472 36.1695877 55.3307472"></polygon>
                            <polygon id="Fill-102-Copy" fill="#FFFFFF" points="44.625916 65.0678528 50.968037 65.0678528 50.968037 55.3307472 44.625916 55.3307472"></polygon>
                        </g>
                        <g id="Group-23" transform="translate(177.000000, 39.649057)">
                            <polygon id="Fill-21" fill="#B2B2B2" points="0.428555556 93.1496868 54.1253136 93.1496868 54.1253136 6.36091321 0.428555556 6.36091321"></polygon>
                            <polygon id="Fill-22" fill="#FFFFFF" points="8.56760247 24.9884415 16.1783481 24.9884415 16.1783481 16.9447019 8.56760247 16.9447019"></polygon>
                            <polygon id="Fill-23" fill="#FFFFFF" points="23.3655506 24.9884415 30.9762963 24.9884415 30.9762963 16.9447019 23.3655506 16.9447019"></polygon>
                            <polygon id="Fill-24" fill="#FFFFFF" points="38.164 24.9884415 45.7747457 24.9884415 45.7747457 16.9447019 38.164 16.9447019"></polygon>
                            <polygon id="Fill-25" fill="#969696" points="12.4782346 6.36041132 42.0751333 6.36041132 42.0751333 0.0100377358 12.4782346 0.0100377358"></polygon>
                        </g>
                        <path d="M225.506539,132 L0.499331575,132" id="Stroke-107" stroke="#969696" stroke-width="3" stroke-linecap="round"></path>
                        <path d="M243.506539,132 L233.496539,132" id="Stroke-107-Copy" stroke="#969696" stroke-width="3" stroke-linecap="round"></path>
                        <path d="M262.506539,132 L259.506539,132" id="Stroke-107-Copy-2" stroke="#969696" stroke-width="3" stroke-linecap="round"></path>
                    </g>
                    <g id="Group-19" transform="translate(96.000000, 100.000000)">
                        <path d="M5.10489282,24.8950598 C2.20278155,24.3564274 0,21.8086656 0,18.75 L0,13.75 C0,10.3 2.8025,7.5 6.25,7.5 C7.395,7.5 8.46,6.925 9.095,5.975 L11.225,2.775 C12.3875,1.05 14.33,0 16.425,0 L34.495,0 C35.9075,0 37.295,0.475 38.4,1.375 L48.25,9.25 C48.855,9.725 49.6125,10 50.3875,10 L52.5,10 C57.37,10 60,14.5 60,18.75 C60,21.9311365 57.8720521,24.3996579 54.8931737,24.9049679 C54.3500352,27.8038273 51.8010088,30 48.75,30 C45.7302309,30 43.2053403,27.85169 42.6252989,25 L17.3745999,25 C16.7941163,27.85169 14.2675793,30 11.25,30 C8.19329957,30 5.6436563,27.7988216 5.10489282,24.8950598 Z" id="Combined-Shape" fill="#FFFFFF"></path>
                        <path d="M11.25,20 C9.1825,20 7.5,21.675 7.5,23.75 C7.5,25.825 9.1825,27.5 11.25,27.5 C13.3175,27.5 15,25.825 15,23.75 C15,21.675 13.3175,20 11.25,20 L11.25,20 Z M5.10489282,24.8950598 C2.20278155,24.3564274 0,21.8086656 0,18.75 L0,13.75 C0,10.3 2.8025,7.5 6.25,7.5 C7.395,7.5 8.46,6.925 9.095,5.975 L11.225,2.775 C12.3875,1.05 14.33,0 16.425,0 L34.495,0 C35.9075,0 37.295,0.475 38.4,1.375 L48.25,9.25 C48.855,9.725 49.6125,10 50.3875,10 L52.5,10 C57.37,10 60,14.5 60,18.75 C60,21.9311365 57.8720521,24.3996579 54.8931737,24.9049679 C54.3500352,27.8038273 51.8010088,30 48.75,30 C45.7302309,30 43.2053403,27.85169 42.6252989,25 L17.3745999,25 C16.7941163,27.85169 14.2675793,30 11.25,30 C8.19329957,30 5.6436563,27.7988216 5.10489282,24.8950598 Z M41.25,12.5 C41.94,12.5 42.5,11.95 42.5,11.25 C42.5,10.55 41.94,10 41.25,10 L30,10 L30,6.25 C30,5.55 29.44,5 28.75,5 C28.0575,5 27.5,5.55 27.5,6.25 L27.5,11.25 C27.5,11.95 28.0575,12.5 28.75,12.5 L41.25,12.5 Z M33.75,17.5 C34.44,17.5 35,16.95 35,16.25 C35,15.55 34.44,15 33.75,15 L31.25,15 C30.5575,15 30,15.55 30,16.25 C30,16.95 30.5575,17.5 31.25,17.5 L33.75,17.5 Z M23.75,12.5 C24.44,12.5 25,11.95 25,11.25 C25,10.55 24.44,10 23.75,10 L15.7725,10 L17.3675,6.8 C17.675,6.2 17.425,5.45 16.8075,5.125 C16.19,4.825 15.44,5.075 15.13,5.7 L12.63,10.7 C12.4375,11.075 12.4575,11.55 12.685,11.9 C12.915,12.275 13.315,12.5 13.75,12.5 L23.75,12.5 Z M48.75,20 C46.6825,20 45,21.675 45,23.75 C45,25.825 46.6825,27.5 48.75,27.5 C50.8175,27.5 52.5,25.825 52.5,23.75 C52.5,21.675 50.8175,20 48.75,20 Z" id="Combined-Shape-Copy-2" fill="#04DE47"></path>
                    </g>
                </g>
            </g>
        </g>
    </g>
</svg>