<?xml version="1.0" encoding="UTF-8"?>
<svg width="250px" height="194px" viewBox="0 0 250 169" version="1.1" xmlns="http://www.w3.org/2000/svg" xmlns:xlink="http://www.w3.org/1999/xlink">
    <!-- Generator: Sketch 50.2 (55047) - http://www.bohemiancoding.com/sketch -->
    <title>Group</title>
    <desc>Created with Sketch.</desc>
    <defs></defs>
    <g id="Page-1" stroke="none" stroke-width="1" fill="none" fill-rule="evenodd">
        <g id="Carpool-Flexibility-Copy-5" transform="translate(-348.000000, -129.000000)">
            <g id="Slide-Gallery-Copy">
                <g id="Car-Pool-Flexibility" transform="translate(350.000000, 94.000000)">
                    <g id="Group" transform="translate(0.000000, 37.000000)">
                        <path d="M111.061686,157.345075 C107.980913,154.714586 106.02831,150.805024 106.02831,146.440098 C106.02831,138.519626 112.457553,132.098746 120.388341,132.098746 C128.319129,132.098746 134.748372,138.519626 134.748372,146.440098 C134.748372,147.751323 134.572358,149.02131 134.242025,150.228043" id="Stroke-1" stroke="#4D4D4D" stroke-width="2.1" stroke-linecap="round"></path>
                        <g id="Group-6" transform="translate(168.665718, 65.469701)">
                            <path d="M3.31844552,0.116689263 L7.30588506,4.954104 C9.05867881,7.08100084 9.86001593,9.83380505 9.52198464,12.5680872 L7.6722606,27.5126303 C7.62292063,27.9131272 7.08507994,28.0092324 6.89856785,27.6510219 L0.178533713,14.7030219" id="Fill-3" fill="#04DE47"></path>
                            <path d="M3.31844552,0.116689263 L7.30588506,4.954104 C9.05867881,7.08100084 9.86001593,9.83380505 9.52198464,12.5680872 L7.6722606,27.5126303 C7.62292063,27.9131272 7.08507994,28.0092324 6.89856785,27.6510219 L0.178533713,14.7030219" id="Stroke-5" stroke="#4D4D4D" stroke-width="2.1" stroke-linejoin="round"></path>
                        </g>
                        <path d="M153.575665,112.480691 L150.811927,103.376203 C149.994143,100.68246 150.344422,97.5382451 151.705296,95.3613735 C153.35556,92.7210998 156.204331,92.7210998 157.854596,95.3613735 C159.215119,97.5382451 159.565748,100.68246 158.747964,103.376203 L155.983876,112.480691 C155.52127,114.004746 154.038271,114.004746 153.575665,112.480691" id="Fill-7" fill="#E8E8E8"></path>
                        <path d="M153.575665,112.480691 L150.811927,103.376203 C149.994143,100.68246 150.344422,97.5382451 151.705296,95.3613735 C153.35556,92.7210998 156.204331,92.7210998 157.854596,95.3613735 C159.215119,97.5382451 159.565748,100.68246 158.747964,103.376203 L155.983876,112.480691 C155.52127,114.004746 154.038271,114.004746 153.575665,112.480691 Z" id="Stroke-9" stroke="#4D4D4D" stroke-width="2.1" stroke-linecap="round"></path>
                        <g id="Group-14" transform="translate(131.223329, 65.469701)">
                            <path d="M6.46031693,0.116689263 L2.47287738,4.954104 C0.719733713,7.08100084 -0.0812534851,9.83380505 0.256777809,12.5680872 L2.10650185,27.5126303 C2.15584182,27.9131272 2.6936825,28.0092324 2.87984467,27.6510219 L9.60022873,14.7030219" id="Fill-11" fill="#04DE47"></path>
                            <path d="M6.46031693,0.116689263 L2.47287738,4.954104 C0.719733713,7.08100084 -0.0812534851,9.83380505 0.256777809,12.5680872 L2.10650185,27.5126303 C2.15584182,27.9131272 2.6936825,28.0092324 2.87984467,27.6510219 L9.60022873,14.7030219" id="Stroke-13" stroke="#4D4D4D" stroke-width="2.1" stroke-linejoin="round"></path>
                        </g>
                        <path d="M159.013245,80.9104968 L150.350406,80.9104968 C148.913598,80.9104968 147.748685,82.0738947 147.748685,83.5088337 L147.748685,84.7746274 C147.748685,86.2099158 148.913598,87.3733137 150.350406,87.3733137 L159.013245,87.3733137 C160.450053,87.3733137 161.615316,86.2099158 161.615316,84.7746274 L161.615316,83.5088337 C161.615316,82.0738947 160.450053,80.9104968 159.013245,80.9104968" id="Fill-15" fill="#E5E5E5"></path>
                        <path d="M159.013245,80.9104968 L150.350406,80.9104968 C148.913598,80.9104968 147.748685,82.0738947 147.748685,83.5088337 L147.748685,84.7746274 C147.748685,86.2099158 148.913598,87.3733137 150.350406,87.3733137 L159.013245,87.3733137 C160.450053,87.3733137 161.615316,86.2099158 161.615316,84.7746274 L161.615316,83.5088337 C161.615316,82.0738947 160.450053,80.9104968 159.013245,80.9104968 Z" id="Stroke-17" stroke="#4D4D4D" stroke-width="2.1"></path>
                        <path d="M163.060978,84.1419402 L146.534187,84.1419402 C143.71096,84.1419402 141.244662,82.2362602 140.536056,79.5068707 L139.249017,74.5530813 C134.938593,57.9551781 137.667339,40.3172413 146.792784,25.7927655 L151.43809,18.3989507 C152.992824,15.9246771 156.60234,15.9246771 158.156724,18.3989507 L162.80238,25.7927655 C171.927825,40.3172413 174.656571,57.9551781 170.345447,74.5530813 L169.059108,79.5068707 C168.350152,82.2362602 165.883854,84.1419402 163.060978,84.1419402" id="Fill-19" fill="#F7F7F7"></path>
                        <path d="M163.060978,84.1419402 L146.534187,84.1419402 C143.71096,84.1419402 141.244662,82.2362602 140.536056,79.5068707 L139.249017,74.5530813 C134.938593,57.9551781 137.667339,40.3172413 146.792784,25.7927655 L151.43809,18.3989507 C152.992824,15.9246771 156.60234,15.9246771 158.156724,18.3989507 L162.80238,25.7927655 C171.927825,40.3172413 174.656571,57.9551781 170.345447,74.5530813 L169.059108,79.5068707 C168.350152,82.2362602 165.883854,84.1419402 163.060978,84.1419402 Z" id="Stroke-21" stroke="#4D4D4D" stroke-width="2.1"></path>
                        <path d="M153.67578,66.3136451 C152.080454,70.0323945 151.519868,74.3071566 152.081154,78.4669419 L154.21537,94.2827229 C154.301453,94.9212114 155.037703,94.9163187 155.118187,94.2767819 L157.159322,78.0702893 C157.652372,74.1547861 157.154423,70.1442261 155.735461,66.5988156 L155.635032,66.3482429 C155.234713,65.3483987 154.098144,65.3284787 153.67578,66.3136451" id="Fill-23" fill="#04DE47"></path>
                        <path d="M153.67578,66.3136451 C152.080454,70.0323945 151.519868,74.3071566 152.081154,78.4669419 L154.21537,94.2827229 C154.301453,94.9212114 155.037703,94.9163187 155.118187,94.2767819 L157.159322,78.0702893 C157.652372,74.1547861 157.154423,70.1442261 155.735461,66.5988156 L155.635032,66.3482429 C155.234713,65.3483987 154.098144,65.3284787 153.67578,66.3136451 Z" id="Stroke-25" stroke="#4D4D4D" stroke-width="2.1" stroke-linejoin="round"></path>
                        <path d="M164.619596,47.9045246 C164.619596,42.4230299 160.17025,37.9798215 154.681966,37.9798215 C149.193331,37.9798215 144.743985,42.4230299 144.743985,47.9045246 C144.743985,53.3860194 149.193331,57.8292278 154.681966,57.8292278 C160.17025,57.8292278 164.619596,53.3860194 164.619596,47.9045246" id="Fill-27" fill="#04DE47"></path>
                        <path d="M164.619596,47.9045246 C164.619596,42.4230299 160.17025,37.9798215 154.681966,37.9798215 C149.193331,37.9798215 144.743985,42.4230299 144.743985,47.9045246 C144.743985,53.3860194 149.193331,57.8292278 154.681966,57.8292278 C160.17025,57.8292278 164.619596,53.3860194 164.619596,47.9045246 Z" id="Stroke-29" stroke="#4D4D4D" stroke-width="2.1"></path>
                        <path d="M161.615141,47.9045246 C161.615141,44.0802341 158.511272,40.9804025 154.682001,40.9804025 C150.852729,40.9804025 147.74851,44.0802341 147.74851,47.9045246 C147.74851,51.7288152 150.852729,54.8286467 154.682001,54.8286467 C158.511272,54.8286467 161.615141,51.7288152 161.615141,47.9045246" id="Fill-31" fill="#BABABA"></path>
                        <g id="Group-36" transform="translate(155.368421, 44.850754)">
                            <path d="M0.0139621622,7.77439158 C2.292699,7.40954105 4.03324523,5.43711158 4.03324523,3.05824421 C4.03324523,1.97173053 3.67001906,0.969789474 3.05799346,0.167397895" id="Fill-33" fill="#BABABA"></path>
                            <path d="M0.0139621622,7.77439158 C2.292699,7.40954105 4.03324523,5.43711158 4.03324523,3.05824421 C4.03324523,1.97173053 3.67001906,0.969789474 3.05799346,0.167397895" id="Stroke-35" stroke="#FFFFFF" stroke-width="1.4" stroke-linecap="round"></path>
                        </g>
                        <g id="Group-40" transform="translate(150.469417, 50.442333)">
                            <path d="M0.17559431,0.125216421 C0.345659744,0.378584842 0.53987027,0.614829053 0.754026743,0.830803789 C1.04726714,1.12575958 1.37864979,1.38297221 1.74047624,1.59405432" id="Fill-37" fill="#BABABA"></path>
                            <path d="M0.17559431,0.125216421 C0.345659744,0.378584842 0.53987027,0.614829053 0.754026743,0.830803789 C1.04726714,1.12575958 1.37864979,1.38297221 1.74047624,1.59405432" id="Stroke-39" stroke="#FFFFFF" stroke-width="1.4" stroke-linecap="round"></path>
                        </g>
                        <g id="Group-44" transform="translate(158.867710, 122.433912)">
                            <path d="M0.197464865,0.118052211 L0.197464865,17.9219891" id="Fill-41" fill="#E8E8E8"></path>
                            <path d="M0.197464865,0.118052211 L0.197464865,17.9219891" id="Stroke-43" stroke="#4D4D4D" stroke-width="2.1" stroke-linecap="round"></path>
                        </g>
                        <g id="Group-48" transform="translate(158.867710, 116.842333)">
                            <path d="M0.197464865,0.231701053 L0.197464865,2.62804211" id="Fill-45" fill="#E8E8E8"></path>
                            <path d="M0.197464865,0.231701053 L0.197464865,2.62804211" id="Stroke-47" stroke="#4D4D4D" stroke-width="2.1" stroke-linecap="round"></path>
                        </g>
                        <g id="Group-52" transform="translate(150.119488, 116.143385)">
                            <path d="M0.0320534851,0.24568 L0.0320534851,20.4463074" id="Fill-49" fill="#E8E8E8"></path>
                            <path d="M0.0320534851,0.24568 L0.0320534851,20.4463074" id="Stroke-51" stroke="#4D4D4D" stroke-width="2.1" stroke-linecap="round"></path>
                        </g>
                        <g id="Group-56" transform="translate(145.920341, 132.219175)">
                            <path d="M0.315005974,0.249803789 L0.315005974,15.6696312" id="Fill-53" fill="#E8E8E8"></path>
                            <path d="M0.315005974,0.249803789 L0.315005974,15.6696312" id="Stroke-55" stroke="#4D4D4D" stroke-width="2.1" stroke-linecap="round"></path>
                        </g>
                        <g id="Group-60" transform="translate(153.268848, 124.880227)">
                            <path d="M0.311261735,0.0685667368 L0.311261735,8.97070989" id="Fill-57" fill="#E8E8E8"></path>
                            <path d="M0.311261735,0.0685667368 L0.311261735,8.97070989" id="Stroke-59" stroke="#4D4D4D" stroke-width="2.1" stroke-linecap="round"></path>
                        </g>
                        <path d="M161.048222,146.021288 C162.566913,141.708783 166.681377,138.617339 171.518793,138.617339 C173.177106,138.617339 174.750737,138.980792 176.163749,139.632211" id="Stroke-61" stroke="#4D4D4D" stroke-width="2.1" stroke-linecap="round"></path>
                        <path d="M162.273987,155.830805 C161.760992,155.061264 161.342127,154.223576 161.03314,153.335213 C160.925362,153.02558 160.831231,152.708957 160.750747,152.387441" id="Stroke-63" stroke="#4D4D4D" stroke-width="2.1" stroke-linecap="round"></path>
                        <path d="M134.470354,143.188664 C135.192607,143.040837 135.940405,142.963254 136.706749,142.963254 C142.834704,142.963254 147.802994,147.925081 147.802994,154.045064 C147.802994,155.879102 147.356834,157.608648 146.567395,159.131654" id="Stroke-65" stroke="#4D4D4D" stroke-width="2.1" stroke-linecap="round"></path>
                        <path d="M173.911852,148.395613 C173.911852,139.155179 181.412927,131.664211 190.665397,131.664211 C199.917866,131.664211 207.418592,139.155179 207.418592,148.395613 C207.418592,149.771491 207.252376,151.108577 206.938839,152.387651" id="Stroke-67" stroke="#4D4D4D" stroke-width="2.1" stroke-linecap="round"></path>
                        <g id="Group-72" transform="translate(162.366999, 130.471806)">
                            <path d="M0.179338549,0.337486737 L0.179338549,12.4914825" id="Fill-69" fill="#E8E8E8"></path>
                            <path d="M0.179338549,0.337486737 L0.179338549,12.4914825" id="Stroke-71" stroke="#4D4D4D" stroke-width="2.1" stroke-linecap="round"></path>
                        </g>
                        <path d="M198.065483,156.286763 C199.814777,153.999808 202.573966,152.52398 205.678185,152.52398 C210.964911,152.52398 215.25119,156.804683 215.25119,162.085231 C215.25119,163.040342 215.110868,163.963302 214.849821,164.833492" id="Stroke-73" stroke="#4D4D4D" stroke-width="2.1" stroke-linecap="round"></path>
                        <path d="M55.4001098,164.643064 L45.1006532,164.643064 C45.0894555,161.804289 44.7647215,159.427868 44.7251795,157.141611 C44.5610629,147.802975 44.5988552,140.859283 46.9787215,135.387573 C49.0761952,130.56868 63.7158196,125.325527 69.4483545,122.821897 C70.2283459,124.614697 72.6026134,127.823565 79.5333047,127.823565 C87.2894782,127.823565 89.3362122,124.761476 89.83906,122.810365 C96.9275693,124.885889 110.597891,131.31271 112.700963,136.137893 C115.08083,141.609603 113.853629,147.634878 113.689862,156.973514 C113.65032,159.259771 113.60483,161.804289 113.593632,164.643064 L104.582613,164.643064 L55.4001098,164.643064 Z" id="Fill-75" fill="#F7F7F7"></path>
                        <path d="M104.063109,128.26163 C104.063109,128.26163 110.072088,136.888038 110.823035,143.639171 C111.574332,150.390304 111.574332,163.892918 111.761894,165.018224 C111.949806,166.143179 114.954295,164.643238 114.954295,164.643238 L114.954295,157.141786 L114.203348,141.013575 L112.32528,133.887457 L104.063109,128.26163 Z" id="Fill-77" fill="#C1C1C1"></path>
                        <path d="M113.593562,164.497333 C113.60476,161.77039 113.65025,157.825531 113.689792,155.629438 C113.853559,146.658099 113.944191,141.717939 111.563974,136.461855 C109.460902,131.826786 95.5543784,125.209851 89.83899,122.810365 C89.9576159,122.358845 89.991909,121.969181 89.991909,121.69799 L89.991909,120.010032 C90.1388791,120.015624 90.2858492,120.049173 90.4268706,120.106137 C92.5243442,120.964095 111.015986,128.721363 114.006478,135.315931 C116.646691,141.142356 116.544862,146.613017 116.380745,155.680461 C116.335605,158.226727 116.278916,161.10604 116.278916,164.363485 C116.278916,165.120095 115.679838,165.735518 114.93344,165.735518" id="Fill-79" fill="#4D4E4E"></path>
                        <path d="M44.3763354,165.735518 C43.6299371,165.735518 43.0308589,165.120095 43.0308589,164.363485 C43.0308589,161.10604 42.9801192,158.226727 42.9290296,155.680461 C42.7652629,146.613017 42.6630836,141.142356 45.303297,135.315931 C48.2937892,128.721363 66.7854307,120.964095 68.8825545,120.106137 C68.9507906,120.07783 69.012728,120.055114 69.0750154,120.03799 L69.0750154,121.69799 C69.0750154,121.69799 69.1425516,122.155451 69.4480395,122.821548 C63.7158546,125.226626 49.8429243,131.832377 47.7454506,136.461855 C45.3655844,141.717939 45.4562159,146.658099 45.6199826,155.629438 C45.6595246,157.825531 45.7046654,162.52071 45.7162131,165.247653" id="Fill-81" fill="#4D4E4E"></path>
                        <path d="M55.3997599,165.774764 C54.6190686,165.774764 53.9863972,165.142916 53.9863972,164.363589 L53.9863972,159.163771 C53.9863972,158.384095 54.6190686,157.752246 55.3997599,157.752246 C56.1801013,157.752246 56.8131226,158.384095 56.8131226,159.163771 L56.8131226,164.363589 C56.8131226,165.142916 56.1801013,165.774764 55.3997599,165.774764" id="Fill-83" fill="#4D4E4E"></path>
                        <path d="M104.222012,165.774764 C103.44167,165.774764 102.808649,165.142916 102.808649,164.363589 L102.808649,159.163771 C102.808649,158.384095 103.44167,157.752246 104.222012,157.752246 C105.002353,157.752246 105.635374,158.384095 105.635374,159.163771 L105.635374,164.363589 C105.635374,165.142916 105.002353,165.774764 104.222012,165.774764" id="Fill-85" fill="#4D4E4E"></path>
                        <path d="M135.169896,48.7097819 L133.362514,1.33268295 C133.351316,1.15095663 131.840673,1.15794611 131.838224,1.33967242 L131.911709,48.5986493 L135.169896,48.7097819 Z" id="Fill-87" fill="#D0DEE3"></path>
                        <path d="M135.169896,48.7097819 L133.362514,1.33268295 C133.351316,1.15095663 131.840673,1.15794611 131.838224,1.33967242 L131.911709,48.5986493 L135.169896,48.7097819 Z" id="Stroke-89" stroke="#4D4D4D" stroke-width="2.1"></path>
                        <path d="M132.654783,89.2427533 L124.486043,89.2427533 C120.237556,89.2427533 116.761363,85.7710817 116.761363,81.5281217 L116.761363,48.5248754 C116.761363,44.2819154 120.237556,40.8105933 124.486043,40.8105933 L132.654783,40.8105933 C135.840885,40.8105933 137.960754,41.9338017 139.745391,44.9074733 C140.813024,46.6873427 141.468791,48.6835364 141.781628,50.7349469 L142.667298,56.5452964 C143.351409,61.9383743 143.225084,68.0503196 142.532225,73.4423491 L141.444996,81.9017091 C139.959898,85.8780206 136.903619,89.2427533 132.654783,89.2427533" id="Fill-91" fill="#D8D8D8"></path>
                        <path d="M132.654783,89.2427533 L124.486043,89.2427533 C120.237556,89.2427533 116.761363,85.7710817 116.761363,81.5281217 L116.761363,48.5248754 C116.761363,44.2819154 120.237556,40.8105933 124.486043,40.8105933 L132.654783,40.8105933 C135.840885,40.8105933 137.960754,41.9338017 139.745391,44.9074733 C140.813024,46.6873427 141.468791,48.6835364 141.781628,50.7349469 L142.667298,56.5452964 C143.351409,61.9383743 143.225084,68.0503196 142.532225,73.4423491 L141.444996,81.9017091 C139.959898,85.8780206 136.903619,89.2427533 132.654783,89.2427533 Z" id="Stroke-93" stroke="#4D4D4D" stroke-width="2.1"></path>
                        <path d="M124.486113,89.2427533 L132.654853,89.2427533 C136.903339,89.2427533 139.959968,85.8780206 141.445066,81.9017091 L142.531945,73.4423491 C142.561689,73.2134438 142.584084,72.9765006 142.611379,72.7451491 C138.989615,79.0706227 134.647348,83.6232164 126.200764,80.7376122 C121.737072,79.2125091 118.852958,80.6771533 116.992386,83.3607617 C117.822767,86.7251448 120.870298,89.2427533 124.486113,89.2427533" id="Fill-95" fill="#C1C1C1"></path>
                        <path d="M132.654783,89.2427533 L124.486043,89.2427533 C120.237556,89.2427533 116.761363,85.7710817 116.761363,81.5281217 L116.761363,48.5248754 C116.761363,44.2819154 120.237556,40.8105933 124.486043,40.8105933 L132.654783,40.8105933 C135.840885,40.8105933 137.960754,41.9338017 139.745391,44.9074733 C140.813024,46.6873427 141.468791,48.6835364 141.781628,50.7349469 L142.667298,56.5452964 C143.351409,61.9383743 143.225084,68.0503196 142.532225,73.4423491 L141.444996,81.9017091 C140.867613,85.8787196 136.903619,89.2427533 132.654783,89.2427533 Z" id="Stroke-97" stroke="#4D4D4D" stroke-width="2.1"></path>
                        <path d="M27.9624666,89.2427533 L36.1312063,89.2427533 C40.3796927,89.2427533 43.8558862,85.7710817 43.8558862,81.5281217 L43.8558862,48.5248754 C43.8558862,44.2819154 40.3796927,40.8105933 36.1312063,40.8105933 L27.9624666,40.8105933 C24.7763642,40.8105933 22.656495,41.9338017 20.8722077,44.9074733 C19.8042248,46.6873427 19.148458,48.6835364 18.8356216,50.7349469 L17.9499516,56.5452964 C17.2658407,61.9383743 17.392165,68.0503196 18.0850242,73.4423491 L19.1726031,81.9017091 C20.6577013,85.8780206 23.7139801,89.2427533 27.9624666,89.2427533" id="Fill-99" fill="#EAEAEA"></path>
                        <path d="M27.9624666,89.2427533 L36.1312063,89.2427533 C40.3796927,89.2427533 43.8558862,85.7710817 43.8558862,81.5281217 L43.8558862,48.5248754 C43.8558862,44.2819154 40.3796927,40.8105933 36.1312063,40.8105933 L27.9624666,40.8105933 C24.7763642,40.8105933 22.656495,41.9338017 20.8722077,44.9074733 C19.8042248,46.6873427 19.148458,48.6835364 18.8356216,50.7349469 L17.9499516,56.5452964 C17.2658407,61.9383743 17.392165,68.0503196 18.0850242,73.4423491 L19.1726031,81.9017091 C20.6577013,85.8780206 23.7139801,89.2427533 27.9624666,89.2427533 Z" id="Stroke-101" stroke="#4D4D4D" stroke-width="2.1"></path>
                        <path d="M36.1311363,89.2427533 L27.9623966,89.2427533 C23.71426,89.2427533 20.6576313,85.8780206 19.1725331,81.9017091 L18.0853041,73.4423491 C18.0559101,73.2134438 18.0335147,72.9765006 18.0062202,72.7451491 C21.6276341,79.0706227 25.9699016,83.6232164 34.4168347,80.7376122 C38.8805275,79.2125091 41.7646413,80.6771533 43.6252131,83.3607617 C42.7948319,86.7251448 39.7469514,89.2427533 36.1311363,89.2427533" id="Fill-103" fill="#DBDBDB"></path>
                        <path d="M27.9624666,89.2427533 L36.1312063,89.2427533 C40.3796927,89.2427533 43.8558862,85.7710817 43.8558862,81.5281217 L43.8558862,48.5248754 C43.8558862,44.2819154 40.3796927,40.8105933 36.1312063,40.8105933 L27.9624666,40.8105933 C24.7763642,40.8105933 22.656495,41.9338017 20.8722077,44.9074733 C19.8042248,46.6873427 19.148458,48.6835364 18.8356216,50.7349469 L17.9499516,56.5452964 C17.2658407,61.9383743 17.392165,68.0503196 18.0850242,73.4423491 L19.1726031,81.9017091 C19.9385974,85.8787196 23.7139801,89.2427533 27.9624666,89.2427533 Z" id="Stroke-105" stroke="#4D4D4D" stroke-width="2.1"></path>
                        <path d="M101.158454,116.672349 L101.158454,108.514584 C101.158454,104.271624 98.0244913,100.799953 94.1938199,100.799953 L64.3984259,100.799953 C60.5681044,100.799953 57.4337915,91.8796371 57.4337915,96.1225971 L57.4337915,116.672349 C57.4337915,119.854656 58.4478853,121.971768 61.1328896,123.753734 C62.739763,124.820328 64.5415468,125.475241 66.3937203,125.787671 L71.6395041,126.672189 C76.5080646,127.35541 82.026093,127.22925 86.8936037,126.537292 L94.5311514,124.83186 C98.1207218,123.348694 101.158454,120.915658 101.158454,116.672349" id="Fill-107" fill="#04DE47"></path>
                        <path d="M101.158454,116.672349 L101.158454,108.514584 C101.158454,104.271624 98.0244913,100.799953 94.1938199,100.799953 L64.3984259,100.799953 C60.5681044,100.799953 57.4337915,91.8796371 57.4337915,96.1225971 L57.4337915,116.672349 C57.4337915,119.854656 58.4478853,121.971768 61.1328896,123.753734 C62.739763,124.820328 64.5415468,125.475241 66.3937203,125.787671 L71.6395041,126.672189 C76.5080646,127.35541 82.026093,127.22925 86.8936037,126.537292 L94.5311514,124.83186 C98.1207218,123.348694 101.158454,120.915658 101.158454,116.672349 Z" id="Stroke-109" stroke="#4D4D4D" stroke-width="2.1"></path>
                        <path d="M101.158454,116.672349 L101.158454,108.514584 C101.158454,105.13762 99.1705084,102.25586 96.4291656,101.217574 L91.9490262,105.179557 C91.9490262,105.179557 79.5870888,113.799675 82.1979081,114.729275 C84.8087275,115.658875 88.5673135,117.345085 89.5331172,121.854694 C89.7945141,123.075056 89.9355354,124.313591 90.0251172,125.837995 L94.5311514,124.83186 C98.1207218,123.348694 101.158454,120.915658 101.158454,116.672349" id="Fill-111" fill="#11B740"></path>
                        <path d="M101.158454,116.672349 L101.158454,108.514584 C101.158454,104.271624 98.0244913,100.799953 94.1938199,100.799953 L64.3984259,100.799953 C60.5681044,100.799953 57.4337915,91.8796371 57.4337915,96.1225971 L57.4337915,116.672349 C57.4337915,119.854656 58.4478853,121.971768 61.1328896,123.753734 C62.739763,124.820328 64.5415468,125.475241 66.3937203,125.787671 L71.6395041,126.672189 C76.5080646,127.35541 81.9050176,127.511624 86.8936037,126.537292 L94.5311514,124.83186 C99.1810063,123.760723 101.158454,120.915658 101.158454,116.672349 Z" id="Stroke-113" stroke="#4D4D4D" stroke-width="2.1"></path>
                        <path d="M135.169896,64.4925726 C135.169896,95.0201474 110.390383,119.767427 79.8230458,119.767427 C49.2557087,119.767427 24.4761952,95.0201474 24.4761952,64.4925726 C24.4761952,33.9649979 49.2557087,9.21771789 79.8230458,9.21771789 C110.390383,9.21771789 135.169896,33.9649979 135.169896,64.4925726" id="Fill-115" fill="#F7F7F7"></path>
                        <path d="M135.169896,64.4925726 C135.169896,95.0201474 110.390383,119.767427 79.8230458,119.767427 C49.2557087,119.767427 24.4761952,95.0201474 24.4761952,64.4925726 C24.4761952,33.9649979 49.2557087,9.21771789 79.8230458,9.21771789 C110.390383,9.21771789 135.169896,33.9649979 135.169896,64.4925726 Z" id="Stroke-117" stroke="#4D4D4D" stroke-width="2.1"></path>
                        <g id="Group-122" transform="translate(79.783784, 9.204438)">
                            <path d="M0.038912091,110.562989 C30.6065991,110.562989 55.3861127,85.8157095 55.3861127,55.2881347 C55.3861127,24.76056 30.6065991,0.01328 0.038912091,0.01328" id="Fill-119" fill="#E5E5E5"></path>
                            <path d="M0.038912091,110.562989 C30.6065991,110.562989 55.3861127,85.8157095 55.3861127,55.2881347 C55.3861127,24.76056 30.6065991,0.01328 0.038912091,0.01328" id="Stroke-121" stroke="#4D4D4D" stroke-width="2.1" stroke-linecap="round" stroke-linejoin="round"></path>
                        </g>
                        <path d="M39.4199078,56.5456459 C39.4678578,56.3024122 39.5179078,56.0598775 39.5704078,55.8176922 C39.5182578,56.0598775 39.4678578,56.3020627 39.4199078,56.5456459" id="Fill-123" fill="#ACBBBC"></path>
                        <path d="M39.8159573,54.7540691 C39.8754573,54.5101364 39.9314573,54.2644564 39.9955073,54.0219217 C39.9318073,54.2644564 39.8754573,54.5097869 39.8159573,54.7540691" id="Fill-125" fill="#ACBBBC"></path>
                        <path d="M40.4252535,52.5104829 C40.5176535,52.2078387 40.6181035,51.9090387 40.7171535,51.6095398 C40.6181035,51.9093882 40.5176535,52.2078387 40.4252535,52.5104829" id="Fill-127" fill="#ACBBBC"></path>
                        <path d="M42.5220973,47.0664867 C42.7019607,46.6838131 42.8898725,46.306032 43.0809337,45.9299983 C42.8898725,46.306032 42.7019607,46.6838131 42.5220973,47.0664867" id="Fill-129" fill="#ACBBBC"></path>
                        <path d="M40.9634791,50.8820404 C41.0782791,50.555632 41.1955291,50.2306215 41.3183791,49.9084067 C41.1955291,50.2309709 41.0779291,50.555632 40.9634791,50.8820404" id="Fill-131" fill="#ACBBBC"></path>
                        <path d="M81.8187252,23.4176375 C82.277132,23.4396875 82.734489,23.4785375 83.1918461,23.5156375 C82.7351889,23.4788875 82.2792316,23.4396875 81.8187252,23.4176375" id="Fill-133" fill="#ACBBBC"></path>
                        <path d="M41.5303989,49.3715103 C41.8309878,48.6135019 42.1501229,47.8645798 42.4937531,47.1296366 C42.1501229,47.8649293 41.8306378,48.6131524 41.5303989,49.3715103" id="Fill-135" fill="#ACBBBC"></path>
                        <path d="M39.1061966,58.3288733 C39.1306966,58.1647233 39.1618466,58.0023233 39.1884466,57.8388733 C39.1618466,58.0026733 39.1306966,58.1643733 39.1061966,58.3288733" id="Fill-137" fill="#ACBBBC"></path>
                        <path d="M38.879978,68.8795857 C38.860378,68.6982088 38.846028,68.5154341 38.828878,68.3333583 C38.846028,68.5154341 38.860728,68.6982088 38.879978,68.8795857" id="Fill-139" fill="#ACBBBC"></path>
                        <path d="M39.1889016,71.1483389 C39.1623016,70.9841889 39.1311516,70.8214389 39.1063016,70.6569389 C39.1308016,70.8217889 39.1623016,70.9841889 39.1889016,71.1483389" id="Fill-141" fill="#ACBBBC"></path>
                        <path d="M38.7234857,66.9441655 C38.7126357,66.7582455 38.7007357,66.5723255 38.6923357,66.3857065 C38.7007357,66.5726749 38.7126357,66.7582455 38.7234857,66.9441655" id="Fill-143" fill="#ACBBBC"></path>
                        <path d="M38.8290529,60.6507385 C38.8462029,60.4690122 38.8605529,60.2872859 38.8801529,60.106608 C38.8605529,60.2872859 38.8462029,60.4690122 38.8290529,60.6507385" id="Fill-145" fill="#ACBBBC"></path>
                        <path d="M38.6923707,62.5992989 C38.7004207,62.41268 38.7126707,62.2271095 38.7235207,62.04084 C38.7126707,62.2271095 38.7004207,62.41268 38.6923707,62.5992989" id="Fill-147" fill="#ACBBBC"></path>
                        <path d="M104.337873,31.4499057 C104.559728,31.6145078 104.777034,31.7878467 104.996089,31.9573415 C104.777034,31.7878467 104.560778,31.6148573 104.337873,31.4499057" id="Fill-149" fill="#ACBBBC"></path>
                        <path d="M99.2420339,28.2237743 C99.4736868,28.3476743 99.7025403,28.4789243 99.9327935,28.6077243 C99.7028902,28.4789243 99.4743866,28.3483743 99.2420339,28.2237743" id="Fill-151" fill="#ACBBBC"></path>
                        <path d="M95.5424808,26.4774194 C95.8584666,26.6076194 96.171303,26.7472694 96.4844893,26.8855194 C96.1720028,26.7469194 95.8591664,26.6086694 95.5424808,26.4774194" id="Fill-153" fill="#ACBBBC"></path>
                        <path d="M101.005011,29.2230244 C101.214268,29.3486744 101.420376,29.4813244 101.627534,29.6108244 C101.420376,29.4813244 101.214968,29.3490244 101.005011,29.2230244" id="Fill-155" fill="#ACBBBC"></path>
                        <path d="M97.4185895,27.3065457 C97.6873349,27.4332457 97.9525809,27.5679957 98.2192267,27.7013457 C97.9529309,27.5679957 97.6880347,27.4339457 97.4185895,27.3065457" id="Fill-157" fill="#ACBBBC"></path>
                        <path d="M102.70339,30.2992636 C102.908099,30.4361136 103.108958,30.5806636 103.311567,30.7217136 C103.108958,30.5806636 102.908799,30.4368136 102.70339,30.2992636" id="Fill-159" fill="#ACBBBC"></path>
                        <path d="M39.5703029,73.167488 C39.5181529,72.9253027 39.4677529,72.6824185 39.4194529,72.4384859 C39.4674029,72.6824185 39.5185029,72.9249533 39.5703029,73.167488" id="Fill-161" fill="#ACBBBC"></path>
                        <path d="M83.8198634,23.563368 C84.3055647,23.610268 84.7895164,23.672918 85.273468,23.737318 C84.7905661,23.673268 84.3080142,23.610268 83.8198634,23.563368" id="Fill-163" fill="#ACBBBC"></path>
                        <path d="M85.8008458,23.8038059 C86.2924959,23.8755559 86.7823963,23.9620059 87.2715969,24.0516059 C86.783796,23.9623559 86.2945954,23.8759059 85.8008458,23.8038059" id="Fill-165" fill="#ACBBBC"></path>
                        <path d="M87.7716102,24.1403141 C88.2524125,24.2344641 88.7311152,24.3426141 89.2091181,24.4539141 C88.7325149,24.3426141 88.2545121,24.2348141 87.7716102,24.1403141" id="Fill-167" fill="#ACBBBC"></path>
                        <path d="M91.6881542,25.1083562 C92.1028199,25.2326062 92.5143363,25.3687562 92.9258526,25.5066562 C92.5153861,25.3687562 92.1042196,25.2333062 91.6881542,25.1083562" id="Fill-169" fill="#ACBBBC"></path>
                        <path d="M89.7334515,24.5742556 C90.1880091,24.6862556 90.6394174,24.8115556 91.0904757,24.9393056 C90.6408171,24.8115556 90.1897587,24.6869556 89.7334515,24.5742556" id="Fill-171" fill="#ACBBBC"></path>
                        <path d="M93.6281249,25.7433149 C93.9948504,25.8735149 94.3584265,26.0138649 94.7220026,26.1549149 C94.3591263,26.0138649 93.9959001,25.8742149 93.6281249,25.7433149" id="Fill-173" fill="#ACBBBC"></path>
                        <path d="M39.9954023,74.9628042 C39.9313523,74.7206189 39.8757023,74.4756379 39.8158523,74.2317053 C39.8753523,74.4756379 39.9317023,74.7206189 39.9954023,74.9628042" id="Fill-175" fill="#ACBBBC"></path>
                        <path d="M106.81369,95.5373684 C106.532697,95.7809516 106.254853,96.0290779 105.969312,96.2639242 C106.256253,96.0280295 106.533047,95.7806021 106.81369,95.5373684" id="Fill-177" fill="#ACBBBC"></path>
                        <path d="M104.986466,97.0352825 C104.788057,97.1889325 104.592096,97.3485325 104.391587,97.4976325 C104.593146,97.3478325 104.787707,97.1889325 104.986466,97.0352825" id="Fill-179" fill="#ACBBBC"></path>
                        <path d="M101.626274,99.3754282 C101.434863,99.4954782 101.244852,99.6193782 101.051691,99.7355782 C101.245552,99.6186782 101.434513,99.4954782 101.626274,99.3754282" id="Fill-181" fill="#ACBBBC"></path>
                        <path d="M103.297989,98.2737823 C103.116026,98.4001323 102.936863,98.5313823 102.75315,98.6545823 C102.937563,98.5306823 103.115677,98.4001323 103.297989,98.2737823" id="Fill-183" fill="#ACBBBC"></path>
                        <path d="M98.2527149,101.267514 C97.9878188,101.399814 97.7243223,101.535264 97.4576765,101.661614 C97.7253721,101.534564 97.9881687,101.400164 98.2527149,101.267514" id="Fill-185" fill="#ACBBBC"></path>
                        <path d="M105.912553,32.6764884 C106.178149,32.8942105 106.437446,33.1231158 106.698843,33.3485263 C106.437796,33.1234653 106.179549,32.8949095 105.912553,32.6764884" id="Fill-187" fill="#ACBBBC"></path>
                        <path d="M113.187574,88.5837507 C113.01191,88.8266349 112.836946,89.0695192 112.655333,89.3092581 C112.836596,89.0705676 113.01121,88.8266349 113.187574,88.5837507" id="Fill-189" fill="#ACBBBC"></path>
                        <path d="M119.256395,76.3497604 C119.142295,76.7296383 119.017695,77.1070699 118.892395,77.4845015 C119.017695,77.1077688 119.141595,76.7310362 119.256395,76.3497604" id="Fill-191" fill="#ACBBBC"></path>
                        <path d="M120.563803,70.4697958 C120.502553,70.8884653 120.428353,71.3053874 120.354503,71.7223095 C120.428353,71.3060863 120.502553,70.8902126 120.563803,70.4697958" id="Fill-193" fill="#ACBBBC"></path>
                        <path d="M114.257517,87.0370501 C114.074854,87.3159301 113.887642,87.5923638 113.697281,87.8673996 C113.887642,87.5934122 114.073804,87.3162796 114.257517,87.0370501" id="Fill-195" fill="#ACBBBC"></path>
                        <path d="M96.5300851,102.07976 C96.2140993,102.21976 95.8988134,102.36186 95.5800282,102.49381 C95.8995132,102.36116 96.2147991,102.21976 96.5300851,102.07976" id="Fill-197" fill="#ACBBBC"></path>
                        <path d="M111.740803,90.4713629 C111.613403,90.6281629 111.481803,90.7828629 111.351253,90.9379129 C111.481803,90.7828629 111.612703,90.6285129 111.740803,90.4713629" id="Fill-199" fill="#ACBBBC"></path>
                        <path d="M108.969637,93.5425726 C108.486385,94.0258947 107.994385,94.4948884 107.493287,94.9488547 C107.997184,94.4924421 108.489184,94.0230989 108.969637,93.5425726" id="Fill-201" fill="#ACBBBC"></path>
                        <path d="M99.9480504,100.368912 C99.7268953,100.492812 99.5074899,100.620562 99.2845852,100.740262 C99.5081898,100.619862 99.7268953,100.492812 99.9480504,100.368912" id="Fill-203" fill="#ACBBBC"></path>
                        <path d="M43.0811787,83.0559857 C42.8897676,82.6796025 42.7018558,82.3011225 42.5219923,81.9180994 C42.7018558,82.3011225 42.8901175,82.6792531 43.0811787,83.0559857" id="Fill-205" fill="#ACBBBC"></path>
                        <path d="M94.7773613,102.809077 C94.4064367,102.953277 94.0362119,103.097827 93.6617881,103.230827 C94.0372617,103.097127 94.4074865,102.953277 94.7773613,102.809077" id="Fill-207" fill="#ACBBBC"></path>
                        <path d="M45.3533368,86.9820779 C44.5904919,85.8183305 43.8874848,84.6126463 43.2432657,83.3713158 C43.8871349,84.6133453 44.5904919,85.8179811 45.3533368,86.9820779" id="Fill-209" fill="#ACBBBC"></path>
                        <path d="M41.3179241,79.0759347 C41.1950741,78.75372 41.0781741,78.4290589 40.9633741,78.103 C41.0778241,78.4290589 41.1954241,78.75372 41.3179241,79.0759347" id="Fill-211" fill="#ACBBBC"></path>
                        <path d="M40.7171535,77.3758501 C40.6181035,77.0763512 40.5176535,76.7775512 40.4252535,76.4749069 C40.5176535,76.7775512 40.6181035,77.0763512 40.7171535,77.3758501" id="Fill-213" fill="#ACBBBC"></path>
                        <path d="M83.2768788,105.46291 C82.7922273,105.50351 82.3075758,105.54376 81.8225744,105.56756 C82.3103752,105.54411 82.7932771,105.50316 83.2768788,105.46291" id="Fill-215" fill="#ACBBBC"></path>
                        <path d="M42.4957826,81.8597722 C42.1514526,81.1241301 41.8323175,80.3741596 41.5310287,79.6154522 C41.8319676,80.3745091 42.1518026,81.1237806 42.4957826,81.8597722" id="Fill-217" fill="#ACBBBC"></path>
                        <path d="M91.1615462,104.026119 C90.6947411,104.159119 90.2275861,104.289669 89.7576316,104.405869 C90.2296856,104.288969 90.6961408,104.159119 91.1615462,104.026119" id="Fill-219" fill="#ACBBBC"></path>
                        <path d="M92.9897846,103.457525 C92.5670706,103.599625 92.1440065,103.741025 91.7177932,103.869125 C92.1457562,103.739975 92.5681203,103.599625 92.9897846,103.457525" id="Fill-221" fill="#ACBBBC"></path>
                        <path d="M85.3497875,105.238339 C84.8430905,105.306589 84.3363935,105.372039 83.8275969,105.421389 C84.338493,105.372039 84.8444902,105.306239 85.3497875,105.238339" id="Fill-223" fill="#ACBBBC"></path>
                        <path d="M89.2847727,104.514474 C88.7878737,104.631024 88.2906248,104.743724 87.7905764,104.842074 C88.2927243,104.743374 88.7892734,104.630674 89.2847727,104.514474" id="Fill-225" fill="#ACBBBC"></path>
                        <path d="M87.3478464,104.920283 C86.838,105.014783 86.3274538,105.104733 85.814808,105.179983 C86.3299033,105.104733 86.8393997,105.014433 87.3478464,104.920283" id="Fill-227" fill="#ACBBBC"></path>
                        <path d="M110.526961,91.8877099 C110.410411,92.0182599 110.294911,92.1495099 110.176611,92.2790099 C110.294911,92.1498599 110.410061,92.0182599 110.526961,91.8877099" id="Fill-229" fill="#ACBBBC"></path>
                        <path d="M79.8230108,100.299961 C65.8975912,100.299961 53.4789653,95.1043356 45.3560663,86.9857124 C52.7101716,98.2024198 65.3957932,105.617902 79.8230108,105.617902 C80.2723195,105.617902 80.717429,105.598331 81.1632384,105.584003 C80.7167292,105.598331 80.26987,105.615805 79.8230108,105.615805 L79.8230108,100.299961 Z" id="Fill-231" fill="#FFFFFF"></path>
                        <path d="M119.952434,73.7026021 C120.048334,73.2825347 120.143534,72.8624674 120.226484,72.4375074 C120.143884,72.86072 120.049034,73.2818358 119.952434,73.7026021" id="Fill-233" fill="#ACBBBC"></path>
                        <path d="M119.464774,75.6167044 C119.593924,75.157496 119.717124,74.6958413 119.830524,74.2303423 C119.808124,74.3198076 119.787124,74.4092728 119.764374,74.4987381 C119.670924,74.8730244 119.569424,75.2452139 119.464774,75.6167044" id="Fill-235" fill="#ACBBBC"></path>
                        <path d="M120.320105,57.0706952 C120.403755,57.5250109 120.486005,57.9793267 120.553555,58.4357394 C120.486005,57.9772299 120.403055,57.5239625 120.320105,57.0706952" id="Fill-237" fill="#ACBBBC"></path>
                        <path d="M118.240372,79.2986194 C118.393672,78.9019667 118.542072,78.5032173 118.683822,78.1006236 C118.612072,78.2994741 118.539622,78.4976257 118.466472,78.6957773 C118.392972,78.8970741 118.317372,79.0980215 118.240372,79.2986194" id="Fill-239" fill="#ACBBBC"></path>
                        <path d="M79.8230108,28.6851844 L79.8230108,23.3693402 C80.2236794,23.3693402 80.623998,23.3861149 81.0250165,23.3976476 C80.6243479,23.3861149 80.2261289,23.3672434 79.8230108,23.3672434 C63.8973977,23.3672434 50.0937533,32.4018371 43.2431957,45.6133402 C43.8881147,44.3709613 44.5921716,43.1642286 45.3557164,41.9994328 C53.4789653,33.8808097 65.8975912,28.6851844 79.8230108,28.6851844" id="Fill-241" fill="#BFBFBF"></path>
                        <path d="M118.853098,51.3855971 C118.984698,51.7745613 119.114898,52.1638749 119.233898,52.5559844 C119.114548,52.1624771 118.983998,51.7738623 118.853098,51.3855971" id="Fill-243" fill="#ACBBBC"></path>
                        <path d="M114.29034,41.9994678 C113.812337,41.2704657 113.319288,40.5519478 112.796844,39.8557962 C113.319987,40.5533457 113.808138,41.2680194 114.280542,41.990032 C114.283692,41.9931773 114.287191,41.9963225 114.29034,41.9994678" id="Fill-245" fill="#ACBBBC"></path>
                        <path d="M115.169257,43.4045267 C115.245191,43.5313857 115.316927,43.6606909 115.391461,43.7885983 C115.616816,44.1754657 115.84112,44.5623331 116.052827,44.954792 C116.13716,45.1099583 116.214844,45.2693183 116.297427,45.426232 C116.491288,45.7977225 116.687598,46.1685141 116.869911,46.5445478 C117.129908,47.0785436 117.378708,47.6184804 117.615959,48.1647078 C117.6632,48.2733941 117.71254,48.381032 117.75838,48.4900678 C117.882605,48.7829267 118.000531,49.0789309 118.117407,49.3749352 C117.087567,46.7762488 115.803678,44.3075667 114.290585,41.9996425 C114.336076,42.0691878 114.377368,42.1411794 114.422508,42.2107246 C114.677607,42.6059794 114.928855,43.002632 115.169257,43.4045267" id="Fill-247" fill="#ACBBBC"></path>
                        <path d="M120.667304,69.6549979 C120.722604,69.21536 120.776154,68.7757221 120.817104,68.3318905 C120.808704,68.4199579 120.801354,68.5083747 120.792254,68.5964421 C120.757254,68.94976 120.711754,69.3023789 120.667304,69.6549979" id="Fill-249" fill="#ACBBBC"></path>
                        <path d="M120.93557,66.7146661 C120.92227,66.9631419 120.90092,67.2112682 120.88377,67.4593945 C120.90932,67.1022324 120.93767,66.7454198 120.95412,66.3854619 C120.94782,66.4951966 120.94152,66.6049314 120.93557,66.7146661" id="Fill-251" fill="#ACBBBC"></path>
                        <path d="M111.58693,38.3194051 C111.87912,38.6727229 112.155914,39.0344282 112.434457,39.3950851 C112.155214,39.0337293 111.877721,38.6709756 111.58693,38.3194051" id="Fill-253" fill="#ACBBBC"></path>
                        <path d="M117.607141,80.8403575 C117.067901,82.0848333 116.463923,83.3069427 115.795909,84.5035406 L115.795559,84.5038901 C115.403639,85.2059827 114.985824,85.8979406 114.550162,86.5815112 C115.949878,84.3913596 117.145935,82.0614185 118.115238,79.6154522 C118.00781,79.8869933 117.899332,80.1588838 117.785605,80.4276291 C117.727867,80.5656712 117.666979,80.7026648 117.607141,80.8403575" id="Fill-255" fill="#ACBBBC"></path>
                        <path d="M120.817354,60.6550371 C120.770104,60.1462034 120.708504,59.6419128 120.643054,59.1386707 C120.692054,59.5188981 120.743504,59.898776 120.782354,60.2800518 C120.795304,60.4048139 120.806154,60.5299255 120.817354,60.6550371" id="Fill-257" fill="#ACBBBC"></path>
                        <path d="M118.68334,50.8835781 C118.53144,50.4512792 118.37079,50.0231739 118.20524,49.5975149 C118.28259,49.7974139 118.35889,49.9973128 118.43344,50.1979107 C118.51814,50.4257676 118.60179,50.6543234 118.68334,50.8835781" id="Fill-259" fill="#ACBBBC"></path>
                        <path d="M107.434254,33.9847781 C107.791181,34.3073423 108.14006,34.6438855 108.48789,34.9811276 C108.14076,34.6445844 107.792931,34.3087402 107.434254,33.9847781" id="Fill-261" fill="#ACBBBC"></path>
                        <path d="M120.954051,62.6001726 C120.936551,62.2185474 120.906101,61.8407663 120.878801,61.4619368 C120.894551,61.6796589 120.914501,61.8966821 120.927101,62.1144042 C120.936201,62.2762105 120.946701,62.4380168 120.954051,62.6001726" id="Fill-263" fill="#ACBBBC"></path>
                        <path d="M108.911199,35.3842105 C109.195691,35.6679832 109.466536,35.9608421 109.74123,36.2509053 C109.466186,35.9604926 109.194641,35.6665853 108.911199,35.3842105" id="Fill-265" fill="#ACBBBC"></path>
                        <path d="M119.830182,54.7544185 C119.704882,54.2389448 119.567332,53.7280143 119.422782,53.2205785 C119.532332,53.6049996 119.639782,53.9901196 119.737782,54.3769869 C119.769632,54.502448 119.799732,54.628608 119.830182,54.7544185" id="Fill-267" fill="#ACBBBC"></path>
                        <path d="M120.226213,56.5454712 C120.131363,56.0617996 120.023213,55.5837196 119.911563,55.1059891 C120.005363,55.5064859 120.096363,55.9073322 120.177563,56.3099259 C120.193663,56.3885575 120.210113,56.4671891 120.226213,56.5454712" id="Fill-269" fill="#ACBBBC"></path>
                        <path d="M110.289393,36.8253002 C110.522796,37.0811149 110.742201,37.3453171 110.967556,37.6056749 C110.742201,37.3453171 110.521396,37.0800665 110.289393,36.8253002" id="Fill-271" fill="#ACBBBC"></path>
                        <path d="M115.795979,84.5037154 C116.463993,83.306768 117.067971,82.0846585 117.607211,80.8405322 C117.061672,82.0944438 116.459094,83.3179512 115.795979,84.5037154" id="Fill-273" fill="#96AFBD"></path>
                        <path d="M85.8149725,105.179627 C85.6606225,105.201677 85.5045225,105.217777 85.3498225,105.238427 C85.5045225,105.217427 85.6602725,105.202027 85.8149725,105.179627" id="Fill-275" fill="#96AFBD"></path>
                        <path d="M81.8224694,105.567333 C81.6041138,105.577833 81.3826088,105.576783 81.1632034,105.584133 C81.3829587,105.576783 81.603064,105.577833 81.8224694,105.567333" id="Fill-277" fill="#96AFBD"></path>
                        <path d="M83.8277368,105.421253 C83.6454239,105.438753 83.4599616,105.447853 83.2769488,105.462903 C83.4603115,105.447503 83.6443741,105.439103 83.8277368,105.421253" id="Fill-279" fill="#96AFBD"></path>
                        <path d="M112.655158,89.3092931 C112.357018,89.7021015 112.05258,90.0896678 111.740793,90.4712931 C112.05328,90.0882699 112.358418,89.7010531 112.655158,89.3092931" id="Fill-281" fill="#96AFBD"></path>
                        <path d="M113.697456,87.8673996 C113.53054,88.1085364 113.359424,88.346528 113.187609,88.5838206 C113.359424,88.3458291 113.53124,88.1078375 113.697456,87.8673996" id="Fill-283" fill="#96AFBD"></path>
                        <path d="M114.290347,86.9864612 L114.289997,86.9868112 C114.279147,87.0036112 114.268647,87.0211112 114.257447,87.0375612 C114.356497,86.8863612 114.453097,86.7337612 114.550047,86.5815112 C114.466047,86.7131112 114.382397,86.8457612 114.296647,86.9766612 C114.294547,86.9798112 114.292797,86.9829612 114.290347,86.9864612" id="Fill-285" fill="#96AFBD"></path>
                        <path d="M101.051831,99.7351415 C100.688605,99.953912 100.31803,100.161499 99.9481553,100.368737 C100.31768,100.162198 100.687205,99.9546109 101.051831,99.7351415" id="Fill-287" fill="#96AFBD"></path>
                        <path d="M102.75329,98.6539747 C102.383065,98.9021011 102.004792,99.1390442 101.626169,99.3752884 C102.004092,99.1397432 102.381666,98.9034989 102.75329,98.6539747" id="Fill-289" fill="#96AFBD"></path>
                        <path d="M104.391517,97.4970072 C104.03319,97.7640051 103.665415,98.0184219 103.297989,98.2738872 C103.664715,98.0187714 104.03144,97.7650535 104.391517,97.4970072" id="Fill-291" fill="#96AFBD"></path>
                        <path d="M105.969277,96.2639592 C105.647692,96.5285107 105.316309,96.7808307 104.986326,97.0352476 C105.315609,96.7808307 105.646292,96.5299086 105.969277,96.2639592" id="Fill-293" fill="#96AFBD"></path>
                        <path d="M108.997666,93.5156282 C109.402184,93.1102387 109.792704,92.6961124 110.176576,92.2784914 C109.782207,92.7072956 109.381538,93.1301587 108.969672,93.5425377 C108.97877,93.5334514 108.988568,93.5247145 108.997666,93.5156282" id="Fill-295" fill="#96AFBD"></path>
                        <path d="M107.493392,94.9489945 C107.271537,95.1502914 107.039884,95.3407545 106.81383,95.5375082 C107.039884,95.3407545 107.270487,95.1516893 107.493392,94.9489945" id="Fill-297" fill="#96AFBD"></path>
                        <path d="M87.7908414,104.841441 C87.6438414,104.870141 87.4950914,104.892891 87.3477414,104.920541 C87.4954414,104.892891 87.6434914,104.870491 87.7908414,104.841441" id="Fill-299" fill="#96AFBD"></path>
                        <path d="M93.661963,103.230228 C93.4394083,103.310028 93.2140541,103.382478 92.9897496,103.457728 C93.2140541,103.382478 93.4387084,103.310028 93.661963,103.230228" id="Fill-301" fill="#96AFBD"></path>
                        <path d="M91.7178632,103.868437 C91.5338006,103.923737 91.3465886,103.973437 91.1614762,104.026287 C91.3465886,103.973437 91.5331007,103.923737 91.7178632,103.868437" id="Fill-303" fill="#96AFBD"></path>
                        <path d="M89.7578327,104.405263 C89.6010327,104.444113 89.4421327,104.477363 89.2846327,104.514463 C89.4424827,104.477363 89.6006827,104.444113 89.7578327,104.405263" id="Fill-305" fill="#96AFBD"></path>
                        <path d="M99.2847602,100.739564 C98.9446293,100.92164 98.5981997,101.09428 98.2528199,101.267619 C98.5981997,101.094979 98.9432296,100.922339 99.2847602,100.739564" id="Fill-307" fill="#96AFBD"></path>
                        <path d="M95.5800632,102.493048 C95.3148171,102.602598 95.0457218,102.704798 94.7773263,102.809448 C95.0453718,102.705148 95.3137673,102.602948 95.5800632,102.493048" id="Fill-309" fill="#96AFBD"></path>
                        <path d="M97.4575366,101.661021 C97.1516987,101.806271 96.840262,101.942421 96.530225,102.080321 C96.8399121,101.943121 97.150299,101.806621 97.4575366,101.661021" id="Fill-311" fill="#96AFBD"></path>
                        <path d="M111.351148,90.9372114 C111.081352,91.2583777 110.806308,91.5753503 110.527065,91.8877798 C110.807358,91.5739524 111.082052,91.2573293 111.351148,90.9372114" id="Fill-313" fill="#96AFBD"></path>
                        <path d="M114.296499,86.9759621 C114.382232,86.8452589 114.465865,86.7128084 114.550197,86.5814063 C114.985859,85.8978358 115.403674,85.2062274 115.795594,84.5041347 C115.32459,85.3467158 114.824192,86.1707747 114.296499,86.9759621" id="Fill-315" fill="#96AFBD"></path>
                        <path d="M79.8230108,100.299961 L79.8230108,105.615805 C80.26987,105.615805 80.7167292,105.598331 81.1632384,105.584003 C81.3826438,105.577013 81.6041488,105.578062 81.8225044,105.567228 C82.3078558,105.543813 82.7921573,105.503624 83.2768088,105.462736 C83.4601716,105.447708 83.6452839,105.438622 83.8275969,105.421148 C84.3360435,105.371872 84.8430905,105.306521 85.3497875,105.238373 C85.504456,105.217755 85.6605243,105.201679 85.814843,105.179662 C86.3274888,105.104525 86.838035,105.014361 87.3478814,104.920352 C87.4952014,104.893093 87.6439212,104.870028 87.7908913,104.841371 C88.2905898,104.743519 88.7878387,104.630988 89.2847377,104.514613 C89.4418558,104.47722 89.6007235,104.44402 89.7578415,104.405228 C90.2274461,104.289203 90.6946011,104.158849 91.1614063,104.026049 C91.3468686,103.973279 91.5337306,103.923653 91.7177932,103.868437 C92.1440065,103.740529 92.5670706,103.599342 92.9897846,103.457456 C93.214089,103.381969 93.4394432,103.309628 93.661998,103.230298 C94.036072,103.097498 94.4066467,102.953165 94.7772213,102.809182 C95.0456168,102.704689 95.3147121,102.602643 95.5799582,102.492908 C95.8987434,102.361157 96.2140293,102.21962 96.5300151,102.07983 C96.840402,101.941788 97.1518387,101.806192 97.4576765,101.661161 C97.7243223,101.534651 97.9878188,101.399405 98.2527149,101.267653 C98.5980947,101.093965 98.9448743,100.921675 99.2846552,100.739599 C99.5075599,100.620079 99.7269653,100.49287 99.9481203,100.368807 C100.317995,100.161569 100.68857,99.9539819 101.051796,99.7352114 C101.244957,99.6191861 101.434968,99.4951229 101.626379,99.3752535 C102.005002,99.1390093 102.383275,98.9020661 102.75315,98.6539398 C102.936863,98.5309251 103.116026,98.3998724 103.297989,98.2737124 C103.665415,98.0185966 104.03319,97.7638303 104.391517,97.4968324 C104.592026,97.3479566 104.787987,97.1889461 104.986396,97.0351777 C105.316379,96.7807608 105.647762,96.5284408 105.969347,96.2638893 C106.254888,96.0290429 106.532732,95.7809166 106.813725,95.5373335 C107.039779,95.3409293 107.271432,95.1504661 107.493287,94.9488198 C107.994385,94.4948535 108.486385,94.0258598 108.969637,93.5425377 C109.381503,93.1301587 109.782172,92.7072956 110.176541,92.2784914 C110.294817,92.1491861 110.410294,92.0181335 110.52682,91.8877798 C110.806413,91.5753503 111.081108,91.2583777 111.351253,90.9372114 C111.481776,90.7823945 111.613349,90.6279272 111.740723,90.4713629 C112.05286,90.0897377 112.357298,89.7021714 112.655088,89.3093629 C112.837051,89.0692745 113.012015,88.8267398 113.187679,88.5838556 C113.359494,88.3465629 113.53061,88.1085714 113.697526,87.8674345 C113.887887,87.5923987 114.074749,87.3159651 114.257412,87.0370851 C114.26861,87.0203103 114.279108,87.0028366 114.289955,86.9860619 C106.167056,95.1046851 93.7484304,100.299961 79.8230108,100.299961" id="Fill-317" fill="#F2F2F2"></path>
                        <path d="M101.627639,29.6103811 C101.988766,29.8361411 102.349542,30.0626 102.70332,30.2991937 C102.348492,30.0619011 101.988416,29.8357916 101.627639,29.6103811" id="Fill-319" fill="#96AFBD"></path>
                        <path d="M85.273573,23.7369166 C85.4492373,23.7600166 85.6263013,23.7785666 85.8009158,23.8037666 C85.6256014,23.7785666 85.4495872,23.7603666 85.273573,23.7369166" id="Fill-321" fill="#96AFBD"></path>
                        <path d="M103.311672,30.7211133 C103.656352,30.9608522 104.001032,31.2002417 104.338013,31.4497659 C103.999632,31.1988438 103.655652,30.9605027 103.311672,30.7211133" id="Fill-323" fill="#96AFBD"></path>
                        <path d="M99.9326535,28.6071819 C100.29238,28.8088282 100.652107,29.010824 101.004836,29.2229545 C100.650708,29.0104745 100.291681,28.8081293 99.9326535,28.6071819" id="Fill-325" fill="#96AFBD"></path>
                        <path d="M106.698878,33.3484564 C106.944528,33.559888 107.193678,33.7674754 107.434429,33.984848 C107.192628,33.7664269 106.944178,33.559888 106.698878,33.3484564" id="Fill-327" fill="#96AFBD"></path>
                        <path d="M81.0248765,23.3976825 C81.2890728,23.4050325 81.5557186,23.4050325 81.8188651,23.4176325 C81.5543189,23.4050325 81.2894228,23.4050325 81.0248765,23.3976825" id="Fill-329" fill="#96AFBD"></path>
                        <path d="M83.1917761,23.5155949 C83.4010336,23.5327449 83.6116908,23.5435949 83.8198984,23.5635449 C83.610641,23.5432449 83.4013835,23.5327449 83.1917761,23.5155949" id="Fill-331" fill="#96AFBD"></path>
                        <path d="M89.209258,24.4534425 C89.3838725,24.4940425 89.5598868,24.5314925 89.7334515,24.5745425 C89.5591869,24.5314925 89.3838725,24.4940425 89.209258,24.4534425" id="Fill-333" fill="#96AFBD"></path>
                        <path d="M98.2192267,27.700752 C98.5618071,27.8719941 98.9047374,28.0432362 99.2420688,28.2239141 C98.9036876,28.0428867 98.5618071,27.8712952 98.2192267,27.700752" id="Fill-335" fill="#96AFBD"></path>
                        <path d="M96.4846293,26.8849057 C96.7974657,27.0235057 97.1099522,27.1610557 97.4185895,27.3073557 C97.1089024,27.1610557 96.7971158,27.0231557 96.4846293,26.8849057" id="Fill-337" fill="#96AFBD"></path>
                        <path d="M110.967731,37.60564 C111.174189,37.8436316 111.385896,38.0767305 111.587105,38.3192653 C111.386945,38.0777789 111.173839,37.8436316 110.967731,37.60564" id="Fill-339" fill="#96AFBD"></path>
                        <path d="M109.741265,36.2509053 C109.923228,36.4431158 110.11149,36.6293853 110.289253,36.82544 C110.112189,36.6304337 109.923228,36.4431158 109.741265,36.2509053" id="Fill-341" fill="#96AFBD"></path>
                        <path d="M94.7220026,26.1542261 C94.9959969,26.2606261 95.271041,26.3656261 95.5425858,26.4779761 C95.2699912,26.3656261 94.9959969,26.2602761 94.7220026,26.1542261" id="Fill-343" fill="#96AFBD"></path>
                        <path d="M108.88395,35.3562926 C108.75445,35.2271426 108.61865,35.1081426 108.48775,34.9810926 C108.62775,35.1168926 108.77335,35.2470926 108.91125,35.3849926 C108.9018,35.3755426 108.89305,35.3657426 108.88395,35.3562926" id="Fill-345" fill="#96AFBD"></path>
                        <path d="M91.0904757,24.9388964 C91.2895852,24.9955964 91.4904444,25.0491464 91.6881542,25.1086464 C91.4897445,25.0491464 91.2895852,24.9952464 91.0904757,24.9388964" id="Fill-347" fill="#96AFBD"></path>
                        <path d="M112.434422,39.3951549 C112.554122,39.5502049 112.679422,39.7000049 112.797022,39.8564549 C112.680122,39.7007049 112.553772,39.5498549 112.434422,39.3951549" id="Fill-349" fill="#96AFBD"></path>
                        <path d="M92.9258876,25.5059524 C93.16034,25.5847024 93.3958421,25.6610024 93.6281949,25.7436024 C93.3951422,25.6610024 93.16034,25.5843524 92.9258876,25.5059524" id="Fill-351" fill="#96AFBD"></path>
                        <path d="M87.2716669,24.0512333 C87.438233,24.0816833 87.6058489,24.1079333 87.7717152,24.1404833 C87.605499,24.1079333 87.4385829,24.0816833 87.2716669,24.0512333" id="Fill-353" fill="#96AFBD"></path>
                        <path d="M104.996054,31.9574114 C105.303292,32.1950535 105.612279,32.4305987 105.912518,32.6766282 C105.610879,32.4295503 105.302942,32.194704 104.996054,31.9574114" id="Fill-355" fill="#96AFBD"></path>
                        <path d="M115.169257,43.4045267 C114.928855,43.002632 114.677607,42.6059794 114.422508,42.2107246 C114.677607,42.6045815 114.927806,43.0015836 115.169257,43.4045267" id="Fill-357" fill="#96AFBD"></path>
                        <path d="M116.870051,46.5445128 C116.687738,46.1684792 116.491428,45.7976876 116.297217,45.4261971 C116.491778,45.7969886 116.686688,46.1674307 116.870051,46.5445128" id="Fill-359" fill="#96AFBD"></path>
                        <path d="M79.8230108,28.6851844 C93.7431815,28.6851844 106.157258,33.8769655 114.280507,41.9899971 C113.808103,41.2679844 113.319952,40.5533107 112.796809,39.8557613 C112.679583,39.6995465 112.553958,39.5499718 112.434283,39.3951549 C112.155739,39.0344981 111.878945,38.6727928 111.586755,38.3194749 C111.385896,38.0765907 111.174189,37.8438413 110.967731,37.6055002 C110.742026,37.3451423 110.522621,37.0812897 110.289218,36.8251255 C110.111455,36.6294202 109.923193,36.4431507 109.74123,36.2509402 C109.466536,35.9608771 109.195691,35.6680181 108.911199,35.3842455 C108.772977,35.2465528 108.627406,35.1168981 108.487785,34.9813023 C108.139955,34.6437107 107.791076,34.3071676 107.434149,33.9849528 C107.193748,33.7675802 106.944598,33.5599928 106.698948,33.3485613 C106.437551,33.1231507 106.177904,32.8942455 105.912658,32.6765234 C105.612069,32.4304939 105.303082,32.1949486 104.996194,31.9573065 C104.777139,31.7878118 104.559483,31.6144728 104.337978,31.4498707 C104.000997,31.1999971 103.656317,30.9606076 103.311637,30.7212181 C103.109028,30.5803802 102.908169,30.4360476 102.70346,30.2994034 C102.349682,30.0624602 101.988906,29.8360013 101.627779,29.6102413 C101.420271,29.480936 101.214163,29.3484855 101.004906,29.2230244 C100.651827,29.0108939 100.29245,28.8088981 99.9327235,28.6072518 C99.7028202,28.4786455 99.4736168,28.3475928 99.2419639,28.2238792 C98.9046324,28.0435507 98.5620521,27.8719592 98.2191218,27.7007171 C97.9528259,27.5675676 97.6872299,27.4330202 97.4184845,27.3065107 C97.1098472,27.1607802 96.7973607,27.0234371 96.4845243,26.8850455 C96.171338,26.7466539 95.8585016,26.6075634 95.5425158,26.4775592 C95.270971,26.3653781 94.9959269,26.260536 94.7219326,26.154296 C94.3583565,26.0134581 93.9947804,25.8733192 93.6280549,25.7433149 C93.3957021,25.6608392 93.1602,25.5843044 92.9257477,25.5060223 C92.5145812,25.3683297 92.1027149,25.2327339 91.6880492,25.1083213 C91.4903394,25.0489107 91.2898302,24.9954413 91.0903707,24.9388265 C90.6393124,24.8112686 90.1879041,24.6861571 89.7333465,24.5743255 C89.5597818,24.5313402 89.3837676,24.4939465 89.2091531,24.4534076 C88.7311502,24.3422749 88.2524475,24.2342876 87.7716452,24.1402792 C87.6057789,24.1077781 87.438163,24.0815676 87.2715969,24.0511634 C86.7823963,23.9616981 86.2924959,23.8753781 85.8008458,23.803736 C85.6262313,23.7782244 85.4491673,23.7600518 85.273503,23.7369865 C84.7895514,23.6730328 84.3055997,23.6104771 83.8198984,23.5632981 C83.6116908,23.5433781 83.4010336,23.5325444 83.1917761,23.5157697 C82.7344191,23.478376 82.277062,23.4395844 81.8186552,23.4175676 C81.5555087,23.4049865 81.2888629,23.405336 81.0250165,23.3976476 C80.623998,23.3861149 80.2236794,23.3693402 79.8230108,23.3693402 L79.8230108,28.6851844 Z" id="Fill-361" fill="#BCBCBC"></path>
                        <path d="M116.052967,44.9546522 C115.84126,44.5621933 115.616956,44.1753259 115.391251,43.788808 C115.616956,44.1742775 115.84021,44.5611448 116.052967,44.9546522" id="Fill-363" fill="#96AFBD"></path>
                        <path d="M39.1062425,70.6570088 C39.0176925,70.0684952 38.9431425,69.4757878 38.8801425,68.8795857 C38.9434925,69.4757878 39.0173425,70.0688446 39.1062425,70.6570088" id="Fill-365" fill="#30456A"></path>
                        <path d="M42.5221026,81.9182222 C42.5130026,81.8986222 42.5046026,81.8793722 42.4958526,81.8597722 C42.5046026,81.8793722 42.5130026,81.8986222 42.5221026,81.9182222" id="Fill-367" fill="#30456A"></path>
                        <path d="M38.6923805,62.5992989 C38.6636805,63.2273032 38.6440805,63.8577537 38.6440805,64.4923979 C38.6440805,65.1273916 38.6636805,65.7578421 38.6923805,66.3858463 C38.6636805,65.7578421 38.6440805,65.1273916 38.6440805,64.4923979 C38.6440805,63.8577537 38.6636805,63.2273032 38.6923805,62.5992989" id="Fill-369" fill="#30456A"></path>
                        <path d="M39.5702723,55.817832 C39.6469223,55.4613688 39.7302223,55.107352 39.8159723,54.7540341 C39.7298723,55.1070025 39.6472723,55.4613688 39.5702723,55.817832" id="Fill-371" fill="#30456A"></path>
                        <path d="M39.9953659,54.0220265 C40.1290659,53.5142413 40.2729159,53.0103002 40.4255159,52.5105528 C40.2729159,53.0103002 40.1294159,53.5142413 39.9953659,54.0220265" id="Fill-373" fill="#30456A"></path>
                        <path d="M39.4196048,72.4384859 C39.3359548,72.0103806 39.2593048,71.5798291 39.1889548,71.1475301 C39.2596548,71.5798291 39.3356048,72.0107301 39.4196048,72.4384859" id="Fill-375" fill="#30456A"></path>
                        <path d="M38.8799676,60.1065731 C38.9433176,59.5100215 39.0178676,58.9166152 39.1060676,58.3281015 C39.0175176,58.9166152 38.9436676,59.5100215 38.8799676,60.1065731" id="Fill-377" fill="#30456A"></path>
                        <path d="M38.8290744,68.3333583 C38.7863744,67.8724025 38.7506744,67.4093499 38.7233744,66.9442004 C38.7506744,67.4093499 38.7863744,67.8724025 38.8290744,68.3333583" id="Fill-379" fill="#30456A"></path>
                        <path d="M42.4937531,47.1297319 C42.5035531,47.1087319 42.5126531,47.0873819 42.5221031,47.0663819 C42.5126531,47.0873819 42.5035531,47.1087319 42.4937531,47.1297319" id="Fill-381" fill="#30456A"></path>
                        <path d="M39.1885698,57.8389082 C39.2592698,57.4055608 39.3359198,56.9743103 39.4199198,56.5455061 C39.3355698,56.9743103 39.2592698,57.4055608 39.1885698,57.8389082" id="Fill-383" fill="#30456A"></path>
                        <path d="M38.7234794,62.0409798 C38.7507794,61.5751314 38.7864794,61.1120787 38.8291794,60.6507735 C38.7864794,61.1120787 38.7507794,61.5751314 38.7234794,62.0409798" id="Fill-385" fill="#30456A"></path>
                        <path d="M41.318202,49.9083718 C41.386452,49.7280434 41.459252,49.5505107 41.530302,49.3715802 C41.459252,49.5505107 41.386802,49.7283928 41.318202,49.9083718" id="Fill-387" fill="#30456A"></path>
                        <path d="M43.0808287,45.9303348 C43.1343787,45.8242848 43.1889787,45.7189348 43.2432287,45.6135848 C43.1886287,45.7189348 43.1343787,45.8242848 43.0808287,45.9303348" id="Fill-389" fill="#30456A"></path>
                        <path d="M41.531142,79.6153474 C41.459742,79.4357179 41.386592,79.2571368 41.317992,79.0761095 C41.386942,79.2571368 41.459742,79.4357179 41.531142,79.6153474" id="Fill-391" fill="#30456A"></path>
                        <path d="M40.9635292,78.1029301 C40.8788292,77.8617933 40.7972792,77.6192585 40.7171292,77.3756754 C40.7976292,77.6189091 40.8788292,77.8617933 40.9635292,78.1029301" id="Fill-393" fill="#30456A"></path>
                        <path d="M45.3557169,86.985858 L45.3560669,86.985858 C45.3550169,86.984458 45.3539669,86.983058 45.3532669,86.982008 C45.3539669,86.983058 45.3550169,86.984458 45.3557169,86.985858" id="Fill-395" fill="#30456A"></path>
                        <path d="M40.7170942,51.6096446 C40.7972442,51.3664109 40.8787942,51.1231773 40.9634942,50.8820404 C40.8784442,51.1231773 40.7972442,51.3664109 40.7170942,51.6096446" id="Fill-397" fill="#30456A"></path>
                        <path d="M40.4253409,76.4748371 C40.2727409,75.9747402 40.1288909,75.4707992 39.9951909,74.9626644 C40.1292409,75.4707992 40.2723909,75.9747402 40.4253409,76.4748371" id="Fill-399" fill="#30456A"></path>
                        <path d="M43.2431937,83.3717905 C43.1889437,83.2667905 43.1346937,83.1614405 43.0811437,83.0560905 C43.1346937,83.1614405 43.1889437,83.2667905 43.2431937,83.3717905" id="Fill-401" fill="#30456A"></path>
                        <path d="M39.8160073,74.2317752 C39.7302573,73.8784573 39.6469573,73.5244404 39.5703073,73.1676278 C39.6473073,73.5240909 39.7299073,73.8784573 39.8160073,74.2317752" id="Fill-403" fill="#30456A"></path>
                        <path d="M120.961559,66.2491672 C120.986059,65.6665945 121.001809,65.0815756 121.001809,64.4927124 C121.001809,64.6716429 120.990609,64.8481272 120.988509,65.0263587 C120.982559,65.4338451 120.979059,65.8416808 120.961559,66.2491672" id="Fill-405" fill="#30456A"></path>
                        <path d="M121.001871,64.4926411 C121.001871,64.4775911 121.001171,64.4625411 121.001171,64.4471411 C121.001171,64.4492411 121.000821,64.4516911 121.000821,64.4537911 C121.000821,64.4667411 121.001871,64.4796911 121.001871,64.4926411" id="Fill-407" fill="#30456A"></path>
                        <path d="M120.988539,65.0264985 C120.990639,64.8479175 121.001839,64.6717827 121.001839,64.4925027 C121.001839,64.4795722 121.000789,64.4666417 121.000789,64.4537112 C121.001139,64.6448733 120.991339,64.8356859 120.988539,65.0264985" id="Fill-409" fill="#30456A"></path>
                        <path d="M118.775887,77.8468008 C118.817187,77.7265819 118.852537,77.6049651 118.892437,77.4843966 C118.823837,77.6902366 118.755237,77.8964261 118.683487,78.1008682 C118.713937,78.0159461 118.746487,77.9320724 118.775887,77.8468008" id="Fill-411" fill="#30456A"></path>
                        <path d="M120.839194,68.0956813 C120.857744,67.8839002 120.868594,67.6717697 120.883644,67.4596392 C120.862644,67.7507507 120.844094,68.0425613 120.817144,68.3319255 C120.824494,68.2532939 120.832194,68.1746623 120.839194,68.0956813" id="Fill-413" fill="#30456A"></path>
                        <path d="M118.197313,79.4131393 C118.212013,79.3753393 118.225663,79.3368393 118.240363,79.2986893 C118.199413,79.4047393 118.157063,79.5100893 118.115413,79.6157893 C118.142013,79.5478893 118.171063,79.4810393 118.197313,79.4131393" id="Fill-415" fill="#30456A"></path>
                        <path d="M119.895024,73.9657208 C119.916024,73.8783524 119.932124,73.7902851 119.952424,73.7025672 C119.911824,73.8787019 119.872974,74.0548366 119.830274,74.2302724 C119.851974,74.1418556 119.874024,74.0541377 119.895024,73.9657208" id="Fill-417" fill="#30456A"></path>
                        <path d="M119.272386,76.3001002 C119.329786,76.1089381 119.381586,75.9149802 119.436536,75.7224202 C119.446336,75.6874728 119.454736,75.6518265 119.464886,75.6165297 C119.396286,75.8615107 119.329436,76.1068413 119.256286,76.3497255 C119.261536,76.3333002 119.267136,76.3168749 119.272386,76.3001002" id="Fill-419" fill="#30456A"></path>
                        <path d="M120.270914,72.2238392 C120.302764,72.0571402 120.324814,71.8890434 120.354564,71.7223444 C120.312214,71.9610349 120.273014,72.2004244 120.226464,72.4377171 C120.240464,72.3660749 120.257264,72.2954813 120.270914,72.2238392" id="Fill-421" fill="#30456A"></path>
                        <path d="M120.57643,70.3950783 C120.59078,70.2940804 120.60198,70.1920341 120.61598,70.0910362 C120.63593,69.9460046 120.64923,69.8002741 120.66743,69.6548931 C120.63348,69.9267836 120.60338,70.1997225 120.56383,70.4698657 C120.56768,70.4447036 120.57258,70.4198909 120.57643,70.3950783" id="Fill-423" fill="#30456A"></path>
                        <path d="M119.866324,54.9022234 C119.854774,54.8528734 119.842174,54.8038734 119.829924,54.7545234 C119.858974,54.8714234 119.884174,54.9893734 119.911474,55.1066234 C119.895724,55.0387234 119.882774,54.9701234 119.866324,54.9022234" id="Fill-425" fill="#30456A"></path>
                        <path d="M120.250054,56.6604829 C120.242704,56.6220408 120.234304,56.5839482 120.226254,56.5455061 C120.260204,56.719544 120.288204,56.8956787 120.320054,57.0707651 C120.295204,56.9341208 120.276304,56.7967777 120.250054,56.6604829" id="Fill-427" fill="#30456A"></path>
                        <path d="M120.574017,58.5738863 C120.570167,58.5476758 120.567367,58.5214653 120.563867,58.4952547 C120.561067,58.4753347 120.556517,58.4557642 120.553367,58.4354947 C120.588017,58.6685937 120.612517,58.9044884 120.642967,59.1386358 C120.618817,58.9506189 120.601317,58.7615537 120.574017,58.5738863" id="Fill-429" fill="#30456A"></path>
                        <path d="M119.383831,53.0776787 C119.337981,52.9183187 119.295981,52.7575608 119.247681,52.5992493 C119.243831,52.5849208 119.238231,52.5702429 119.233681,52.5559145 C119.300531,52.7757335 119.360031,52.9990472 119.422681,53.2206135 C119.409381,53.1730851 119.397481,53.1252072 119.383831,53.0776787" id="Fill-431" fill="#30456A"></path>
                        <path d="M118.746837,51.0584897 C118.726537,50.9997781 118.704137,50.9421149 118.683137,50.8837528 C118.741587,51.0501023 118.797237,51.2181992 118.853237,51.3855971 C118.816487,51.2769107 118.784287,51.167176 118.746837,51.0584897" id="Fill-433" fill="#30456A"></path>
                        <path d="M118.169312,49.5031051 C118.152512,49.4600551 118.134312,49.4180551 118.117512,49.3750051 C118.146912,49.4492051 118.176312,49.5234051 118.205362,49.5979551 C118.192762,49.5661051 118.181562,49.5342551 118.169312,49.5031051" id="Fill-435" fill="#30456A"></path>
                        <path d="M120.826559,60.7541478 C120.823409,60.7209478 120.819909,60.6880973 120.817459,60.6548973 C120.842309,60.9225941 120.859109,61.1927373 120.878709,61.461832 C120.861559,61.2259373 120.848259,60.9900425 120.826559,60.7541478" id="Fill-437" fill="#30456A"></path>
                        <path d="M120.954036,66.3854968 C120.956486,66.3400653 120.959636,66.2946337 120.961386,66.2492021 C120.978886,65.8417158 120.982386,65.43388 120.988686,65.0263937 C120.982386,65.4810589 120.974686,65.9346758 120.954036,66.3854968" id="Fill-439" fill="#30456A"></path>
                        <path d="M114.2965,86.9759621 C114.2944,86.9794621 114.2923,86.9829621 114.28985,86.9861121 L114.2902,86.9857621 C114.29265,86.9826121 114.2944,86.9794621 114.2965,86.9759621" id="Fill-441" fill="#30456A"></path>
                        <path d="M121.001181,64.447176 C121.000831,64.3699423 120.997331,64.2937571 120.996631,64.2168728 C120.993481,63.6888181 120.979481,63.1611128 120.955681,62.6337571 C120.955331,62.6222244 120.954281,62.6113907 120.953931,62.6002076 C120.981931,63.2149318 121.000131,63.8321023 121.000831,64.453816 C121.000831,64.4517192 121.001181,64.4492728 121.001181,64.447176" id="Fill-443" fill="#30456A"></path>
                        <path d="M120.954036,62.6001726 C120.946687,62.4380168 120.936189,62.2762105 120.927091,62.1144042 C120.914494,61.8966821 120.894548,61.6796589 120.878801,61.4619368 C120.859205,61.1928421 120.842409,60.9226989 120.817214,60.6550021 C120.806016,60.5298905 120.795168,60.4047789 120.782571,60.2800168 C120.743379,59.8987411 120.691939,59.5188632 120.642949,59.1386358 C120.612505,58.9044884 120.58801,58.6685937 120.553367,58.4354947 C120.485831,57.9794316 120.403948,57.5251158 120.319965,57.0708 C120.288471,56.8957137 120.260477,56.7195789 120.226184,56.5455411 C120.210087,56.4672589 120.19364,56.3886274 120.177544,56.3099958 C120.09636,55.9074021 120.005379,55.5065558 119.911598,55.1060589 C119.883953,54.9889853 119.858758,54.8712126 119.830064,54.7544884 C119.79962,54.6283284 119.769527,54.5025179 119.737683,54.3770568 C119.639703,53.9901895 119.532625,53.6050695 119.422747,53.2206484 C119.35976,52.9990821 119.300272,52.7757684 119.233785,52.5559495 C119.11481,52.16384 118.984636,51.7745263 118.853063,51.3855621 C118.797074,51.2181642 118.741785,51.0500674 118.683347,50.8837179 C118.601464,50.6541137 118.518181,50.4259074 118.433498,50.1980505 C118.358963,49.9971032 118.282679,49.7972042 118.205345,49.5973053 C118.1763,49.5232168 118.146906,49.4491284 118.117512,49.37504 C118.000636,49.0790358 117.88271,48.7830316 117.758485,48.4901726 C117.712295,48.3811368 117.663305,48.2731495 117.616064,48.1644632 C117.380562,47.6199832 117.130013,47.0803958 116.870016,46.5446526 C116.686653,46.1675705 116.491743,45.7967789 116.297182,45.4259874 C116.214949,45.2694232 116.137265,45.1107621 116.052932,44.9545474 C115.840175,44.56104 115.616921,44.1741726 115.391566,43.7887032 C115.317032,43.6607958 115.245296,43.53184 115.169362,43.4046316 C114.927561,43.0013389 114.677362,42.6046863 114.422613,42.2108295 C114.375023,42.1370905 114.328483,42.0633516 114.280542,41.9899621 C106.157293,33.8769305 93.7432165,28.6851495 79.8230458,28.6851495 C65.8976262,28.6851495 53.4790003,33.8807747 45.3557514,41.9993979 C44.5922065,43.1641937 43.8881496,44.3709263 43.2432307,45.6136547 C43.1889917,45.7184968 43.1344028,45.8240379 43.0808637,45.9299284 C42.8898026,46.3059621 42.7018908,46.6840926 42.5220273,47.0664168 C42.5125792,47.0873853 42.503831,47.1087032 42.4936831,47.1296716 C42.1500529,47.8646147 41.8312677,48.6135368 41.5303289,49.3715453 C41.4592933,49.5504758 41.3865081,49.7280084 41.318272,49.9083368 C41.1954469,50.2305516 41.0782208,50.5559116 40.9634441,50.8819705 C40.8787613,51.1234568 40.7975778,51.3663411 40.7170942,51.6095747 C40.6180643,51.9090737 40.5176347,52.2078737 40.4252535,52.5105179 C40.2730344,53.0106147 40.1288637,53.5142063 39.9955408,54.0219916 C39.9315038,54.2645263 39.8755152,54.5102063 39.8160273,54.7541389 C39.7302947,55.1074568 39.6466617,55.4614737 39.5703772,55.8179368 C39.5178879,56.0597726 39.4678481,56.3023074 39.4199078,56.5455411 C39.3359249,56.9743453 39.2592905,57.4055958 39.1886048,57.8389432 C39.1620102,58.0021474 39.1308666,58.1643032 39.1063716,58.3282063 C39.0178395,58.91672 38.9433047,59.5101263 38.8799676,60.1066779 C38.8603716,60.2873558 38.8460245,60.4690821 38.8292279,60.6508084 C38.7861866,61.1121137 38.7508438,61.5751663 38.7235494,62.0410147 C38.7127016,62.2269347 38.7004541,62.4128547 38.6924057,62.5994737 C38.6637115,63.2271284 38.6441155,63.8575789 38.6441155,64.4925726 C38.6441155,65.1275663 38.6637115,65.7580168 38.6924057,66.3860211 C38.7004541,66.5722905 38.7127016,66.7582105 38.7235494,66.9441305 C38.7508438,67.40928 38.7861866,67.8723326 38.8292279,68.3332884 C38.8460245,68.5153642 38.8603716,68.6981389 38.8799676,68.8795158 C38.9433047,69.4757179 39.0178395,70.0687747 39.1063716,70.6569389 C39.1312165,70.8211916 39.1623602,70.9836968 39.1889548,71.1476 C39.2592905,71.5798989 39.3359249,72.0104505 39.4195579,72.4385558 C39.4678481,72.6824884 39.5178879,72.9250232 39.5703772,73.1675579 C39.6466617,73.5243705 39.7302947,73.8783874 39.8160273,74.2317053 C39.8758651,74.4756379 39.9315038,74.7206189 39.9955408,74.9628042 C40.1288637,75.4709389 40.2730344,75.97488 40.4252535,76.4749768 C40.5176347,76.7772716 40.6180643,77.0764211 40.7170942,77.37592 C40.7975778,77.6191537 40.8787613,77.8616884 40.9634441,78.1028253 C41.0782208,78.4288842 41.195097,78.7538947 41.317922,79.0761095 C41.3865081,79.2571368 41.4596432,79.4357179 41.5310287,79.6153474 C41.8323175,80.3740547 42.1514526,81.1240253 42.4957826,81.8596674 C42.5045309,81.8792379 42.5129292,81.8988084 42.5220273,81.9180295 C42.7018908,82.3010526 42.8898026,82.6795326 43.0812137,83.0559158 C43.1347528,83.1614568 43.1889917,83.2666484 43.2432307,83.3714905 C43.8874498,84.6124716 44.5904569,85.8185053 45.3533018,86.9822526 C45.3540017,86.9833011 45.3550515,86.9843495 45.3561013,86.9857474 C53.4790003,95.1043705 65.8976262,100.299996 79.8230458,100.299996 C93.7484654,100.299996 106.167091,95.10472 114.28999,86.9860968 C114.29244,86.9829516 114.294539,86.9794568 114.296639,86.9759621 C114.823982,86.1707747 115.32438,85.3467158 115.795734,84.5041347 L115.796084,84.5037853 C116.45885,83.3180211 117.061777,82.0945137 117.607316,80.8402526 C117.666804,80.7029095 117.727692,80.5659158 117.78543,80.4278737 C117.899507,80.1587789 118.007635,79.8872379 118.115413,79.6153474 C118.157054,79.5098063 118.199396,79.4046147 118.240337,79.2987242 C118.317322,79.0981263 118.392906,78.8971789 118.466741,78.6958821 C118.539877,78.4977305 118.611962,78.2992295 118.683697,78.1007284 C118.755433,77.8962863 118.823669,77.6904463 118.892255,77.4842568 C119.017879,77.1071747 119.142104,76.7297432 119.256181,76.3498653 C119.329316,76.1069811 119.396152,75.8616505 119.464739,75.6166695 C119.569367,75.2451789 119.670847,74.8729895 119.764628,74.4987032 C119.787023,74.4095874 119.808369,74.3197726 119.830414,74.2303074 C119.872756,74.0548716 119.911598,73.8787368 119.952539,73.7026021 C120.04912,73.2818358 120.14395,72.86072 120.226534,72.4375074 C120.273074,72.2005642 120.312266,71.9608253 120.354608,71.7224842 C120.428443,71.3052126 120.502628,70.8882905 120.563865,70.4699705 C120.603407,70.1998274 120.633501,69.9265389 120.667444,69.6549979 C120.711885,69.3023789 120.757376,68.94976 120.792369,68.5964421 C120.801117,68.5083747 120.808815,68.4199579 120.816864,68.3318905 C120.844158,68.0425263 120.862704,67.7507158 120.8837,67.4596042 C120.901197,67.2111284 120.922192,66.9630021 120.93549,66.7145263 C120.941438,66.6047916 120.947737,66.4954063 120.954036,66.3856716 C120.974682,65.9348505 120.98238,65.4808842 120.988679,65.0265684 C120.991128,64.8354063 121.001276,64.6449432 121.000926,64.4537811 C121.000226,63.8320674 120.98203,63.2148968 120.954036,62.6001726" id="Fill-445" fill="#56585B"></path>
                        <polygon id="Fill-447" fill="#30456A" points="114.29034 41.9994678 114.29034 41.9994678 114.29069 41.9994678"></polygon>
                        <path d="M115.391437,43.7892117 C115.316887,43.6611117 115.245137,43.5316117 115.169187,43.4045617 C115.245137,43.5319617 115.316887,43.6611117 115.391437,43.7892117" id="Fill-449" fill="#30456A"></path>
                        <path d="M114.422607,42.211232 C114.377457,42.141232 114.336157,42.069132 114.290657,41.999832 L114.290307,41.999482 C114.287157,41.996332 114.284007,41.993182 114.280507,41.990032 C114.328457,42.063532 114.375007,42.137382 114.422607,42.211232" id="Fill-451" fill="#30456A"></path>
                        <path d="M117.616029,48.164568 C117.378778,47.6183406 117.129628,47.0784038 116.869981,46.544408 C117.129978,47.0805006 117.380527,47.620088 117.616029,48.164568" id="Fill-453" fill="#30456A"></path>
                        <path d="M116.297372,45.4268372 C116.215122,45.2700372 116.137072,45.1104372 116.053072,44.9546872 C116.137422,45.1111372 116.215122,45.2696872 116.297372,45.4268372" id="Fill-455" fill="#30456A"></path>
                        <path d="M84.5190563,37.9066417 C81.0327149,37.4016522 67.9712697,34.6942796 56.1916139,44.5312648" id="Stroke-457" stroke="#FFFFFF" stroke-width="3.15" stroke-linecap="round"></path>
                        <path d="M53.3305954,49.6399411 C53.3305954,51.1587537 52.097796,52.3902989 50.5770051,52.3902989 C49.0558643,52.3902989 47.8230649,51.1587537 47.8230649,49.6399411 C47.8230649,48.1207789 49.0558643,46.8895832 50.5770051,46.8895832 C52.097796,46.8895832 53.3305954,48.1207789 53.3305954,49.6399411" id="Fill-459" fill="#FFFFFF"></path>
                        <path d="M92.6323323,150.390408 L67.4227562,150.390408 C65.6727619,150.390408 64.2541502,148.973642 64.2541502,147.225924 L64.2541502,140.802598 C64.2541502,139.05488 65.6727619,137.638114 67.4227562,137.638114 L92.6323323,137.638114 C94.3823266,137.638114 95.8009383,139.05488 95.8009383,140.802598 L95.8009383,147.225924 C95.8009383,148.973642 94.3823266,150.390408 92.6323323,150.390408" id="Fill-465" fill="#04DE47"></path>
                        <path d="M92.6323323,150.390408 L67.4227562,150.390408 C65.6727619,150.390408 64.2541502,148.973642 64.2541502,147.225924 L64.2541502,140.802598 C64.2541502,139.05488 65.6727619,137.638114 67.4227562,137.638114 L92.6323323,137.638114 C94.3823266,137.638114 95.8009383,139.05488 95.8009383,140.802598 L95.8009383,147.225924 C95.8009383,148.973642 94.3823266,150.390408 92.6323323,150.390408 Z" id="Stroke-467" stroke="#4D4E4E" stroke-width="2.1"></path>
                        <path d="M71.7654435,142.13888 C71.7654435,142.967483 71.0925303,143.639171 70.2631989,143.639171 C69.4335175,143.639171 68.7609542,142.967483 68.7609542,142.13888 C68.7609542,141.310278 69.4335175,140.63859 70.2631989,140.63859 C71.0925303,140.63859 71.7654435,141.310278 71.7654435,142.13888" id="Fill-469" fill="#FFFFFF"></path>
                        <path d="M71.7654435,145.889572 C71.7654435,146.718174 71.0925303,147.389862 70.2631989,147.389862 C69.4335175,147.389862 68.7609542,146.718174 68.7609542,145.889572 C68.7609542,145.06097 69.4335175,144.389281 70.2631989,144.389281 C71.0925303,144.389281 71.7654435,145.06097 71.7654435,145.889572" id="Fill-471" fill="#FFFFFF"></path>
                        <path d="M227.978593,165.069666 L17.3214094,165.069666" id="Stroke-473" stroke="#4D4D4D" stroke-width="2.1" stroke-linecap="round"></path>
                        <path d="M245.99993,165.069666 L236.901779,165.069666" id="Stroke-475" stroke="#4D4D4D" stroke-width="2.1" stroke-linecap="round"></path>
                        <path d="M8.39822304,165.069666 L-6.99857748e-05,165.069666" id="Stroke-477" stroke="#4D4D4D" stroke-width="2.1" stroke-linecap="round"></path>
                        <path d="M135.440531,2.746304 C135.440531,4.26301979 134.209482,5.49246821 132.69114,5.49246821 C131.172449,5.49246821 129.941049,4.26301979 129.941049,2.746304 C129.941049,1.22958821 131.172449,0.000139789474 132.69114,0.000139789474 C134.209482,0.000139789474 135.440531,1.22958821 135.440531,2.746304" id="Fill-461" fill="#04DE47"></path>
                        <path d="M135.440531,2.746304 C135.440531,4.26301979 134.209482,5.49246821 132.69114,5.49246821 C131.172449,5.49246821 129.941049,4.26301979 129.941049,2.746304 C129.941049,1.22958821 131.172449,0.000139789474 132.69114,0.000139789474 C134.209482,0.000139789474 135.440531,1.22958821 135.440531,2.746304 Z" id="Stroke-463" stroke="#4D4D4D" stroke-width="2.1"></path>
                    </g>
                </g>
            </g>
        </g>
    </g>
</svg>