<?xml version="1.0" encoding="UTF-8"?>
<svg width="276px" height="194px" viewBox="0 0 276 165" version="1.1" xmlns="http://www.w3.org/2000/svg" xmlns:xlink="http://www.w3.org/1999/xlink">
    <!-- Generator: Sketch 50.2 (55047) - http://www.bohemiancoding.com/sketch -->
    <title>Group</title>
    <desc>Created with Sketch.</desc>
    <defs>
        <polygon id="path-1" points="0.30140804 0.254841102 95.4985992 0.254841102 95.4985992 63.5566017 0.30140804 63.5566017"></polygon>
    </defs>
    <g id="Page-1" stroke="none" stroke-width="1" fill="none" fill-rule="evenodd">
        <g id="Carpool-Flexibility-Copy-8" transform="translate(-329.000000, -132.000000)">
            <g id="Slide-Gallery-Copy">
                <g id="Car-Pool-Flexibility" transform="translate(331.000000, 94.000000)">
                    <g id="Group" transform="translate(0.000000, 38.000000)">
                        <polygon id="Fill-1" fill="#C6C6C6" points="203.037253 107.065039 216.339698 163.346819 209.338411 163.346819 196.035966 107.065039"></polygon>
                        <polygon id="Stroke-2" stroke="#4D4D4D" stroke-width="2.1" stroke-linecap="round" points="203.037253 107.065039 216.339698 163.346819 209.338411 163.346819 196.035966 107.065039"></polygon>
                        <polygon id="Fill-4" fill="#C6C6C6" points="156.828759 107.065039 143.526314 163.346819 150.527601 163.346819 163.830046 107.065039"></polygon>
                        <g id="Group-164" transform="translate(0.000000, 0.094735)">
                            <polygon id="Stroke-5" stroke="#4D4D4D" stroke-width="2.1" stroke-linecap="round" points="156.828759 106.970304 143.526314 163.252084 150.527601 163.252084 163.830046 106.970304"></polygon>
                            <path d="M223.997356,109.766914 L138.319106,109.766914 C133.655199,109.766914 129.873804,105.991141 129.873804,101.333387 L129.873804,26.2618824 C129.873804,21.6041282 133.655199,17.8283549 138.319106,17.8283549 L223.997356,17.8283549 C228.661613,17.8283549 232.442658,21.6041282 232.442658,26.2618824 L232.442658,101.333387 C232.442658,105.991141 228.661613,109.766914 223.997356,109.766914" id="Fill-7" fill="#F4F4F4"></path>
                            <path d="M223.997356,109.766914 L138.319106,109.766914 C133.655199,109.766914 129.873804,105.991141 129.873804,101.333387 L129.873804,26.2618824 C129.873804,21.6041282 133.655199,17.8283549 138.319106,17.8283549 L223.997356,17.8283549 C228.661613,17.8283549 232.442658,21.6041282 232.442658,26.2618824 L232.442658,101.333387 C232.442658,105.991141 228.661613,109.766914 223.997356,109.766914 Z" id="Stroke-9" stroke="#4D4D4D" stroke-width="2.1" stroke-linecap="round"></path>
                            <path d="M223.199804,106.970304 L133.516118,106.970304 C129.958064,106.970304 127.073184,104.090145 127.073184,100.537052 L127.073184,21.4653464 C127.073184,17.9122532 129.958064,15.0317447 133.516118,15.0317447 L223.199804,15.0317447 C226.757858,15.0317447 229.642039,17.9122532 229.642039,21.4653464 L229.642039,100.537052 C229.642039,104.090145 226.757858,106.970304 223.199804,106.970304" id="Fill-11" fill="#F4F4F4"></path>
                            <path d="M223.199804,106.970304 L133.516118,106.970304 C129.958064,106.970304 127.073184,104.090145 127.073184,100.537052 L127.073184,21.4653464 C127.073184,17.9122532 129.958064,15.0317447 133.516118,15.0317447 L223.199804,15.0317447 C226.757858,15.0317447 229.642039,17.9122532 229.642039,21.4653464 L229.642039,100.537052 C229.642039,104.090145 226.757858,106.970304 223.199804,106.970304 Z" id="Stroke-13" stroke="#4D4D4D" stroke-width="2.1" stroke-linecap="round"></path>
                            <path d="M109.067554,163.776099 L87.3411604,163.076946 L87.3411604,125.104923 C87.3411604,125.104923 100.700316,127.073387 108.146535,132.321925 C108.146535,132.321925 113.709407,137.351978 117.651482,147.849753 C119.403204,152.224001 122.031487,158.785198 123.345629,160.097158 C125.097701,158.785198 150.06429,136.040018 151.816362,132.978079 C154.006715,134.290389 159.700862,139.976596 159.700862,139.976596 C159.700862,139.976596 149.699873,153.141289 140.393063,164.162031" id="Fill-15" fill="#04DE47"></path>
                            <path d="M103.561917,81.1487828 L103.561917,88.6097892 C103.561917,90.8886769 101.693974,92.7533167 99.4112041,92.7533167 L95.6753174,92.7533167 C93.3921977,92.7533167 91.5242543,90.8886769 91.5242543,88.6097892 L91.5242543,81.1487828 C91.5242543,78.8667489 93.3921977,77.0021091 95.6753174,77.0021091 L99.4112041,77.0021091 C101.693974,77.0021091 103.561917,78.8667489 103.561917,81.1487828" id="Fill-17" fill="#8E5B38"></path>
                            <path d="M95.6752124,78.038428 C93.9588468,78.038428 92.5620901,79.4339364 92.5620901,81.1489576 L92.5620901,88.6096144 C92.5620901,90.3232373 93.9588468,91.7169979 95.6752124,91.7169979 L99.4110991,91.7169979 C101.127465,91.7169979 102.523871,90.3232373 102.523871,88.6096144 L102.523871,81.1489576 C102.523871,79.4339364 101.127465,78.038428 99.4110991,78.038428 L95.6752124,78.038428 Z M99.4110991,93.7896356 L95.6752124,93.7896356 C92.8141364,93.7896356 90.4869086,91.4656525 90.4869086,88.6096144 L90.4869086,81.1489576 C90.4869086,78.290822 92.8141364,75.9657903 95.6752124,75.9657903 L99.4110991,75.9657903 C102.272175,75.9657903 104.599403,78.290822 104.599403,81.1489576 L104.599403,88.6096144 C104.599403,91.4656525 102.272175,93.7896356 99.4110991,93.7896356 Z" id="Fill-19" fill="#4D4E4E"></path>
                            <path d="M109.662734,60.8909428 C109.494353,60.8909428 109.323521,60.8500424 109.164942,60.7633475 C106.388232,59.2447881 102.577081,57.0113453 100.193143,54.9960381 C99.7559125,54.6258369 99.7016525,53.9721292 100.072021,53.5351589 C100.443089,53.0981886 101.097009,53.0447034 101.534239,53.4138559 C103.291212,54.8992055 106.354976,56.8638242 110.162275,58.9455508 C110.664618,59.2203178 110.848752,59.8502542 110.573601,60.3522458 C110.384916,60.6962288 110.029601,60.8909428 109.662734,60.8909428" id="Fill-21" fill="#4D4E4E"></path>
                            <path d="M109.37386,88.1942479 C109.070705,88.1942479 108.77035,88.0624576 108.565212,87.8086653 L99.4334332,76.5135064 C99.0735671,76.0681462 99.1432299,75.4158369 99.5892118,75.0561229 C100.035544,74.6964089 100.688414,74.7666737 101.04863,75.2116843 L110.180409,86.5068432 C110.540275,86.9522034 110.470612,87.6045127 110.02463,87.9642267 C109.833145,88.1187394 109.602102,88.1942479 109.37386,88.1942479" id="Fill-23" fill="#4D4E4E"></path>
                            <path d="M73.260487,86.8703676 L73.260487,93.7842871 C73.260487,95.8964269 71.5297689,97.6243824 69.4139799,97.6243824 L65.9518435,97.6243824 C63.8360546,97.6243824 62.1053364,95.8964269 62.1053364,93.7842871 L62.1053364,86.8703676 C62.1053364,84.7582278 63.8360546,83.0274756 65.9518435,83.0274756 L69.4139799,83.0274756 C71.5297689,83.0274756 73.260487,84.7582278 73.260487,86.8703676" id="Fill-25" fill="#9E6740"></path>
                            <path d="M65.9518435,83.9877267 C64.360801,83.9877267 63.0669632,85.2808093 63.0669632,86.8703326 L63.0669632,93.7842521 C63.0669632,95.3720275 64.360801,96.6640614 65.9518435,96.6640614 L69.4139799,96.6640614 C71.0046723,96.6640614 72.2988602,95.3720275 72.2988602,93.7842521 L72.2988602,86.8703326 C72.2988602,85.2808093 71.0046723,83.9877267 69.4139799,83.9877267 L65.9518435,83.9877267 Z M69.4139799,98.5846335 L65.9518435,98.5846335 C63.3004561,98.5846335 61.1433596,96.4312436 61.1433596,93.7842521 L61.1433596,86.8703326 C61.1433596,84.2215932 63.3004561,82.0671547 65.9518435,82.0671547 L69.4139799,82.0671547 C72.0653673,82.0671547 74.2221138,84.2215932 74.2221138,86.8703326 L74.2221138,93.7842521 C74.2221138,96.4312436 72.0653673,98.5846335 69.4139799,98.5846335 Z" id="Fill-27" fill="#4D4E4E"></path>
                            <path d="M47.7478322,67.526215 L47.7478322,76.2065434 C47.7478322,78.858429 45.5746327,81.0272002 42.9183444,81.0272002 L38.5722955,81.0272002 C35.9160072,81.0272002 33.7428077,78.858429 33.7428077,76.2065434 L33.7428077,67.526215 C33.7428077,64.8708337 35.9160072,62.7017129 38.5722955,62.7017129 L42.9183444,62.7017129 C45.5746327,62.7017129 47.7478322,64.8708337 47.7478322,67.526215" id="Fill-29" fill="#EDEDED"></path>
                            <path d="M38.5723305,63.9072267 C36.5748633,63.9072267 34.9502147,65.5306589 34.9502147,67.5267394 L34.9502147,76.2067182 C34.9502147,78.2000021 36.5748633,79.8216864 38.5723305,79.8216864 L42.9183794,79.8216864 C44.9158466,79.8216864 46.5404952,78.2000021 46.5404952,76.2067182 L46.5404952,67.5267394 C46.5404952,65.5306589 44.9158466,63.9072267 42.9183794,63.9072267 L38.5723305,63.9072267 Z M42.9183794,82.2330636 L38.5723305,82.2330636 C35.2435686,82.2330636 32.5358208,79.5294407 32.5358208,76.2067182 L32.5358208,67.5267394 C32.5358208,64.2012203 35.2435686,61.4961992 38.5723305,61.4961992 L42.9183794,61.4961992 C46.2471413,61.4961992 48.9552391,64.2012203 48.9552391,67.5267394 L48.9552391,76.2067182 C48.9552391,79.5294407 46.2471413,82.2330636 42.9183794,82.2330636 Z" id="Fill-31" fill="#4D4E4E"></path>
                            <path d="M129.845099,67.526215 L129.845099,76.2065434 C129.845099,78.858429 127.671899,81.0272002 125.015961,81.0272002 L120.669562,81.0272002 C118.013274,81.0272002 115.840424,78.858429 115.840424,76.2065434 L115.840424,67.526215 C115.840424,64.8708337 118.013274,62.7017129 120.669562,62.7017129 L125.015961,62.7017129 C127.671899,62.7017129 129.845099,64.8708337 129.845099,67.526215" id="Fill-33" fill="#EDEDED"></path>
                            <path d="M120.669597,63.9072267 C118.67248,63.9072267 117.047481,65.5306589 117.047481,67.5267394 L117.047481,76.2067182 C117.047481,78.2000021 118.67248,79.8216864 120.669597,79.8216864 L125.015996,79.8216864 C127.013113,79.8216864 128.638112,78.2000021 128.638112,76.2067182 L128.638112,67.5267394 C128.638112,65.5306589 127.013113,63.9072267 125.015996,63.9072267 L120.669597,63.9072267 Z M125.015996,82.2330636 L120.669597,82.2330636 C117.340835,82.2330636 114.633087,79.5294407 114.633087,76.2067182 L114.633087,67.5267394 C114.633087,64.2012203 117.340835,61.4961992 120.669597,61.4961992 L125.015996,61.4961992 C128.344408,61.4961992 131.052506,64.2012203 131.052506,67.5267394 L131.052506,76.2067182 C131.052506,79.5294407 128.344408,82.2330636 125.015996,82.2330636 Z" id="Fill-35" fill="#4D4E4E"></path>
                            <path d="M90.9695073,145.891042 L90.9695073,163.252049 L88.3954842,163.252049 L83.4263207,148.046879 C85.6817853,147.222229 87.4345575,144.588871 87.8791393,142.886434 L90.9695073,145.891042 Z" id="Fill-37" fill="#F5F5F4"></path>
                            <path d="M90.9695073,127.888564 L90.9695073,145.891042 L87.8791393,142.886434 L82.0355151,137.210714 L82.0306142,137.003066 C89.3903671,136.901689 90.9695073,130.912049 90.9695073,127.888564" id="Fill-39" fill="#F5F5F4"></path>
                            <path d="M90.9695073,125.395421 L90.9695073,127.888599 C90.9695073,130.912084 89.3903671,136.901724 82.0306142,137.003101 C81.9630517,137.007995 81.9003902,137.007995 81.8324777,137.007995 L81.7988716,137.007995 C74.3039938,136.988768 72.6569411,130.053874 72.6569411,127.845251 L72.618434,127.845251 L72.618434,125.395421 L72.618434,122.820092 C75.6366888,123.558048 78.7904185,123.948524 82.0355151,123.948524 C85.1069797,123.948524 88.0961792,123.601395 90.9695073,122.935802 L90.9695073,125.395421 Z" id="Fill-41" fill="#EDEDED"></path>
                            <path d="M83.4263557,148.046879 L88.3955192,163.252049 L75.2166466,163.252049 L80.18581,148.046879 L80.2246672,147.945502 C80.8085745,148.172028 81.4218873,148.30207 82.0355501,148.30207 C82.513738,148.30207 82.981774,148.210831 83.4263557,148.046879" id="Fill-43" fill="#04DE47"></path>
                            <path d="M82.0356901,137.210714 L87.8789642,142.886434 C87.4347326,144.588871 85.6816103,147.222229 83.4264958,148.046879 C82.981914,148.210831 82.5135279,148.302419 82.0356901,148.302419 C81.4220273,148.302419 80.8087145,148.172028 80.2244571,147.945502 C78.0418059,147.096731 76.2403748,144.897547 76.2403748,142.9976 L76.0425884,142.795195 L81.7941457,137.210714 L81.7986965,137.00796 L81.8326528,137.00796 C81.9002152,137.00796 81.9632268,137.00796 82.0304391,137.003066 L82.0356901,137.210714 Z" id="Fill-45" fill="#04DE47"></path>
                            <path d="M81.7987665,137.007925 L81.7938656,137.210679 L76.0426584,142.79516 L72.8598734,145.891007 L72.618329,145.891007 L72.618329,127.845181 L72.6571861,127.845181 C72.6571861,130.053804 74.3038888,136.988698 81.7987665,137.007925" id="Fill-47" fill="#F5F5F4"></path>
                            <path d="M80.2244921,147.945502 L80.1859851,148.046879 L75.2164716,163.252049 L72.618294,163.252049 L72.618294,145.891042 L72.8598384,145.891042 L76.0426234,142.795195 L76.2404098,142.9976 C76.2404098,144.897547 78.0418409,147.096731 80.2244921,147.945502" id="Fill-49" fill="#F5F5F4"></path>
                            <path d="M72.618469,145.891042 L72.618469,163.252049 L50.0757251,163.252049 C50.0757251,150.231381 49.1098976,144.444146 52.0070301,138.175195 C54.5667006,132.638956 72.531653,125.395386 72.531653,125.395386 L72.618469,125.395386 L72.618469,127.845216 L72.618469,145.891042 Z" id="Fill-51" fill="#04DE47"></path>
                            <g id="Group-56" transform="translate(49.709138, 125.148305)">
                                <path d="M0.366412355,38.1037786 C0.366412355,25.0831112 -0.599415187,19.2958761 2.29806744,13.0269248 C4.8573879,7.49068538 22.8223403,0.247115466 22.8223403,0.247115466 L22.9091562,0.247115466" id="Fill-53" fill="#04DE47"></path>
                                <path d="M0.366412355,38.1037786 C0.366412355,25.0831112 -0.599415187,19.2958761 2.29806744,13.0269248 C4.8573879,7.49068538 22.8223403,0.247115466 22.8223403,0.247115466 L22.9091562,0.247115466" id="Stroke-55" stroke="#4D4D4D" stroke-width="2.45" stroke-linecap="round" stroke-linejoin="round"></path>
                            </g>
                            <path d="M108.499715,31.6938083 C101.429815,24.6337659 92.0270867,20.7468273 82.0355501,20.7468273 C61.3999568,20.7468273 44.6087701,37.5146028 44.6087701,58.1210752 L44.6087701,76.0704184 C44.1547367,75.3520392 43.7490121,74.6528867 43.4013982,73.9778549 L43.4013982,58.1210752 C43.4013982,36.8151006 60.6998281,19.5411388 82.0355501,19.5411388 C92.7034111,19.5411388 102.362037,23.8619015 109.354572,30.840143 C116.342556,37.8232786 120.669702,47.4684375 120.669702,58.1210752 L120.669702,74.2816367 C120.326639,75.009804 119.925815,75.752304 119.46198,76.4996981 L119.46198,58.1210752 C119.46198,48.1434693 115.569614,38.7538506 108.499715,31.6938083" id="Fill-57" fill="#4D4E4E"></path>
                            <path d="M48.7135897,25.3280244 C45.3333683,17.1297617 54.9919938,12.7894227 80.5869488,4.1087447 C106.181904,-4.57158369 110.822707,10.8796875 111.011041,11.8249417 C111.49413,14.2363189 113.908524,16.1652807 119.220751,15.6828655 C126.449929,15.0270604 129.845204,23.3990625 130.328292,30.6328443 C130.811031,37.8666261 122.601322,55.1650583 120.669667,60.0500371 C120.669667,60.0500371 115.116246,43.5958316 104.370671,37.1143379 L104.298207,36.8587977 C86.5702486,41.7727913 60.5982744,32.9040413 57.4063876,34.9731833 C47.7477622,41.2421345 43.4013632,59.5679714 43.4013632,59.5679714 C40.9047042,56.1246451 37.1236592,41.7245498 37.6063979,35.9376642 C38.0891367,30.150429 45.3333683,25.3280244 48.7135897,25.3280244" id="Fill-59" fill="#30302F"></path>
                            <path d="M82.0356901,123.948664 C78.7902435,123.948664 75.6368638,123.558187 72.618609,122.819882 L72.618609,124.878537 C76.633497,126.083526 82.3300942,126.950825 90.9696824,125.065211 L90.9696824,122.935942 C88.0960041,123.601535 85.1068046,123.948664 82.0356901,123.948664" id="Fill-61" fill="#CCC8C4"></path>
                            <path d="M59.2391145,164.491646 C58.7077169,164.491646 58.2774878,164.061667 58.2774878,163.531011 L58.2774878,159.993299 C58.2774878,159.462642 58.7077169,159.033013 59.2391145,159.033013 C59.7705122,159.033013 60.2007413,159.462642 60.2007413,159.993299 L60.2007413,163.531011 C60.2007413,164.061667 59.7705122,164.491646 59.2391145,164.491646" id="Fill-63" fill="#4D4E4E"></path>
                            <path d="M111.49406,138.175125 C114.391543,144.444426 113.425715,150.231311 113.425715,163.251979 L90.9694373,163.251979 L90.9694373,145.890972 L90.9694373,127.888494 L90.9694373,125.395316 C90.9694373,125.395316 108.93439,132.638886 111.49406,138.175125" id="Fill-65" fill="#04DE47"></path>
                            <path d="M90.9695073,164.457842 C90.3029848,164.457842 89.7624855,163.918096 89.7624855,163.252154 L89.7624855,121.860575 C89.7624855,121.194283 90.3029848,120.654537 90.9695073,120.654537 C91.6363799,120.654537 92.1768793,121.194283 92.1768793,121.860575 L92.1768793,163.252154 C92.1768793,163.918096 91.6363799,164.457842 90.9695073,164.457842" id="Fill-67" fill="#4D4E4E"></path>
                            <path d="M72.618469,164.457842 C71.9515964,164.457842 71.411097,163.918096 71.411097,163.252154 L71.411097,121.860575 C71.411097,121.194283 71.9515964,120.654537 72.618469,120.654537 C73.2853416,120.654537 73.8258409,121.194283 73.8258409,121.860575 L73.8258409,163.252154 C73.8258409,163.918096 73.2853416,164.457842 72.618469,164.457842" id="Fill-69" fill="#4D4E4E"></path>
                            <path d="M64.6507243,154.330722 C64.1714862,154.330722 63.7178028,154.04407 63.5291181,153.572841 L59.665808,143.927682 C59.5380345,143.60782 59.5527372,143.248805 59.7067655,142.940479 L62.1211593,138.118074 C62.4201143,137.522396 63.1436973,137.280839 63.7412571,137.579028 C64.3374167,137.876867 64.5793112,138.601189 64.2814064,139.196517 L62.1089071,143.534758 L65.7712803,152.677227 C66.0187758,153.295278 65.7173704,153.997227 65.0984566,154.244377 C64.9514296,154.303106 64.7998517,154.330722 64.6507243,154.330722" id="Fill-71" fill="#4D4E4E"></path>
                            <path d="M81.8326178,138.213683 C73.978574,138.193408 71.4500592,131.219711 71.4500592,127.845251 C71.4500592,127.179308 71.9902085,126.639912 72.6570811,126.639912 C73.3239537,126.639912 73.864453,127.179308 73.864453,127.845251 C73.864453,127.924605 74.2054157,135.783079 81.8021622,135.802656 C81.8084633,135.79951 81.8532716,135.802656 81.8732252,135.802656 C81.9001802,135.802656 81.920834,135.802306 81.942888,135.800908 C81.9666924,135.79881 81.9901467,135.798111 82.0143012,135.797412 C82.8068468,135.786925 89.7622754,135.471957 89.7622754,127.888599 C89.7622754,127.222656 90.3027748,126.68291 90.9696474,126.68291 C91.6365199,126.68291 92.1770193,127.222656 92.1770193,127.888599 C92.1770193,131.665421 90.0493282,138.081893 82.0783629,138.20809 C81.9953977,138.212984 81.9166332,138.213683 81.8326178,138.213683" id="Fill-73" fill="#4D4E4E"></path>
                            <path d="M72.8598033,147.096801 C72.5461457,147.096801 72.2317879,146.974799 71.9947943,146.732542 C71.5299089,146.255371 71.5397107,145.492246 72.0175485,145.027659 L80.9522409,136.345932 C81.4304288,135.882044 82.1949694,135.892182 82.6595048,136.370053 C83.1243902,136.847574 83.1135382,137.610699 82.6360505,138.074936 L73.7020582,146.754566 C73.4678651,146.983189 73.1636592,147.096801 72.8598033,147.096801" id="Fill-75" fill="#4D4E4E"></path>
                            <path d="M82.0356901,149.508003 C81.2942538,149.508003 80.5377647,149.360132 79.7872268,149.068935 C77.1207866,148.032442 75.0330028,145.365524 75.0330028,142.997495 C75.0330028,142.331901 75.5735022,141.792156 76.2403748,141.792156 C76.9072474,141.792156 77.4477467,142.331901 77.4477467,142.997495 C77.4477467,144.368882 78.9498728,146.155916 80.6627377,146.821859 C81.4734867,147.136478 82.2345266,147.201499 83.0078188,146.915895 C84.8397055,146.246107 86.3593349,143.928766 86.7104494,142.582548 C86.8784803,141.938628 87.5369514,141.553745 88.1835202,141.720143 C88.8283387,141.88794 89.2155099,142.546541 89.0467789,143.19081 C88.557739,145.065588 86.6190826,148.162834 83.841322,149.179052 C83.2511135,149.396838 82.6420015,149.508003 82.0356901,149.508003" id="Fill-77" fill="#4D4E4E"></path>
                            <path d="M88.3956242,164.458192 C87.8873308,164.458192 87.4140438,164.134834 87.2477632,163.6262 L82.2782497,148.421031 C82.0720618,147.787599 82.4179254,147.107323 83.0515418,146.900724 C83.683758,146.694823 84.3670837,147.039855 84.5743218,147.672938 L89.5434852,162.877757 C89.7500232,163.51119 89.4038095,164.191465 88.769843,164.398065 C88.6459202,164.438615 88.519547,164.458192 88.3956242,164.458192" id="Fill-79" fill="#4D4E4E"></path>
                            <path d="M90.9695073,147.096801 C90.6660015,147.096801 90.3624958,146.983189 90.1276026,146.754915 L81.1936103,138.074587 C80.7161225,137.61035 80.7052705,136.847225 81.170156,136.369703 C81.6350414,135.892182 82.3992319,135.882044 82.8774198,136.346282 L91.8117622,145.02696 C92.2896,145.491547 92.3001019,146.255021 91.8345163,146.731843 C91.5982229,146.974449 91.2835151,147.096801 90.9695073,147.096801" id="Fill-81" fill="#4D4E4E"></path>
                            <path d="M75.2166116,164.458192 C75.0926888,164.458192 74.9666656,164.438965 74.8423928,164.398065 C74.2080762,164.191465 73.8622126,163.51119 74.0687506,162.877757 L79.037914,147.672938 C79.2451521,147.039855 79.9253272,146.693774 80.5603439,146.900724 C81.1939604,147.107323 81.540174,147.787599 81.3339861,148.421031 L76.3644726,163.6262 C76.198192,164.134834 75.724905,164.458192 75.2166116,164.458192" id="Fill-83" fill="#4D4E4E"></path>
                            <path d="M119.462155,76.499803 L119.462155,84.1628644 C119.462155,104.769337 102.670968,121.537462 82.0357251,121.537462 C61.4001318,121.537462 44.6089452,104.769337 44.6089452,84.1628644 L44.6089452,76.0705233 C49.950227,84.4904174 62.510886,95.4957775 81.311442,95.4957775 C100.488317,95.4957775 114.024605,85.3682034 119.462155,76.499803" id="Fill-85" fill="#CCCCCC"></path>
                            <path d="M119.462155,58.1211102 L119.462155,76.4997331 C114.024605,85.3681335 100.488317,95.4957076 81.311442,95.4957076 C62.510886,95.4957076 49.950227,84.490697 44.6089452,76.0704534 L44.6089452,58.1211102 C44.6089452,37.5146377 61.4001318,20.7465127 82.0357251,20.7465127 C92.0272618,20.7465127 101.42964,24.6338008 108.49989,31.6938432 C115.569789,38.7538856 119.462155,48.1435042 119.462155,58.1211102" id="Fill-87" fill="#EDEDED"></path>
                            <path d="M120.669597,74.2814968 C120.326884,75.0096642 119.92571,75.7525138 119.462225,76.4999078 L119.462225,84.1629693 C119.462225,104.769442 102.671038,121.537567 82.0357951,121.537567 C61.3998517,121.537567 44.6090152,104.769442 44.6090152,84.1629693 L44.6090152,76.0706282 C44.1549817,75.3522489 43.7492571,74.6527468 43.4012932,73.9773655 L43.4012932,58.1209354 C43.4012932,36.8153104 60.699723,19.5409989 82.0357951,19.5409989 C92.703306,19.5409989 102.361932,23.8621112 109.354817,30.8400032 C116.342802,37.8231388 120.669597,47.4682977 120.669597,58.1209354 L120.669597,74.2814968 Z M110.209324,29.9866875 C102.68049,22.4728951 92.6742507,18.3353104 82.0357951,18.3353104 C60.0671568,18.3353104 42.1942713,36.1836261 42.1942713,58.1209354 L42.1942713,84.1629693 C42.1942713,102.859707 55.1802584,118.590988 72.618364,122.820162 C75.6366188,123.558118 78.7903485,123.948594 82.0357951,123.948594 C85.1069097,123.948594 88.0961091,123.601465 90.9694373,122.935872 C108.649437,118.880088 121.876969,103.033096 121.876969,84.1629693 L121.876969,58.1209354 C121.876969,47.4969629 117.733257,37.5046748 110.209324,29.9866875 Z" id="Fill-89" fill="#4D4E4E"></path>
                            <path d="M81.1140057,104.011525 C76.0611768,104.011525 71.1557251,102.560085 66.4319568,99.6572034 C65.8641524,99.3079767 65.6873699,98.5654767 66.0367341,97.998464 C66.3860983,97.4318008 67.1299851,97.2542161 67.6977894,97.6037924 C76.3352772,102.911758 85.6777946,102.901271 95.4620932,97.5719809 C96.0467006,97.2524682 96.7811356,97.4685064 97.1000443,98.0529979 C97.419303,98.6374894 97.2036633,99.3698517 96.6183557,99.6886653 C91.3281833,102.570222 86.147931,104.011525 81.1140057,104.011525" id="Fill-91" fill="#4D4E4E"></path>
                            <path d="M82.0356901,92.1198146 C75.9291676,92.1198146 74.0671753,90.824285 74.0671753,86.5741367 C74.0671753,85.9078443 74.6076746,85.3684481 75.2748973,85.3684481 C75.9414198,85.3684481 76.4819192,85.9078443 76.4819192,86.5741367 C76.4819192,88.7914989 76.4819192,89.7087871 82.0356901,89.7087871 C84.0874172,89.7087871 85.5303825,89.2753125 86.2098574,88.4562553 C86.8137184,87.7266896 86.6551393,86.8555456 86.6488381,86.81884 C86.5245653,86.1717744 86.942192,85.5362447 87.5880607,85.4027066 C88.2332293,85.2674206 88.8657956,85.6694333 89.009322,86.3126536 C89.0541302,86.5140095 89.4094456,88.3258633 88.1121071,89.9416049 C86.9505936,91.3871028 84.9062178,92.1198146 82.0356901,92.1198146" id="Fill-93" fill="#4D4E4E"></path>
                            <path d="M58.7348468,66.8021377 C58.2556088,66.8021377 57.8019254,66.5154852 57.6132407,66.0439068 C57.3657452,65.4255064 57.6671506,64.7239068 58.2860644,64.4767564 C60.4351094,63.618197 67.8029138,61.7832712 73.2793205,64.5176568 C73.87513,64.8154958 74.1170245,65.5394682 73.8191197,66.1351462 C73.5201647,66.7311737 72.7958816,66.9720318 72.1993719,66.6745424 C67.863825,64.5089174 61.5574157,65.7677415 59.1825792,66.7154428 C59.0355521,66.7741716 58.8839743,66.8021377 58.7348468,66.8021377" id="Fill-95" fill="#4D4E4E"></path>
                            <path d="M91.8152628,66.8021377 C91.3360247,66.8021377 90.8823413,66.5154852 90.6936566,66.0439068 C90.4461611,65.4255064 90.7475665,64.7239068 91.3664803,64.4767564 C93.5158754,63.618197 100.88333,61.7832712 106.359736,64.5176568 C106.955546,64.8154958 107.19744,65.5394682 106.899536,66.1351462 C106.600581,66.7311737 105.875597,66.9720318 105.279788,66.6745424 C100.943541,64.5089174 94.6374816,65.7677415 92.2629951,66.7154428 C92.1159681,66.7741716 91.9643902,66.8021377 91.8152628,66.8021377" id="Fill-97" fill="#4D4E4E"></path>
                            <path d="M108.355103,41.483482 C108.355103,41.483482 84.2083645,46.7883019 63.4428973,35.6965964 C42.6770801,24.6045413 103.042527,31.8383231 103.042527,31.8383231 L110.769497,36.1786621 L108.355103,41.483482 Z" id="Fill-99" fill="#BFBFBF"></path>
                            <path d="M94.1088144,79.340285 C93.4419418,79.340285 92.9014425,78.8005392 92.9014425,78.1345964 C92.9014425,74.9212913 95.4313575,72.5889184 98.9169483,72.5889184 C102.504408,72.5889184 104.733267,74.6444269 104.733267,77.9538655 C104.733267,78.6198083 104.192768,79.1592044 103.525545,79.1592044 C102.858673,79.1592044 102.318524,78.6198083 102.318524,77.9538655 C102.318524,75.9937913 101.174513,74.999946 98.9169483,74.999946 C96.7969586,74.999946 95.3158363,76.2888337 95.3158363,78.1345964 C95.3158363,78.8005392 94.7753369,79.340285 94.1088144,79.340285" id="Fill-101" fill="#4D4E4E"></path>
                            <path d="M60.786714,79.340285 C60.1201915,79.340285 59.5796921,78.8005392 59.5796921,78.1345964 C59.5796921,74.9212913 62.1096072,72.5889184 65.5951979,72.5889184 C69.1826574,72.5889184 71.4111671,74.6444269 71.4111671,77.9538655 C71.4111671,78.6198083 70.8706677,79.1592044 70.2037951,79.1592044 C69.5369225,79.1592044 68.9964232,78.6198083 68.9964232,77.9538655 C68.9964232,75.9937913 67.8524129,74.999946 65.5951979,74.999946 C63.4752082,74.999946 61.994086,76.2888337 61.994086,78.1345964 C61.994086,78.8005392 61.4535866,79.340285 60.786714,79.340285" id="Fill-103" fill="#4D4E4E"></path>
                            <path d="M81.6845755,109.655294 C79.4634172,109.655294 77.3518291,109.472816 76.2211212,109.223218 C75.5696515,109.078843 75.159026,108.435273 75.3029024,107.785061 C75.447129,107.135199 76.0912474,106.724097 76.7427171,106.868123 C78.6173117,107.28272 83.4888072,107.463102 86.3778883,106.864977 C87.0304082,106.734585 87.6703259,107.148483 87.8054507,107.800443 C87.9409256,108.452752 87.5211985,109.090729 86.8686785,109.226015 C85.3851058,109.533292 83.498609,109.655294 81.6845755,109.655294" id="Fill-105" fill="#4D4E4E"></path>
                            <path d="M67.3729647,8.76838665 C51.718087,14.6353252 45.995235,18.7348061 48.7134847,25.3281642 C45.3332633,25.3281642 38.0893817,30.1505689 37.6062929,35.9374544 C37.1235542,41.7246896 40.9049493,56.124785 43.4012582,59.5677617 C43.4012582,59.5677617 47.7476571,41.2422744 57.4062826,34.9729735 C57.4916983,34.9173909 57.5970677,34.8712468 57.7150394,34.8310456 C53.8958373,30.1177087 55.7154718,24.7639481 54.7499943,22.1935138 C53.8044705,19.6748167 59.4461076,14.4839587 67.3729647,8.76838665" id="Fill-107" fill="#4C4C4C"></path>
                            <path d="M107.872084,16.4063136 C109.355307,11.3269703 108.234051,7.82701271 106.019544,4.84582627 C101.75716,1.66608051 94.0883006,-0.470180085 80.5870188,4.10891949 C75.5754976,5.80855932 71.1839403,7.34005297 67.3731398,8.76842161 C59.4462826,14.4836441 53.8046456,19.6748517 54.7501694,22.1935487 C55.7156468,24.7639831 53.8960124,30.1177436 57.7152144,34.8310805 C61.8470239,33.4205403 85.3958528,41.0986335 102.545155,37.2934958 C111.226401,29.1452225 107.872084,16.4063136 107.872084,16.4063136" id="Fill-109" fill="#424242"></path>
                            <path d="M104.370741,37.114268 C115.115966,43.5957617 120.669737,60.0499672 120.669737,60.0499672 C122.601392,55.1649883 130.810751,37.8665561 130.328012,30.6327744 C129.845274,23.3989926 126.449999,15.0269905 119.220821,15.6827956 C113.908594,16.1652108 111.4942,14.2362489 111.011111,11.8248718 C110.922195,11.3781133 109.837346,7.69357945 106.019544,4.84558157 C108.234051,7.82711758 109.355307,11.3270752 107.872084,16.4064184 C107.872084,16.4064184 111.226401,29.1453273 102.545155,37.2936006 C103.137464,37.1625095 103.722422,37.0184841 104.298277,36.8587278 L104.370741,37.114268 Z" id="Fill-111" fill="#3A3A3A"></path>
                            <g id="Group-115" transform="translate(36.056628, 0.000000)">
                                <mask id="mask-2" fill="white">
                                    <use xlink:href="#path-1"></use>
                                </mask>
                                <g id="Clip-114"></g>
                                <path d="M70.7840618,37.3177564 C74.7068829,40.2098008 78.3205972,44.6092182 81.5488906,50.4282648 C82.9204427,52.9008178 83.955583,55.1590805 84.6557117,56.8248114 C84.7792844,56.5371102 84.9088082,56.236125 85.0432329,55.9215064 C87.9795727,49.0893877 93.4444273,36.3721525 93.0667079,30.7128623 C92.7887568,26.5459131 91.3723964,21.1390169 88.2326692,18.4612627 C86.8072072,17.2454364 85.1388005,16.7147797 83.2736577,16.883625 C75.4885766,17.5911674 74.0333591,13.3710826 73.7704607,12.0612203 C73.7617091,12.018572 72.6436036,7.62544703 67.8071145,4.87428178 C62.4101725,1.80255508 54.7091068,1.92980085 44.918157,5.25042585 C28.0415547,10.9743877 15.9184762,15.4140064 13.6336062,20.4374174 C13.0297452,21.7647585 13.0742033,23.1728517 13.7736319,24.8689958 L14.459758,26.533678 L12.6569266,26.533678 C9.73423938,26.533678 3.17053282,31.0302775 2.75290605,36.0376081 C2.377287,40.5401504 4.83788932,50.9673114 7.00653797,56.2738792 C8.71205148,50.6866017 13.0710528,38.908678 20.6916036,33.9621737 C22.1881287,32.9924492 25.4356757,33.4836038 32.6396499,34.6878941 C42.3077272,36.3036356 56.9190631,38.746125 67.918435,35.6971208 C70.9443912,34.8581377 73.5579717,33.6388157 75.6874131,32.0734131 C76.2240618,31.6780424 76.9805508,31.7927034 77.3750734,32.3289534 C77.7709961,32.8652034 77.655825,33.6199386 77.1191763,34.0149597 C75.2984916,35.3538369 73.1739511,36.4605953 70.7840618,37.3177564 Z M84.5247876,63.5566017 L83.4686435,60.4355847 C83.4150837,60.2758284 77.9673822,44.4456165 67.8116654,38.2200127 C56.4044685,41.1050657 41.9062033,38.681803 32.2409266,37.0660614 C27.8640721,36.3343983 22.9033102,35.5048538 21.999444,35.9890169 C12.870816,41.9146843 8.56222394,59.6675657 8.51986615,59.8458496 L7.91145431,62.4047479 L6.3669704,60.2751292 C3.75023938,56.6657542 -0.162779923,41.9419513 0.346563707,35.8376504 C0.83210296,30.0210508 6.99253539,25.4178305 11.0592329,24.3544195 C10.6094003,22.5981483 10.7347233,20.9792606 11.434852,19.4400763 C13.9108571,13.9971737 23.5260746,9.95921822 44.1420644,2.96734322 C54.6649987,-0.601830508 63.0567413,-0.649023305 69.0851995,2.82611441 C74.9193719,6.18973729 76.1277941,11.5365064 76.1386461,11.5899915 C76.578677,13.7863792 79.1019408,14.8410508 83.0548674,14.4823856 C85.5921338,14.2523644 87.861251,14.9738898 89.8006075,16.6273856 C92.9518867,19.3145784 95.0732767,24.5204682 95.4758507,30.5524068 C95.8924273,36.7905953 90.4902342,49.3617076 87.2622909,56.8723538 C86.6237735,58.3584025 86.0727722,59.6413475 85.7360103,60.4929153 L84.5247876,63.5566017 Z" id="Fill-113" fill="#4D4E4E" mask="url(#mask-2)"></path>
                            </g>
                            <path d="M253.446519,163.60166 L106.069428,163.60166" id="Stroke-116" stroke="#4D4D4D" stroke-width="2.1" stroke-linecap="round"></path>
                            <path d="M109.220007,163.60166 L18.5533405,163.60166" id="Stroke-118" stroke="#4D4D4D" stroke-width="2.1" stroke-linecap="round"></path>
                            <path d="M9.45166744,163.60166 L-7.001287e-05,163.60166" id="Stroke-120" stroke="#4D4D4D" stroke-width="2.1" stroke-linecap="round"></path>
                            <path d="M271.99993,163.60166 L262.548193,163.60166" id="Stroke-122" stroke="#4D4D4D" stroke-width="2.1" stroke-linecap="round"></path>
                            <g id="Group-127" transform="translate(151.927928, 117.108051)">
                                <path d="M0.0597559846,15.9787468 L4.48631969,10.8403252 C4.48631969,10.8403252 3.61045869,6.46642691 4.92425019,4.71679767 C6.2380417,2.96716843 9.30425534,0.342549788 10.1804664,0.342549788 C12.8083995,0.342549788 12.8083995,1.65485911 13.2466801,2.09217903 C13.6846106,2.52949894 15.4366826,11.2779947 15.4366826,11.2779947 L14.9987521,15.2142235 L12.370469,16.5265328 L7.55218327,22.65041" id="Fill-124" fill="#EDEDED"></path>
                                <path d="M0.0597559846,15.9787468 L4.48631969,10.8403252 C4.48631969,10.8403252 3.61045869,6.46642691 4.92425019,4.71679767 C6.2380417,2.96716843 9.30425534,0.342549788 10.1804664,0.342549788 C12.8083995,0.342549788 12.8083995,1.65485911 13.2466801,2.09217903 C13.6846106,2.52949894 15.4366826,11.2779947 15.4366826,11.2779947 L14.9987521,15.2142235 L12.370469,16.5265328 L7.55218327,22.65041" id="Stroke-126" stroke="#4D4D4D" stroke-width="1.75" stroke-linecap="round" stroke-linejoin="round"></path>
                            </g>
                            <path d="M109.342425,163.252433 C108.55408,161.883493 107.967022,160.671861 107.660366,159.74898" id="Stroke-128" stroke="#4D4D4D" stroke-width="2.1" stroke-linecap="round" stroke-linejoin="round"></path>
                            <path d="M91.1913781,125.456526 C91.1913781,125.456526 102.746302,127.770372 108.147095,132.323952 C108.147095,132.323952 113.709618,137.353656 117.651692,147.851431 C119.403764,152.225329 122.032047,158.786526 123.346189,160.098836 C125.097911,158.786526 150.06485,136.041346 151.816923,132.979757 C154.006575,134.291717 159.701072,139.978274 159.701072,139.978274 C159.701072,139.978274 150.095656,152.618952 140.954076,163.497416" id="Stroke-130" stroke="#4D4D4D" stroke-width="2.1" stroke-linecap="round" stroke-linejoin="round"></path>
                            <path d="M151.753176,133.608086 C151.061449,133.608086 150.41488,133.270745 150.023508,132.705829 L149.560023,132.03744 C148.901202,131.085543 149.139945,129.77673 150.092471,129.118827 L204.041238,91.8379163 C204.393052,91.5946112 204.805428,91.4659672 205.233907,91.4659672 C205.925284,91.4659672 206.572203,91.8036578 206.963925,92.3685731 L207.42706,93.0373125 C207.745268,93.4966557 207.865341,94.0538803 207.764522,94.6062108 C207.664054,95.1581917 207.355297,95.6374608 206.895312,95.9552256 L152.945495,133.236836 C152.59368,133.479791 152.181655,133.608086 151.753176,133.608086" id="Fill-132" fill="#B5B5B5"></path>
                            <path d="M205.234047,90.5920964 L205.233697,90.5920964 C204.626685,90.592446 204.042078,90.7742256 203.543236,91.1189078 L149.594469,128.400168 C148.941599,128.851122 148.503668,129.530349 148.361542,130.312001 C148.218716,131.093654 148.388847,131.882997 148.84043,132.534607 L149.303916,133.202997 C149.858768,134.004226 150.774536,134.482096 151.753316,134.482096 C152.360327,134.482096 152.944935,134.299967 153.443777,133.955285 L207.392894,96.6740244 C208.045414,96.223071 208.482994,95.5441939 208.62547,94.7625413 C208.768297,93.9805392 208.597815,93.1915456 208.146582,92.5395858 L207.683447,91.8715456 C207.128245,91.0703167 206.212477,90.5920964 205.234047,90.5920964 M205.233697,92.3399778 C205.622968,92.3399778 206.006989,92.5238549 206.244333,92.86609 L206.707118,93.5344799 C207.090788,94.0878591 206.950762,94.8537807 206.396961,95.2365667 L152.447493,132.518177 C152.236055,132.6643 151.99346,132.734215 151.753316,132.734215 C151.363694,132.734215 150.980374,132.550338 150.74303,132.208452 L150.279895,131.540062 C149.896575,130.986683 150.0359,130.220412 150.590052,129.837976 L204.539519,92.5563655 C204.750608,92.4102426 204.993553,92.3399778 205.233697,92.3399778" id="Fill-134" fill="#4D4D4D"></path>
                            <path d="M166.693817,135.888197 C163.55199,135.888197 160.951362,133.433822 160.772829,130.301269 L160.39616,123.691831 C160.306543,122.117339 160.839341,120.59878 161.896885,119.415464 C162.95408,118.232148 164.404746,117.530898 165.981436,117.441407 L166.917508,117.388271 C167.030579,117.381979 167.1433,117.378833 167.25532,117.378833 C170.397148,117.378833 172.998126,119.832858 173.176659,122.965761 L173.553328,129.57485 C173.642945,131.149341 173.109797,132.66825 172.052602,133.851566 C170.995058,135.034881 169.544741,135.735782 167.968051,135.825273 L167.031979,135.878758 C166.918909,135.885051 166.805838,135.888197 166.693817,135.888197" id="Fill-136" fill="#EDEDED"></path>
                            <path d="M167.255846,116.329999 L167.255495,116.329999 C167.123521,116.329999 166.990847,116.333844 166.857822,116.341185 L165.9214,116.394671 C164.065359,116.499893 162.357395,117.324893 161.113266,118.717255 C159.869138,120.109967 159.241822,121.8977 159.347542,123.751154 L159.724211,130.360942 C159.93425,134.048622 162.995912,136.936821 166.693992,136.936821 C166.825616,136.936821 166.958291,136.933325 167.091315,136.925635 L168.027737,136.872499 C169.884129,136.766927 171.591743,135.942276 172.835871,134.549565 C174.08035,133.157552 174.707315,131.369469 174.601246,129.515666 L174.224927,122.906228 C174.015238,119.218548 170.953575,116.329999 167.255846,116.329999 M167.255495,118.427457 C169.816216,118.427457 171.980664,120.441715 172.128041,123.025084 L172.50436,129.634872 C172.657338,132.311577 170.588808,134.626122 167.908366,134.778188 L166.971943,134.831673 C166.879176,134.836567 166.785709,134.839363 166.693992,134.839363 C164.132921,134.839363 161.968474,132.825804 161.821447,130.241736 L161.444427,123.632298 C161.292149,120.955243 163.360329,118.640698 166.040772,118.488632 L166.977194,118.435147 C167.070311,118.430253 167.163079,118.427457 167.255495,118.427457" id="Fill-138" fill="#4D4D4D"></path>
                            <path d="M100.071846,154.330722 C99.9227181,154.330722 99.7711403,154.303106 99.6241133,154.244377 C99.0051995,153.997227 98.7037941,153.295278 98.9516396,152.677227 L102.613663,143.534758 L100.441514,139.196517 C100.143259,138.601189 100.385153,137.876867 100.981313,137.579028 C101.577822,137.281189 102.302806,137.522746 102.601411,138.118074 L105.015804,142.940479 C105.169833,143.248805 105.184535,143.60782 105.056762,143.927682 L101.193452,153.572841 C101.004767,154.04407 100.551084,154.330722 100.071846,154.330722" id="Fill-140" fill="#4D4E4E"></path>
                            <g id="Group-145" transform="translate(150.177606, 79.353814)">
                                <polyline id="Fill-142" fill="#04DE47" points="14.7026327 8.49085805 14.7026327 0 -7.001287e-05 0 -7.001287e-05 8.41150424"></polyline>
                                <polyline id="Stroke-144" stroke="#4D4D4D" stroke-width="2.1" stroke-linecap="round" stroke-linejoin="round" points="14.7026327 8.49085805 14.7026327 0 -7.001287e-05 0 -7.001287e-05 8.41150424"></polyline>
                            </g>
                            <g id="Group-149" transform="translate(171.181467, 70.614407)">
                                <polyline id="Fill-146" fill="#04DE47" points="14.7026327 17.2302648 14.7026327 0 -7.001287e-05 0 -7.001287e-05 17.0729555"></polyline>
                                <polyline id="Stroke-148" stroke="#4D4D4D" stroke-width="2.1" stroke-linecap="round" stroke-linejoin="round" points="14.7026327 17.2302648 14.7026327 0 -7.001287e-05 0 -7.001287e-05 17.0729555"></polyline>
                            </g>
                            <g id="Group-153" transform="translate(192.185328, 60.127119)">
                                <polyline id="Fill-150" fill="#04DE47" points="14.7026327 27.717553 14.7026327 0 -7.001287e-05 0 -7.001287e-05 27.4665572"></polyline>
                                <polyline id="Stroke-152" stroke="#4D4D4D" stroke-width="2.1" stroke-linecap="round" stroke-linejoin="round" points="14.7026327 27.717553 14.7026327 0 -7.001287e-05 0 -7.001287e-05 27.4665572"></polyline>
                            </g>
                            <g id="Group-157" transform="translate(138.975547, 88.093220)">
                                <polyline id="Fill-154" fill="#F4F4F4" points="-7.001287e-05 -3.5e-05 11.7855465 -3.5e-05 80.1646662 -3.5e-05"></polyline>
                                <polyline id="Stroke-156" stroke="#4D4D4D" stroke-width="2.1" stroke-linecap="round" points="-7.001287e-05 -3.5e-05 11.7855465 -3.5e-05 80.1646662 -3.5e-05"></polyline>
                            </g>
                            <polyline id="Stroke-158" stroke="#4D4D4D" stroke-width="2.1" stroke-linecap="round" stroke-linejoin="round" points="138.975477 79.3537786 162.079724 66.7690328 180.28307 65.0211515 200.586803 47.8919142 219.140213 42.6482701"></polyline>
                            <g id="Group-163" transform="translate(192.535393, 106.970339)">
                                <path d="M7.00121699,-3.5e-05 L-7.001287e-05,-3.5e-05" id="Fill-160" fill="#F4F4F4"></path>
                                <path d="M7.00121699,-3.5e-05 L-7.001287e-05,-3.5e-05" id="Stroke-162" stroke="#4D4D4D" stroke-width="2.1" stroke-linecap="round"></path>
                            </g>
                        </g>
                    </g>
                </g>
            </g>
        </g>
    </g>
</svg>