<?xml version="1.0" encoding="UTF-8"?>
<svg width="1138px" height="291px" viewBox="0 0 1138 291" version="1.1" xmlns="http://www.w3.org/2000/svg" xmlns:xlink="http://www.w3.org/1999/xlink">
    <!-- Generator: Sketch 50.2 (55047) - http://www.bohemiancoding.com/sketch -->
    <title>Group 29</title>
    <desc>Created with Sketch.</desc>
    <defs></defs>
    <g id="Page-1" stroke="none" stroke-width="1" fill="none" fill-rule="evenodd">
        <g id="wunder_solutions_shuttle" transform="translate(-154.000000, -4645.000000)">
            <g id="Solution-Switch" transform="translate(156.000000, 4551.000000)">
                <g id="Group-12" transform="translate(0.000000, 94.000000)">
                    <g id="Group-29">
                        <g id="Group-4" opacity="0.5" transform="translate(567.500000, 145.500000) scale(-1, 1) translate(-567.500000, -145.500000) ">
                            <g id="Page-1">
                                <polygon id="Fill-14" fill="#EBEBEB" points="83.378 287.599 198.942 287.599 198.942 143.245 83.378 143.245"></polygon>
                                <polygon id="Fill-15" fill="#D8D8D8" points="94.977 163.577 123.657 163.577 123.657 155.445 94.977 155.445"></polygon>
                                <polygon id="Fill-16" fill="#D8D8D8" points="94.977 178.826 123.657 178.826 123.657 170.694 94.977 170.694"></polygon>
                                <polygon id="Fill-17" fill="#D8D8D8" points="94.977 194.075 123.657 194.075 123.657 185.942 94.977 185.942"></polygon>
                                <polygon id="Fill-18" fill="#D8D8D8" points="105.732 143.245 176.589 143.245 176.589 133.588 105.732 133.588"></polygon>
                                <polygon id="Fill-19" fill="#EBEBEB" points="190.2963 129.0136 141.1603 132.0636 92.4453 129.0136 92.4453 134.6046 141.3713 137.6546 190.2963 134.6046"></polygon>
                                <polygon id="Fill-20" fill="#D8D8D8" points="247.657 287.599 342.977 287.599 342.977 81.776 247.657 81.776"></polygon>
                                <polygon id="Fill-26" fill="#EBEBEB" points="250.187 84.306 337.915 84.306 337.915 69.966 250.187 69.966"></polygon>
                                <polygon id="Fill-27" fill="#B2B2B2" points="145.378 287.599 252.507 287.599 252.507 20.35 145.378 20.35"></polygon>
                                <polygon id="Fill-28" fill="#FFFFFF" points="161.616 77.711 176.8 77.711 176.8 52.941 161.616 52.941"></polygon>
                                <polygon id="Fill-29" fill="#FFFFFF" points="191.14 77.711 206.324 77.711 206.324 52.941 191.14 52.941"></polygon>
                                <polygon id="Fill-30" fill="#FFFFFF" points="220.664 77.711 235.848 77.711 235.848 52.941 220.664 52.941"></polygon>
                                <polygon id="Fill-31" fill="#969696" points="169.419 20.351 228.466 20.351 228.466 0.796 169.419 0.796"></polygon>
                                <polygon id="Fill-42" fill="#FFFFFF" points="268.745 146.728 281.398 146.728 281.398 97.803 268.745 97.803"></polygon>
                                <polygon id="Fill-43" fill="#FFFFFF" points="285.616 146.728 298.269 146.728 298.269 97.803 285.616 97.803"></polygon>
                                <polygon id="Fill-65" fill="#FFFFFF" points="302.487 146.728 315.14 146.728 315.14 97.803 302.487 97.803"></polygon>
                                <g id="Group-22" transform="translate(410.000000, 56.000000)">
                                    <polygon id="Fill-1" fill="#D8D8D8" points="0.459 123.626 165.793 123.626 165.793 13.966 0.459 13.966"></polygon>
                                    <polygon id="Fill-2" fill="#EBEBEB" points="8.052 36.742 149.766 36.742 149.766 28.306 8.052 28.306"></polygon>
                                    <polygon id="Fill-3" fill="#EBEBEB" points="8.052 47.707 149.766 47.707 149.766 39.272 8.052 39.272"></polygon>
                                    <polygon id="Fill-4" fill="#EBEBEB" points="8.052 89.885 149.766 89.885 149.766 81.449 8.052 81.449"></polygon>
                                    <polygon id="Fill-5" fill="#EBEBEB" points="8.052 100.85 149.766 100.85 149.766 92.414 8.052 92.414"></polygon>
                                    <polygon id="Fill-6" fill="#FFFFFF" points="114.338 73.857 126.991 73.857 126.991 54.456 114.338 54.456"></polygon>
                                    <polygon id="Fill-7" fill="#FFFFFF" points="131.208 73.857 143.861 73.857 143.861 54.456 131.208 54.456"></polygon>
                                    <polygon id="Fill-85" fill="#B2B2B2" points="46.011 13.966 74.691 13.966 74.691 4.687 46.011 4.687"></polygon>
                                    <polygon id="Fill-86" fill="#B2B2B2" points="96.624 13.966 125.304 13.966 125.304 4.687 96.624 4.687"></polygon>
                                    <polygon id="Fill-87" fill="#969696" points="94.092 4.687 127.834 4.687 127.834 0.47 94.092 0.47"></polygon>
                                    <polygon id="Fill-88" fill="#969696" points="43.48 4.687 77.222 4.687 77.222 0.47 43.48 0.47"></polygon>
                                    <polygon id="Fill-99" fill="#FFFFFF" points="29.984 73.857 42.637 73.857 42.637 54.456 29.984 54.456"></polygon>
                                    <polygon id="Fill-100" fill="#FFFFFF" points="46.855 73.857 59.508 73.857 59.508 54.456 46.855 54.456"></polygon>
                                    <polygon id="Fill-101" fill="#FFFFFF" points="72.161 73.857 84.814 73.857 84.814 54.456 72.161 54.456"></polygon>
                                    <polygon id="Fill-102" fill="#FFFFFF" points="89.032 73.857 101.685 73.857 101.685 54.456 89.032 54.456"></polygon>
                                </g>
                                <g id="Group-25" transform="translate(331.000000, 5.000000)">
                                    <polygon id="Fill-66" fill="#B2B2B2" points="0.588 282.593993 93.378 282.593993 93.378 32.054 0.588 32.054"></polygon>
                                    <polygon id="Fill-67" fill="#FFFFFF" points="12.398 68.327 41.922 68.327 41.922 57.361 12.398 57.361"></polygon>
                                    <polygon id="Fill-68" fill="#FFFFFF" points="52.045 68.327 81.569 68.327 81.569 57.361 52.045 57.361"></polygon>
                                    <polygon id="Fill-69" fill="#FFFFFF" points="12.398 85.197 41.922 85.197 41.922 74.231 12.398 74.231"></polygon>
                                    <polygon id="Fill-70" fill="#FFFFFF" points="52.045 85.197 81.569 85.197 81.569 74.231 52.045 74.231"></polygon>
                                    <polygon id="Fill-71" fill="#FFFFFF" points="12.398 102.068 41.922 102.068 41.922 91.102 12.398 91.102"></polygon>
                                    <polygon id="Fill-72" fill="#FFFFFF" points="52.045 102.068 81.569 102.068 81.569 91.102 52.045 91.102"></polygon>
                                    <polygon id="Fill-73" fill="#FFFFFF" points="12.398 118.939 41.922 118.939 41.922 107.973 12.398 107.973"></polygon>
                                    <polygon id="Fill-74" fill="#FFFFFF" points="52.045 118.939 81.569 118.939 81.569 107.973 52.045 107.973"></polygon>
                                    <polygon id="Fill-75" fill="#FFFFFF" points="12.398 152.681 41.922 152.681 41.922 141.715 12.398 141.715"></polygon>
                                    <polygon id="Fill-76" fill="#FFFFFF" points="52.045 152.681 81.569 152.681 81.569 141.715 52.045 141.715"></polygon>
                                    <polygon id="Fill-77" fill="#FFFFFF" points="12.398 169.551 41.922 169.551 41.922 158.585 12.398 158.585"></polygon>
                                    <polygon id="Fill-78" fill="#FFFFFF" points="52.045 169.551 81.569 169.551 81.569 158.585 52.045 158.585"></polygon>
                                    <polygon id="Fill-79" fill="#FFFFFF" points="12.398 186.422 41.922 186.422 41.922 175.456 12.398 175.456"></polygon>
                                    <polygon id="Fill-80" fill="#FFFFFF" points="52.045 186.422 81.569 186.422 81.569 175.456 52.045 175.456"></polygon>
                                    <polygon id="Fill-81" fill="#FFFFFF" points="12.398 203.293 41.922 203.293 41.922 192.327 12.398 192.327"></polygon>
                                    <polygon id="Fill-82" fill="#FFFFFF" points="52.045 203.293 81.569 203.293 81.569 192.327 52.045 192.327"></polygon>
                                    <polygon id="Fill-83" fill="#969696" points="55.841 32.054 62.59 32.054 62.59 0 55.841 0"></polygon>
                                    <polygon id="Fill-84" fill="#969696" points="64.276 32.054 69.337 32.054 69.337 11.809 64.276 11.809"></polygon>
                                </g>
                                <g id="Group-21" transform="translate(549.000000, 23.000000)">
                                    <polygon id="Fill-8" fill="#EBEBEB" points="0.854 263.755 116.419 263.755 116.419 24.19 0.854 24.19"></polygon>
                                    <polygon id="Fill-9" fill="#B2B2B2" points="12.454 57.932 41.134 57.932 41.134 44.435 12.454 44.435"></polygon>
                                    <polygon id="Fill-10" fill="#B2B2B2" points="12.454 83.238 41.134 83.238 41.134 69.741 12.454 69.741"></polygon>
                                    <polygon id="Fill-11" fill="#B2B2B2" points="12.454 108.544 41.134 108.544 41.134 95.047 12.454 95.047"></polygon>
                                    <polygon id="Fill-12" fill="#B2B2B2" points="23.209 24.19 94.066 24.19 94.066 8.163 23.209 8.163"></polygon>
                                    <polygon id="Fill-13" fill="#EBEBEB" points="107.7734 0.5712 58.6374 5.6332 9.9224 0.5712 9.9224 9.8502 58.8484 14.9112 107.7734 9.8502"></polygon>
                                </g>
                                <g id="Group-23" transform="translate(611.000000, 102.000000)">
                                    <polygon id="Fill-21" fill="#B2B2B2" points="0.855 185.599 107.984 185.599 107.984 12.674 0.855 12.674"></polygon>
                                    <polygon id="Fill-22" fill="#FFFFFF" points="17.093 49.789 32.277 49.789 32.277 33.762 17.093 33.762"></polygon>
                                    <polygon id="Fill-23" fill="#FFFFFF" points="46.616 49.789 61.8 49.789 61.8 33.762 46.616 33.762"></polygon>
                                    <polygon id="Fill-24" fill="#FFFFFF" points="76.14 49.789 91.324 49.789 91.324 33.762 76.14 33.762"></polygon>
                                    <polygon id="Fill-25" fill="#969696" points="24.895 12.673 83.943 12.673 83.943 0.02 24.895 0.02"></polygon>
                                </g>
                                <g id="Group-24" transform="translate(693.000000, 129.000000)">
                                    <polygon id="Fill-44" fill="#EBEBEB" points="0.378 158.599 115.942 158.599 115.942 14.245 0.378 14.245"></polygon>
                                    <polygon id="Fill-45" fill="#B2B2B2" points="11.977 34.577 40.657 34.577 40.657 26.445 11.977 26.445"></polygon>
                                    <polygon id="Fill-46" fill="#B2B2B2" points="11.977 49.826 40.657 49.826 40.657 41.694 11.977 41.694"></polygon>
                                    <polygon id="Fill-47" fill="#B2B2B2" points="11.977 65.075 40.657 65.075 40.657 56.942 11.977 56.942"></polygon>
                                    <polygon id="Fill-48" fill="#B2B2B2" points="22.732 14.245 93.589 14.245 93.589 4.588 22.732 4.588"></polygon>
                                    <polygon id="Fill-49" fill="#EBEBEB" points="107.2963 0.0136 58.1603 3.0636 9.4453 0.0136 9.4453 5.6046 58.3713 8.6546 107.2963 5.6046"></polygon>
                                </g>
                                <g id="Group-17" transform="translate(830.000000, 69.000000)">
                                    <polygon id="Fill-50" fill="#D8D8D8" points="0.657 218.599 95.977 218.599 95.977 12.776 0.657 12.776"></polygon>
                                    <polygon id="Fill-51" fill="#969696" points="3.187 15.306 90.915 15.306 90.915 0.966 3.187 0.966"></polygon>
                                    <polygon id="Fill-57" fill="#FFFFFF" points="21.745 77.728 34.398 77.728 34.398 28.803 21.745 28.803"></polygon>
                                    <polygon id="Fill-58" fill="#FFFFFF" points="38.616 77.728 51.269 77.728 51.269 28.803 38.616 28.803"></polygon>
                                </g>
                                <g id="Group-18" transform="translate(737.000000, 0.000000)">
                                    <polygon id="Fill-52" fill="#B2B2B2" points="0.378 287.599 107.507 287.599 107.507 20.35 0.378 20.35"></polygon>
                                    <polygon id="Fill-53" fill="#FFFFFF" points="16.616 77.711 31.8 77.711 31.8 52.941 16.616 52.941"></polygon>
                                    <polygon id="Fill-54" fill="#FFFFFF" points="46.14 77.711 61.324 77.711 61.324 52.941 46.14 52.941"></polygon>
                                    <polygon id="Fill-55" fill="#FFFFFF" points="75.664 77.711 90.848 77.711 90.848 52.941 75.664 52.941"></polygon>
                                    <polygon id="Fill-56" fill="#969696" points="24.419 20.351 83.466 20.351 83.466 0.796 24.419 0.796"></polygon>
                                </g>
                                <g id="Group-16" transform="translate(888.000000, 23.000000)">
                                    <polygon id="Fill-59" fill="#EBEBEB" points="0.854 263.755 116.419 263.755 116.419 24.19 0.854 24.19"></polygon>
                                    <polygon id="Fill-60" fill="#D8D8D8" points="12.454 57.932 41.134 57.932 41.134 44.435 12.454 44.435"></polygon>
                                    <polygon id="Fill-61" fill="#D8D8D8" points="12.454 83.238 41.134 83.238 41.134 69.741 12.454 69.741"></polygon>
                                    <polygon id="Fill-62" fill="#D8D8D8" points="12.454 108.544 41.134 108.544 41.134 95.047 12.454 95.047"></polygon>
                                    <polygon id="Fill-63" fill="#D8D8D8" points="23.209 24.19 94.066 24.19 94.066 8.163 23.209 8.163"></polygon>
                                    <polygon id="Fill-64" fill="#EBEBEB" points="107.7733 0.5712 58.6373 5.6332 9.9223 0.5712 9.9223 9.8502 58.8483 14.9112 107.7733 9.8502"></polygon>
                                </g>
                                <g id="Group-15" transform="translate(826.000000, 172.000000)">
                                    <polygon id="Fill-89" fill="#EBEBEB" points="0.941 115.599 217.73 115.599 217.73 16.905 0.941 16.905"></polygon>
                                    <polygon id="Fill-90" fill="#969696" points="1 16.871 217.789 16.871 217.789 0 1 0"></polygon>
                                    <polygon id="Fill-91" fill="#D8D8D8" points="137.453 115.599 148.419 115.599 148.419 16.905 137.453 16.905"></polygon>
                                    <polygon id="Fill-92" fill="#D8D8D8" points="69.97 115.599 80.936 115.599 80.936 16.905 69.97 16.905"></polygon>
                                    <polygon id="Fill-94" fill="#D8D8D8" points="89.934 55.708 128.737 55.708 128.737 28.715 89.934 28.715"></polygon>
                                    <polygon id="Fill-95" fill="#D8D8D8" points="157.417 55.708 172.882 55.708 172.882 28.715 157.417 28.715"></polygon>
                                    <polygon id="Fill-96" fill="#D8D8D8" points="182.723 55.708 198.188 55.708 198.188 28.715 182.723 28.715"></polygon>
                                    <polygon id="Fill-97" fill="#D8D8D8" points="20.763 55.708 36.228 55.708 36.228 28.715 20.763 28.715"></polygon>
                                    <polygon id="Fill-98" fill="#D8D8D8" points="46.07 55.708 61.535 55.708 61.535 28.715 46.07 28.715"></polygon>
                                </g>
                                <g id="Group-20" transform="translate(424.000000, 172.000000)">
                                    <polygon id="Fill-32" fill="#EBEBEB" points="0.941 115.599 217.73 115.599 217.73 16.905 0.941 16.905"></polygon>
                                    <polygon id="Fill-33" fill="#969696" points="0.941 16.905 217.73 16.905 217.73 0.034 0.941 0.034"></polygon>
                                    <polygon id="Fill-34" fill="#D8D8D8" points="137.453 115.599 148.419 115.599 148.419 16.905 137.453 16.905"></polygon>
                                    <polygon id="Fill-35" fill="#D8D8D8" points="69.97 115.599 80.936 115.599 80.936 16.905 69.97 16.905"></polygon>
                                    <polygon id="Fill-37" fill="#D8D8D8" points="89.934 55.708 128.737 55.708 128.737 28.715 89.934 28.715"></polygon>
                                    <polygon id="Fill-38" fill="#D8D8D8" points="157.417 55.708 172.882 55.708 172.882 28.715 157.417 28.715"></polygon>
                                    <polygon id="Fill-39" fill="#D8D8D8" points="182.723 55.708 198.188 55.708 198.188 28.715 182.723 28.715"></polygon>
                                    <polygon id="Fill-40" fill="#D8D8D8" points="20.763 55.708 36.228 55.708 36.228 28.715 20.763 28.715"></polygon>
                                    <polygon id="Fill-41" fill="#D8D8D8" points="46.07 55.708 61.535 55.708 61.535 28.715 46.07 28.715"></polygon>
                                </g>
                                <g id="Group-109" transform="translate(0.000000, 288.099000)" stroke="#969696" stroke-linecap="round" stroke-width="3">
                                    <path d="M1095.1195,0.5 L41.5945,0.5" id="Stroke-103"></path>
                                    <path d="M1134.7391,0.5 L1111.1201,0.5" id="Stroke-105"></path>
                                    <path d="M24.119,0.5 L0.5,0.5" id="Stroke-107"></path>
                                </g>
                            </g>
                        </g>
                        <g id="Group-9" transform="translate(505.000000, 257.000000)">
                            <path d="M5.83333333,9.89447379 L17.5,9.89447379 C18.8783333,9.89447379 20,11.0170323 20,12.4076646 C20,13.7982968 18.8783333,14.9208553 17.5,14.9208553 L5.83333333,14.9208553 C4.455,14.9208553 3.33333333,13.7982968 3.33333333,12.4076646 C3.33333333,11.0170323 4.455,9.89447379 5.83333333,9.89447379 Z M13.86,21.6226974 C14.2133333,21.6226974 14.5283333,21.8405073 14.645,22.1755994 C14.8833333,22.8625382 15,23.4992132 15,24.1358882 C15,27.369527 12.3816667,30 9.16666667,30 C5.95,30 3.33333333,27.369527 3.33333333,24.1358882 C3.33333333,23.4992132 3.44833333,22.8625382 3.68666667,22.1755994 C3.80333333,21.8405073 4.11833333,21.6226974 4.47166667,21.6226974 C4.47166667,21.6226974 10.545,21.6226974 9.16666667,21.6226974 L13.86,21.6226974 Z M22.4619819,22.713667 C22.3558915,23.0556388 22.03979,23.2981579 21.6666667,23.2981579 L15.8333333,23.2981579 L2.5,23.2981579 C1.12166667,23.2981579 0,22.1755994 0,20.7849672 C0,19.0759974 0.561666667,17.4340461 1.58166667,16.1774507 C1.72,16.0099047 1.87,15.825604 2.02666667,15.658058 C2.33166667,15.3397205 2.83166667,15.3062113 3.17,15.5910396 C3.945,16.2444692 4.865,16.5963159 5.83333333,16.5963159 L16.4666667,16.5963159 C16.7133333,16.5963159 16.9466667,16.7135981 17.105,16.8978988 C17.2633333,17.0821994 17.33,17.3335185 17.2883333,17.5848376 C17.0326704,19.0412385 16.8491797,20.6482212 16.7496112,21.6226974 L21.1119444,21.6226974 L24.9442201,12.3767072 L23.6883333,8.58761459 L26.2866667,7.02943631 C26.68,6.77811723 26.8083333,6.27547908 26.5716667,5.87336855 C26.335,5.47125803 25.825,5.35397579 25.4283333,5.58854026 L21.2616667,8.10173104 C21.1266667,8.18550407 20.98,8.21901328 20.8333333,8.21901328 C20.55,8.21901328 20.275,8.06822183 20.1183333,7.81690275 C19.8816667,7.41479223 20.01,6.89539947 20.4033333,6.66083499 L22.6084017,5.33081321 L22.3166667,4.44922711 C22.0866667,3.7622883 22.1566667,2.99157646 22.505,2.35490147 C22.855,1.71822647 23.4566667,1.24909752 24.16,1.08155147 C25.3776724,0.77309195 26.6094284,1.36129661 27.1456481,2.48033774 C27.4163789,2.27163259 27.7343503,2.12576543 28.0766667,2.05331857 L30.67,1.53392581 C30.9466667,1.483662 31.2383333,1.56743502 31.435,1.76849028 C31.6333333,1.98630015 31.7116667,2.28788304 31.6416667,2.55595673 L30.8083333,5.90687776 C30.715,6.27547908 30.3816667,6.54355276 30,6.54355276 L28.8819913,6.54355276 L31.5983333,12.9103027 C31.645,13.0443396 32.365,14.9208553 34.1666667,14.9208553 C36.7133333,14.9208553 40,16.546052 40,18.2717764 C40,18.5733593 39.8716667,18.8749422 39.6366667,19.1095066 C39.3236462,19.4144214 38.733302,19.6150131 38.0279732,19.7444055 C39.2365578,20.8195727 40,22.3897962 40,24.1358882 C40,27.369527 37.3816667,30 34.1666667,30 C30.95,30 28.3333333,27.369527 28.3333333,24.1358882 C28.3333333,23.8515206 28.3535694,23.5718176 28.39267,23.2981579 L27.8833333,23.2981579 C27.0333333,23.2981579 26.25,22.8625382 25.785,22.1588448 C25.3216667,21.4383968 25.2483333,20.5504027 25.59,19.7629362 C25.87,19.1262612 26.2516667,18.4895862 26.7216667,17.8864205 C27.4166667,16.9816718 27.3983333,15.7250764 26.6766667,14.8035731 L26.0609065,14.0306743 L22.4619819,22.713667 Z" id="Combined-Shape" fill="#FFFFFF"></path>
                            <path d="M31.6666667,24.1358882 C31.6666667,22.745256 32.7883333,21.6226974 34.1666667,21.6226974 C35.545,21.6226974 36.6666667,22.745256 36.6666667,24.1358882 C36.6666667,25.5265204 35.545,26.649079 34.1666667,26.649079 C32.7883333,26.649079 31.6666667,25.5265204 31.6666667,24.1358882 Z M22.4619819,22.713667 C22.3558915,23.0556388 22.03979,23.2981579 21.6666667,23.2981579 L15.8333333,23.2981579 L14.9329259,23.2981579 C14.9777805,23.5801865 15,23.8580373 15,24.1358882 C15,27.369527 12.3816667,30 9.16666667,30 C5.95,30 3.33333333,27.369527 3.33333333,24.1358882 C3.33333333,23.8580373 3.35523543,23.5801865 3.39973226,23.2981579 L2.5,23.2981579 C1.12166667,23.2981579 0,22.1755994 0,20.7849672 C0,19.0759974 0.561666667,17.4340461 1.58166667,16.1774507 C1.72,16.0099047 1.87,15.825604 2.02666667,15.658058 C2.33166667,15.3397205 2.83166667,15.3062113 3.17,15.5910396 C3.945,16.2444692 4.865,16.5963159 5.83333333,16.5963159 L16.4666667,16.5963159 C16.7133333,16.5963159 16.9466667,16.7135981 17.105,16.8978988 C17.2633333,17.0821994 17.33,17.3335185 17.2883333,17.5848376 C17.0326704,19.0412385 16.8491797,20.6482212 16.7496112,21.6226974 L21.1119444,21.6226974 L24.9442201,12.3767072 L23.6883333,8.58761459 L26.2866667,7.02943631 C26.68,6.77811723 26.8083333,6.27547908 26.5716667,5.87336855 C26.335,5.47125803 25.825,5.35397579 25.4283333,5.58854026 L21.2616667,8.10173104 C21.1266667,8.18550407 20.98,8.21901328 20.8333333,8.21901328 C20.55,8.21901328 20.275,8.06822183 20.1183333,7.81690275 C19.8816667,7.41479223 20.01,6.89539947 20.4033333,6.66083499 L22.6084017,5.33081321 L22.3166667,4.44922711 C22.0866667,3.7622883 22.1566667,2.99157646 22.505,2.35490147 C22.855,1.71822647 23.4566667,1.24909752 24.16,1.08155147 C25.3776724,0.77309195 26.6094284,1.36129661 27.1456481,2.48033774 C27.4163789,2.27163259 27.7343503,2.12576543 28.0766667,2.05331857 L30.67,1.53392581 C30.9466667,1.483662 31.2383333,1.56743502 31.435,1.76849028 C31.6333333,1.98630015 31.7116667,2.28788304 31.6416667,2.55595673 L30.8083333,5.90687776 C30.715,6.27547908 30.3816667,6.54355276 30,6.54355276 L28.8819913,6.54355276 L31.5983333,12.9103027 C31.645,13.0443396 32.365,14.9208553 34.1666667,14.9208553 C36.7133333,14.9208553 40,16.546052 40,18.2717764 C40,18.5733593 39.8716667,18.8749422 39.6366667,19.1095066 C39.3236462,19.4144214 38.733302,19.6150131 38.0279732,19.7444055 C39.2365578,20.8195727 40,22.3897962 40,24.1358882 C40,27.369527 37.3816667,30 34.1666667,30 C30.95,30 28.3333333,27.369527 28.3333333,24.1358882 C28.3333333,23.8515206 28.3535694,23.5718176 28.39267,23.2981579 L27.8833333,23.2981579 C27.0333333,23.2981579 26.25,22.8625382 25.785,22.1588448 C25.3216667,21.4383968 25.2483333,20.5504027 25.59,19.7629362 C25.87,19.1262612 26.2516667,18.4895862 26.7216667,17.8864205 C27.4166667,16.9816718 27.3983333,15.7250764 26.6766667,14.8035731 L26.0609065,14.0306743 L22.4619819,22.713667 Z M6.80880766,23.2981579 C6.71676898,23.5600493 6.66666667,23.8419816 6.66666667,24.1358882 C6.66666667,25.5265204 7.78833333,26.649079 9.16666667,26.649079 C10.545,26.649079 11.6666667,25.5265204 11.6666667,24.1358882 C11.6666667,23.8419816 11.6165644,23.5600493 11.5245257,23.2981579 L6.80880766,23.2981579 Z M5.83333333,9.89447379 L17.5,9.89447379 C18.8783333,9.89447379 20,11.0170323 20,12.4076646 C20,13.7982968 18.8783333,14.9208553 17.5,14.9208553 L5.83333333,14.9208553 C4.455,14.9208553 3.33333333,13.7982968 3.33333333,12.4076646 C3.33333333,11.0170323 4.455,9.89447379 5.83333333,9.89447379 Z" id="Combined-Shape-Copy-3" fill="#06A0E3"></path>
                            <path d="M61.8799048,24.8553071 C59.3181913,23.9426323 59,18.8965189 59,15 C59,11.35 60.3725,8.3 63.085,5.85 L61.865,4.625 C61.5075,4.275 61.4,3.75 61.595,3.275 C61.7875,2.8 62.2425,2.5 62.75,2.5 L68.6175,2.5 C74.1725,0.25 80.335,0 82.75,0 C95.5175,0 103.875,6.05 105.705,7.5 C114.905,7.7 119,13.875 119,16.25 L119,21.25 C119,23.425 116.76,25 115.25,25 L113.570079,25 C112.536953,27.9055805 109.757395,30 106.5,30 C103.240635,30 100.462211,27.9055805 99.4296545,25 L76.0700793,25 C75.0369526,27.9055805 72.2573953,30 69,30 C65.686778,30 62.8705221,27.8357928 61.8799048,24.8553071 Z" id="Combined-Shape-Copy-4" fill="#FFFFFF"></path>
                            <path d="M106.5,17.5 C103.7425,17.5 101.5,19.75 101.5,22.5 C101.5,25.25 103.7425,27.5 106.5,27.5 C109.2575,27.5 111.5,25.25 111.5,22.5 C111.5,19.75 109.2575,17.5 106.5,17.5 L106.5,17.5 Z M61.8799048,24.8553071 C59.3181913,23.9426323 59,18.8965189 59,15 C59,11.35 60.3725,8.3 63.085,5.85 L61.865,4.625 C61.5075,4.275 61.4,3.75 61.595,3.275 C61.7875,2.8 62.2425,2.5 62.75,2.5 L68.6175,2.5 C74.1725,0.25 80.335,0 82.75,0 C95.5175,0 103.875,6.05 105.705,7.5 C114.905,7.7 119,13.875 119,16.25 L119,21.25 C119,23.425 116.76,25 115.25,25 L113.570079,25 C112.536953,27.9055805 109.757395,30 106.5,30 C103.240635,30 100.462211,27.9055805 99.4296545,25 L76.0700793,25 C75.0369526,27.9055805 72.2573953,30 69,30 C65.686778,30 62.8705221,27.8357928 61.8799048,24.8553071 Z M69,17.5 C66.2425,17.5 64,19.75 64,22.5 C64,25.25 66.2425,27.5 69,27.5 C71.7575,27.5 74,25.25 74,22.5 C74,19.75 71.7575,17.5 69,17.5 Z M97.75,12.5 C98.44,12.5 99,11.95 99,11.25 C99,10.55 98.44,10 97.75,10 L86.5,10 L86.5,6.25 C86.5,5.55 85.94,5 85.25,5 C84.5575,5 84,5.55 84,6.25 L84,11.25 C84,11.95 84.5575,12.5 85.25,12.5 L97.75,12.5 Z" id="Combined-Shape" fill="#06A0E3"></path>
                        </g>
                        <g id="Group-19" transform="translate(160.000000, 249.000000)">
                            <path d="M724.104893,32.8950598 C721.202782,32.3564274 719,29.8086656 719,26.75 L719,21.75 C719,18.3 721.8025,15.5 725.25,15.5 C726.395,15.5 727.46,14.925 728.095,13.975 L730.225,10.775 C731.3875,9.05 733.33,8 735.425,8 L753.495,8 C754.9075,8 756.295,8.475 757.4,9.375 L767.25,17.25 C767.855,17.725 768.6125,18 769.3875,18 L771.5,18 C776.37,18 779,22.5 779,26.75 C779,29.9311365 776.872052,32.3996579 773.893174,32.9049679 C773.350035,35.8038273 770.801009,38 767.75,38 C764.730231,38 762.20534,35.85169 761.625299,33 L736.3746,33 C735.794116,35.85169 733.267579,38 730.25,38 C727.1933,38 724.643656,35.7988216 724.104893,32.8950598 Z" id="Combined-Shape" fill="#FFFFFF"></path>
                            <path d="M730.25,28 C728.1825,28 726.5,29.675 726.5,31.75 C726.5,33.825 728.1825,35.5 730.25,35.5 C732.3175,35.5 734,33.825 734,31.75 C734,29.675 732.3175,28 730.25,28 L730.25,28 Z M724.104893,32.8950598 C721.202782,32.3564274 719,29.8086656 719,26.75 L719,21.75 C719,18.3 721.8025,15.5 725.25,15.5 C726.395,15.5 727.46,14.925 728.095,13.975 L730.225,10.775 C731.3875,9.05 733.33,8 735.425,8 L753.495,8 C754.9075,8 756.295,8.475 757.4,9.375 L767.25,17.25 C767.855,17.725 768.6125,18 769.3875,18 L771.5,18 C776.37,18 779,22.5 779,26.75 C779,29.9311365 776.872052,32.3996579 773.893174,32.9049679 C773.350035,35.8038273 770.801009,38 767.75,38 C764.730231,38 762.20534,35.85169 761.625299,33 L736.3746,33 C735.794116,35.85169 733.267579,38 730.25,38 C727.1933,38 724.643656,35.7988216 724.104893,32.8950598 Z M760.25,20.5 C760.94,20.5 761.5,19.95 761.5,19.25 C761.5,18.55 760.94,18 760.25,18 L749,18 L749,14.25 C749,13.55 748.44,13 747.75,13 C747.0575,13 746.5,13.55 746.5,14.25 L746.5,19.25 C746.5,19.95 747.0575,20.5 747.75,20.5 L760.25,20.5 Z M752.75,25.5 C753.44,25.5 754,24.95 754,24.25 C754,23.55 753.44,23 752.75,23 L750.25,23 C749.5575,23 749,23.55 749,24.25 C749,24.95 749.5575,25.5 750.25,25.5 L752.75,25.5 Z M742.75,20.5 C743.44,20.5 744,19.95 744,19.25 C744,18.55 743.44,18 742.75,18 L734.7725,18 L736.3675,14.8 C736.675,14.2 736.425,13.45 735.8075,13.125 C735.19,12.825 734.44,13.075 734.13,13.7 L731.63,18.7 C731.4375,19.075 731.4575,19.55 731.685,19.9 C731.915,20.275 732.315,20.5 732.75,20.5 L742.75,20.5 Z M767.75,28 C765.6825,28 764,29.675 764,31.75 C764,33.825 765.6825,35.5 767.75,35.5 C769.8175,35.5 771.5,33.825 771.5,31.75 C771.5,29.675 769.8175,28 767.75,28 Z" id="Combined-Shape-Copy-2" fill="#06A0E3"></path>
                            <g id="Group-28">
                                <g id="Group-26" transform="translate(0.000000, 4.000000)">
                                    <path d="M27.5,3.77777778 L34.495,3.77777778 C35.9075,3.77777778 37.295,4.2562963 38.4,5.16296296 L48.25,13.0962963 C48.855,13.5748148 49.6125,13.8518519 50.3875,13.8518519 L52.5,13.8518519 C57.37,13.8518519 60,18.3851852 60,22.6666667 C60,25.8713671 57.8720521,28.3581739 54.8931737,28.8672269 C54.3500352,31.7875594 51.8010088,34 48.75,34 C45.7302309,34 43.2053403,31.8357765 42.6252989,28.962963 L17.3745999,28.962963 C16.7941163,31.8357765 14.2675793,34 11.25,34 C8.19329957,34 5.6436563,31.7825166 5.10489282,28.8572455 C2.20278155,28.3146231 0,25.7479891 0,22.6666667 L0,17.6296296 C0,14.1540741 2.8025,11.3333333 6.25,11.3333333 C7.395,11.3333333 8.46,10.7540741 9.095,9.79703704 L11.225,6.57333333 C12.3875,4.83555556 14.33,3.77777778 16.425,3.77777778 L23.75,3.77777778 L23.75,1.25 C23.75,0.559644063 24.3096441,1.26816328e-16 25,0 L26.25,0 C26.9403559,-1.26816328e-16 27.5,0.559644063 27.5,1.25 L27.5,3.77777778 Z" id="Combined-Shape-Copy-5" fill="#FFFFFF"></path>
                                    <path d="M27.5,3.77777778 L34.495,3.77777778 C35.9075,3.77777778 37.295,4.2562963 38.4,5.16296296 L48.25,13.0962963 C48.855,13.5748148 49.6125,13.8518519 50.3875,13.8518519 L52.5,13.8518519 C57.37,13.8518519 60,18.3851852 60,22.6666667 C60,25.8713671 57.8720521,28.3581739 54.8931737,28.8672269 C54.3500352,31.7875594 51.8010088,34 48.75,34 C45.7302309,34 43.2053403,31.8357765 42.6252989,28.962963 L17.3745999,28.962963 C16.7941163,31.8357765 14.2675793,34 11.25,34 C8.19329957,34 5.6436563,31.7825166 5.10489282,28.8572455 C2.20278155,28.3146231 0,25.7479891 0,22.6666667 L0,17.6296296 C0,14.1540741 2.8025,11.3333333 6.25,11.3333333 C7.395,11.3333333 8.46,10.7540741 9.095,9.79703704 L11.225,6.57333333 C12.3875,4.83555556 14.33,3.77777778 16.425,3.77777778 L23.75,3.77777778 L23.75,1.25 C23.75,0.559644063 24.3096441,1.26816328e-16 25,0 L26.25,0 C26.9403559,-1.26816328e-16 27.5,0.559644063 27.5,1.25 L27.5,3.77777778 Z M11.25,23.9259259 C9.1825,23.9259259 7.5,25.6133333 7.5,27.7037037 C7.5,29.7940741 9.1825,31.4814815 11.25,31.4814815 C13.3175,31.4814815 15,29.7940741 15,27.7037037 C15,25.6133333 13.3175,23.9259259 11.25,23.9259259 Z M41.25,16.3703704 C41.94,16.3703704 42.5,15.8162963 42.5,15.1111111 C42.5,14.4059259 41.94,13.8518519 41.25,13.8518519 L30,13.8518519 L30,10.0740741 C30,9.36888889 29.44,8.81481481 28.75,8.81481481 C28.0575,8.81481481 27.5,9.36888889 27.5,10.0740741 L27.5,15.1111111 C27.5,15.8162963 28.0575,16.3703704 28.75,16.3703704 L41.25,16.3703704 Z M33.75,21.4074074 C34.44,21.4074074 35,20.8533333 35,20.1481481 C35,19.442963 34.44,18.8888889 33.75,18.8888889 L31.25,18.8888889 C30.5575,18.8888889 30,19.442963 30,20.1481481 C30,20.8533333 30.5575,21.4074074 31.25,21.4074074 L33.75,21.4074074 Z M23.75,16.3703704 C24.44,16.3703704 25,15.8162963 25,15.1111111 C25,14.4059259 24.44,13.8518519 23.75,13.8518519 L15.7725,13.8518519 L17.3675,10.6281481 C17.675,10.0237037 17.425,9.26814815 16.8075,8.94074074 C16.19,8.63851852 15.44,8.89037037 15.13,9.52 L12.63,14.557037 C12.4375,14.9348148 12.4575,15.4133333 12.685,15.7659259 C12.915,16.1437037 13.315,16.3703704 13.75,16.3703704 L23.75,16.3703704 Z M48.75,23.9259259 C46.6825,23.9259259 45,25.6133333 45,27.7037037 C45,29.7940741 46.6825,31.4814815 48.75,31.4814815 C50.8175,31.4814815 52.5,29.7940741 52.5,27.7037037 C52.5,25.6133333 50.8175,23.9259259 48.75,23.9259259 Z" id="Combined-Shape" fill="#04DE47"></path>
                                </g>
                                <g id="Group-27" transform="translate(74.000000, 0.000000)">
                                    <path d="M5.10489282,32.826994 C2.20278155,32.2811797 0,29.6994478 0,26.6 L0,6.33333333 C0,2.83733333 2.8025,0 6.25,0 L36.68,0 C38.35,0 39.915,0.658666667 41.0975,1.84933333 L52.37,13.2746667 C53.6875,14.6173333 55.3425,15.5546667 57.1575,16.036 C58.83,16.4413333 60,17.9613333 60,19.7093333 L60,26.6 C60,29.6994478 57.7972185,32.2811797 54.8951072,32.826994 C54.3563437,35.7694726 51.8067004,38 48.75,38 C45.7302309,38 43.2053403,35.8230458 42.6252989,32.9333333 L17.3747011,32.9333333 C16.7946597,35.8230458 14.2697691,38 11.25,38 C8.19329957,38 5.6436563,35.7694726 5.10489282,32.826994 Z" id="Combined-Shape" fill="#FFFFFF"></path>
                                    <path d="M11.25,27.8666667 C9.1825,27.8666667 7.5,29.564 7.5,31.6666667 C7.5,33.7693333 9.1825,35.4666667 11.25,35.4666667 C13.3175,35.4666667 15,33.7693333 15,31.6666667 C15,29.564 13.3175,27.8666667 11.25,27.8666667 L11.25,27.8666667 Z M5.10489282,32.826994 C2.20278155,32.2811797 0,29.6994478 0,26.6 L0,6.33333333 C0,2.83733333 2.8025,0 6.25,0 L36.68,0 C38.35,0 39.915,0.658666667 41.0975,1.84933333 L52.37,13.2746667 C53.6875,14.6173333 55.3425,15.5546667 57.1575,16.036 C58.83,16.4413333 60,17.9613333 60,19.7093333 L60,26.6 C60,29.6994478 57.7972185,32.2811797 54.8951072,32.826994 C54.3563437,35.7694726 51.8067004,38 48.75,38 C45.7302309,38 43.2053403,35.8230458 42.6252989,32.9333333 L17.3747011,32.9333333 C16.7946597,35.8230458 14.2697691,38 11.25,38 C8.19329957,38 5.6436563,35.7694726 5.10489282,32.826994 Z M48.75,27.8666667 C46.6825,27.8666667 45,29.564 45,31.6666667 C45,33.7693333 46.6825,35.4666667 48.75,35.4666667 C50.8175,35.4666667 52.5,33.7693333 52.5,31.6666667 C52.5,29.564 50.8175,27.8666667 48.75,27.8666667 Z M46.25,17.7333333 C46.94,17.7333333 47.5,17.176 47.5,16.4666667 C47.5,15.7573333 46.94,15.2 46.25,15.2 L32.5,15.2 L32.5,6.33333333 C32.5,5.624 31.94,5.06666667 31.25,5.06666667 C30.5575,5.06666667 30,5.624 30,6.33333333 L30,16.4666667 C30,17.176 30.5575,17.7333333 31.25,17.7333333 L46.25,17.7333333 Z M38.75,22.8 C39.44,22.8 40,22.2426667 40,21.5333333 C40,20.824 39.44,20.2666667 38.75,20.2666667 L36.25,20.2666667 C35.5575,20.2666667 35,20.824 35,21.5333333 C35,22.2426667 35.5575,22.8 36.25,22.8 L38.75,22.8 Z M26.25,17.7333333 C26.94,17.7333333 27.5,17.176 27.5,16.4666667 C27.5,15.7573333 26.94,15.2 26.25,15.2 L20,15.2 L20,6.33333333 C20,5.624 19.44,5.06666667 18.75,5.06666667 C18.0575,5.06666667 17.5,5.624 17.5,6.33333333 L17.5,16.4666667 C17.5,17.176 18.0575,17.7333333 18.75,17.7333333 L26.25,17.7333333 Z M13.75,17.7333333 C14.44,17.7333333 15,17.176 15,16.4666667 C15,15.7573333 14.44,15.2 13.75,15.2 L7.5,15.2 L7.5,6.33333333 C7.5,5.624 6.94,5.06666667 6.25,5.06666667 C5.5575,5.06666667 5,5.624 5,6.33333333 L5,16.4666667 C5,17.176 5.5575,17.7333333 6.25,17.7333333 L13.75,17.7333333 Z" id="Combined-Shape-Copy-6" fill="#04DE47"></path>
                                </g>
                            </g>
                        </g>
                    </g>
                </g>
            </g>
        </g>
    </g>
</svg>